<?xml version="1.0" encoding="UTF-8" standalone="no"?>
<svg width="42px" height="42px" viewBox="0 0 42 42" version="1.1" xmlns="http://www.w3.org/2000/svg" xmlns:xlink="http://www.w3.org/1999/xlink">
    <!-- Generator: Sketch 47.1 (45422) - http://www.bohemiancoding.com/sketch -->
    <title>Artboard</title>
    <desc>Created with Sketch.</desc>
    <defs></defs>
    <g id="Page-1" stroke="none" stroke-width="1" fill="none" fill-rule="evenodd">
        <g id="Artboard">
            <circle id="Oval" fill="#FFFFFF" cx="21" cy="21" r="20"></circle>
            <g id="Canada" transform="translate(3.000000, 3.000000)">
                <g id="Shape">
                    <path d="M0.0631578947,18 C0.0631578947,22.5310345 1.83157895,26.6275862 4.73684211,29.7310345 L4.73684211,6.26896552 C1.83157895,9.37241379 0.0631578947,13.4689655 0.0631578947,18 Z" fill="#ED2025" fill-rule="nonzero"></path>
                    <path d="M35.8736842,18 C35.8736842,13.4689655 34.1052632,9.37241379 31.2,6.26896552 L31.2,29.7310345 C34.1052632,26.6275862 35.8736842,22.5310345 35.8736842,18 Z" fill="#ED2025" fill-rule="nonzero"></path>
                    <path d="M31.2,6.26896552 C27.9157895,2.73103448 23.2421053,0.55862069 17.9368421,0.55862069 C12.6947368,0.55862069 7.95789474,2.79310345 4.67368421,6.26896552 L4.67368421,29.7310345 C7.95789474,33.2689655 12.6315789,35.4413793 17.9368421,35.4413793 C23.1789474,35.4413793 27.9157895,33.2068966 31.2,29.7310345 L31.2,6.26896552 Z M26.6526316,16.8206897 L27.6,17.3793103 L23.7473684,20.2344828 C23.6210526,20.3586207 23.5578947,20.5448276 23.6842105,20.6689655 L24.3789474,21.7862069 L18.7578947,21.537931 C18.5052632,21.537931 18.3157895,21.7241379 18.3157895,21.9724138 L18.5684211,27.9310345 L18,27.9310345 L17.4315789,27.9310345 L17.6842105,21.9724138 C17.6842105,21.7241379 17.4947368,21.537931 17.2421053,21.537931 L11.6210526,21.7862069 L12.3157895,20.6689655 C12.3789474,20.5448276 12.3789474,20.2965517 12.2526316,20.2344828 L8.4,17.3793103 L9.34736842,16.8206897 C9.6,16.6965517 9.66315789,16.3862069 9.47368421,16.137931 L8.14736842,14.2758621 L10.6736842,14.9586207 C10.9263158,15.0206897 11.1789474,14.8344828 11.2421053,14.5862069 L11.4315789,13.4068966 L14.2105263,15.2689655 C14.4,15.3931034 14.7157895,15.2689655 14.6526316,14.9586207 L14.1473684,9.99310345 L15.4105263,10.862069 C15.6,10.9862069 15.9157895,10.9241379 16.0421053,10.737931 L18,7.75862069 L19.9578947,10.737931 C20.0842105,10.9241379 20.4,10.9862069 20.5894737,10.862069 L21.8526316,9.99310345 L21.3473684,14.9586207 C21.3473684,15.2068966 21.6,15.3931034 21.7894737,15.2689655 L24.5684211,13.4068966 L24.7578947,14.5862069 C24.8210526,14.8344828 25.0736842,15.0206897 25.3263158,14.9586207 L27.8526316,14.2758621 L26.5263158,16.137931 C26.4,16.3862069 26.4631579,16.6965517 26.6526316,16.8206897 Z" fill="#FFFFFF" fill-rule="nonzero"></path>
                    <path d="M27.9157895,14.337931 L25.3894737,15.0206897 C25.1368421,15.0827586 24.8842105,14.8965517 24.8210526,14.6482759 L24.6315789,13.4689655 L21.8526316,15.3310345 C21.6631579,15.4551724 21.3473684,15.3310345 21.4105263,15.0206897 L21.9157895,10.0551724 L20.6526316,10.9241379 C20.4631579,11.0482759 20.1473684,10.9862069 20.0210526,10.8 L18.0631579,7.82068966 L18.0631579,27.9310345 L18.6315789,27.9310345 L18.3789474,21.9724138 C18.3789474,21.7241379 18.5684211,21.537931 18.8210526,21.537931 L24.4421053,21.7862069 L23.7473684,20.6689655 C23.6842105,20.5448276 23.6842105,20.2965517 23.8105263,20.2344828 L27.6631579,17.3793103 L26.7157895,16.8206897 C26.4631579,16.6965517 26.4,16.3862069 26.5894737,16.137931 L27.9157895,14.337931 Z" fill="#ED2025" fill-rule="nonzero"></path>
                    <path d="M16.0421053,10.9241379 C15.9157895,11.1103448 15.6,11.1724138 15.4105263,11.0482759 L14.1473684,10.1793103 L14.6526316,15.1448276 C14.6526316,15.3931034 14.4,15.5793103 14.2105263,15.4551724 L11.4315789,13.5931034 L11.2421053,14.7724138 C11.1789474,15.0206897 10.9263158,15.2068966 10.6736842,15.1448276 L8.14736842,14.462069 L9.47368421,16.3241379 C9.66315789,16.5103448 9.6,16.8206897 9.34736842,17.0068966 L8.4,17.5655172 L12.2526316,20.4206897 C12.3789474,20.5448276 12.4421053,20.7310345 12.3157895,20.8551724 L11.6210526,21.9724138 L17.2421053,21.7241379 C17.4947368,21.7241379 17.6842105,21.9103448 17.6842105,22.1586207 L17.4315789,28.1172414 L18,28.1172414 L18,7.94482759 L16.0421053,10.9241379 Z" fill="#ED2025" fill-rule="nonzero"></path>
                </g>
            </g>
        </g>
    </g>
</svg>