<?xml version="1.0" encoding="UTF-8" standalone="no"?>
<svg width="36px" height="36px" viewBox="0 0 36 36" version="1.1" xmlns="http://www.w3.org/2000/svg" xmlns:xlink="http://www.w3.org/1999/xlink">
    <!-- Generator: Sketch 47.1 (45422) - http://www.bohemiancoding.com/sketch -->
    <title>Artboard</title>
    <desc>Created with Sketch.</desc>
    <defs></defs>
    <g id="Page-1" stroke="none" stroke-width="1" fill="none" fill-rule="evenodd">
        <g id="Artboard">
            <g id="EstadosUnidos">
                <g id="Shape">
                    <path d="M18.1263158,16.1684211 L18.1263158,13.3894737 L18.1263158,10.6105263 L18.1263158,7.83157895 L18.1263158,5.05263158 L18.1263158,2.27368421 L18.1263158,0 C18,0 17.9368421,0 17.8105263,0 C17.4947368,0 17.2421053,0 16.9263158,0.0631578947 L17.0526316,0.378947368 L17.8736842,0.378947368 L17.2421053,0.821052632 L17.4947368,1.57894737 L16.8631579,1.13684211 L16.2315789,1.57894737 L16.4842105,0.821052632 L15.8526316,0.378947368 L16.6736842,0.378947368 L16.8,0.0631578947 C15.4736842,0.126315789 14.2105263,0.378947368 13.0105263,0.694736842 L12.8842105,0.757894737 L13.1368421,1.51578947 L12.5052632,1.07368421 L11.8736842,1.51578947 L12.0631579,1.01052632 C11.4947368,1.2 10.8631579,1.45263158 10.2947368,1.70526316 L10.5473684,2.4 L11.3684211,2.4 L10.7368421,2.84210526 L10.9894737,3.6 L10.3578947,3.15789474 L9.72631579,3.6 L9.97894737,2.84210526 L9.34736842,2.4 L10.1684211,2.4 L10.4210526,1.70526316 C6.50526316,3.6 3.34736842,6.82105263 1.64210526,10.8631579 L1.70526316,11.0526316 L2.52631579,11.0526316 L1.89473684,11.4947368 L2.14736842,12.2526316 L1.51578947,11.8105263 L1.26315789,12 C0.884210526,13.0736842 0.631578947,14.2105263 0.442105263,15.4105263 L1.2,15.4105263 L1.45263158,14.6526316 L1.70526316,15.4105263 L2.52631579,15.4105263 L1.89473684,15.8526316 L2.14736842,16.6105263 L1.51578947,16.1684211 L0.884210526,16.6105263 L1.13684211,15.8526316 L0.505263158,15.4105263 C0.378947368,16.1684211 0.315789474,16.9263158 0.315789474,17.7473684 C0.315789474,18.1263158 0.378947368,18.5684211 0.378947368,18.9473684 L18.5684211,18.9473684 L18.5684211,16.1684211 L18.1263158,16.1684211 Z M3.97894737,18.8210526 L3.34736842,18.3789474 L2.71578947,18.8210526 L2.96842105,18.0631579 L2.33684211,17.6210526 L3.15789474,17.6210526 L3.41052632,16.8631579 L3.66315789,17.6210526 L4.48421053,17.6210526 L3.85263158,18.0631579 L3.97894737,18.8210526 Z M3.72631579,13.7684211 L3.97894737,14.5263158 L3.34736842,14.0842105 L2.71578947,14.5263158 L2.96842105,13.7684211 L2.33684211,13.3263158 L3.15789474,13.3263158 L3.41052632,12.5684211 L3.66315789,13.3263158 L4.48421053,13.3263158 L3.72631579,13.7684211 Z M3.72631579,9.47368421 L3.97894737,10.2315789 L3.34736842,9.78947368 L2.71578947,10.2315789 L2.96842105,9.47368421 L2.33684211,9.03157895 L3.15789474,9.03157895 L3.41052632,8.27368421 L3.66315789,9.03157895 L4.48421053,9.03157895 L3.72631579,9.47368421 Z M6.25263158,16.6736842 L5.62105263,16.2315789 L4.98947368,16.6736842 L5.24210526,15.9157895 L4.61052632,15.4736842 L5.43157895,15.4736842 L5.68421053,14.7157895 L5.93684211,15.4736842 L6.75789474,15.4736842 L6.12631579,15.9157895 L6.25263158,16.6736842 Z M6,11.5578947 L6.25263158,12.3157895 L5.62105263,11.8736842 L4.98947368,12.3157895 L5.24210526,11.5578947 L4.61052632,11.1157895 L5.43157895,11.1157895 L5.68421053,10.3578947 L5.93684211,11.1157895 L6.75789474,11.1157895 L6,11.5578947 Z M6,7.26315789 L6.25263158,8.02105263 L5.62105263,7.57894737 L4.98947368,8.02105263 L5.24210526,7.26315789 L4.61052632,6.82105263 L5.43157895,6.82105263 L5.68421053,6.06315789 L5.93684211,6.82105263 L6.75789474,6.82105263 L6,7.26315789 Z M8.46315789,18.8210526 L7.83157895,18.3789474 L7.2,18.8210526 L7.45263158,18.0631579 L6.82105263,17.6210526 L7.57894737,17.6210526 L7.83157895,16.8631579 L8.08421053,17.6210526 L8.84210526,17.6210526 L8.21052632,18.0631579 L8.46315789,18.8210526 Z M8.21052632,13.7684211 L8.46315789,14.5263158 L7.83157895,14.0842105 L7.2,14.5263158 L7.45263158,13.7684211 L6.82105263,13.3263158 L7.57894737,13.3263158 L7.83157895,12.5684211 L8.08421053,13.3263158 L8.84210526,13.3263158 L8.21052632,13.7684211 Z M8.21052632,9.47368421 L8.46315789,10.2315789 L7.83157895,9.78947368 L7.2,10.2315789 L7.45263158,9.47368421 L6.82105263,9.03157895 L7.57894737,9.03157895 L7.83157895,8.27368421 L8.08421053,9.03157895 L8.84210526,9.03157895 L8.21052632,9.47368421 Z M8.21052632,5.11578947 L8.46315789,5.87368421 L7.83157895,5.43157895 L7.2,5.87368421 L7.45263158,5.11578947 L6.82105263,4.67368421 L7.57894737,4.67368421 L7.83157895,3.91578947 L8.08421053,4.67368421 L8.84210526,4.67368421 L8.21052632,5.11578947 Z M10.7368421,16.6736842 L10.1052632,16.2315789 L9.47368421,16.6736842 L9.72631579,15.9157895 L9.09473684,15.4736842 L9.91578947,15.4736842 L10.1684211,14.7157895 L10.4210526,15.4736842 L11.2421053,15.4736842 L10.6105263,15.9157895 L10.7368421,16.6736842 Z M10.4842105,11.5578947 L10.7368421,12.3157895 L10.1052632,11.8736842 L9.47368421,12.3157895 L9.72631579,11.5578947 L9.09473684,11.1157895 L9.91578947,11.1157895 L10.1684211,10.3578947 L10.4210526,11.1157895 L11.2421053,11.1157895 L10.4842105,11.5578947 Z M10.4842105,7.26315789 L10.7368421,8.02105263 L10.1052632,7.57894737 L9.47368421,8.02105263 L9.72631579,7.26315789 L9.09473684,6.82105263 L9.91578947,6.82105263 L10.1684211,6.06315789 L10.4210526,6.82105263 L11.2421053,6.82105263 L10.4842105,7.26315789 Z M12.9473684,18.8210526 L12.3157895,18.3789474 L11.6842105,18.8210526 L11.9368421,18.0631579 L11.3052632,17.6210526 L12.1263158,17.6210526 L12.3789474,16.8631579 L12.6315789,17.6210526 L13.4526316,17.6210526 L12.8210526,18.0631579 L12.9473684,18.8210526 Z M12.6947368,13.7684211 L12.9473684,14.5263158 L12.3157895,14.0842105 L11.6842105,14.5263158 L11.9368421,13.7684211 L11.3052632,13.3263158 L12.1263158,13.3263158 L12.3789474,12.5684211 L12.6315789,13.3263158 L13.4526316,13.3263158 L12.6947368,13.7684211 Z M12.6947368,9.47368421 L12.9473684,10.2315789 L12.3157895,9.78947368 L11.6842105,10.2315789 L11.9368421,9.47368421 L11.3052632,9.03157895 L12.1263158,9.03157895 L12.3789474,8.27368421 L12.6315789,9.03157895 L13.4526316,9.03157895 L12.6947368,9.47368421 Z M12.6947368,5.11578947 L12.9473684,5.87368421 L12.3157895,5.43157895 L11.6842105,5.87368421 L11.9368421,5.11578947 L11.3052632,4.67368421 L12.1263158,4.67368421 L12.3789474,3.91578947 L12.6315789,4.67368421 L13.4526316,4.67368421 L12.6947368,5.11578947 Z M15.2210526,16.6736842 L14.5894737,16.2315789 L13.9578947,16.6736842 L14.2105263,15.9157895 L13.5789474,15.4736842 L14.4,15.4736842 L14.6526316,14.7157895 L14.9052632,15.4736842 L15.7263158,15.4736842 L15.0947368,15.9157895 L15.2210526,16.6736842 Z M14.9684211,11.6210526 L15.2210526,12.3789474 L14.5894737,11.9368421 L13.9578947,12.3789474 L14.2105263,11.6210526 L13.5789474,11.1789474 L14.4,11.1789474 L14.6526316,10.4210526 L14.9052632,11.1789474 L15.7263158,11.1789474 L14.9684211,11.6210526 Z M14.9684211,7.26315789 L15.2210526,8.02105263 L14.5263158,7.57894737 L13.8947368,8.02105263 L14.1473684,7.26315789 L13.5157895,6.82105263 L14.3368421,6.82105263 L14.5894737,6.06315789 L14.8421053,6.82105263 L15.6631579,6.82105263 L14.9684211,7.26315789 Z M14.9684211,2.96842105 L15.2210526,3.72631579 L14.5894737,3.28421053 L13.9578947,3.72631579 L14.2105263,2.96842105 L13.5789474,2.52631579 L14.4,2.52631579 L14.6526316,1.76842105 L14.9052632,2.52631579 L15.7263158,2.52631579 L14.9684211,2.96842105 Z M17.4315789,18.8210526 L16.8,18.3789474 L16.1684211,18.8210526 L16.4210526,18.0631579 L15.7894737,17.6210526 L16.6105263,17.6210526 L16.8631579,16.8631579 L17.1157895,17.6210526 L17.9368421,17.6210526 L17.3052632,18.0631579 L17.4315789,18.8210526 Z M17.1789474,13.7684211 L17.4315789,14.5263158 L16.8,14.0842105 L16.1684211,14.5263158 L16.4210526,13.7684211 L15.7894737,13.3263158 L16.6105263,13.3263158 L16.8631579,12.5684211 L17.1157895,13.3263158 L17.9368421,13.3263158 L17.1789474,13.7684211 Z M17.1789474,9.47368421 L17.4315789,10.2315789 L16.8,9.78947368 L16.1684211,10.2315789 L16.4210526,9.47368421 L15.7894737,9.03157895 L16.6105263,9.03157895 L16.8631579,8.27368421 L17.1157895,9.03157895 L17.9368421,9.03157895 L17.1789474,9.47368421 Z M17.1789474,5.17894737 L17.4315789,5.93684211 L16.8,5.49473684 L16.1684211,5.93684211 L16.4210526,5.17894737 L15.7894737,4.73684211 L16.6105263,4.73684211 L16.8631579,3.97894737 L17.1157895,4.73684211 L17.9368421,4.73684211 L17.1789474,5.17894737 Z" fill="#4353A4" fill-rule="nonzero"></path>
                    <path d="M1.26315789,24.5684211 L34.3578947,24.5684211 C34.7368421,23.6842105 35.0526316,22.7368421 35.2421053,21.7894737 L0.378947368,21.7894737 C0.631578947,22.7368421 0.884210526,23.6842105 1.26315789,24.5684211 Z" fill="#A21D21" fill-rule="nonzero"></path>
                    <path d="M4.98947368,30.1894737 L30.6315789,30.1894737 C31.4526316,29.3052632 32.2105263,28.4210526 32.8421053,27.4105263 L2.77894737,27.4105263 C3.41052632,28.4210526 4.16842105,29.3052632 4.98947368,30.1894737 Z" fill="#A21D21" fill-rule="nonzero"></path>
                    <path d="M17.8105263,35.5578947 C21.2210526,35.5578947 24.3789474,34.6105263 27.0315789,32.9684211 L8.58947368,32.9684211 C11.3052632,34.6105263 14.4631579,35.5578947 17.8105263,35.5578947 Z" fill="#A21D21" fill-rule="nonzero"></path>
                    <path d="M12.3157895,1.07368421 L12.9473684,1.51578947 L12.6947368,0.757894737 L12.8210526,0.694736842 C12.5052632,0.821052632 12.1894737,0.884210526 11.8105263,1.01052632 L11.6210526,1.51578947 L12.3157895,1.07368421 Z" fill="#FFFFFF" fill-rule="nonzero"></path>
                    <path d="M15.7263158,0.378947368 L16.3578947,0.821052632 L16.1052632,1.57894737 L16.7368421,1.13684211 L17.3684211,1.57894737 L17.1157895,0.821052632 L17.7473684,0.378947368 L17.0526316,0.378947368 L16.9263158,0.0631578947 C16.8,0.0631578947 16.7368421,0.0631578947 16.6105263,0.0631578947 L16.4842105,0.378947368 L15.7263158,0.378947368 Z" fill="#FFFFFF" fill-rule="nonzero"></path>
                    <path d="M9.03157895,2.46315789 L9.66315789,2.90526316 L9.41052632,3.66315789 L10.0421053,3.22105263 L10.6736842,3.66315789 L10.4210526,2.90526316 L11.0526316,2.46315789 L10.2315789,2.46315789 L10.1052632,1.76842105 C10.1052632,1.76842105 10.1052632,1.76842105 10.0421053,1.76842105 L9.78947368,2.46315789 L9.03157895,2.46315789 Z" fill="#FFFFFF" fill-rule="nonzero"></path>
                    <polygon fill="#FFFFFF" fill-rule="nonzero" points="14.5263158 1.76842105 14.3368421 2.52631579 13.5157895 2.52631579 14.1473684 2.96842105 13.8947368 3.72631579 14.5263158 3.28421053 15.2210526 3.72631579 14.9684211 2.96842105 15.6 2.52631579 14.7789474 2.52631579"></polygon>
                    <polygon fill="#FFFFFF" fill-rule="nonzero" points="7.83157895 3.91578947 7.57894737 4.67368421 6.82105263 4.67368421 7.45263158 5.11578947 7.2 5.87368421 7.83157895 5.43157895 8.46315789 5.87368421 8.21052632 5.11578947 8.84210526 4.67368421 8.08421053 4.67368421"></polygon>
                    <polygon fill="#FFFFFF" fill-rule="nonzero" points="12.3157895 3.91578947 12.0631579 4.67368421 11.2421053 4.67368421 11.9368421 5.11578947 11.6842105 5.87368421 12.3157895 5.43157895 12.9473684 5.87368421 12.6947368 5.11578947 13.3263158 4.67368421 12.5684211 4.67368421"></polygon>
                    <polygon fill="#FFFFFF" fill-rule="nonzero" points="16.8 3.91578947 16.5473684 4.67368421 15.7263158 4.67368421 16.4210526 5.17894737 16.1684211 5.93684211 16.8 5.43157895 17.4315789 5.93684211 17.1789474 5.17894737 17.8105263 4.67368421 17.0526316 4.67368421"></polygon>
                    <polygon fill="#FFFFFF" fill-rule="nonzero" points="5.62105263 6 5.36842105 6.82105263 4.54736842 6.82105263 5.17894737 7.26315789 4.98947368 8.02105263 5.62105263 7.57894737 6.25263158 8.02105263 6 7.26315789 6.63157895 6.82105263 5.87368421 6.82105263"></polygon>
                    <polygon fill="#FFFFFF" fill-rule="nonzero" points="10.1052632 6 9.85263158 6.82105263 9.03157895 6.82105263 9.66315789 7.26315789 9.41052632 8.02105263 10.1052632 7.57894737 10.7368421 8.02105263 10.4842105 7.26315789 11.1157895 6.82105263 10.2947368 6.82105263"></polygon>
                    <polygon fill="#FFFFFF" fill-rule="nonzero" points="14.5263158 6.06315789 14.3368421 6.82105263 13.5157895 6.82105263 14.1473684 7.26315789 13.8947368 8.08421053 14.5263158 7.57894737 15.2210526 8.08421053 14.9684211 7.26315789 15.6 6.82105263 14.7789474 6.82105263"></polygon>
                    <polygon fill="#FFFFFF" fill-rule="nonzero" points="3.34736842 8.21052632 3.09473684 8.96842105 2.33684211 8.96842105 2.96842105 9.47368421 2.71578947 10.2315789 3.34736842 9.72631579 3.97894737 10.2315789 3.72631579 9.47368421 4.35789474 8.96842105 3.6 8.96842105"></polygon>
                    <polygon fill="#FFFFFF" fill-rule="nonzero" points="7.83157895 8.21052632 7.57894737 8.96842105 6.82105263 8.96842105 7.45263158 9.47368421 7.2 10.2315789 7.83157895 9.72631579 8.46315789 10.2315789 8.21052632 9.47368421 8.84210526 8.96842105 8.08421053 8.96842105"></polygon>
                    <polygon fill="#FFFFFF" fill-rule="nonzero" points="12.3157895 8.21052632 12.0631579 8.96842105 11.2421053 8.96842105 11.9368421 9.47368421 11.6842105 10.2315789 12.3157895 9.72631579 12.9473684 10.2315789 12.6947368 9.47368421 13.3263158 8.96842105 12.5684211 8.96842105"></polygon>
                    <polygon fill="#FFFFFF" fill-rule="nonzero" points="16.8 8.27368421 16.5473684 9.03157895 15.7263158 9.03157895 16.4210526 9.47368421 16.1684211 10.2315789 16.8 9.78947368 17.4315789 10.2315789 17.1789474 9.47368421 17.8105263 9.03157895 17.0526316 9.03157895"></polygon>
                    <path d="M1.76842105,12.3789474 L1.51578947,11.6210526 L2.14736842,11.1789474 L1.32631579,11.1789474 L1.26315789,10.9894737 C1.13684211,11.3684211 0.947368421,11.7473684 0.821052632,12.1263158 L1.07368421,11.9368421 L1.76842105,12.3789474 Z" fill="#FFFFFF" fill-rule="nonzero"></path>
                    <polygon fill="#FFFFFF" fill-rule="nonzero" points="5.62105263 10.3578947 5.36842105 11.1157895 4.54736842 11.1157895 5.17894737 11.5578947 4.98947368 12.3789474 5.62105263 11.8736842 6.25263158 12.3789474 6 11.5578947 6.63157895 11.1157895 5.87368421 11.1157895"></polygon>
                    <polygon fill="#FFFFFF" fill-rule="nonzero" points="10.1052632 10.3578947 9.85263158 11.1157895 9.03157895 11.1157895 9.66315789 11.5578947 9.41052632 12.3789474 10.1052632 11.8736842 10.7368421 12.3789474 10.4842105 11.5578947 11.1157895 11.1157895 10.2947368 11.1157895"></polygon>
                    <polygon fill="#FFFFFF" fill-rule="nonzero" points="14.5263158 10.3578947 14.3368421 11.1157895 13.5157895 11.1157895 14.1473684 11.6210526 13.8947368 12.3789474 14.5263158 11.9368421 15.2210526 12.3789474 14.9684211 11.6210526 15.6 11.1157895 14.7789474 11.1157895"></polygon>
                    <polygon fill="#FFFFFF" fill-rule="nonzero" points="3.34736842 12.5052632 3.09473684 13.3263158 2.33684211 13.3263158 2.96842105 13.7684211 2.71578947 14.5263158 3.34736842 14.0842105 3.97894737 14.5263158 3.72631579 13.7684211 4.35789474 13.3263158 3.6 13.3263158"></polygon>
                    <polygon fill="#FFFFFF" fill-rule="nonzero" points="7.83157895 12.5052632 7.57894737 13.3263158 6.82105263 13.3263158 7.45263158 13.7684211 7.2 14.5263158 7.83157895 14.0842105 8.46315789 14.5263158 8.21052632 13.7684211 8.84210526 13.3263158 8.08421053 13.3263158"></polygon>
                    <polygon fill="#FFFFFF" fill-rule="nonzero" points="12.3157895 12.5052632 12.0631579 13.3263158 11.2421053 13.3263158 11.9368421 13.7684211 11.6842105 14.5263158 12.3157895 14.0842105 12.9473684 14.5263158 12.6947368 13.7684211 13.3263158 13.3263158 12.5684211 13.3263158"></polygon>
                    <polygon fill="#FFFFFF" fill-rule="nonzero" points="16.8 12.5684211 16.5473684 13.3263158 15.7263158 13.3263158 16.4210526 13.7684211 16.1684211 14.5894737 16.8 14.0842105 17.4315789 14.5894737 17.1789474 13.7684211 17.8105263 13.3263158 17.0526316 13.3263158"></polygon>
                    <polygon fill="#FFFFFF" fill-rule="nonzero" points="0.505263158 16.6736842 1.13684211 16.2315789 1.76842105 16.6736842 1.51578947 15.9157895 2.14736842 15.4105263 1.38947368 15.4105263 1.13684211 14.6526316 0.884210526 15.4105263 0.0631578947 15.4105263 0.0631578947 15.4105263 0.694736842 15.9157895"></polygon>
                    <polygon fill="#FFFFFF" fill-rule="nonzero" points="5.87368421 15.4105263 5.62105263 14.6526316 5.36842105 15.4105263 4.54736842 15.4105263 5.17894737 15.9157895 4.98947368 16.6736842 5.62105263 16.2315789 6.25263158 16.6736842 6 15.9157895 6.63157895 15.4105263"></polygon>
                    <polygon fill="#FFFFFF" fill-rule="nonzero" points="10.2947368 15.4105263 10.1052632 14.6526316 9.85263158 15.4105263 9.03157895 15.4105263 9.66315789 15.9157895 9.41052632 16.6736842 10.1052632 16.2315789 10.7368421 16.6736842 10.4842105 15.9157895 11.1157895 15.4105263"></polygon>
                    <polygon fill="#FFFFFF" fill-rule="nonzero" points="14.7789474 15.4736842 14.5263158 14.7157895 14.3368421 15.4736842 13.5157895 15.4736842 14.1473684 15.9157895 13.8947368 16.6736842 14.5263158 16.2315789 15.2210526 16.6736842 14.9684211 15.9157895 15.6 15.4736842"></polygon>
                    <polygon fill="#FFFFFF" fill-rule="nonzero" points="3.6 17.5578947 3.34736842 16.8 3.09473684 17.5578947 2.33684211 17.5578947 2.96842105 18 2.71578947 18.8210526 3.34736842 18.3157895 3.97894737 18.8210526 3.72631579 18 4.35789474 17.5578947"></polygon>
                    <polygon fill="#FFFFFF" fill-rule="nonzero" points="8.08421053 17.5578947 7.83157895 16.8 7.57894737 17.5578947 6.82105263 17.5578947 7.45263158 18 7.2 18.8210526 7.83157895 18.3157895 8.46315789 18.8210526 8.21052632 18 8.84210526 17.5578947"></polygon>
                    <polygon fill="#FFFFFF" fill-rule="nonzero" points="12.5684211 17.5578947 12.3157895 16.8 12.0631579 17.5578947 11.2421053 17.5578947 11.9368421 18 11.6842105 18.8210526 12.3157895 18.3157895 12.9473684 18.8210526 12.6947368 18 13.3263158 17.5578947"></polygon>
                    <polygon fill="#FFFFFF" fill-rule="nonzero" points="17.0526316 17.5578947 16.8 16.8 16.5473684 17.5578947 15.7263158 17.5578947 16.4210526 18.0631579 16.1684211 18.8210526 16.8 18.3789474 17.4315789 18.8210526 17.1789474 18.0631579 17.8105263 17.5578947"></polygon>
                    <path d="M18.1263158,19.0105263 L35.6210526,19.0105263 C35.6210526,18.6315789 35.6842105,18.1894737 35.6842105,17.8105263 C35.6842105,17.3052632 35.6210526,16.7368421 35.6210526,16.2315789 L18.1263158,16.2315789 L18.1263158,19.0105263 Z" fill="#A21D21" fill-rule="nonzero"></path>
                    <path d="M18.1263158,13.3894737 L35.1157895,13.3894737 C34.8631579,12.4421053 34.5473684,11.4947368 34.1684211,10.6105263 L18.1263158,10.6105263 L18.1263158,13.3894737 Z" fill="#A21D21" fill-rule="nonzero"></path>
                    <path d="M18.1263158,7.76842105 L32.5894737,7.76842105 C31.8947368,6.75789474 31.0736842,5.81052632 30.1894737,4.98947368 L18.1263158,4.98947368 L18.1263158,7.76842105 Z" fill="#A21D21" fill-rule="nonzero"></path>
                    <path d="M26.4631579,2.21052632 C24,0.884210526 21.1578947,0.0631578947 18.1894737,0.0631578947 L18.1894737,2.21052632 L26.4631579,2.21052632 Z" fill="#A21D21" fill-rule="nonzero"></path>
                    <path d="M8.58947368,32.9684211 L27.0947368,32.9684211 C28.4210526,32.2105263 29.6210526,31.2631579 30.6947368,30.1894737 L4.98947368,30.1894737 C6.06315789,31.2631579 7.26315789,32.2105263 8.58947368,32.9684211 Z" fill="#FFFFFF" fill-rule="nonzero"></path>
                    <path d="M2.77894737,27.4105263 L32.8421053,27.4105263 C33.4105263,26.5263158 33.9157895,25.5789474 34.3578947,24.6315789 L1.26315789,24.6315789 C1.70526316,25.5789474 2.21052632,26.5263158 2.77894737,27.4105263 Z" fill="#FFFFFF" fill-rule="nonzero"></path>
                    <path d="M0,19.0105263 C0.0631578947,19.9578947 0.189473684,20.9052632 0.442105263,21.7894737 L35.3052632,21.7894737 C35.4947368,20.9052632 35.6842105,19.9578947 35.7473684,19.0105263 L18.1263158,19.0105263 L0,19.0105263 Z" fill="#FFFFFF" fill-rule="nonzero"></path>
                    <path d="M18.1263158,16.1684211 L35.6210526,16.1684211 C35.5578947,15.2210526 35.3684211,14.2736842 35.1157895,13.3894737 L18.1263158,13.3894737 L18.1263158,16.1684211 Z" fill="#FFFFFF" fill-rule="nonzero"></path>
                    <path d="M18.1263158,10.6105263 L34.1684211,10.6105263 C33.7263158,9.6 33.2210526,8.71578947 32.5894737,7.83157895 L18.1263158,7.83157895 L18.1263158,10.6105263 Z" fill="#FFFFFF" fill-rule="nonzero"></path>
                    <path d="M18.1263158,2.21052632 L18.1263158,4.98947368 L30.2526316,4.98947368 C29.1157895,3.91578947 27.8526316,2.96842105 26.4631579,2.21052632 L18.1263158,2.21052632 L18.1263158,2.21052632 Z" fill="#FFFFFF" fill-rule="nonzero"></path>
                </g>
            </g>
        </g>
    </g>
</svg>