<?xml version="1.0" encoding="UTF-8" standalone="no"?>
<svg width="42px" height="42px" viewBox="0 0 42 42" version="1.1" xmlns="http://www.w3.org/2000/svg" xmlns:xlink="http://www.w3.org/1999/xlink">
    <!-- Generator: Sketch 47.1 (45422) - http://www.bohemiancoding.com/sketch -->
    <title>Artboard</title>
    <desc>Created with Sketch.</desc>
    <defs></defs>
    <g id="Page-1" stroke="none" stroke-width="1" fill="none" fill-rule="evenodd">
        <g id="Artboard">
            <circle id="Oval" fill="#FFFFFF" cx="21" cy="21" r="20"></circle>
            <g id="Guatemala" transform="translate(3.000000, 3.000000)">
                <g id="Shape">
                    <path d="M0.248275862,18.1263158 C0.248275862,23.6842105 2.73103448,28.6105263 6.64137931,31.8315789 L6.64137931,4.42105263 C2.73103448,7.64210526 0.248275862,12.6315789 0.248275862,18.1263158 Z" fill="#2B96D3" fill-rule="nonzero"></path>
                    <path d="M28.3655172,3.91578947 L28.3655172,32.4 C32.6482759,29.1789474 35.4413793,24 35.4413793,18.1894737 C35.4413793,12.3157895 32.6482759,7.13684211 28.3655172,3.91578947 Z" fill="#2B96D3" fill-rule="nonzero"></path>
                    <path d="M17.8137931,0.378947368 C13.5931034,0.378947368 9.68275862,1.89473684 6.64137931,4.42105263 L6.64137931,31.8947368 C9.68275862,34.4210526 13.5931034,35.9368421 17.8137931,35.9368421 C21.7862069,35.9368421 25.3862069,34.6105263 28.3034483,32.4 L28.3034483,3.91578947 C25.3862069,1.70526316 21.7862069,0.378947368 17.8137931,0.378947368 Z" fill="#FFFFFF" fill-rule="nonzero"></path>
                </g>
            </g>
        </g>
    </g>
</svg>