<?xml version="1.0" encoding="UTF-8" standalone="no"?>
<svg width="26px" height="16px" viewBox="0 0 26 16" version="1.1" xmlns="http://www.w3.org/2000/svg" xmlns:xlink="http://www.w3.org/1999/xlink">
    <!-- Generator: Sketch 47.1 (45422) - http://www.bohemiancoding.com/sketch -->
    <title>Artboard</title>
    <desc>Created with Sketch.</desc>
    <defs></defs>
    <g id="Page-1" stroke="none" stroke-width="1" fill="none" fill-rule="evenodd">
        <g id="Artboard">
            <g id="Page-1" transform="translate(1.000000, 1.000000)">
                <path d="M1.90789474,0.381578947 L21.75,0.381578947 C22.5925263,0.381578947 23.2763158,1.06536842 23.2763158,1.90789474 L23.2763158,12.5921053 C23.2763158,13.4346316 22.5925263,14.1184211 21.75,14.1184211 L1.90789474,14.1184211 C1.06536842,14.1184211 0.381578947,13.4346316 0.381578947,12.5921053 L0.381578947,1.90789474 C0.381578947,1.06536842 1.06536842,0.381578947 1.90789474,0.381578947" id="Fill-1" fill="#0072CE"></path>
                <path d="M1.90789474,0.381578947 L21.75,0.381578947 C22.5925263,0.381578947 23.2763158,1.06536842 23.2763158,1.90789474 L23.2763158,12.5921053 C23.2763158,13.4346316 22.5925263,14.1184211 21.75,14.1184211 L1.90789474,14.1184211 C1.06536842,14.1184211 0.381578947,13.4346316 0.381578947,12.5921053 L0.381578947,1.90789474 C0.381578947,1.06536842 1.06536842,0.381578947 1.90789474,0.381578947 Z" id="Stroke-3" stroke="#DEDEDE" stroke-width="0.5"></path>
                <path d="M12.5186895,8.65338861 C12.5186895,9.23047747 12.1340579,9.34949135 11.7456105,9.34949135 L11.1923211,9.34949135 L11.1923211,10.0464503 L10.3291895,10.0464503 L9.78276842,9.35890972 L9.21497895,10.0464503 L7.45666316,10.0464503 L7.45666316,7.96927287 L9.24245263,7.96927287 L9.78811053,8.64996375 L10.3528474,7.96927287 L11.7707947,7.96927287 C12.1226105,7.96927287 12.5186895,8.07801217 12.5186895,8.65338861 L12.5186895,8.65338861 Z M9.62584683,9.61320555 L7.89929474,9.61320555 L7.89929474,9.20050995 L9.44098856,9.20050995 L9.44098856,8.77668356 L7.89929474,8.77668356 L7.89929474,8.39823655 L9.66088533,8.39823655 L10.4293158,9.00358052 L9.62584683,9.61320555 Z M12.3257314,9.85722681 L10.0689526,9.01128645 L12.3257314,8.19188875 L12.3257314,9.85722681 Z M12.8994601,8.92737739 L11.1923211,8.92737739 L11.1923211,8.39823655 L12.9153722,8.39823655 C13.3927347,8.39823655 13.7223421,8.47187104 13.7223421,8.65338861 C13.7223421,8.83319374 13.4063736,8.92737739 12.8994601,8.92737739 L12.8994601,8.92737739 Z M14.7600842,7.96927287 L17.2901053,7.96927287 L17.2901053,8.39823655 L15.5151781,8.39823655 L15.5151781,8.77668356 L17.2470688,8.77668356 L17.2470688,9.20050995 L15.5151781,9.20050995 L15.5151781,9.61320555 L17.2901053,9.6157742 L17.2901053,10.0464503 L14.7600842,10.0464503 L14.7600842,7.96927287 Z M14.8108961,9.08063986 C14.9513328,9.12173818 15.0647624,9.19537266 15.1187765,9.25530771 C15.2073596,9.35634107 15.220323,9.45223714 15.2224836,9.63461093 L15.2224836,10.0464503 L14.592679,10.0464503 L14.592679,9.78616097 C14.592679,9.6620098 14.6067227,9.47621116 14.4911325,9.38031509 C14.3993085,9.30582439 14.2588718,9.28784388 14.029852,9.28784388 L13.3579164,9.28784388 L13.3579164,10.0464503 L12.7270316,10.0464503 L12.7270316,7.96927287 L14.1778507,7.96927287 C14.4954536,7.96927287 14.7277143,7.98040366 14.932968,8.06688137 C15.1317399,8.16192123 15.2570526,8.29120969 15.2570526,8.52838122 C15.2570526,8.85973641 14.9761792,9.02841075 14.8108961,9.08063986 L14.8108961,9.08063986 Z M15.4302032,8.82206295 C15.2530563,8.86144884 15.0350293,8.8648737 14.7783934,8.8648737 L13.1727158,8.8648737 L13.1727158,8.39823655 L14.8011046,8.39823655 C15.0350293,8.39823655 15.2712252,8.4008052 15.4302032,8.43591001 C15.6005367,8.47015861 15.7027368,8.53351851 15.7027368,8.62342108 C15.7027368,8.71161122 15.6005367,8.78353328 15.4302032,8.82206295 L15.4302032,8.82206295 Z M18.7757391,8.9513514 C18.9109128,9.05067234 18.9850789,9.17653593 18.9850789,9.39058967 C18.9850789,9.83839008 18.5939126,10.0464503 17.8917271,10.0464503 L16.5364014,10.0464503 L16.5364014,9.60036233 L17.8857459,9.60036233 C18.0173309,9.60036233 18.1106367,9.58837532 18.1704481,9.54984565 C18.2182972,9.51730948 18.2529877,9.47107387 18.2529877,9.41456369 C18.2529877,9.35291621 18.2147085,9.30582439 18.1668594,9.27671308 C18.1142254,9.24503313 18.0412555,9.23047747 17.9192403,9.23047747 C17.2684926,9.21420939 16.4550579,9.24503313 16.4550579,8.58746005 C16.4550579,8.2860724 16.7194242,7.96927287 17.4491229,7.96927287 L18.8439241,7.96927287 L18.8439241,8.41107978 L17.5675494,8.41107978 C17.4407493,8.41107978 17.3594058,8.41450464 17.2888284,8.44875323 C17.2134661,8.48300183 17.1847566,8.53180608 17.1847566,8.59859085 C17.1847566,8.67650641 17.2493529,8.73044795 17.3366775,8.75270954 C17.4108436,8.77154627 17.4885984,8.77668356 17.6082212,8.77668356 L17.9814441,8.78353328 C18.359452,8.790383 18.6190333,8.83747482 18.7757391,8.9513514 L18.7757391,8.9513514 Z M19.7061105,9.78016747 C19.5985053,9.95654774 19.3878737,10.0464503 19.1039789,10.0464503 L18.2469526,10.0464503 L18.2469526,9.60036233 L19.1009263,9.60036233 C19.1856368,9.60036233 19.2444,9.58837532 19.2802684,9.54984565 C19.3115579,9.51730948 19.3329263,9.47107387 19.3329263,9.41456369 C19.3329263,9.35291621 19.3115579,9.30582439 19.2787421,9.27671308 C19.2466895,9.24503313 19.1993737,9.23047747 19.1222947,9.23047747 C18.7056105,9.21420939 18.1851368,9.24503313 18.1851368,8.58746005 C18.1851368,8.2860724 18.3568474,7.96927287 18.8223737,7.96927287 L19.7061105,7.96927287 L19.7061105,7.55572105 L18.8849526,7.55572105 C18.6369263,7.55572105 18.4575842,7.6216496 18.3293737,7.72525161 L18.3293737,7.55572105 L17.1144263,7.55572105 C16.9205842,7.55572105 16.6924,7.60966259 16.5847947,7.72525161 L16.5847947,7.55572105 L14.4151368,7.55572105 L14.4151368,7.72525161 C14.2419,7.58568858 13.9503737,7.55572105 13.8168211,7.55572105 L12.3851368,7.55572105 L12.3851368,7.72525161 C12.2485316,7.57712643 11.9455579,7.55572105 11.7601105,7.55572105 L10.1582421,7.55572105 L9.79192632,7.99924039 L9.44850526,7.55572105 L7.05600526,7.55572105 L7.05600526,10.4548648 L9.40347895,10.4548648 L9.78124211,10.0036396 L10.1368737,10.4548648 L11.5838211,10.4557211 L11.5838211,9.77417396 L11.7257684,9.77417396 C11.9180842,9.77674261 12.1447421,9.76903667 12.3439263,9.67142817 L12.3439263,10.4548648 L13.5375053,10.4548648 L13.5375053,9.69882705 L13.5955053,9.69882705 C13.6687684,9.69882705 13.6756368,9.70225191 13.6756368,9.78444854 L13.6756368,10.4548648 L17.3014,10.4548648 C17.5318737,10.4548648 17.7722684,10.3880801 17.9058211,10.2690662 L17.9058211,10.4548648 L19.0559,10.4548648 C19.2947684,10.4548648 19.5282947,10.4171914 19.7061105,10.3204391 L19.7061105,9.78016747 Z M21.1837368,8.41107978 L19.2408128,8.41107978 C19.0445022,8.41107978 18.9160748,8.41450464 18.8096634,8.44875323 C18.6959134,8.48214562 18.6537158,8.53180608 18.6537158,8.59859085 C18.6537158,8.67650641 18.7472844,8.72959173 18.8867199,8.75270954 C18.9986353,8.77154627 19.1178893,8.77668356 19.2958531,8.77668356 L19.8756114,8.78353328 C20.459039,8.790383 20.8479908,8.83747482 21.0864989,8.9513514 C21.1286965,8.96676327 21.154382,8.98474379 21.1837368,9.00186809 L21.1837368,8.41107978 Z" id="Fill-5" fill="#FFFFFF"></path>
                <path d="M3.91599211,7.26919708 L4.67457105,7.26919708 L4.84551842,6.80742456 L5.22786053,6.80742456 L5.39880789,7.26919708 L6.89078158,7.26919708 L6.89078158,6.9162281 L7.02357105,7.27091053 L7.79817632,7.27091053 L7.93172895,6.91108778 L7.93172895,7.26919708 L11.6399132,7.26919708 L11.6376237,6.51185587 L11.7093605,6.51185587 C11.7597289,6.51356932 11.7742289,6.51870964 11.7742289,6.61123549 L11.7742289,7.26919708 L13.6920447,7.26919708 L13.6920447,7.09271259 C13.8469658,7.18523844 14.0881237,7.26919708 14.4040711,7.26919708 L15.2107289,7.26919708 L15.3839658,6.80742456 L15.7663079,6.80742456 L15.9357289,7.26919708 L17.4902816,7.26919708 L17.4902816,6.83055602 L17.7253342,7.26919708 L18.9715711,7.26919708 L18.9715711,4.37091053 L17.7383079,4.37091053 L17.7383079,4.71359886 L17.5658342,4.37091053 L16.3005184,4.37091053 L16.3005184,4.71359886 L16.1417816,4.37091053 L14.4330711,4.37091053 C14.1468868,4.37091053 13.8958079,4.41546001 13.6920447,4.53968453 L13.6920447,4.37091053 L12.5129658,4.37091053 L12.5129658,4.53968453 C12.3839921,4.41203313 12.2077026,4.37091053 12.0115711,4.37091053 L7.70278158,4.37091053 L7.41354474,5.11968453 L7.11667632,4.37091053 L5.75978158,4.37091053 L5.75978158,4.71359886 L5.61096579,4.37091053 L4.45325526,4.37091053 L3.91599211,5.74937434 L3.91599211,7.26919708 Z M18.5754921,6.86054125 L17.94665,6.86054125 L17.10565,5.30130934 L17.10565,6.86054125 L16.2013079,6.86054125 L16.0295974,6.39705528 L15.1077026,6.39705528 L14.9398079,6.86054125 L14.4200974,6.86054125 C14.2041237,6.86054125 13.9316763,6.80742456 13.7759921,6.63094007 C13.6203079,6.45445558 13.5394132,6.21628719 13.5394132,5.83761658 C13.5394132,5.53005381 13.5874921,5.24819265 13.7782816,5.02544524 C13.9225184,4.8592414 14.1468868,4.78299324 14.4529132,4.78299324 L14.8825711,4.78299324 L14.8825711,5.22848807 L14.4620711,5.22848807 C14.2995184,5.22848807 14.2087026,5.25504642 14.1201763,5.35099915 C14.0446237,5.43838468 13.9927289,5.60458852 13.9927289,5.82219561 C13.9927289,6.04494302 14.03165,6.20514982 14.1148342,6.30966976 C14.1835184,6.39277168 14.30715,6.41675986 14.4239132,6.41675986 L14.6238605,6.41675986 L15.2488868,4.78299324 L15.9135974,4.78299324 L16.6653079,6.74916754 L16.6653079,4.78299324 L17.3407026,4.78299324 L18.1214132,6.23085144 L18.1214132,4.78299324 L18.5754921,4.78299324 L18.5754921,6.86054125 Z M12.8693605,6.86054125 L14.5890605,6.86054125 L14.5890605,4.78213652 L12.8693605,4.78213652 L12.8693605,6.86054125 Z M13.7294395,5.34243194 C13.7294395,5.6739829 13.4090112,5.84532707 13.2214737,5.89673032 C13.3792039,5.93785292 13.5145787,6.01067419 13.5779191,6.07150137 C13.6797607,6.17516459 13.6983902,6.26769044 13.6983902,6.45274214 L13.6983902,6.86054125 L12.9693538,6.86054125 L12.9668699,6.5992414 C12.9668699,6.47416016 12.9842575,6.29424878 12.8526086,6.19401245 C12.7470412,6.12119118 12.5868271,6.10491348 12.3260133,6.10491348 L11.5510241,6.10491348 L11.5510241,6.86054125 L10.8294395,6.86054125 L10.8294395,4.78299324 L12.4899534,4.78299324 C12.8588185,4.78299324 13.1308099,4.78984701 13.3643003,4.88237286 C13.5928228,4.97489871 13.7294395,5.1102606 13.7294395,5.34243194 L13.7294395,5.34243194 Z M11.9383079,6.86054125 L9.03830789,6.86054125 L9.03830789,4.78299324 L11.9383079,4.78299324 L11.9383079,5.21563726 L9.90696461,5.21563726 L9.90696461,5.59002426 L11.8905467,5.59002426 L11.8905467,6.01667124 L9.90696461,6.01667124 L9.90696461,6.43132412 L11.9383079,6.43132412 L11.9383079,6.86054125 Z M8.70786053,6.86054125 L8.25301842,6.86054125 L8.25149211,5.2336284 L7.60738684,6.86054125 L7.21817632,6.86054125 L6.57254474,5.23191496 L6.57254474,6.86054125 L5.66972895,6.86054125 L5.49954474,6.39705528 L4.57536053,6.39705528 L4.40365,6.86054125 L3.92133421,6.86054125 L4.71578158,4.78299324 L5.37515,4.78299324 L6.12991316,6.75088098 L6.12991316,4.78299324 L6.85491316,4.78299324 L7.43567632,6.19315573 L7.96912368,4.78299324 L8.70786053,4.78299324 L8.70786053,6.86054125 Z M17.5914763,5.96441126 L16.4256763,5.13596222 L15.2656763,5.96441126 L17.5914763,5.96441126 Z M13.8604464,5.63457375 C13.6521879,5.67569635 13.4048809,5.67740979 13.1107157,5.67740979 L11.2728342,5.67740979 L11.2728342,5.21563726 L13.136748,5.21563726 C13.3996744,5.21563726 13.675617,5.21906415 13.85524,5.25333298 C14.0504823,5.28331821 14.1728342,5.34757227 14.1728342,5.43667124 C14.1728342,5.52748364 14.0556888,5.60116163 13.8604464,5.63457375 L13.8604464,5.63457375 Z M7.03593421,5.96441126 L5.88173421,5.13596222 L4.73333421,5.96441126 L7.03593421,5.96441126 Z" id="Fill-7" fill="#FFFFFF"></path>
            </g>
        </g>
    </g>
</svg>