<?xml version="1.0" encoding="UTF-8" standalone="no"?>
<svg width="86px" height="13px" viewBox="0 0 86 13" version="1.1" xmlns="http://www.w3.org/2000/svg" xmlns:xlink="http://www.w3.org/1999/xlink">
    <!-- Generator: Sketch 47.1 (45422) - http://www.bohemiancoding.com/sketch -->
    <title>Artboard 6</title>
    <desc>Created with Sketch.</desc>
    <defs>
        <polygon id="path-1" points="0.0416617811 0.111887993 14.4355974 0.111887993 14.4355974 4.80790994 0.0416617811 4.80790994 0.0416617811 0.111887993"></polygon>
        <polygon id="path-3" points="0 5.58467967 0 0.148007991 6.95524279 0.148007991 6.95524279 5.58467967"></polygon>
        <polygon id="path-5" points="6.18406861 5.61599967 0.321105581 5.61599967 0.321105581 0.191635189 6.18406861 0.191635189"></polygon>
    </defs>
    <g id="Page-1" stroke="none" stroke-width="1" fill="none" fill-rule="evenodd">
        <g id="Artboard-6">
            <g id="Banorte" transform="translate(1.000000, 1.000000)">
                <g id="Logo_Banorte">
                    <g id="Group-3" transform="translate(1.728000, 0.320285)">
                        <mask id="mask-2" fill="white">
                            <use xlink:href="#path-1"></use>
                        </mask>
                        <g id="Clip-2"></g>
                        <path d="M14.3694423,2.14513907 C14.2834743,1.93086708 14.1270904,1.7563391 13.9430584,1.6060031 C13.6462744,1.36235512 13.3058584,1.18221113 12.9451384,1.03101114 C12.0076985,0.640915162 11.0136665,0.422755175 9.9954426,0.297043182 C9.38157064,0.221443187 8.76208268,0.17478719 8.14432271,0.138067192 C7.28550677,0.0896831947 6.42625882,0.111283193 5.57003487,0.176947189 C4.88531491,0.229651186 4.20448295,0.316051181 3.53315499,0.448675173 C2.76333104,0.602467164 2.00905908,0.801187152 1.30619512,1.13296313 C0.950227143,1.30187512 0.617587163,1.50016311 0.353203179,1.77664309 C-0.0571967966,2.20605107 -0.0662687961,2.71149104 0.350611179,3.13528301 C0.513907169,3.300307 0.705715158,3.44805099 0.906595146,3.57160299 C1.43277111,3.90078697 2.02633908,4.09821096 2.63373104,4.26409895 C3.26574701,4.43819494 3.91331497,4.55569893 4.56779493,4.64166692 C4.81792291,4.67406692 5.0697789,4.69782692 5.32811488,4.72590692 C5.74283486,3.434227 6.15539483,2.15118707 6.56795481,0.868147148 C6.57227481,0.871171148 6.57875481,0.872467148 6.58437081,0.873331148 C6.6517628,2.17926707 6.7182908,3.48390699 6.7869788,4.79675491 C6.87683479,4.80150691 6.95545879,4.80971491 7.03408278,4.80755491 C7.54081875,4.79589091 8.04798672,4.78811491 8.55342669,4.76435492 C9.33232264,4.72979492 10.1051706,4.63302692 10.8676506,4.48830693 C11.6206265,4.34401894 12.3580505,4.15350695 13.0522744,3.84549097 C13.4622424,3.66102698 13.8523384,3.44805099 14.1456664,3.12016301 C14.4065943,2.83072303 14.5171863,2.51017905 14.3694423,2.14513907" id="Fill-1" fill="#EB0029" mask="url(#mask-2)"></path>
                    </g>
                    <g id="Group-6" transform="translate(0.000000, 5.072284)">
                        <mask id="mask-4" fill="white">
                            <use xlink:href="#path-3"></use>
                        </mask>
                        <g id="Clip-5"></g>
                        <path d="M6.7833068,0.148391991 C5.88604285,0.16955999 4.9952589,0.248183985 4.11484295,0.409751976 C3.26423501,0.567863966 2.43609105,0.787319953 1.6589231,1.14717593 C1.16471513,1.37613592 0.706363158,1.6495919 0.360763178,2.05178388 C0.0471311972,2.41768786 -0.0911087946,2.82376783 0.0635471962,3.2816878 C0.192715189,3.66314378 0.471355172,3.94912776 0.805291152,4.19493575 C1.36905112,4.60835973 2.01964308,4.87317571 2.69917904,5.0852877 C3.402907,5.30517568 4.12823495,5.44600768 4.86306691,5.54666367 C4.9784109,5.56135167 5.0928909,5.57301567 5.20823489,5.58467967 C5.79143485,3.76811978 6.37117882,1.96235988 6.95524279,0.148391991 C6.88914679,0.148391991 6.83644279,0.147527991 6.7833068,0.148391991" id="Fill-4" fill="#EB0029" mask="url(#mask-4)"></path>
                    </g>
                    <g id="Group-9" transform="translate(8.208000, 5.072284)">
                        <mask id="mask-6" fill="white">
                            <use xlink:href="#path-5"></use>
                        </mask>
                        <g id="Clip-8"></g>
                        <path d="M5.0696493,1.43406711 C4.43201734,1.04872314 3.72656138,0.804211152 2.99475342,0.613267163 C2.29491346,0.430963174 1.58038551,0.314323181 0.856353549,0.236995186 C0.681393559,0.217987187 0.50643357,0.206755188 0.321105581,0.191635189 C0.414849575,2.00646708 0.50643357,3.80661097 0.599313564,5.61409887 C0.654609561,5.61409887 0.698673558,5.61971487 0.741441556,5.61193887 C1.18553753,5.55232287 1.6313615,5.50134687 2.07156948,5.42617888 C2.87163343,5.28664288 3.64880138,5.0762589 4.38449734,4.75571492 C4.91542531,4.52286693 5.40920128,4.24509095 5.79195325,3.82734697 C6.25764923,3.320611 6.31208122,2.73136304 5.93624125,2.19352307 C5.71721726,1.87643509 5.40920128,1.6392671 5.0696493,1.43406711" id="Fill-7" fill="#EB0029" mask="url(#mask-6)"></path>
                    </g>
                    <path d="M26.1697376,6.13802843 C26.7499136,5.97386844 27.0432416,5.59284447 27.0432416,5.0027325 L27.0432416,4.18150055 C27.0432416,3.26954861 26.5110176,2.80774063 25.4608257,2.80774063 L19.629258,2.80774063 L19.629258,9.67394822 L25.0443777,9.67394822 C26.4056096,9.67394822 27.0959456,9.20782025 27.0959456,8.28766031 L27.0959456,7.42711636 C27.0959456,6.7510364 26.7844736,6.31860442 26.1697376,6.13802843 L26.1697376,6.13802843 Z M21.3084419,6.7544924 L24.8098017,6.7544924 C25.1165217,6.7544924 25.2573537,6.79898839 25.3191297,6.83484439 C25.4362017,6.90828439 25.4949537,7.05905238 25.4949537,7.28412437 L25.4949537,7.79215634 C25.4949537,8.01722832 25.4362017,8.16799631 25.3212897,8.23970831 C25.2284097,8.29370831 25.0564737,8.3209243 24.8098017,8.3209243 L21.3084419,8.3209243 L21.3084419,6.7544924 Z M25.4556417,5.0938845 C25.4556417,5.19583649 25.4556417,5.50601247 24.8098017,5.50601247 L21.3084419,5.50601247 L21.3084419,4.04326056 L24.8098017,4.04326056 C25.4556417,4.04326056 25.4556417,4.35343654 25.4556417,4.45538853 L25.4556417,5.0938845 Z" id="Fill-10" fill="#EB0029"></path>
                    <path d="M33.4660444,2.80756783 L31.8719645,2.80756783 L27.9856927,9.67420742 L29.7136926,9.67420742 L30.4951806,8.20151951 L34.6739163,8.20151951 L35.4817563,9.67420742 L37.4045882,9.67420742 L33.4863484,2.84342383 L33.4660444,2.80756783 Z M33.9468604,6.84849559 L31.2369245,6.84849559 L32.6154365,4.33036774 L33.9468604,6.84849559 Z" id="Fill-12" fill="#EB0029"></path>
                    <path d="M44.9714133,6.41057722 C44.9714133,6.54449721 44.9886933,6.86892919 45.0228213,7.37480116 C44.8573653,7.20372917 44.6430933,7.00630518 44.3834614,6.7868492 L39.6517656,2.82411343 L39.6323256,2.80769743 L38.4667897,2.80769743 L38.4667897,9.67433702 L40.0159416,9.67433702 L40.0159416,5.96734524 C40.0159416,5.73492926 39.9999576,5.44505728 39.9697176,5.1029133 C40.1006136,5.23985729 40.2427416,5.37291328 40.3948056,5.49992127 L45.3351573,9.65792102 L45.3545973,9.67433702 L46.5201332,9.67433702 L46.5201332,2.80769743 L44.9714133,2.80769743 L44.9714133,6.41057722 Z" id="Fill-14" fill="#EB0029"></path>
                    <path d="M55.1803935,2.80778383 L50.2270818,2.80778383 C49.5592098,2.80778383 49.1133859,2.92096783 48.8628259,3.15251981 C48.6109699,3.3857998 48.4882819,3.81607177 48.4882819,4.46882373 L48.4882819,8.01381552 C48.4882819,8.66613548 48.6109699,9.09727146 48.8628259,9.32968744 C49.1133859,9.56167143 49.5587778,9.67399142 50.2270818,9.67399142 L55.1803935,9.67399142 C55.8478335,9.67399142 56.2940894,9.56167143 56.5442174,9.32968744 C56.7965054,9.09727146 56.9187614,8.66613548 56.9187614,8.01381552 L56.9187614,4.46882373 C56.9187614,3.81607177 56.7965054,3.3857998 56.5442174,3.15251981 C56.2936574,2.92096783 55.8474015,2.80778383 55.1803935,2.80778383 L55.1803935,2.80778383 Z M50.1933858,8.26912751 L55.2140895,8.26912751 L55.2140895,4.14827975 L50.1933858,4.14827975 L50.1933858,8.26912751 Z" id="Fill-16" fill="#EB0029"></path>
                    <path d="M64.7678985,7.13262197 C65.8198185,7.13262197 66.3511784,6.670382 66.3511784,5.75886206 L66.3511784,4.18163015 C66.3511784,3.26967821 65.8198185,2.80787023 64.7678985,2.80787023 L58.9346029,2.80787023 L58.9346029,9.67407782 L60.6137868,9.67407782 L60.6137868,7.13262197 L62.0018027,7.13262197 L64.6940265,9.65506982 L64.7138985,9.67407782 L67.1827784,9.67407782 L64.0771306,7.13262197 L64.7678985,7.13262197 Z M60.6137868,4.09566216 L64.0624426,4.09566216 C64.3488586,4.09566216 64.4788906,4.13411015 64.5346186,4.16435015 C64.6443465,4.23001415 64.6974825,4.36047814 64.6974825,4.56351813 L64.6974825,5.37697408 C64.6974825,5.58001407 64.6443465,5.71004606 64.5376426,5.77484606 C64.4788906,5.80638205 64.3497226,5.84439805 64.0624426,5.84439805 L60.6137868,5.84439805 L60.6137868,4.09566216 Z" id="Fill-18" fill="#EB0029"></path>
                    <polygon id="Fill-20" fill="#EB0029" points="67.6497272 4.14806375 70.738527 4.14806375 70.738527 9.67420742 72.4436309 9.67420742 72.4436309 4.14806375 75.5453907 4.14806375 75.5453907 2.80799983 67.6497272 2.80799983"></polygon>
                    <g id="Group-24" transform="translate(76.463995, 2.480285)" fill="#EB0029">
                        <polygon id="Fill-22" points="2.13593747 5.78867005 2.13593747 4.26155015 5.32539328 4.26155015 5.32539328 2.97289422 2.13593747 2.97289422 2.13593747 1.6151183 7.33246516 1.6151183 7.33246516 0.32732638 0.431697574 0.32732638 0.431697574 7.19396597 7.39726516 7.19396597 7.39726516 5.78867005"></polygon>
                    </g>
                </g>
            </g>
        </g>
    </g>
</svg>