<?xml version="1.0" encoding="UTF-8" standalone="no"?>
<svg width="26px" height="16px" viewBox="0 0 26 16" version="1.1" xmlns="http://www.w3.org/2000/svg" xmlns:xlink="http://www.w3.org/1999/xlink">
    <!-- Generator: Sketch 47.1 (45422) - http://www.bohemiancoding.com/sketch -->
    <title>Artboard</title>
    <desc>Created with Sketch.</desc>
    <defs></defs>
    <g id="Page-1" stroke="none" stroke-width="1" fill="none" fill-rule="evenodd">
        <g id="Artboard">
            <g id="Page-1" transform="translate(1.000000, 1.000000)">
                <path d="M1.90789474,0.381578947 L21.75,0.381578947 C22.5925263,0.381578947 23.2763158,1.06536842 23.2763158,1.90789474 L23.2763158,12.5921053 C23.2763158,13.4346316 22.5925263,14.1184211 21.75,14.1184211 L1.90789474,14.1184211 C1.06536842,14.1184211 0.381578947,13.4346316 0.381578947,12.5921053 L0.381578947,1.90789474 C0.381578947,1.06536842 1.06536842,0.381578947 1.90789474,0.381578947" id="Fill-1" fill="#FFFFFF"></path>
                <path d="M1.90789474,0.381578947 L21.75,0.381578947 C22.5925263,0.381578947 23.2763158,1.06536842 23.2763158,1.90789474 L23.2763158,12.5921053 C23.2763158,13.4346316 22.5925263,14.1184211 21.75,14.1184211 L1.90789474,14.1184211 C1.06536842,14.1184211 0.381578947,13.4346316 0.381578947,12.5921053 L0.381578947,1.90789474 C0.381578947,1.06536842 1.06536842,0.381578947 1.90789474,0.381578947 Z" id="Stroke-3" stroke="#DEDEDE" stroke-width="0.5"></path>
                <path d="M12.7165763,11.6858553 C15.1334974,11.6980658 17.3397868,9.71156579 17.3397868,7.29540789 C17.3397868,4.65411842 15.1334974,2.82788158 12.7165763,2.82864474 L10.6362079,2.82864474 C8.19028684,2.82788158 6.17707632,4.65411842 6.17707632,7.29540789 C6.17707632,9.71232895 8.19028684,11.6980658 10.6362079,11.6858553 L12.7165763,11.6858553 Z" id="Fill-5" fill="#0069AA"></path>
                <path d="M11.5639789,9.6483 L11.5639789,4.85032632 C12.5270842,5.22045789 13.2101105,6.1538 13.2124,7.24893158 C13.2101105,8.34482632 12.5270842,9.27816842 11.5639789,9.6483 M8.08092632,7.24893158 C8.08245263,6.15456316 8.76547895,5.22198421 9.72782105,4.85108947 L9.72782105,9.64677368 C8.76547895,9.27664211 8.08245263,8.34406316 8.08092632,7.24893158 M10.6459,3.19427368 C8.41061053,3.19503684 6.59963684,5.00982632 6.59963684,7.24893158 C6.59963684,9.48803684 8.41061053,11.3028263 10.6459,11.3035895 C12.8819526,11.3028263 14.6929263,9.48803684 14.6936895,7.24893158 C14.6929263,5.00982632 12.8819526,3.19503684 10.6459,3.19427368" id="Fill-7" fill="#FEFEFE"></path>
            </g>
        </g>
    </g>
</svg>