<?xml version="1.0" encoding="UTF-8" standalone="no"?>
<svg width="57px" height="13px" viewBox="0 0 57 13" version="1.1" xmlns="http://www.w3.org/2000/svg" xmlns:xlink="http://www.w3.org/1999/xlink">
    <!-- Generator: Sketch 47.1 (45422) - http://www.bohemiancoding.com/sketch -->
    <title>Artboard 3</title>
    <desc>Created with Sketch.</desc>
    <defs>
        <polygon id="path-1" points="6.22735898 9.75652116 0.231140856 9.75652116 0.231140856 0.0349975911 6.22735898 0.0349975911 6.22735898 9.75652116"></polygon>
    </defs>
    <g id="Page-1" stroke="none" stroke-width="1" fill="none" fill-rule="evenodd">
        <g id="Artboard-3">
            <g id="HSBC" transform="translate(1.000000, 1.000000)">
                <g id="Logo_HSBC">
                    <path d="M7.20049001,5.43495881 C7.19516827,5.43495881 7.22798566,8.80982817 7.22798566,8.80982817 C7.23153348,9.23556728 6.86965524,9.60941943 6.39335962,9.61296725 L5.93480312,9.61695856 L5.93657704,9.78858463 L9.80769855,9.75754116 L9.80548115,9.5854716 L9.35047249,9.58946291 C8.87728121,9.59301073 8.50342906,9.21827162 8.49988123,8.79962817 L8.4719421,5.37375881 L8.43868124,1.28400253 C8.43557689,0.870680818 8.79878556,0.484411275 9.2768551,0.48086345 L9.73186377,0.476872145 L9.73097681,0.306133025 L5.8598553,0.337176502 L5.86118574,0.5083591 L6.31974223,0.504367796 C6.80313351,0.50081997 7.16412479,0.881324295 7.16722914,1.29420253 L7.19694218,4.95866318 L2.60960332,4.99547188 L2.58033376,1.3314547 C2.57634246,0.918132989 2.94398591,0.531863447 3.41584675,0.527872142 L3.87440325,0.524324317 L3.87262933,0.353585196 L0.000177391294,0.384628673 L0.00195130423,0.555811271 L0.458733886,0.551819967 C0.936803422,0.547828663 1.30444688,0.928332988 1.3079947,1.3416547 L1.34081209,5.43141098 L1.36875122,8.85683686 C1.37141209,9.27592379 1.01042081,9.6568716 0.531907794,9.66041942 L0.0755686911,9.66441073 L0.0764556476,9.83603681 L3.94935107,9.80454985 L3.94802063,9.63292377 L3.48902066,9.6364716 C3.0176033,9.6404629 2.64419463,9.2657238 2.64109028,8.84663686 C2.64109028,8.84663686 2.61935984,5.4717675 2.61359463,5.4717675 L7.20049001,5.43495881" id="Fill-1" fill="#231F20"></path>
                    <g id="Group-5" transform="translate(10.199999, 0.102710)">
                        <mask id="mask-2" fill="white">
                            <use xlink:href="#path-1"></use>
                        </mask>
                        <g id="Clip-4"></g>
                        <path d="M6.22474919,7.1262961 C6.26067093,7.68286128 5.92185356,8.52946123 5.44999272,8.96362642 C4.99232318,9.38226988 4.34041018,9.74946985 3.46631458,9.75656551 C2.47203637,9.76454811 1.61301903,9.23991336 1.29859297,9.12372206 C1.11055819,9.05143511 0.864427775,9.06163511 0.717193001,9.15520902 C0.543349533,9.26253075 0.440019104,9.43460031 0.401879976,9.75434811 L0.258193028,9.75523507 L0.231140856,6.48014831 L0.374827804,6.47881787 C0.51895823,7.48506999 0.992592984,8.07312213 1.28528862,8.40839167 C1.77045381,8.9538699 2.6711581,9.2594264 3.54170588,9.11263511 C4.22954062,8.99600033 4.97813188,8.24120038 4.88677536,7.31211348 C4.85661884,6.97994828 4.77767972,6.4925657 4.07964497,6.0442092 C3.64193196,5.76348748 3.01707112,5.36391359 2.42724507,4.97853101 C1.68131468,4.49203538 1.00279298,3.96562672 0.812540821,3.75053978 C0.561975619,3.47159197 0.250653898,3.06447895 0.245332159,2.41433986 C0.240897377,1.85954858 0.447558234,1.22093993 0.895471251,0.792983431 C1.34205383,0.364139978 1.94917554,0.0421747801 2.82504505,0.0350791283 C3.70047108,0.0279834766 4.36790583,0.486096493 4.59230581,0.590757356 C4.81714928,0.694974741 5.06815796,0.667479091 5.20741012,0.585879096 C5.34577533,0.505609535 5.44067968,0.383653021 5.47837533,0.0647921701 L5.62206227,0.0634617353 L5.64689705,3.16780938 L5.50409706,3.16869633 C5.35907968,2.16333118 4.91737536,1.41074861 4.6109319,1.13357472 C4.30138409,0.857731253 3.70357543,0.478557363 2.81661896,0.658166048 C1.96469727,0.829348646 1.55314947,1.21783558 1.47953209,1.90300945 C1.42276687,2.42320942 1.71058425,2.7394094 1.87511467,2.93365287 C2.20727987,3.32879198 4.32400148,4.50134843 5.27792316,5.31823534 C5.77461879,5.74042661 6.1635492,6.24022658 6.22474919,7.1262961" id="Fill-3" fill="#231F20" mask="url(#mask-2)"></path>
                    </g>
                    <path d="M19.5186745,9.14412206 C20.1772397,9.34235683 21.4243005,9.48737422 22.2864221,8.8580786 C23.3246047,8.10327865 23.5294916,6.27880919 22.0509352,5.33907881 C21.4575613,4.96256579 19.9781179,5.00070492 19.4863006,5.121331 L19.5186745,9.14412206 L19.5186745,9.14412206 Z M19.4814223,4.58605277 C19.9475179,4.70268755 21.3143179,4.72264407 21.8429439,4.38293974 C22.6687004,3.84810499 22.9480917,2.99973113 22.7897699,2.2524703 C22.6939786,1.80411381 22.452283,1.392566 22.0420656,1.10519211 C21.2256222,0.541087794 20.0614918,0.644418222 19.4517093,0.837331254 L19.4814223,4.58605277 Z M22.5352134,4.82819189 C24.2230916,5.39318316 24.714022,6.57682656 24.4115698,7.8048178 C24.0567873,9.24789597 22.43277,9.55478291 21.9072483,9.62928725 C21.6730918,9.66254812 21.0633092,9.66476551 20.4606223,9.66964377 C19.3909528,9.67984377 18.0352398,9.6873829 16.9491616,9.69625247 L16.9482746,9.52373943 L17.5035094,9.51930465 C17.8596224,9.51664378 18.2618572,9.21507858 18.2578659,8.76140035 L18.1975528,1.2173921 C18.193118,0.765044302 17.786005,0.463922581 17.4369877,0.467026929 L16.8768746,0.471461711 L16.8755442,0.2985052 L20.2379962,0.271009549 C21.0437961,0.264357376 21.4855005,0.338418241 21.7711004,0.391635629 C22.2473961,0.483879102 23.643909,0.882566034 23.9858307,2.17929639 C24.2488133,3.17889633 23.7583264,4.4530093 22.5352134,4.82819189 L22.5352134,4.82819189 Z" id="Fill-6" fill="#231F20"></path>
                    <path d="M33.213238,0.278903462 L33.3733337,3.48170327 L33.1839685,3.48702501 C33.0801946,2.6803381 32.7733076,2.11357292 32.3852642,1.74459903 C32.2726207,1.63993816 32.0619685,1.4252947 31.757299,1.23592949 C31.2495164,0.921946902 30.4978208,0.647433874 29.6099774,0.811964299 C28.2697861,1.06119907 27.5872731,1.95436423 27.2502297,2.80451201 C26.8338036,3.85777281 26.5792471,5.64986836 27.3136471,7.15547696 C27.9034731,8.37947689 29.0316817,8.8806073 29.8973513,9.00389425 C30.6379599,9.10944207 32.2730642,9.06420729 33.5050467,7.36923347 L33.7037249,7.50138999 C32.7480294,8.87572904 31.4668207,9.76135507 29.9975773,9.76091159 C28.1154557,9.75514638 26.9220558,8.73026818 26.3783515,8.11871169 C25.8049341,7.47433782 25.3548037,6.24324224 25.3410559,5.16958143 C25.3264211,4.21477279 25.531308,3.14865112 25.868795,2.52645115 C26.4510819,1.45545122 27.6759688,0.383120847 29.2990991,0.211051292 C30.5115686,0.0842165167 31.3142642,0.31438172 32.000325,0.699764306 C32.3422468,0.89223386 32.5342728,0.916181685 32.7187598,0.836355602 C32.9028033,0.754312129 33.0540293,0.595990399 33.050925,0.280233896 L33.213238,0.278903462" id="Fill-8" fill="#231F20"></path>
                    <polygon id="Fill-10" fill="#FFFFFF" points="41.3127915 9.51744204 50.7584344 9.44116379 50.6817126 -4.43478234e-05 41.2365132 0.0762339085"></polygon>
                    <polygon id="Fill-12" fill="#D9272E" points="36.5536048 4.83471102 41.3130132 9.51917161 41.2367349 0.0766330389"></polygon>
                    <polygon id="Fill-14" fill="#D9272E" points="41.3127915 9.51744204 50.7571039 9.44116379 45.9959216 4.75847711"></polygon>
                    <polygon id="Fill-16" fill="#D9272E" points="45.9961433 4.75829972 50.6801605 0.000221739117 41.2367349 0.0764999954"></polygon>
                    <polygon id="Fill-18" fill="#D9272E" points="50.6799831 0 50.7571483 9.44076465 55.4385045 4.68179972"></polygon>
                </g>
            </g>
        </g>
    </g>
</svg>