<?xml version="1.0" encoding="UTF-8" standalone="no"?>
<svg width="79px" height="29px" viewBox="0 0 79 29" version="1.1" xmlns="http://www.w3.org/2000/svg" xmlns:xlink="http://www.w3.org/1999/xlink">
    <!-- Generator: Sketch 47.1 (45422) - http://www.bohemiancoding.com/sketch -->
    <title>Artboard</title>
    <desc>Created with Sketch.</desc>
    <defs></defs>
    <g id="Page-1" stroke="none" stroke-width="1" fill="none" fill-rule="evenodd">
        <g id="Artboard" fill="#00685C">
            <g id="Logo_IXE" transform="translate(4.000000, 5.000000)">
                <path d="M28.276,3.5717 C28.1245,3.1957 27.85,2.8892 27.526,2.6252 C27.006,2.1967 26.408,1.8802 25.775,1.6152 C24.1275,0.9292 22.382,0.5462 20.5925,0.3257 C19.5145,0.1932 18.4275,0.1107 17.3415,0.0462 C15.8325,-0.0388 14.324,-0.0013 12.8195,0.1147 C11.617,0.2077 10.421,0.3587 9.242,0.5917 C7.8895,0.8617 6.565,1.2107 5.3295,1.7942 C4.7035,2.0907 4.1195,2.4392 3.656,2.9247 C2.936,3.6782 2.9195,4.5662 3.651,5.3112 C3.938,5.6012 4.275,5.8602 4.6275,6.0777 C5.5525,6.6552 6.5945,7.0027 7.6615,7.2937 C8.772,7.5992 9.91,7.8057 11.0585,7.9567 C11.498,8.0137 11.94,8.0552 12.395,8.1047 C13.1235,5.8367 13.848,3.5822 14.573,1.3292 C14.5805,1.3337 14.5915,1.3362 14.601,1.3377 C14.7195,3.6317 14.8365,5.9232 14.957,8.2297 C15.115,8.2377 15.253,8.2522 15.3905,8.2487 C16.2815,8.2277 17.1725,8.2142 18.06,8.1727 C19.4275,8.1117 20.785,7.9422 22.1245,7.6877 C23.448,7.4342 24.743,7.0997 25.9615,6.5582 C26.683,6.2342 27.367,5.8602 27.8835,5.2847 C28.3405,4.7762 28.535,4.2127 28.276,3.5717" id="Fill-1"></path>
                <path d="M11.9152,8.4113 C10.3392,8.4488 8.7752,8.5868 7.2282,8.8708 C5.7337,9.1483 4.2792,9.5338 2.9137,10.1653 C2.0467,10.5683 1.2407,11.0483 0.6342,11.7548 C0.0837,12.3978 -0.1603,13.1108 0.1122,13.9153 C0.3387,14.5853 0.8282,15.0878 1.4147,15.5193 C2.4047,16.2453 3.5477,16.7108 4.7412,17.0833 C5.9772,17.4688 7.2517,17.7163 8.5422,17.8933 C8.7447,17.9198 8.9457,17.9398 9.1482,17.9603 C10.1727,14.7698 11.1917,11.5973 12.2177,8.4113 C12.1012,8.4113 12.0082,8.4093 11.9152,8.4113" id="Fill-3"></path>
                <path d="M23.32245,10.6696 C22.20295,9.9926 20.96245,9.5636 19.67845,9.2276 C18.44945,8.9081 17.19345,8.7031 15.92195,8.5671 C15.61495,8.5336 15.30845,8.5141 14.98145,8.4876 C15.14645,11.6751 15.30845,14.8376 15.47045,18.0126 C15.56795,18.0126 15.64495,18.0216 15.72045,18.0081 C16.49995,17.9036 17.28395,17.8136 18.05645,17.6816 C19.46145,17.4371 20.82695,17.0676 22.11995,16.5046 C23.05195,16.0961 23.91945,15.6071 24.59195,14.8731 C25.40995,13.9836 25.50495,12.9491 24.84545,12.0036 C24.45995,11.4471 23.91945,11.0296 23.32245,10.6696" id="Fill-5"></path>
                <path d="M35.611,3.5454 C36.774,3.5619 38.0035,3.5124 39.1245,3.5704 L39.1245,17.9999 L35.5855,17.9999 L35.5855,3.6199 C35.5835,3.5849 35.5815,3.5494 35.611,3.5454" id="Fill-7"></path>
                <path d="M41.66665,3.5454 L45.53015,3.5454 C45.72265,3.5454 45.95265,3.5129 46.05315,3.5454 C46.13115,3.5704 46.15015,3.6384 46.22715,3.7199 C46.24765,3.7409 46.25765,3.7734 46.27765,3.7944 C46.29765,3.8154 46.30715,3.8484 46.32715,3.8694 C46.39415,3.9394 46.48065,4.1159 46.55165,4.2184 C46.55765,4.2269 46.59765,4.2349 46.60115,4.2429 C46.60715,4.2554 46.59365,4.2819 46.60115,4.2929 C46.60765,4.3019 46.64765,4.3099 46.65115,4.3179 C46.65665,4.3304 46.64315,4.3564 46.65115,4.3679 C46.65715,4.3769 46.69765,4.3844 46.70065,4.3924 C46.70665,4.4054 46.69315,4.4314 46.70065,4.4424 C46.73615,4.4929 46.79665,4.5269 46.82565,4.5669 C46.84265,4.5904 46.83265,4.5984 46.85015,4.6169 C46.87065,4.6384 46.88065,4.6709 46.90065,4.6914 C46.92615,4.7179 46.98615,4.8344 47.02515,4.8909 C47.08915,4.9834 47.15115,5.0854 47.22415,5.1899 C47.23065,5.1989 47.27065,5.2074 47.27415,5.2149 C47.28015,5.2279 47.26665,5.2534 47.27415,5.2649 C47.28065,5.2739 47.32015,5.2819 47.32365,5.2899 C47.32965,5.3024 47.31615,5.3284 47.32365,5.3394 C47.35815,5.3874 47.41665,5.4199 47.44865,5.4644 C47.46615,5.4879 47.45565,5.4954 47.47315,5.5144 C47.49365,5.5354 47.50365,5.5679 47.52365,5.5889 C47.54365,5.6099 47.55315,5.6429 47.57315,5.6634 C47.59365,5.6849 47.60315,5.7174 47.62315,5.7384 C47.69365,5.8119 47.77215,5.9779 47.84715,6.0874 C47.85315,6.0964 47.89415,6.1044 47.89715,6.1124 C47.90315,6.1249 47.88965,6.1504 47.89715,6.1619 C47.90365,6.1709 47.94365,6.1789 47.94715,6.1869 C47.95265,6.1994 47.93965,6.2259 47.94715,6.2369 C47.95315,6.2459 47.99365,6.2539 47.99665,6.2619 C48.00265,6.2744 47.98965,6.2999 47.99665,6.3114 C48.00315,6.3209 48.04365,6.3284 48.04715,6.3364 C48.05215,6.3489 48.03915,6.3759 48.04715,6.3864 C48.07865,6.4304 48.13815,6.4629 48.17165,6.5109 C48.18915,6.5359 48.20365,6.5854 48.22115,6.6104 C48.30365,6.7319 48.41965,6.9189 48.52015,7.0594 C48.52715,7.0679 48.56715,7.0764 48.57015,7.0844 C48.61965,7.1939 48.71415,7.3164 48.79465,7.4329 C48.86465,7.5349 48.92515,7.6324 48.99365,7.7319 C49.12915,7.9274 49.28965,8.1199 49.39265,8.3304 C49.73615,7.9509 50.04365,7.5354 50.36465,7.1339 C51.30715,5.9529 52.26815,4.7404 53.23065,3.5454 L57.14315,3.5454 C57.20665,3.5439 57.17365,3.5639 57.16815,3.5954 C56.90565,3.8739 56.67215,4.1769 56.42065,4.4674 C56.29465,4.6124 56.14815,4.7474 56.02215,4.8909 C55.98965,4.9279 55.97715,4.9814 55.94715,5.0154 C55.87915,5.0934 55.77265,5.1674 55.69765,5.2649 C55.68465,5.2819 55.68815,5.3219 55.67315,5.3394 C55.63915,5.3779 55.58165,5.4009 55.54865,5.4394 C55.51615,5.4754 55.50565,5.5269 55.47315,5.5639 C55.41415,5.6324 55.33415,5.6939 55.27415,5.7634 C55.21165,5.8349 55.16165,5.9154 55.09915,5.9874 C54.98315,6.1239 54.85715,6.2604 54.72615,6.4114 C54.66465,6.4814 54.58665,6.5419 54.52665,6.6104 C54.51015,6.6294 54.51615,6.6664 54.50165,6.6854 C54.44765,6.7559 54.32765,6.8479 54.25265,6.9344 C54.22215,6.9689 54.20965,7.0224 54.17715,7.0594 C54.05165,7.2029 53.90465,7.3379 53.77915,7.4829 C53.71665,7.5549 53.66665,7.6354 53.60415,7.7074 C53.54465,7.7764 53.46465,7.8379 53.40515,7.9064 C53.37165,7.9449 53.36565,7.9904 53.33065,8.0314 C53.26815,8.1024 53.15315,8.1869 53.08065,8.2804 C53.06815,8.2974 53.07165,8.3374 53.05615,8.3554 C52.99515,8.4249 52.91865,8.4834 52.85715,8.5544 C52.79465,8.6264 52.74515,8.7064 52.68215,8.7789 C52.55615,8.9234 52.40865,9.0569 52.28365,9.2024 C52.22015,9.2754 52.17165,9.3554 52.10915,9.4269 C52.04815,9.4969 51.96965,9.5574 51.90965,9.6264 C51.89315,9.6449 51.89915,9.6819 51.88465,9.7009 C51.83065,9.7719 51.71065,9.8634 51.63515,9.9504 C51.60565,9.9844 51.59365,10.0379 51.56065,10.0749 C51.43715,10.2149 51.28365,10.3309 51.18715,10.4984 C52.26015,11.9049 53.35915,13.3224 54.45165,14.7349 C54.54065,14.8499 54.63265,14.9594 54.72615,15.0839 C54.88915,15.3014 55.08465,15.5714 55.27415,15.8064 C55.34065,15.8894 55.42265,15.9819 55.49865,16.0809 C55.51265,16.0999 55.50765,16.1344 55.52315,16.1554 C55.53965,16.1769 55.58165,16.1844 55.59765,16.2054 C55.68615,16.3184 55.79265,16.4919 55.89715,16.6289 C55.98515,16.7439 56.07465,16.8499 56.17165,16.9779 C56.32665,17.1854 56.54315,17.4484 56.71915,17.6759 C56.73415,17.6949 56.75715,17.7089 56.76915,17.7259 C56.80415,17.7714 56.84365,17.8369 56.89415,17.9004 C56.90965,17.9204 56.96565,17.9594 56.94415,17.9999 L53.10615,17.9999 C52.90865,17.9999 52.66015,18.0349 52.55765,17.9999 C52.47315,17.9709 52.52015,17.9774 52.48315,17.9249 C52.47665,17.9164 52.43615,17.9079 52.43315,17.9004 C52.38765,17.7999 52.28565,17.6419 52.20865,17.5264 C52.13015,17.4084 52.07365,17.3289 51.98465,17.2024 C51.91265,17.1009 51.84065,17.0009 51.76015,16.8784 C51.73815,16.8439 51.73315,16.8134 51.71065,16.7784 C51.70365,16.7689 51.66465,16.7619 51.66065,16.7534 C51.58365,16.5834 51.42565,16.4009 51.31115,16.2304 C51.20965,16.0779 51.09915,15.8974 50.98765,15.7319 C50.96865,15.7034 50.95865,15.6644 50.93815,15.6324 C50.93165,15.6229 50.89115,15.6159 50.88765,15.6069 C50.88265,15.5949 50.89515,15.5684 50.88765,15.5574 C50.85115,15.5064 50.79765,15.4819 50.76315,15.4329 C50.74565,15.4079 50.73065,15.3584 50.71365,15.3334 C50.69515,15.3064 50.68165,15.2859 50.66365,15.2584 C50.64515,15.2304 50.63465,15.1904 50.61415,15.1589 C50.60815,15.1489 50.56765,15.1419 50.56415,15.1339 C50.48865,14.9659 50.33015,14.7774 50.21565,14.6104 C49.82465,14.0449 49.40915,13.3809 49.01865,12.8159 C48.95015,12.8389 48.91065,12.9134 48.86915,12.9654 C48.73165,13.1394 48.56415,13.3439 48.42065,13.5389 C48.36765,13.6114 48.31415,13.7009 48.24665,13.7879 C48.17715,13.8764 48.12165,13.9289 48.04715,14.0374 C47.96665,14.1534 47.82665,14.3009 47.72265,14.4359 C46.82665,15.6024 45.88715,16.8274 44.95665,17.9999 L40.91965,17.9999 C40.79165,17.9834 40.94215,17.9029 40.94415,17.9004 C41.14815,17.6369 41.40865,17.3529 41.64215,17.0774 C42.38565,16.1994 43.17515,15.3074 43.93515,14.4109 C44.99465,13.1609 46.13615,11.8524 47.22415,10.5979 C47.20065,10.4984 47.10615,10.4454 47.05015,10.3739 C47.03315,10.3524 47.04065,10.3194 47.02515,10.2989 C46.99565,10.2609 46.91965,10.2049 46.87565,10.1494 C46.84415,10.1104 46.82865,10.0614 46.80065,10.0249 C46.76815,9.9824 46.73215,9.9644 46.70065,9.9254 C46.65165,9.8629 46.62165,9.8184 46.57665,9.7509 C46.54365,9.7009 46.45465,9.6199 46.40215,9.5514 C46.38765,9.5329 46.39315,9.4964 46.37715,9.4764 C46.32165,9.4069 46.23415,9.3464 46.17715,9.2769 C46.16065,9.2564 46.16865,9.2224 46.15315,9.2024 C46.12365,9.1644 46.04765,9.1084 46.00365,9.0529 C45.94815,8.9829 45.90765,8.8979 45.85315,8.8284 C45.82365,8.7904 45.78165,8.7644 45.75365,8.7289 C45.69915,8.6579 45.64415,8.5859 45.57965,8.5044 C45.56515,8.4864 45.54265,8.4709 45.53015,8.4549 C45.51615,8.4369 45.52115,8.3994 45.50465,8.3799 C45.44865,8.3109 45.36115,8.2504 45.30515,8.1804 C45.28865,8.1599 45.29565,8.1264 45.28115,8.1059 C45.26715,8.0884 45.24615,8.0759 45.23115,8.0559 C45.04265,7.8124 44.78565,7.5239 44.58265,7.2584 C44.56915,7.2409 44.57365,7.2024 44.55815,7.1839 C44.53365,7.1549 44.48165,7.1384 44.45865,7.1089 C44.44115,7.0879 44.44865,7.0544 44.43315,7.0344 C44.40415,6.9959 44.32765,6.9404 44.28365,6.8849 C44.25165,6.8449 44.24215,6.8034 44.20865,6.7604 C44.13715,6.6679 44.02215,6.5489 43.93515,6.4364 C43.89065,6.3794 43.85315,6.3259 43.81015,6.2619 C43.76415,6.1924 43.65365,6.0964 43.58565,6.0124 C43.56915,5.9914 43.57665,5.9579 43.56115,5.9379 C43.54765,5.9199 43.52665,5.9079 43.51115,5.8879 C43.39215,5.7339 43.22615,5.5379 43.08765,5.3644 C42.62465,4.7869 42.17415,4.2029 41.71665,3.6199 C41.69965,3.5984 41.65565,3.5964 41.66665,3.5454" id="Fill-9"></path>
                <g id="Group-13" transform="translate(57.000000, 2.862850)">
                    <path d="M10.735,6.3146 L4.2805,6.3146 C4.3525,5.2116 4.73,4.2906 5.277,3.6231 C5.2955,3.5996 5.3295,3.5781 5.3515,3.5486 C5.453,3.4146 5.612,3.2576 5.7755,3.1496 C5.799,3.1341 5.8335,3.1021 5.875,3.0746 C5.8985,3.0591 5.933,3.0276 5.975,3.0001 C6.459,2.6791 7.067,2.3931 7.9435,2.4516 C8.12,2.4636 8.2925,2.5046 8.467,2.5516 C8.7615,2.6306 9.0065,2.7196 9.2395,2.8756 C9.3075,2.9206 9.409,3.0116 9.489,3.0746 C9.604,3.1666 9.6815,3.2281 9.7875,3.3491 C10.361,3.9996 10.762,5.0501 10.735,6.3146 M12.704,2.4516 C11.87,1.4071 10.691,0.6686 9.09,0.3836 C6.944,0.0016 4.9085,0.5421 3.607,1.4301 C3.5805,1.4481 3.531,1.4641 3.5075,1.4801 C3.4205,1.5396 3.3415,1.6331 3.2835,1.6791 C3.2505,1.7056 3.214,1.7041 3.183,1.7291 C3.114,1.7861 3.0505,1.8491 2.984,1.8786 C2.977,1.8816 2.9665,1.9226 2.9595,1.9286 C2.87,2.0041 2.7875,2.0566 2.71,2.1276 C2.5585,2.2676 2.4055,2.4381 2.287,2.5761 C2.2665,2.6001 2.24,2.6191 2.2115,2.6511 C2.1895,2.6766 2.185,2.7236 2.162,2.7511 C2.118,2.8021 2.0555,2.8471 2.0125,2.9006 C1.864,3.0851 1.693,3.3146 1.5885,3.4986 C1.5295,3.6026 1.463,3.6876 1.414,3.7726 C1.395,3.8056 1.408,3.8401 1.3895,3.8721 C1.3735,3.9001 1.3325,3.9141 1.3145,3.9471 C1.281,4.0091 1.248,4.0801 1.2145,4.1466 C0.9435,4.6861 0.706,5.3196 0.5915,5.9656 C0.5855,6.0016 0.5485,6.0341 0.5415,6.0656 C0.4585,6.4731 0.4165,6.9301 0.392,7.3866 C0.318,8.7851 0.5915,10.1711 1.0905,11.2991 C2.013,13.3866 3.8705,14.8926 6.324,15.3611 C6.9735,15.4851 7.7875,15.5241 8.517,15.4861 C9.324,15.4436 10.098,15.2591 10.735,15.0871 C10.9615,15.0261 11.194,14.9646 11.408,14.8876 C11.6245,14.8091 11.851,14.7166 12.031,14.6386 C12.1275,14.5966 12.246,14.5481 12.3295,14.5136 C12.856,14.2976 13.29,13.9786 13.8005,13.7661 C13.7595,13.5946 13.6375,13.4686 13.551,13.3176 C13.529,13.2791 13.525,13.2351 13.501,13.1931 C13.3765,12.9756 13.2205,12.7081 13.102,12.5201 C13.05,12.4366 13.02,12.3706 12.978,12.2956 C12.956,12.2576 12.9245,12.2331 12.903,12.1961 C12.8615,12.1246 12.8505,12.0036 12.7535,11.9716 C12.026,12.3471 11.1545,12.7041 10.1865,12.8691 C9.2525,13.0281 8.1705,12.9286 7.4455,12.7196 C6.99,12.5886 6.5895,12.4091 6.249,12.1961 C6.2045,12.1686 6.1735,12.1306 6.1245,12.0961 C6.0845,12.0691 6.0115,12.0491 5.975,12.0216 C5.94,11.9956 5.911,11.9506 5.875,11.9221 C5.6785,11.7631 5.451,11.5716 5.302,11.3986 C5.2865,11.3806 5.2905,11.3411 5.277,11.3241 C5.2605,11.3031 5.2185,11.2956 5.202,11.2741 C5.187,11.2541 5.19,11.2176 5.1775,11.1996 C5.1295,11.1291 5.068,11.0821 5.028,11.0251 C4.932,10.8886 4.85,10.7401 4.779,10.6011 C4.4805,10.0216 4.2955,9.2976 4.2805,8.4831 L14.2485,8.4831 C14.366,5.8601 13.8445,3.8811 12.704,2.4516" id="Fill-11"></path>
                </g>
            </g>
        </g>
    </g>
</svg>