<?xml version="1.0" encoding="UTF-8" standalone="no"?>
<svg width="95px" height="35px" viewBox="0 0 95 35" version="1.1" xmlns="http://www.w3.org/2000/svg" xmlns:xlink="http://www.w3.org/1999/xlink">
    <!-- Generator: Sketch 47.1 (45422) - http://www.bohemiancoding.com/sketch -->
    <title>Artboard</title>
    <desc>Created with Sketch.</desc>
    <defs></defs>
    <g id="Page-1" stroke="none" stroke-width="1" fill="none" fill-rule="evenodd">
        <g id="Artboard" fill="#DB0688">
            <g id="Logo_Liverpool" transform="translate(3.000000, 3.000000)">
                <path d="M5.62967185,14.6593065 C5.74265057,14.5683387 5.82183224,14.4894677 5.86721686,14.4217258 C6.04778969,14.2422097 6.19166858,14.1062419 6.3046473,14.0147903 C6.41714321,13.9257581 6.47604664,13.8575323 6.47604664,13.8115645 C6.65468822,13.6557581 6.77877169,13.5188226 6.84540016,13.4055968 C6.95934452,13.2933387 7.03080115,13.2144677 7.06701227,13.1694677 C7.0998437,13.1244677 7.17226596,13.0455968 7.28669313,12.9314032 C7.12736416,12.819629 7.0486653,12.6497903 7.0486653,12.4233387 C7.0486653,12.1305968 7.1544018,11.8785 7.36973732,11.6617258 C7.58459002,11.447371 7.82648036,11.3409194 8.09637398,11.3409194 C8.45751964,11.3409194 8.63616121,11.499629 8.63616121,11.8151129 C8.63616121,11.9288226 8.62650491,12.0115645 8.60188134,12.0686613 C8.58112029,12.1252742 8.53525286,12.2085 8.46717594,12.3226935 C8.42275696,12.3444677 8.39909902,12.3909194 8.39909902,12.4581774 C8.39909902,12.5486613 8.44593208,12.5936613 8.53525286,12.5936613 L8.53525286,12.5597903 L8.97364894,12.5597903 L9.00744599,12.5597903 C9.48060475,12.5597903 9.71911538,12.7741452 9.71911538,13.2028548 C9.71911538,13.3155968 9.68338707,13.4399516 9.61820704,13.5764032 C9.5496473,13.7099516 9.42411538,13.9035 9.24692226,14.1512419 C9.19815794,14.2625323 9.14408265,14.3607581 9.07745417,14.4391452 C9.00744599,14.5189839 8.963027,14.5799516 8.93936907,14.6235 L8.60188134,15.032371 L8.23252782,15.572371 C8.00608756,15.8883387 7.83710229,16.119629 7.72460638,16.2662419 C7.61259329,16.4143065 7.55610393,16.5430161 7.55610393,16.6562419 C7.55610393,16.8139839 7.65604664,16.8943065 7.8597946,16.8943065 C8.04036743,16.8943065 8.27646399,16.832371 8.56953273,16.7070484 C8.86067021,16.5826935 9.18319067,16.4143065 9.53178314,16.1999516 C9.88182406,15.9836613 10.2357275,15.7315645 10.597356,15.437371 C10.9565704,15.144629 11.3066113,14.8393065 11.6431334,14.5233387 L11.9135098,14.8954355 L11.777356,14.9980161 C10.7436489,15.7876935 9.84899264,16.4143065 9.09242144,16.8764032 C8.33826432,17.3389839 7.65797791,17.5707581 7.0486653,17.5707581 C6.41714321,17.5707581 6.10379624,17.2891452 6.10379624,16.7235 C6.10379624,16.4075323 6.22739689,16.0760806 6.4745982,15.7257581 C6.72179951,15.3749516 7.16116121,14.8852742 7.79268331,14.2518871 C8.13017103,13.9364032 8.34985188,13.7099516 8.45027741,13.5764032 C8.55166858,13.4399516 8.60188134,13.3388226 8.60188134,13.2705968 C8.60188134,13.1360806 8.53525286,13.0659194 8.39909902,13.0659194 L8.36771604,13.0659194 L7.89262602,13.1007581 L7.69032651,13.1007581 C7.08487643,13.9364032 6.51032651,14.5683387 5.9681252,14.9980161 L5.62967185,14.6593065 Z" id="Fill-1"></path>
                <path d="M14.9219787,13.1085 C14.7853421,13.1085 14.6274615,13.1636613 14.4468887,13.277371 C14.2692128,13.3905968 14.0838118,13.5381774 13.8897201,13.7176935 C13.699491,13.8991452 13.5073306,14.1014032 13.3161358,14.327371 C13.1244583,14.5514032 12.9487136,14.7894677 12.79373,15.0381774 C13.5131244,14.7217258 14.0871915,14.4188226 14.5154484,14.1231774 C14.9432226,13.8309194 15.156144,13.5710806 15.156144,13.3451129 C15.156144,13.1878548 15.0764795,13.1085 14.9219787,13.1085 M13.0283781,16.8943065 C13.4793273,16.8943065 14.070293,16.6693065 14.8022406,16.2188226 C15.5341882,15.7678548 16.2617905,15.2051129 16.9816678,14.5281774 L17.2520442,14.9002742 L17.1163732,15.0014032 C16.0131408,15.8360806 15.0953093,16.4718871 14.3638445,16.9112419 C13.629,17.3515645 12.9067087,17.5707581 12.1834517,17.5707581 C11.2603093,17.5707581 10.7982553,17.2209194 10.7982553,16.5212419 C10.7982553,15.8457581 11.1256039,15.1451129 11.7778871,14.4241452 C12.026054,14.1541452 12.3031899,13.9049516 12.6068805,13.6789839 C12.9115368,13.4535 13.2301948,13.2497903 13.5686481,13.0702742 C13.9066187,12.8907581 14.2383126,12.7485 14.5671097,12.6478548 C14.8939755,12.5452742 15.1793191,12.4939839 15.4265205,12.4939839 C15.8789182,12.4939839 16.1043928,12.699629 16.1043928,13.1085 C16.1043928,13.2885 16.0585254,13.4568871 15.9687218,13.6165645 C15.8789182,13.7738226 15.6968969,13.9470484 15.4265205,14.1405968 C15.156144,14.3297903 14.7785827,14.5620484 14.294802,14.8335 C13.8115041,15.1039839 13.1751538,15.4291452 12.3871997,15.8128548 C12.3191227,15.9464032 12.2882226,16.082371 12.2882226,16.2188226 C12.2882226,16.6693065 12.5334926,16.8943065 13.0283781,16.8943065" id="Fill-3"></path>
                <path d="M20.5639624,15.2424194 L21.3070147,14.1237097 L21.7125794,13.413871 C21.7560327,13.413871 21.7796907,13.3795161 21.7796907,13.3117742 C21.7796907,13.2217742 21.7352717,13.1758065 21.6435368,13.1758065 C21.3070147,13.1758065 20.7092897,13.5382258 19.8527758,14.2582258 C19.2685696,14.7116129 18.7215401,15.2143548 18.2155499,15.7679032 C17.7076285,16.32 17.2629558,16.8774194 16.8805663,17.4416129 L15.5619984,17.4416129 L17.2170884,14.9037097 L16.3740933,15.446129 L16.171311,15.2075806 C16.4194779,15.0285484 16.5986023,14.8751613 16.7125466,14.7493548 C16.8250426,14.6274194 17.0041669,14.441129 17.2523339,14.1919355 C17.6569329,13.8087097 17.9432422,13.5324194 18.1131931,13.3620968 C18.2816956,13.1927419 18.4584059,12.9832258 18.6380131,12.7340323 L19.7518674,12.7340323 L18.468545,14.8693548 L18.8060327,14.5998387 C19.5944697,13.9437097 20.2472357,13.4467742 20.7648134,13.1075806 C21.2843224,12.7674194 21.7454108,12.5980645 22.1500098,12.5980645 C22.6241342,12.5980645 22.8611964,12.791129 22.8611964,13.1758065 C22.8611964,13.3572581 22.8129149,13.548871 22.7235941,13.7520968 C22.635239,13.9558065 22.3976939,14.328871 22.0167529,14.8693548 L22.3214092,14.5998387 C23.8060655,13.2648387 24.9223339,12.5980645 25.6639378,12.5980645 C25.9106563,12.5980645 26.1211637,12.6648387 26.2877349,12.8012903 C26.459617,12.9358065 26.5426612,13.1162903 26.5426612,13.3422581 C26.5426612,13.5677419 26.4803781,13.7917742 26.3567774,14.0187097 C26.2331768,14.2437097 25.9222439,14.6496774 25.4288069,15.2351613 C24.843635,15.9575806 24.5510491,16.4090323 24.5510491,16.5890323 C24.5510491,16.6572581 24.5790524,16.7235484 24.6331277,16.7937097 C24.6905827,16.8604839 24.7639705,16.8943548 24.8547398,16.8943548 C25.0333813,16.8943548 25.3042406,16.7937097 25.6639378,16.5890323 C26.0241178,16.3862903 26.428234,16.1283871 26.8791833,15.8104839 C27.535329,15.3377419 28.0533895,14.9090323 28.433365,14.5248387 L28.7042242,14.8974194 L28.5685532,15 C27.535329,15.7659677 26.6595025,16.3862903 25.9497643,16.8604839 C25.2414746,17.3332258 24.6176776,17.5703226 24.0774075,17.5703226 C23.4458854,17.5703226 23.1301244,17.2891935 23.1301244,16.7259677 C23.1301244,16.4782258 23.2194452,16.2009677 23.4024321,15.8970968 C23.5820393,15.5932258 23.9851899,15.0914516 24.6176776,14.3922581 C25.0893879,13.8977419 25.3259673,13.5382258 25.3259673,13.3117742 C25.3259673,13.2217742 25.2709264,13.1758065 25.1589133,13.1758065 C25.0005499,13.1758065 24.7745925,13.2730645 24.4795925,13.4651613 C24.1908691,13.6577419 23.8287578,13.9209677 23.4024321,14.2582258 C22.8375385,14.7116129 22.2914746,15.2143548 21.7613437,15.7679032 C21.2321784,16.32 20.7768838,16.8774194 20.3930458,17.4416129 L19.110689,17.4416129 L20.5639624,15.2424194 Z" id="Fill-5"></path>
                <path d="M34.5844288,8.58116129 C34.4053044,8.74954839 34.179347,8.83277419 33.9094534,8.83277419 C33.4811964,8.83277419 33.2677921,8.64212903 33.2677921,8.26132258 C33.2677921,8.016 33.3624239,7.80745161 33.5531358,7.63858065 C33.7448134,7.46970968 33.975599,7.38551613 34.2459755,7.38551613 C34.6515401,7.38551613 34.8557709,7.5776129 34.8557709,7.9593871 C34.8557709,8.20567742 34.7654845,8.41277419 34.5844288,8.58116129 L34.5844288,8.58116129 Z M27.6232013,15.201 C27.8742651,15.0190645 28.0533895,14.8685806 28.164437,14.7432581 C28.2774157,14.6203548 28.4555745,14.4330968 28.7056727,14.184871 C29.0219165,13.8689032 29.2724975,13.6250323 29.4646579,13.4566452 C29.6568183,13.2872903 29.8774648,13.0458387 30.1251489,12.7279355 L31.5441424,12.7279355 L28.9094206,16.2180968 C28.8630704,16.2611613 28.8283077,16.3240645 28.806581,16.4029355 C28.78582,16.4808387 28.7747152,16.5427742 28.7747152,16.5882581 C28.7747152,16.656 28.806581,16.7232581 28.8756236,16.7924516 C28.942252,16.8592258 29.0330213,16.8945484 29.1440687,16.8945484 C29.3029149,16.8945484 29.5158363,16.8253548 29.7871784,16.6908387 C30.057072,16.554871 30.3617283,16.3801935 30.699216,16.1653548 C31.0357381,15.9505161 31.3857791,15.6974516 31.7478903,15.4027742 C32.1071047,15.1095484 32.4445925,14.8163226 32.7598707,14.5230968 L33.0297643,14.8956774 L32.8945761,14.9982581 C31.8589378,15.7656774 30.9802144,16.3855161 30.26082,16.8592258 C29.5394943,17.3334194 28.9210082,17.5705161 28.4039133,17.5705161 C28.0857381,17.5705161 27.8399853,17.4969677 27.6574812,17.3503548 C27.4783568,17.2027742 27.389036,16.9942258 27.389036,16.7232581 C27.389036,16.5664839 27.433455,16.4140645 27.5242242,16.2664839 C27.613545,16.1193871 27.7260409,15.9335806 27.8602635,15.7080968 L28.2325139,15.1332581 L27.8269493,15.4376129 L27.6232013,15.201 Z" id="Fill-7"></path>
                <path d="M33.1666424,16.6907419 C33.1666424,16.9147742 33.3114869,17.0275161 33.6045556,17.0275161 C33.9642529,17.0275161 34.4432054,16.7976774 35.0389992,16.3350968 C35.6362414,15.8705806 36.1726489,15.3121935 36.6458077,14.6584839 L38.0981154,12.7278387 L39.5171088,12.7278387 L37.1165524,15.978 C36.8693511,16.3167097 36.7491301,16.5426774 36.7491301,16.6554194 C36.7491301,16.8349355 36.8476244,16.926871 37.0513723,16.926871 C37.2314624,16.926871 37.4680417,16.8586452 37.759662,16.7221935 C38.052248,16.5871935 38.3742856,16.413 38.7214296,16.1981613 C39.072919,15.9838065 39.4277881,15.7307419 39.7879681,15.4355806 C40.1471825,15.1423548 40.4962578,14.838 40.8327799,14.523 L41.1046047,14.894129 L40.9694165,14.9957419 C39.8888764,15.8096129 38.9869779,16.4415484 38.2656522,16.8920323 C37.5472234,17.3444516 36.893009,17.5689677 36.3063887,17.5689677 C35.6772807,17.5689677 35.3615196,17.3444516 35.3615196,16.8920323 C35.3615196,16.8470323 35.37359,16.7976774 35.3953167,16.739129 C35.418009,16.6820323 35.4407013,16.6220323 35.462428,16.5552581 C34.9462987,16.9365484 34.5001776,17.2026774 34.1288928,17.3492903 C33.7561596,17.4959032 33.3800466,17.5689677 32.995243,17.5689677 C32.230464,17.5689677 31.8480745,17.2863871 31.8480745,16.7221935 C31.8480745,16.4971935 31.9113232,16.2838065 32.0325098,16.0800968 C32.1580417,15.8754194 32.3999321,15.5497742 32.7596293,15.0978387 L32.2208077,15.4355806 L32.0513396,15.1989677 C32.2990237,15.0189677 32.4762169,14.8665484 32.590644,14.7431613 C32.7026571,14.6192903 32.8851612,14.4310645 33.1309141,14.1847742 C33.5171661,13.7986452 33.7904394,13.5242903 33.9594247,13.3539677 C34.1288928,13.1855806 34.3036718,12.9775161 34.4832791,12.7278387 L35.9355867,12.7278387 L33.6045556,15.9426774 C33.3114869,16.3050968 33.1666424,16.5552581 33.1666424,16.6907419" id="Fill-9"></path>
                <path d="M44.4161367,15.2424194 L45.159189,14.1237097 L45.5637881,13.413871 C45.6091727,13.413871 45.6333134,13.3795161 45.6333134,13.3117742 C45.6333134,13.2217742 45.5884116,13.1758065 45.4966768,13.1758065 C45.159189,13.1758065 44.5643609,13.5382258 43.7044673,14.2582258 C43.120261,14.7116129 42.57468,15.2143548 42.0672414,15.7679032 C41.561734,16.32 41.1160957,16.8774194 40.7337062,17.4416129 L39.4151383,17.4416129 L41.0740908,14.9037097 L40.2262676,15.446129 L40.0234853,15.2075806 C40.2711694,15.0285484 40.4502938,14.8751613 40.5656866,14.7493548 C40.6781825,14.6274194 40.8573069,14.441129 41.104991,14.1919355 C41.50959,13.8087097 41.7997619,13.5324194 41.9677815,13.3620968 C42.1348355,13.1927419 42.3115458,12.9832258 42.4916358,12.7340323 L43.6050074,12.7340323 L42.3207193,14.8693548 L42.6591727,14.5998387 C43.4505065,13.9437097 44.0984444,13.4467742 44.618919,13.1075806 C45.1355311,12.7674194 45.5995164,12.5980645 46.0031498,12.5980645 C46.4772741,12.5980645 46.7133707,12.791129 46.7133707,13.1758065 C46.7133707,13.3572581 46.6675033,13.548871 46.5781825,13.7520968 C46.4878961,13.9558065 46.2508339,14.328871 45.8684444,14.8693548 L46.1731007,14.5998387 C47.6592054,13.2648387 48.7745082,12.5980645 49.5165949,12.5980645 C49.7657275,12.5980645 49.9743036,12.6648387 50.1413576,12.8012903 C50.3093773,12.9358065 50.3977324,13.1162903 50.3977324,13.3422581 C50.3977324,13.5677419 50.3320696,13.7917742 50.210883,14.0187097 C50.0863167,14.2437097 49.7773151,14.6496774 49.2800155,15.2351613 C48.6958093,15.9575806 48.4012921,16.4090323 48.4012921,16.5890323 C48.4012921,16.6572581 48.4321923,16.7235484 48.4872332,16.7937097 C48.542757,16.8604839 48.6142136,16.8943548 48.7078797,16.8943548 C48.8865213,16.8943548 49.1564149,16.7937097 49.5165949,16.5890323 C49.8782234,16.3862903 50.2833052,16.1283871 50.7342545,15.8104839 C51.3870205,15.3377419 51.9045982,14.9090323 52.2874705,14.5248387 L52.5573642,14.8974194 L52.4216931,15 C51.3870205,15.7659677 50.5126424,16.3862903 49.8029043,16.8604839 C49.096063,17.3332258 48.4708175,17.5703226 47.929099,17.5703226 C47.2975769,17.5703226 46.9818159,17.2891935 46.9818159,16.7259677 C46.9818159,16.4782258 47.0745164,16.2009677 47.255572,15.8970968 C47.4327651,15.5932258 47.8397782,15.0914516 48.4708175,14.3922581 C48.9434935,13.8977419 49.1791072,13.5382258 49.1791072,13.3117742 C49.1791072,13.2217742 49.1255147,13.1758065 49.0106047,13.1758065 C48.8522414,13.1758065 48.628698,13.2730645 48.3341809,13.4651613 C48.0430434,13.6577419 47.6818977,13.9209677 47.255572,14.2582258 C46.6921268,14.7116129 46.1441318,15.2143548 45.6173805,15.7679032 C45.0858011,16.32 44.6290581,16.8774194 44.2461858,17.4416129 L42.9657602,17.4416129 L44.4161367,15.2424194 Z" id="Fill-11"></path>
                <path d="M0,17.4930968 L3.66456628,10.5640645 C4.18021277,9.50196774 6.07381342,5.39729032 6.4803437,4.21858065 C6.88494272,3.04035484 7.1760802,1.93858065 7.35327332,0.912290323 C7.39382979,0.676645161 7.42424714,0.46616129 7.44645663,0.283258065 L9.2058347,0.000193548387 L9.15320786,0.318580645 C9.06581833,0.82083871 8.8659329,1.61970968 8.55162029,2.71616129 C8.23779051,3.81358065 7.96355155,4.65116129 7.72890344,5.2293871 C8.53375614,4.25003226 9.47138298,3.37519355 10.5509574,2.60293548 C11.6271522,1.83164516 12.6941735,1.26019355 13.7481588,0.887129032 C14.8040753,0.515032258 15.726252,0.396967742 16.5127578,0.533419355 C17.2987807,0.668419355 17.8897463,1.01632258 18.2885516,1.57277419 C18.6825286,2.13116129 18.8128887,2.81003226 18.6781833,3.60551613 C18.5053355,4.60954839 18.4580196,5.15970968 17.7106219,6.07132258 C16.9603273,6.98196774 16.0178723,7.77503226 14.8769804,8.45583871 C13.7385025,9.13470968 12.5333961,9.61616129 11.2640753,9.90116129 C9.99668576,10.1851935 8.779509,10.2272903 7.62364975,10.0279355 C7.36003273,9.98148387 7.05875614,9.90309677 6.71209493,9.78841935 L7.65358429,9.12067742 C8.12674304,9.32729032 8.62162848,9.47583871 9.1353437,9.56632258 C9.97302782,9.71051613 10.8488543,9.64470968 11.7637889,9.36890323 C12.6806547,9.0926129 13.5366858,8.62809677 14.3347791,7.9743871 C15.071072,7.37487097 15.3332406,6.99019355 15.9473813,6.01132258 C16.5629705,5.03341935 16.9357038,4.16245161 17.0694435,3.39164516 C17.1790426,2.75487097 17.1220704,2.23083871 16.8946645,1.82390323 C16.6672586,1.41696774 16.2993535,1.16825806 15.7846727,1.08067742 C15.0575532,0.954387097 14.1686907,1.12277419 13.1098773,1.58535484 C12.0544435,2.04890323 10.9792144,2.73841935 9.88660393,3.65341935 C9.10058101,4.29987097 8.41353519,5.02664516 7.8206383,5.83422581 C7.23112111,6.63841935 6.53683306,7.56164516 5.99559738,8.66680645 L2.27599018,17.5076129 L0,17.4930968 Z" id="Fill-13"></path>
                <path d="M63.4486579,10.7982581 C63.4843863,10.8577742 63.5302537,10.8650323 63.5901227,10.8190645 C64.4871931,10.0806774 64.4809165,10.2055161 65.2461784,8.87777419 C65.4040589,8.59906452 65.6184288,7.98841935 65.7063011,7.58196774 C65.7627905,7.3076129 65.8540426,6.9176129 65.8926678,6.64180645 C65.9578478,6.16035484 65.9269476,5.931 65.792725,5.84051613 C65.8805974,5.90245161 65.4788953,6.1076129 65.2292799,6.54454839 C65.093126,6.78309677 64.6653519,7.54470968 64.4809165,7.9593871 C63.9840998,9.07567742 63.7074468,9.68293548 63.4505892,10.5640645 C63.4225859,10.6830968 63.4225859,10.7614839 63.4486579,10.7982581 M52.2401064,21.6718065 C51.3739362,20.5487419 51.0470704,19.1968065 51.2653028,17.6101935 C51.5197463,15.7313226 52.5003437,12.4637419 54.1544681,10.3889032 C55.5908429,8.58309677 57.2942144,7.01487097 59.2607201,5.68567742 C61.1234206,4.42906452 62.6264239,3.76519355 63.772144,3.69454839 C64.0608674,3.68051613 64.3471768,3.69454839 64.6291408,3.73180645 C65.4219231,3.8426129 65.9525368,4.17745161 66.228707,4.74212903 L66.4783224,4.43341935 C66.5010147,4.34874194 66.5406056,4.32841935 66.5990262,4.37245161 C66.649239,4.39616129 66.6656547,4.46051613 66.6526187,4.56309677 C66.6463421,4.61487097 66.55509,4.76970968 66.380311,5.02664516 C66.4865303,5.34019355 66.4932897,5.84051613 66.3981751,6.53003226 C66.3643781,6.79858065 66.2721604,7.37293548 66.1659411,7.64777419 C65.8714239,8.41712903 65.7569967,8.72632258 65.2877005,9.36648387 C64.7416367,10.1682581 64.1342553,10.8069677 63.4631424,11.2758387 C63.4307938,11.289871 63.3419558,11.2782581 63.1966285,11.2385806 C63.0363339,11.1674516 62.9648773,11.0939032 62.9735679,11.0242258 C63.1053764,10.0584194 63.5722586,8.84003226 64.3814566,7.37051613 C64.9922177,6.22229032 65.1969313,6.14729032 65.7545827,5.41470968 C65.6594681,4.70003226 65.1901718,4.28341935 64.3452455,4.16825806 C64.2308183,4.15325806 64.1077005,4.14406452 63.9763748,4.14406452 C63.842635,4.14406452 63.7011702,4.15035484 63.5495663,4.16487097 C61.7114894,4.47503226 59.5842062,5.75729032 57.1720622,8.00825806 C54.6213502,10.4353548 52.9010802,14.207129 52.0658101,16.746 C51.9373813,17.1490645 51.8413011,17.5656774 51.7828805,17.9977742 C51.6100327,19.2732581 51.7988134,20.3547097 52.3477741,21.2358387 C52.9966776,22.2558387 54.0096236,22.8355161 55.3967512,22.9734194 C56.1929133,23.0450323 57.0228723,22.9884194 57.8837316,22.7987419 C58.744108,22.6085806 59.6329705,22.2979355 60.5541817,21.8605161 C61.4077987,21.4322903 62.1933388,20.9561613 62.9016285,20.4282581 C63.6123322,19.9032581 64.2607529,19.3008387 64.85027,18.6287419 C64.9328314,18.5155161 64.9980115,18.4627742 65.048707,18.4700323 C65.0911948,18.474871 65.106162,18.5218065 65.0960229,18.6084194 C65.0849182,18.6766452 65.035671,18.7651935 64.9463502,18.8779355 C63.7793863,20.3513226 62.2976268,21.5464839 60.5054173,22.4580968 C59.5465466,22.9419677 58.6330606,23.2801935 57.7668903,23.4669677 C56.9012029,23.6576129 56.0794517,23.6793871 55.3021195,23.5390645 C54.0342471,23.3300323 53.0155074,22.7082581 52.2401064,21.6718065" id="Fill-15"></path>
                <path d="M61.695653,15.3692903 C61.3909967,15.8657419 61.2398756,16.2489677 61.2398756,16.5199355 C61.2398756,16.7221935 61.3634763,16.8242903 61.6087463,16.8242903 C61.881054,16.8242903 62.202126,16.701871 62.5753421,16.4531613 C62.946144,16.2034839 63.2874943,15.8754194 63.6032553,15.4699355 C63.9190164,15.0412258 64.1802193,14.6584839 64.3830016,14.3183226 C64.5848183,13.9800968 64.6857267,13.709129 64.6857267,13.5063871 C64.6857267,13.2349355 64.5510213,13.1009032 64.2806448,13.1009032 L64.2125679,13.1009032 C63.7384435,13.2121935 63.2551457,13.5300968 62.758329,14.0483226 C62.3527643,14.4310645 61.9998265,14.8713871 61.695653,15.3692903 M59.8870278,16.5881613 C59.8870278,16.2736452 60.0004894,15.9005806 60.2235499,15.4709032 C60.4519214,15.0417097 60.7565777,14.6371935 61.1380016,14.2520323 C61.3861686,14.028 61.6546137,13.8126774 61.9500966,13.6099355 C62.2426825,13.4057419 62.5352684,13.2320323 62.8283372,13.0834839 C63.1214059,12.9378387 63.400473,12.8202581 63.6727807,12.7278387 C63.9417087,12.6388065 64.1802193,12.5938065 64.3830016,12.5938065 C64.8774043,12.5938065 65.1246056,12.7970323 65.1246056,13.203 L65.1246056,13.371871 C65.1246056,13.4396129 65.1139836,13.5300968 65.0912913,13.6433226 L66.0351948,12.7278387 L67.0491064,12.7278387 L64.7195237,15.9789677 C64.470874,16.3404194 64.3472733,16.5663871 64.3472733,16.6563871 C64.3472733,16.814129 64.4617005,16.8944516 64.6857267,16.8944516 C64.8667823,16.8944516 65.0961195,16.8325161 65.3761522,16.7067097 C65.6595646,16.5828387 65.9753257,16.4144516 66.3253666,16.1996129 C66.6729935,15.9838065 67.0331735,15.7317097 67.4044583,15.4375161 C67.7776743,15.1447742 68.1339918,14.8394516 68.4685827,14.523 L68.7399247,14.8955806 L68.6042537,14.9981613 C67.5449574,15.7878387 66.6445074,16.4144516 65.901455,16.8765484 C65.1584026,17.339129 64.470874,17.5704194 63.8393519,17.5704194 C63.5921506,17.5704194 63.3941964,17.5259032 63.2503175,17.4344516 C63.1035417,17.3444516 63.0306367,17.2089677 63.0306367,17.0284839 C63.0306367,16.9162258 63.0760213,16.7584839 63.1658249,16.5552581 C62.6463159,16.9389677 62.2079198,17.2026774 61.8462913,17.3502581 C61.4870769,17.496871 61.150072,17.5704194 60.834311,17.5704194 C60.2042373,17.5704194 59.8870278,17.2423548 59.8870278,16.5881613" id="Fill-17"></path>
                <path d="M68.2659935,14.6593065 C68.3780065,14.5683387 68.4586367,14.4894677 68.5035385,14.4217258 C68.6826628,14.2422097 68.8308871,14.1062419 68.943383,14.0147903 C69.0558789,13.9257581 69.1109198,13.8575323 69.1109198,13.8115645 C69.2914926,13.6557581 69.4150933,13.5188226 69.4817218,13.4055968 C69.5942177,13.2933387 69.669054,13.2144677 69.7033339,13.1694677 C69.7361653,13.1244677 69.8090704,13.0455968 69.9234975,12.9314032 C69.7646514,12.819629 69.6854697,12.6497903 69.6854697,12.4233387 C69.6854697,12.1305968 69.7931375,11.8785 70.0079902,11.6617258 C70.2213944,11.447371 70.4618363,11.3409194 70.7322128,11.3409194 C71.0923928,11.3409194 71.2734484,11.499629 71.2734484,11.8151129 C71.2734484,11.9288226 71.2613781,12.0115645 71.2367545,12.0686613 C71.2150278,12.1252742 71.170126,12.2085 71.104946,12.3226935 C71.0595614,12.3444677 71.0368691,12.3909194 71.0368691,12.4581774 C71.0368691,12.5486613 71.0812881,12.5936613 71.170126,12.5936613 L71.170126,12.5597903 L71.6099705,12.5597903 L71.6456989,12.5597903 C72.1159607,12.5597903 72.3539885,12.7741452 72.3539885,13.2028548 C72.3539885,13.3155968 72.3211571,13.4399516 72.2530802,13.5764032 C72.1859689,13.7099516 72.0623682,13.9035 71.8817954,14.1512419 C71.8349624,14.2625323 71.7808871,14.3607581 71.7123273,14.4391452 C71.6456989,14.5189839 71.6017627,14.5799516 71.5771391,14.6235 L71.2367545,15.032371 L70.867401,15.572371 C70.6419264,15.8883387 70.4734239,16.119629 70.3618936,16.2662419 C70.2484321,16.4143065 70.1933912,16.5430161 70.1933912,16.6562419 C70.1933912,16.8139839 70.2928511,16.8943065 70.4961162,16.8943065 C70.676689,16.8943065 70.914234,16.832371 71.2058543,16.7070484 C71.5008543,16.5826935 71.8185466,16.4143065 72.1681047,16.1999516 C72.5166972,15.9836613 72.8720491,15.7315645 73.2302979,15.437371 C73.5933748,15.144629 73.9424501,14.8393065 74.2789722,14.5233387 L74.5512799,14.8954355 L74.4127119,14.9980161 C73.3794877,15.7876935 72.4838658,16.4143065 71.7301915,16.8764032 C70.9745859,17.3389839 70.2942995,17.5707581 69.6854697,17.5707581 C69.0558789,17.5707581 68.739635,17.2891452 68.739635,16.7235 C68.739635,16.4075323 68.8632357,16.0760806 69.1109198,15.7257581 C69.3595696,15.3749516 69.7979656,14.8852742 70.4285221,14.2518871 C70.7664926,13.9364032 70.9856907,13.7099516 71.0856334,13.5764032 C71.1879902,13.4399516 71.2367545,13.3388226 71.2367545,13.2705968 C71.2367545,13.1360806 71.170126,13.0659194 71.0368691,13.0659194 L71.0040376,13.0659194 L70.5303961,13.1007581 L70.3276137,13.1007581 C69.7197496,13.9364032 69.1466481,14.5683387 68.6044468,14.9980161 L68.2659935,14.6593065 Z" id="Fill-19"></path>
                <path d="M86.2730155,5.7885 C86.9484738,5.06414516 87.4790876,4.46656452 87.8600286,3.99285484 C88.3776064,3.36091935 88.7720663,2.83108065 89.0453396,2.40237097 C89.3142676,1.97220968 89.448973,1.66882258 89.448973,1.48737097 C89.448973,1.3068871 89.3808961,1.21640323 89.2471563,1.21640323 C89.020716,1.21640323 88.6745376,1.4201129 88.198482,1.82462903 C87.7934002,2.18801613 87.3129992,2.68446774 86.7645213,3.31543548 C86.2126637,3.9468871 85.4754051,4.89575806 84.5522627,6.16059677 C84.2345704,6.58785484 83.9598486,6.95559677 83.7242349,7.26043548 C83.4847586,7.56527419 83.2665262,7.86479032 83.0627782,8.15704839 C82.8609615,8.45172581 82.6538339,8.74930645 82.4389812,9.05559677 C82.2236457,9.35995161 81.9832038,9.71414516 81.7118617,10.1215645 C81.9832038,9.89559677 82.2144722,9.69914516 82.4056669,9.52882258 C82.5973445,9.35995161 82.7812971,9.19059677 82.9623527,9.02124194 C83.1424427,8.8518871 83.329775,8.67672581 83.5204869,8.49624194 C83.7121645,8.31672581 83.9318453,8.11204839 84.1795295,7.88704839 C84.8989239,7.2101129 85.5961088,6.50995161 86.2730155,5.7885 M74.654554,16.5493065 C74.654554,16.7302742 74.7544967,16.8207581 74.9553478,16.8207581 C75.2271727,16.8207581 75.5463134,16.6978548 75.9200123,16.449629 C76.2903314,16.1999516 76.643752,15.8738226 76.9836538,15.4664032 C77.7049795,14.6094677 78.0632283,13.9533387 78.0632283,13.5033387 C78.0632283,13.2328548 77.9396277,13.0968871 77.693392,13.0968871 L77.5567553,13.0968871 C76.8137029,13.277371 76.0933429,13.8991452 75.3956751,14.9602742 C74.8998241,15.5912419 74.654554,16.1205968 74.654554,16.5493065 M73.2321809,16.5880161 C73.2321809,16.2735 73.3581956,15.9004355 73.6058797,15.4707581 C73.8535638,15.0415645 74.1688421,14.6370484 74.5517144,14.2518871 C74.7742921,14.0278548 75.0335638,13.8115645 75.328081,13.607371 C75.6211498,13.4055968 75.9142185,13.2318871 76.205356,13.0833387 C76.500356,12.9376935 76.7856997,12.819629 77.066698,12.7276935 C77.348662,12.6386613 77.6021399,12.5936613 77.8305115,12.5936613 C78.1887602,12.5936613 78.424374,12.7847903 78.5368699,13.1694677 L78.8086948,12.7276935 L80.5980074,10.0194677 C81.3859615,8.80204839 82.0976309,7.76801613 82.7252905,6.92075806 C83.3572954,6.07495161 84.0230974,5.26979032 84.7197995,4.50043548 C85.1915098,4.00398387 85.7341939,3.46204839 86.3415753,2.8751129 C86.9484738,2.28914516 87.4563953,1.82559677 87.8600286,1.48737097 C88.6957815,0.810435484 89.3582038,0.471725806 89.8545376,0.471725806 C90.30259,0.471725806 90.5309615,0.7185 90.5309615,1.21640323 C90.5309615,1.64559677 90.3161088,2.16382258 89.8878519,2.7735 C89.8434329,2.90946774 89.7603887,3.04446774 89.6329255,3.17995161 C89.5112561,3.31543548 89.3808961,3.47269355 89.2471563,3.65366129 C89.0453396,3.88059677 88.8633183,4.08769355 88.704955,4.28027419 C88.5490057,4.47237097 88.3761579,4.66882258 88.1825491,4.87156452 C87.9903887,5.07479032 87.7649141,5.29446774 87.5075736,5.53301613 C87.2468535,5.76866129 86.9151596,6.06866129 86.5105606,6.42914516 L84.4841858,8.25720968 C84.1891858,8.52769355 83.9241203,8.7701129 83.6918863,8.98446774 C83.4514444,9.19979032 83.2047259,9.41898387 82.9449714,9.64446774 C82.6866653,9.8718871 82.400356,10.1143065 82.0831465,10.3717258 C81.7683511,10.6315645 81.3985147,10.9301129 80.9683265,11.2702742 C80.9026637,11.3597903 80.8225164,11.4739839 80.7312643,11.6085 C80.5521399,11.8576935 80.3488748,12.1610806 80.1229173,12.5230161 C79.8979255,12.8830161 79.6294804,13.3117258 79.3156506,13.8086613 C79.0655524,14.2136613 78.8526309,14.5702742 78.6720581,14.8736613 C78.4914853,15.1804355 78.3558142,15.444629 78.2669763,15.6701129 L77.9304542,16.1767258 C77.8377537,16.3354355 77.7943003,16.4607581 77.7943003,16.5493065 C77.7943003,16.7302742 77.8952087,16.8207581 78.0989566,16.8207581 C78.2549059,16.8207581 78.4716899,16.7583387 78.7386866,16.6339839 C79.009063,16.5091452 79.3156506,16.3407581 79.6536211,16.1283387 C79.990626,15.9130161 80.3324591,15.6647903 80.6825,15.3826935 C81.0325409,15.1005968 81.3536129,14.8122097 81.6466817,14.5194677 L81.9508552,14.8910806 L81.8156669,14.9926935 C80.8017553,15.737371 79.9157897,16.3538226 79.1616326,16.8401129 C78.4084411,17.3264032 77.7720908,17.5707581 77.2540303,17.5707581 C76.6915507,17.5707581 76.4091039,17.3675323 76.4091039,16.959629 C76.4091039,16.9165645 76.4255196,16.8662419 76.4622136,16.8086613 C76.4945622,16.7530161 76.5346358,16.667371 76.5771236,16.5551129 C76.0609943,16.9388226 75.6211498,17.2025323 75.2614525,17.3505968 C74.8998241,17.4967258 74.5517144,17.5707581 74.2113298,17.5707581 C73.5604951,17.5707581 73.2321809,17.2422097 73.2321809,16.5880161" id="Fill-21"></path>
                <path d="M0.226295417,23.762371 L0.67048527,23.762371 L0.67048527,27.9183387 C0.67048527,27.9183387 0.67048527,28.2178548 0.96162275,28.2178548 L3.34672913,28.2178548 L3.34672913,28.6688226 L0.75352946,28.6688226 C0.75352946,28.6688226 0.224364157,28.6683387 0.224364157,28.1322097 C0.224364157,27.6018871 0.226295417,23.762371 0.226295417,23.762371" id="Fill-23"></path>
                <path d="M0.838311784,23.762371 L1.28201882,23.762371 L1.28201882,27.3275323 C1.28201882,27.3275323 1.25063584,27.6047903 1.53742799,27.6038226 C2.96076678,27.6018871 3.34219067,27.6038226 3.34219067,27.6038226 L3.34219067,28.0489839 L1.09710065,28.0489839 C1.09710065,28.0489839 0.836380524,28.0310806 0.838311784,27.7843065 C0.840725859,27.6091452 0.838311784,23.762371 0.838311784,23.762371" id="Fill-25"></path>
                <path d="M1.44747954,23.762371 L1.89166939,23.762371 L1.89166939,26.7783387 C1.89166939,26.7783387 1.86704583,26.9835 2.07755319,26.9835 L3.34687398,26.9835 L3.34204583,27.4315645 L1.63819149,27.4315645 C1.63819149,27.4315645 1.44747954,27.3967258 1.44747954,27.1886613 L1.44747954,23.762371 Z" id="Fill-27"></path>
                <path d="M2.05761293,23.762371 L2.50373404,23.762371 L2.50373404,26.1957581 C2.50373404,26.1957581 2.47621358,26.3685 2.66982242,26.3685 L3.34672913,26.3685 L3.34672913,26.8136613 L2.31736743,26.8136613 C2.13293208,26.8136613 2.05761293,26.7638226 2.05761293,26.5925323 L2.05761293,23.762371 Z" id="Fill-29"></path>
                <path d="M5.79001473,28.6689194 L5.34582488,28.6689194 L5.34582488,24.5134355 C5.34582488,24.5134355 5.34582488,24.2139194 5.05275614,24.2139194 L2.66958101,24.2139194 L2.66958101,23.7624677 L5.26133224,23.7624677 C5.26133224,23.7624677 5.79098036,23.7639194 5.79098036,24.2995645 C5.79098036,24.8298871 5.79001473,28.6689194 5.79001473,28.6689194" id="Fill-31"></path>
                <path d="M5.17703273,28.6689194 L4.73380851,28.6689194 L4.73380851,25.1047258 C4.73380851,25.1047258 4.76470867,24.8279516 4.47839935,24.8284355 C3.05409493,24.830371 2.6717054,24.8284355 2.6717054,24.8284355 L2.6717054,24.3832742 L4.91776105,24.3832742 C4.91776105,24.3832742 5.17992962,24.4011774 5.17703273,24.6474677 C5.17510147,24.822629 5.17703273,28.6689194 5.17703273,28.6689194" id="Fill-33"></path>
                <path d="M4.56786498,28.6689194 L4.12367512,28.6689194 L4.12174386,25.6539194 C4.12174386,25.6539194 4.14829869,25.4487581 3.93586007,25.4487581 L2.66943617,25.4487581 L2.67136743,25.0006935 L4.37715303,25.0006935 C4.37715303,25.0006935 4.56786498,25.0355323 4.56786498,25.2435968 L4.56786498,28.6689194 Z" id="Fill-35"></path>
                <path d="M3.95681424,28.6689194 L3.51165876,28.6689194 L3.51165876,26.2360161 C3.51165876,26.2360161 3.53917921,26.0637581 3.34653601,26.0637581 L2.6696293,26.0637581 L2.6696293,25.6185968 L3.69850818,25.6185968 C3.88246072,25.6185968 3.95681424,25.6689194 3.95681424,25.8392419 L3.95681424,28.6689194 Z" id="Fill-37"></path>
                <polygon id="Fill-41" points="9.46800327 28.7023548 10.0522095 28.7023548 10.0522095 25.0050968 9.46800327 25.0050968"></polygon>
                <polygon id="Fill-42" points="30.1648363 28.7023548 30.7495254 28.7023548 30.7495254 23.6855806 30.1648363 23.6855806"></polygon>
                <polygon id="Fill-43" points="13.3118388 25.0051452 12.1347357 27.9804677 10.9566669 25.0051452 10.2903822 25.0051452 11.7537946 28.7024032 12.5161596 28.7024032 13.9800548 25.0051452"></polygon>
                <path d="M7.8193347,28.1148387 C7.62234615,28.1148387 7.47219067,27.9541935 7.47219067,27.7572581 L7.47219067,23.6927419 L6.88846727,23.6927419 L6.88846727,27.8530645 C6.88846727,28.3204839 7.25733797,28.698871 7.72470295,28.698871 L9.25522668,28.698871 L9.25522668,28.1148387 L7.8193347,28.1148387 Z" id="Fill-44"></path>
                <path d="M18.9024026,25.6003065 C18.7034828,25.6003065 18.5547758,25.7604677 18.5547758,25.9574032 L18.5547758,28.7164355 L17.9710524,28.7164355 L17.9710524,25.860629 C17.9710524,25.3946613 18.3394403,25.0162742 18.804874,25.0162742 L19.4180491,25.0162742 L19.4180491,25.5993387 L18.9024026,25.6003065 Z" id="Fill-45"></path>
                <path d="M14.4137193,26.3506452 C14.607811,25.7656452 15.1451841,25.391129 15.73277,25.391129 C16.320356,25.391129 16.8562807,25.7656452 17.0532692,26.3506452 L14.4137193,26.3506452 Z M17.6625818,26.895 L17.6625818,26.7822581 C17.6625818,25.7153226 16.7959288,24.8482258 15.73277,24.8482258 C14.6691285,24.8482258 13.8034411,25.7153226 13.8034411,26.7822581 C13.8034411,27.8467742 14.6691285,28.713871 15.73277,28.713871 C16.6298404,28.713871 17.398482,28.1095161 17.6080237,27.2390323 L17.040716,27.2390323 C16.8461416,27.7969355 16.3222872,28.1714516 15.73277,28.1714516 C15.0162725,28.1714516 14.4204787,27.6304839 14.3495049,26.895 L17.6625818,26.895 Z" id="Fill-46"></path>
                <path d="M27.9245262,28.1505484 C27.1723003,28.1505484 26.559608,27.5365161 26.559608,26.7821613 C26.559608,26.025871 27.1723003,25.4118387 27.9245262,25.4118387 C28.6801318,25.4118387 29.2937897,26.025871 29.2937897,26.7821613 C29.2937897,27.5365161 28.6801318,28.1505484 27.9245262,28.1505484 M24.6066211,28.1505484 C23.8548781,28.1505484 23.2412201,27.5365161 23.2412201,26.7821613 C23.2412201,26.025871 23.8548781,25.4118387 24.6066211,25.4118387 C25.3602954,25.4118387 25.9744362,26.025871 25.9744362,26.7821613 C25.9744362,27.5365161 25.3602954,28.1505484 24.6066211,28.1505484 M21.2872676,28.1505484 C20.5335933,28.1505484 19.9218666,27.5365161 19.9218666,26.7821613 C19.9218666,26.025871 20.5335933,25.4118387 21.2872676,25.4118387 C22.0409419,25.4118387 22.6545998,26.025871 22.6545998,26.7821613 C22.6545998,27.5365161 22.0409419,28.1505484 21.2872676,28.1505484 M27.9245262,24.8278065 C27.2244444,24.8278065 26.6107864,25.1979677 26.2655736,25.7563548 C25.9237406,25.1979677 25.3081514,24.8278065 24.6066211,24.8278065 C23.9050908,24.8278065 23.2895016,25.1979677 22.9476686,25.7563548 C22.6029386,25.1979677 21.9887979,24.8278065 21.2872676,24.8278065 C20.2110728,24.8278065 19.3391088,25.7021613 19.3391088,26.7821613 L19.3391088,29.9563548 L19.9276604,29.9563548 L19.9276604,28.1800645 C20.2791498,28.523129 20.7581023,28.7355484 21.2872676,28.7355484 C21.9887979,28.7355484 22.6029386,28.3639355 22.9476686,27.8065161 C23.2895016,28.3639355 23.9050908,28.7355484 24.6066211,28.7355484 C25.3081514,28.7355484 25.9237406,28.3639355 26.2655736,27.8065161 C26.6107864,28.3639355 27.2244444,28.7355484 27.9245262,28.7355484 C29.0036178,28.7355484 29.8765475,27.8597419 29.8765475,26.7821613 C29.8765475,25.7021613 29.0036178,24.8278065 27.9245262,24.8278065" id="Fill-47"></path>
                <path d="M31.4640434,24.0723387 C31.5253609,24.0723387 31.5678486,24.048629 31.5678486,23.9968548 C31.5678486,23.9508871 31.5306718,23.9218548 31.4775622,23.9218548 L31.3481678,23.9218548 L31.3481678,24.0723387 L31.4640434,24.0723387 Z M31.2670548,23.8526613 L31.4886669,23.8526613 C31.6122676,23.8526613 31.6528241,23.9300806 31.6528241,23.9847581 C31.6528241,24.0660484 31.5953691,24.1255645 31.5113592,24.1294355 L31.5113592,24.1323387 C31.553847,24.1473387 31.58523,24.1908871 31.6282005,24.2576613 L31.6885524,24.3554032 L31.5895753,24.3554032 L31.5451563,24.2770161 C31.4819075,24.1642742 31.457284,24.1420161 31.3950008,24.1420161 L31.3481678,24.1420161 L31.3481678,24.3554032 L31.2670548,24.3554032 L31.2670548,23.8526613 Z M31.4712856,23.7070161 C31.253536,23.7070161 31.081171,23.8807258 31.081171,24.0965323 C31.081171,24.3128226 31.253536,24.4870161 31.4712856,24.4870161 C31.6851727,24.4870161 31.8589861,24.3128226 31.8589861,24.0965323 C31.8589861,23.8807258 31.6851727,23.7070161 31.4712856,23.7070161 L31.4712856,23.7070161 Z M31.4712856,24.5649194 C31.2115311,24.5649194 31.0048863,24.3554032 31.0048863,24.0965323 C31.0048863,23.8371774 31.2115311,23.6305645 31.4712856,23.6305645 C31.7291088,23.6305645 31.9372021,23.8371774 31.9372021,24.0965323 C31.9372021,24.3554032 31.7291088,24.5649194 31.4712856,24.5649194 L31.4712856,24.5649194 Z" id="Fill-48"></path>
            </g>
        </g>
    </g>
</svg>