<?xml version="1.0" encoding="UTF-8"?>
<svg width="120px" height="45px" viewBox="0 0 120 45" version="1.1" xmlns="http://www.w3.org/2000/svg" xmlns:xlink="http://www.w3.org/1999/xlink">
    <!-- Generator: Sketch 47.1 (45422) - http://www.bohemiancoding.com/sketch -->
    <title>Artboard 2 Copy</title>
    <desc>Created with Sketch.</desc>
    <defs>
        <polygon id="path-1" points="78.9513101 18.6930754 78.9513101 0.449546055 0 0.449546055 0 18.6930754 0 36.9366048 78.9513101 36.9366048"></polygon>
        <polygon id="path-3" points="0 36.9374156 78.9513101 36.9374156 78.9513101 0.450311815 0 0.450311815"></polygon>
    </defs>
    <g id="Page-1" stroke="none" stroke-width="1" fill="none" fill-rule="evenodd">
        <g id="Artboard-2-Copy">
            <g id="Logo_Oxxo" transform="translate(21.000000, 3.000000)">
                <g id="Group-3" transform="translate(0.000000, 0.000766)">
                    <mask id="mask-2" fill="white">
                        <use xlink:href="#path-1"></use>
                    </mask>
                    <g id="Clip-2"></g>
                    <path d="M0,2.91479716 C0,1.55895185 1.10600477,0.44950101 2.45863691,0.44950101 L76.4926732,0.44950101 C77.8453054,0.44950101 78.9513101,1.55895185 78.9513101,2.91479716 L78.9513101,34.4717591 C78.9513101,35.8276044 77.8453054,36.9366048 76.4926732,36.9366048 L2.45863691,36.9366048 C1.10600477,36.9366048 0,35.8276044 0,34.4717591 L0,2.91479716 Z" id="Fill-1" fill="#EDA42D" mask="url(#mask-2)"></path>
                </g>
                <mask id="mask-4" fill="white">
                    <use xlink:href="#path-3"></use>
                </mask>
                <g id="Clip-5"></g>
                <polygon id="Fill-4" fill="#FEFEFE" mask="url(#mask-4)" points="0 33.3545606 78.9513101 33.3545606 78.9513101 4.0327164 0 4.0327164"></polygon>
                <path d="M66.9090655,11.6481077 C63.2968055,11.6481077 60.3521015,14.6012379 60.3521015,18.2228313 C60.3521015,21.8435239 63.2968055,24.7971045 66.9090655,24.7971045 C70.5204272,24.7971045 73.4651312,21.8435239 73.4651312,18.2228313 C73.4651312,14.6012379 70.5204272,11.6481077 66.9090655,11.6481077" id="Fill-6" fill="#EC1D24" mask="url(#mask-4)"></path>
                <path d="M12.865998,11.6481077 C9.25328869,11.6481077 6.3085847,14.6012379 6.3085847,18.2228313 C6.3085847,21.8435239 9.25328869,24.7971045 12.865998,24.7971045 C16.4769104,24.7971045 19.4220636,21.8435239 19.4220636,18.2228313 C19.4220636,14.6012379 16.4769104,11.6481077 12.865998,11.6481077" id="Fill-7" fill="#EC1D24" mask="url(#mask-4)"></path>
                <path d="M66.9090655,28.6100028 C61.2033927,28.6100028 56.549817,23.9442733 56.549817,18.2231466 C56.549817,12.5006686 61.2033927,7.83583999 66.9090655,7.83583999 C72.6151876,7.83583999 77.2678648,12.5006686 77.2678648,18.2231466 C77.2678648,23.9442733 72.6151876,28.6100028 66.9090655,28.6100028 L66.9090655,28.6100028 Z M23.2241235,18.2231466 C23.2241235,23.9442733 18.5714462,28.6100028 12.8657734,28.6100028 C7.15875286,28.6100028 2.50652485,23.9442733 2.50652485,18.2231466 C2.50652485,12.5006686 7.15875286,7.83583999 12.8657734,7.83583999 C18.5714462,7.83583999 23.2241235,12.5006686 23.2241235,18.2231466 L23.2241235,18.2231466 Z M66.394697,5.86198146 C60.3246984,5.72189246 57.4711882,9.62456483 53.3297349,14.4380409 L49.4227798,18.9780957 L55.6095782,26.4041641 C57.0835025,28.6861284 54.2704229,30.9505252 52.5251636,28.8627036 L46.8051154,22.0213153 L41.2315162,28.5000938 C39.4566077,30.5622399 36.6754235,28.2582038 38.1807939,25.997861 L44.2314755,18.9429609 L40.2674682,14.2011058 L42.8177481,11.0344638 L46.84914,15.8902819 L50.3239356,11.8371602 C52.0292135,9.8497883 53.7681836,7.21602499 56.0219715,5.86198146 L-0.000179692082,5.86198146 L-0.000179692082,31.5261964 L13.0980254,31.5261964 C19.1684732,31.5261964 21.9245005,27.886585 25.9536462,22.979416 L29.7554814,18.3488213 L23.3984248,11.0686977 C21.8737375,8.82141792 24.6333586,6.49305764 26.4266856,8.53988857 L32.3017182,15.2474941 L37.7261729,8.64123914 C39.4530139,6.53765188 42.2858595,8.77772456 40.833049,11.0723013 L34.9458872,18.2663895 L39.018159,22.9150021 L36.4521561,25.9618252 L32.3987519,21.3776266 L29.0182946,25.509126 C27.3592875,27.5356869 25.6796158,30.1203515 23.4572739,31.5261964 L78.9511304,31.5261964 L78.9511304,5.86198146 L66.394697,5.86198146 Z" id="Fill-8" fill="#EC1D24" mask="url(#mask-4)"></path>
            </g>
        </g>
    </g>
</svg>