<?xml version="1.0" encoding="UTF-8" standalone="no"?>
<svg width="26px" height="16px" viewBox="0 0 26 16" version="1.1" xmlns="http://www.w3.org/2000/svg" xmlns:xlink="http://www.w3.org/1999/xlink">
    <!-- Generator: Sketch 47.1 (45422) - http://www.bohemiancoding.com/sketch -->
    <title>Artboard</title>
    <desc>Created with Sketch.</desc>
    <defs></defs>
    <g id="Page-1" stroke="none" stroke-width="1" fill="none" fill-rule="evenodd">
        <g id="Artboard">
            <g id="Page-1" transform="translate(1.000000, 1.000000)">
                <path d="M1.90789474,0.381578947 L21.75,0.381578947 C22.5925263,0.381578947 23.2763158,1.06536842 23.2763158,1.90789474 L23.2763158,12.5921053 C23.2763158,13.4346316 22.5925263,14.1184211 21.75,14.1184211 L1.90789474,14.1184211 C1.06536842,14.1184211 0.381578947,13.4346316 0.381578947,12.5921053 L0.381578947,1.90789474 C0.381578947,1.06536842 1.06536842,0.381578947 1.90789474,0.381578947" id="Fill-1" fill="#FFFFFF"></path>
                <path d="M1.90789474,0.381578947 L21.75,0.381578947 C22.5925263,0.381578947 23.2763158,1.06536842 23.2763158,1.90789474 L23.2763158,12.5921053 C23.2763158,13.4346316 22.5925263,14.1184211 21.75,14.1184211 L1.90789474,14.1184211 C1.06536842,14.1184211 0.381578947,13.4346316 0.381578947,12.5921053 L0.381578947,1.90789474 C0.381578947,1.06536842 1.06536842,0.381578947 1.90789474,0.381578947 Z" id="Stroke-3" stroke="#DEDEDE" stroke-width="0.5"></path>
                <polygon id="Fill-5" fill="#26337A" points="9.37959211 9.43591316 10.4962796 5.06836053 12.2795921 5.06836053 11.1641144 9.43591316"></polygon>
                <path d="M14.5864658,5.17588947 C14.3643868,5.08812632 14.0140974,4.99273158 13.5783342,4.99273158 C12.46565,4.99273158 11.68265,5.58570526 11.6765447,6.43357368 C11.6689132,7.06165263 12.2351763,7.41194211 12.6617816,7.62028421 C13.1005974,7.83396842 13.2471237,7.97133684 13.2455974,8.16212632 C13.2425447,8.45441579 12.8960711,8.58873158 12.5724921,8.58873158 C12.1222289,8.58873158 11.8825974,8.5231 11.5124658,8.35978421 L11.3674658,8.29033684 L11.2102553,9.26717895 C11.4727816,9.38928421 11.9589132,9.4946 12.4641237,9.50070526 C13.6462553,9.50070526 14.4139921,8.9146 14.42315,8.00873158 C14.4277289,7.51115263 14.1270447,7.13338947 13.4783605,6.82202105 C13.0845711,6.61978421 12.8441763,6.48546842 12.8464658,6.28094211 C12.8472289,6.09931053 13.0502289,5.90470526 13.4905711,5.90470526 C13.8591763,5.8986 14.1255184,5.98407368 14.3330974,6.0726 L14.4345974,6.12296842 L14.5864658,5.17588947" id="Fill-7" fill="#26337A"></path>
                <path d="M17.4728816,5.07309211 L16.6036447,5.07309211 C16.33425,5.07309211 16.1320132,5.15093421 16.0137237,5.43559211 L14.3424079,9.43759211 L15.5245395,9.43759211 C15.5245395,9.43759211 15.7176184,8.89880263 15.7611184,8.78051316 C15.8900921,8.78051316 17.0386447,8.78280263 17.2027237,8.78280263 C17.2355395,8.93543421 17.3393289,9.43759211 17.3393289,9.43759211 L18.3833289,9.43759211 L17.4728816,5.07309211 Z M16.0854605,7.88761842 C16.1785658,7.63653947 16.5334342,6.66656579 16.5334342,6.66656579 C16.5265658,6.67877632 16.6265395,6.41396053 16.6830132,6.24988158 L16.7585658,6.62688158 C16.7585658,6.62688158 16.9753026,7.66935526 17.0188026,7.88761842 L16.0854605,7.88761842 Z" id="Fill-9" fill="#26337A"></path>
                <path d="M8.43571842,5.07232895 L7.33448158,8.04940789 L7.21619211,7.44422368 C7.01090263,6.74746053 6.37213947,5.99117105 5.65782368,5.61264474 L6.66519211,9.43225 L7.85648158,9.43148684 L9.62777105,5.07232895 L8.43571842,5.07232895" id="Fill-11" fill="#26337A"></path>
                <path d="M6.42340924,5.06935263 L4.49817194,5.06935263 L4.48278947,5.18024595 C5.98055608,5.62195546 6.97151086,6.6880223 7.38278947,7.96935263 L6.96422443,5.51944903 C6.89216971,5.18117782 6.68248238,5.08146703 6.42340924,5.06935263" id="Fill-13" fill="#26337A"></path>
            </g>
        </g>
    </g>
</svg>