<?xml version="1.0" encoding="utf-8"?>
<!-- Generator: Adobe Illustrator 16.0.0, SVG Export Plug-In . SVG Version: 6.00 Build 0)  -->
<!DOCTYPE svg PUBLIC "-//W3C//DTD SVG 1.1//EN" "http://www.w3.org/Graphics/SVG/1.1/DTD/svg11.dtd">
<svg version="1.1" id="Layer_1" xmlns="http://www.w3.org/2000/svg" xmlns:xlink="http://www.w3.org/1999/xlink" x="0px" y="0px"
	 width="65.87px" height="92.209px" viewBox="10.655 5.434 65.87 92.209" enable-background="new 10.655 5.434 65.87 92.209"
	 xml:space="preserve">
<g>
	<path fill="#4A68AC" d="M74.401,92.848H71.34V26.267c0-2.492-2.02-4.512-4.512-4.512H20.35c-2.492,0-4.513,2.02-4.513,4.512v66.581
		h-3.06c-1.172,0-2.123,0.949-2.123,2.122v0.55c0,1.173,0.951,2.123,2.123,2.123h3.06h55.503h3.062c1.172,0,2.123-0.95,2.123-2.123
		v-0.55C76.524,93.797,75.573,92.848,74.401,92.848z M54.849,26.267h9.66c0.577,0,1.045,0.467,1.045,1.044v9.661
		c0,0.577-0.468,1.044-1.045,1.044h-9.66c-0.577,0-1.045-0.467-1.045-1.044v-9.661C53.804,26.733,54.271,26.267,54.849,26.267z
		 M54.849,42.248h9.66c0.577,0,1.045,0.468,1.045,1.044v9.662c0,0.576-0.468,1.045-1.045,1.045h-9.66
		c-0.577,0-1.045-0.469-1.045-1.045v-9.662C53.804,42.716,54.271,42.248,54.849,42.248z M54.849,58.23h9.66
		c0.577,0,1.045,0.467,1.045,1.044v9.661c0,0.575-0.468,1.044-1.045,1.044h-9.66c-0.577,0-1.045-0.469-1.045-1.044v-9.661
		C53.804,58.697,54.271,58.23,54.849,58.23z M38.759,26.267h9.662c0.576,0,1.043,0.467,1.043,1.044v9.661
		c0,0.577-0.467,1.044-1.043,1.044h-9.662c-0.576,0-1.044-0.467-1.044-1.044v-9.661C37.715,26.733,38.182,26.267,38.759,26.267z
		 M38.759,42.248h9.662c0.576,0,1.043,0.468,1.043,1.044v9.662c0,0.576-0.467,1.045-1.043,1.045h-9.662
		c-0.576,0-1.044-0.469-1.044-1.045v-9.662C37.715,42.716,38.182,42.248,38.759,42.248z M38.759,58.23h9.662
		c0.576,0,1.043,0.467,1.043,1.044v9.661c0,0.575-0.467,1.044-1.043,1.044h-9.662c-0.576,0-1.044-0.469-1.044-1.044v-9.661
		C37.715,58.697,38.182,58.23,38.759,58.23z M22.669,26.267h9.662c0.577,0,1.044,0.467,1.044,1.044v9.661
		c0,0.577-0.467,1.044-1.044,1.044h-9.662c-0.577,0-1.044-0.467-1.044-1.044v-9.661C21.625,26.733,22.093,26.267,22.669,26.267z
		 M22.669,42.248h9.662c0.577,0,1.044,0.468,1.044,1.044v9.662c0,0.576-0.467,1.045-1.044,1.045h-9.662
		c-0.577,0-1.044-0.469-1.044-1.045v-9.662C21.625,42.716,22.093,42.248,22.669,42.248z M22.669,58.23h9.662
		c0.577,0,1.044,0.467,1.044,1.044v9.661c0,0.575-0.467,1.044-1.044,1.044h-9.662c-0.577,0-1.044-0.469-1.044-1.044v-9.661
		C21.625,58.697,22.093,58.23,22.669,58.23z M27.557,86.877h-6.625c-0.622,0-1.125-0.504-1.125-1.125v-6.625
		c0-0.621,0.503-1.125,1.125-1.125h6.625c0.622,0,1.125,0.504,1.125,1.125v6.625C28.683,86.374,28.179,86.877,27.557,86.877z
		 M32.704,78.002h9.855v16.025h-9.855V78.002z M54.476,94.028H44.62V78.002h9.855L54.476,94.028L54.476,94.028z M66.247,86.877
		h-6.625c-0.621,0-1.125-0.504-1.125-1.125v-6.625c0-0.621,0.504-1.125,1.125-1.125h6.625c0.621,0,1.125,0.504,1.125,1.125v6.625
		C67.372,86.374,66.868,86.877,66.247,86.877z"/>
	<path fill="#4A68AC" d="M21.582,20.417V10.384c0-1.063,0.865-1.928,1.928-1.928h41.446c1.063,0,1.928,0.864,1.928,1.928v10.033
		h3.021V10.384c0-2.729-2.22-4.95-4.949-4.95H23.51c-2.729,0-4.949,2.221-4.949,4.95v10.033H21.582z"/>
	<g>
		<path fill="#7AA8D7" d="M25.123,19.481v-8.502h1.125v3.491h4.419v-3.491h1.125v8.502h-1.125v-4.007h-4.419v4.007H25.123z"/>
		<path fill="#7AA8D7" d="M33.322,15.341c0-1.411,0.379-2.516,1.137-3.314c0.757-0.798,1.735-1.197,2.935-1.197
			c0.785,0,1.492,0.188,2.123,0.563c0.63,0.375,1.109,0.898,1.44,1.568c0.33,0.671,0.496,1.432,0.496,2.282
			c0,0.862-0.174,1.634-0.521,2.313c-0.349,0.681-0.842,1.196-1.479,1.546s-1.326,0.524-2.063,0.524
			c-0.801,0-1.517-0.193-2.146-0.58c-0.63-0.386-1.108-0.914-1.433-1.583C33.484,16.795,33.322,16.087,33.322,15.341z
			 M34.482,15.358c0,1.024,0.274,1.831,0.826,2.421c0.551,0.59,1.241,0.884,2.072,0.884c0.848,0,1.543-0.297,2.092-0.893
			c0.547-0.596,0.819-1.44,0.819-2.534c0-0.691-0.117-1.296-0.351-1.813c-0.234-0.516-0.576-0.916-1.027-1.2
			c-0.45-0.284-0.956-0.426-1.516-0.426c-0.796,0-1.482,0.273-2.057,0.82C34.769,13.165,34.482,14.078,34.482,15.358z"/>
		<path fill="#7AA8D7" d="M45.065,19.481v-7.498h-2.801v-1.004h6.738v1.004H46.19v7.498H45.065z"/>
		<path fill="#7AA8D7" d="M50.18,19.481v-8.502h6.146v1.004h-5.021v2.604h4.702v0.997h-4.702v2.894h5.22v1.004L50.18,19.481
			L50.18,19.481z"/>
		<path fill="#7AA8D7" d="M58.031,19.481v-8.502h1.125v7.498h4.187v1.004H58.031z"/>
	</g>
</g>
</svg>
