<?xml version="1.0" encoding="utf-8"?>
<!-- Generator: Adobe Illustrator 16.0.0, SVG Export Plug-In . SVG Version: 6.00 Build 0)  -->
<!DOCTYPE svg PUBLIC "-//W3C//DTD SVG 1.1//EN" "http://www.w3.org/Graphics/SVG/1.1/DTD/svg11.dtd">
<svg version="1.1" id="Layer_1" xmlns="http://www.w3.org/2000/svg" xmlns:xlink="http://www.w3.org/1999/xlink" x="0px" y="0px"
	 width="143.146px" height="81.288px" viewBox="2.363 2.275 143.146 81.288" enable-background="new 2.363 2.275 143.146 81.288"
	 xml:space="preserve">
<g>
	<path fill="#4A68AE" d="M40.493,30.853l13.824,18.97c0.648-0.17,1.334-0.26,2.039-0.26c0.181,0,0.358,0.006,0.537,0.018
		l7.007-15.47L40.493,30.853L40.493,30.853z M46.063,17.772c1.415,0,2.563,1.095,2.563,2.446c0,1.35-1.146,2.445-2.563,2.445h-6.017
		l-1.36,3.005l27.315,3.803l1.841-4.064h-3.801c-1.415,0-2.562-1.096-2.562-2.445c0-1.351,1.146-2.446,2.562-2.446h11.712
		c1.416,0,2.563,1.095,2.563,2.446c0,1.35-1.146,2.445-2.563,2.445H73.4l-2.87,6.336l5.387,6.206
		c3.183-1.936,6.958-3.058,11.009-3.058c11.319,0,20.499,8.761,20.499,19.564c0,10.804-9.18,19.563-20.499,19.563
		c-9.861,0-18.099-6.65-20.058-15.508l-3.077,0.247c-0.862,3.15-3.866,5.479-7.438,5.479c-4.245,0-7.688-3.285-7.688-7.336
		c0-1.601,0.536-3.08,1.446-4.285l-14.575-20l-2.258,4.986c6.037,3.405,10.085,9.679,10.085,16.854
		c0,10.804-9.18,19.563-20.5,19.563s-20.5-8.76-20.5-19.563c0-10.803,9.18-19.564,20.5-19.564c1.99,0,3.914,0.271,5.732,0.776
		l7.343-16.211c0.337-0.976,1.299-1.683,2.434-1.683h7.691V17.772z M79.224,41.753l6.84,7.878c0.281-0.045,0.569-0.067,0.863-0.067
		c2.829,0,5.125,2.19,5.125,4.892s-2.296,4.892-5.125,4.892c-1.742,0-3.283-0.832-4.21-2.102L72.03,58.099
		c1.699,6.34,7.727,11.029,14.896,11.029c8.489,0,15.374-6.57,15.374-14.673s-6.885-14.673-15.374-14.673
		C84.121,39.781,81.49,40.499,79.224,41.753L79.224,41.753z M81.83,52.41l-6.547-7.539c-2.062,2.28-3.4,5.176-3.676,8.356
		L81.83,52.41L81.83,52.41z M71.98,41.067l-3.729-4.294l-6.677,14.74c0.751,0.664,1.364,1.471,1.791,2.373l3.081-0.248
		C66.655,48.783,68.719,44.383,71.98,41.067L71.98,41.067z M31.226,42.137l-5.917,13.062c-0.331,0.985-1.3,1.702-2.442,1.702
		c-1.415,0-2.563-1.096-2.563-2.446c0-0.425,0.114-0.827,0.314-1.174l5.923-13.078c-1.177-0.275-2.409-0.421-3.676-0.421
		c-8.49,0-15.375,6.57-15.375,14.673s6.885,14.673,15.375,14.673s15.375-6.57,15.375-14.673
		C38.241,49.293,35.449,44.752,31.226,42.137L31.226,42.137z"/>
	<path fill="#6CADDF" d="M117.944,64.778c-0.032,1.808-0.209,6.384-1.136,10.152c-1.304,5.301-4.441,9.602-10.285,8.442
		c-4.74-0.938-14.892-6.274-18.354-9.646c-4.268-4.154-2.506-9.179,1.12-13.26c3.292-3.703,8.361-7.146,8.361-7.146
		c2.788-2.059,3.479-5.271,3.915-8.059c0.638-4.094,1.662-11.256,6.724-12.796c0.893-0.271,1.388,0.191,1.057,0.822
		c-3.171,6.032-3.056,12.265,3.272,11.065l17.906-33.106c0.57-1.085,0.199-1.694-0.551-3.256c0.332-0.131,0.661-0.262,0.993-0.393
		l-0.059-0.142c-0.353,0.112-0.659,0.09-0.811-0.281c-0.177-0.431,0.127-0.672,0.553-0.846c0.425-0.175,0.811-0.216,0.987,0.215
		c0.15,0.371-0.053,0.601-0.383,0.769l0.062,0.146l1.635-0.646l-0.059-0.144c-0.354,0.111-0.658,0.09-0.812-0.28
		c-0.176-0.431,0.127-0.672,0.553-0.847c0.426-0.174,0.812-0.215,0.987,0.216c0.151,0.371-0.052,0.601-0.381,0.769l0.06,0.147
		l1.638-0.646l-0.062-0.145c-0.353,0.111-0.658,0.09-0.811-0.281c-0.176-0.431,0.127-0.672,0.553-0.847
		c0.425-0.174,0.811-0.215,0.987,0.216c0.15,0.371-0.053,0.601-0.381,0.769l0.062,0.149l1.635-0.647l-0.06-0.146
		c-0.354,0.112-0.659,0.09-0.813-0.28c-0.176-0.432,0.127-0.673,0.554-0.847c0.426-0.174,0.811-0.215,0.986,0.216
		c0.151,0.37-0.052,0.601-0.381,0.769l0.063,0.15l1.635-0.646l-0.062-0.147c-0.352,0.112-0.657,0.09-0.811-0.281
		c-0.176-0.431,0.127-0.672,0.553-0.847c0.426-0.175,0.812-0.215,0.987,0.216c0.151,0.37-0.052,0.601-0.381,0.769l0.063,0.152
		l1.637-0.646l-0.063-0.149c-0.353,0.112-0.658,0.09-0.811-0.28c-0.177-0.431,0.127-0.673,0.553-0.847
		c0.426-0.174,0.811-0.215,0.987,0.216c0.15,0.371-0.053,0.601-0.382,0.769l0.063,0.153l0.75-0.296l3.52,0.715
		c0,0-8.971,6.5-11.063,8.727c-0.207,0.22-0.324,0.367-0.453,0.621l-18.719,36.683c0.494,5.847,7.354,5.123,9.663-0.041
		c0.699-1.565,2.009-0.7,2.013,0.646c0.01,3.966-4.188,7.14-6.539,9.089C118.241,61.481,117.994,62.094,117.944,64.778z"/>
</g>
</svg>
