<?xml version="1.0" encoding="utf-8"?>
<!-- Generator: Adobe Illustrator 16.0.0, SVG Export Plug-In . SVG Version: 6.00 Build 0)  -->
<!DOCTYPE svg PUBLIC "-//W3C//DTD SVG 1.1//EN" "http://www.w3.org/Graphics/SVG/1.1/DTD/svg11.dtd">
<svg version="1.1" id="Layer_1" xmlns="http://www.w3.org/2000/svg" xmlns:xlink="http://www.w3.org/1999/xlink" x="0px" y="0px"
	 width="70.429px" height="95.68px" viewBox="44.69 -4.587 70.429 95.68" enable-background="new 44.69 -4.587 70.429 95.68"
	 xml:space="preserve">
<path fill="#6CADDF" d="M82.675,68.982c-0.038,2.128-0.246,7.514-1.337,11.949c-1.535,6.239-5.228,11.302-12.106,9.938
	c-5.58-1.104-17.528-7.386-21.604-11.354c-5.023-4.89-2.949-10.804,1.318-15.607c3.875-4.358,9.842-8.411,9.842-8.411
	c3.282-2.423,4.094-6.205,4.608-9.485c0.75-4.819,1.956-13.25,7.914-15.062c1.051-0.319,1.634,0.225,1.244,0.968
	c-3.732,7.1-3.597,14.437,3.852,13.025L97.481,5.974c0.672-1.277,0.234-1.994-0.648-3.832c0.392-0.155,0.778-0.309,1.17-0.463
	l-0.069-0.167c-0.415,0.131-0.776,0.105-0.954-0.331c-0.208-0.507,0.149-0.791,0.65-0.996c0.5-0.206,0.954-0.254,1.162,0.253
	c0.177,0.437-0.062,0.708-0.45,0.905l0.072,0.172l1.924-0.76l-0.068-0.17c-0.416,0.131-0.775,0.106-0.955-0.329
	c-0.207-0.507,0.149-0.792,0.65-0.997c0.501-0.205,0.955-0.253,1.162,0.254c0.178,0.437-0.062,0.708-0.448,0.905l0.069,0.173
	l1.928-0.76l-0.072-0.171c-0.415,0.131-0.774,0.106-0.954-0.33c-0.207-0.508,0.149-0.791,0.65-0.998
	c0.5-0.205,0.954-0.252,1.162,0.255c0.178,0.436-0.062,0.708-0.448,0.905l0.073,0.175l1.924-0.762l-0.07-0.172
	c-0.416,0.132-0.775,0.106-0.956-0.33c-0.207-0.509,0.149-0.792,0.651-0.997c0.501-0.206,0.954-0.254,1.161,0.254
	c0.178,0.436-0.061,0.708-0.448,0.905l0.073,0.176l1.925-0.76l-0.072-0.173c-0.414,0.132-0.774,0.106-0.954-0.33
	c-0.207-0.508,0.149-0.792,0.65-0.997c0.501-0.207,0.955-0.254,1.162,0.254c0.178,0.436-0.062,0.708-0.448,0.905l0.073,0.179
	l1.927-0.761l-0.075-0.175c-0.415,0.132-0.774,0.106-0.954-0.329c-0.208-0.507,0.149-0.792,0.651-0.997
	c0.501-0.205,0.954-0.253,1.162,0.254c0.177,0.437-0.063,0.707-0.45,0.905l0.075,0.181l0.883-0.349l4.143,0.841
	c0,0-10.559,7.651-13.022,10.272c-0.243,0.258-0.382,0.432-0.533,0.731L79.53,51.572c0.582,6.882,8.656,6.03,11.374-0.048
	c0.823-1.843,2.364-0.824,2.369,0.76c0.012,4.668-4.93,8.403-7.696,10.698C83.023,65.102,82.733,65.822,82.675,68.982z"/>
</svg>
