<?xml version="1.0" encoding="utf-8"?>
<!-- Generator: Adobe Illustrator 16.0.0, SVG Export Plug-In . SVG Version: 6.00 Build 0)  -->
<!DOCTYPE svg PUBLIC "-//W3C//DTD SVG 1.1//EN" "http://www.w3.org/Graphics/SVG/1.1/DTD/svg11.dtd">
<svg version="1.1" id="Layer_1" xmlns="http://www.w3.org/2000/svg" xmlns:xlink="http://www.w3.org/1999/xlink" x="0px" y="0px"
	 width="59.601px" height="67.742px" viewBox="9.57 4.106 59.601 67.742" enable-background="new 9.57 4.106 59.601 67.742"
	 xml:space="preserve">
<g>
	<circle fill="#4A68AC" cx="27.422" cy="10.643" r="6.537"/>
	<g>
		<path fill="#4A68AC" d="M31.781,66.648c-9.38,0-17.011-7.632-17.011-17.011c0-5.904,3.025-11.113,7.606-14.165l-1.115-5.392
			C14.306,33.838,9.57,41.194,9.57,49.637c0,12.247,9.963,22.211,22.21,22.211c8.13,0,15.25-4.395,19.121-10.929l-3.034-5.764
			C45.568,61.834,39.229,66.648,31.781,66.648z"/>
		<path fill="#4A68AC" d="M68.998,60.292c-0.467-1.4-1.771-2.286-3.17-2.286c-0.352,0-0.707,0.056-1.059,0.173l-3.026,1.009
			l-7.714-14.648c-0.229-0.433-0.547-0.8-0.922-1.088c-0.574-0.442-1.285-0.697-2.035-0.697H47.33H34.502l-1.68-8.121h10.125
			c1.642,0,2.972-1.331,2.972-2.972s-1.33-2.971-2.972-2.971H31.593l-0.258-1.251l-1.183-5.715c-0.327-1.58-1.717-2.666-3.27-2.666
			c-0.225,0-0.452,0.022-0.681,0.069c-1.808,0.374-2.97,2.144-2.596,3.951l1.138,5.499l1.063,5.137l2.702,13.062
			c0.321,1.553,1.688,2.666,3.273,2.666h17.004h0.27l3.797,7.209l4.299,8.165c0.592,1.123,1.744,1.785,2.957,1.785
			c0.353,0,0.709-0.057,1.058-0.172l5.72-1.906C68.637,63.938,69.582,62.043,68.998,60.292z"/>
	</g>
</g>
</svg>
