<?xml version="1.0" encoding="utf-8"?>
<!-- Generator: Adobe Illustrator 16.0.0, SVG Export Plug-In . SVG Version: 6.00 Build 0)  -->
<!DOCTYPE svg PUBLIC "-//W3C//DTD SVG 1.1//EN" "http://www.w3.org/Graphics/SVG/1.1/DTD/svg11.dtd">
<svg version="1.1" id="Layer_1" xmlns="http://www.w3.org/2000/svg" xmlns:xlink="http://www.w3.org/1999/xlink" x="0px" y="0px"
	 width="259.25px" height="65.681px" viewBox="0 0 259.25 65.681" enable-background="new 0 0 259.25 65.681" xml:space="preserve">
<path fill="#6CADDE" d="M150.985,47.715l-4.055-17.457c-0.097-0.33-0.398-0.556-0.741-0.556h-7.449
	c0.362-0.647,0.571-1.404,0.571-2.212c0-2.377-1.801-4.311-4.013-4.311c-2.213,0-4.013,1.934-4.013,4.311
	c0,0.808,0.208,1.565,0.57,2.212h-7.449c-0.343,0-0.645,0.227-0.74,0.556l-4.056,17.457c-0.144,0.494,0.227,0.988,0.741,0.988
	h29.892C150.759,48.703,151.129,48.209,150.985,47.715z M135.299,24.891c1.269,0,2.3,1.166,2.3,2.598
	c0,0.934-0.439,1.754-1.096,2.212h-2.408c-0.657-0.458-1.097-1.278-1.097-2.212C132.998,26.057,134.03,24.891,135.299,24.891z
	 M132.569,43.432l-2.738-3.841l-0.943,0.93v2.911h-1.584v-8.466h1.584v3.56l3.521-3.56h2.155l-3.611,3.534l3.644,4.932H132.569z
	 M143.293,43.432h-1.212l-0.205-0.608c-0.295,0.243-0.644,0.429-1.046,0.555c-0.401,0.126-0.863,0.188-1.385,0.188
	c-0.616,0-1.177-0.104-1.681-0.313c-0.505-0.21-0.937-0.506-1.296-0.889c-0.359-0.382-0.638-0.843-0.837-1.379
	c-0.199-0.537-0.298-1.134-0.298-1.792c0-0.667,0.099-1.27,0.298-1.809c0.199-0.539,0.478-0.996,0.837-1.373
	c0.359-0.376,0.789-0.666,1.289-0.869c0.501-0.203,1.052-0.304,1.655-0.304c0.483,0,0.934,0.065,1.354,0.195
	c0.418,0.13,0.791,0.316,1.119,0.558c0.327,0.242,0.598,0.534,0.811,0.875c0.215,0.342,0.357,0.725,0.43,1.148h-1.629
	c-0.098-0.436-0.326-0.771-0.686-1.007s-0.821-0.353-1.386-0.353c-0.368,0-0.704,0.064-1.007,0.192
	c-0.304,0.128-0.564,0.318-0.783,0.568c-0.218,0.25-0.387,0.557-0.506,0.92c-0.12,0.363-0.18,0.783-0.18,1.257
	c0,0.466,0.061,0.883,0.183,1.25s0.292,0.679,0.51,0.934c0.218,0.254,0.479,0.449,0.782,0.584s0.64,0.201,1.008,0.201
	c0.529,0,0.982-0.076,1.355-0.23c0.375-0.154,0.689-0.396,0.946-0.725v-0.885h-2.097v-1.462h3.655V43.432z"/>
<g>
	<g>
		<path fill="#6CADDE" d="M165.593,40.884c0.573,0.648,0.86,1.458,0.86,2.43c0,0.732-0.175,1.398-0.523,1.998
			c-0.348,0.6-0.873,1.077-1.575,1.431c-0.703,0.354-1.56,0.531-2.57,0.531c-0.843,0-1.655-0.13-2.436-0.388
			c-0.781-0.258-1.447-0.614-1.998-1.07l0.944-1.818c0.427,0.385,0.946,0.688,1.559,0.909s1.245,0.333,1.896,0.333
			c0.775,0,1.385-0.171,1.829-0.514c0.443-0.342,0.665-0.807,0.665-1.395s-0.21-1.047-0.632-1.377
			c-0.421-0.33-1.064-0.494-1.93-0.494h-1.079v-1.603l2.681-3.402h-5.36v-1.962h8.04v1.566l-2.865,3.636
			C164.188,39.84,165.02,40.236,165.593,40.884z"/>
		<path fill="#6CADDE" d="M170.278,46.51c-0.741-0.51-1.326-1.254-1.753-2.232s-0.641-2.139-0.641-3.483s0.214-2.505,0.641-3.483
			c0.427-0.978,1.012-1.722,1.753-2.232c0.742-0.51,1.585-0.765,2.528-0.765c0.944,0,1.789,0.255,2.537,0.765
			c0.747,0.51,1.334,1.254,1.761,2.232c0.428,0.979,0.641,2.139,0.641,3.483s-0.213,2.504-0.641,3.483
			c-0.427,0.979-1.014,1.723-1.761,2.232c-0.748,0.51-1.593,0.765-2.537,0.765C171.863,47.274,171.021,47.02,170.278,46.51z
			 M174.805,44.124c0.488-0.743,0.732-1.854,0.732-3.33c0-1.476-0.244-2.586-0.732-3.33c-0.489-0.744-1.155-1.116-1.998-1.116
			c-0.831,0-1.491,0.372-1.98,1.116c-0.488,0.744-0.733,1.854-0.733,3.33c0,1.475,0.245,2.586,0.733,3.33
			c0.489,0.745,1.149,1.116,1.98,1.116C173.649,45.24,174.315,44.869,174.805,44.124z"/>
		<path fill="#6CADDE" d="M188.195,42.973l-1.567,1.584v2.537h-2.107V33.738h2.107v8.064l4.365-4.32h2.528l-3.759,4.031l4.112,5.58
			h-2.562L188.195,42.973z"/>
		<path fill="#6CADDE" d="M203.803,37.482v8.154c0,3.383-1.618,5.076-4.854,5.076c-0.865,0-1.686-0.117-2.461-0.352
			s-1.416-0.573-1.921-1.018l0.943-1.691c0.394,0.348,0.891,0.627,1.492,0.837c0.601,0.21,1.21,0.315,1.828,0.315
			c0.989,0,1.714-0.24,2.175-0.721s0.69-1.211,0.69-2.195v-0.504c-0.359,0.42-0.798,0.737-1.314,0.953
			c-0.517,0.217-1.084,0.324-1.702,0.324c-0.854,0-1.627-0.195-2.317-0.585c-0.691-0.39-1.236-0.938-1.635-1.647
			c-0.399-0.707-0.599-1.518-0.599-2.43s0.199-1.719,0.599-2.421c0.398-0.702,0.943-1.245,1.635-1.629
			c0.69-0.384,1.463-0.576,2.317-0.576c0.651,0,1.244,0.114,1.778,0.342c0.533,0.228,0.98,0.576,1.34,1.044v-1.278H203.803z
			 M200.963,43.989c0.511-0.51,0.767-1.173,0.767-1.989c0-0.804-0.256-1.458-0.767-1.962c-0.512-0.504-1.166-0.756-1.964-0.756
			c-0.81,0-1.47,0.252-1.98,0.756c-0.512,0.504-0.767,1.158-0.767,1.962c0,0.816,0.255,1.479,0.767,1.989
			c0.511,0.511,1.171,0.765,1.98,0.765C199.797,44.754,200.451,44.5,200.963,43.989z"/>
	</g>
</g>
<g>
	<g>
		<path fill="#6CADDE" d="M209.675,46.254c-0.3-1.275-0.449-2.643-0.449-4.104c0-1.461,0.149-2.834,0.449-4.12
			c0.3-1.285,0.729-2.408,1.288-3.368h1.019c-0.589,1.078-1.021,2.235-1.296,3.472c-0.274,1.237-0.411,2.576-0.411,4.016
			s0.137,2.778,0.411,4.016c0.275,1.237,0.707,2.395,1.296,3.472h-1.019C210.403,48.656,209.975,47.527,209.675,46.254z"/>
		<path fill="#6CADDE" d="M219.555,40.245c0.534,0.277,0.952,0.669,1.251,1.177c0.3,0.506,0.45,1.096,0.45,1.768
			c0,0.683-0.155,1.285-0.465,1.808s-0.736,0.926-1.281,1.208c-0.544,0.283-1.156,0.424-1.835,0.424
			c-1.389,0-2.452-0.488-3.191-1.464s-1.108-2.354-1.108-4.136c0-1.248,0.199-2.304,0.599-3.168c0.399-0.864,0.959-1.518,1.679-1.96
			c0.719-0.443,1.558-0.664,2.517-0.664c1.039,0,1.868,0.203,2.487,0.608l-0.435,0.928c-0.499-0.352-1.179-0.528-2.037-0.528
			c-1.159,0-2.068,0.392-2.728,1.176c-0.659,0.784-0.988,1.922-0.988,3.416c0,0.266,0.015,0.571,0.045,0.912
			c0.26-0.608,0.674-1.08,1.243-1.416c0.569-0.336,1.224-0.504,1.963-0.504C218.409,39.829,219.021,39.968,219.555,40.245z
			 M219.48,44.989c0.474-0.442,0.711-1.032,0.711-1.769c0-0.735-0.237-1.322-0.711-1.76c-0.475-0.438-1.116-0.656-1.926-0.656
			c-0.529,0-0.996,0.107-1.4,0.32c-0.405,0.214-0.722,0.507-0.951,0.881c-0.23,0.373-0.345,0.789-0.345,1.248
			c0,0.426,0.106,0.82,0.321,1.184c0.215,0.362,0.532,0.656,0.952,0.88c0.419,0.224,0.919,0.336,1.498,0.336
			C218.389,45.653,219.006,45.432,219.48,44.989z"/>
		<path fill="#6CADDE" d="M228.68,40.245c0.534,0.277,0.952,0.669,1.251,1.177c0.3,0.506,0.45,1.096,0.45,1.768
			c0,0.683-0.155,1.285-0.465,1.808s-0.736,0.926-1.281,1.208c-0.544,0.283-1.156,0.424-1.835,0.424
			c-1.389,0-2.452-0.488-3.191-1.464s-1.108-2.354-1.108-4.136c0-1.248,0.199-2.304,0.599-3.168c0.399-0.864,0.959-1.518,1.679-1.96
			c0.719-0.443,1.558-0.664,2.517-0.664c1.039,0,1.868,0.203,2.487,0.608l-0.435,0.928c-0.499-0.352-1.179-0.528-2.037-0.528
			c-1.159,0-2.068,0.392-2.728,1.176c-0.659,0.784-0.988,1.922-0.988,3.416c0,0.266,0.015,0.571,0.045,0.912
			c0.26-0.608,0.674-1.08,1.243-1.416c0.569-0.336,1.224-0.504,1.963-0.504C227.534,39.829,228.146,39.968,228.68,40.245z
			 M228.605,44.989c0.474-0.442,0.711-1.032,0.711-1.769c0-0.735-0.237-1.322-0.711-1.76c-0.475-0.438-1.116-0.656-1.926-0.656
			c-0.529,0-0.996,0.107-1.4,0.32c-0.405,0.214-0.722,0.507-0.951,0.881c-0.23,0.373-0.345,0.789-0.345,1.248
			c0,0.426,0.106,0.82,0.321,1.184c0.215,0.362,0.532,0.656,0.952,0.88c0.419,0.224,0.919,0.336,1.498,0.336
			C227.514,45.653,228.131,45.432,228.605,44.989z"/>
		<path fill="#6CADDE" d="M236.253,34.661h1.063v11.872h-1.063V34.661z"/>
		<path fill="#6CADDE" d="M246.351,38.589c0.6,0.357,1.069,0.861,1.409,1.512c0.339,0.651,0.509,1.392,0.509,2.224
			s-0.17,1.573-0.509,2.224c-0.34,0.651-0.81,1.158-1.409,1.521c-0.599,0.362-1.269,0.544-2.007,0.544
			c-0.66,0-1.252-0.149-1.775-0.448c-0.524-0.298-0.947-0.73-1.267-1.296v1.664h-1.019V34.661h1.063v5.056
			c0.33-0.544,0.752-0.958,1.267-1.24c0.514-0.282,1.091-0.424,1.73-0.424C245.082,38.053,245.752,38.232,246.351,38.589z
			 M245.767,45.197c0.449-0.271,0.802-0.658,1.057-1.16c0.254-0.501,0.382-1.072,0.382-1.712s-0.128-1.21-0.382-1.712
			c-0.255-0.501-0.607-0.888-1.057-1.16s-0.949-0.408-1.498-0.408c-0.56,0-1.062,0.136-1.506,0.408s-0.794,0.659-1.049,1.16
			c-0.255,0.502-0.382,1.072-0.382,1.712s0.127,1.211,0.382,1.712c0.255,0.502,0.604,0.889,1.049,1.16s0.946,0.408,1.506,0.408
			C244.817,45.605,245.317,45.469,245.767,45.197z"/>
		<path fill="#6CADDE" d="M249.558,49.637c0.589-1.077,1.023-2.231,1.303-3.463c0.28-1.232,0.42-2.574,0.42-4.024
			c0-1.451-0.14-2.792-0.42-4.024c-0.279-1.232-0.714-2.386-1.303-3.464h1.019c0.56,0.96,0.991,2.083,1.296,3.368
			c0.305,1.286,0.457,2.659,0.457,4.12c0,1.462-0.149,2.832-0.449,4.112c-0.3,1.279-0.734,2.404-1.304,3.375H249.558z"/>
	</g>
</g>
<g>
	<line fill="#6CADDE" stroke="#6CADDE" stroke-miterlimit="10" x1="103.776" y1="10.548" x2="103.776" y2="48.049"/>
	<line fill="none" stroke="#6CADDE" stroke-miterlimit="10" x1="99.664" y1="10.75" x2="107.889" y2="10.75"/>
	<line fill="none" stroke="#6CADDE" stroke-miterlimit="10" x1="99.664" y1="47.75" x2="107.889" y2="47.75"/>
</g>
<g>
	<g>
		<path fill="#6CADDE" d="M16.592,40.486c0.573,0.648,0.86,1.458,0.86,2.43c0,0.732-0.175,1.398-0.523,1.998
			c-0.348,0.6-0.873,1.077-1.575,1.431c-0.703,0.354-1.56,0.531-2.57,0.531c-0.843,0-1.655-0.13-2.436-0.388
			c-0.781-0.258-1.447-0.614-1.998-1.07L9.294,43.6c0.427,0.385,0.946,0.688,1.559,0.909s1.245,0.333,1.896,0.333
			c0.775,0,1.385-0.171,1.829-0.514c0.443-0.342,0.665-0.807,0.665-1.395s-0.21-1.047-0.632-1.377
			c-0.421-0.33-1.064-0.494-1.93-0.494h-1.079V39.46l2.681-3.402h-5.36v-1.962h8.04v1.566l-2.865,3.636
			C15.188,39.442,16.019,39.838,16.592,40.486z"/>
		<path fill="#6CADDE" d="M19.222,46.398c-0.271-0.281-0.405-0.639-0.405-1.07c0-0.444,0.133-0.805,0.396-1.08
			c0.264-0.276,0.593-0.414,0.986-0.414c0.393,0,0.722,0.138,0.985,0.414c0.265,0.275,0.396,0.636,0.396,1.08
			c0,0.432-0.135,0.789-0.404,1.07c-0.27,0.282-0.596,0.424-0.978,0.424C19.817,46.822,19.492,46.681,19.222,46.398z"/>
		<path fill="#6CADDE" d="M30.379,40.009c0.798,0.69,1.197,1.629,1.197,2.817c0,0.756-0.175,1.439-0.522,2.052
			c-0.349,0.612-0.871,1.098-1.568,1.458c-0.696,0.359-1.556,0.54-2.578,0.54c-0.843,0-1.658-0.13-2.444-0.388
			c-0.787-0.258-1.449-0.614-1.989-1.07l0.928-1.818c0.438,0.385,0.963,0.688,1.575,0.909s1.245,0.333,1.896,0.333
			c0.775,0,1.385-0.171,1.829-0.514c0.443-0.342,0.666-0.813,0.666-1.412c0-0.648-0.239-1.137-0.717-1.467s-1.295-0.496-2.452-0.496
			h-2.849l0.606-6.858h6.928v1.962h-5.073l-0.253,2.916h1.129C28.351,38.974,29.582,39.319,30.379,40.009z"/>
		<path fill="#6CADDE" d="M47.539,38.029c0.663,0.702,0.994,1.755,0.994,3.159v5.508h-2.106v-5.22c0-0.839-0.175-1.473-0.522-1.899
			c-0.349-0.426-0.849-0.639-1.5-0.639c-0.708,0-1.275,0.249-1.703,0.747c-0.427,0.499-0.641,1.209-0.641,2.134v4.877h-2.106v-5.22
			c0-0.839-0.175-1.473-0.522-1.899c-0.349-0.426-0.849-0.639-1.5-0.639c-0.72,0-1.29,0.246-1.711,0.738
			c-0.421,0.492-0.632,1.206-0.632,2.143v4.877h-2.107v-9.611h2.006v1.224c0.337-0.432,0.759-0.762,1.265-0.99
			c0.505-0.228,1.067-0.342,1.686-0.342c0.674,0,1.272,0.135,1.795,0.405s0.936,0.669,1.238,1.197
			c0.371-0.504,0.849-0.897,1.433-1.179c0.585-0.282,1.23-0.423,1.938-0.423C45.976,36.976,46.875,37.327,47.539,38.029z"/>
	</g>
</g>
<g>
	<g>
		<path fill="#6CADDE" d="M55.341,45.854c-0.3-1.274-0.449-2.643-0.449-4.104c0-1.461,0.149-2.834,0.449-4.12
			c0.3-1.285,0.729-2.408,1.288-3.368h1.019c-0.589,1.078-1.021,2.235-1.296,3.472c-0.274,1.237-0.411,2.576-0.411,4.016
			c0,1.44,0.137,2.779,0.411,4.016c0.275,1.238,0.707,2.395,1.296,3.473h-1.019C56.07,48.257,55.641,47.129,55.341,45.854z"/>
		<path fill="#6CADDE" d="M62.098,34.934v11.201H61.02V35.958h-2.473v-1.024H62.098z"/>
		<path fill="#6CADDE" d="M70.675,40.686c0.574,0.571,0.861,1.315,0.861,2.232c0,0.641-0.145,1.209-0.435,1.704
			c-0.29,0.496-0.719,0.888-1.288,1.177c-0.569,0.287-1.264,0.432-2.083,0.432c-0.759,0-1.476-0.131-2.149-0.393
			c-0.675-0.261-1.217-0.61-1.626-1.048l0.524-0.911c0.35,0.383,0.814,0.695,1.394,0.936s1.198,0.359,1.857,0.359
			c0.859,0,1.523-0.199,1.993-0.6c0.469-0.4,0.704-0.952,0.704-1.656c0-0.693-0.235-1.236-0.704-1.632
			c-0.47-0.395-1.179-0.592-2.128-0.592h-0.749v-0.848l2.906-3.888H64.39v-1.024h6.742v0.816l-2.967,3.984
			C69.264,39.798,70.101,40.116,70.675,40.686z"/>
		<path fill="#6CADDE" d="M80.579,41.318c0.354,0.469,0.532,1.035,0.532,1.695c0,0.651-0.165,1.219-0.495,1.705
			c-0.329,0.484-0.801,0.858-1.415,1.119c-0.614,0.262-1.336,0.393-2.165,0.393c-1.259,0-2.248-0.288-2.967-0.864
			s-1.079-1.36-1.079-2.353c0-0.672,0.173-1.239,0.518-1.703c0.345-0.464,0.847-0.813,1.506-1.048
			c-0.54-0.224-0.949-0.546-1.229-0.968c-0.28-0.421-0.42-0.92-0.42-1.496c0-0.907,0.332-1.626,0.996-2.16
			c0.664-0.533,1.556-0.8,2.675-0.8c0.739,0,1.386,0.12,1.94,0.36c0.554,0.24,0.985,0.584,1.296,1.032
			c0.31,0.448,0.464,0.971,0.464,1.568c0,0.576-0.145,1.075-0.435,1.496c-0.289,0.421-0.704,0.744-1.243,0.968
			C79.717,40.497,80.224,40.849,80.579,41.318z M79.215,44.646c0.524-0.405,0.786-0.955,0.786-1.648s-0.262-1.24-0.786-1.64
			c-0.524-0.4-1.251-0.6-2.18-0.6c-0.919,0-1.641,0.2-2.165,0.6c-0.524,0.399-0.787,0.946-0.787,1.64
			c0,0.704,0.26,1.256,0.779,1.656s1.244,0.6,2.173,0.6S78.691,45.052,79.215,44.646z M75.132,39.302
			c0.46,0.363,1.094,0.544,1.903,0.544c0.809,0,1.445-0.181,1.91-0.544c0.464-0.362,0.696-0.848,0.696-1.456
			c0-0.629-0.237-1.125-0.711-1.488c-0.475-0.363-1.106-0.544-1.896-0.544c-0.8,0-1.431,0.181-1.896,0.544s-0.696,0.854-0.696,1.472
			C74.444,38.449,74.673,38.94,75.132,39.302z"/>
		<path fill="#6CADDE" d="M84.002,34.43c0.149,0.166,0.225,0.371,0.225,0.616c0,0.128-0.018,0.264-0.053,0.408
			s-0.082,0.312-0.143,0.504l-0.644,2.208h-0.72l0.524-2.304c-0.17-0.053-0.305-0.152-0.404-0.296s-0.15-0.317-0.15-0.52
			c0-0.256,0.075-0.464,0.226-0.624c0.149-0.16,0.339-0.24,0.569-0.24C83.663,34.182,83.852,34.265,84.002,34.43z M86.549,34.43
			c0.149,0.166,0.225,0.371,0.225,0.616c0,0.128-0.018,0.264-0.053,0.408s-0.082,0.312-0.143,0.504l-0.644,2.208h-0.72l0.524-2.304
			c-0.17-0.053-0.305-0.152-0.404-0.296s-0.149-0.317-0.149-0.52c0-0.256,0.074-0.464,0.225-0.624c0.149-0.16,0.339-0.24,0.569-0.24
			C86.209,34.182,86.399,34.265,86.549,34.43z"/>
		<path fill="#6CADDE" d="M88.152,49.238c0.589-1.078,1.023-2.232,1.303-3.464c0.28-1.231,0.42-2.573,0.42-4.024
			c0-1.45-0.14-2.792-0.42-4.024c-0.279-1.232-0.714-2.386-1.303-3.464h1.019c0.56,0.96,0.991,2.083,1.296,3.368
			c0.305,1.286,0.457,2.659,0.457,4.12c0,1.462-0.149,2.832-0.449,4.112s-0.734,2.405-1.304,3.376H88.152z"/>
	</g>
</g>
</svg>
