<?xml version="1.0" encoding="utf-8"?>
<!-- Generator: Adobe Illustrator 16.0.0, SVG Export Plug-In . SVG Version: 6.00 Build 0)  -->
<!DOCTYPE svg PUBLIC "-//W3C//DTD SVG 1.1//EN" "http://www.w3.org/Graphics/SVG/1.1/DTD/svg11.dtd">
<svg version="1.1" id="Layer_1" xmlns="http://www.w3.org/2000/svg" xmlns:xlink="http://www.w3.org/1999/xlink" x="0px" y="0px"
	 width="127.717px" height="77.027px" viewBox="0 0 127.717 77.027" enable-background="new 0 0 127.717 77.027"
	 xml:space="preserve">
<g>
	<g>
		<g>
			<g>
				<g>
					<defs>
						<path id="SVGID_1_" d="M23.33,7.883l63.786-0.316l9.483,0.316l6.884,7.992l9.545,8.247c0,0,6.959-1.104,3.536,11.047
							c-3.424,12.149-2.542,9.665-2.542,9.665l-0.884,2.485l-2.431,2.211c0,0,9.611,3.203-26.18,1.327
							c-35.79-1.879-35.018-1.879-35.018-1.879L37.801,49.53l-7.953,0.11l-7.447-2.321l-2.052-6.959v-9.499v-6.187l2.052-8.8
							L23.33,7.883z"/>
					</defs>
					<clipPath id="SVGID_2_">
						<use xlink:href="#SVGID_1_"  overflow="visible"/>
					</clipPath>
					<g clip-path="url(#SVGID_2_)">
						<path fill="none" d="M89.088,12.087c-0.705-1.392-2.131-2.27-3.685-2.27h-5.23c-1.153,0-2.088,0.937-2.088,2.097v6.261
							c0,1.502,1.21,2.719,2.703,2.719h9.271c1.596,0,2.629-1.695,1.904-3.125L89.088,12.087z"/>
						<line fill="none" x1="54.463" y1="12.131" x2="54.575" y2="12.131"/>
						<path fill="none" d="M89.088,12.087c-0.705-1.392-2.131-2.27-3.685-2.27h-5.23c-1.153,0-2.088,0.937-2.088,2.097v6.261
							c0,1.502,1.21,2.719,2.703,2.719h9.271c1.596,0,2.629-1.695,1.904-3.125L89.088,12.087z"/>
						<g>
							<path fill="#4A68AC" d="M43.629,33.862l0.005-0.004c0,0-0.047-0.041-0.117-0.104c-0.059-0.052-0.137-0.113-0.219-0.179l0,0
								c0,0-0.008-0.006-0.019-0.013c-0.009-0.008-0.018-0.015-0.026-0.021c-0.023-0.02-0.048-0.037-0.071-0.057
								c-0.018-0.011-0.033-0.023-0.051-0.035c-0.007-0.006-0.015-0.012-0.021-0.018c-0.03-0.021-0.06-0.042-0.085-0.061
								c-0.016-0.012-0.03-0.021-0.043-0.031c-0.038-0.026-0.068-0.05-0.091-0.063c-0.014-0.008-0.022-0.014-0.028-0.019
								c-0.012-0.008-0.024-0.018-0.037-0.024c-0.026-0.016-0.051-0.031-0.076-0.046c-0.049-0.031-0.095-0.059-0.134-0.083
								c-0.04-0.025-0.072-0.045-0.095-0.059c-0.023-0.012-0.037-0.02-0.037-0.02l-0.014,0.02c-0.1-0.054-0.202-0.107-0.305-0.159
								l0.012-0.026c0,0-0.013-0.008-0.036-0.021c-0.024-0.012-0.059-0.03-0.102-0.051c-0.042-0.017-0.091-0.041-0.143-0.063
								c-0.027-0.013-0.055-0.025-0.082-0.037c-0.015-0.006-0.028-0.015-0.042-0.021l-0.042-0.018
								c-0.004-0.002-0.009-0.002-0.014-0.004c-0.021-0.011-0.046-0.021-0.077-0.033c-0.019-0.005-0.04-0.013-0.061-0.021
								c-0.006-0.004-0.012-0.006-0.018-0.008c-0.055-0.021-0.104-0.043-0.148-0.057h-0.001l-0.001,0.001
								c-0.014-0.003-0.028-0.009-0.042-0.016l-0.044-0.014c-0.06-0.02-0.117-0.039-0.172-0.057
								c-0.056-0.018-0.105-0.035-0.15-0.046c-0.09-0.023-0.149-0.039-0.149-0.039l-0.011,0.041
								c-0.107-0.027-0.219-0.053-0.33-0.076l0.009-0.045c0,0-0.015-0.004-0.042-0.008c-0.025-0.006-0.062-0.012-0.108-0.021
								c-0.044-0.008-0.099-0.018-0.155-0.027c-0.014-0.002-0.029-0.004-0.043-0.008c-0.015-0.002-0.03-0.004-0.045-0.006
								c-0.011,0-0.022-0.002-0.033-0.004v-0.002c0,0-0.015-0.002-0.042-0.006c-0.027-0.002-0.063-0.008-0.111-0.012l-0.022-0.005
								c-0.021-0.001-0.041-0.003-0.061-0.005c-0.014-0.002-0.024-0.004-0.04-0.004c-0.011-0.002-0.021-0.004-0.033-0.004
								c-0.016-0.002-0.029-0.004-0.043-0.006c-0.016,0-0.03-0.002-0.046-0.002c-0.029-0.002-0.062-0.004-0.092-0.006
								c-0.008-0.002-0.017-0.002-0.023-0.002c-0.021-0.002-0.033-0.002-0.033-0.002l0,0c-0.042-0.004-0.083-0.006-0.124-0.009
								c-0.057-0.004-0.111-0.002-0.158-0.004c-0.093,0-0.153,0-0.153,0v0.049c-0.118,0.002-0.236,0.004-0.355,0.012l-0.003-0.05
								c0,0-0.062,0.006-0.153,0.012c-0.046,0.004-0.101,0.008-0.157,0.014c-0.039,0.004-0.082,0.009-0.123,0.016l0,0
								c0,0-0.016,0.002-0.042,0.006c-0.005,0-0.01,0-0.01,0c-0.066,0.01-0.127,0.016-0.184,0.024
								c-0.014,0.002-0.025,0.007-0.038,0.009s-0.022,0.002-0.035,0.004c-0.022,0.006-0.046,0.01-0.069,0.014
								c-0.004,0.002-0.009,0.002-0.015,0.004c-0.046,0.008-0.083,0.014-0.109,0.02c-0.026,0.004-0.042,0.008-0.042,0.008v0.002
								c-0.042,0.008-0.083,0.016-0.12,0.024c-0.057,0.015-0.107,0.027-0.152,0.037c-0.044,0.012-0.083,0.021-0.108,0.027
								c-0.026,0.006-0.041,0.01-0.041,0.01l0.012,0.045c-0.11,0.029-0.221,0.063-0.33,0.098l-0.013-0.039
								c0,0-0.059,0.02-0.145,0.05c-0.044,0.014-0.094,0.033-0.146,0.055c-0.054,0.021-0.11,0.044-0.168,0.066
								c-0.03,0.012-0.06,0.024-0.087,0.037l-0.002,0.002l-0.009,0.004c-0.041,0.015-0.086,0.037-0.135,0.06
								c-0.007,0.004-0.015,0.008-0.021,0.013c-0.021,0.008-0.039,0.016-0.056,0.024c-0.031,0.015-0.057,0.025-0.078,0.037
								c-0.004,0.002-0.007,0.002-0.01,0.004c-0.056,0.025-0.108,0.057-0.161,0.083c-0.052,0.027-0.099,0.052-0.14,0.074
								c-0.042,0.021-0.074,0.043-0.096,0.056c-0.023,0.015-0.037,0.021-0.037,0.021l0.013,0.022
								c-0.099,0.057-0.195,0.115-0.291,0.178l-0.012-0.021c0,0-0.013,0.01-0.035,0.023c-0.011,0.008-0.025,0.018-0.041,0.026
								c-0.016,0.012-0.033,0.023-0.052,0.037c-0.038,0.027-0.082,0.059-0.128,0.091c-0.023,0.019-0.047,0.035-0.072,0.053
								c-0.013,0.01-0.025,0.02-0.038,0.028c-0.006,0.005-0.014,0.011-0.024,0.019c-0.011,0.008-0.023,0.018-0.039,0.029
								c-0.016,0.011-0.031,0.024-0.05,0.039c-0.014,0.012-0.029,0.024-0.046,0.038c-0.022,0.02-0.049,0.039-0.077,0.063
								c-0.01,0.008-0.019,0.016-0.027,0.023c-0.015,0.012-0.027,0.02-0.041,0.032c-0.023,0.021-0.045,0.041-0.068,0.062
								c-0.01,0.01-0.021,0.019-0.031,0.028c-0.007,0.007-0.013,0.011-0.013,0.011l0,0c-0.078,0.069-0.152,0.136-0.207,0.191
								c-0.004,0.004-0.008,0.009-0.012,0.013c-1.345,1.263-2.185,3.06-2.185,5.058c0,3.824,3.082,6.924,6.884,6.924
								c3.802,0,6.884-3.1,6.884-6.924C46.028,37.012,45.098,35.132,43.629,33.862z M39.145,43.323
								c-2.313,0-4.188-1.885-4.188-4.211c0-2.327,1.874-4.213,4.188-4.213c2.313,0,4.187,1.886,4.187,4.213
								C43.332,41.438,41.457,43.323,39.145,43.323z"/>
							<path fill="#4A68AC" d="M101.011,33.862l0.004-0.004c0,0-0.047-0.041-0.114-0.104c-0.061-0.052-0.138-0.113-0.22-0.179l0,0
								c0,0-0.008-0.006-0.02-0.013c-0.01-0.008-0.018-0.015-0.026-0.021c-0.021-0.02-0.047-0.037-0.07-0.057
								c-0.018-0.011-0.033-0.023-0.051-0.035c-0.008-0.006-0.016-0.012-0.021-0.018c-0.03-0.021-0.06-0.042-0.085-0.061
								c-0.017-0.012-0.029-0.021-0.043-0.031c-0.039-0.026-0.069-0.05-0.092-0.063c-0.015-0.008-0.021-0.014-0.028-0.019
								c-0.012-0.008-0.023-0.018-0.035-0.024c-0.026-0.016-0.053-0.031-0.076-0.046c-0.049-0.031-0.095-0.059-0.134-0.083
								c-0.04-0.025-0.072-0.045-0.097-0.059c-0.022-0.012-0.037-0.02-0.037-0.02l-0.014,0.02c-0.102-0.054-0.2-0.107-0.307-0.159
								l0.014-0.026c0,0-0.014-0.008-0.037-0.021c-0.023-0.012-0.059-0.03-0.101-0.051c-0.041-0.017-0.092-0.041-0.145-0.063
								c-0.025-0.013-0.054-0.025-0.079-0.037c-0.017-0.006-0.029-0.015-0.043-0.021l-0.043-0.018
								c-0.006-0.002-0.01-0.002-0.014-0.004c-0.021-0.011-0.046-0.021-0.077-0.033c-0.02-0.005-0.039-0.013-0.061-0.021
								c-0.006-0.004-0.014-0.006-0.02-0.008c-0.055-0.021-0.103-0.043-0.147-0.057l0,0l-0.004-0.002
								c-0.016-0.003-0.027-0.009-0.043-0.016l-0.042-0.014c-0.062-0.02-0.119-0.039-0.173-0.057
								c-0.057-0.018-0.107-0.035-0.152-0.046c-0.089-0.023-0.147-0.039-0.147-0.039l-0.012,0.041
								c-0.108-0.027-0.219-0.053-0.329-0.076l0.009-0.045c0,0-0.016-0.004-0.041-0.008c-0.024-0.006-0.062-0.012-0.108-0.021
								c-0.045-0.008-0.099-0.018-0.155-0.027c-0.014-0.002-0.027-0.004-0.043-0.008c-0.016-0.002-0.029-0.004-0.045-0.006
								c-0.011,0-0.022-0.002-0.033-0.004l0.001-0.002c0,0-0.016-0.002-0.043-0.006c-0.027-0.002-0.064-0.008-0.11-0.013
								L97.3,32.177c-0.021-0.002-0.041-0.004-0.062-0.006c-0.014-0.002-0.025-0.004-0.039-0.004c0,0-0.021-0.004-0.033-0.004
								c-0.015-0.002-0.028-0.004-0.042-0.006c-0.018,0-0.031-0.002-0.047-0.002c-0.029-0.002-0.062-0.004-0.093-0.006
								c-0.008-0.002-0.016-0.002-0.016-0.002c-0.027-0.002-0.041-0.002-0.041-0.002l0,0c-0.041-0.005-0.084-0.007-0.122-0.009
								c-0.061-0.004-0.113-0.002-0.159-0.004c-0.092,0-0.153,0-0.153,0v0.048c-0.119,0.003-0.235,0.005-0.354,0.013l-0.002-0.05
								c0,0-0.062,0.006-0.153,0.012c-0.046,0.004-0.099,0.008-0.157,0.014c-0.039,0.004-0.081,0.01-0.122,0.016l0,0
								c0,0-0.016,0.002-0.043,0.006c-0.004,0-0.01,0-0.01,0c-0.065,0.01-0.126,0.016-0.185,0.024
								c-0.014,0.002-0.024,0.006-0.037,0.008c-0.013,0.003-0.022,0.003-0.034,0.005c-0.021,0.006-0.045,0.01-0.068,0.014
								c-0.005,0.002-0.01,0.002-0.016,0.004c-0.045,0.008-0.081,0.014-0.108,0.02c-0.025,0.004-0.041,0.008-0.041,0.008v0.002
								c-0.042,0.008-0.083,0.016-0.12,0.024c-0.057,0.015-0.107,0.027-0.151,0.037c-0.045,0.013-0.084,0.021-0.109,0.027
								c-0.026,0.006-0.041,0.01-0.041,0.01l0.012,0.045c-0.108,0.029-0.221,0.063-0.33,0.098l-0.013-0.039
								c0,0-0.059,0.02-0.146,0.05c-0.043,0.014-0.093,0.033-0.146,0.055s-0.11,0.044-0.167,0.066
								c-0.03,0.012-0.061,0.024-0.087,0.037l-0.002,0.002l-0.012,0.004c-0.041,0.015-0.086,0.037-0.135,0.06
								c-0.007,0.004-0.016,0.008-0.021,0.013c-0.02,0.008-0.038,0.016-0.056,0.024c-0.031,0.014-0.057,0.025-0.078,0.037
								c-0.003,0.002-0.007,0.002-0.009,0.004c-0.057,0.025-0.107,0.056-0.161,0.083c-0.05,0.027-0.099,0.052-0.14,0.074
								c-0.041,0.021-0.073,0.043-0.096,0.057c-0.024,0.014-0.037,0.021-0.037,0.021l0.014,0.022
								c-0.1,0.057-0.195,0.115-0.291,0.178l-0.012-0.021c0,0-0.014,0.01-0.035,0.023c-0.012,0.008-0.024,0.018-0.041,0.026
								c-0.016,0.012-0.032,0.023-0.053,0.037c-0.037,0.027-0.081,0.06-0.128,0.091c-0.022,0.019-0.05,0.035-0.072,0.054
								c-0.014,0.009-0.023,0.019-0.036,0.028c-0.006,0.004-0.014,0.011-0.024,0.019c-0.01,0.008-0.022,0.018-0.038,0.028
								c-0.016,0.013-0.031,0.025-0.05,0.039c-0.014,0.013-0.028,0.025-0.046,0.039c-0.022,0.021-0.049,0.039-0.076,0.063
								c-0.01,0.008-0.021,0.016-0.028,0.022c-0.015,0.013-0.025,0.021-0.039,0.033c-0.023,0.021-0.046,0.041-0.068,0.062
								c-0.011,0.01-0.021,0.019-0.031,0.028c-0.007,0.007-0.012,0.011-0.012,0.011l0,0c-0.077,0.069-0.151,0.136-0.206,0.191
								c-0.005,0.004-0.009,0.008-0.013,0.013c-1.345,1.263-2.184,3.06-2.184,5.058c0,3.824,3.082,6.924,6.884,6.924
								s6.884-3.1,6.884-6.924C103.409,37.012,102.479,35.132,101.011,33.862z M96.525,43.323c-2.313,0-4.188-1.885-4.188-4.211
								c0-2.327,1.875-4.213,4.188-4.213c2.312,0,4.188,1.886,4.188,4.213C100.713,41.438,98.838,43.323,96.525,43.323z"/>
						</g>
						<path fill="none" d="M89.088,12.087c-0.705-1.392-2.131-2.27-3.685-2.27h-5.23c-1.153,0-2.088,0.937-2.088,2.097v6.261
							c0,1.502,1.21,2.719,2.703,2.719h5.986c-0.067-0.208-0.108-0.425-0.108-0.651c0-1.479,1.595-2.679,3.558-2.679
							c0.664,0,1.282,0.14,1.814,0.379c-0.023-0.059-0.047-0.115-0.074-0.173L89.088,12.087z"/>
						<path fill="#4A68AC" d="M107.595,36h-0.206v-2.064c0.528,0,0.958-0.432,0.958-0.963v-4.367c0-0.477-0.109-0.948-0.32-1.375
							l-0.318-0.642c-0.294-0.59-0.779-1.06-1.376-1.334l-7.692-3.518c-1.251-0.57-2.294-1.516-2.989-2.707l-5.52-9.464
							c-0.642-1.103-1.817-1.781-3.087-1.781l-8.195-0.012c-0.047,0-0.145,0.009-0.19,0h-4.517H40.709l-5.131-1.659
							c-0.594-0.191-1.192-0.091-1.669,0.204l-9.566-5.289c0.026-0.078,0.043-0.16,0.043-0.245c0-0.41-0.329-0.74-0.736-0.74
							c-0.406,0-0.735,0.33-0.735,0.74c0,0.407,0.329,0.739,0.735,0.739c0.139,0,0.268-0.04,0.375-0.106l9.473,5.24
							c-0.279,0.298-0.471,0.683-0.529,1.117h-4.271c-2.652,0-4.803,2.165-4.803,4.83v10.322v6.47L22.9,30.397
							c-0.807,0.812-0.525,1.914-0.525,3.063v5.489c0,1.638,0.588,2.968,2.218,2.968h4.297v-0.021h1.972v-3.038
							c0-4.58,3.726-8.326,8.279-8.326l0,0c4.552,0,8.277,3.746,8.277,8.326v3.091l1.619-0.031h1.334h35.535h2.202v-3.06
							c0-4.58,3.725-8.326,8.277-8.326l0,0c4.553,0,8.277,3.746,8.277,8.326v1.779l1.493-0.223l0.562-0.083
							c0.799-0.121,1.422-0.762,1.521-1.568l0.104-0.837h0.685v-0.48C109.03,36.647,108.388,36,107.595,36z M62.568,18.675
							c0,1.628-1.325,2.96-2.945,2.96H29.577c-1.619,0-2.943-1.332-2.943-2.96v-5.159c0-1.627,1.325-2.96,2.943-2.96h30.046
							c1.62,0,2.944,1.333,2.944,2.96V18.675L62.568,18.675z M90.225,17.565c-1.966,0-3.558,1.201-3.558,2.679
							c0,0.227,0.041,0.443,0.109,0.651h-5.987c-1.493,0-2.703-1.218-2.703-2.719v-6.261c0-1.16,0.934-2.097,2.088-2.097h5.229
							c1.555,0,2.979,0.878,3.687,2.27l2.877,5.684c0.028,0.058,0.051,0.114,0.073,0.173C91.507,17.705,90.889,17.565,90.225,17.565
							z"/>
					</g>
				</g>
			</g>
		</g>
		<g>
			<rect x="57.44" y="30.298" fill="#6CABDD" width="4.544" height="4.244"/>
			<rect x="61.984" y="34.54" fill="#6CABDD" width="4.544" height="4.245"/>
			<rect x="52.897" y="34.54" fill="#6CABDD" width="4.543" height="4.245"/>
			<rect x="66.529" y="30.298" fill="#6CABDD" width="4.545" height="4.244"/>
			<rect x="71.074" y="34.54" fill="#6CABDD" width="4.545" height="4.245"/>
			<rect x="48.515" y="30.298" fill="#6CABDD" width="4.545" height="4.244"/>
		</g>
	</g>
	<path fill="#4A68AC" d="M0,64.612c0-0.491,0.137-0.888,0.413-1.188c0.275-0.303,0.633-0.454,1.073-0.454s0.796,0.151,1.073,0.454
		c0.273,0.301,0.411,0.697,0.411,1.188v7.88c0,0.491-0.138,0.888-0.411,1.188c-0.277,0.301-0.633,0.45-1.073,0.45
		s-0.798-0.149-1.073-0.45C0.137,73.379,0,72.983,0,72.491V64.612z"/>
	<path fill="#4A68AC" d="M4.629,64.612c0-0.491,0.137-0.888,0.414-1.188c0.275-0.303,0.633-0.454,1.075-0.454
		c0.387,0,0.698,0.099,0.931,0.291c0.235,0.192,0.38,0.462,0.436,0.806c0.291-0.396,0.667-0.697,1.13-0.902
		c0.462-0.204,1.046-0.308,1.753-0.308c0.581,0,1.123,0.09,1.627,0.269c0.504,0.177,0.938,0.437,1.297,0.778
		s0.643,0.758,0.851,1.249c0.206,0.493,0.31,1.055,0.31,1.68v5.66c0,0.491-0.136,0.89-0.412,1.188
		c-0.275,0.301-0.632,0.45-1.072,0.45c-0.441,0-0.797-0.149-1.073-0.45c-0.275-0.299-0.413-0.697-0.413-1.188v-5.146
		c0-0.696-0.191-1.21-0.573-1.538c-0.384-0.328-0.847-0.493-1.39-0.493c-0.625,0-1.103,0.196-1.431,0.585
		c-0.326,0.391-0.49,0.872-0.49,1.446v5.146c0,0.491-0.137,0.89-0.412,1.188c-0.275,0.301-0.633,0.45-1.073,0.45
		c-0.439,0-0.797-0.149-1.073-0.45c-0.275-0.301-0.412-0.697-0.412-1.188V64.612z"/>
	<path fill="#4A68AC" d="M16.834,65.66h-0.661c-0.399,0-0.718-0.112-0.951-0.346c-0.234-0.232-0.352-0.544-0.352-0.939
		c0-0.367,0.125-0.674,0.373-0.919c0.248-0.245,0.559-0.367,0.931-0.367h0.661v-1.768c0-0.491,0.138-0.89,0.412-1.19
		c0.276-0.301,0.632-0.452,1.073-0.452c0.44,0,0.797,0.151,1.073,0.452c0.274,0.301,0.412,0.699,0.412,1.19v1.768h0.849
		c0.386,0,0.719,0.096,1.001,0.285c0.282,0.19,0.425,0.524,0.425,1.001c0,0.462-0.143,0.794-0.425,0.99
		c-0.283,0.198-0.616,0.295-1.001,0.295h-0.849v6.831c0,0.495-0.138,0.89-0.412,1.192c-0.275,0.303-0.633,0.452-1.073,0.452
		c-0.441,0-0.797-0.149-1.073-0.452c-0.274-0.303-0.412-0.697-0.412-1.192V65.66z"/>
	<path fill="#4A68AC" d="M24.685,69.555c0.11,0.743,0.431,1.291,0.961,1.637c0.53,0.344,1.146,0.519,1.851,0.519
		c0.386,0,0.741-0.062,1.065-0.185c0.322-0.124,0.622-0.26,0.899-0.411c0.276-0.151,0.53-0.288,0.766-0.412
		c0.233-0.124,0.448-0.185,0.64-0.185c0.318,0,0.6,0.134,0.848,0.402c0.248,0.266,0.373,0.558,0.373,0.87
		c0,0.314-0.148,0.621-0.444,0.92c-0.296,0.3-0.679,0.565-1.147,0.797c-0.469,0.231-0.994,0.417-1.572,0.56
		c-0.58,0.144-1.145,0.215-1.696,0.215c-0.84,0-1.602-0.144-2.285-0.431c-0.684-0.287-1.271-0.686-1.761-1.192
		c-0.489-0.505-0.87-1.105-1.139-1.797c-0.27-0.691-0.405-1.448-0.405-2.271c0-0.753,0.132-1.476,0.393-2.171
		c0.26-0.689,0.624-1.3,1.092-1.826c0.468-0.528,1.028-0.949,1.68-1.264c0.656-0.314,1.373-0.475,2.157-0.475
		c0.796,0,1.525,0.165,2.186,0.494c0.66,0.33,1.224,0.753,1.691,1.273c0.466,0.521,0.828,1.1,1.083,1.736
		c0.254,0.636,0.381,1.265,0.381,1.878c0,0.439-0.103,0.77-0.308,0.987c-0.207,0.219-0.536,0.33-0.988,0.33H24.685z M29.33,67.585
		c-0.082-0.66-0.322-1.202-0.721-1.629c-0.398-0.426-0.948-0.642-1.649-0.642c-0.66,0-1.2,0.224-1.619,0.66
		c-0.42,0.441-0.664,0.979-0.731,1.61H29.33z"/>
	<path fill="#4A68AC" d="M33.315,64.448c0-0.493,0.162-0.862,0.484-1.108c0.325-0.247,0.672-0.371,1.042-0.371
		c0.401,0,0.74,0.087,1.021,0.258c0.283,0.171,0.423,0.495,0.423,0.974h0.041c0.276-0.41,0.576-0.717,0.9-0.923
		c0.324-0.204,0.72-0.309,1.189-0.309c0.358,0,0.689,0.13,0.992,0.391c0.304,0.26,0.455,0.658,0.455,1.19
		c0,0.246-0.052,0.437-0.155,0.576c-0.104,0.137-0.237,0.251-0.403,0.348c-0.165,0.096-0.354,0.181-0.569,0.257
		c-0.213,0.075-0.43,0.159-0.65,0.256c-0.22,0.109-0.439,0.214-0.65,0.317c-0.215,0.103-0.407,0.229-0.579,0.38
		c-0.173,0.149-0.31,0.328-0.414,0.534c-0.104,0.204-0.155,0.451-0.155,0.738v4.535c0,0.491-0.138,0.888-0.412,1.188
		c-0.274,0.301-0.632,0.45-1.073,0.45s-0.797-0.149-1.072-0.45s-0.414-0.697-0.414-1.188V64.448z"/>
	<path fill="#4A68AC" d="M48.989,69.555c0.111,0.743,0.432,1.291,0.961,1.637c0.531,0.344,1.147,0.519,1.85,0.519
		c0.386,0,0.742-0.062,1.065-0.185c0.325-0.124,0.625-0.26,0.902-0.411c0.274-0.151,0.528-0.288,0.763-0.412
		c0.235-0.124,0.448-0.185,0.641-0.185c0.316,0,0.6,0.134,0.847,0.402c0.25,0.266,0.373,0.558,0.373,0.87
		c0,0.314-0.147,0.621-0.444,0.92c-0.295,0.3-0.679,0.565-1.147,0.797c-0.469,0.231-0.993,0.417-1.572,0.56
		c-0.578,0.144-1.143,0.215-1.694,0.215c-0.842,0-1.603-0.144-2.285-0.431c-0.683-0.287-1.271-0.686-1.761-1.192
		c-0.49-0.505-0.871-1.105-1.14-1.797s-0.403-1.448-0.403-2.271c0-0.753,0.13-1.476,0.392-2.171c0.262-0.689,0.625-1.3,1.094-1.826
		c0.466-0.528,1.027-0.949,1.68-1.264c0.653-0.314,1.371-0.475,2.155-0.475c0.798,0,1.526,0.165,2.187,0.494
		c0.661,0.33,1.223,0.753,1.689,1.273c0.467,0.521,0.829,1.1,1.084,1.736c0.254,0.636,0.382,1.265,0.382,1.878
		c0,0.439-0.104,0.77-0.309,0.987c-0.205,0.219-0.537,0.33-0.987,0.33H48.989z M53.634,67.585c-0.082-0.66-0.322-1.202-0.721-1.629
		c-0.399-0.426-0.948-0.642-1.65-0.642c-0.66,0-1.2,0.224-1.618,0.66c-0.42,0.441-0.663,0.979-0.731,1.61H53.634z"/>
	<path fill="#4A68AC" d="M58.365,65.66h-0.66c-0.4,0-0.718-0.112-0.952-0.346c-0.234-0.232-0.352-0.544-0.352-0.939
		c0-0.367,0.125-0.674,0.373-0.919c0.248-0.245,0.557-0.367,0.93-0.367h0.66v-1.768c0-0.491,0.138-0.89,0.413-1.19
		c0.274-0.301,0.633-0.452,1.073-0.452c0.439,0,0.796,0.151,1.07,0.452c0.276,0.301,0.415,0.699,0.415,1.19v1.768h0.847
		c0.388,0,0.721,0.096,1.003,0.285c0.283,0.19,0.424,0.524,0.424,1.001c0,0.462-0.141,0.794-0.424,0.99
		c-0.283,0.198-0.616,0.295-1.003,0.295h-0.847v6.831c0,0.495-0.139,0.89-0.415,1.192c-0.274,0.303-0.631,0.452-1.07,0.452
		c-0.44,0-0.798-0.149-1.073-0.452c-0.275-0.303-0.413-0.697-0.413-1.192V65.66z"/>
	<g>
		<path fill="#6CABDD" d="M73.028,64.456v-2.522l-0.002-1.894c0-0.509-0.417-0.923-0.93-0.923s-0.928,0.414-0.928,0.923v1.897v2.519
			l-1.796-1.782l-1.348-1.337c-0.362-0.361-0.951-0.361-1.313,0c-0.362,0.359-0.362,0.944,0,1.304l1.351,1.342l1.789,1.777h-3.831
			h-0.605c-0.515,0-0.933,0.415-0.933,0.926s0.418,0.925,0.933,0.925h0.562l1.342-0.002h2.536l-1.792,1.781l-0.919,0.912
			l-0.43,0.426c-0.362,0.363-0.362,0.947,0,1.309c0.363,0.361,0.954,0.361,1.319,0l0.395-0.394l0.946-0.944l1.795-1.783v2.52v1.291
			v0.603c0,0.511,0.417,0.927,0.931,0.927c0.515,0,0.932-0.416,0.932-0.927v-0.558l-0.003-1.332v-2.523l1.793,1.783l0.918,0.913
			l0.43,0.425c0.363,0.361,0.952,0.361,1.317,0c0.363-0.361,0.363-0.947,0-1.309l-0.398-0.395l-0.95-0.939l-1.793-1.785h2.541
			l1.903-0.004c0.513,0,0.928-0.412,0.928-0.921c0-0.511-0.415-0.924-0.928-0.924H76.88h-2.536l1.796-1.783l1.344-1.34
			c0.362-0.359,0.362-0.944,0-1.306c-0.362-0.359-0.949-0.359-1.312,0l-1.35,1.343L73.028,64.456z"/>
		
			<path fill="none" stroke="#E86A3F" stroke-width="0.0316" stroke-linecap="round" stroke-linejoin="round" stroke-miterlimit="10" d="
			M71.71,65.76"/>
		<path fill="#1A4296" d="M70.769,66.69l-2.716,2.702c-0.363,0.361-0.363,0.945,0,1.307s0.951,0.361,1.314,0l1.642-1.631l2.4-2.384
			l-2.248-2.228l-1.792-1.782c-0.364-0.359-0.953-0.359-1.315,0c-0.364,0.36-0.364,0.945,0,1.307l2.711,2.693L70.769,66.69z"/>
		<path fill="#1A4296" d="M73.421,66.69l2.715,2.702c0.363,0.361,0.363,0.945,0,1.307c-0.362,0.361-0.951,0.361-1.314,0
			l-1.642-1.631l-2.398-2.384l2.247-2.228l1.793-1.782c0.361-0.359,0.951-0.359,1.314,0c0.363,0.36,0.363,0.945,0,1.307
			l-2.712,2.693L73.421,66.69z"/>
	</g>
	<g>
		<path fill="#4A68AC" d="M82.158,72.49V65.66h-0.664c-0.389,0-0.702-0.118-0.94-0.355c-0.236-0.236-0.357-0.552-0.357-0.943
			c0-0.367,0.126-0.674,0.373-0.921c0.248-0.247,0.556-0.371,0.925-0.371h0.664v-1.768c0-0.489,0.134-0.885,0.406-1.19
			c0.271-0.305,0.629-0.456,1.072-0.456c0.287,0,0.542,0.068,0.767,0.206c0.226,0.136,0.401,0.332,0.528,0.582
			c0.127,0.251,0.191,0.536,0.191,0.858v1.768h0.844c0.41,0,0.748,0.105,1.016,0.314c0.269,0.21,0.402,0.536,0.402,0.978
			c0,0.438-0.132,0.767-0.397,0.979c-0.265,0.214-0.604,0.32-1.021,0.32h-0.844v6.829c0,0.32-0.064,0.607-0.191,0.858
			c-0.127,0.252-0.305,0.446-0.532,0.584c-0.228,0.137-0.482,0.206-0.763,0.206c-0.443,0-0.801-0.153-1.072-0.458
			C82.292,73.375,82.158,72.979,82.158,72.49z"/>
		<path fill="#4A68AC" d="M88.962,58.51c0.296,0,0.57,0.077,0.825,0.23c0.255,0.155,0.459,0.357,0.614,0.608
			c0.153,0.25,0.23,0.515,0.23,0.788c0,0.462-0.163,0.862-0.487,1.2c-0.326,0.338-0.72,0.507-1.183,0.507
			c-0.435,0-0.821-0.173-1.159-0.522c-0.339-0.348-0.51-0.743-0.51-1.185c0-0.421,0.171-0.798,0.51-1.13
			C88.141,58.677,88.527,58.51,88.962,58.51z M87.484,72.491v-7.896c0-0.487,0.137-0.885,0.407-1.19
			c0.271-0.303,0.629-0.456,1.07-0.456c0.289,0,0.546,0.068,0.769,0.206c0.226,0.138,0.401,0.332,0.528,0.582
			c0.129,0.251,0.191,0.538,0.191,0.858v7.896c0,0.32-0.062,0.605-0.191,0.858c-0.127,0.25-0.305,0.444-0.532,0.582
			c-0.228,0.137-0.483,0.206-0.765,0.206c-0.441,0-0.799-0.153-1.07-0.458C87.621,73.377,87.484,72.979,87.484,72.491z"/>
		<path fill="#4A68AC" d="M100.804,69.537h-6.312c0.102,0.703,0.409,1.235,0.925,1.599c0.517,0.361,1.14,0.541,1.87,0.541
			c0.448,0,0.831-0.071,1.146-0.211c0.315-0.14,0.708-0.34,1.181-0.597c0.473-0.258,0.816-0.389,1.031-0.389
			c0.201,0,0.396,0.062,0.587,0.187c0.193,0.125,0.345,0.284,0.458,0.479c0.115,0.193,0.171,0.397,0.171,0.611
			c0,0.309-0.143,0.613-0.427,0.915c-0.286,0.301-0.664,0.57-1.137,0.808c-0.472,0.237-1.005,0.43-1.598,0.573
			s-1.154,0.215-1.685,0.215c-1.077,0-2.044-0.246-2.894-0.737c-0.853-0.493-1.509-1.171-1.972-2.039
			c-0.462-0.866-0.693-1.844-0.693-2.928c0-0.737,0.133-1.452,0.397-2.149c0.264-0.695,0.634-1.315,1.106-1.858
			c0.473-0.542,1.039-0.966,1.699-1.271c0.659-0.305,1.364-0.456,2.114-0.456c0.771,0,1.49,0.159,2.157,0.478
			s1.23,0.736,1.692,1.261c0.463,0.521,0.826,1.103,1.087,1.741c0.262,0.64,0.392,1.274,0.392,1.903
			C102.101,69.096,101.668,69.537,100.804,69.537z M94.421,67.558h4.715c-0.079-0.676-0.328-1.222-0.745-1.637
			c-0.414-0.414-0.954-0.622-1.618-0.622c-0.636,0-1.165,0.212-1.587,0.634C94.762,66.354,94.508,66.896,94.421,67.558z"/>
		<path fill="#4A68AC" d="M103.115,72.491v-8.057c0-0.468,0.152-0.833,0.457-1.093c0.307-0.263,0.659-0.393,1.061-0.393
			c0.967,0,1.449,0.412,1.449,1.235h0.04c0.301-0.436,0.609-0.75,0.924-0.944c0.316-0.194,0.7-0.291,1.157-0.291
			c0.381,0,0.716,0.138,1.004,0.412c0.288,0.273,0.433,0.666,0.433,1.175c0,0.295-0.075,0.519-0.225,0.672
			c-0.152,0.155-0.357,0.285-0.62,0.393c-0.261,0.106-0.568,0.23-0.924,0.372c-0.589,0.269-1.035,0.534-1.338,0.799
			c-0.301,0.264-0.451,0.656-0.451,1.179v4.541c0,0.32-0.064,0.605-0.191,0.858c-0.128,0.25-0.305,0.444-0.533,0.582
			c-0.228,0.137-0.481,0.206-0.763,0.206c-0.443,0-0.801-0.153-1.071-0.458C103.252,73.377,103.115,72.979,103.115,72.491z"/>
		<path fill="#4A68AC" d="M109.971,72.491v-8.057c0-0.468,0.153-0.833,0.459-1.093c0.304-0.263,0.657-0.393,1.06-0.393
			c0.965,0,1.447,0.412,1.447,1.235h0.04c0.301-0.436,0.611-0.75,0.925-0.944c0.314-0.194,0.701-0.291,1.156-0.291
			c0.382,0,0.717,0.138,1.005,0.412c0.288,0.273,0.433,0.666,0.433,1.175c0,0.295-0.075,0.519-0.227,0.672
			c-0.15,0.155-0.356,0.285-0.617,0.393c-0.261,0.106-0.57,0.23-0.927,0.372c-0.589,0.269-1.034,0.534-1.335,0.799
			c-0.303,0.264-0.453,0.656-0.453,1.179v4.541c0,0.32-0.062,0.605-0.191,0.858c-0.127,0.25-0.304,0.444-0.533,0.582
			c-0.227,0.137-0.48,0.206-0.763,0.206c-0.442,0-0.8-0.153-1.071-0.458C110.107,73.377,109.971,72.979,109.971,72.491z"/>
		<path fill="#4A68AC" d="M127,64.888v7.321c0,0.575-0.082,1.041-0.242,1.396c-0.161,0.354-0.556,0.532-1.187,0.532
			c-0.401,0-0.711-0.104-0.929-0.316c-0.219-0.21-0.38-0.521-0.488-0.935c-0.783,0.921-1.726,1.381-2.824,1.381
			c-0.911,0-1.742-0.244-2.492-0.733c-0.749-0.487-1.339-1.166-1.765-2.034c-0.426-0.866-0.639-1.845-0.639-2.937
			c0-1.052,0.219-2.018,0.653-2.897c0.436-0.88,1.029-1.573,1.779-2.08c0.751-0.505,1.571-0.757,2.463-0.757
			c0.557,0,1.086,0.114,1.589,0.342c0.502,0.227,0.914,0.564,1.235,1.014c0.04-0.361,0.196-0.658,0.469-0.89
			c0.271-0.231,0.587-0.346,0.948-0.346c0.631,0,1.025,0.179,1.187,0.538C126.918,63.845,127,64.311,127,64.888z M119.399,68.568
			c0,0.504,0.089,0.985,0.268,1.445c0.177,0.458,0.441,0.831,0.794,1.117c0.351,0.283,0.779,0.427,1.281,0.427
			c0.724,0,1.287-0.301,1.689-0.901c0.401-0.6,0.603-1.295,0.603-2.088c0-0.495-0.086-0.977-0.256-1.442
			c-0.171-0.467-0.433-0.847-0.784-1.143c-0.354-0.295-0.769-0.442-1.252-0.442c-0.495,0-0.923,0.146-1.281,0.438
			c-0.359,0.292-0.625,0.673-0.8,1.141C119.486,67.589,119.399,68.073,119.399,68.568z"/>
	</g>
	<path fill-rule="evenodd" clip-rule="evenodd" fill="#4A68AC" d="M40.052,73.837v-2.494c0.108-0.017,0.216-0.034,0.341-0.034
		c0.215,0,0.501,0.089,0.86,0.287c0.34,0.179,0.609,0.285,0.77,0.285c0.306,0,0.521-0.161,0.646-0.448
		c0.125-0.305,0.197-0.86,0.197-1.649v-5.325c0-0.627,0.107-1.074,0.323-1.381c0.197-0.305,0.52-0.448,0.968-0.448
		c0.43,0,0.752,0.144,0.968,0.448c0.215,0.307,0.323,0.754,0.323,1.381v6.151c0,1.236-0.287,2.169-0.843,2.796
		c-0.574,0.628-1.38,0.95-2.474,0.95C41.308,74.356,40.608,74.177,40.052,73.837L40.052,73.837z M40.052,71.343
		c-0.197,0.055-0.376,0.161-0.52,0.306c-0.215,0.215-0.323,0.501-0.323,0.843c0,0.521,0.269,0.969,0.825,1.326l0.018,0.02V71.343
		L40.052,71.343z"/>
</g>
</svg>
