<?xml version="1.0" encoding="utf-8"?>
<!-- Generator: Adobe Illustrator 16.0.0, SVG Export Plug-In . SVG Version: 6.00 Build 0)  -->
<!DOCTYPE svg PUBLIC "-//W3C//DTD SVG 1.1//EN" "http://www.w3.org/Graphics/SVG/1.1/DTD/svg11.dtd">
<svg version="1.1" id="Layer_1" xmlns="http://www.w3.org/2000/svg" xmlns:xlink="http://www.w3.org/1999/xlink" x="0px" y="0px"
	 width="51.821px" height="69.06px" viewBox="12.984 7.509 51.821 69.06" enable-background="new 12.984 7.509 51.821 69.06"
	 xml:space="preserve">
<g>
	<g>
		<path fill="#4A68AE" stroke="#276AF0" stroke-miterlimit="10" d="M38.896,8.082L13.484,22.271c0,0,0,17.491,0,33.332
			c0,15.84,25.412,20.459,25.412,20.459s25.409-4.619,25.409-20.459c0-15.84,0-33.332,0-33.332L38.896,8.082z M58.382,55.603
			c0,8.297-13.438,13.047-19.484,14.412h-0.001V14.868l0.001-0.001l19.484,10.881V55.603z"/>
	</g>
	<polygon fill="#7AAAD9" points="26.885,29.684 30.484,36.973 38.528,38.142 32.708,43.815 34.082,51.828 26.885,48.046 
		19.691,51.828 21.065,43.815 15.244,38.142 23.289,36.973 	"/>
</g>
</svg>
