<svg id="Layer_1" data-name="Layer 1" xmlns="http://www.w3.org/2000/svg" viewBox="0 0 70 95"><defs><style>.cls-1{fill:#1b4296;}.cls-2{fill:#fff;}</style></defs><title>Artboard 65 copy</title><path class="cls-1" d="M19.34,48l-.68,8.78a1.86,1.86,0,0,1,2.68,0c0,2.83-2.89,5.14-6.44,5.14s-6.44-2.31-6.44-5.14V50.34a3.33,3.33,0,0,0,3-3c0-1.53-1.4-2.8-3.24-3V34.48H6.91V44.3c-1.84.24-3.24,1.51-3.24,3a3.33,3.33,0,0,0,3,3v6.41c0,3.63,3.71,6.59,8.26,6.59s8.26-3,8.26-6.59Z"/><ellipse class="cls-1" cx="6.07" cy="46.35" rx="0.94" ry="0.75"/><path class="cls-1" d="M43.36,43.06c-7.84-.47-15.7,5.83-16.66,9.86l5.1.3-.07,1.2-5.1-.3c.44,4.12,7.51,11.33,15.37,11.79,5.89.35,15.56-4.94,20.59-8l4.11,4.61.79-13.22-4.64,4.09C58.22,49.8,49.25,43.41,43.36,43.06Z"/><ellipse class="cls-2" cx="34.82" cy="50.79" rx="1.65" ry="1.66" transform="translate(-17.95 82.53) rotate(-86.6)"/><path class="cls-2" d="M47.68,53.74l0-.88c0-.59,0-1.17,0-1.76v-.76l-.64.3-.94.46-.93.48-.92.51c-.3.18-.6.35-.9.54.35-.07.69-.15,1-.23l1-.27,1-.3.28-.09q-.06.53-.11,1.06l-.07.88-.06.88,0,.88,0,.88c0,.29,0,.59,0,.88,0,.08,0,.16,0,.24l-.3-.11-1-.34-1-.32-.49-.15-.5-.13.42.3.43.28.86.54.87.52.88.49.56.31.09-.69c0-.29.07-.58.1-.87s.06-.58.09-.88l.07-.88.06-.88Z"/></svg>