<svg id="Layer_1" data-name="Layer 1" xmlns="http://www.w3.org/2000/svg" viewBox="0 0 70 95"><defs><style>.cls-1{fill:#7aa9d8;}.cls-2{fill:#1b4296;}</style></defs><title>Artboard 65</title><path class="cls-1" d="M59.27,47.05c0-.2,0-.41,0-.61a24.24,24.24,0,0,0-23-23l-.61,0H34.43l-.61,0a24.24,24.24,0,0,0-23,23c0,.2,0,.41,0,.61s0,.4,0,.61,0,.41,0,.61,0,.41,0,.61a24.24,24.24,0,0,0,23,23h.61l.61,0,.61,0h.61a24.24,24.24,0,0,0,23-23c0-.2,0-.41,0-.61s0-.41,0-.61S59.27,47.25,59.27,47.05ZM33.82,26.78v9.75c.2,0,.41,0,.61,0V47.05H23.91c0-.2,0-.41,0-.61H14.16A20.92,20.92,0,0,1,33.82,26.78Zm0,32v9.75A20.92,20.92,0,0,1,14.16,48.88h9.75c0-.2,0-.41,0-.61H34.43V51.1H32.25v1.22h2.18v2.84H29.81v1.22h4.62V58.8C34.23,58.78,34,58.82,33.82,58.8Zm2.44,9.75V58.8c-.2,0-.41,0-.61,0V56.39h4.62V55.17H35.65V52.32h2.18V51.1H35.65V48.27H46.18c0,.2,0,.41,0,.61h9.75A20.92,20.92,0,0,1,36.26,68.54Zm9.92-22.1c0,.2,0,.41,0,.61H35.65V36.52c.2,0,.41,0,.61,0V26.78A20.92,20.92,0,0,1,55.93,46.44Z"/><path class="cls-2" d="M60.68,15.72a4.44,4.44,0,0,1,1.64,3.82c-.17.59-.79.93-1.71,1.05.75,1,2.28,1.5,2.67,3.11.82,3.42-2.79,3.41-3.48,2.62-.36-.42-1.75-1.85-2.22-1.44s.25,1,.62,1.89c2.11,5.13-2.39,8.85-5.08,10.54-.89.55-1.4.14-1.29-.87A16.71,16.71,0,0,0,52,34c-.06-.55-.64-3.78-2-4.41A11.74,11.74,0,0,1,49.76,37a4.87,4.87,0,0,1-3.12,2.57c-1,.36-1.39-.18-1.27-1.18.21-1.86-.3-4.29-1.22-5,.21,2.56-.89,5.86-2.79,7.1-1.27.47-.47,1.79.26,2.59-1.27-.63-1.23-1.51-1.18-1.79a1.85,1.85,0,0,0-.73.55c-.93,1-4,1-4.7,1s-3.77,0-4.7-1a1.85,1.85,0,0,0-.73-.55c0,.28.08,1.17-1.18,1.79.73-.79,1.54-2.12.26-2.59-1.9-1.24-3-4.54-2.79-7.1-.91.69-1.42,3.13-1.22,5,.11,1-.28,1.54-1.27,1.18A4.87,4.87,0,0,1,20.24,37a11.74,11.74,0,0,1-.17-7.47c-1.39.63-2,3.86-2,4.41a16.91,16.91,0,0,0,.13,2.47c.11,1-.41,1.42-1.29.87-2.69-1.69-7.2-5.41-5.08-10.54.37-.9,1.09-1.48.62-1.89s-1.86,1-2.22,1.44c-.68.79-4.3.8-3.48-2.62.38-1.6,1.92-2.09,2.67-3.11-.92-.12-1.54-.47-1.71-1.05a4.44,4.44,0,0,1,1.64-3.82c-1.45-.08-4.24,3.12-5,5.19a20.74,20.74,0,0,0-1,6.07A9.53,9.53,0,0,0,6.1,32.44c2.3,2.31,7,5,9.74,6.46s8.1,2.6,10.34,4.79l-.14,0a11.28,11.28,0,0,0-4.67-1.1c-.32,0-4.45.73-5.66.21.1,2.36,6.61,7.41,11.1,3.65-.13.64-1.38,1.4-1.38,1.4.53.46.14,1.9,1.06,2.71s2.34.09,2.69.55c-1.14-.08-2.3.91-3.2-.36A3.07,3.07,0,0,0,26.87,53a4.64,4.64,0,0,1,3.23,2.86,8.8,8.8,0,0,0-2.72-2.13c.29.76.51,1.55.51,1.55a9.93,9.93,0,0,1,1.34,3.13,20.39,20.39,0,0,0-1.47-2.25c0,1-1.12,9-3.17,12.72L25,70.64a11.17,11.17,0,0,0,2,3.61,17.73,17.73,0,0,0,4.31,3.58A16.35,16.35,0,0,0,35,79.28a16.33,16.33,0,0,0,3.6-1.45,17.73,17.73,0,0,0,4.32-3.58,11.16,11.16,0,0,0,2-3.61l.43-1.71c-2-3.74-3.17-11.75-3.17-12.72a20.35,20.35,0,0,0-1.47,2.25,9.91,9.91,0,0,1,1.34-3.13s.22-.79.51-1.55a8.8,8.8,0,0,0-2.72,2.13A4.64,4.64,0,0,1,43.13,53a3.07,3.07,0,0,0,.9-2.28c-.9,1.28-2.06.29-3.2.36.35-.46,1.82.22,2.69-.55s.53-2.25,1.05-2.71c0,0-1.25-.76-1.38-1.4,4.49,3.76,11-1.29,11.1-3.65-1.22.52-5.34-.21-5.66-.21A11.28,11.28,0,0,0,44,43.7l-.14,0c2.24-2.2,7.68-3.37,10.34-4.79s7.43-4.14,9.74-6.46A9.53,9.53,0,0,0,66.67,27a20.74,20.74,0,0,0-1-6.07C64.92,18.84,62.13,15.64,60.68,15.72Z"/></svg>