<?xml version="1.0" encoding="utf-8"?>
<!-- Generator: Adobe Illustrator 16.0.0, SVG Export Plug-In . SVG Version: 6.00 Build 0)  -->
<!DOCTYPE svg PUBLIC "-//W3C//DTD SVG 1.1//EN" "http://www.w3.org/Graphics/SVG/1.1/DTD/svg11.dtd">
<svg version="1.1" id="Layer_1" xmlns="http://www.w3.org/2000/svg" xmlns:xlink="http://www.w3.org/1999/xlink" x="0px" y="0px"
	 width="36.167px" height="38px" viewBox="0 0 36.167 38" enable-background="new 0 0 36.167 38" xml:space="preserve">
<g>
	<g>
		<line fill="#D1D3D4" stroke="#D1D3D4" stroke-width="2" stroke-miterlimit="10" x1="6.79" y1="17.764" x2="30.136" y2="17.764"/>
		<line fill="#D1D3D4" stroke="#D1D3D4" stroke-width="2" stroke-miterlimit="10" x1="7.083" y1="5.545" x2="7.083" y2="31.014"/>
		<line fill="#D1D3D4" stroke="#D1D3D4" stroke-width="2" stroke-miterlimit="10" x1="17.167" y1="5.5" x2="17.167" y2="30.971"/>
		<line fill="#D1D3D4" stroke="#D1D3D4" stroke-width="2" stroke-miterlimit="10" x1="26.851" y1="17.557" x2="26.862" y2="5.504"/>
	</g>
	<ellipse fill="#D1D3D4" stroke="#D1D3D4" stroke-miterlimit="10" cx="7.085" cy="5.771" rx="2.346" ry="1.545"/>
	<path fill="#D1D3D4" stroke="#D1D3D4" stroke-miterlimit="10" d="M9.466,30.619c0,0.855-1.051,1.547-2.348,1.547
		c-1.293,0-2.348-0.691-2.348-1.547c0-0.852,1.055-1.543,2.348-1.543C8.415,29.076,9.466,29.768,9.466,30.619z"/>
	<ellipse fill="#D1D3D4" stroke="#D1D3D4" stroke-miterlimit="10" cx="17.17" cy="30.619" rx="2.345" ry="1.547"/>
	<path fill="#D1D3D4" stroke="#D1D3D4" stroke-miterlimit="10" d="M19.511,5.771c0,0.852-1.051,1.545-2.348,1.545
		c-1.293,0-2.346-0.693-2.346-1.545c0-0.854,1.053-1.547,2.346-1.547C18.46,4.225,19.511,4.918,19.511,5.771z"/>
	<ellipse fill="#D1D3D4" stroke="#D1D3D4" stroke-miterlimit="10" cx="26.874" cy="5.771" rx="2.348" ry="1.545"/>
</g>
<g>
	<g>
		<path fill="#6CADDF" d="M113.854,13.552h28.934c1.072,0,1.824-0.246,2.303-0.75c0.641-0.68,0.588-1.598,0.549-2.336
			c-0.012-0.184-0.02-0.355-0.02-0.52V-6.071c0-1.623-2.326-4.947-2.35-4.979c0.006,0.006,0.01,0.012,0.016,0.023
			c-0.096-0.152-0.527-1.037-0.984-1.977c-3.361-6.891-5.713-11.295-7.051-11.965c-1.844-0.922-14.612-0.932-15.155-0.932
			c-5.305,0-5.62,0.189-5.829,0.314c-0.492,0.295-0.79,0.475-0.498,8.514c0.119,3.27,0.3,6.541,0.347,7.361
			c-0.66,1.463-1.023,3.877-1.023,5.059v17.438C113.092,13.208,113.434,13.552,113.854,13.552z M117.17-3.444
			c0-0.762,0.617-1.379,1.379-1.379h3.443c0.762,0,1.379,0.617,1.379,1.379s-0.617,1.375-1.379,1.375h-3.443
			C117.787-2.069,117.17-2.683,117.17-3.444z M115.254-24.261c0.611-0.051,2.057-0.113,4.842-0.113
			c7.009,0,13.638,0.354,14.474,0.771c0.113,0.061,0.797,0.557,2.879,4.393c1.27,2.34,2.602,5.07,3.48,6.877
			c0.813,1.66,0.996,2.033,1.121,2.199c0.014,0.018,0.027,0.037,0.043,0.059h-26.47C115.278-16.116,115.067-22.624,115.254-24.261z"
			/>
	</g>
</g>
<g>
	<g>
		<path id="Suitcase_3_14_" fill="#6CADDF" d="M180.529-28.443v-1.436h7.004v1.436H180.529z M190.793-22.583
			c1.02,0,1.848,0.828,1.848,1.848v15.152h-17.217v-15.152c0-1.02,0.828-1.848,1.846-1.848H190.793z M187.018-18.941
			c0-0.631-1.336-1.143-2.986-1.143s-2.986,0.512-2.986,1.143s1.336,1.143,2.986,1.143S187.018-18.31,187.018-18.941z
			 M179.006-35.462h10.461c0.469,0,0.846,0.26,0.846,0.582v5.855c0,0.32,0.377,0.582,0.844,0.582l0,0
			c0.469,0,0.848-0.262,0.848-0.582v-6.734c0-0.73-0.859-1.324-1.924-1.324h-11.688c-1.059,0-1.92,0.594-1.92,1.324v6.734
			c0,0.32,0.377,0.582,0.846,0.582l0,0c0.465,0,0.844-0.262,0.844-0.582v-5.855C178.162-35.203,178.539-35.462,179.006-35.462z
			 M174.248-5.583v-15.152c0-1.666,1.355-3.021,3.021-3.021h13.523c1.668,0,3.023,1.355,3.023,3.021v15.152h2.965v-18.281
			c0-1.898-1.551-3.445-3.449-3.445H174.73c-1.898,0-3.447,1.547-3.447,3.445v18.281H174.248z M191.75,7.635
			c0,0.512,0.422,0.934,0.934,0.934h0.383c0.512,0,0.934-0.422,0.934-0.934V6.702h-2.25V7.635z M171.283-4.103v6.227
			c0,1.898,1.549,3.445,3.447,3.445h18.602c1.898,0,3.449-1.547,3.449-3.445v-6.227H171.283z M174.064,7.635
			c0,0.512,0.422,0.934,0.934,0.934h0.381c0.514,0,0.934-0.422,0.934-0.934V6.702h-2.248V7.635z"/>
	</g>
	<rect x="172.945" y="-24.871" fill="#6CADDF" width="22.633" height="19.291"/>
</g>
<g>
	<path fill="#6CADDF" d="M170.577,18.472c0-3.844-2.422-5.408-10.059-5.41c-7.898-0.002-10.051,2.041-10.051,5.41
		c0,0.135,0.008,0.256,0.02,0.369c-0.012,0.088-0.02,0.174-0.02,0.264v15.484c0,1.047,0.848,1.895,1.895,1.895
		s1.896-0.848,1.896-1.895V20.052c0.041-0.406,0.283-0.422,0.311,0.541v11.281v0.082v23.465c0,1.594,1.289,2.883,2.883,2.883
		s2.883-1.289,2.883-2.883V35.749h0.369v19.672c0,1.594,1.291,2.883,2.881,2.883c1.594,0,2.887-1.289,2.887-2.883V31.956v-0.082
		V19.972c0.082-0.24,0.277-0.217,0.277,0.34c0,0.092,0.012,0.178,0.035,0.256v14.021c0,1.047,0.852,1.895,1.898,1.895
		s1.895-0.848,1.895-1.895V19.104c0-0.084-0.008-0.166-0.016-0.248C170.569,18.733,170.577,18.606,170.577,18.472z"/>
	<circle fill="#6CADDF" cx="160.052" cy="6.939" r="5.425"/>
</g>
<g>
	<circle fill="#6CADDF" stroke="#6CADDF" stroke-miterlimit="10" cx="232.596" cy="0.997" r="16.157"/>
	
		<line fill="#FFFFFF" stroke="#FFFFFF" stroke-width="0.5" stroke-miterlimit="10" x1="232.595" y1="-16.265" x2="232.595" y2="18.417"/>
	<text transform="matrix(1.026 0 0 1 217.8916 3.1719)" fill="#FFFFFF" font-family="'Gotham-Medium'" font-size="16.1731">A</text>
	<text transform="matrix(1.026 0 0 1 233.5518 10.2676)" fill="#FFFFFF" font-family="'Gotham-Medium'" font-size="16.1731">C</text>
</g>
<g>
	<g>
		
			<line fill="#6CADDF" stroke="#6CADDF" stroke-width="2" stroke-miterlimit="10" x1="72.771" y1="22.061" x2="96.117" y2="22.061"/>
		<line fill="#6CADDF" stroke="#6CADDF" stroke-width="2" stroke-miterlimit="10" x1="73.064" y1="9.842" x2="73.064" y2="35.311"/>
		<line fill="#6CADDF" stroke="#6CADDF" stroke-width="2" stroke-miterlimit="10" x1="83.148" y1="9.797" x2="83.148" y2="35.268"/>
		<line fill="#6CADDF" stroke="#6CADDF" stroke-width="2" stroke-miterlimit="10" x1="92.832" y1="21.854" x2="92.844" y2="9.801"/>
	</g>
	<ellipse fill="#6CADDF" stroke="#6CADDF" stroke-miterlimit="10" cx="73.066" cy="10.069" rx="2.346" ry="1.545"/>
	<path fill="#6CADDF" stroke="#6CADDF" stroke-miterlimit="10" d="M75.447,34.917c0,0.855-1.051,1.547-2.348,1.547
		c-1.293,0-2.348-0.691-2.348-1.547c0-0.852,1.055-1.543,2.348-1.543C74.396,33.374,75.447,34.065,75.447,34.917z"/>
	<ellipse fill="#6CADDF" stroke="#6CADDF" stroke-miterlimit="10" cx="83.151" cy="34.917" rx="2.345" ry="1.547"/>
	<path fill="#6CADDF" stroke="#6CADDF" stroke-miterlimit="10" d="M85.492,10.069c0,0.852-1.051,1.545-2.348,1.545
		c-1.293,0-2.346-0.693-2.346-1.545c0-0.854,1.053-1.547,2.346-1.547C84.441,8.522,85.492,9.215,85.492,10.069z"/>
	<ellipse fill="#6CADDF" stroke="#6CADDF" stroke-miterlimit="10" cx="92.855" cy="10.069" rx="2.348" ry="1.545"/>
</g>
<g>
	<g>
		<path fill="#D1D3D4" d="M93.877,130.097h28.934c1.072,0,1.824-0.246,2.303-0.75c0.641-0.68,0.588-1.598,0.549-2.336
			c-0.012-0.184-0.02-0.355-0.02-0.52v-16.018c0-1.623-2.326-4.947-2.35-4.979c0.006,0.006,0.01,0.012,0.016,0.023
			c-0.096-0.152-0.527-1.037-0.984-1.977c-3.361-6.891-5.713-11.295-7.051-11.965c-1.844-0.922-14.612-0.932-15.155-0.932
			c-5.305,0-5.62,0.189-5.829,0.314c-0.492,0.295-0.79,0.475-0.498,8.514c0.119,3.27,0.3,6.541,0.347,7.361
			c-0.66,1.463-1.023,3.877-1.023,5.059v17.438C93.114,129.753,93.456,130.097,93.877,130.097z M97.192,113.101
			c0-0.762,0.617-1.379,1.379-1.379h3.443c0.762,0,1.379,0.617,1.379,1.379s-0.617,1.375-1.379,1.375h-3.443
			C97.81,114.476,97.192,113.863,97.192,113.101z M95.276,92.285c0.611-0.051,2.057-0.113,4.842-0.113
			c7.009,0,13.638,0.354,14.474,0.771c0.113,0.061,0.797,0.557,2.879,4.393c1.27,2.34,2.602,5.07,3.48,6.877
			c0.813,1.66,0.996,2.033,1.121,2.199c0.014,0.018,0.027,0.037,0.043,0.059h-26.47C95.301,100.429,95.09,93.921,95.276,92.285z"/>
	</g>
</g>
<g>
	<g>
		<path id="Suitcase_3_1_" fill="#D1D3D4" d="M176.97,96.186V94.75h7.004v1.436H176.97z M187.233,102.045
			c1.02,0,1.848,0.828,1.848,1.848v15.152h-17.217v-15.152c0-1.02,0.828-1.848,1.846-1.848H187.233z M183.458,105.688
			c0-0.631-1.336-1.143-2.986-1.143s-2.986,0.512-2.986,1.143s1.336,1.143,2.986,1.143S183.458,106.319,183.458,105.688z
			 M175.446,89.167h10.461c0.469,0,0.846,0.26,0.846,0.582v5.855c0,0.32,0.377,0.582,0.844,0.582l0,0
			c0.469,0,0.848-0.262,0.848-0.582V88.87c0-0.73-0.859-1.324-1.924-1.324h-11.688c-1.059,0-1.92,0.594-1.92,1.324v6.734
			c0,0.32,0.377,0.582,0.846,0.582l0,0c0.465,0,0.844-0.262,0.844-0.582v-5.855C174.603,89.426,174.979,89.167,175.446,89.167z
			 M170.688,119.045v-15.152c0-1.666,1.355-3.021,3.021-3.021h13.523c1.668,0,3.023,1.355,3.023,3.021v15.152h2.965v-18.281
			c0-1.898-1.551-3.445-3.449-3.445h-18.602c-1.898,0-3.447,1.547-3.447,3.445v18.281H170.688z M188.19,132.264
			c0,0.512,0.422,0.934,0.934,0.934h0.383c0.512,0,0.934-0.422,0.934-0.934v-0.934h-2.25V132.264z M167.724,120.526v6.227
			c0,1.898,1.549,3.445,3.447,3.445h18.602c1.898,0,3.449-1.547,3.449-3.445v-6.227H167.724z M170.505,132.264
			c0,0.512,0.422,0.934,0.934,0.934h0.381c0.514,0,0.934-0.422,0.934-0.934v-0.934h-2.248V132.264z"/>
	</g>
	<rect x="169.386" y="99.758" fill="#D1D3D4" width="22.633" height="19.291"/>
</g>
<g>
	<path fill="#D1D3D4" d="M261.601,98.934c0-3.844-2.422-5.408-10.059-5.41c-7.898-0.002-10.051,2.041-10.051,5.41
		c0,0.135,0.008,0.256,0.02,0.369c-0.012,0.088-0.02,0.174-0.02,0.264v15.484c0,1.047,0.848,1.895,1.895,1.895
		s1.896-0.848,1.896-1.895v-14.537c0.041-0.406,0.283-0.422,0.311,0.541v11.281v0.082v23.465c0,1.594,1.289,2.883,2.883,2.883
		s2.883-1.289,2.883-2.883v-19.672h0.369v19.672c0,1.594,1.291,2.883,2.881,2.883c1.594,0,2.887-1.289,2.887-2.883v-23.465v-0.082
		v-11.902c0.082-0.24,0.277-0.217,0.277,0.34c0,0.092,0.012,0.178,0.035,0.256v14.021c0,1.047,0.852,1.895,1.898,1.895
		s1.895-0.848,1.895-1.895V99.567c0-0.084-0.008-0.166-0.016-0.248C261.593,99.196,261.601,99.069,261.601,98.934z"/>
	<circle fill="#D1D3D4" cx="251.075" cy="87.402" r="5.425"/>
</g>
<g>
	<circle fill="#D1D3D4" stroke="#D1D3D4" stroke-miterlimit="10" cx="322.619" cy="110.292" r="16.157"/>
	
		<line fill="#FFFFFF" stroke="#FFFFFF" stroke-width="0.5" stroke-miterlimit="10" x1="322.618" y1="93.031" x2="322.618" y2="127.712"/>
	<text transform="matrix(1.026 0 0 1 307.915 112.4673)" fill="#FFFFFF" font-family="'Gotham-Medium'" font-size="16.1731">A</text>
	<text transform="matrix(1.026 0 0 1 323.5752 119.563)" fill="#FFFFFF" font-family="'Gotham-Medium'" font-size="16.1731">C</text>
</g>
</svg>
