<svg id="Layer_1" data-name="Layer 1" xmlns="http://www.w3.org/2000/svg" viewBox="0 0 70 95"><defs><style>.cls-1{fill:#1b4296;}</style></defs><title>Artboard 65 copy 2</title><path class="cls-1" d="M39.25,50.39c.77-3.54,3.14-6.66,5.34-6.66s4.57,3.13,5.34,6.66a12,12,0,0,0,4.55,1,6.7,6.7,0,0,0,6.44-6.93v-5.3a1.63,1.63,0,0,0-1.63-1.63H29.89a1.63,1.63,0,0,0-1.63,1.63v5.3a6.7,6.7,0,0,0,6.44,6.93,12,12,0,0,0,4.55-1Zm10.94,3.52v.9a3.26,3.26,0,0,1-3.26,3.26H42.26A3.26,3.26,0,0,1,39,54.81v-.9a13.52,13.52,0,0,1-4.3.76A9.91,9.91,0,0,1,25,45.28H23.86a.65.65,0,0,1-.65-.65V40.82a.65.65,0,0,1,.65-.65h1.09l.05-1a4.89,4.89,0,0,1,4.89-4.89h29.4a4.89,4.89,0,0,1,4.89,4.89v1h1.14a.65.65,0,0,1,.65.65v3.81a.65.65,0,0,1-.65.65H64.23a10,10,0,0,1-9.75,9.39,13.52,13.52,0,0,1-4.3-.76Zm-33.89,5a.78.78,0,0,1,.31-1.06l.14-.07L6,34.09l2.63-1.2L19.38,56.59l.15-.07a.78.78,0,0,1,1,.46l.44,1A.78.78,0,0,1,20.65,59l-.15.07.54,1.19c1,2.3,3.51,3.43,5.51,2.53s2.76-3.51,1.71-5.81l-.19-.41a2.93,2.93,0,0,1-2.73-1.82A.93.93,0,1,1,27,54a.75.75,0,0,0,1,.44l1.15-.52a.75.75,0,0,0,.3-1,.93.93,0,1,1,1.68-.77,2.93,2.93,0,0,1-.42,3.25l.19.41c1.81,4,.49,8.47-3,10s-7.71-.39-9.52-4.36l-.54-1.19-.14.07a.78.78,0,0,1-1-.46l-.44-1ZM5.59,33.25,5.1,32.18,7.73,31l.49,1.07-2.63,1.2Zm-.87-1.91L4,29.83l2.63-1.2.68,1.5-2.63,1.2Z"/></svg>