<?xml version="1.0" encoding="UTF-8" standalone="no"?>
<svg width="93px" height="19px" viewBox="0 0 93 19" version="1.1" xmlns="http://www.w3.org/2000/svg" xmlns:xlink="http://www.w3.org/1999/xlink">
    <!-- Generator: Sketch 47.1 (45422) - http://www.bohemiancoding.com/sketch -->
    <title>Artboard</title>
    <desc>Created with Sketch.</desc>
    <defs></defs>
    <g id="Page-1" stroke="none" stroke-width="1" fill="none" fill-rule="evenodd">
        <g id="Artboard" fill-rule="nonzero">
            <g id="LogoInterjetPositivo" transform="translate(1.000000, 1.000000)">
                <g id="Group" transform="translate(20.769231, 0.692308)">
                    <path d="M0,5.39615385 C0,4.86538462 0.148883375,4.43782051 0.446650124,4.11346154 C0.744416873,3.78910256 1.13151365,3.62692308 1.60794045,3.62692308 C2.08436725,3.62692308 2.47146402,3.78910256 2.76923077,4.11346154 C3.06699752,4.43782051 3.21588089,4.86538462 3.21588089,5.39615385 L3.21588089,13.9474359 C3.21588089,14.4782051 3.06699752,14.9057692 2.76923077,15.2301282 C2.47146402,15.5544872 2.08436725,15.7166667 1.60794045,15.7166667 C1.13151365,15.7166667 0.744416873,15.5544872 0.446650124,15.2301282 C0.148883375,14.9057692 0,14.4782051 0,13.9474359 L0,5.39615385 Z" id="Shape" fill="#1C4596"></path>
                    <path d="M5.03225806,5.39615385 C5.03225806,4.86538462 5.18114144,4.43782051 5.47890819,4.11346154 C5.77667494,3.78910256 6.16377171,3.62692308 6.65508685,3.62692308 C7.0719603,3.62692308 7.41439206,3.73012821 7.6674938,3.93653846 C7.92059553,4.14294872 8.08436725,4.43782051 8.1439206,4.80641026 C8.45657568,4.37884615 8.87344913,4.05448718 9.37965261,3.83333333 C9.88585608,3.61217949 10.5260546,3.49423077 11.2853598,3.49423077 C11.91067,3.49423077 12.5062035,3.5974359 13.057072,3.78910256 C13.6079404,3.98076923 14.0694789,4.26089744 14.471464,4.62948718 C14.8585608,4.99807692 15.1712159,5.45512821 15.3945409,5.98589744 C15.617866,6.51666667 15.7369727,7.13589744 15.7369727,7.81410256 L15.7369727,13.9474359 C15.7369727,14.4782051 15.5880893,14.9057692 15.2903226,15.2301282 C14.9925558,15.5544872 14.6054591,15.7166667 14.1290323,15.7166667 C13.6526055,15.7166667 13.2655087,15.5544872 12.9677419,15.2301282 C12.6699752,14.9057692 12.5210918,14.4782051 12.5210918,13.9474359 L12.5210918,8.35961538 C12.5210918,7.60769231 12.3126551,7.0474359 11.8957816,6.69358974 C11.4789082,6.33974359 10.9727047,6.16282051 10.3771712,6.16282051 C9.69230769,6.16282051 9.17121588,6.36923077 8.81389578,6.79679487 C8.45657568,7.22435897 8.27791563,7.74038462 8.27791563,8.37435897 L8.27791563,13.9621795 C8.27791563,14.4929487 8.12903226,14.9205128 7.83126551,15.2448718 C7.53349876,15.5692308 7.14640199,15.7314103 6.66997519,15.7314103 C6.19354839,15.7314103 5.80645161,15.5692308 5.50868486,15.2448718 C5.21091811,14.9205128 5.06203474,14.4929487 5.06203474,13.9621795 L5.06203474,5.39615385 L5.03225806,5.39615385 Z" id="Shape" fill="#1C4596"></path>
                    <path d="M18.3275434,6.53141026 L17.6129032,6.53141026 C17.1811414,6.53141026 16.8387097,6.41346154 16.5707196,6.16282051 C16.3176179,5.91217949 16.1836228,5.57307692 16.1836228,5.14551282 C16.1836228,4.7474359 16.3176179,4.40833333 16.5856079,4.14294872 C16.853598,3.8775641 17.1960298,3.74487179 17.5980149,3.74487179 L18.3126551,3.74487179 L18.3126551,1.82820513 C18.3126551,1.2974359 18.4615385,0.869871795 18.7593052,0.530769231 C19.057072,0.206410256 19.4441687,0.0442307692 19.9205955,0.0442307692 C20.3970223,0.0442307692 20.7841191,0.206410256 21.0818859,0.530769231 C21.3796526,0.855128205 21.528536,1.28269231 21.528536,1.82820513 L21.528536,3.74487179 L22.4516129,3.74487179 C22.8684864,3.74487179 23.2406948,3.84807692 23.5384615,4.05448718 C23.8511166,4.26089744 24,4.62948718 24,5.14551282 C24,5.64679487 23.8511166,6.00064103 23.5384615,6.22179487 C23.2258065,6.44294872 22.8684864,6.54615385 22.4516129,6.54615385 L21.528536,6.54615385 L21.528536,13.9621795 C21.528536,14.4929487 21.3796526,14.9352564 21.0818859,15.2596154 C20.7841191,15.5839744 20.3970223,15.7461538 19.9205955,15.7461538 C19.4441687,15.7461538 19.057072,15.5839744 18.7593052,15.2596154 C18.4615385,14.9352564 18.3126551,14.5076923 18.3126551,13.9621795 L18.3126551,6.53141026 L18.3275434,6.53141026 Z" id="Shape" fill="#1C4596"></path>
                    <path d="M26.8734491,10.7628205 C26.9925558,11.5737179 27.3498759,12.1634615 27.9156328,12.5467949 C28.4962779,12.9153846 29.1662531,13.1070513 29.9255583,13.1070513 C30.3424318,13.1070513 30.7295285,13.0333333 31.0868486,12.900641 C31.4441687,12.7679487 31.7717122,12.6205128 32.0694789,12.4583333 C32.3672457,12.2961538 32.6501241,12.1487179 32.9032258,12.0160256 C33.1563275,11.8833333 33.3945409,11.8096154 33.6029777,11.8096154 C33.9454094,11.8096154 34.2580645,11.9570513 34.5260546,12.2519231 C34.7940447,12.5467949 34.9280397,12.8564103 34.9280397,13.1955128 C34.9280397,13.5346154 34.764268,13.8737179 34.4516129,14.1980769 C34.1240695,14.5224359 33.707196,14.8173077 33.2009926,15.0679487 C32.6947891,15.3185897 32.1141439,15.525 31.4888337,15.6724359 C30.8635236,15.8346154 30.2382134,15.9083333 29.6426799,15.9083333 C28.7344913,15.9083333 27.9007444,15.7461538 27.1563275,15.4365385 C26.4119107,15.1269231 25.7717122,14.699359 25.235732,14.1391026 C24.6997519,13.5935897 24.2828784,12.9448718 24,12.1929487 C23.7022333,11.4410256 23.5533499,10.6153846 23.5533499,9.73076923 C23.5533499,8.91987179 23.7022333,8.12371795 23.9851117,7.37179487 C24.2679901,6.61987179 24.6699752,5.95641026 25.1761787,5.39615385 C25.6823821,4.82115385 26.292804,4.36410256 27.0074442,4.025 C27.7220844,3.68589744 28.4962779,3.50897436 29.3598015,3.50897436 C30.2233251,3.50897436 31.0272953,3.68589744 31.7419355,4.03974359 C32.4565757,4.39358974 33.0669975,4.85064103 33.5880893,5.42564103 C34.0942928,5.98589744 34.4962779,6.61987179 34.764268,7.31282051 C35.0471464,8.00576923 35.1811414,8.68397436 35.1811414,9.3474359 C35.1811414,9.81923077 35.0620347,10.1878205 34.8387097,10.4237179 C34.6153846,10.6596154 34.2580645,10.7775641 33.7667494,10.7775641 L26.8734491,10.7775641 L26.8734491,10.7628205 Z M31.9354839,8.625 C31.8461538,7.9025641 31.5781638,7.31282051 31.146402,6.85576923 C30.7146402,6.39871795 30.1191067,6.16282051 29.3449132,6.16282051 C28.630273,6.16282051 28.0347395,6.39871795 27.5880893,6.88525641 C27.1265509,7.35705128 26.8585608,7.94679487 26.7841191,8.625 L31.9354839,8.625 Z" id="Shape" fill="#1C4596"></path>
                    <path d="M36.2679901,5.21923077 C36.2679901,4.68846154 36.4466501,4.29038462 36.7890819,4.01025641 C37.146402,3.74487179 37.5186104,3.61217949 37.9205955,3.61217949 C38.3523573,3.61217949 38.7245658,3.70064103 39.0372208,3.89230769 C39.3498759,4.08397436 39.4987593,4.42307692 39.4987593,4.95384615 L39.5434243,4.95384615 C39.8411911,4.51153846 40.1687345,4.1724359 40.5260546,3.95128205 C40.8833747,3.73012821 41.3151365,3.61217949 41.82134,3.61217949 C42.2084367,3.61217949 42.5657568,3.75961538 42.9081886,4.03974359 C43.235732,4.31987179 43.3995037,4.7474359 43.3995037,5.33717949 C43.3995037,5.6025641 43.3399504,5.80897436 43.235732,5.95641026 C43.1166253,6.10384615 42.9826303,6.23653846 42.8039702,6.33974359 C42.6253102,6.44294872 42.4168734,6.53141026 42.17866,6.61987179 C41.9404467,6.70833333 41.7171216,6.79679487 41.4640199,6.9 C41.2258065,7.01794872 40.9875931,7.13589744 40.7493797,7.23910256 C40.5111663,7.35705128 40.3027295,7.48974359 40.1240695,7.65192308 C39.9305211,7.81410256 39.7816377,8.00576923 39.6774194,8.22692308 C39.5583127,8.44807692 39.5136476,8.71346154 39.5136476,9.02307692 L39.5136476,13.9474359 C39.5136476,14.4782051 39.3647643,14.9057692 39.0669975,15.2301282 C38.7692308,15.5544872 38.382134,15.7166667 37.9057072,15.7166667 C37.4292804,15.7166667 37.0421836,15.5544872 36.7444169,15.2301282 C36.4466501,14.9057692 36.2977667,14.4782051 36.2977667,13.9474359 L36.2977667,5.21923077 L36.2679901,5.21923077 Z" id="Shape" fill="#1C4596"></path>
                    <path d="M53.3300248,10.7628205 C53.4491315,11.5737179 53.8064516,12.1634615 54.3722084,12.5467949 C54.9528536,12.9153846 55.6228288,13.1070513 56.382134,13.1070513 C56.7990074,13.1070513 57.1861042,13.0333333 57.5434243,12.900641 C57.9007444,12.7679487 58.2282878,12.6205128 58.5260546,12.4583333 C58.8238213,12.2961538 59.1066998,12.1487179 59.3598015,12.0160256 C59.6129032,11.8833333 59.8511166,11.8096154 60.0595533,11.8096154 C60.4019851,11.8096154 60.7146402,11.9570513 60.9826303,12.2519231 C61.2506203,12.5467949 61.3846154,12.8564103 61.3846154,13.1955128 C61.3846154,13.5346154 61.2208437,13.8737179 60.9081886,14.1980769 C60.5806452,14.5224359 60.1637717,14.8173077 59.6575682,15.0679487 C59.1513648,15.3185897 58.5707196,15.525 57.9454094,15.6724359 C57.3200993,15.8346154 56.6947891,15.9083333 56.0992556,15.9083333 C55.1761787,15.9083333 54.3573201,15.7461538 53.6129032,15.4365385 C52.8684864,15.1269231 52.2282878,14.699359 51.6923077,14.1391026 C51.1563275,13.5935897 50.7394541,12.9448718 50.4565757,12.1929487 C50.1588089,11.4410256 50.0248139,10.6153846 50.0248139,9.73076923 C50.0248139,8.91987179 50.1736973,8.12371795 50.4565757,7.37179487 C50.7394541,6.61987179 51.1414392,5.95641026 51.6476427,5.39615385 C52.1538462,4.82115385 52.764268,4.36410256 53.4789082,4.025 C54.1935484,3.68589744 54.9677419,3.50897436 55.8312655,3.50897436 C56.6947891,3.50897436 57.483871,3.68589744 58.2133995,4.03974359 C58.9280397,4.39358974 59.5384615,4.85064103 60.0595533,5.42564103 C60.5657568,5.98589744 60.9677419,6.61987179 61.235732,7.31282051 C61.5186104,8.00576923 61.6526055,8.68397436 61.6526055,9.3474359 C61.6526055,9.81923077 61.5334988,10.1878205 61.3101737,10.4237179 C61.0868486,10.6596154 60.7295285,10.7775641 60.2382134,10.7775641 L53.3300248,10.7775641 L53.3300248,10.7628205 Z M58.3920596,8.625 C58.3027295,7.9025641 58.0347395,7.31282051 57.6029777,6.85576923 C57.1712159,6.39871795 56.5756824,6.16282051 55.8014888,6.16282051 C55.0868486,6.16282051 54.4913151,6.39871795 54.044665,6.88525641 C53.5831266,7.35705128 53.3151365,7.94679487 53.2406948,8.625 L58.3920596,8.625 Z" id="Shape" fill="#1C4596"></path>
                    <path d="M63.5434243,6.53141026 L62.8287841,6.53141026 C62.3970223,6.53141026 62.0545906,6.41346154 61.7866005,6.16282051 C61.5334988,5.91217949 61.3995037,5.57307692 61.3995037,5.14551282 C61.3995037,4.7474359 61.5334988,4.40833333 61.8014888,4.14294872 C62.0694789,3.8775641 62.4119107,3.74487179 62.8138958,3.74487179 L63.528536,3.74487179 L63.528536,1.82820513 C63.528536,1.2974359 63.6774194,0.869871795 63.9751861,0.530769231 C64.2729529,0.206410256 64.6600496,0.0442307692 65.1364764,0.0442307692 C65.6129032,0.0442307692 66,0.206410256 66.2977667,0.530769231 C66.5955335,0.855128205 66.7444169,1.28269231 66.7444169,1.82820513 L66.7444169,3.74487179 L67.6674938,3.74487179 C68.0843672,3.74487179 68.4565757,3.84807692 68.7543424,4.05448718 C69.0669975,4.26089744 69.2158809,4.62948718 69.2158809,5.14551282 C69.2158809,5.64679487 69.0669975,6.00064103 68.7543424,6.22179487 C68.4416873,6.44294872 68.0843672,6.54615385 67.6674938,6.54615385 L66.7444169,6.54615385 L66.7444169,13.9621795 C66.7444169,14.4929487 66.5955335,14.9352564 66.2977667,15.2596154 C66,15.5839744 65.6129032,15.7461538 65.1364764,15.7461538 C64.6600496,15.7461538 64.2729529,15.5839744 63.9751861,15.2596154 C63.6774194,14.9352564 63.528536,14.5076923 63.528536,13.9621795 L63.528536,6.53141026 L63.5434243,6.53141026 Z" id="Shape" fill="#1C4596"></path>
                    <path d="M45.3200993,12.9153846 C45.6327543,13.0628205 45.8114144,12.9301282 45.8114144,12.9301282 C45.9751861,12.8121795 46.0794045,12.6647436 46.1538462,12.4878205 C46.2282878,12.3108974 46.2580645,12.1192308 46.2729529,11.9128205 C46.2878412,11.7064103 46.2878412,11.5294872 46.2878412,11.3673077 L46.2878412,4.92435897 C46.2878412,4.40833333 46.4367246,4.01025641 46.7344913,3.73012821 C47.0322581,3.45 47.4044665,3.31730769 47.8511166,3.31730769 C48.2977667,3.31730769 48.6699752,3.45 48.9677419,3.73012821 C49.2655087,4.01025641 49.4143921,4.40833333 49.4143921,4.92435897 L49.4143921,11.5589744 C49.4143921,12.4288462 49.2952854,13.1955128 49.101737,13.6967949 C48.8784119,14.2717949 48.5508685,14.7141026 48.1488834,15.0384615 C47.7617866,15.3628205 47.2406948,15.5987179 46.7493797,15.7314103 C46.7493797,15.7314103 45.528536,15.8788462 44.9776675,15.7461538 C44.426799,15.6134615 44.0545906,15.5397436 43.7270471,15.3628205 C43.3995037,15.1858974 43.1761787,15.0679487 42.7444169,14.6403846 C42.3870968,14.2865385 42.3424318,13.8294872 42.3424318,13.4903846 C42.3424318,13.1512821 42.5359801,12.7974359 42.6699752,12.6794872 C42.7890819,12.5467949 42.9677419,12.4141026 43.0421836,12.3846154 C43.1166253,12.3551282 43.2506203,12.2666667 43.5186104,12.2666667 C43.7866005,12.2666667 43.9801489,12.325641 44.1290323,12.3846154 C44.2779156,12.4435897 44.7245658,12.6352564 44.7245658,12.6352564 L45.3200993,12.9153846 Z" id="Shape" fill="#1E4795"></path>
                </g>
                <g id="Group">
                    <path d="M9.3516678,5.84505495 L9.3516678,3.08571429 L9.3516678,1.00879121 C9.3516678,0.445054945 8.89584752,-5.68434189e-14 8.35180395,-5.68434189e-14 C7.7930565,-5.68434189e-14 7.3519401,0.445054945 7.3519401,1.00879121 L7.3519401,3.08571429 L7.3519401,5.84505495 L5.41102791,3.88681319 L3.95534377,2.41813187 C3.55833901,2.01758242 2.92607216,2.01758242 2.54377127,2.41813187 C2.14676651,2.81868132 2.14676651,3.45659341 2.54377127,3.84230769 L3.99945541,5.31098901 L5.92566372,7.2543956 L1.79387338,7.2543956 L1.13219877,7.2543956 C0.573451327,7.2543956 0.132334922,7.71428571 0.132334922,8.26318681 C0.132334922,8.82692308 0.588155208,9.27197802 1.13219877,9.27197802 L1.73505786,9.27197802 L3.190742,9.27197802 L5.92566372,9.27197802 L3.99945541,11.2302198 L3.01429544,12.2241758 L2.54377127,12.6989011 C2.14676651,13.0994505 2.14676651,13.7373626 2.54377127,14.1379121 C2.94077604,14.5384615 3.57304289,14.5384615 3.97004765,14.1379121 L4.39646018,13.7076923 L5.41102791,12.6692308 L7.3519401,10.710989 L7.3519401,13.5 L7.3519401,14.9093407 L7.3519401,15.5769231 C7.3519401,16.1406593 7.80776038,16.5857143 8.35180395,16.5857143 C8.9105514,16.5857143 9.3516678,16.1258242 9.3516678,15.5769231 L9.3516678,14.9686813 L9.3516678,13.5 L9.3516678,10.7406593 L11.29258,12.6989011 L12.2924438,13.6928571 L12.7482641,14.1675824 C13.1452689,14.5681319 13.7775357,14.5681319 14.1745405,14.1675824 C14.5715453,13.767033 14.5715453,13.1291209 14.1745405,12.7285714 L13.748128,12.2983516 L12.7188564,11.2598901 L10.7779442,9.30164835 L13.5128659,9.30164835 L15.5714091,9.30164835 C16.1301566,9.30164835 16.571273,8.84175824 16.571273,8.29285714 C16.571273,7.72912088 16.1154527,7.28406593 15.5714091,7.28406593 L13.5128659,7.28406593 L10.7779442,7.28406593 L12.7188564,5.32582418 L14.1745405,3.85714286 C14.5715453,3.47142857 14.5715453,2.81868132 14.1745405,2.43296703 C13.7775357,2.03241758 13.1452689,2.03241758 12.762968,2.43296703 L11.3072839,3.90164835 L9.3516678,5.84505495 Z" id="Shape" fill="#6CACDE"></path>
                    <path d="M12.7041525,11.2598901 C13.1011572,11.6604396 13.1011572,12.2983516 12.7041525,12.6840659 C12.3071477,13.0846154 11.6748809,13.0846154 11.2778761,12.6840659 L9.51341048,10.9038462 L7.92539142,9.30164835 L3.190742,9.30164835 C2.63199455,9.30164835 2.19087815,8.85659341 2.19087815,8.29285714 C2.19087815,7.72912088 2.64669843,7.28406593 3.190742,7.28406593 L7.92539142,7.28406593 L9.3516678,5.85989011 L11.29258,3.90164835 C11.6895848,3.5010989 12.3218516,3.5010989 12.7041525,3.90164835 C13.1011572,4.3021978 13.1011572,4.94010989 12.7041525,5.32582418 L10.7779442,7.26923077 L13.5128659,7.26923077 C14.0716133,7.26923077 14.5127297,7.72912088 14.5127297,8.27802198 C14.5127297,8.84175824 14.0569095,9.28681319 13.5128659,9.28681319 L10.7779442,9.28681319 L12.7041525,11.2598901 Z" id="Shape" fill="#1C4596"></path>
                </g>
            </g>
        </g>
    </g>
</svg>