<?xml version="1.0" encoding="UTF-8" standalone="no"?>
<svg width="34px" height="31px" viewBox="0 0 34 31" version="1.1" xmlns="http://www.w3.org/2000/svg" xmlns:xlink="http://www.w3.org/1999/xlink">
    <!-- Generator: Sketch 47.1 (45422) - http://www.bohemiancoding.com/sketch -->
    <title>Artboard</title>
    <desc>Created with Sketch.</desc>
    <defs></defs>
    <g id="Page-1" stroke="none" stroke-width="1" fill="none" fill-rule="evenodd">
        <g id="Artboard" fill="#1B4298">
            <g id="Group" transform="translate(1.000000, 1.000000)">
                <path d="M16.6153846,15.5454545 L12.1153846,15.5454545 L12.1153846,13.7272727 C12.1153846,13.3258182 11.8052308,13 11.4230769,13 L6.57692308,13 C6.19476923,13 5.88461538,13.3258182 5.88461538,13.7272727 L5.88461538,15.5454545 L1.38461538,15.5454545 C0.619961538,15.5454545 0,16.1967273 0,17 L0,27.5454545 C0,28.3487273 0.619961538,29 1.38461538,29 L16.6153846,29 C17.3800385,29 18,28.3487273 18,27.5454545 L18,17 C18,16.1967273 17.3800385,15.5454545 16.6153846,15.5454545 Z M7.26923077,14.4545455 L10.7307692,14.4545455 L10.7307692,15.5454545 L7.26923077,15.5454545 L7.26923077,14.4545455 Z" id="Shape"></path>
                <path d="M31.9581997,21.2573804 L28.2295889,6.47531446 C28.0423739,5.73309404 27.2882846,5.28145829 26.5376816,5.46813902 L18.4218957,7.48872413 L16.8966341,1.44151534 L17.2348064,1.35735316 C17.6081904,1.26418596 17.835498,0.888400081 17.7417162,0.5171167 C17.6475857,0.146179666 17.2689722,-0.0716722434 16.8955882,0.0214949482 L15.8817687,0.281254776 L15.8807228,0.281254776 L15.8796769,0.281254776 L14.5280337,0.610283891 C14.1546496,0.703451083 13.9273421,1.07542716 14.0211239,1.44671054 C14.1009604,1.7611931 14.3847462,1.96934731 14.6967712,1.96934731 C14.7529008,1.96934731 14.8100763,1.96172769 14.8669032,1.94752749 L15.5428991,1.77885677 L17.7458997,10.5133676 C17.7462484,10.5140603 17.746597,10.5150993 17.7469456,10.515792 L21.1359896,23.951263 C21.2946168,24.5802281 21.8628857,25 22.4876328,25 C22.5995435,25 22.7135459,24.9864925 22.8275483,24.9580921 L30.9440315,22.9378533 C31.3024244,22.8484959 31.610963,22.6212927 31.800967,22.3061174 C31.9916683,21.9916348 32.0481465,21.6141172 31.9581997,21.2573804 Z" id="Shape"></path>
                <circle id="Oval" cx="24.5" cy="26.5" r="1.5"></circle>
            </g>
        </g>
    </g>
</svg>