<?xml version="1.0" encoding="UTF-8"?>
<svg width="21px" height="22px" viewBox="0 0 21 22" version="1.1" xmlns="http://www.w3.org/2000/svg" xmlns:xlink="http://www.w3.org/1999/xlink">
    <!-- Generator: Sketch 47.1 (45422) - http://www.bohemiancoding.com/sketch -->
    <title>Slice 1</title>
    <desc>Created with Sketch.</desc>
    <defs></defs>
    <g id="Page-1" stroke="none" stroke-width="1" fill="none" fill-rule="evenodd">
        <g id="shutterstock_615516971-[Converted]" fill="#1B4298">
            <polygon id="Shape" points="0.678571429 0 9.82142857 0 9.82142857 22 0.678571429 22"></polygon>
            <polyline id="Shape" fill-rule="nonzero" points="11.0357143 22 11.0357143 3.59850507 11.0357143 3 11.6754236 3 20.3494482 3 21 3 21 3.59850507 21 21.4826482 21 21.9695675 21 21.9695675 20.3602907 21.9695675 19.7097388 21.9898558 19.7097388 4.19701014 12.3151329 4.19701014 12.3151329 21.9898558"></polyline>
            <path d="M13.25,6 L15.4234583,6 L15.4234583,8 L13.25,8 L13.25,6 L13.25,6 Z M16.612256,6 L18.7857143,6 L18.7857143,8 L16.612256,8 L16.612256,6 L16.612256,6 Z" id="Shape"></path>
            <path d="M13.25,9 L15.4234583,9 L15.4234583,11 L13.25,11 L13.25,9 L13.25,9 Z M16.612256,9 L18.7857143,9 L18.7857143,11 L16.612256,11 L16.612256,9 L16.612256,9 Z" id="Shape"></path>
            <path d="M13.25,12 L15.4234583,12 L15.4234583,14 L13.25,14 L13.25,12 L13.25,12 Z M16.612256,12 L18.7857143,12 L18.7857143,14 L16.612256,14 L16.612256,12 L16.612256,12 Z" id="Shape"></path>
            <path d="M13.25,15 L15.4234583,15 L15.4234583,17 L13.25,17 L13.25,15 L13.25,15 Z M16.612256,15 L18.7857143,15 L18.7857143,17 L16.612256,17 L16.612256,15 L16.612256,15 Z" id="Shape"></path>
        </g>
    </g>
</svg>