<?xml version="1.0" encoding="UTF-8" standalone="no"?>
<svg width="34px" height="31px" viewBox="0 0 34 31" version="1.1" xmlns="http://www.w3.org/2000/svg" xmlns:xlink="http://www.w3.org/1999/xlink">
    <!-- Generator: Sketch 47.1 (45422) - http://www.bohemiancoding.com/sketch -->
    <title>Artboard</title>
    <desc>Created with Sketch.</desc>
    <defs></defs>
    <g id="Page-1" stroke="none" stroke-width="1" fill="none" fill-rule="evenodd">
        <g id="Artboard" fill-rule="nonzero" fill="#1B4298">
            <g id="otros" transform="translate(9.000000, 5.000000)">
                <path d="M3.13142857,3.69142857 C3.26857143,3.69142857 3.38285714,3.63428571 3.48571429,3.54285714 C3.57714286,3.45142857 3.63428571,3.32571429 3.63428571,3.18857143 L3.63428571,0.4 L0.342857143,3.69142857 L1.16571429,3.69142857 L3.13142857,3.69142857 Z" id="Shape"></path>
                <path d="M8.98285714,11.6342857 L8.98285714,13.3028571 C9.68,13.2228571 10,12.9714286 10,12.5257143 L10,12.4914286 C10,12.0914286 9.77142857,11.8628571 8.98285714,11.6342857 Z" id="Shape"></path>
                <path d="M6.54857143,7.86285714 L6.54857143,7.89714286 C6.54857143,8.29714286 6.76571429,8.51428571 7.57714286,8.74285714 L7.57714286,7.10857143 C6.83428571,7.16571429 6.54857143,7.46285714 6.54857143,7.86285714 Z" id="Shape"></path>
                <path d="M14.9714286,0.102857143 L4.21714286,0.102857143 L4.21714286,3.18857143 C4.21714286,3.47428571 4.10285714,3.74857143 3.89714286,3.95428571 C3.69142857,4.16 3.41714286,4.27428571 3.13142857,4.27428571 L3.13142857,4.27428571 C1.29142857,4.27428571 0.102857143,4.27428571 0.0457142857,4.27428571 L0.0342857143,3.97714286 L0.0342857143,3.97714286 L0.0342857143,19.9085714 C0.0342857143,20.4571429 0.48,20.9028571 1.02857143,20.9028571 L14.9714286,20.9028571 C15.52,20.9028571 15.9657143,20.4571429 15.9657143,19.9085714 L15.9657143,1.09714286 C15.9657143,0.548571429 15.52,0.102857143 14.9714286,0.102857143 Z M12.6285714,12.3314286 C12.6285714,14.1828571 11.2,15.3257143 9.05142857,15.52 L9.05142857,17.0057143 L7.47428571,17.0057143 L7.47428571,15.4857143 C5.98857143,15.3371429 4.51428571,14.8 3.37142857,13.9885714 L4.74285714,11.9657143 C5.71428571,12.6514286 6.62857143,13.0628571 7.56571429,13.2114286 L7.56571429,11.3942857 C5.12,10.8342857 3.87428571,10 3.87428571,8.11428571 L3.87428571,8.08 C3.87428571,6.28571429 5.17714286,5.04 7.49714286,4.88 L7.49714286,4.01142857 L9.07428571,4.01142857 L9.07428571,4.92571429 C10.32,5.06285714 11.36,5.48571429 12.2742857,6.11428571 L11.0285714,8.14857143 C10.4114286,7.70285714 9.68,7.40571429 8.99428571,7.23428571 L8.99428571,8.99428571 C11.4057143,9.55428571 12.6171429,10.4228571 12.6171429,12.2971429 L12.6171429,12.3314286 L12.6285714,12.3314286 Z" id="Shape"></path>
            </g>
        </g>
    </g>
</svg>