<?xml version="1.0" encoding="UTF-8" standalone="no"?>
<svg width="34px" height="31px" viewBox="0 0 34 31" version="1.1" xmlns="http://www.w3.org/2000/svg" xmlns:xlink="http://www.w3.org/1999/xlink">
    <!-- Generator: Sketch 47.1 (45422) - http://www.bohemiancoding.com/sketch -->
    <title>Artboard</title>
    <desc>Created with Sketch.</desc>
    <defs></defs>
    <g id="Page-1" stroke="none" stroke-width="1" fill="none" fill-rule="evenodd">
        <g id="Artboard" fill-rule="nonzero" fill="#1B4298">
            <g id="grupos" transform="translate(3.000000, 6.000000)">
                <g id="Group" transform="translate(16.267072, 0.470781)">
                    <path d="M4.02122226,0.142681666 C2.33313469,0.142681666 0.880437823,1.15149894 0.23479477,2.6041958 C1.67404074,3.45832776 2.64250532,5.0320827 2.64250532,6.82777744 C2.64250532,7.27838249 2.58197628,7.71553664 2.46764366,8.12578899 C2.9451505,8.320827 3.46973548,8.42843417 4.01449681,8.42843417 C6.30114929,8.42843417 8.15737306,6.5722104 8.15737306,4.28555792 C8.16409851,1.99890544 6.30787473,0.142681666 4.02122226,0.142681666 Z" id="Shape"></path>
                    <path d="M6.65087261,8.46878687 C5.89089693,8.95301915 4.98968683,9.22876254 4.02122226,9.22876254 C3.3755792,9.22876254 2.76356339,9.10097902 2.19862572,8.87903922 C1.92960778,9.46415324 1.54625722,9.98873822 1.08220128,10.4191669 C2.68958346,10.9235756 5.94470052,12.2552144 5.94470052,14.6965521 L5.94470052,15.8735056 L10.8004743,15.8735056 C11.170374,15.8735056 11.4662937,15.5775859 11.4662937,15.2076862 L11.4662937,12.1543326 C11.4662937,9.90130739 7.47137732,8.69745211 6.65087261,8.46878687 Z" id="Shape"></path>
                </g>
                <g id="Group" transform="translate(0.145576, 0.509091)">
                    <path d="M8.93812101,6.78946792 C8.93812101,5.02067498 9.87968379,3.46709638 11.2853025,2.59951353 C10.6463849,1.13336576 9.1869626,0.10437215 7.48542414,0.10437215 C5.19877166,0.10437215 3.34254789,1.96059593 3.34254789,4.2472484 C3.34254789,6.53390088 5.19877166,8.39012466 7.48542414,8.39012466 C8.05708726,8.39012466 8.60857403,8.27579203 9.10625722,8.06057768 C8.99865005,7.65705078 8.93812101,7.23334752 8.93812101,6.78946792 Z" id="Shape"></path>
                    <path d="M9.37527516,8.81382791 C8.79016114,9.05594406 8.15796899,9.19045303 7.48542414,9.19045303 C6.51695956,9.19045303 5.61574947,8.90798419 4.85577379,8.43047735 C4.03526908,8.65241715 0.0403526908,9.86299787 0.0403526908,12.1160231 L0.0403526908,15.2164548 C0.0403526908,15.5594527 0.316096078,15.8419216 0.665819398,15.8419216 L5.63592581,15.8419216 L5.63592581,14.6649681 C5.63592581,12.2236303 8.89104287,10.8987169 10.4984251,10.3875829 C10.0343691,9.94370325 9.6442931,9.41239282 9.37527516,8.81382791 Z" id="Shape"></path>
                </g>
                <g id="Group" transform="translate(6.534752, 3.142232)">
                    <path d="M10.0948981,8.3395561 C9.33492247,8.82378839 8.43371237,9.09953177 7.4652478,9.09953177 C6.49678322,9.09953177 5.59557312,8.81706294 4.83559745,8.3395561 C4.01509273,8.5614959 0.0201763454,9.77207662 0.0201763454,12.0251019 L0.0201763454,14.9304956 C0.0201763454,15.3811006 0.383350562,15.7442749 0.83395561,15.7442749 L7.4652478,15.7442749 L14.0561873,15.7442749 C14.5269687,15.7442749 14.9035938,15.3609243 14.9035938,14.8968683 L14.9035938,12.0251019 C14.9103192,9.77207662 10.9154029,8.56822134 10.0948981,8.3395561 Z" id="Shape"></path>
                    <circle id="Oval" cx="7.4652478" cy="4.15632715" r="4.14287625"></circle>
                </g>
            </g>
        </g>
    </g>
</svg>