<?xml version="1.0" encoding="UTF-8" standalone="no"?>
<svg width="34px" height="31px" viewBox="0 0 34 31" version="1.1" xmlns="http://www.w3.org/2000/svg" xmlns:xlink="http://www.w3.org/1999/xlink">
    <!-- Generator: Sketch 47.1 (45422) - http://www.bohemiancoding.com/sketch -->
    <title>Artboard</title>
    <desc>Created with Sketch.</desc>
    <defs></defs>
    <g id="Page-1" stroke="none" stroke-width="1" fill="none" fill-rule="evenodd">
        <g id="Artboard">
            <g id="InterVale" transform="translate(16.849242, 15.849242) rotate(-45.000000) translate(-16.849242, -15.849242) translate(2.849242, 8.849242)">
                <path d="M27.7806194,4.74513684 C26.5846096,4.74513684 25.6158958,5.59451636 25.6158958,6.6431916 C25.6158958,7.69186683 26.5846096,8.54124635 27.7806194,8.54124635 L27.7806194,11.8628422 C26.8844238,11.8628422 26.1570767,12.5005885 26.1570767,13.2863832 L1.62354269,13.2863832 C1.62354269,12.5005885 0.896195567,11.8628422 0,11.8628422 L0,8.54124635 C1.19600978,8.54124635 2.16472359,7.69186683 2.16472359,6.6431916 C2.16472359,5.59451636 1.19600978,4.74513684 0,4.74513684 L0,1.42354106 C0.896195567,1.42354106 1.62354269,0.785794662 1.62354269,0 L26.1570767,0 C26.1570767,0.785794662 26.8844238,1.42354106 27.7806194,1.42354106 L27.7806194,4.74513684 Z" id="Shape" fill="#1B4298" fill-rule="nonzero"></path>
                <path d="M4.14814815,1.5631039 L4.14814815,12.8956072" id="Line" stroke="#FFFFFF" stroke-width="0.5" stroke-linecap="square" stroke-dasharray="2,3"></path>
                <path d="M22.8148148,1.5631039 L22.8148148,12.8956072" id="Line-Copy" stroke="#FFFFFF" stroke-width="0.3" stroke-linecap="square" stroke-dasharray="2,3"></path>
                <path d="M14.525144,5.12520309 L14.525144,3.4417817 L14.525144,2.17895983 C14.525144,1.83838679 14.2427274,1.5631039 13.8928196,1.5631039 C13.5456324,1.5631039 13.2645761,1.83838679 13.2645761,2.17895983 L13.2645761,3.44505645 L13.2645761,5.1255101 L12.0465956,3.9355512 L11.1334241,3.04420772 C10.8868982,2.80290026 10.4876015,2.80290026 10.2426451,3.04441239 C9.99643307,3.28398014 9.99643307,3.67408362 10.2426451,3.91416305 L11.1579093,4.81021397 L12.3711811,5.99618178 L9.77428766,5.99618178 L9.36201592,5.99618178 C9.01472407,5.99618178 8.73105181,6.27279502 8.73105181,6.61367507 C8.73105181,6.95455509 9.01472407,7.23147536 9.36201592,7.23147536 L9.74310569,7.230452 L10.6528241,7.22922399 L12.3723321,7.22922399 L11.1579093,8.41815954 L10.5353162,9.02736362 L10.2440054,9.31236842 C9.99768872,9.5526525 9.99768872,9.94408635 10.2440054,10.1851891 C10.4904267,10.4263943 10.8910837,10.4263943 11.1367725,10.1851891 L11.4066326,9.92249351 L12.048479,9.29118492 L13.2645761,8.10153303 L13.2645761,9.78290771 L13.2645761,10.6448809 L13.2645761,11.0468553 C13.2645761,11.3883493 13.5479344,11.6652696 13.8957494,11.6652696 C14.2442969,11.6652696 14.5265043,11.3883493 14.5265043,11.0468553 L14.5265043,10.6749676 L14.525144,9.78505674 L14.525144,8.10265874 L15.7402992,9.29118492 L16.3640434,9.90049138 L16.654831,10.1851891 C16.9003106,10.4263943 17.3007583,10.4263943 17.5480167,10.1851891 C17.7937055,9.94408635 17.7937055,9.5526525 17.5480167,9.31236842 L17.2781566,9.04844477 L16.6336942,8.42020623 L15.4189575,7.22922399 L17.1395119,7.22922399 L18.4311571,7.22758663 C18.7780304,7.22758663 19.0605517,6.95158738 19.0605517,6.61214003 C19.0605517,6.271567 18.7780304,5.99618178 18.4311571,5.99618178 L17.1364774,5.99618178 L15.4173879,5.99618178 L16.6336942,4.80591587 L17.5457146,3.91078597 C17.7911942,3.67142289 17.7911942,3.28091007 17.5457146,3.04083064 C17.2992933,2.80044421 16.9003106,2.80044421 16.6553542,3.04083064 L15.7397761,3.93677923 L14.525144,5.12520309 Z" id="Fill-1276" fill="#FFFFFF" fill-rule="nonzero"></path>
                <path d="M16.6325327,8.41992995 C16.8786401,8.66011169 16.8786401,9.0511362 16.6325327,9.29142029 C16.3872624,9.53293242 15.9878611,9.53293242 15.7402888,9.29142029 L14.6282014,8.2030807 L13.6317386,7.22905001 L10.6549064,7.22905001 C10.3070913,7.22905001 10.0250933,6.95376713 10.0250933,6.61288707 C10.0250933,6.27231405 10.3070913,5.99611015 10.6549064,5.99611015 L13.6317386,5.99611015 L14.5251335,5.12533613 L15.7398702,3.93660526 C15.9878611,3.69519547 16.3872624,3.69519547 16.6306492,3.93660526 C16.8782216,4.17781038 16.8782216,4.56678817 16.6306492,4.80819796 L15.4173774,5.99611015 L17.1364669,5.99611015 C17.4833402,5.99611015 17.7664893,6.27231405 17.7664893,6.61288707 C17.7664893,6.95376713 17.4833402,7.22905001 17.1364669,7.22905001 L15.418947,7.22905001 L16.6325327,8.41992995 Z" id="Fill-1278" fill="#CCCCCC" fill-rule="nonzero"></path>
            </g>
        </g>
    </g>
</svg>