<?xml version="1.0" encoding="utf-8"?>
<!-- Generator: Adobe Illustrator 16.0.0, SVG Export Plug-In . SVG Version: 6.00 Build 0)  -->
<!DOCTYPE svg PUBLIC "-//W3C//DTD SVG 1.1//EN" "http://www.w3.org/Graphics/SVG/1.1/DTD/svg11.dtd">
<svg version="1.1" id="Layer_1" xmlns="http://www.w3.org/2000/svg" xmlns:xlink="http://www.w3.org/1999/xlink" x="0px" y="0px"
	 width="18px" height="12px" viewBox="0 0 18 12" enable-background="new 0 0 18 12" xml:space="preserve">
<title>Artboard</title>
<desc>Created with Sketch.</desc>
<path fill="#7AB5E2" d="M2.123,6.297c0-0.234,0.082-0.435,0.244-0.601s0.361-0.249,0.596-0.249S3.397,5.53,3.563,5.696
	s0.249,0.366,0.249,0.601S3.729,6.729,3.563,6.893S3.197,7.137,2.963,7.137S2.53,7.056,2.367,6.893S2.123,6.531,2.123,6.297z
	 M4.564,6.297c0-0.234,0.082-0.435,0.244-0.601S5.17,5.447,5.404,5.447S5.839,5.53,6.005,5.696s0.249,0.366,0.249,0.601
	S6.171,6.729,6.005,6.893S5.639,7.137,5.404,7.137S4.971,7.056,4.809,6.893S4.564,6.531,4.564,6.297z M7.006,6.297
	c0-0.234,0.082-0.435,0.244-0.601s0.361-0.249,0.596-0.249S8.28,5.53,8.446,5.696s0.249,0.366,0.249,0.601S8.612,6.729,8.446,6.893
	S8.08,7.137,7.846,7.137S7.413,7.056,7.25,6.893S7.006,6.531,7.006,6.297z M9.447,6.297c0-0.234,0.082-0.435,0.244-0.601
	s0.361-0.249,0.596-0.249s0.435,0.083,0.601,0.249s0.249,0.366,0.249,0.601s-0.083,0.433-0.249,0.596s-0.366,0.244-0.601,0.244
	S9.854,7.056,9.691,6.893S9.447,6.531,9.447,6.297z M11.889,6.297c0-0.234,0.082-0.435,0.244-0.601s0.361-0.249,0.596-0.249
	s0.435,0.083,0.601,0.249s0.249,0.366,0.249,0.601s-0.083,0.433-0.249,0.596s-0.366,0.244-0.601,0.244s-0.434-0.081-0.596-0.244
	S11.889,6.531,11.889,6.297z M14.867,6.17l-2.646-3.379l0.576-0.537l3.838,3.721V6.6l-3.838,3.721l-0.576-0.537l2.646-3.379V6.17z"
	/>
</svg>
