<?xml version="1.0" encoding="UTF-8"?>
<svg width="30px" height="26px" viewBox="0 0 30 26" version="1.1" xmlns="http://www.w3.org/2000/svg" xmlns:xlink="http://www.w3.org/1999/xlink">
    <!-- Generator: Sketch 45.2 (43514) - http://www.bohemiancoding.com/sketch -->
    <title>Icn_Ruta Copy 4</title>
    <desc>Created with Sketch.</desc>
    <defs>
        <path d="M88.715278,11.9053574 C88.018308,13.3234141 87.3860814,14.7414707 86.7538547,16.1595273 C86.3148196,17.1196455 85.8757844,18.0059084 85.4367493,18.9660266 C85.1440592,19.704579 84.1928163,20 83.6806087,20 C83.3879186,20 83.314746,19.8522895 83.314746,19.5568685 C83.3879186,19.2614476 83.4610911,19.0398818 83.4610911,18.7444609 C83.8998155,16.4565687 84.4116089,14.1686765 84.8504368,11.8070859 C83.4420239,11.7441978 82.0321959,11.6621629 80.6073626,11.5952733 L80.2415,11.5952733 C79.8756373,11.521418 79.5829472,11.6691285 79.4366022,11.9645495 C79.1439121,12.4815362 78.7780495,12.9985229 78.4121868,13.5155096 C78.1194967,13.9586411 77.7536341,14.1802068 77.2414264,14.1063516 C77.0950814,14.1063516 76.8755638,14.1063516 76.7292188,14.0324963 C76.3633561,13.9586411 76.2901836,13.8109306 76.4365287,13.4416544 C76.8023913,12.7031019 77.1682539,12.0384047 77.5341165,11.2998523 C77.6072891,11.2998523 77.6072891,11.1521418 77.6804616,11.0782866 L76.9487363,11.0782866 C76.8023913,11.0782866 76.6560462,11.0782866 76.5828737,11.0044313 C76.4365287,10.9305761 76.4365287,10.7090103 76.2901836,10.6351551 C76.4365287,10.5612999 76.5097012,10.4874446 76.6560462,10.4135894 C76.9487363,10.3397341 77.314599,10.3397341 77.6072891,10.2658789 C77.314599,9.74889217 77.0219089,9.23190547 76.7292188,8.71491876 C76.5097012,8.34564254 76.2901836,7.97636632 76.070666,7.53323486 C75.924321,7.16395864 75.9974935,7.0901034 76.3633561,7.0901034 L77.2414264,7.0901034 C77.6072891,7.0901034 77.8268066,7.23781388 78.0463242,7.45937962 C78.4853594,8.12407681 78.997567,8.71491876 79.4366022,9.37961595 C79.5097747,9.4534712 79.6561198,9.52732644 79.7292923,9.52732644 C81.4122604,9.37961595 83.0220559,9.23190547 84.705024,9.15805022 C84.705024,9.15805022 84.7781965,9.15805022 84.7781965,9.08419498 C84.705024,8.64106352 84.558679,8.19793205 84.4855064,7.75480059 C83.9001262,5.2437223 83.314746,2.80649926 82.6561933,0.295420975 C82.5830208,0.0738552437 82.6561933,0 82.8757109,0 C83.7537812,0 84.3391614,0.369276219 84.705024,1.1816839 C85.8026119,3.17577548 86.9001998,5.2437223 87.9977877,7.23781388 C88.2173052,7.68094535 88.5099953,8.12407681 88.7295129,8.56720827 C88.8026854,8.71491876 88.875858,8.788774 89.0953755,8.788774 C90.6319986,8.64106352 92.1686216,8.64106352 93.7052446,9.01033973 C94.1442798,9.08419498 94.5833149,9.30576071 94.9491776,9.60118168 C95.4613853,9.9704579 95.4613853,10.4874446 94.9491776,10.8567208 C94.5101424,11.1521418 93.9979347,11.3737075 93.5588996,11.521418 C92.3881392,11.8906942 91.2173788,11.8906942 89.9734458,11.8906942 C89.5528656,11.9005664 89.1335929,11.9051602 88.715278,11.9053574 Z" id="path-1"></path>
    </defs>
    <g id="Page-1" stroke="none" stroke-width="1" fill="none" fill-rule="evenodd">
        <g id="cambio-de-itinerario" transform="translate(-694.000000, -765.000000)">
            <g id="Ticket-reg" transform="translate(400.000000, 659.000000)">
                <g id="Info-air" transform="translate(167.000000, 109.000000)">
                    <g id="Avion" transform="translate(58.000000, 0.000000)">
                        <g id="Icn_Ruta-Copy-4">
                            <use fill="#1B4298" fill-rule="evenodd" xlink:href="#path-1"></use>
                            <path stroke="#FAFAFA" stroke-width="3" d="M77.3925751,9.74284282 C77.3507667,9.71521949 77.3061821,9.68926772 77.2586872,9.66529873 L77.4766296,9.77528666 L77.6484475,9.94870766 C77.5629807,9.86244338 77.4774616,9.79513926 77.3925751,9.74284282 Z M77.4231918,12.6193885 L77.4554976,12.6217056 C77.4450432,12.6201982 77.4342227,12.6194762 77.4231918,12.6193885 Z M84.9321756,19.0265549 C84.926959,19.0533946 84.9216719,19.0806157 84.9163048,19.1082643 L84.9342504,19.0269527 L84.9321756,19.0265549 Z M77.369086,9.57828656 C77.4565105,9.66084392 77.5335008,9.75106021 77.6014883,9.84713072 C77.6812135,9.95978742 77.7180375,10.0275636 77.7806452,10.1539474 C77.7729169,10.1383465 77.7620081,10.1182685 77.7203936,10.0594645 C77.6381067,9.94318799 77.530434,9.83392808 77.3925751,9.74284282 C77.2426305,9.65046576 77.0946595,9.60491587 76.9524365,9.58440872 C76.9086743,9.57809866 76.9144455,9.57828656 76.9487363,9.57828656 L77.369086,9.57828656 Z M75.6108274,9.29781036 L75.6143701,9.29602251 C75.6130267,9.29670045 75.6118215,9.29731398 75.6108274,9.29781036 Z M79.7292923,9.08963148 L80.502176,8.3238923 C80.3153855,8.135359 80.1013177,8.02732644 79.7292923,8.02732644 L79.7292923,9.08963148 Z M75.4717039,12.0300157 C75.4885291,11.9975774 75.5060171,11.9639026 75.524259,11.9288118 C75.5248366,11.9277008 75.5254149,11.9265883 75.525994,11.9254745 C75.5652956,11.8498772 75.608092,11.767715 75.6552879,11.6772061 C75.8963822,11.214853 76.0167818,10.9815661 76.1441809,10.7261859 C76.1592846,10.6959094 76.1744867,10.6653225 76.19,10.6340065 L76.6032216,9.79985229 L77.5341165,9.79985229 C77.5192802,9.79985229 77.5045259,9.80006485 77.4898553,9.80048615 C77.1733664,9.80957479 76.8958344,9.91580726 76.6736097,10.080742 L77.6804616,11.0782866 L77.6804616,12.5782866 L76.9487363,12.5782866 C76.7635096,12.5782866 76.6747663,12.5753972 76.5242942,12.5537006 C76.2269252,12.5108229 75.945997,12.4134512 75.6870099,12.2113347 C75.6293314,12.1663217 75.5727411,12.1161135 75.5172999,12.060155 L75.6074786,11.9708098 L75.6074948,11.9707938 L76.5828737,11.0044313 L75.9070602,12.3435639 C75.8283107,12.3038218 75.7551046,12.2595638 75.6870099,12.2113347 C75.6087004,12.1558708 75.5371508,12.095155 75.4717039,12.0300157 C75.4015355,11.9601771 75.3383822,11.8852537 75.2814341,11.8062665 C75.2781249,11.8016766 75.2748366,11.7970729 75.2715691,11.7924557 C75.1918438,11.679799 75.1550198,11.6120228 75.0924121,11.485639 C75.1001404,11.5012399 75.1110492,11.521318 75.1526637,11.5801219 C75.2437964,11.7088981 75.3660661,11.829068 75.525994,11.9254745 C75.5521446,11.9412384 75.579302,11.9563669 75.6074948,11.9707938 C75.6097798,11.971963 75.6120715,11.9731277 75.6143701,11.9742877 L72.9608628,10.6351551 L75.6108274,9.29781036 C75.6045454,9.30094727 75.6066966,9.29940592 75.6357132,9.27988104 C75.7667432,9.19171266 75.8484457,9.14096507 75.9802327,9.07445678 L76.1282698,8.99974761 L76.2890507,8.95917735 C76.5004535,8.90583356 76.647557,8.88462269 76.9644939,8.84907891 C77.1414716,8.82923126 77.2077879,8.81966911 77.2402936,8.81146687 L77.6072891,10.2658789 L76.3019645,11.0048835 C76.2322568,10.8817568 76.1846847,10.797729 76.14519,10.7279683 C76.144853,10.7273731 76.1445167,10.726779 76.1441809,10.7261859 C76.059932,10.5773746 76.0121445,10.4929663 75.8629294,10.2294035 C75.6434118,9.84166342 75.6434118,9.84166342 75.4398351,9.48139753 C75.4242597,9.45519636 75.409466,9.43029666 75.395366,9.40654625 C75.2555885,9.17110269 75.1839697,9.04860183 75.0946179,8.89077716 C74.9609655,8.65470325 74.8415054,8.43113775 74.7265494,8.19908064 L74.6761801,8.08587299 C74.4187759,7.43635856 74.3514495,6.94126086 74.8005209,6.30669497 C75.2364102,5.69075623 75.6806282,5.5901034 76.3633561,5.5901034 L77.2414264,5.5901034 C78.0159007,5.5901034 78.5958312,5.88277407 79.111898,6.40365596 L79.2162408,6.50897229 L79.2979482,6.63267695 C79.4571795,6.87375231 79.5997889,7.06849467 79.9370662,7.51366478 C80.0762212,7.69733457 80.1869401,7.84452412 80.2816795,7.97292675 C80.4430335,8.19161378 80.5580362,8.35580622 80.6882262,8.55291328 L79.4366022,9.37961595 L79.7292923,9.08963148 L79.7292923,9.52732644 L79.5981447,8.03307067 C79.8782085,8.00840051 80.0977198,7.98907516 80.2816795,7.97292675 C80.510352,7.95285336 80.6840903,7.93768894 80.8509152,7.92326954 C81.3219393,7.88255687 81.7188415,7.84949721 82.0997641,7.81959346 C82.3914622,7.79669414 82.6717363,7.77584305 82.9456615,7.75688547 C82.2998633,4.99455695 81.7713297,2.83392614 81.2318572,0.765810825 C80.8293274,-0.453045512 81.6591486,-1.5 82.8757109,-1.5 C84.3254224,-1.5 85.4324461,-0.802883313 86.0451648,0.50571964 C86.4930098,1.31970975 86.8616398,1.99886552 87.6710364,3.49660425 C88.4923839,5.0164575 88.8570373,5.68815927 89.3419043,6.5719681 C89.3781149,6.64506517 89.4205127,6.72519905 89.4717532,6.81769037 C89.5209617,6.90651397 89.5634834,6.98085825 89.6623561,7.15193577 C89.6790281,7.18078306 89.6949574,7.20838318 89.7102128,7.23486538 C91.2729513,7.13603114 92.6573667,7.22130061 94.0104889,7.54107919 C94.683291,7.66537625 95.3336082,7.9837224 95.8263959,8.38442863 C97.1689791,9.35236426 97.1689791,11.1055383 95.7865793,12.101212 C95.2667155,12.4510216 94.660591,12.7333815 94.0063121,12.953138 L94.0101104,12.9519455 C92.8361963,13.3222164 91.9542137,13.3906942 90.0086453,13.3902812 C89.8928155,13.393 89.7764799,13.3953445 89.6595796,13.39732 C89.2518673,14.253903 88.8332701,15.1791184 88.1179998,16.7833127 C87.9309331,17.1924055 87.7823875,17.5078866 87.4499226,18.2069842 C87.3403494,18.4373921 87.291997,18.5391791 87.2315095,18.6669358 C87.063388,19.0220281 86.9294486,19.308679 86.8312352,19.5186647 C86.3177741,20.8142943 84.9212975,21.5 83.6806087,21.5 C82.4648739,21.5 81.814746,20.6250751 81.814746,19.5568685 L81.814746,19.3738668 L81.858744,19.1962329 C81.8531995,19.2186176 81.9366135,18.8930743 81.9480618,18.8391505 C81.9582735,18.7910512 81.9610911,18.7674878 81.9610911,18.7444609 L81.9610911,18.6019398 L82.0058773,18.3806574 L81.9879318,18.461969 C82.1675305,17.5253847 82.2582172,17.0793865 82.6871011,14.9982061 C82.8318586,14.2957632 82.9482456,13.7257074 83.0492482,13.2209375 C82.8595772,13.2111572 82.6486063,13.2002133 82.4096682,13.187782 C81.5082246,13.1408822 81.0620825,13.1182724 80.6073626,13.0952733 L80.5090307,13.0952733 C80.4132252,13.2494687 80.309779,13.4086767 80.1966644,13.5769273 C80.0453691,13.801969 79.9219919,13.978653 79.6487541,14.3648245 C79.0625656,15.2380766 78.1924325,15.713339 77.1484925,15.6059704 C77.0327442,15.6048537 76.9474401,15.6009173 76.8346884,15.5895369 C76.6361745,15.5695003 76.4475726,15.5317359 76.2593759,15.4617074 C75.0743603,15.1356966 74.58254,14.0484912 75.0420427,12.8890162 L75.0924121,12.7758086 C75.2112582,12.5358987 75.3113986,12.3390781 75.4717039,12.0300157 Z"></path>
                        </g>
                    </g>
                </g>
            </g>
        </g>
    </g>
</svg>