<?xml version="1.0" standalone="no"?>
<!DOCTYPE svg PUBLIC "-//W3C//DTD SVG 20010904//EN"
 "http://www.w3.org/TR/2001/REC-SVG-20010904/DTD/svg10.dtd">
<svg version="1.0" xmlns="http://www.w3.org/2000/svg"
 width="16.000000pt" height="16.000000pt" viewBox="0 0 16.000000 16.000000"
 preserveAspectRatio="xMidYMid meet">
<metadata>
Created by potrace 1.11, written by Peter Selinger 2001-2013
</metadata>
<g transform="translate(0.000000,16.000000) scale(0.006400,-0.006400)"
fill="#000000" stroke="none">
<path d="M1205 2443 c-36 -10 -64 -35 -84 -76 -18 -39 -19 -66 -19 -392 0
-192 -1 -354 -1 -358 -1 -4 -117 107 -258 248 -142 141 -268 261 -281 266
-117 46 -235 -70 -192 -188 6 -15 126 -143 267 -284 l255 -257 -363 -1 c-323
-1 -367 -3 -398 -19 -98 -48 -107 -179 -17 -246 26 -20 43 -21 402 -26 l374
-5 -251 -250 c-138 -137 -257 -264 -265 -282 -29 -67 -11 -131 49 -177 42 -32
107 -35 152 -7 17 10 142 129 278 265 156 155 247 240 248 229 0 -10 1 -172 1
-361 1 -323 2 -344 21 -383 22 -46 78 -78 133 -79 36 0 88 32 118 73 20 27 21
39 21 397 l0 370 150 -149 c342 -340 375 -370 411 -377 113 -21 200 63 179
173 -6 33 -41 73 -268 300 l-261 263 363 0 c396 0 410 2 450 59 54 77 23 188
-62 220 -17 7 -166 11 -388 12 l-361 2 178 179 c99 99 211 212 251 250 117
114 132 194 52 270 -35 33 -46 38 -87 38 -26 0 -59 -7 -74 -14 -15 -8 -138
-124 -273 -258 -136 -134 -249 -242 -253 -241 -4 2 -7 165 -7 363 0 347 -1
360 -21 387 -45 60 -102 83 -169 66z"/>
</g>
</svg>
