<svg xmlns="http://www.w3.org/2000/svg" viewBox="0 0 124.218 167.963">
  <defs>
    <style>
      .cls-1 {
        opacity: 0.05;
      }

      .cls-2 {
        opacity: 0.5;
      }

      .cls-3 {
        fill: #0b3684;
      }

      .cls-4 {
        fill: #1b4298;
      }

      .cls-5 {
        fill: #f6f6f6;
      }

      .cls-6 {
        fill: #ef9a45;
      }

      .cls-7 {
        fill: #d2d6db;
      }
    </style>
  </defs>
  <g id="Group_122" data-name="Group 122" transform="translate(-108 -212.662)">
    <ellipse id="Ellipse_2" data-name="Ellipse 2" class="cls-1" cx="43.884" cy="1.175" rx="43.884" ry="1.175" transform="translate(126.807 378.274)"/>
    <g id="Group_87" data-name="Group 87" transform="translate(108 212.662)">
      <g id="Group_82" data-name="Group 82" class="cls-2" transform="translate(7.468 8.508)">
        <path id="Path_100" data-name="Path 100" class="cls-3" d="M31.2,39.447c-4.7,16.323-7.5,31.921-7.5,43.958,0,39.515,23.539,61.573,53.569,75.533a7.967,7.967,0,0,0,7.216.095c30.062-14.023,53.758-36.049,53.758-75.627,0-12.037-2.9-27.573-7.5-43.927a6.5,6.5,0,0,0-4.443-4.6,134.207,134.207,0,0,0-91.478.315A5.828,5.828,0,0,0,31.2,39.447Z" transform="translate(-23.7 -27)"/>
      </g>
      <path id="Path_101" data-name="Path 101" class="cls-4" d="M114.954,10.658a145.285,145.285,0,0,0-105.721,0C3.34,29.6,0,47.967,0,61.9c0,44.589,27.572,68.884,62.109,83.694,34.505-14.81,62.109-39.106,62.109-83.694C124.186,47.967,120.846,29.6,114.954,10.658Z" transform="translate(0 -0.479)"/>
      <path id="Path_102" data-name="Path 102" class="cls-5" d="M127.285,42.945a123.687,123.687,0,0,0-89.839,0C32.4,59.079,29.6,74.677,29.6,86.494c0,37.908,23.444,58.548,52.782,71.153,29.337-12.6,52.782-33.245,52.782-71.153C135.132,74.677,132.327,59.079,127.285,42.945Z" transform="translate(-20.273 -23.629)"/>
      <g id="Group_86" data-name="Group 86" transform="translate(41.912 38.835)">
        <g id="Group_85" data-name="Group 85">
          <g id="Group_84" data-name="Group 84">
            <path id="Path_120" data-name="Path 120" class="cls-6" d="M190.664,88.128h-3.357V83.623a15.723,15.723,0,1,0-31.447,0v4.505H152.5a1.093,1.093,0,0,0-1.1,1.1v28.046a4.524,4.524,0,0,0,4.505,4.505h31.447a4.524,4.524,0,0,0,4.5-4.505V89.233A1.234,1.234,0,0,0,190.664,88.128Zm-15.723,23.453a1.306,1.306,0,0,1-.265.883,1.207,1.207,0,0,1-.839.353h-4.505a1.207,1.207,0,0,1-.839-.353,1.068,1.068,0,0,1-.265-.883l.707-6.36a4.477,4.477,0,0,1-1.855-3.622,4.505,4.505,0,0,1,9.01,0,4.477,4.477,0,0,1-1.855,3.622Zm5.609-23.453H162.574V83.623a8.966,8.966,0,1,1,17.932,0v4.505Z" transform="translate(-151.4 -67.9)"/>
          </g>
        </g>
        <path id="Path_121" data-name="Path 121" class="cls-7" d="M177.223,67.9A15.758,15.758,0,0,0,161.5,83.623v4.505h6.713V83.623a8.966,8.966,0,0,1,17.932,0v4.505h6.713V83.623A15.655,15.655,0,0,0,177.223,67.9Z" transform="translate(-157.039 -67.9)"/>
      </g>
      <path id="Path_122" data-name="Path 122" class="cls-1" d="M62.109,0A144.471,144.471,0,0,0,9.233,9.958C3.34,28.9,0,47.267,0,61.2c0,44.589,27.572,68.884,62.109,83.694Z" transform="translate(0)"/>
    </g>
  </g>
</svg>
