<svg xmlns="http://www.w3.org/2000/svg" viewBox="0 0 24.498 21.834">
  <defs>
    <style>
      .cls-1 {
        fill: #1b4298;
      }
    </style>
  </defs>
  <g id="Group_103" data-name="Group 103" transform="translate(0.036 -0.05)">
    <g id="Group_104" data-name="Group 104" transform="translate(-0.036 0.05)">
      <g id="Group_103-2" data-name="Group 103" transform="translate(0 0)">
        <path id="Path_749" data-name="Path 749" class="cls-1" d="M24.2,8.674,12.592.172a.639.639,0,0,0-.751,0L.224,8.674A.637.637,0,0,0,.975,9.7L12.214,1.473,23.447,9.7a.646.646,0,0,0,.373.124.637.637,0,0,0,.512-.258A.629.629,0,0,0,24.2,8.674Z" transform="translate(0.036 -0.05)"/>
      </g>
    </g>
    <g id="Group_106" data-name="Group 106" transform="translate(2.669 9.841)">
      <g id="Group_105" data-name="Group 105">
        <path id="Path_750" data-name="Path 750" class="cls-1" d="M74.953,204.7a.639.639,0,0,0-.636.636v10.129H69.226v-5.526a3.182,3.182,0,1,0-6.363,0v5.531H57.773V205.336a.636.636,0,0,0-1.273,0v10.77a.639.639,0,0,0,.636.636H63.5a.641.641,0,0,0,.636-.588c0-.014,0-.033,0-.048v-6.167a1.909,1.909,0,1,1,3.818,0v6.167a.147.147,0,0,0,0,.048.637.637,0,0,0,.636.588h6.363a.639.639,0,0,0,.636-.636v-10.77A.651.651,0,0,0,74.953,204.7Z" transform="translate(-56.5 -204.7)"/>
      </g>
    </g>
  </g>
</svg>
