<svg xmlns="http://www.w3.org/2000/svg" viewBox="0 0 239 73.382">
  <defs>
    <style>
      .cls-1 {
        fill: #e6e6e6;
      }

      .cls-2 {
        fill: #f5f5f5;
      }

      .cls-3 {
        fill: #fff;
      }
    </style>
  </defs>
  <g id="Group_127" data-name="Group 127" transform="translate(0 0)">
    <path id="Path_6" data-name="Path 6" class="cls-1" d="M174.529,49.127c.153-.357.306-.662.459-1.019a8.088,8.088,0,0,0,.357,1.019h74.6a14.39,14.39,0,0,0,.611-4.23,15.139,15.139,0,0,0-11.67-14.727,10.322,10.322,0,0,0,.917-4.332,10.6,10.6,0,0,0-20.944-2.344,19.809,19.809,0,0,0-5.758-1.019,16.046,16.046,0,0,0-8.867-9.275,11.756,11.756,0,0,0,.153-1.885,11.408,11.408,0,0,0-21.811-4.688,6.167,6.167,0,0,0-.968-.051,8.656,8.656,0,0,0-8.663,8.663v.306a13.511,13.511,0,0,0-3.159.713,11.818,11.818,0,0,0-23.441,2.14c0,.561.051,1.172.1,1.733a9.722,9.722,0,0,0-7.695,9.478v.408a21.431,21.431,0,0,0-3.16-.255,19.491,19.491,0,0,0-11.924,4.077A10.819,10.819,0,0,0,117.556,32,10.939,10.939,0,0,0,106.6,42.961a10.678,10.678,0,0,0,1.936,6.166Z" transform="translate(-52.379 0.1)"/>
    <path id="Path_7" data-name="Path 7" class="cls-2" d="M254.629,72.527c.153-.357.306-.662.459-1.019a8.082,8.082,0,0,0,.357,1.019h74.6a14.387,14.387,0,0,0,.612-4.23,15.14,15.14,0,0,0-11.67-14.727,10.322,10.322,0,0,0,.917-4.332,10.6,10.6,0,0,0-20.944-2.344,19.809,19.809,0,0,0-5.758-1.019,16.047,16.047,0,0,0-8.867-9.275,11.753,11.753,0,0,0,.153-1.886,11.408,11.408,0,0,0-21.811-4.688,6.167,6.167,0,0,0-.968-.051,8.656,8.656,0,0,0-8.663,8.663v.306a13.512,13.512,0,0,0-3.159.713,11.818,11.818,0,0,0-23.441,2.14c0,.561.051,1.172.1,1.733a9.722,9.722,0,0,0-7.695,9.478v.408a21.431,21.431,0,0,0-3.159-.255,19.492,19.492,0,0,0-11.925,4.077,10.819,10.819,0,0,0-6.115-1.835A10.939,10.939,0,0,0,186.7,66.361a10.678,10.678,0,0,0,1.936,6.166Z" transform="translate(-91.661 -11.375)"/>
    <path id="Path_8" data-name="Path 8" class="cls-2" d="M55.083,95.8c.1-.255.255-.561.357-.815.1.255.153.561.255.815h60.489a12.571,12.571,0,0,0,.51-3.414,12.237,12.237,0,0,0-9.478-11.924,8.87,8.87,0,0,0,.764-3.516,8.587,8.587,0,0,0-16.97-1.886,17.72,17.72,0,0,0-4.688-.815,13,13,0,0,0-7.185-7.491,7.777,7.777,0,0,0,.153-1.529,9.218,9.218,0,0,0-17.632-3.771,3.857,3.857,0,0,0-.764-.051,6.992,6.992,0,0,0-6.981,6.981v.255a14.188,14.188,0,0,0-2.548.561,9.583,9.583,0,0,0-19.008,1.733,12.493,12.493,0,0,0,.1,1.376A7.868,7.868,0,0,0,26.24,80v.306a14.147,14.147,0,0,0-2.6-.2,15.52,15.52,0,0,0-9.631,3.312,8.689,8.689,0,0,0-4.943-1.478A8.873,8.873,0,0,0,.2,90.805,8.444,8.444,0,0,0,1.78,95.8h53.3Z" transform="translate(-0.2 -27.412)"/>
    <path id="Path_752" data-name="Path 752" class="cls-3" d="M169.483,105.6c.1-.255.255-.561.357-.815.1.255.153.561.255.815h60.489a12.572,12.572,0,0,0,.51-3.414,12.237,12.237,0,0,0-9.478-11.924,8.87,8.87,0,0,0,.764-3.516,8.587,8.587,0,0,0-16.969-1.885,17.721,17.721,0,0,0-4.688-.815,13,13,0,0,0-7.185-7.491,7.78,7.78,0,0,0,.153-1.529,9.218,9.218,0,0,0-17.632-3.771,3.856,3.856,0,0,0-.764-.051,6.992,6.992,0,0,0-6.981,6.981v.255a14.188,14.188,0,0,0-2.548.561,9.583,9.583,0,0,0-19.008,1.733,12.5,12.5,0,0,0,.1,1.376A7.868,7.868,0,0,0,140.64,89.8v.306a14.146,14.146,0,0,0-2.6-.2,15.521,15.521,0,0,0-9.631,3.312,8.689,8.689,0,0,0-4.943-1.478,8.873,8.873,0,0,0-8.867,8.867,8.444,8.444,0,0,0,1.58,4.994h53.3Z" transform="translate(-49.666 -32.218)"/>
  </g>
</svg>
