<svg xmlns="http://www.w3.org/2000/svg" viewBox="0 0 515.463 542.16">
  <defs>
    <style>
      .cls-1 {
        fill: #f4e421;
      }

      .cls-2 {
        fill: #f9d423;
      }
    </style>
  </defs>
  <g id="Group_129" data-name="Group 129" transform="translate(-331.325 -916)">
    <path id="Path_763" data-name="Path 763" class="cls-1" d="M107.605,94.5c.4-.4.8-.8,1.2-.8s.8.4,1.2.8l2,3.6c0,.4.4.4.8.4l4,1.2a.861.861,0,0,1,.8.8,1.471,1.471,0,0,1-.4,1.2l-2.4,3.2c-.4.4-.4.4-.4.8v4a1.471,1.471,0,0,1-.4,1.2.751.751,0,0,1-1.2,0l-3.6-1.6h-.8l-3.6,1.2h-1.2a1.471,1.471,0,0,1-.4-1.2l.4-4c0-.4,0-.8-.4-.8l-2.4-3.2a1.47,1.47,0,0,1-.4-1.2.861.861,0,0,1,.8-.8l4-.8a1.4,1.4,0,0,0,.8-.4Z" transform="translate(614.24 1197.367)"/>
    <path id="Path_762" data-name="Path 762" class="cls-1" d="M107.605,94.5c.4-.4.8-.8,1.2-.8s.8.4,1.2.8l2,3.6c0,.4.4.4.8.4l4,1.2a.861.861,0,0,1,.8.8,1.471,1.471,0,0,1-.4,1.2l-2.4,3.2c-.4.4-.4.4-.4.8v4a1.471,1.471,0,0,1-.4,1.2.751.751,0,0,1-1.2,0l-3.6-1.6h-.8l-3.6,1.2h-1.2a1.471,1.471,0,0,1-.4-1.2l.4-4c0-.4,0-.8-.4-.8l-2.4-3.2a1.47,1.47,0,0,1-.4-1.2.861.861,0,0,1,.8-.8l4-.8a1.4,1.4,0,0,0,.8-.4Z" transform="translate(721.781 1034.065)"/>
    <path id="Path_767" data-name="Path 767" class="cls-1" d="M42.631.4a1.47,1.47,0,0,1,1.2-.4c.4,0,.8.4,1.2.8l1.6,3.6c0,.4.4.4.8.8l3.6,1.6c.4,0,.8.4.8,1.2a1.471,1.471,0,0,1-.4,1.2l-2.8,2.8c-.4.4-.4.4-.4.8l-.4,4c0,.4-.4.8-.8,1.2a.751.751,0,0,1-1.2,0l-3.6-2c-.4,0-.8-.4-.8,0l-4,.8a1.415,1.415,0,0,1-1.6-1.6l.8-4v-.8l-2-3.6a.751.751,0,0,1,0-1.2c0-.4.4-.8,1.2-.8l4-.4a1.4,1.4,0,0,0,.8-.4Z" transform="translate(415.827 916)"/>
    <path id="Path_769" data-name="Path 769" class="cls-2" d="M85.69,66.6l17.425,27.009,31.365,8.713-20.91,24.4,1.742,32.236L85.69,147.627,55.2,158.953l1.743-32.236L36.9,102.321l30.494-8.713Z" transform="translate(359.832 1299.207)"/>
    <path id="Path_768" data-name="Path 768" class="cls-2" d="M65.61,66.6,75.863,82.493,94.32,87.62l-12.3,14.355,1.025,18.969L65.61,114.279l-17.944,6.665,1.025-18.969L36.9,87.62l17.944-5.127Z" transform="translate(421.881 1109.031)"/>
    <path id="Path_764" data-name="Path 764" class="cls-2" d="M58.93,66.6,66.8,78.8,80.96,82.729,71.518,93.744l.787,14.555L58.93,103.185,45.161,108.3l.787-14.555L36.9,82.729,50.669,78.8Z" transform="translate(622.441 1077.863)"/>
    <path id="Path_761" data-name="Path 761" class="cls-2" d="M49.251,66.6l4.411,6.837,7.94,2.206-5.293,6.176.441,8.161-7.5-2.867-7.719,2.867.441-8.161L36.9,75.643l7.719-2.206Z" transform="translate(785.186 956.779)"/>
    <path id="Path_770" data-name="Path 770" class="cls-2" d="M61.357,66.6l8.735,13.539,15.722,4.367L75.332,96.734l.873,16.159-14.849-5.677-15.286,5.677.873-16.159L36.9,84.506l15.286-4.367Z" transform="translate(294.425 941.746)"/>
    <path id="Path_766" data-name="Path 766" class="cls-2" d="M55.62,66.6l6.686,10.363,12.034,3.343-8.023,9.36.669,12.368L55.62,97.688l-11.7,4.346.669-12.368L36.9,80.305l11.7-3.343Z" transform="translate(501.54 933.78)"/>
    <path id="Path_765" data-name="Path 765" class="cls-2" d="M59.266,66.6l7.988,12.381,14.378,3.994L72.046,94.158l.8,14.777-13.579-5.192-13.979,5.192.8-14.777L36.9,82.975l13.979-3.994Z" transform="translate(682.766 858.103)"/>
  </g>
</svg>
