<svg xmlns="http://www.w3.org/2000/svg" viewBox="0 0 579 218.516">
  <defs>
    <style>
      .cls-1 {
        opacity: 0.5;
      }

      .cls-2, .cls-4 {
        fill: #fff;
      }

      .cls-2 {
        fill-rule: evenodd;
      }

      .cls-3 {
        opacity: 0.05;
      }
    </style>
  </defs>
  <g id="Group_134" data-name="Group 134" transform="translate(-138 -269.799)">
    <g id="Group_133" data-name="Group 133" class="cls-1" transform="translate(36)">
      <path id="Path_771" data-name="Path 771" class="cls-2" d="M19.564,0l2,17.8,17.524-3.595-16.28,7.4,8.814,15.589L19.564,23.953,7.466,37.192,16.315,21.6,0,14.206,17.559,17.8Z" transform="translate(102 298.47)"/>
      <path id="Path_783" data-name="Path 783" class="cls-2" d="M11.024,0l1.13,10.031,9.875-2.026-9.174,4.168,4.967,8.784-6.8-7.46-6.817,7.46,4.986-8.784L0,8.005l9.895,2.026Z" transform="translate(596.369 379.333)"/>
      <path id="Path_779" data-name="Path 779" class="cls-2" d="M11.259,0l1.154,10.244L22.5,8.176l-9.369,4.257L18.2,21.4l-6.942-7.619L4.3,21.4l5.092-8.971L0,8.176l10.105,2.069Z" transform="translate(159.841 371.959)"/>
      <path id="Path_774" data-name="Path 774" class="cls-2" d="M17.788,0,21.12,14.08l14.425-1.163L23.194,20.46l5.563,13.357L17.788,24.388l-11,9.428L12.351,20.46,0,12.917,14.425,14.08Z" transform="translate(224.598 269.799)"/>
      <path id="Path_777" data-name="Path 777" class="cls-2" d="M29.352,0l5.5,23.233,23.8-1.919L38.272,33.76,47.451,55.8l-18.1-15.558L11.2,55.8,20.38,33.76,0,21.314l23.8,1.919Z" transform="translate(142.681 432.515)"/>
      <path id="Path_776" data-name="Path 776" class="cls-2" d="M13.679,259.2l.193,14.114,13.462-4.181L13.993,273.7l8.121,11.5-8.435-11.262L5.22,285.205l8.121-11.5L0,269.133l13.462,4.181Z" transform="translate(647.182 196.225)"/>
      <path id="Path_778" data-name="Path 778" class="cls-2" d="M12.633,259.2l.179,13.035,12.432-3.861-12.321,4.218,7.5,10.624-7.79-10.4-7.812,10.4,7.5-10.624L0,268.374l12.432,3.861Z" transform="translate(216.863 122.155)"/>
      <path id="Path_780" data-name="Path 780" class="cls-2" d="M4.035,259.2l.057,4.163,3.97-1.233-3.935,1.347,2.4,3.393-2.488-3.322L1.54,266.87l2.4-3.393L0,262.13l3.97,1.233Z" transform="translate(169.721 88.88)"/>
      <path id="Path_781" data-name="Path 781" class="cls-2" d="M16.126,0l3.02,12.764L32.224,11.71l-11.2,6.838L26.07,30.657,16.126,22.11,6.154,30.657,11.2,18.548,0,11.71l13.078,1.054Z" transform="translate(648.776 317.066)"/>
      <path id="Path_782" data-name="Path 782" class="cls-2" d="M14.211,0l2.661,11.248L28.4,10.319,18.53,16.345l4.444,10.671-8.763-7.532L5.423,27.016,9.867,16.345,0,10.319l11.525.929Z" transform="translate(557.037 286.707)"/>
    </g>
    <g id="Group_126" data-name="Group 126" transform="translate(-3719 2596.376)">
      <g id="Group_123" data-name="Group 123" transform="translate(3977.848 -2302.026)">
        <g id="Group_116" data-name="Group 116" transform="translate(0 0)">
          <g id="Group_117" data-name="Group 117" class="cls-3" transform="translate(5.308 5.308)">
            <path id="Path_1" data-name="Path 1" d="M45.168,61.3a10.765,10.765,0,0,1,3.2,7.86,10.455,10.455,0,0,1-3.2,7.678,11.039,11.039,0,0,1-7.981,3.144,11.263,11.263,0,0,1-8.223-3.144A10.19,10.19,0,0,1,25.7,69.164a10.492,10.492,0,0,1,3.265-7.86,11.308,11.308,0,0,1,8.223-3.2A10.846,10.846,0,0,1,45.168,61.3Zm2.479,95.164H26.667l3.446-64.631H44.14Z" transform="translate(-25.7 -35.428)"/>
            <path id="Path_2" data-name="Path 2" d="M109.087,109.657C101.409,101.979,97.6,90.915,97.6,76.586V20.6h18.44V75.86q0,29.2,25.212,29.2,25.121,0,25.091-29.2V20.6h18.138V76.586q0,21.584-11.427,33.071-11.427,11.518-31.923,11.548C127.407,121.205,116.766,117.4,109.087,109.657Z" transform="translate(-54.129 -20.6)"/>
            <path id="Path_3" data-name="Path 3" d="M342.829,62.9a34.779,34.779,0,0,1,13.664,13.6,40.385,40.385,0,0,1,4.958,20.254,40.616,40.616,0,0,1-4.958,20.314,34.542,34.542,0,0,1-13.664,13.664,40.234,40.234,0,0,1-19.77,4.837c-10.218,0-18.259-3.386-24.244-10.218v36.7H281.1V58.907h16.868v9.915a27.652,27.652,0,0,1,10.822-8.1A36.375,36.375,0,0,1,323.059,58,40.932,40.932,0,0,1,342.829,62.9Zm-5.683,51.028c4.232-4.353,6.288-10.036,6.288-17.171,0-7.074-2.116-12.817-6.288-17.171a21.415,21.415,0,0,0-16.082-6.53,22.843,22.843,0,0,0-11.487,2.9,21.35,21.35,0,0,0-8.1,8.283,25.133,25.133,0,0,0-2.963,12.455,25.133,25.133,0,0,0,2.963,12.455,20.944,20.944,0,0,0,8.1,8.283,22.843,22.843,0,0,0,11.487,2.9A20.8,20.8,0,0,0,337.146,113.925Z" transform="translate(-126.686 -35.388)"/>
            <path id="Path_4" data-name="Path 4" d="M441.627,133.151c-5.865-1.632-10.52-3.628-14.027-6.106l6.772-13.483A41.666,41.666,0,0,0,446.645,119a50.283,50.283,0,0,0,14.087,2.056c10.581,0,15.84-2.781,15.84-8.343,0-2.66-1.33-4.474-4.051-5.5a68.5,68.5,0,0,0-12.938-2.963,111.621,111.621,0,0,1-15.236-3.265,23.25,23.25,0,0,1-10.218-6.469c-2.9-3.083-4.293-7.316-4.293-12.817,0-7.195,3.023-12.938,9.009-17.231S452.933,58,463.15,58a72.157,72.157,0,0,1,15.6,1.753,44.362,44.362,0,0,1,12.757,4.776l-6.771,13.483a42.278,42.278,0,0,0-21.7-5.683c-5.2,0-9.129.786-11.85,2.358s-4.051,3.628-4.051,6.167c0,2.842,1.451,4.837,4.293,6.046a65.943,65.943,0,0,0,13.362,3.325,108.953,108.953,0,0,1,14.873,3.265,23.285,23.285,0,0,1,9.976,6.227c2.781,2.9,4.172,7.074,4.172,12.455,0,7.074-3.083,12.757-9.19,16.989-6.167,4.232-14.51,6.348-25.091,6.348A64.129,64.129,0,0,1,441.627,133.151Z" transform="translate(-184.612 -35.388)"/>
            <path id="Path_5" data-name="Path 5" d="M560.465,117.638a10.586,10.586,0,0,1-3.265-7.86,10.36,10.36,0,0,1,3.265-7.8,11.513,11.513,0,0,1,8.222-3.144,10.8,10.8,0,0,1,7.981,3.144,10.437,10.437,0,0,1,3.2,7.8,10.668,10.668,0,0,1-3.2,7.86,10.847,10.847,0,0,1-7.981,3.2A11.559,11.559,0,0,1,560.465,117.638ZM558.228,20.6h20.98L575.64,86.924H561.613Z" transform="translate(-235.856 -20.6)"/>
          </g>
          <g id="Group_2" data-name="Group 2" transform="translate(0 0)">
            <path id="Path_1-2" data-name="Path 1" class="cls-4" d="M45.168,61.3a10.765,10.765,0,0,1,3.2,7.86,10.455,10.455,0,0,1-3.2,7.678,11.039,11.039,0,0,1-7.981,3.144,11.263,11.263,0,0,1-8.223-3.144A10.19,10.19,0,0,1,25.7,69.164a10.492,10.492,0,0,1,3.265-7.86,11.308,11.308,0,0,1,8.223-3.2A10.846,10.846,0,0,1,45.168,61.3Zm2.479,95.164H26.667l3.446-64.631H44.14Z" transform="translate(-25.7 -35.428)"/>
            <path id="Path_2-2" data-name="Path 2" class="cls-4" d="M109.087,109.657C101.409,101.979,97.6,90.915,97.6,76.586V20.6h18.44V75.86q0,29.2,25.212,29.2,25.121,0,25.091-29.2V20.6h18.138V76.586q0,21.584-11.427,33.071-11.427,11.518-31.923,11.548C127.407,121.205,116.766,117.4,109.087,109.657Z" transform="translate(-54.129 -20.6)"/>
            <path id="Path_3-2" data-name="Path 3" class="cls-4" d="M342.829,62.9a34.779,34.779,0,0,1,13.664,13.6,40.385,40.385,0,0,1,4.958,20.254,40.616,40.616,0,0,1-4.958,20.314,34.542,34.542,0,0,1-13.664,13.664,40.234,40.234,0,0,1-19.77,4.837c-10.218,0-18.259-3.386-24.244-10.218v36.7H281.1V58.907h16.868v9.915a27.652,27.652,0,0,1,10.822-8.1A36.375,36.375,0,0,1,323.059,58,40.932,40.932,0,0,1,342.829,62.9Zm-5.683,51.028c4.232-4.353,6.288-10.036,6.288-17.171,0-7.074-2.116-12.817-6.288-17.171a21.415,21.415,0,0,0-16.082-6.53,22.843,22.843,0,0,0-11.487,2.9,21.35,21.35,0,0,0-8.1,8.283,25.133,25.133,0,0,0-2.963,12.455,25.133,25.133,0,0,0,2.963,12.455,20.944,20.944,0,0,0,8.1,8.283,22.843,22.843,0,0,0,11.487,2.9A20.8,20.8,0,0,0,337.146,113.925Z" transform="translate(-126.686 -35.388)"/>
            <path id="Path_4-2" data-name="Path 4" class="cls-4" d="M441.627,133.151c-5.865-1.632-10.52-3.628-14.027-6.106l6.772-13.483A41.666,41.666,0,0,0,446.645,119a50.283,50.283,0,0,0,14.087,2.056c10.581,0,15.84-2.781,15.84-8.343,0-2.66-1.33-4.474-4.051-5.5a68.5,68.5,0,0,0-12.938-2.963,111.621,111.621,0,0,1-15.236-3.265,23.25,23.25,0,0,1-10.218-6.469c-2.9-3.083-4.293-7.316-4.293-12.817,0-7.195,3.023-12.938,9.009-17.231S452.933,58,463.15,58a72.157,72.157,0,0,1,15.6,1.753,44.362,44.362,0,0,1,12.757,4.776l-6.771,13.483a42.278,42.278,0,0,0-21.7-5.683c-5.2,0-9.129.786-11.85,2.358s-4.051,3.628-4.051,6.167c0,2.842,1.451,4.837,4.293,6.046a65.943,65.943,0,0,0,13.362,3.325,108.953,108.953,0,0,1,14.873,3.265,23.285,23.285,0,0,1,9.976,6.227c2.781,2.9,4.172,7.074,4.172,12.455,0,7.074-3.083,12.757-9.19,16.989-6.167,4.232-14.51,6.348-25.091,6.348A64.129,64.129,0,0,1,441.627,133.151Z" transform="translate(-184.612 -35.388)"/>
            <path id="Path_5-2" data-name="Path 5" class="cls-4" d="M560.465,117.638a10.586,10.586,0,0,1-3.265-7.86,10.36,10.36,0,0,1,3.265-7.8,11.513,11.513,0,0,1,8.222-3.144,10.8,10.8,0,0,1,7.981,3.144,10.437,10.437,0,0,1,3.2,7.8,10.668,10.668,0,0,1-3.2,7.86,10.847,10.847,0,0,1-7.981,3.2A11.559,11.559,0,0,1,560.465,117.638ZM558.228,20.6h20.98L575.64,86.924H561.613Z" transform="translate(-235.856 -20.6)"/>
          </g>
        </g>
      </g>
    </g>
  </g>
</svg>
