<svg xmlns="http://www.w3.org/2000/svg" viewBox="0 0 602.549 186.852">
  <defs>
    <style>
      .cls-1 {
        fill: #e6e6e6;
      }

      .cls-2 {
        fill: #f5f5f5;
      }

      .cls-3 {
        fill: #fff;
      }

      .cls-4 {
        opacity: 0.05;
      }

      .cls-5 {
        fill: #1b4298;
      }
    </style>
  </defs>
  <g id="Group_126" data-name="Group 126" transform="translate(-3851 2351.637)">
    <g id="Group_125" data-name="Group 125" transform="translate(3851 -2351.637)">
      <path id="Path_6" data-name="Path 6" class="cls-1" d="M166.892,43.592c.136-.317.271-.588.407-.9a7.175,7.175,0,0,0,.317.9h66.217a12.772,12.772,0,0,0,.543-3.754,13.437,13.437,0,0,0-10.358-13.071,9.161,9.161,0,0,0,.814-3.845,9.412,9.412,0,0,0-18.59-2.081,17.582,17.582,0,0,0-5.111-.9,14.242,14.242,0,0,0-7.87-8.232,10.436,10.436,0,0,0,.136-1.674A10.125,10.125,0,0,0,174.038,5.87a5.473,5.473,0,0,0-.859-.045,7.683,7.683,0,0,0-7.689,7.689v.271a11.992,11.992,0,0,0-2.8.633,10.489,10.489,0,0,0-20.806,1.9c0,.5.045,1.04.09,1.538a8.629,8.629,0,0,0-6.83,8.413v.362a19.021,19.021,0,0,0-2.8-.226,17.3,17.3,0,0,0-10.584,3.618,9.6,9.6,0,0,0-5.428-1.628,9.71,9.71,0,0,0-9.724,9.724,9.477,9.477,0,0,0,1.719,5.473Z" transform="translate(-58.475 0.1)"/>
      <path id="Path_7" data-name="Path 7" class="cls-2" d="M246.992,66.992c.136-.317.271-.588.407-.9a7.179,7.179,0,0,0,.317.9h66.217a12.77,12.77,0,0,0,.543-3.754,13.437,13.437,0,0,0-10.358-13.071,9.161,9.161,0,0,0,.814-3.845,9.412,9.412,0,0,0-18.59-2.081,17.582,17.582,0,0,0-5.111-.9,14.242,14.242,0,0,0-7.87-8.232,10.432,10.432,0,0,0,.136-1.674,10.125,10.125,0,0,0-19.359-4.161,5.473,5.473,0,0,0-.859-.045,7.683,7.683,0,0,0-7.689,7.689v.271a11.993,11.993,0,0,0-2.8.633,10.489,10.489,0,0,0-20.806,1.9c0,.5.045,1.04.09,1.538a8.629,8.629,0,0,0-6.83,8.413v.362a19.022,19.022,0,0,0-2.8-.226,17.3,17.3,0,0,0-10.584,3.618,9.6,9.6,0,0,0-5.428-1.628,9.709,9.709,0,0,0-9.724,9.724,9.477,9.477,0,0,0,1.719,5.473Z" transform="translate(-102.346 -12.716)"/>
      <path id="Path_8" data-name="Path 8" class="cls-2" d="M48.913,91.325c.09-.226.226-.5.317-.724.09.226.136.5.226.724h53.688a11.158,11.158,0,0,0,.452-3.03A10.861,10.861,0,0,0,95.183,77.71a7.873,7.873,0,0,0,.678-3.121A7.621,7.621,0,0,0,80.8,72.916a15.727,15.727,0,0,0-4.161-.724,11.534,11.534,0,0,0-6.377-6.649,6.9,6.9,0,0,0,.136-1.357,8.182,8.182,0,0,0-15.65-3.347,3.423,3.423,0,0,0-.678-.045,6.206,6.206,0,0,0-6.2,6.2v.226a12.591,12.591,0,0,0-2.261.5A8.506,8.506,0,0,0,28.74,69.252a11.088,11.088,0,0,0,.09,1.221,6.984,6.984,0,0,0-5.518,6.83v.271a12.556,12.556,0,0,0-2.307-.181,13.776,13.776,0,0,0-8.548,2.94A7.712,7.712,0,0,0,8.07,79.022,7.876,7.876,0,0,0,.2,86.892a7.5,7.5,0,0,0,1.4,4.433H48.913Z" transform="translate(-0.2 -30.626)"/>
      <path id="Path_752" data-name="Path 752" class="cls-3" d="M163.313,101.125c.09-.226.226-.5.317-.724.09.226.136.5.226.724h53.688a11.158,11.158,0,0,0,.452-3.03,10.861,10.861,0,0,0-8.413-10.584,7.872,7.872,0,0,0,.678-3.121A7.621,7.621,0,0,0,195.2,82.716a15.728,15.728,0,0,0-4.161-.724,11.535,11.535,0,0,0-6.377-6.649,6.9,6.9,0,0,0,.136-1.357,8.182,8.182,0,0,0-15.65-3.347,3.423,3.423,0,0,0-.678-.045,6.206,6.206,0,0,0-6.2,6.2v.226a12.591,12.591,0,0,0-2.262.5,8.506,8.506,0,0,0-16.871,1.538,11.091,11.091,0,0,0,.09,1.221,6.983,6.983,0,0,0-5.518,6.83v.271a12.555,12.555,0,0,0-2.307-.181,13.776,13.776,0,0,0-8.548,2.94,7.712,7.712,0,0,0-4.387-1.312,7.876,7.876,0,0,0-7.87,7.87,7.5,7.5,0,0,0,1.4,4.433h47.311Z" transform="translate(-56.967 -35.993)"/>
    </g>
    <g id="Group_123" data-name="Group 123" transform="translate(3977.848 -2302.026)">
      <g id="Group_116" data-name="Group 116" transform="translate(0 0)">
        <g id="Group_117" data-name="Group 117" class="cls-4" transform="translate(5.308 5.308)">
          <path id="Path_1" data-name="Path 1" d="M45.168,61.3a10.765,10.765,0,0,1,3.2,7.86,10.455,10.455,0,0,1-3.2,7.678,11.039,11.039,0,0,1-7.981,3.144,11.263,11.263,0,0,1-8.223-3.144A10.19,10.19,0,0,1,25.7,69.164a10.492,10.492,0,0,1,3.265-7.86,11.308,11.308,0,0,1,8.223-3.2A10.846,10.846,0,0,1,45.168,61.3Zm2.479,95.164H26.667l3.446-64.631H44.14Z" transform="translate(-25.7 -35.428)"/>
          <path id="Path_2" data-name="Path 2" d="M109.087,109.657C101.409,101.979,97.6,90.915,97.6,76.586V20.6h18.44V75.86q0,29.2,25.212,29.2,25.121,0,25.091-29.2V20.6h18.138V76.586q0,21.584-11.427,33.071-11.427,11.518-31.923,11.548C127.407,121.205,116.766,117.4,109.087,109.657Z" transform="translate(-54.129 -20.6)"/>
          <path id="Path_3" data-name="Path 3" d="M342.829,62.9a34.779,34.779,0,0,1,13.664,13.6,40.385,40.385,0,0,1,4.958,20.254,40.616,40.616,0,0,1-4.958,20.314,34.542,34.542,0,0,1-13.664,13.664,40.234,40.234,0,0,1-19.77,4.837c-10.218,0-18.259-3.386-24.244-10.218v36.7H281.1V58.907h16.868v9.915a27.652,27.652,0,0,1,10.822-8.1A36.375,36.375,0,0,1,323.059,58,40.932,40.932,0,0,1,342.829,62.9Zm-5.683,51.028c4.232-4.353,6.288-10.036,6.288-17.171,0-7.074-2.116-12.817-6.288-17.171a21.415,21.415,0,0,0-16.082-6.53,22.843,22.843,0,0,0-11.487,2.9,21.35,21.35,0,0,0-8.1,8.283,25.133,25.133,0,0,0-2.963,12.455,25.133,25.133,0,0,0,2.963,12.455,20.944,20.944,0,0,0,8.1,8.283,22.843,22.843,0,0,0,11.487,2.9A20.8,20.8,0,0,0,337.146,113.925Z" transform="translate(-126.686 -35.388)"/>
          <path id="Path_4" data-name="Path 4" d="M441.627,133.151c-5.865-1.632-10.52-3.628-14.027-6.106l6.772-13.483A41.666,41.666,0,0,0,446.645,119a50.283,50.283,0,0,0,14.087,2.056c10.581,0,15.84-2.781,15.84-8.343,0-2.66-1.33-4.474-4.051-5.5a68.5,68.5,0,0,0-12.938-2.963,111.621,111.621,0,0,1-15.236-3.265,23.25,23.25,0,0,1-10.218-6.469c-2.9-3.083-4.293-7.316-4.293-12.817,0-7.195,3.023-12.938,9.009-17.231S452.933,58,463.15,58a72.157,72.157,0,0,1,15.6,1.753,44.362,44.362,0,0,1,12.757,4.776l-6.771,13.483a42.278,42.278,0,0,0-21.7-5.683c-5.2,0-9.129.786-11.85,2.358s-4.051,3.628-4.051,6.167c0,2.842,1.451,4.837,4.293,6.046a65.943,65.943,0,0,0,13.362,3.325,108.953,108.953,0,0,1,14.873,3.265,23.285,23.285,0,0,1,9.976,6.227c2.781,2.9,4.172,7.074,4.172,12.455,0,7.074-3.083,12.757-9.19,16.989-6.167,4.232-14.51,6.348-25.091,6.348A64.129,64.129,0,0,1,441.627,133.151Z" transform="translate(-184.612 -35.388)"/>
          <path id="Path_5" data-name="Path 5" d="M560.465,117.638a10.586,10.586,0,0,1-3.265-7.86,10.36,10.36,0,0,1,3.265-7.8,11.513,11.513,0,0,1,8.222-3.144,10.8,10.8,0,0,1,7.981,3.144,10.437,10.437,0,0,1,3.2,7.8,10.668,10.668,0,0,1-3.2,7.86,10.847,10.847,0,0,1-7.981,3.2A11.559,11.559,0,0,1,560.465,117.638ZM558.228,20.6h20.98L575.64,86.924H561.613Z" transform="translate(-235.856 -20.6)"/>
        </g>
        <g id="Group_2" data-name="Group 2" transform="translate(0 0)">
          <path id="Path_1-2" data-name="Path 1" class="cls-5" d="M45.168,61.3a10.765,10.765,0,0,1,3.2,7.86,10.455,10.455,0,0,1-3.2,7.678,11.039,11.039,0,0,1-7.981,3.144,11.263,11.263,0,0,1-8.223-3.144A10.19,10.19,0,0,1,25.7,69.164a10.492,10.492,0,0,1,3.265-7.86,11.308,11.308,0,0,1,8.223-3.2A10.846,10.846,0,0,1,45.168,61.3Zm2.479,95.164H26.667l3.446-64.631H44.14Z" transform="translate(-25.7 -35.428)"/>
          <path id="Path_2-2" data-name="Path 2" class="cls-5" d="M109.087,109.657C101.409,101.979,97.6,90.915,97.6,76.586V20.6h18.44V75.86q0,29.2,25.212,29.2,25.121,0,25.091-29.2V20.6h18.138V76.586q0,21.584-11.427,33.071-11.427,11.518-31.923,11.548C127.407,121.205,116.766,117.4,109.087,109.657Z" transform="translate(-54.129 -20.6)"/>
          <path id="Path_3-2" data-name="Path 3" class="cls-5" d="M342.829,62.9a34.779,34.779,0,0,1,13.664,13.6,40.385,40.385,0,0,1,4.958,20.254,40.616,40.616,0,0,1-4.958,20.314,34.542,34.542,0,0,1-13.664,13.664,40.234,40.234,0,0,1-19.77,4.837c-10.218,0-18.259-3.386-24.244-10.218v36.7H281.1V58.907h16.868v9.915a27.652,27.652,0,0,1,10.822-8.1A36.375,36.375,0,0,1,323.059,58,40.932,40.932,0,0,1,342.829,62.9Zm-5.683,51.028c4.232-4.353,6.288-10.036,6.288-17.171,0-7.074-2.116-12.817-6.288-17.171a21.415,21.415,0,0,0-16.082-6.53,22.843,22.843,0,0,0-11.487,2.9,21.35,21.35,0,0,0-8.1,8.283,25.133,25.133,0,0,0-2.963,12.455,25.133,25.133,0,0,0,2.963,12.455,20.944,20.944,0,0,0,8.1,8.283,22.843,22.843,0,0,0,11.487,2.9A20.8,20.8,0,0,0,337.146,113.925Z" transform="translate(-126.686 -35.388)"/>
          <path id="Path_4-2" data-name="Path 4" class="cls-5" d="M441.627,133.151c-5.865-1.632-10.52-3.628-14.027-6.106l6.772-13.483A41.666,41.666,0,0,0,446.645,119a50.283,50.283,0,0,0,14.087,2.056c10.581,0,15.84-2.781,15.84-8.343,0-2.66-1.33-4.474-4.051-5.5a68.5,68.5,0,0,0-12.938-2.963,111.621,111.621,0,0,1-15.236-3.265,23.25,23.25,0,0,1-10.218-6.469c-2.9-3.083-4.293-7.316-4.293-12.817,0-7.195,3.023-12.938,9.009-17.231S452.933,58,463.15,58a72.157,72.157,0,0,1,15.6,1.753,44.362,44.362,0,0,1,12.757,4.776l-6.771,13.483a42.278,42.278,0,0,0-21.7-5.683c-5.2,0-9.129.786-11.85,2.358s-4.051,3.628-4.051,6.167c0,2.842,1.451,4.837,4.293,6.046a65.943,65.943,0,0,0,13.362,3.325,108.953,108.953,0,0,1,14.873,3.265,23.285,23.285,0,0,1,9.976,6.227c2.781,2.9,4.172,7.074,4.172,12.455,0,7.074-3.083,12.757-9.19,16.989-6.167,4.232-14.51,6.348-25.091,6.348A64.129,64.129,0,0,1,441.627,133.151Z" transform="translate(-184.612 -35.388)"/>
          <path id="Path_5-2" data-name="Path 5" class="cls-5" d="M560.465,117.638a10.586,10.586,0,0,1-3.265-7.86,10.36,10.36,0,0,1,3.265-7.8,11.513,11.513,0,0,1,8.222-3.144,10.8,10.8,0,0,1,7.981,3.144,10.437,10.437,0,0,1,3.2,7.8,10.668,10.668,0,0,1-3.2,7.86,10.847,10.847,0,0,1-7.981,3.2A11.559,11.559,0,0,1,560.465,117.638ZM558.228,20.6h20.98L575.64,86.924H561.613Z" transform="translate(-235.856 -20.6)"/>
        </g>
      </g>
    </g>
    <g id="Group_124" data-name="Group 124" transform="translate(4241.42 -2229.916)">
      <path id="Path_6-2" data-name="Path 6" class="cls-1" d="M166.892,43.592c.136-.317.271-.588.407-.9a7.175,7.175,0,0,0,.317.9h66.217a12.772,12.772,0,0,0,.543-3.754,13.437,13.437,0,0,0-10.358-13.071,9.161,9.161,0,0,0,.814-3.845,9.412,9.412,0,0,0-18.59-2.081,17.582,17.582,0,0,0-5.111-.9,14.242,14.242,0,0,0-7.87-8.232,10.436,10.436,0,0,0,.136-1.674A10.125,10.125,0,0,0,174.038,5.87a5.473,5.473,0,0,0-.859-.045,7.683,7.683,0,0,0-7.689,7.689v.271a11.992,11.992,0,0,0-2.8.633,10.489,10.489,0,0,0-20.806,1.9c0,.5.045,1.04.09,1.538a8.629,8.629,0,0,0-6.83,8.413v.362a19.021,19.021,0,0,0-2.8-.226,17.3,17.3,0,0,0-10.584,3.618,9.6,9.6,0,0,0-5.428-1.628,9.71,9.71,0,0,0-9.724,9.724,9.477,9.477,0,0,0,1.719,5.473Z" transform="translate(-58.475 0.1)"/>
      <path id="Path_7-2" data-name="Path 7" class="cls-2" d="M246.992,66.992c.136-.317.271-.588.407-.9a7.179,7.179,0,0,0,.317.9h66.217a12.77,12.77,0,0,0,.543-3.754,13.437,13.437,0,0,0-10.358-13.071,9.161,9.161,0,0,0,.814-3.845,9.412,9.412,0,0,0-18.59-2.081,17.582,17.582,0,0,0-5.111-.9,14.242,14.242,0,0,0-7.87-8.232,10.432,10.432,0,0,0,.136-1.674,10.125,10.125,0,0,0-19.359-4.161,5.473,5.473,0,0,0-.859-.045,7.683,7.683,0,0,0-7.689,7.689v.271a11.993,11.993,0,0,0-2.8.633,10.489,10.489,0,0,0-20.806,1.9c0,.5.045,1.04.09,1.538a8.629,8.629,0,0,0-6.83,8.413v.362a19.022,19.022,0,0,0-2.8-.226,17.3,17.3,0,0,0-10.584,3.618,9.6,9.6,0,0,0-5.428-1.628,9.709,9.709,0,0,0-9.724,9.724,9.477,9.477,0,0,0,1.719,5.473Z" transform="translate(-102.346 -12.716)"/>
      <path id="Path_8-2" data-name="Path 8" class="cls-2" d="M48.913,91.325c.09-.226.226-.5.317-.724.09.226.136.5.226.724h53.688a11.158,11.158,0,0,0,.452-3.03A10.861,10.861,0,0,0,95.183,77.71a7.873,7.873,0,0,0,.678-3.121A7.621,7.621,0,0,0,80.8,72.916a15.727,15.727,0,0,0-4.161-.724,11.534,11.534,0,0,0-6.377-6.649,6.9,6.9,0,0,0,.136-1.357,8.182,8.182,0,0,0-15.65-3.347,3.423,3.423,0,0,0-.678-.045,6.206,6.206,0,0,0-6.2,6.2v.226a12.591,12.591,0,0,0-2.261.5A8.506,8.506,0,0,0,28.74,69.252a11.088,11.088,0,0,0,.09,1.221,6.984,6.984,0,0,0-5.518,6.83v.271a12.556,12.556,0,0,0-2.307-.181,13.776,13.776,0,0,0-8.548,2.94A7.712,7.712,0,0,0,8.07,79.022,7.876,7.876,0,0,0,.2,86.892a7.5,7.5,0,0,0,1.4,4.433H48.913Z" transform="translate(-0.2 -30.626)"/>
      <path id="Path_752-2" data-name="Path 752" class="cls-3" d="M163.313,101.125c.09-.226.226-.5.317-.724.09.226.136.5.226.724h53.688a11.158,11.158,0,0,0,.452-3.03,10.861,10.861,0,0,0-8.413-10.584,7.872,7.872,0,0,0,.678-3.121A7.621,7.621,0,0,0,195.2,82.716a15.728,15.728,0,0,0-4.161-.724,11.535,11.535,0,0,0-6.377-6.649,6.9,6.9,0,0,0,.136-1.357,8.182,8.182,0,0,0-15.65-3.347,3.423,3.423,0,0,0-.678-.045,6.206,6.206,0,0,0-6.2,6.2v.226a12.591,12.591,0,0,0-2.262.5,8.506,8.506,0,0,0-16.871,1.538,11.091,11.091,0,0,0,.09,1.221,6.983,6.983,0,0,0-5.518,6.83v.271a12.555,12.555,0,0,0-2.307-.181,13.776,13.776,0,0,0-8.548,2.94,7.712,7.712,0,0,0-4.387-1.312,7.876,7.876,0,0,0-7.87,7.87,7.5,7.5,0,0,0,1.4,4.433h47.311Z" transform="translate(-56.967 -35.993)"/>
    </g>
  </g>
</svg>
