<?xml version="1.0" encoding="utf-8"?>
<!-- Generator: Adobe Illustrator 16.0.0, SVG Export Plug-In . SVG Version: 6.00 Build 0)  -->
<!DOCTYPE svg PUBLIC "-//W3C//DTD SVG 1.1//EN" "http://www.w3.org/Graphics/SVG/1.1/DTD/svg11.dtd">
<svg version="1.1" id="Layer_1" xmlns="http://www.w3.org/2000/svg" xmlns:xlink="http://www.w3.org/1999/xlink" x="0px" y="0px"
	 width="148.102px" height="86.506px" viewBox="0 0 148.102 86.506" enable-background="new 0 0 148.102 86.506"
	 xml:space="preserve">
<g>
	<path fill="#4A68AE" d="M59.649,30.853l13.824,18.97c0.648-0.17,1.334-0.26,2.039-0.26c0.181,0,0.358,0.006,0.537,0.018
		l7.007-15.47L59.649,30.853L59.649,30.853z M65.219,17.772c1.415,0,2.563,1.095,2.563,2.446c0,1.35-1.146,2.445-2.563,2.445h-6.017
		l-1.36,3.005l27.315,3.803l1.841-4.064h-3.801c-1.415,0-2.562-1.096-2.562-2.445c0-1.351,1.146-2.446,2.562-2.446H94.91
		c1.416,0,2.563,1.095,2.563,2.446c0,1.35-1.146,2.445-2.563,2.445h-2.354l-2.87,6.336l5.387,6.206
		c3.183-1.936,6.958-3.058,11.009-3.058c11.319,0,20.499,8.761,20.499,19.564c0,10.804-9.18,19.563-20.499,19.563
		c-9.861,0-18.099-6.65-20.058-15.508l-3.077,0.247c-0.862,3.15-3.866,5.479-7.438,5.479c-4.245,0-7.688-3.285-7.688-7.336
		c0-1.601,0.536-3.08,1.446-4.285l-14.575-20l-2.258,4.986c6.037,3.405,10.085,9.679,10.085,16.854
		c0,10.804-9.18,19.563-20.5,19.563s-20.5-8.76-20.5-19.563c0-10.803,9.18-19.564,20.5-19.564c1.99,0,3.914,0.271,5.732,0.776
		l7.343-16.211c0.337-0.976,1.299-1.683,2.434-1.683h7.691V17.772z M98.381,41.753l6.84,7.878c0.281-0.045,0.569-0.067,0.863-0.067
		c2.829,0,5.125,2.19,5.125,4.892s-2.296,4.892-5.125,4.892c-1.742,0-3.283-0.832-4.21-2.102l-10.688,0.854
		c1.699,6.34,7.727,11.029,14.896,11.029c8.489,0,15.374-6.57,15.374-14.673s-6.885-14.673-15.374-14.673
		C103.277,39.781,100.646,40.499,98.381,41.753L98.381,41.753z M100.986,52.41l-6.547-7.539c-2.062,2.28-3.4,5.176-3.676,8.356
		L100.986,52.41L100.986,52.41z M91.136,41.067l-3.729-4.294l-6.677,14.74c0.751,0.664,1.364,1.471,1.791,2.373l3.081-0.248
		C85.811,48.783,87.875,44.383,91.136,41.067L91.136,41.067z M50.383,42.137l-5.917,13.062c-0.331,0.985-1.3,1.702-2.442,1.702
		c-1.415,0-2.563-1.096-2.563-2.446c0-0.425,0.114-0.827,0.314-1.174l5.923-13.078c-1.177-0.275-2.409-0.421-3.676-0.421
		c-8.49,0-15.375,6.57-15.375,14.673s6.885,14.673,15.375,14.673s15.375-6.57,15.375-14.673
		C57.397,49.293,54.605,44.752,50.383,42.137L50.383,42.137z"/>
</g>
</svg>
