<?xml version="1.0" encoding="utf-8"?>
<!-- Generator: Adobe Illustrator 16.0.0, SVG Export Plug-In . SVG Version: 6.00 Build 0)  -->
<!DOCTYPE svg PUBLIC "-//W3C//DTD SVG 1.1//EN" "http://www.w3.org/Graphics/SVG/1.1/DTD/svg11.dtd">
<svg version="1.1" id="Layer_1" xmlns="http://www.w3.org/2000/svg" xmlns:xlink="http://www.w3.org/1999/xlink" x="0px" y="0px"
	 width="76.404px" height="79.917px" viewBox="3.852 2.654 76.404 79.917" enable-background="new 3.852 2.654 76.404 79.917"
	 xml:space="preserve">
<g>
	<g>
		<path id="Suitcase_3_3_" fill="#4A68AE" d="M53.98,16.625v-2.321h11.326v2.321H53.98z M70.577,26.101
			c1.646,0,2.985,1.339,2.985,2.985V53.59H45.725V29.086c0-1.646,1.34-2.985,2.986-2.985H70.577z M64.475,31.989
			c0-1.021-2.163-1.847-4.83-1.847c-2.668,0-4.83,0.827-4.83,1.847c0,1.02,2.162,1.847,4.83,1.847
			C62.312,33.836,64.475,33.009,64.475,31.989z M51.518,5.274h16.918c0.754,0,1.364,0.422,1.364,0.942v9.467
			c0,0.52,0.611,0.942,1.365,0.942l0,0c0.754,0,1.363-0.422,1.363-0.942V4.796c0-1.183-1.39-2.142-3.104-2.142H50.527
			c-1.715,0-3.104,0.959-3.104,2.142v10.887c0,0.52,0.61,0.942,1.364,0.942l0,0c0.754,0,1.364-0.422,1.364-0.942V6.216
			C50.152,5.696,50.764,5.274,51.518,5.274z M43.826,53.59V29.086c0-2.693,2.19-4.885,4.885-4.885h21.866
			c2.693,0,4.886,2.191,4.886,4.885V53.59h4.793V24.03c0-3.07-2.504-5.574-5.573-5.574H44.605c-3.069,0-5.572,2.504-5.572,5.574
			v29.56H43.826z M72.125,74.962c0,0.829,0.678,1.508,1.508,1.508h0.616c0.83,0,1.509-0.679,1.509-1.508V73.45h-3.633V74.962z
			 M39.032,55.981v10.07c0,3.069,2.503,5.566,5.572,5.566h30.077c3.069,0,5.573-2.497,5.573-5.566v-10.07H39.032z M43.529,74.962
			c0,0.829,0.681,1.508,1.51,1.508h0.615c0.83,0,1.51-0.679,1.51-1.508V73.45h-3.635V74.962z"/>
	</g>
	<g>
		<path id="Suitcase_2_6_" fill="#6CADDF" d="M10.986,54.334c-1.212,0-2.197,0.983-2.197,2.197v13.353H38.05V56.531
			c0-1.214-0.986-2.197-2.198-2.197H10.986z M23.419,60.026c-1.963,0-3.555-0.607-3.555-1.358c0-0.75,1.592-1.358,3.555-1.358
			s3.555,0.608,3.555,1.358C26.974,59.419,25.382,60.026,23.419,60.026z M3.852,69.884V52.758c0-2.26,1.843-4.102,4.104-4.102
			h30.934c2.259,0,4.098,1.842,4.098,4.102v17.126h-3.538V56.531c0-1.982-1.613-3.597-3.597-3.597H10.986
			c-1.981,0-3.596,1.613-3.596,3.597v13.353H3.852z M19.25,47.358v-1.709h8.337v1.709H19.25z M14.309,47.358L14.309,47.358
			c-0.614,0-1.112-0.498-1.112-1.111V24.559c0-1.396,1.133-2.528,2.528-2.528h15.387c1.396,0,2.528,1.132,2.528,2.528v21.688
			c0,0.613-0.498,1.111-1.112,1.111l0,0c-0.612,0-1.11-0.498-1.11-1.111V26.234c0-0.614-0.498-1.111-1.111-1.111H16.532
			c-0.614,0-1.111,0.498-1.111,1.111v20.013C15.42,46.86,14.923,47.358,14.309,47.358z M32.606,80.349h2.676v1.112
			c0,0.61-0.5,1.11-1.111,1.11h-0.454c-0.611,0-1.11-0.5-1.11-1.11V80.349z M11.557,80.349h2.674v1.112c0,0.61-0.5,1.11-1.109,1.11
			h-0.454c-0.611,0-1.11-0.5-1.11-1.11V80.349z M42.986,71.571v3.326c0,2.261-1.839,4.104-4.098,4.104H7.955
			c-2.26,0-4.104-1.843-4.104-4.104v-3.326H42.986z"/>
		<rect x="5.368" y="51.742" fill="#6CADDF" width="35.563" height="18.164"/>
	</g>
	<rect x="41.72" y="22.402" fill="#4A68AE" width="36.591" height="31.19"/>
</g>
</svg>
