<?xml version="1.0" encoding="utf-8"?>
<!-- Generator: Adobe Illustrator 16.0.0, SVG Export Plug-In . SVG Version: 6.00 Build 0)  -->
<!DOCTYPE svg PUBLIC "-//W3C//DTD SVG 1.1//EN" "http://www.w3.org/Graphics/SVG/1.1/DTD/svg11.dtd">
<svg version="1.1" id="Layer_1" xmlns="http://www.w3.org/2000/svg" xmlns:xlink="http://www.w3.org/1999/xlink" x="0px" y="0px"
	 width="249.529px" height="65.681px" viewBox="0 0 249.529 65.681" enable-background="new 0 0 249.529 65.681"
	 xml:space="preserve">
<g>
	<line fill="#6CADDE" stroke="#6CADDE" stroke-miterlimit="10" x1="90.635" y1="11.258" x2="90.635" y2="48.758"/>
	<line fill="none" stroke="#6CADDE" stroke-miterlimit="10" x1="86.523" y1="11.46" x2="94.748" y2="11.46"/>
	<line fill="none" stroke="#6CADDE" stroke-miterlimit="10" x1="86.523" y1="48.459" x2="94.748" y2="48.459"/>
</g>
<g>
	<g>
		<path fill="#6CADDE" d="M21.479,45.595v1.979h-8.697v-1.565l4.686-4.752c0.528-0.54,0.885-1.011,1.07-1.413
			c0.186-0.402,0.278-0.801,0.278-1.197c0-0.587-0.186-1.038-0.556-1.35c-0.371-0.312-0.916-0.468-1.636-0.468
			c-1.202,0-2.123,0.438-2.764,1.314l-1.534-1.26c0.461-0.66,1.081-1.173,1.862-1.539c0.781-0.366,1.654-0.549,2.621-0.549
			c1.281,0,2.304,0.324,3.067,0.972c0.765,0.648,1.146,1.53,1.146,2.646c0,0.684-0.135,1.326-0.404,1.926s-0.787,1.284-1.551,2.052
			l-3.152,3.204H21.479z"/>
		<path fill="#6CADDE" d="M37.441,38.908c0.663,0.702,0.994,1.755,0.994,3.159v5.508h-2.106v-5.22c0-0.839-0.175-1.473-0.522-1.899
			c-0.349-0.426-0.849-0.639-1.5-0.639c-0.708,0-1.275,0.249-1.703,0.747c-0.427,0.499-0.641,1.21-0.641,2.134v4.877h-2.106v-5.22
			c0-0.839-0.175-1.473-0.522-1.899c-0.349-0.426-0.849-0.639-1.5-0.639c-0.72,0-1.29,0.246-1.711,0.738
			c-0.421,0.492-0.632,1.206-0.632,2.143v4.877h-2.107v-9.611h2.006v1.224c0.337-0.432,0.759-0.762,1.265-0.99
			c0.505-0.228,1.067-0.342,1.686-0.342c0.674,0,1.272,0.135,1.795,0.405s0.936,0.669,1.238,1.197
			c0.371-0.504,0.849-0.897,1.433-1.179c0.585-0.282,1.23-0.423,1.938-0.423C35.879,37.854,36.778,38.206,37.441,38.908z"/>
	</g>
</g>
<path fill="#6CADDE" d="M137.845,46.438l-4.055-17.459c-0.096-0.329-0.398-0.556-0.741-0.556H125.6
	c0.361-0.647,0.57-1.404,0.57-2.213c0-2.377-1.801-4.311-4.012-4.311c-2.213,0-4.014,1.934-4.014,4.311
	c0,0.809,0.209,1.565,0.57,2.213h-7.449c-0.342,0-0.645,0.227-0.74,0.556l-4.055,17.459c-0.145,0.492,0.227,0.986,0.74,0.986h29.894
	C137.618,47.425,137.989,46.931,137.845,46.438z M122.158,23.613c1.268,0,2.299,1.166,2.299,2.598c0,0.935-0.439,1.755-1.096,2.213
	h-2.408c-0.656-0.458-1.096-1.278-1.096-2.213C119.857,24.778,120.889,23.613,122.158,23.613z M119.428,42.154l-2.738-3.841
	l-0.943,0.93v2.912h-1.584v-8.466h1.584v3.56l3.521-3.56h2.156l-3.611,3.533l3.643,4.933H119.428z M130.152,42.154h-1.213
	l-0.205-0.609c-0.295,0.244-0.643,0.428-1.045,0.555c-0.402,0.125-0.863,0.189-1.385,0.189c-0.617,0-1.178-0.105-1.682-0.314
	s-0.936-0.506-1.295-0.889c-0.359-0.382-0.639-0.841-0.838-1.378s-0.297-1.135-0.297-1.793c0-0.667,0.098-1.27,0.297-1.809
	c0.199-0.539,0.479-0.997,0.838-1.373c0.359-0.376,0.789-0.666,1.289-0.869s1.051-0.305,1.654-0.305
	c0.484,0,0.934,0.065,1.354,0.196c0.418,0.13,0.791,0.316,1.119,0.558c0.328,0.242,0.598,0.534,0.811,0.875
	c0.215,0.342,0.357,0.725,0.43,1.148h-1.629c-0.098-0.436-0.326-0.772-0.686-1.007c-0.359-0.235-0.82-0.353-1.385-0.353
	c-0.369,0-0.705,0.064-1.008,0.192s-0.564,0.317-0.783,0.568c-0.217,0.25-0.387,0.557-0.506,0.92
	c-0.119,0.364-0.18,0.783-0.18,1.257c0,0.467,0.061,0.883,0.184,1.25c0.121,0.369,0.291,0.68,0.51,0.934
	c0.217,0.255,0.479,0.449,0.781,0.584c0.305,0.135,0.641,0.202,1.008,0.202c0.529,0,0.982-0.077,1.355-0.231
	c0.375-0.153,0.689-0.395,0.947-0.725v-0.885h-2.098v-1.463h3.656V42.154z"/>
<g>
	<g>
		<path fill="#6CADDE" d="M152.451,38.365c0.574,0.648,0.861,1.458,0.861,2.43c0,0.732-0.176,1.398-0.523,1.998
			s-0.873,1.077-1.576,1.431c-0.703,0.354-1.559,0.531-2.57,0.531c-0.842,0-1.654-0.13-2.436-0.388s-1.447-0.614-1.998-1.07
			l0.945-1.818c0.426,0.385,0.945,0.688,1.559,0.909c0.611,0.222,1.244,0.333,1.896,0.333c0.775,0,1.385-0.171,1.828-0.514
			c0.443-0.342,0.666-0.807,0.666-1.395c0-0.587-0.211-1.046-0.633-1.377c-0.42-0.33-1.064-0.495-1.93-0.495h-1.078v-1.602
			l2.68-3.402h-5.359v-1.962h8.039v1.566l-2.865,3.636C151.047,37.321,151.879,37.717,152.451,38.365z"/>
		<path fill="#6CADDE" d="M157.137,43.99c-0.74-0.51-1.326-1.254-1.752-2.232c-0.428-0.978-0.641-2.139-0.641-3.483
			c0-1.344,0.213-2.505,0.641-3.483c0.426-0.978,1.012-1.722,1.752-2.232c0.742-0.51,1.586-0.765,2.529-0.765
			s1.789,0.255,2.537,0.765c0.746,0.51,1.334,1.254,1.76,2.232c0.428,0.979,0.641,2.139,0.641,3.483
			c0,1.344-0.213,2.505-0.641,3.483c-0.426,0.979-1.014,1.723-1.76,2.232c-0.748,0.51-1.594,0.765-2.537,0.765
			S157.879,44.5,157.137,43.99z M161.664,41.604c0.488-0.744,0.732-1.854,0.732-3.33c0-1.476-0.244-2.586-0.732-3.33
			c-0.49-0.744-1.156-1.116-1.998-1.116c-0.832,0-1.492,0.372-1.98,1.116s-0.734,1.854-0.734,3.33c0,1.476,0.246,2.586,0.734,3.33
			c0.488,0.745,1.148,1.116,1.98,1.116C160.508,42.721,161.174,42.35,161.664,41.604z"/>
		<path fill="#6CADDE" d="M175.055,40.453l-1.568,1.584v2.537h-2.107V31.219h2.107v8.064l4.365-4.32h2.529l-3.76,4.032l4.113,5.58
			h-2.563L175.055,40.453z"/>
		<path fill="#6CADDE" d="M190.662,34.963v8.154c0,3.383-1.619,5.076-4.855,5.076c-0.865,0-1.686-0.117-2.461-0.352
			s-1.416-0.573-1.92-1.018l0.943-1.691c0.393,0.348,0.891,0.627,1.492,0.837c0.6,0.21,1.209,0.315,1.828,0.315
			c0.988,0,1.713-0.24,2.174-0.721s0.691-1.211,0.691-2.195v-0.504c-0.359,0.42-0.799,0.737-1.314,0.953
			c-0.518,0.217-1.084,0.324-1.703,0.324c-0.854,0-1.627-0.195-2.316-0.585c-0.691-0.39-1.236-0.938-1.635-1.647
			c-0.4-0.707-0.6-1.518-0.6-2.43c0-0.912,0.199-1.719,0.6-2.421c0.398-0.702,0.943-1.245,1.635-1.629
			c0.689-0.384,1.463-0.576,2.316-0.576c0.652,0,1.244,0.114,1.779,0.342c0.533,0.228,0.98,0.576,1.34,1.044v-1.278H190.662z
			 M187.822,41.47c0.51-0.51,0.766-1.173,0.766-1.989c0-0.804-0.256-1.458-0.766-1.962c-0.512-0.504-1.166-0.756-1.965-0.756
			c-0.809,0-1.469,0.252-1.98,0.756c-0.512,0.504-0.766,1.158-0.766,1.962c0,0.816,0.254,1.479,0.766,1.989
			c0.512,0.511,1.172,0.765,1.98,0.765C186.656,42.234,187.311,41.98,187.822,41.47z"/>
	</g>
</g>
<g>
	<g>
		<path fill="#6CADDE" d="M198.408,45.234c-0.281-1.195-0.422-2.478-0.422-3.848s0.141-2.658,0.422-3.863
			c0.281-1.205,0.684-2.257,1.207-3.157h0.955c-0.553,1.01-0.957,2.095-1.215,3.255s-0.385,2.415-0.385,3.765
			c0,1.35,0.127,2.605,0.385,3.765c0.258,1.16,0.662,2.245,1.215,3.255h-0.955C199.092,47.486,198.689,46.429,198.408,45.234z"/>
		<path fill="#6CADDE" d="M207.672,39.602c0.5,0.26,0.891,0.627,1.172,1.103c0.281,0.476,0.422,1.027,0.422,1.657
			c0,0.641-0.145,1.205-0.436,1.695s-0.691,0.867-1.201,1.133c-0.51,0.265-1.084,0.396-1.721,0.396
			c-1.301,0-2.299-0.457-2.992-1.372c-0.691-0.915-1.039-2.207-1.039-3.877c0-1.17,0.188-2.16,0.563-2.97s0.898-1.422,1.572-1.837
			c0.676-0.415,1.461-0.623,2.361-0.623c0.973,0,1.75,0.19,2.33,0.57l-0.406,0.87c-0.469-0.33-1.105-0.495-1.91-0.495
			c-1.088,0-1.939,0.368-2.557,1.103c-0.619,0.735-0.928,1.803-0.928,3.203c0,0.25,0.014,0.535,0.043,0.855
			c0.242-0.57,0.631-1.013,1.166-1.328c0.533-0.315,1.146-0.473,1.84-0.473C206.598,39.211,207.17,39.342,207.672,39.602z
			 M207.602,44.049c0.443-0.414,0.666-0.967,0.666-1.657s-0.223-1.239-0.666-1.65c-0.445-0.41-1.047-0.615-1.805-0.615
			c-0.498,0-0.936,0.1-1.314,0.3s-0.676,0.475-0.891,0.825c-0.217,0.35-0.324,0.74-0.324,1.17c0,0.4,0.102,0.77,0.303,1.109
			s0.498,0.615,0.891,0.825c0.395,0.21,0.863,0.315,1.406,0.315C206.578,44.672,207.156,44.465,207.602,44.049z"/>
		<path fill="#6CADDE" d="M216.225,39.602c0.502,0.26,0.893,0.627,1.174,1.103c0.281,0.476,0.42,1.027,0.42,1.657
			c0,0.641-0.145,1.205-0.434,1.695c-0.291,0.49-0.691,0.867-1.201,1.133c-0.512,0.265-1.084,0.396-1.721,0.396
			c-1.303,0-2.299-0.457-2.992-1.372s-1.039-2.207-1.039-3.877c0-1.17,0.188-2.16,0.561-2.97c0.375-0.81,0.9-1.422,1.574-1.837
			s1.461-0.623,2.359-0.623c0.975,0,1.75,0.19,2.332,0.57l-0.408,0.87c-0.469-0.33-1.105-0.495-1.91-0.495
			c-1.086,0-1.938,0.368-2.557,1.103c-0.617,0.735-0.926,1.803-0.926,3.203c0,0.25,0.014,0.535,0.041,0.855
			c0.244-0.57,0.633-1.013,1.166-1.328s1.146-0.473,1.84-0.473C215.15,39.211,215.725,39.342,216.225,39.602z M216.154,44.049
			c0.445-0.414,0.668-0.967,0.668-1.657s-0.223-1.239-0.668-1.65c-0.445-0.41-1.047-0.615-1.805-0.615c-0.496,0-0.934,0.1-1.313,0.3
			s-0.678,0.475-0.893,0.825c-0.215,0.35-0.322,0.74-0.322,1.17c0,0.4,0.1,0.77,0.301,1.109s0.5,0.615,0.893,0.825
			s0.861,0.315,1.404,0.315C215.131,44.672,215.709,44.465,216.154,44.049z"/>
		<path fill="#6CADDE" d="M223.326,34.367h0.996v11.129h-0.996V34.367z"/>
		<path fill="#6CADDE" d="M232.793,38.049c0.561,0.335,1.002,0.808,1.32,1.417s0.477,1.305,0.477,2.085s-0.158,1.476-0.477,2.085
			s-0.76,1.085-1.32,1.425c-0.563,0.341-1.189,0.511-1.883,0.511c-0.617,0-1.172-0.141-1.664-0.421s-0.887-0.685-1.188-1.215v1.56
			h-0.955V34.367h0.998v4.74c0.309-0.51,0.705-0.897,1.186-1.163c0.482-0.265,1.023-0.397,1.623-0.397
			C231.604,37.546,232.23,37.714,232.793,38.049z M232.244,44.244c0.422-0.255,0.752-0.617,0.99-1.088
			c0.24-0.47,0.359-1.005,0.359-1.604c0-0.6-0.119-1.135-0.359-1.605c-0.238-0.47-0.568-0.833-0.99-1.088
			c-0.42-0.255-0.889-0.382-1.404-0.382c-0.523,0-0.994,0.127-1.412,0.382c-0.416,0.255-0.744,0.618-0.982,1.088
			c-0.238,0.47-0.357,1.005-0.357,1.605c0,0.6,0.119,1.135,0.357,1.604c0.238,0.471,0.566,0.833,0.982,1.088
			c0.418,0.255,0.889,0.383,1.412,0.383C231.355,44.627,231.824,44.499,232.244,44.244z"/>
		<path fill="#6CADDE" d="M235.797,48.406c0.553-1.01,0.961-2.092,1.223-3.247s0.393-2.413,0.393-3.772
			c0-1.36-0.131-2.618-0.393-3.772c-0.262-1.155-0.67-2.237-1.223-3.248h0.955c0.525,0.9,0.93,1.953,1.217,3.157
			c0.285,1.205,0.428,2.493,0.428,3.863s-0.141,2.654-0.422,3.855c-0.281,1.199-0.688,2.254-1.223,3.164H235.797z"/>
	</g>
</g>
<g>
	<g>
		<path fill="#6CADDE" d="M43.2,46.396c-0.3-1.274-0.449-2.643-0.449-4.104c0-1.461,0.149-2.834,0.449-4.12
			c0.3-1.285,0.729-2.408,1.288-3.368h1.019c-0.589,1.078-1.021,2.235-1.296,3.472c-0.274,1.237-0.411,2.576-0.411,4.016
			c0,1.44,0.137,2.779,0.411,4.016c0.275,1.238,0.707,2.395,1.296,3.473h-1.019C43.929,48.798,43.5,47.67,43.2,46.396z"/>
		<path fill="#6CADDE" d="M54.302,35.475v0.816l-4.39,10.384h-1.169L53.058,36.5h-5.394v2.096h-1.063v-3.12H54.302z"/>
		<path fill="#6CADDE" d="M62.969,41.859c0.354,0.469,0.532,1.035,0.532,1.695c0,0.651-0.165,1.219-0.495,1.705
			c-0.329,0.484-0.801,0.858-1.415,1.119c-0.614,0.262-1.336,0.393-2.165,0.393c-1.259,0-2.248-0.288-2.967-0.864
			s-1.079-1.36-1.079-2.353c0-0.672,0.173-1.239,0.518-1.703c0.345-0.465,0.847-0.813,1.506-1.048
			c-0.54-0.224-0.949-0.546-1.229-0.968c-0.28-0.421-0.42-0.92-0.42-1.496c0-0.907,0.332-1.626,0.996-2.16
			c0.664-0.533,1.556-0.8,2.675-0.8c0.739,0,1.386,0.12,1.94,0.36c0.554,0.24,0.985,0.584,1.296,1.032
			c0.31,0.448,0.464,0.971,0.464,1.568c0,0.576-0.145,1.075-0.435,1.496c-0.289,0.421-0.704,0.744-1.243,0.968
			C62.107,41.038,62.614,41.391,62.969,41.859z M61.605,45.188c0.524-0.405,0.786-0.955,0.786-1.648s-0.262-1.24-0.786-1.64
			s-1.251-0.601-2.18-0.601c-0.919,0-1.641,0.201-2.165,0.601s-0.787,0.946-0.787,1.64c0,0.704,0.26,1.256,0.779,1.656
			s1.244,0.6,2.173,0.6S61.081,45.593,61.605,45.188z M57.522,39.843c0.46,0.363,1.094,0.544,1.903,0.544
			c0.809,0,1.445-0.181,1.91-0.544c0.464-0.362,0.696-0.848,0.696-1.456c0-0.629-0.237-1.125-0.711-1.488
			c-0.475-0.363-1.106-0.544-1.896-0.544c-0.8,0-1.431,0.181-1.896,0.544s-0.696,0.854-0.696,1.472
			C56.834,38.99,57.063,39.481,57.522,39.843z"/>
		<path fill="#6CADDE" d="M66.393,34.971c0.149,0.166,0.225,0.371,0.225,0.616c0,0.128-0.018,0.264-0.053,0.408
			s-0.082,0.312-0.143,0.504l-0.644,2.208h-0.72l0.524-2.304c-0.17-0.053-0.305-0.152-0.404-0.296s-0.15-0.317-0.15-0.52
			c0-0.256,0.075-0.464,0.226-0.624c0.149-0.16,0.339-0.24,0.569-0.24C66.053,34.723,66.242,34.806,66.393,34.971z M68.939,34.971
			c0.149,0.166,0.225,0.371,0.225,0.616c0,0.128-0.018,0.264-0.053,0.408s-0.082,0.312-0.143,0.504l-0.644,2.208h-0.72l0.524-2.304
			c-0.17-0.053-0.305-0.152-0.404-0.296s-0.149-0.317-0.149-0.52c0-0.256,0.074-0.464,0.225-0.624c0.149-0.16,0.339-0.24,0.569-0.24
			C68.6,34.723,68.789,34.806,68.939,34.971z"/>
		<path fill="#6CADDE" d="M70.543,49.779c0.589-1.078,1.023-2.232,1.303-3.464c0.28-1.231,0.42-2.573,0.42-4.024
			c0-1.45-0.14-2.792-0.42-4.024c-0.279-1.232-0.714-2.386-1.303-3.464h1.019c0.56,0.96,0.991,2.083,1.296,3.368
			c0.305,1.286,0.457,2.659,0.457,4.12c0,1.462-0.149,2.832-0.449,4.112s-0.734,2.405-1.304,3.376H70.543z"/>
	</g>
</g>
</svg>
