<?xml version="1.0" encoding="utf-8"?>
<!-- Generator: Adobe Illustrator 16.0.0, SVG Export Plug-In . SVG Version: 6.00 Build 0)  -->
<!DOCTYPE svg PUBLIC "-//W3C//DTD SVG 1.1//EN" "http://www.w3.org/Graphics/SVG/1.1/DTD/svg11.dtd">
<svg version="1.1" id="Layer_1" xmlns="http://www.w3.org/2000/svg" xmlns:xlink="http://www.w3.org/1999/xlink" x="0px" y="0px"
	 width="90.053px" height="61.344px" viewBox="4.496 12.003 90.053 61.344" enable-background="new 4.496 12.003 90.053 61.344"
	 xml:space="preserve">
<path fill="#4A68AE" d="M93.971,26.684c-1.69-2.64-7.427-2.667-7.427-2.667c-2.953,0-1.807,3.641-1.807,3.641s-0.533,0-1.082,0
	c-0.157-0.293-0.246-0.459-0.246-0.459c-2.879-5.032-6.83-11.785-6.83-11.785c-1.646-2.666-5.785-2.858-5.785-2.858
	c-3.188-0.302-21.271-0.553-21.271-0.553s-18.083,0.251-21.271,0.553c0,0-4.141,0.192-5.787,2.858c0,0-3.95,6.753-6.827,11.785
	c0,0-0.09,0.166-0.246,0.459c-0.55,0-1.084,0-1.084,0s1.146-3.641-1.808-3.641c0,0-5.733,0.027-7.426,2.667
	c0,0-1.963,2.724,1.349,3.698c0,0,1.29,0.345,3.526,0.345h3.782c-1.385,2.541-3.123,5.688-3.771,6.664c0,0-1.011,1.377-1.011,3.44
	c0,0-0.065,15.27,1.698,21.29c0,0,0.776,2.666,3.524,2.608h1.192v3.457c0,2.852,2.311,5.16,5.161,5.16h3.097
	c2.852,0,5.161-2.31,5.161-5.16v-3.457h41.479v3.457c0,2.852,2.311,5.16,5.159,5.16h3.098c2.851,0,5.161-2.31,5.161-5.16v-3.457
	h1.193c2.747,0.058,3.524-2.608,3.524-2.608c1.762-6.021,1.697-21.29,1.697-21.29c0.001-2.063-1.011-3.44-1.011-3.44
	c-0.646-0.977-2.385-4.123-3.771-6.664h3.782c2.235,0,3.525-0.345,3.525-0.345C95.936,29.407,93.971,26.684,93.971,26.684z
	 M81.251,48.69c0,1.22-0.396,2.345-1.067,3.256c-0.999,1.359-2.61,2.24-4.428,2.24c-1.379,0-2.637-0.508-3.603-1.348
	c-1.159-1.007-1.893-2.49-1.893-4.148c0-3.033,2.46-5.493,5.494-5.493C78.79,43.197,81.251,45.657,81.251,48.69z M26.891,52.84
	c-0.966,0.841-2.226,1.349-3.604,1.349c-1.815,0-3.427-0.883-4.426-2.24c-0.671-0.912-1.069-2.037-1.069-3.256
	c0-3.034,2.46-5.494,5.495-5.494s5.495,2.46,5.495,5.494C28.783,50.349,28.051,51.833,26.891,52.84z M61.383,59.541H37.662
	c-1.621,0-2.935-1.315-2.935-2.937c0-0.81,0.328-1.545,0.859-2.073c0.532-0.532,1.266-0.86,2.075-0.86h23.721
	c1.619,0,2.936,1.314,2.936,2.936S63.002,59.541,61.383,59.541z M21.937,31.327c-2.267,0-1.488-2.4-1.488-2.4
	c0.229-1.199,2.761-7.718,2.761-7.718c1.725-4.622,5.426-5.08,5.426-5.08c3.132-0.398,20.888-0.461,20.888-0.461
	s17.757,0.063,20.887,0.461c0,0,3.704,0.458,5.428,5.08c0,0,2.532,6.519,2.762,7.718c0,0,0.775,2.4-1.489,2.4H21.937z"/>
</svg>
