<?xml version="1.0" encoding="utf-8"?>
<!-- Generator: Adobe Illustrator 16.0.0, SVG Export Plug-In . SVG Version: 6.00 Build 0)  -->
<!DOCTYPE svg PUBLIC "-//W3C//DTD SVG 1.1//EN" "http://www.w3.org/Graphics/SVG/1.1/DTD/svg11.dtd">
<svg version="1.1" id="Layer_1" xmlns="http://www.w3.org/2000/svg" xmlns:xlink="http://www.w3.org/1999/xlink" x="0px" y="0px"
	 width="63.88px" height="62.198px" viewBox="9.343 9.952 63.88 62.198" enable-background="new 9.343 9.952 63.88 62.198"
	 xml:space="preserve">
<g>
	<path fill="#4A68AC" d="M63.493,39.589l-46.886-0.004l4.332-10.021c0.673-1.557,2.236-2.562,3.985-2.562h18.36v-2.647h-18.36
		c-2.276,0-4.332,1.369-5.208,3.473l-4.9,11.763c-2.691,0.036-4.825,1.918-5.088,4.476c-0.491,4.771-0.51,9.475-0.077,14.052
		l0.367,3.881c0.051,0.541,0.337,1.029,0.757,1.384c0.419,0.352,0.973,0.569,1.562,0.569h0.139v5.679
		c0,1.392,1.128,2.521,2.52,2.521h3.893c1.392,0,2.521-1.129,2.521-2.521v-5.679h17.745h17.736v5.679
		c0,1.392,1.128,2.521,2.521,2.521h3.892c1.393,0,2.521-1.129,2.521-2.521v-5.679h0.147c0.589,0,1.143-0.219,1.562-0.569
		c0.42-0.354,0.707-0.843,0.758-1.384l0.367-3.881c0.433-4.577,0.414-9.28-0.077-14.052C68.317,41.507,66.184,39.625,63.493,39.589z
		 M48.097,59.088c0,0.572-0.47,1.041-1.041,1.041H31.624c-0.572,0-1.041-0.469-1.041-1.041v-2.383c0-0.572,0.469-1.041,1.041-1.041
		h15.433c0.571,0,1.041,0.469,1.041,1.041V59.088z M61.281,52.662c-2.212,0-4.007-1.793-4.007-4.006
		c0-2.214,1.795-4.008,4.007-4.008c2.213,0,4.007,1.794,4.007,4.008C65.288,50.869,63.494,52.662,61.281,52.662z M16.185,52.662
		c-2.212,0-4.006-1.793-4.006-4.006c0-2.214,1.794-4.008,4.006-4.008c2.213,0,4.006,1.794,4.006,4.008
		C20.191,50.869,18.397,52.662,16.185,52.662z"/>
	<path fill="#7AA8D7" d="M70.06,9.952H51.456c-1.739,0-3.162,1.599-3.162,3.553v20.907c0,1.954,1.423,3.553,3.162,3.553H70.06
		c1.737,0,3.162-1.599,3.162-3.553V13.505C73.222,11.551,71.798,9.952,70.06,9.952z"/>
	<g enable-background="new    ">
		<path fill="#FFFFFF" d="M56.794,31.491V14.747h12.107v1.976H59.01v5.129h9.263v1.964H59.01v5.7H69.29v1.976H56.794z"/>
	</g>
</g>
</svg>
