<?xml version="1.0" encoding="utf-8"?>
<!-- Generator: Adobe Illustrator 16.0.0, SVG Export Plug-In . SVG Version: 6.00 Build 0)  -->
<!DOCTYPE svg PUBLIC "-//W3C//DTD SVG 1.1//EN" "http://www.w3.org/Graphics/SVG/1.1/DTD/svg11.dtd">
<svg version="1.1" id="Layer_1" xmlns="http://www.w3.org/2000/svg" xmlns:xlink="http://www.w3.org/1999/xlink" x="0px" y="0px"
	 width="191.25px" height="92.583px" viewBox="0 0 191.25 92.583" enable-background="new 0 0 191.25 92.583" xml:space="preserve">
<g>
	<g>
		<defs>
			<path id="SVGID_1_" d="M361.142,75.591c-0.701,0.879-1.772,1.364-3.016,1.364h-3.453c-0.129-2.156,0.325-3.931,1.36-5.29
				c1.448-1.904,3.765-2.698,5.244-3.023l0.616,3.601C362.11,73.525,361.846,74.714,361.142,75.591z M291.128,75.591
				c-0.702-0.877-0.969-2.066-0.75-3.349l0.613-3.595c1.479,0.33,3.784,1.124,5.224,3.003c1.044,1.362,1.501,3.141,1.371,5.305
				h-3.441C292.902,76.956,291.831,76.471,291.128,75.591z M296.231,37.916c0.49-2.878,3.265-5.313,6.057-5.313h47.694
				c2.792,0,5.566,2.434,6.056,5.313l4.667,27.363c-1.969,0.422-5.104,1.5-7.201,4.235c-1.536,2.004-2.237,4.5-2.095,7.441h-50.559
				c0.143-2.941-0.559-5.437-2.095-7.441c-2.092-2.731-5.223-3.811-7.19-4.233L296.231,37.916z M310.545,18.738
				c0.587-1.534,1.264-2.918,2.026-4.155l2.781,2.301c0.402,0.335,0.92,0.478,1.416,0.34c0.492-0.138,0.883-0.48,1.076-0.97
				c0.14-0.285,1.889-3.551,8.291-3.551c6.4,0,8.15,3.266,8.291,3.551c0.192,0.49,0.584,0.832,1.075,0.97
				c0.127,0.035,0.256,0.052,0.382,0.052c0.37,0,0.735-0.145,1.033-0.393l2.782-2.301c0.749,1.214,1.415,2.571,1.995,4.073
				c1.584,4.108,2.104,8.281,2.273,10.537H308.3C308.468,26.957,308.98,22.836,310.545,18.738z M326.136,7.017
				c4.747,0,8.612,1.639,11.557,4.88l-1.467,1.215c-0.342-0.385-0.769-0.8-1.296-1.209c-2.23-1.731-5.189-2.611-8.794-2.611
				c-3.605,0-6.564,0.88-8.795,2.611c-0.526,0.41-0.953,0.825-1.295,1.209l-1.467-1.215C317.522,8.656,321.387,7.017,326.136,7.017z
				 M365.1,71.643c-3.364-19.928-5.215-30.784-5.554-32.568c-0.34-1.784-0.881-3.521-1.625-5.212
				c-0.525-0.844-1.184-1.622-1.955-2.298c-1.744-1.529-3.869-2.372-5.983-2.372h-2.744c-0.162-2.414-0.701-7.041-2.488-11.721
				c-3.465-9.07-9.901-13.865-18.615-13.865c-8.712,0-15.149,4.795-18.614,13.865c-1.787,4.68-2.327,9.308-2.489,11.721h-2.743
				c-2.115,0-4.239,0.842-5.983,2.372c-1.743,1.529-2.908,3.57-3.28,5.752l-5.854,34.327c-0.391,2.294,0.128,4.473,1.459,6.14
				c1.333,1.667,3.291,2.583,5.515,2.583h4.882c0.006,0,18.07,0,54.193,0c0.007,0,1.643,0,4.906,0c2.224,0,4.182-0.917,5.514-2.583
				C364.971,76.116,365.491,73.937,365.1,71.643z"/>
		</defs>
		<clipPath id="SVGID_2_">
			<use xlink:href="#SVGID_1_"  overflow="visible"/>
		</clipPath>
		<g clip-path="url(#SVGID_2_)">
			<defs>
				<rect id="SVGID_3_" x="-174.233" y="-704.356" width="625.46" height="1692.121"/>
			</defs>
			<clipPath id="SVGID_4_">
				<use xlink:href="#SVGID_3_"  overflow="visible"/>
			</clipPath>
			<rect x="284.438" y="0.877" clip-path="url(#SVGID_4_)" fill="#1B4298" width="83.395" height="82.218"/>
		</g>
	</g>
	<g>
		<defs>
			<path id="SVGID_5_" d="M353.682,71.869c-0.328-0.184-0.692-0.308-1.085-0.342c-0.546-0.047-5.376-0.624-6.678-6.418
				c-0.606-2.697-0.395-6.361-0.393-6.42c0.017-0.238-0.025-2.759-0.344-3.915c-1.485-5.394-9.238-8.442-18.309-6.559
				c-1.688,0.349-3.406,0.735-5.072,1.186c0.185,1.804,0.242,5.278-1.604,7.576c-1.563,1.945-4.839,2.535-5.209,2.597
				c-0.057,0.008-0.114,0.014-0.171,0.014c-0.527,0-0.99-0.403-1.074-0.964c-0.095-0.622,0.311-1.208,0.905-1.305
				c0.782-0.132,2.999-0.713,3.882-1.812c1.098-1.367,1.237-3.507,1.167-5.024c-0.047-1.03-0.025-8.665-0.025-8.665l-4.133,3.295
				c-0.952-0.378-2.001-0.592-3.104-0.592c-1.071,0-2.092,0.198-3.021,0.556l-3.641-3.2v6.085c-0.717,1.08-1.137,2.343-1.137,3.698
				c0,3.188,2.282,5.885,5.433,6.802c-0.108,1.085,0.009,2.286,0.403,3.626c0.537,1.823,1.994,3.327,4.038,4.442v8
				c0,1.558,1.206,2.821,2.693,2.821s2.692-1.262,2.692-2.821v-6.186c2.6,0.477,5.507,0.56,8.441,0.192l-4.521,3.813
				c-1.158,0.978-1.341,2.753-0.407,3.967c0.532,0.691,1.313,1.05,2.099,1.05c0.594,0,1.19-0.205,1.688-0.624l8.08-6.814
				c0.04-0.033,0.069-0.073,0.106-0.11v4.671c0,1.558,1.205,2.82,2.693,2.82c1.487,0,2.692-1.262,2.692-2.82v-7.338
				c2.025,7.451,8.225,9.875,11.384,10.114L353.682,71.869z"/>
		</defs>
		<clipPath id="SVGID_6_">
			<use xlink:href="#SVGID_5_"  overflow="visible"/>
		</clipPath>
		<g clip-path="url(#SVGID_6_)">
			<defs>
				<rect id="SVGID_7_" x="-174.233" y="-704.356" width="625.46" height="1692.121"/>
			</defs>
			<clipPath id="SVGID_8_">
				<use xlink:href="#SVGID_7_"  overflow="visible"/>
			</clipPath>
			<rect x="302.029" y="39.086" clip-path="url(#SVGID_8_)" fill="#1B4298" width="54.259" height="41.007"/>
		</g>
	</g>
	<g>
		<path fill="none" stroke="#1B4298" stroke-width="1.5" stroke-miterlimit="10" d="M235.342,10.245
			c-1.759,0-3.175,1.484-3.175,3.326s1.417,3.326,3.175,3.326s3.176-1.484,3.176-3.326S237.101,10.245,235.342,10.245z
			 M218.039,44.979c-0.472,0-0.896-0.208-1.132-0.624c-0.282-0.467-0.33-0.988-0.188-1.455l7.355-23.343
			c0.188-0.624,0.707-1.04,1.32-1.04h2.169h2.404c-0.99-1.299-1.095-2.337-1.095-4.946s1.806-6.956,6.423-7.011
			c4.616-0.054,6.223,3.379,6.317,7.122c0,1.768-0.518,3.483-1.555,4.835h0.896h3.63c0.565,0,1.131,0.416,1.32,1.04l6.744,23.343
			c0.141,0.467,0.152,0.885-0.189,1.404c-0.34,0.518-0.707,0.675-1.178,0.675H218.039z"/>
		<g>
			<path fill="#1B4298" d="M230.146,26.681c0.454,0.373,0.679,0.893,0.679,1.563c0,0.416-0.093,0.789-0.278,1.117
				c-0.186,0.328-0.465,0.585-0.836,0.773c-0.373,0.188-0.829,0.282-1.371,0.282c-0.489,0-0.953-0.084-1.395-0.251
				c-0.44-0.167-0.794-0.392-1.061-0.672l0.343-0.584c0.228,0.246,0.528,0.445,0.899,0.599c0.373,0.153,0.773,0.23,1.204,0.23
				c0.567,0,1.006-0.133,1.315-0.399c0.311-0.267,0.465-0.622,0.465-1.066c0-0.493-0.174-0.865-0.523-1.117
				c-0.35-0.253-0.938-0.379-1.766-0.379h-1.458l0.353-3.597h3.747v0.655h-3.131l-0.235,2.285h0.88
				C228.97,26.122,229.692,26.309,230.146,26.681z"/>
		</g>
		<text transform="matrix(0.9549 0 0 1 232.457 31.5278)" fill="#1B4298" font-family="'VAGRoundedStd-Bold'" font-size="7.6858"> </text>
		<g>
			<path fill="#1B4298" d="M234.955,27.649l-1.213,1.169v1.537h-0.696v-7.604h0.696v5.155l3.072-2.941h0.862l-2.202,2.203
				l2.407,3.187h-0.852L234.955,27.649z"/>
			<path fill="#1B4298" d="M243.692,24.965v4.734c0,0.916-0.213,1.593-0.641,2.034c-0.427,0.44-1.071,0.661-1.933,0.661
				c-0.476,0-0.928-0.073-1.354-0.221c-0.427-0.146-0.776-0.35-1.042-0.609l0.353-0.554c0.248,0.233,0.549,0.414,0.904,0.543
				c0.356,0.13,0.73,0.194,1.121,0.194c0.652,0,1.132-0.158,1.439-0.477c0.306-0.317,0.459-0.811,0.459-1.48v-0.687
				c-0.215,0.342-0.498,0.602-0.847,0.779c-0.348,0.178-0.735,0.266-1.159,0.266c-0.482,0-0.921-0.111-1.315-0.333
				c-0.396-0.221-0.705-0.533-0.931-0.932c-0.225-0.4-0.337-0.853-0.337-1.358s0.112-0.957,0.337-1.353
				c0.226-0.396,0.534-0.704,0.925-0.923c0.392-0.218,0.832-0.328,1.321-0.328c0.438,0,0.832,0.093,1.185,0.277
				c0.352,0.185,0.636,0.45,0.852,0.799v-1.035H243.692z M242.069,29.254c0.299-0.167,0.533-0.402,0.699-0.703
				s0.25-0.642,0.25-1.024s-0.084-0.723-0.25-1.02c-0.166-0.298-0.397-0.529-0.694-0.696c-0.297-0.167-0.635-0.251-1.013-0.251
				c-0.371,0-0.706,0.081-1.002,0.245c-0.297,0.164-0.528,0.396-0.696,0.697c-0.166,0.301-0.249,0.643-0.249,1.025
				s0.083,0.724,0.249,1.024c0.167,0.3,0.399,0.535,0.696,0.703c0.297,0.167,0.631,0.251,1.002,0.251
				C241.433,29.505,241.769,29.421,242.069,29.254z"/>
		</g>
		<g>
			<path fill="#6CADDF" d="M224.854,40.331c-0.179-0.749-0.268-1.55-0.268-2.409c0-0.857,0.089-1.663,0.268-2.417
				c0.18-0.754,0.437-1.413,0.771-1.975h0.609c-0.353,0.631-0.611,1.311-0.776,2.036c-0.164,0.727-0.246,1.511-0.246,2.356
				c0,0.846,0.083,1.63,0.246,2.357c0.165,0.726,0.423,1.405,0.776,2.036h-0.609C225.291,41.74,225.034,41.078,224.854,40.331z"/>
			<path fill="#6CADDF" d="M228.808,33.924v6.57h-0.646v-5.97h-1.479v-0.601H228.808z"/>
			<path fill="#6CADDF" d="M232.042,33.924v6.57h-0.645v-5.97h-1.479v-0.601H232.042z"/>
			<path fill="#6CADDF" d="M236.31,33.53h0.637v6.964h-0.637V33.53z"/>
			<path fill="#6CADDF" d="M242.351,35.834c0.358,0.209,0.639,0.505,0.843,0.887c0.203,0.382,0.305,0.817,0.305,1.305
				c0,0.487-0.102,0.922-0.305,1.304c-0.204,0.381-0.485,0.68-0.843,0.892c-0.357,0.213-0.759,0.319-1.201,0.319
				c-0.394,0-0.748-0.087-1.062-0.262c-0.313-0.175-0.566-0.429-0.757-0.761v0.976h-0.61V33.53h0.637v2.965
				c0.197-0.318,0.449-0.562,0.757-0.728c0.307-0.165,0.652-0.249,1.035-0.249C241.592,35.52,241.993,35.625,242.351,35.834z
				 M242.001,39.711c0.27-0.159,0.48-0.386,0.632-0.681c0.153-0.294,0.229-0.629,0.229-1.004c0-0.375-0.076-0.71-0.229-1.005
				c-0.152-0.294-0.363-0.521-0.632-0.681c-0.268-0.159-0.567-0.239-0.896-0.239c-0.334,0-0.635,0.08-0.901,0.239
				c-0.266,0.159-0.476,0.386-0.628,0.681s-0.228,0.629-0.228,1.005c0,0.375,0.076,0.709,0.228,1.004s0.362,0.521,0.628,0.681
				c0.266,0.159,0.566,0.24,0.901,0.24C241.434,39.951,241.733,39.87,242.001,39.711z"/>
			<path fill="#6CADDF" d="M244.269,42.315c0.353-0.631,0.612-1.31,0.779-2.032c0.167-0.723,0.251-1.51,0.251-2.361
				c0-0.85-0.083-1.638-0.251-2.361c-0.167-0.723-0.426-1.4-0.779-2.031h0.61c0.334,0.563,0.592,1.221,0.774,1.975
				c0.182,0.754,0.274,1.56,0.274,2.417c0,0.858-0.089,1.662-0.269,2.413c-0.179,0.75-0.439,1.411-0.779,1.98H244.269z"/>
		</g>
	</g>
	
		<line fill="none" stroke="#6CADDF" stroke-linecap="square" stroke-miterlimit="10" stroke-dasharray="2,4" x1="295.384" y1="47.638" x2="394.415" y2="47.638"/>
	<g>
		<g>
			<path fill="#6CADDF" d="M394.581,54.13v7.7h-0.756v-6.996h-1.734V54.13H394.581z"/>
			<path fill="#6CADDF" d="M397.746,61.423c-0.443-0.315-0.791-0.768-1.039-1.358c-0.248-0.59-0.373-1.285-0.373-2.084
				c0-0.8,0.125-1.494,0.373-2.085c0.248-0.59,0.595-1.043,1.039-1.358c0.445-0.315,0.951-0.473,1.518-0.473
				c0.568,0,1.074,0.157,1.518,0.473c0.445,0.315,0.793,0.769,1.047,1.358c0.252,0.591,0.377,1.285,0.377,2.085
				c0,0.799-0.125,1.494-0.377,2.084c-0.254,0.591-0.602,1.043-1.047,1.358c-0.443,0.315-0.949,0.474-1.518,0.474
				C398.697,61.897,398.191,61.739,397.746,61.423z M400.393,60.796c0.326-0.249,0.58-0.612,0.762-1.089
				c0.184-0.477,0.273-1.052,0.273-1.727s-0.09-1.251-0.273-1.728c-0.182-0.477-0.436-0.84-0.762-1.089
				c-0.324-0.249-0.701-0.374-1.129-0.374c-0.426,0-0.803,0.125-1.129,0.374s-0.58,0.612-0.762,1.089s-0.273,1.053-0.273,1.728
				s0.092,1.25,0.273,1.727s0.436,0.84,0.762,1.089c0.326,0.25,0.703,0.374,1.129,0.374
				C399.691,61.17,400.068,61.046,400.393,60.796z"/>
		</g>
	</g>
	<g>
		<g>
			<path fill="#6CADDF" d="M405.039,55.271c-0.096-0.101-0.143-0.221-0.143-0.36c0-0.134,0.047-0.25,0.143-0.35
				c0.096-0.101,0.213-0.15,0.354-0.15c0.139,0,0.258,0.049,0.354,0.145c0.096,0.097,0.143,0.212,0.143,0.346
				c0,0.146-0.047,0.27-0.143,0.37c-0.096,0.1-0.215,0.149-0.354,0.149C405.252,55.42,405.135,55.371,405.039,55.271z
				 M405.049,56.571h0.678v5.26h-0.678V56.571z"/>
			<path fill="#6CADDF" d="M411.68,57.106c0.373,0.383,0.559,0.941,0.559,1.675v3.05h-0.678v-2.98c0-0.546-0.131-0.963-0.393-1.25
				c-0.26-0.286-0.633-0.43-1.117-0.43c-0.541,0-0.969,0.169-1.283,0.505c-0.314,0.337-0.473,0.802-0.473,1.396v2.76h-0.678v-5.26
				h0.648v0.97c0.186-0.32,0.441-0.568,0.77-0.745s0.707-0.265,1.141-0.265C410.807,56.531,411.307,56.722,411.68,57.106z"/>
		</g>
	</g>
	<g>
		<g>
			<path fill="#BFBFBF" d="M397.68,68l0.01,0.88l-3.941,0.039l-0.008-0.696l2.105-2.133c0.236-0.242,0.396-0.453,0.479-0.633
				c0.082-0.179,0.123-0.357,0.121-0.533c-0.002-0.262-0.088-0.461-0.258-0.598c-0.168-0.138-0.416-0.204-0.742-0.201
				c-0.545,0.006-0.961,0.205-1.248,0.597l-0.699-0.553c0.205-0.295,0.484-0.526,0.838-0.692c0.352-0.166,0.748-0.251,1.186-0.256
				c0.58-0.006,1.045,0.134,1.395,0.418c0.349,0.285,0.525,0.675,0.529,1.171c0.004,0.305-0.057,0.591-0.176,0.858
				s-0.351,0.573-0.693,0.919l-1.416,1.438L397.68,68z"/>
			<path fill="#BFBFBF" d="M401.58,65.87c0.365,0.303,0.549,0.718,0.555,1.246c0.002,0.336-0.074,0.641-0.23,0.915
				c-0.154,0.272-0.389,0.491-0.703,0.654s-0.705,0.247-1.168,0.252c-0.381,0.004-0.75-0.05-1.107-0.161s-0.66-0.267-0.906-0.468
				l0.412-0.812c0.199,0.169,0.439,0.302,0.719,0.397c0.277,0.096,0.564,0.142,0.859,0.139c0.352-0.003,0.627-0.082,0.828-0.235
				c0.199-0.154,0.297-0.364,0.295-0.631c-0.002-0.288-0.113-0.505-0.33-0.649s-0.59-0.214-1.113-0.209l-1.291,0.013l0.248-3.05
				l3.139-0.031l0.008,0.872l-2.299,0.022l-0.104,1.297l0.512-0.005C400.656,65.418,401.215,65.567,401.58,65.87z"/>
			<path fill="#BFBFBF" d="M405.852,68.576c-0.338-0.184-0.602-0.441-0.793-0.772s-0.289-0.708-0.293-1.129
				c-0.004-0.422,0.086-0.799,0.271-1.131c0.186-0.333,0.445-0.595,0.775-0.784c0.332-0.19,0.713-0.288,1.141-0.292
				c0.402-0.004,0.756,0.078,1.061,0.245c0.305,0.168,0.535,0.411,0.689,0.729l-0.729,0.456c-0.119-0.196-0.266-0.343-0.443-0.44
				c-0.176-0.097-0.369-0.144-0.578-0.142c-0.357,0.004-0.65,0.128-0.883,0.372c-0.232,0.246-0.346,0.571-0.342,0.977
				s0.121,0.729,0.355,0.968c0.234,0.241,0.531,0.359,0.893,0.355c0.209-0.002,0.402-0.054,0.576-0.154
				c0.176-0.1,0.318-0.249,0.436-0.447l0.736,0.439c-0.154,0.322-0.383,0.571-0.684,0.747c-0.303,0.178-0.65,0.267-1.049,0.271
				C406.57,68.847,406.189,68.758,405.852,68.576z"/>
			<path fill="#BFBFBF" d="M415.895,64.847c0.303,0.309,0.457,0.775,0.463,1.399l0.023,2.448l-0.955,0.009l-0.021-2.32
				c-0.004-0.373-0.086-0.653-0.244-0.841c-0.16-0.188-0.387-0.28-0.684-0.277c-0.32,0.003-0.576,0.117-0.768,0.339
				c-0.191,0.224-0.285,0.54-0.283,0.951l0.021,2.168l-0.955,0.01l-0.021-2.32c-0.004-0.373-0.086-0.653-0.244-0.841
				c-0.16-0.188-0.387-0.281-0.682-0.278c-0.326,0.004-0.584,0.115-0.773,0.336s-0.281,0.539-0.279,0.955l0.021,2.168l-0.955,0.01
				l-0.039-4.272l0.908-0.009l0.006,0.545c0.15-0.194,0.34-0.343,0.568-0.446s0.482-0.157,0.762-0.16
				c0.307-0.003,0.578,0.055,0.816,0.173c0.238,0.117,0.426,0.293,0.566,0.525c0.166-0.226,0.381-0.402,0.645-0.529
				c0.264-0.128,0.555-0.194,0.877-0.197C415.182,64.385,415.592,64.538,415.895,64.847z"/>
		</g>
	</g>
	
		<line fill="none" stroke="#6CADDF" stroke-linecap="square" stroke-miterlimit="10" x1="388.682" y1="47.638" x2="388.682" y2="77.114"/>
	<path fill="none" stroke="#6CADDF" stroke-linecap="square" stroke-miterlimit="10" d="M390.245,77.114h-3.126 M390.245,47.638
		h-3.126 M388.682,47.638v29.476"/>
	
		<line fill="none" stroke="#6CADDF" stroke-linecap="square" stroke-miterlimit="10" stroke-dasharray="2,4" x1="295.384" y1="77.114" x2="394.415" y2="77.114"/>
	<g>
		<path fill="#6CADDF" d="M259.324,48.307v7.7h-0.756v-6.996h-1.733v-0.704H259.324z"/>
		<path fill="#6CADDF" d="M265.337,52.064c0.486,0.399,0.729,0.959,0.729,1.678c0,0.447-0.1,0.847-0.299,1.198
			c-0.2,0.353-0.499,0.629-0.898,0.831c-0.399,0.201-0.89,0.303-1.471,0.303c-0.524,0-1.023-0.09-1.496-0.27s-0.853-0.42-1.14-0.721
			l0.367-0.627c0.245,0.264,0.567,0.479,0.967,0.644c0.398,0.165,0.829,0.247,1.292,0.247c0.608,0,1.08-0.143,1.412-0.429
			c0.333-0.286,0.499-0.667,0.499-1.145c0-0.527-0.188-0.927-0.562-1.198c-0.375-0.271-1.007-0.407-1.896-0.407h-1.564l0.378-3.861
			h4.022v0.704h-3.361l-0.252,2.453h0.945C264.075,51.464,264.85,51.665,265.337,52.064z"/>
	</g>
	<g>
		<path fill="#6CADDF" d="M267.782,49.448c-0.096-0.101-0.143-0.221-0.143-0.36c0-0.134,0.047-0.25,0.143-0.35
			c0.096-0.101,0.214-0.15,0.354-0.15s0.258,0.049,0.354,0.145c0.096,0.097,0.143,0.212,0.143,0.346c0,0.146-0.047,0.27-0.143,0.37
			c-0.096,0.1-0.214,0.149-0.354,0.149S267.877,49.547,267.782,49.448z M267.792,50.748h0.678v5.26h-0.678V50.748z"/>
		<path fill="#6CADDF" d="M274.423,51.283c0.372,0.383,0.559,0.941,0.559,1.675v3.05h-0.679v-2.98c0-0.546-0.13-0.963-0.392-1.25
			c-0.261-0.286-0.633-0.43-1.117-0.43c-0.541,0-0.969,0.169-1.284,0.505c-0.314,0.337-0.473,0.802-0.473,1.396v2.76h-0.678v-5.26
			h0.649v0.97c0.185-0.32,0.44-0.568,0.769-0.745s0.708-0.265,1.142-0.265C273.549,50.708,274.05,50.899,274.423,51.283z"/>
	</g>
	<g>
		<g>
			<path fill="#BFBFBF" d="M256.125,62.739h-0.947v1.272h-0.962v-1.272h-2.934v-0.72l2.636-3.607h1.062l-2.482,3.447h1.749v-1.128
				h0.932v1.128h0.947V62.739z"/>
			<path fill="#BFBFBF" d="M257.629,63.751c-0.336-0.227-0.601-0.558-0.795-0.992c-0.193-0.435-0.29-0.95-0.29-1.548
				s0.097-1.113,0.29-1.548c0.194-0.435,0.459-0.766,0.795-0.992s0.718-0.34,1.146-0.34s0.812,0.113,1.15,0.34
				c0.338,0.227,0.604,0.558,0.798,0.992s0.29,0.95,0.29,1.548s-0.097,1.113-0.29,1.548s-0.46,0.766-0.798,0.992
				c-0.339,0.227-0.723,0.34-1.15,0.34S257.965,63.978,257.629,63.751z M259.68,62.691c0.222-0.33,0.333-0.823,0.333-1.479
				s-0.111-1.149-0.333-1.48c-0.222-0.33-0.523-0.496-0.905-0.496c-0.377,0-0.676,0.166-0.897,0.496
				c-0.222,0.331-0.332,0.824-0.332,1.48s0.11,1.149,0.332,1.479c0.222,0.331,0.521,0.496,0.897,0.496
				C259.157,63.187,259.458,63.022,259.68,62.691z"/>
			<path fill="#BFBFBF" d="M264.817,63.788c-0.336-0.187-0.598-0.447-0.786-0.78s-0.283-0.711-0.283-1.132
				c0-0.422,0.095-0.798,0.283-1.128c0.188-0.331,0.449-0.59,0.782-0.776c0.334-0.187,0.715-0.28,1.143-0.28
				c0.402,0,0.755,0.086,1.058,0.256c0.304,0.171,0.531,0.416,0.684,0.736l-0.733,0.448c-0.117-0.197-0.263-0.346-0.438-0.444
				s-0.368-0.147-0.577-0.147c-0.356,0-0.651,0.121-0.886,0.363c-0.234,0.243-0.352,0.567-0.352,0.973s0.115,0.729,0.348,0.972
				c0.231,0.243,0.528,0.364,0.89,0.364c0.209,0,0.401-0.05,0.577-0.148s0.321-0.246,0.438-0.443l0.733,0.447
				c-0.157,0.32-0.388,0.567-0.691,0.74c-0.303,0.174-0.652,0.26-1.05,0.26C265.533,64.067,265.154,63.974,264.817,63.788z"/>
			<path fill="#BFBFBF" d="M274.893,60.16c0.301,0.312,0.451,0.779,0.451,1.403v2.448h-0.955v-2.32c0-0.373-0.079-0.654-0.236-0.844
				c-0.158-0.189-0.385-0.284-0.681-0.284c-0.32,0-0.578,0.111-0.771,0.332c-0.193,0.222-0.29,0.537-0.29,0.948v2.168h-0.955v-2.32
				c0-0.373-0.079-0.654-0.236-0.844c-0.158-0.189-0.385-0.284-0.68-0.284c-0.326,0-0.585,0.109-0.775,0.328
				c-0.191,0.219-0.287,0.536-0.287,0.952v2.168h-0.955v-4.272h0.909v0.545c0.153-0.192,0.344-0.339,0.573-0.44
				s0.483-0.152,0.764-0.152c0.306,0,0.577,0.061,0.813,0.181c0.237,0.12,0.424,0.297,0.562,0.531
				c0.168-0.224,0.385-0.398,0.649-0.523s0.558-0.188,0.879-0.188C274.185,59.691,274.593,59.847,274.893,60.16z"/>
		</g>
	</g>
	<g>
		<g>
			<path fill="#6CADDF" d="M320.045,89.7v7.7h-0.756v-6.996h-1.733V89.7H320.045z"/>
			<path fill="#6CADDF" d="M326.821,96.696V97.4h-5.158v-0.561l3.057-3.136c0.386-0.396,0.646-0.738,0.783-1.028
				c0.137-0.289,0.204-0.581,0.204-0.874c0-0.455-0.148-0.809-0.446-1.062s-0.723-0.38-1.276-0.38c-0.86,0-1.529,0.286-2.006,0.858
				l-0.535-0.484c0.287-0.352,0.652-0.623,1.098-0.814c0.444-0.19,0.946-0.285,1.507-0.285c0.749,0,1.343,0.185,1.78,0.555
				c0.438,0.371,0.656,0.879,0.656,1.524c0,0.396-0.084,0.777-0.252,1.144c-0.168,0.367-0.486,0.788-0.956,1.265l-2.499,2.574
				H326.821z"/>
		</g>
	</g>
	<g>
		<g>
			<path fill="#6CADDF" d="M328.504,90.84c-0.096-0.101-0.143-0.221-0.143-0.36c0-0.134,0.047-0.25,0.143-0.35
				c0.096-0.101,0.214-0.15,0.354-0.15s0.258,0.049,0.354,0.145c0.096,0.097,0.143,0.212,0.143,0.346c0,0.146-0.047,0.27-0.143,0.37
				c-0.096,0.1-0.214,0.149-0.354,0.149S328.6,90.94,328.504,90.84z M328.514,92.14h0.678v5.26h-0.678V92.14z"/>
			<path fill="#6CADDF" d="M335.146,92.675c0.372,0.383,0.559,0.941,0.559,1.675v3.05h-0.679v-2.98c0-0.546-0.13-0.963-0.392-1.25
				c-0.261-0.286-0.633-0.43-1.117-0.43c-0.541,0-0.969,0.169-1.284,0.505c-0.314,0.337-0.473,0.802-0.473,1.396v2.76h-0.678v-5.26
				h0.649v0.97c0.185-0.32,0.44-0.568,0.769-0.745s0.708-0.265,1.142-0.265C334.272,92.1,334.773,92.292,335.146,92.675z"/>
		</g>
	</g>
	<g>
		<g>
			<path fill="#BFBFBF" d="M319.706,102.646c0.26,0.288,0.39,0.647,0.39,1.08c0,0.325-0.079,0.621-0.237,0.888
				c-0.157,0.267-0.396,0.479-0.714,0.636s-0.707,0.236-1.165,0.236c-0.382,0-0.75-0.058-1.104-0.172
				c-0.354-0.115-0.656-0.273-0.905-0.477l0.428-0.808c0.193,0.171,0.429,0.306,0.706,0.404c0.278,0.099,0.564,0.147,0.859,0.147
				c0.352,0,0.628-0.076,0.829-0.228c0.201-0.152,0.302-0.358,0.302-0.62s-0.096-0.466-0.286-0.612
				c-0.191-0.146-0.482-0.22-0.875-0.22h-0.488v-0.712l1.214-1.512h-2.429v-0.872h3.644v0.695l-1.299,1.616
				C319.069,102.182,319.446,102.358,319.706,102.646z"/>
			<path fill="#BFBFBF" d="M321.83,105.146c-0.336-0.227-0.601-0.558-0.795-0.992c-0.193-0.435-0.29-0.95-0.29-1.548
				s0.097-1.113,0.29-1.548c0.194-0.435,0.459-0.766,0.795-0.992s0.718-0.34,1.146-0.34s0.812,0.113,1.15,0.34
				c0.338,0.227,0.604,0.558,0.798,0.992s0.29,0.95,0.29,1.548s-0.097,1.113-0.29,1.548s-0.46,0.766-0.798,0.992
				c-0.339,0.227-0.723,0.34-1.15,0.34S322.166,105.373,321.83,105.146z M323.88,104.085c0.222-0.33,0.333-0.823,0.333-1.479
				s-0.111-1.149-0.333-1.48c-0.222-0.33-0.523-0.496-0.905-0.496c-0.377,0-0.676,0.166-0.897,0.496
				c-0.222,0.331-0.332,0.824-0.332,1.48s0.11,1.149,0.332,1.479c0.222,0.331,0.521,0.496,0.897,0.496
				C323.357,104.582,323.659,104.417,323.88,104.085z"/>
			<path fill="#BFBFBF" d="M329.017,105.182c-0.336-0.187-0.598-0.447-0.786-0.78s-0.283-0.711-0.283-1.132
				c0-0.422,0.095-0.798,0.283-1.128c0.188-0.331,0.449-0.59,0.782-0.776c0.334-0.187,0.715-0.28,1.143-0.28
				c0.402,0,0.755,0.086,1.058,0.256c0.304,0.171,0.531,0.416,0.684,0.736l-0.733,0.448c-0.117-0.197-0.263-0.346-0.438-0.444
				s-0.368-0.147-0.577-0.147c-0.356,0-0.651,0.121-0.886,0.363c-0.234,0.243-0.352,0.567-0.352,0.973s0.115,0.729,0.348,0.972
				c0.231,0.243,0.528,0.364,0.89,0.364c0.209,0,0.401-0.05,0.577-0.148s0.321-0.246,0.438-0.443l0.733,0.447
				c-0.157,0.32-0.388,0.567-0.691,0.74c-0.303,0.174-0.652,0.26-1.05,0.26C329.733,105.461,329.354,105.369,329.017,105.182z"/>
			<path fill="#BFBFBF" d="M339.092,101.554c0.301,0.312,0.451,0.779,0.451,1.403v2.448h-0.955v-2.32
				c0-0.373-0.079-0.654-0.236-0.844c-0.158-0.189-0.385-0.284-0.681-0.284c-0.32,0-0.578,0.111-0.771,0.332
				c-0.193,0.222-0.29,0.537-0.29,0.948v2.168h-0.955v-2.32c0-0.373-0.079-0.654-0.236-0.844c-0.158-0.189-0.385-0.284-0.68-0.284
				c-0.326,0-0.585,0.109-0.775,0.328c-0.191,0.219-0.287,0.536-0.287,0.952v2.168h-0.955v-4.272h0.909v0.545
				c0.153-0.192,0.344-0.339,0.573-0.44s0.483-0.152,0.764-0.152c0.306,0,0.577,0.061,0.813,0.181
				c0.237,0.12,0.424,0.297,0.562,0.531c0.168-0.224,0.385-0.398,0.649-0.523s0.558-0.188,0.879-0.188
				C338.384,101.085,338.792,101.242,339.092,101.554z"/>
		</g>
	</g>
	<g>
		<g>
			<path fill="#6CADDF" d="M378.284,80.908c0.52,0.671,0.777,1.619,0.777,2.844c0,0.858-0.141,1.584-0.42,2.178
				c-0.279,0.595-0.672,1.044-1.176,1.348c-0.504,0.305-1.094,0.457-1.766,0.457c-0.729,0-1.309-0.14-1.742-0.418l0.305-0.639
				c0.35,0.242,0.826,0.363,1.428,0.363c0.813,0,1.449-0.27,1.912-0.809c0.461-0.539,0.693-1.321,0.693-2.349
				c0-0.19-0.012-0.399-0.031-0.627c-0.184,0.418-0.473,0.742-0.873,0.974c-0.398,0.231-0.857,0.347-1.375,0.347
				c-0.484,0-0.912-0.096-1.287-0.286s-0.668-0.46-0.877-0.809c-0.211-0.349-0.316-0.754-0.316-1.216
				c0-0.469,0.109-0.883,0.326-1.242s0.518-0.637,0.898-0.831s0.811-0.291,1.287-0.291
				C377.021,79.902,377.767,80.237,378.284,80.908z M377.114,83.685c0.283-0.146,0.506-0.348,0.666-0.604
				c0.162-0.257,0.242-0.543,0.242-0.858c0-0.293-0.076-0.564-0.227-0.813s-0.373-0.451-0.666-0.605
				c-0.295-0.153-0.645-0.23-1.051-0.23c-0.533,0-0.965,0.152-1.297,0.456c-0.334,0.305-0.5,0.71-0.5,1.216s0.166,0.909,0.5,1.21
				c0.332,0.301,0.781,0.451,1.35,0.451C376.503,83.906,376.829,83.833,377.114,83.685z"/>
		</g>
	</g>
	<g>
		<g>
			<path fill="#6CADDF" d="M381.167,81.108c-0.096-0.101-0.143-0.221-0.143-0.36c0-0.134,0.047-0.25,0.143-0.35
				c0.096-0.101,0.215-0.15,0.354-0.15c0.141,0,0.258,0.049,0.354,0.145c0.096,0.097,0.143,0.212,0.143,0.346
				c0,0.146-0.047,0.27-0.143,0.37c-0.096,0.1-0.213,0.149-0.354,0.149C381.382,81.257,381.263,81.208,381.167,81.108z
				 M381.177,82.408h0.678v5.26h-0.678V82.408z"/>
			<path fill="#6CADDF" d="M387.81,82.943c0.371,0.383,0.559,0.941,0.559,1.675v3.05h-0.68v-2.98c0-0.546-0.129-0.963-0.391-1.25
				c-0.262-0.286-0.633-0.43-1.117-0.43c-0.541,0-0.969,0.169-1.285,0.505c-0.314,0.337-0.473,0.802-0.473,1.396v2.76h-0.678v-5.26
				h0.65v0.97c0.184-0.32,0.439-0.568,0.768-0.745s0.709-0.265,1.143-0.265C386.935,82.368,387.437,82.559,387.81,82.943z"/>
		</g>
	</g>
	<g>
		<g>
			<path fill="#BFBFBF" d="M376.378,95.792v0.88h-3.941v-0.696l2.123-2.111c0.238-0.24,0.4-0.449,0.484-0.628
				s0.127-0.356,0.127-0.532c0-0.262-0.084-0.462-0.252-0.601s-0.416-0.208-0.742-0.208c-0.545,0-0.961,0.195-1.252,0.584
				l-0.695-0.56c0.209-0.293,0.49-0.521,0.844-0.684c0.354-0.163,0.75-0.244,1.188-0.244c0.582,0,1.045,0.144,1.391,0.432
				c0.348,0.288,0.52,0.68,0.52,1.176c0,0.305-0.061,0.59-0.184,0.856c-0.121,0.267-0.355,0.57-0.701,0.912l-1.43,1.424H376.378z"/>
			<path fill="#BFBFBF" d="M380.823,95.792v0.88h-3.941v-0.696l2.123-2.111c0.238-0.24,0.4-0.449,0.484-0.628
				s0.127-0.356,0.127-0.532c0-0.262-0.084-0.462-0.252-0.601s-0.416-0.208-0.742-0.208c-0.545,0-0.961,0.195-1.252,0.584
				l-0.695-0.56c0.209-0.293,0.49-0.521,0.844-0.684c0.354-0.163,0.75-0.244,1.188-0.244c0.582,0,1.045,0.144,1.391,0.432
				c0.348,0.288,0.52,0.68,0.52,1.176c0,0.305-0.061,0.59-0.184,0.856c-0.121,0.267-0.355,0.57-0.701,0.912l-1.43,1.424H380.823z"/>
			<path fill="#BFBFBF" d="M384.528,96.448c-0.336-0.187-0.598-0.447-0.787-0.78c-0.188-0.333-0.283-0.711-0.283-1.132
				c0-0.422,0.096-0.798,0.283-1.128c0.189-0.331,0.449-0.59,0.783-0.776s0.715-0.28,1.143-0.28c0.402,0,0.754,0.086,1.057,0.256
				c0.305,0.171,0.531,0.416,0.684,0.736l-0.732,0.448c-0.117-0.197-0.264-0.346-0.439-0.444s-0.367-0.147-0.576-0.147
				c-0.357,0-0.652,0.121-0.887,0.363c-0.234,0.243-0.352,0.567-0.352,0.973s0.115,0.729,0.348,0.972
				c0.232,0.243,0.529,0.364,0.891,0.364c0.209,0,0.4-0.05,0.576-0.148s0.322-0.246,0.439-0.443l0.732,0.447
				c-0.156,0.32-0.387,0.567-0.691,0.74c-0.303,0.174-0.652,0.26-1.049,0.26C385.243,96.727,384.864,96.634,384.528,96.448z"/>
			<path fill="#BFBFBF" d="M394.604,92.82c0.301,0.312,0.451,0.779,0.451,1.403v2.448H394.1v-2.32c0-0.373-0.08-0.654-0.236-0.844
				c-0.158-0.189-0.385-0.284-0.682-0.284c-0.32,0-0.578,0.111-0.771,0.332c-0.193,0.222-0.289,0.537-0.289,0.948v2.168h-0.955
				v-2.32c0-0.373-0.08-0.654-0.236-0.844c-0.158-0.189-0.385-0.284-0.68-0.284c-0.326,0-0.586,0.109-0.775,0.328
				c-0.191,0.219-0.287,0.536-0.287,0.952v2.168h-0.955v-4.272h0.908v0.545c0.154-0.192,0.343-0.339,0.574-0.44
				c0.229-0.102,0.482-0.152,0.764-0.152c0.305,0,0.576,0.061,0.813,0.181c0.238,0.12,0.424,0.297,0.563,0.531
				c0.168-0.224,0.385-0.398,0.648-0.523c0.266-0.125,0.559-0.188,0.879-0.188C393.895,92.351,394.303,92.507,394.604,92.82z"/>
		</g>
	</g>
	
		<line fill="none" stroke="#6CADDF" stroke-linecap="square" stroke-miterlimit="10" x1="286.002" y1="87.121" x2="364.185" y2="87.121"/>
	<path fill="none" stroke="#6CADDF" stroke-linecap="square" stroke-miterlimit="10" d="M364.185,85.483v3.275 M286.002,85.483
		v3.275 M286.002,87.121h78.183"/>
	
		<line fill="none" stroke="#6CADDF" stroke-linecap="square" stroke-miterlimit="10" x1="373.827" y1="72.929" x2="368.875" y2="82.208"/>
	<path fill="none" stroke="#6CADDF" stroke-linecap="square" stroke-miterlimit="10" d="M370.24,83.007l-2.729-1.598
		 M375.191,73.728l-2.729-1.598 M373.827,72.929l-4.952,9.28"/>
	
		<line fill="none" stroke="#6CADDF" stroke-linecap="square" stroke-miterlimit="10" x1="279.747" y1="31.991" x2="280.008" y2="81.116"/>
	<path fill="none" stroke="#6CADDF" stroke-linecap="square" stroke-miterlimit="10" d="M281.571,81.107l-3.127,0.018
		 M281.311,31.981L278.184,32 M279.747,31.991l0.261,49.125"/>
	<path fill="none" stroke="#FAFAFA" stroke-miterlimit="10" d="M360.881,75.728c-0.701,0.88-1.772,1.364-3.016,1.364h-3.452
		c-0.129-2.156,0.324-3.93,1.359-5.29c1.448-1.904,3.766-2.699,5.244-3.023l0.615,3.601
		C361.85,73.661,361.585,74.851,360.881,75.728z M290.868,75.728c-0.703-0.877-0.969-2.066-0.751-3.348l0.613-3.596
		c1.479,0.33,3.784,1.125,5.224,3.003c1.045,1.362,1.501,3.141,1.371,5.305h-3.441C292.642,77.092,291.57,76.607,290.868,75.728z
		 M295.972,38.052c0.49-2.878,3.264-5.312,6.057-5.312h47.693c2.792,0,5.566,2.434,6.056,5.312l4.667,27.363
		c-1.969,0.422-5.104,1.499-7.201,4.235c-1.536,2.004-2.237,4.5-2.094,7.441h-50.559c0.142-2.941-0.56-5.438-2.096-7.441
		c-2.092-2.731-5.223-3.81-7.19-4.232L295.972,38.052z M310.284,18.875c0.588-1.534,1.264-2.918,2.025-4.155l2.783,2.301
		c0.402,0.335,0.92,0.477,1.416,0.34c0.491-0.137,0.883-0.479,1.076-0.969c0.139-0.285,1.889-3.551,8.289-3.551
		c6.402,0,8.151,3.266,8.291,3.551c0.193,0.49,0.585,0.832,1.076,0.969c0.127,0.035,0.256,0.052,0.382,0.052
		c0.37,0,0.735-0.145,1.033-0.392l2.782-2.301c0.749,1.214,1.415,2.571,1.995,4.073c1.584,4.108,2.104,8.281,2.273,10.537h-35.668
		C308.208,27.093,308.72,22.973,310.284,18.875z M325.874,7.154c4.748,0,8.613,1.639,11.558,4.88l-1.467,1.214
		c-0.342-0.385-0.769-0.799-1.296-1.209c-2.23-1.731-5.189-2.611-8.795-2.611c-3.604,0-6.563,0.879-8.794,2.611
		c-0.526,0.41-0.953,0.825-1.294,1.209l-1.468-1.214C317.263,8.793,321.126,7.154,325.874,7.154z M364.839,71.78
		c-3.363-19.928-5.215-30.784-5.555-32.568c-0.338-1.785-0.88-3.522-1.625-5.212c-0.524-0.845-1.183-1.622-1.953-2.299
		c-1.744-1.529-3.87-2.371-5.984-2.371h-2.744c-0.162-2.414-0.701-7.042-2.488-11.722c-3.465-9.07-9.901-13.865-18.615-13.865
		c-8.712,0-15.149,4.795-18.613,13.865c-1.788,4.68-2.328,9.308-2.49,11.722h-2.742c-2.115,0-4.24,0.842-5.984,2.371
		c-1.743,1.529-2.908,3.571-3.28,5.752l-5.853,34.327c-0.392,2.294,0.127,4.473,1.459,6.139s3.29,2.583,5.514,2.583h4.883
		c0.006,0,18.07,0,54.193,0c0.006,0,1.642,0,4.905,0c2.224,0,4.183-0.917,5.514-2.583S365.23,74.074,364.839,71.78z"/>
</g>
<g>
	<g>
		<defs>
			<path id="SVGID_9_" d="M139.973,89.184H73.324c-1.276,0-2.4-0.84-2.765-2.061l-8.358-28.129h-6.82v-5.769h8.973
				c1.276,0,2.399,0.838,2.764,2.062l8.359,28.128h62.348l8.356-28.072c0.364-1.22,1.489-2.06,2.765-2.06h8.707v5.768h-6.557
				l-8.357,28.071C142.373,88.348,141.25,89.184,139.973,89.184z M100.358,10.048h12.699v4.727h-12.699V10.048z M151.094,44.906
				l-8.356-28.07c-0.364-1.223-1.488-2.06-2.765-2.06h-21.147V7.165c0-1.592-1.292-2.884-2.884-2.884H97.474
				c-1.593,0-2.884,1.292-2.884,2.884v7.611H73.324c-1.276,0-2.4,0.837-2.765,2.062l-8.358,28.126h-6.82v5.769h8.973
				c1.276,0,2.399-0.839,2.764-2.064l8.359-28.125h62.348l8.356,28.07c0.364,1.221,1.489,2.061,2.765,2.061h8.707v-5.768
				L151.094,44.906L151.094,44.906z"/>
		</defs>
		<clipPath id="SVGID_10_">
			<use xlink:href="#SVGID_9_"  overflow="visible"/>
		</clipPath>
		<g clip-path="url(#SVGID_10_)">
			<defs>
				<rect id="SVGID_11_" x="-384.392" y="-968.842" width="613.636" height="1585.223"/>
			</defs>
			<clipPath id="SVGID_12_">
				<use xlink:href="#SVGID_11_"  overflow="visible"/>
			</clipPath>
			<rect x="52.823" y="1.724" clip-path="url(#SVGID_12_)" fill="#1B4298" width="107.386" height="90.018"/>
		</g>
	</g>
	<g>
		<defs>
			<path id="SVGID_13_" d="M114.849,45.712c-0.356-0.169-0.583-0.529-0.583-0.924v-15.45l24.979,11.903l-3.535,7.59l-9.627,0.016
				v2.207L114.849,45.712z M102.523,66.931c-0.185,0-0.365,0.05-0.523,0.144c-0.484,0.289-0.645,0.916-0.355,1.402l6.087,10.239
				c1.173,1.972,0.527,4.536-1.434,5.706c-1.98,1.17-4.526,0.525-5.698-1.442l-7.523-12.702l0.01,10.682
				c0,2.292-1.859,4.141-4.152,4.141s-4.151-1.849-4.151-4.141V53.689l-5.689-3.262c-1.152-0.664-1.552-2.123-0.899-3.277
				c0.654-1.155,2.122-1.562,3.277-0.898l3.6,2.035h27.902l13.127,6.42v10.461c0,0.95-0.119,1.764-1.359,1.764v14.028
				c0,2.292-1.868,4.141-4.16,4.141s-4.144-1.849-4.144-4.141V66.931H102.523z"/>
		</defs>
		<clipPath id="SVGID_14_">
			<use xlink:href="#SVGID_13_"  overflow="visible"/>
		</clipPath>
		<g clip-path="url(#SVGID_14_)">
			<defs>
				<rect id="SVGID_15_" x="-384.392" y="-968.842" width="613.636" height="1585.223"/>
			</defs>
			<clipPath id="SVGID_16_">
				<use xlink:href="#SVGID_15_"  overflow="visible"/>
			</clipPath>
			<rect x="75.323" y="26.781" clip-path="url(#SVGID_16_)" fill="#1B4298" width="66.478" height="60.876"/>
		</g>
	</g>
	<g>
		<path fill="none" stroke="#1B4298" stroke-width="1.5" stroke-miterlimit="10" d="M19.74,6.107c-1.666,0-3.007,1.342-3.007,3.007
			s1.342,3.007,3.007,3.007s3.006-1.341,3.006-3.007S21.406,6.107,19.74,6.107z M3.355,37.515c-0.446,0-0.848-0.188-1.072-0.565
			c-0.268-0.423-0.312-0.893-0.178-1.316L9.07,14.527c0.179-0.564,0.67-0.94,1.25-0.94h2.055h2.276
			c-0.937-1.175-1.036-2.114-1.036-4.473c0-2.359,1.709-6.291,6.082-6.34c4.372-0.049,5.894,3.056,5.983,6.44
			c0,1.599-0.491,3.15-1.473,4.372h0.847h3.438c0.535,0,1.072,0.376,1.25,0.94l6.386,21.106c0.134,0.423,0.144,0.801-0.178,1.269
			c-0.323,0.469-0.67,0.612-1.117,0.612H3.355z"/>
		<g>
			<path fill="#1B4298" d="M13.681,22.725c0.329,0.307,0.494,0.707,0.494,1.199c0,0.343-0.083,0.648-0.25,0.914
				c-0.166,0.267-0.412,0.477-0.739,0.631c-0.326,0.155-0.724,0.232-1.193,0.232c-0.436,0-0.847-0.07-1.233-0.21
				c-0.387-0.14-0.697-0.328-0.932-0.563l0.302-0.489c0.2,0.206,0.466,0.373,0.798,0.502c0.332,0.128,0.687,0.193,1.065,0.193
				c0.492,0,0.873-0.106,1.142-0.322c0.269-0.214,0.404-0.511,0.404-0.889c0-0.372-0.135-0.665-0.404-0.876
				c-0.27-0.211-0.676-0.318-1.22-0.318h-0.43v-0.455l1.667-2.087h-3.075v-0.55h3.865v0.439l-1.701,2.138
				C12.872,22.249,13.352,22.42,13.681,22.725z"/>
			<path fill="#1B4298" d="M16.197,25.332c-0.364-0.246-0.647-0.6-0.851-1.061c-0.203-0.46-0.304-1.003-0.304-1.626
				c0-0.625,0.101-1.167,0.304-1.628s0.487-0.815,0.851-1.061c0.363-0.246,0.777-0.369,1.241-0.369c0.464,0,0.877,0.123,1.241,0.369
				c0.363,0.246,0.648,0.6,0.854,1.061c0.207,0.461,0.31,1.003,0.31,1.628c0,0.623-0.103,1.167-0.31,1.626
				c-0.206,0.461-0.491,0.815-0.854,1.061c-0.364,0.246-0.777,0.369-1.241,0.369C16.974,25.701,16.56,25.578,16.197,25.332z
				 M18.361,24.842c0.267-0.194,0.474-0.478,0.622-0.85c0.149-0.372,0.224-0.821,0.224-1.348s-0.075-0.977-0.224-1.349
				c-0.148-0.372-0.355-0.655-0.622-0.85s-0.574-0.292-0.923-0.292s-0.657,0.098-0.923,0.292c-0.267,0.195-0.475,0.478-0.623,0.85
				s-0.224,0.822-0.224,1.349s0.075,0.976,0.224,1.348s0.356,0.656,0.623,0.85c0.266,0.194,0.573,0.292,0.923,0.292
				S18.094,25.037,18.361,24.842z"/>
		</g>
		<text transform="matrix(1 0 0 1 19.6104 25.6489)" fill="#1B4298" font-family="'VAGRoundedStd-Bold'" font-size="6.441"> </text>
		<g>
			<path fill="#1B4298" d="M22.495,23.667l-0.932,0.856v1.127H21.03v-5.576h0.533v3.78l2.36-2.157h0.661l-1.69,1.615l1.848,2.337
				h-0.654L22.495,23.667z"/>
			<path fill="#1B4298" d="M29.206,21.697v3.472c0,0.671-0.164,1.168-0.492,1.492c-0.328,0.323-0.823,0.485-1.484,0.485
				c-0.366,0-0.712-0.055-1.04-0.162c-0.329-0.107-0.596-0.256-0.801-0.447l0.271-0.406c0.19,0.17,0.421,0.304,0.695,0.399
				c0.272,0.094,0.56,0.143,0.86,0.143c0.501,0,0.869-0.117,1.105-0.35s0.353-0.595,0.353-1.085v-0.503
				c-0.165,0.25-0.381,0.441-0.65,0.571c-0.268,0.13-0.565,0.195-0.89,0.195c-0.371,0-0.708-0.081-1.011-0.244
				c-0.303-0.163-0.541-0.391-0.714-0.684c-0.172-0.293-0.259-0.625-0.259-0.995c0-0.371,0.087-0.702,0.259-0.992
				c0.173-0.29,0.41-0.516,0.71-0.677c0.3-0.16,0.638-0.24,1.015-0.24c0.335,0,0.639,0.068,0.909,0.203s0.488,0.33,0.653,0.585
				v-0.758H29.206z M27.958,24.842c0.23-0.123,0.41-0.294,0.537-0.515c0.128-0.221,0.192-0.472,0.192-0.751
				c0-0.281-0.064-0.53-0.192-0.749c-0.127-0.217-0.306-0.387-0.533-0.51c-0.229-0.123-0.488-0.185-0.778-0.185
				c-0.286,0-0.542,0.061-0.771,0.181c-0.228,0.12-0.405,0.291-0.533,0.511c-0.128,0.22-0.192,0.471-0.192,0.751
				c0,0.28,0.063,0.531,0.192,0.751c0.128,0.22,0.305,0.392,0.533,0.515c0.229,0.123,0.485,0.184,0.771,0.184
				C27.47,25.026,27.728,24.965,27.958,24.842z"/>
		</g>
		<g>
			<path fill="#6CADDF" d="M9.157,34.085C9.009,33.5,8.936,32.871,8.936,32.2s0.074-1.302,0.221-1.892
				c0.147-0.59,0.357-1.106,0.632-1.547h0.499c-0.289,0.495-0.5,1.027-0.636,1.595C9.518,30.924,9.45,31.539,9.45,32.2
				s0.067,1.276,0.202,1.844c0.136,0.568,0.347,1.1,0.636,1.595H9.789C9.514,35.188,9.304,34.67,9.157,34.085z"/>
			<path fill="#6CADDF" d="M14.002,31.326c0.261,0.127,0.466,0.307,0.613,0.54s0.221,0.503,0.221,0.812
				c0,0.313-0.076,0.59-0.228,0.83c-0.152,0.24-0.362,0.424-0.628,0.555c-0.267,0.13-0.567,0.195-0.9,0.195
				c-0.681,0-1.203-0.225-1.565-0.672c-0.363-0.448-0.543-1.082-0.543-1.899c0-0.573,0.098-1.058,0.293-1.455
				c0.197-0.397,0.47-0.697,0.823-0.9c0.353-0.203,0.765-0.305,1.234-0.305c0.509,0,0.917,0.093,1.22,0.28l-0.212,0.426
				c-0.245-0.162-0.578-0.243-1-0.243c-0.569,0-1.015,0.18-1.338,0.54s-0.485,0.883-0.485,1.568c0,0.123,0.007,0.262,0.022,0.419
				c0.127-0.28,0.33-0.496,0.609-0.651c0.28-0.154,0.601-0.231,0.963-0.231C13.439,31.135,13.74,31.198,14.002,31.326z
				 M13.965,33.504c0.233-0.203,0.349-0.474,0.349-0.812s-0.116-0.607-0.349-0.808c-0.232-0.201-0.547-0.301-0.944-0.301
				c-0.26,0-0.489,0.049-0.688,0.146c-0.198,0.098-0.354,0.232-0.466,0.404c-0.113,0.172-0.169,0.363-0.169,0.574
				c0,0.196,0.053,0.377,0.158,0.543c0.105,0.167,0.261,0.301,0.467,0.404c0.205,0.104,0.45,0.155,0.734,0.155
				C13.43,33.809,13.733,33.708,13.965,33.504z"/>
			<path fill="#6CADDF" d="M18.477,31.326c0.262,0.127,0.467,0.307,0.613,0.54s0.22,0.503,0.22,0.812c0,0.313-0.076,0.59-0.228,0.83
				s-0.362,0.424-0.628,0.555c-0.267,0.13-0.567,0.195-0.9,0.195c-0.681,0-1.203-0.225-1.565-0.672
				c-0.363-0.448-0.543-1.082-0.543-1.899c0-0.573,0.097-1.058,0.293-1.455c0.197-0.397,0.471-0.697,0.823-0.9
				c0.353-0.203,0.765-0.305,1.234-0.305c0.51,0,0.917,0.093,1.22,0.28l-0.212,0.426c-0.245-0.162-0.578-0.243-1-0.243
				c-0.569,0-1.015,0.18-1.337,0.54c-0.323,0.36-0.485,0.883-0.485,1.568c0,0.123,0.007,0.262,0.022,0.419
				c0.127-0.28,0.33-0.496,0.609-0.651c0.28-0.154,0.601-0.231,0.962-0.231C17.914,31.135,18.214,31.198,18.477,31.326z
				 M18.44,33.504c0.232-0.203,0.349-0.474,0.349-0.812s-0.116-0.607-0.349-0.808c-0.233-0.201-0.547-0.301-0.944-0.301
				c-0.26,0-0.489,0.049-0.688,0.146c-0.198,0.098-0.354,0.232-0.466,0.404c-0.113,0.172-0.169,0.363-0.169,0.574
				c0,0.196,0.053,0.377,0.158,0.543c0.106,0.167,0.262,0.301,0.468,0.404c0.205,0.104,0.45,0.155,0.734,0.155
				C17.905,33.809,18.207,33.708,18.44,33.504z"/>
			<path fill="#6CADDF" d="M22.191,28.761h0.522v5.452h-0.522V28.761z"/>
			<path fill="#6CADDF" d="M27.144,30.565c0.293,0.164,0.524,0.396,0.69,0.694c0.167,0.299,0.25,0.64,0.25,1.022
				s-0.083,0.723-0.25,1.021c-0.166,0.299-0.397,0.532-0.69,0.698c-0.294,0.167-0.622,0.25-0.985,0.25
				c-0.323,0-0.613-0.069-0.871-0.206s-0.464-0.335-0.621-0.595v0.764h-0.499v-5.452h0.521v2.322
				c0.161-0.249,0.368-0.438,0.62-0.569c0.252-0.13,0.535-0.195,0.849-0.195C26.521,30.319,26.849,30.401,27.144,30.565z
				 M26.856,33.599c0.221-0.124,0.394-0.302,0.518-0.532c0.125-0.23,0.188-0.492,0.188-0.786c0-0.294-0.063-0.556-0.188-0.786
				c-0.124-0.23-0.297-0.408-0.518-0.533c-0.22-0.125-0.465-0.188-0.735-0.188c-0.274,0-0.52,0.063-0.738,0.188
				c-0.218,0.125-0.389,0.303-0.514,0.533s-0.188,0.492-0.188,0.786c0,0.294,0.063,0.556,0.188,0.786
				c0.125,0.23,0.296,0.408,0.514,0.532c0.219,0.125,0.464,0.188,0.738,0.188C26.391,33.787,26.636,33.724,26.856,33.599z"/>
			<path fill="#6CADDF" d="M28.716,35.639c0.289-0.495,0.501-1.025,0.639-1.591c0.138-0.565,0.206-1.182,0.206-1.848
				c0-0.666-0.068-1.282-0.206-1.848c-0.137-0.565-0.35-1.096-0.639-1.591h0.5c0.274,0.441,0.486,0.957,0.635,1.547
				c0.15,0.59,0.225,1.221,0.225,1.892s-0.074,1.301-0.22,1.888c-0.148,0.588-0.36,1.105-0.64,1.551H28.716z"/>
		</g>
	</g>
	<path fill="none" stroke="#FAFAFA" stroke-width="4" stroke-miterlimit="10" d="M139.461,90.208H72.813
		c-1.276,0-2.401-0.841-2.765-2.062l-8.359-28.128h-6.82v-5.77h8.973c1.276,0,2.399,0.838,2.764,2.063l8.359,28.129h62.349
		l8.355-28.073c0.364-1.219,1.489-2.059,2.765-2.059h8.708v5.768h-6.558l-8.357,28.07C141.861,89.371,140.738,90.208,139.461,90.208
		z M99.847,11.07h12.7v4.728h-12.7V11.07z M150.583,45.928l-8.357-28.07c-0.364-1.223-1.488-2.059-2.765-2.059h-21.146V8.188
		c0-1.592-1.293-2.884-2.885-2.884H96.963c-1.594,0-2.884,1.292-2.884,2.884v7.611H72.813c-1.276,0-2.401,0.836-2.765,2.061
		l-8.359,28.127h-6.82v5.769h8.973c1.276,0,2.399-0.839,2.764-2.064l8.359-28.125h62.349l8.355,28.069
		c0.364,1.222,1.489,2.062,2.765,2.062h8.708V45.93h-6.559V45.928z"/>
	<g>
		
			<line fill="none" stroke="#6CADDF" stroke-linecap="square" stroke-miterlimit="10" stroke-dasharray="2,4" x1="48.605" y1="20.645" x2="161.105" y2="20.645"/>
		<g>
			<path fill="#6CADDF" d="M172.775,22.713h-1.605v2.024h-0.825v-2.024h-4.528v-0.572l4.253-5.104h0.917l-4.104,4.972h3.485v-1.782
				h0.802v1.782h1.605V22.713z"/>
		</g>
		<g>
			<path fill="#6CADDF" d="M175.13,18.833c-0.09-0.09-0.135-0.197-0.135-0.323c0-0.12,0.045-0.226,0.135-0.315
				s0.201-0.135,0.333-0.135s0.243,0.043,0.333,0.13s0.135,0.19,0.135,0.311c0,0.133-0.045,0.243-0.135,0.333
				s-0.201,0.136-0.333,0.136S175.22,18.922,175.13,18.833z M175.139,20.002h0.64v4.734h-0.64V20.002z"/>
			<path fill="#6CADDF" d="M181.39,20.484c0.351,0.346,0.526,0.848,0.526,1.508v2.745h-0.639v-2.682
				c0-0.492-0.123-0.867-0.369-1.125s-0.598-0.388-1.054-0.388c-0.51,0-0.913,0.152-1.21,0.455s-0.445,0.722-0.445,1.255v2.484
				h-0.64v-4.734h0.612v0.873c0.174-0.288,0.415-0.511,0.725-0.67c0.309-0.159,0.667-0.238,1.075-0.238
				C180.566,19.967,181.038,20.139,181.39,20.484z"/>
		</g>
		<g>
			<path fill="#BFBFBF" d="M169.083,27.385v5.6h-1.04v-4.728h-1.184v-0.872H169.083z"/>
			<path fill="#BFBFBF" d="M171.331,32.725c-0.353-0.227-0.63-0.558-0.832-0.992c-0.203-0.435-0.305-0.95-0.305-1.548
				s0.102-1.113,0.305-1.548c0.202-0.435,0.479-0.766,0.832-0.992c0.352-0.227,0.752-0.34,1.2-0.34c0.447,0,0.849,0.113,1.203,0.34
				c0.355,0.227,0.634,0.558,0.836,0.992c0.203,0.435,0.305,0.95,0.305,1.548s-0.102,1.113-0.305,1.548
				c-0.202,0.435-0.48,0.766-0.836,0.992c-0.354,0.227-0.756,0.34-1.203,0.34C172.083,33.065,171.683,32.952,171.331,32.725z
				 M173.479,31.665c0.232-0.33,0.349-0.823,0.349-1.479s-0.116-1.149-0.349-1.48c-0.231-0.33-0.548-0.496-0.947-0.496
				c-0.396,0-0.708,0.166-0.94,0.496c-0.232,0.331-0.348,0.824-0.348,1.48s0.115,1.149,0.348,1.479
				c0.232,0.331,0.545,0.496,0.94,0.496C172.931,32.161,173.247,31.996,173.479,31.665z"/>
			<path fill="#BFBFBF" d="M178.858,32.761c-0.352-0.187-0.627-0.447-0.824-0.78s-0.296-0.711-0.296-1.132
				c0-0.422,0.099-0.798,0.296-1.128c0.197-0.331,0.471-0.59,0.82-0.776s0.748-0.28,1.196-0.28c0.421,0,0.79,0.086,1.107,0.256
				c0.317,0.171,0.557,0.416,0.717,0.736l-0.769,0.448c-0.123-0.197-0.275-0.346-0.46-0.444c-0.184-0.099-0.386-0.147-0.604-0.147
				c-0.374,0-0.684,0.121-0.929,0.363c-0.245,0.243-0.368,0.567-0.368,0.973s0.122,0.729,0.364,0.972
				c0.243,0.243,0.554,0.364,0.933,0.364c0.218,0,0.42-0.05,0.604-0.148c0.185-0.099,0.337-0.246,0.46-0.443l0.769,0.447
				c-0.166,0.32-0.407,0.567-0.725,0.74c-0.317,0.174-0.684,0.26-1.1,0.26C179.607,33.041,179.211,32.948,178.858,32.761z"/>
			<path fill="#BFBFBF" d="M189.411,29.133c0.314,0.312,0.472,0.779,0.472,1.403v2.448h-1v-2.32c0-0.373-0.083-0.654-0.248-0.844
				s-0.402-0.284-0.712-0.284c-0.336,0-0.605,0.111-0.808,0.332c-0.203,0.222-0.305,0.537-0.305,0.948v2.168h-1v-2.32
				c0-0.373-0.082-0.654-0.247-0.844c-0.166-0.189-0.403-0.284-0.713-0.284c-0.341,0-0.611,0.109-0.812,0.328s-0.3,0.536-0.3,0.952
				v2.168h-1v-4.272h0.952v0.545c0.159-0.192,0.359-0.339,0.6-0.44s0.507-0.152,0.8-0.152c0.32,0,0.604,0.061,0.853,0.181
				s0.443,0.297,0.588,0.531c0.176-0.224,0.402-0.398,0.68-0.523s0.584-0.188,0.92-0.188
				C188.67,28.665,189.097,28.821,189.411,29.133z"/>
		</g>
		
			<line fill="none" stroke="#6CADDF" stroke-linecap="square" stroke-miterlimit="10" x1="158.037" y1="20.645" x2="158.037" y2="29.338"/>
		<path fill="none" stroke="#6CADDF" stroke-linecap="square" stroke-miterlimit="10" d="M159.571,29.338h-3.068 M159.571,20.645
			h-3.068 M158.037,20.645v8.693"/>
		
			<line fill="none" stroke="#6CADDF" stroke-linecap="square" stroke-miterlimit="10" stroke-dasharray="2,4" x1="48.605" y1="29.338" x2="161.105" y2="29.338"/>
	</g>
</g>
</svg>
