<?xml version="1.0" encoding="utf-8"?>
<!-- Generator: Adobe Illustrator 16.0.0, SVG Export Plug-In . SVG Version: 6.00 Build 0)  -->
<!DOCTYPE svg PUBLIC "-//W3C//DTD SVG 1.1//EN" "http://www.w3.org/Graphics/SVG/1.1/DTD/svg11.dtd">
<svg version="1.1" id="Layer_1" xmlns="http://www.w3.org/2000/svg" xmlns:xlink="http://www.w3.org/1999/xlink" x="0px" y="0px"
	 width="101.243px" height="70.658px" viewBox="6.052 7.414 101.243 70.658" enable-background="new 6.052 7.414 101.243 70.658"
	 xml:space="preserve">
<g>
	<path fill="#7AAAD9" d="M60.147,49.201c-0.145-0.466-0.429-0.496-1.299-0.867c-0.91-14.77-0.777-14.035-1.101-14.792
		c-0.146-0.339-0.342-0.633-0.58-0.872c-0.684-0.678,1.002,0.007-24.212-7.438c-0.251-0.074-0.515-0.1-0.77-0.08l-20.979,1.605
		c-1.363,0.104-2.524,1.248-2.673,2.727C8.503,29.47,7.421,42.14,7.418,42.174c-0.479,0.056-0.812,0.037-1.114,0.411
		c-0.425,0.528-0.214,2.122-0.076,2.387c0.136,0.258,0.261,0.299,1.47,1.18l1.833,10.813c0.088,0.522,0.338,0.998,0.736,1.349
		c5.918,5.209,11.835,10.418,17.753,15.629c-0.258-0.231,0.684,0.892,2.318,0.529l23.4-5.174c1.328-0.293,2.545-1.635,2.794-3.213
		c1.767-11.225,1.232-7.838,2.162-13.734c0.418-0.072,0.608-0.067,0.845-0.227C60.414,51.537,60.228,49.459,60.147,49.201z
		 M25.306,26.891l3.188-0.255l15.818,5.169l-3.604,0.36L25.306,26.891z M39.455,32.29l-3.714,0.371l-14.81-5.419l3.271-0.262
		L39.455,32.29z M29.571,26.549l3.106-0.249l16.345,5.034l-3.496,0.349L29.571,26.549z M19.799,27.332l14.652,5.458l-3.821,0.38
		L16.451,27.6L19.799,27.332z M55.218,39.647L50.8,40.212l0.141-4.014l4.011-0.464L55.218,39.647z M50.74,41.899l4.589-0.612
		l0.253,3.743l-4.978,0.724L50.74,41.899z M13.357,34.933l1.583,0.813l-0.745,7.786l-1.551-0.973L13.357,34.933z M12.129,42.236
		l-1.465-0.918l0.672-7.422l1.494,0.767L12.129,42.236z M15.499,36.031l1.681,0.863l-0.791,8.012l-1.646-1.032L15.499,36.031z
		 M17.773,37.199l1.789,0.918l-0.842,8.25l-1.75-1.099L17.773,37.199z M20.194,38.441l1.908,0.979l-0.9,8.501l-1.865-1.168
		L20.194,38.441z M22.775,39.766l1.96,1.006l-0.959,8.764l-1.915-1.199L22.775,39.766z M9.479,32.943l1.361,0.698l-0.663,7.372
		l-1.334-0.836L9.479,32.943z M34.857,70.024l-4.288,0.904L30.106,67.3l4.781-0.956L34.857,70.024z M34.9,64.715l-5,0.976
		l-0.481-3.758l5.513-1.013L34.9,64.715z M34.945,59.257l-5.736,1.025l-0.492-3.85l6.26-1.047L34.945,59.257z M34.991,53.692
		l-6.296,1.021l0.479-4.09l5.85-0.881L34.991,53.692z M35.038,48.017l-5.656,0.821l0.486-4.155l5.203-0.693L35.038,48.017z
		 M35.085,42.226l-5.005,0.641l0.505-4.314l4.535-0.524L35.085,42.226z M41.799,68.563l-5.418,1.142l0.04-3.667l5.453-1.089
		L41.799,68.563z M41.907,63.351l-5.468,1.064l0.042-3.779l5.504-1.011L41.907,63.351z M42.018,57.992l-5.519,0.985l0.042-3.854
		l5.556-0.93L42.018,57.992z M42.131,52.535l-5.571,0.903l0.043-3.934l5.608-0.844L42.131,52.535z M42.246,46.969l-5.625,0.817
		l0.044-4.01l5.662-0.755L42.246,46.969z M42.363,41.293l-5.679,0.727l0.046-4.179l5.718-0.661L42.363,41.293z M48.461,67.158
		l-5.199,1.096l0.084-3.601l5.23-1.045L48.461,67.158z M48.627,62.038l-5.245,1.021l0.086-3.709l5.278-0.97L48.627,62.038z
		 M48.799,56.778l-5.292,0.947l0.088-3.781l5.325-0.891L48.799,56.778z M48.974,51.425l-5.34,0.866l0.09-3.854l5.374-0.81
		L48.974,51.425z M49.151,45.965l-5.388,0.783l0.092-3.931l5.423-0.723L49.151,45.965z M49.333,40.4l-5.438,0.697l0.095-4.095
		l5.474-0.633L49.333,40.4z M53.682,66.058l-3.818,0.805l0.125-3.535l4.243-0.848L53.682,66.058z M54.474,60.897l-4.43,0.863
		l0.128-3.642l4.867-0.894L54.474,60.897z M55.284,55.621l-5.057,0.903l0.129-3.711l5.5-0.92L55.284,55.621z M50.415,51.19
		l0.132-3.782l5.146-0.774l0.248,3.661L50.415,51.19z"/>
	<g>
		<path fill="#4A68AE" d="M88.103,36.596c-0.246-0.761-1.074-1.557-1.84-1.812c-6.17-2.063-8.289-4.519-10.566-7.007
			c-0.54-0.593-1.346-0.591-1.842,0.041L47.747,61.127c-0.495,0.631-0.904,1.146-0.914,1.151c-0.005,0.006-0.012,0.009-0.017,0.013
			c-2.009,1.183-6.061,2.349-13.928,1.116c0,0-0.182-0.02-0.409-0.047c-0.225-0.024-0.163,0.563,0.303,1.214
			c1.413,1.969,5.28,5.428,14.59,4.207c0.292-0.04,0.606-0.005,0.907,0.09c0.484,0.153,1.026,1.038,1.298,1.789l0.879,2.428
			c0.272,0.752,0.466,2.033,0.778,2.771c0.555,1.303,1.855,2.213,3.371,2.213h19.607c2.02,0,3.657-1.619,3.657-3.613
			c0-1.996-1.638-3.615-3.657-3.615h-3.859c-0.809,0-2.065-0.328-2.496-1.006c-0.492-0.781-0.657-1.771-0.641-2.777
			c0.014-0.797,0.643-1.838,1.277-2.334l13.24-11.981c0.635-0.495,1.328-0.275,1.551,0.493l6.191,21.419
			c0.223,0.768,0.676,2.006,1.284,2.528c0.669,0.572,1.525,0.887,2.404,0.887c0.539,0,1.088-0.118,1.606-0.366
			c1.367-0.664,2.433-2.203,2.492-3.69c0.031-0.798-0.445-2.029-0.645-2.804l-7.477-31.382L88.103,36.596z"/>
		<path fill="#4A68AE" d="M101.593,20.813c-0.756-0.283-1.621-1.111-1.933-1.847l-0.81-1.917c-0.313-0.736-1.213-1.427-2.013-1.543
			l-9.907-1.437c-0.8-0.116-1.867-0.706-2.388-1.318l-4.207-4.96c-0.519-0.612-0.879-0.464-0.805,0.331l1.041,11.094
			c0.036,0.397-0.058,0.86-0.236,1.287c-0.285,0.673-1.101,1.406-1.519,1.82l-0.756,0.751c0,0-0.305,0.303-0.682,0.678
			c-0.377,0.372-0.293,1.198,0.238,1.799c0.441,0.498,0.963,1.042,1.572,1.605c1.67,1.536,4.266,3.453,7.973,4.964
			c0.747,0.304,1.383,0.209,1.467-0.163c0.068-0.308,0.165-0.541,0.27-0.625c0.213-0.175,1.039-0.388,1.843-0.477l13.43-1.496
			c0.804-0.089,1.661-0.775,1.916-1.534l1.131-3.352c0.255-0.757-0.149-1.601-0.905-1.885L101.593,20.813z"/>
	</g>
</g>
</svg>
