<?xml version="1.0" encoding="utf-8"?>
<!-- Generator: Adobe Illustrator 16.0.0, SVG Export Plug-In . SVG Version: 6.00 Build 0)  -->
<!DOCTYPE svg PUBLIC "-//W3C//DTD SVG 1.1//EN" "http://www.w3.org/Graphics/SVG/1.1/DTD/svg11.dtd">
<svg version="1.1" id="Layer_1" xmlns="http://www.w3.org/2000/svg" xmlns:xlink="http://www.w3.org/1999/xlink" x="0px" y="0px"
	 width="205.331px" height="106.333px" viewBox="0 0 205.331 106.333" enable-background="new 0 0 205.331 106.333"
	 xml:space="preserve">
<g>
	<g>
		<defs>
			<path id="SVGID_1_" d="M148.142,73.508c-0.701,0.879-1.772,1.364-3.016,1.364h-3.453c-0.129-2.156,0.325-3.931,1.36-5.29
				c1.448-1.904,3.765-2.698,5.244-3.023l0.616,3.601C149.11,71.441,148.846,72.63,148.142,73.508z M78.128,73.508
				c-0.702-0.877-0.969-2.066-0.75-3.349l0.613-3.595c1.479,0.33,3.784,1.124,5.224,3.003c1.044,1.362,1.501,3.141,1.371,5.305
				h-3.441C79.902,74.872,78.831,74.387,78.128,73.508z M83.231,35.833c0.49-2.878,3.265-5.313,6.057-5.313h47.694
				c2.792,0,5.566,2.434,6.056,5.313l4.667,27.363c-1.969,0.422-5.104,1.5-7.201,4.235c-1.536,2.004-2.237,4.5-2.095,7.441H87.851
				c0.143-2.941-0.559-5.437-2.095-7.441c-2.092-2.731-5.223-3.811-7.19-4.233L83.231,35.833z M97.545,16.655
				c0.587-1.534,1.264-2.918,2.026-4.155l2.781,2.301c0.402,0.335,0.92,0.478,1.416,0.34c0.492-0.138,0.883-0.48,1.076-0.97
				c0.14-0.285,1.889-3.551,8.291-3.551c6.4,0,8.15,3.266,8.291,3.551c0.192,0.49,0.584,0.832,1.075,0.97
				c0.127,0.035,0.256,0.052,0.382,0.052c0.37,0,0.735-0.145,1.033-0.393l2.782-2.301c0.749,1.214,1.415,2.571,1.995,4.073
				c1.584,4.108,2.104,8.281,2.273,10.537H95.3C95.468,24.873,95.98,20.753,97.545,16.655z M113.136,4.934
				c4.747,0,8.612,1.639,11.557,4.88l-1.467,1.215c-0.342-0.385-0.769-0.8-1.296-1.209c-2.23-1.731-5.189-2.611-8.794-2.611
				c-3.605,0-6.564,0.88-8.795,2.611c-0.526,0.41-0.953,0.825-1.295,1.209l-1.467-1.215C104.522,6.573,108.387,4.934,113.136,4.934z
				 M152.1,69.56c-3.364-19.928-5.215-30.784-5.554-32.568c-0.34-1.784-0.881-3.521-1.625-5.212
				c-0.525-0.844-1.184-1.622-1.955-2.298c-1.744-1.529-3.869-2.372-5.983-2.372h-2.744c-0.162-2.414-0.701-7.041-2.488-11.721
				c-3.465-9.07-9.901-13.865-18.615-13.865c-8.712,0-15.149,4.795-18.614,13.865c-1.787,4.68-2.327,9.308-2.489,11.721h-2.743
				c-2.115,0-4.239,0.842-5.983,2.372c-1.743,1.529-2.908,3.57-3.28,5.752L74.171,69.56c-0.391,2.294,0.128,4.473,1.459,6.14
				c1.333,1.667,3.291,2.583,5.515,2.583h4.882c0.006,0,18.07,0,54.193,0c0.007,0,1.643,0,4.906,0c2.224,0,4.182-0.917,5.514-2.583
				C151.971,74.032,152.491,71.854,152.1,69.56z"/>
		</defs>
		<clipPath id="SVGID_2_">
			<use xlink:href="#SVGID_1_"  overflow="visible"/>
		</clipPath>
		<g clip-path="url(#SVGID_2_)">
			<defs>
				<rect id="SVGID_3_" x="-387.233" y="-706.439" width="625.461" height="1692.122"/>
			</defs>
			<clipPath id="SVGID_4_">
				<use xlink:href="#SVGID_3_"  overflow="visible"/>
			</clipPath>
			<rect x="71.438" y="-1.206" clip-path="url(#SVGID_4_)" fill="#1B4298" width="83.395" height="82.218"/>
		</g>
	</g>
	<g>
		<defs>
			<path id="SVGID_5_" d="M140.682,69.786c-0.328-0.184-0.692-0.308-1.085-0.342c-0.546-0.047-5.376-0.624-6.678-6.418
				c-0.606-2.697-0.395-6.361-0.393-6.42c0.017-0.238-0.025-2.759-0.344-3.915c-1.485-5.394-9.238-8.442-18.309-6.559
				c-1.688,0.349-3.406,0.735-5.072,1.186c0.185,1.804,0.242,5.278-1.604,7.576c-1.563,1.945-4.839,2.535-5.209,2.597
				c-0.057,0.008-0.114,0.014-0.171,0.014c-0.527,0-0.99-0.403-1.074-0.964c-0.095-0.622,0.311-1.208,0.905-1.305
				c0.782-0.132,2.999-0.713,3.882-1.812c1.098-1.367,1.237-3.507,1.167-5.024c-0.047-1.03-0.025-8.665-0.025-8.665l-4.133,3.295
				c-0.952-0.378-2.001-0.592-3.104-0.592c-1.071,0-2.092,0.198-3.021,0.556l-3.641-3.2v6.085c-0.717,1.08-1.137,2.343-1.137,3.698
				c0,3.188,2.282,5.885,5.433,6.802c-0.108,1.085,0.009,2.286,0.403,3.626c0.537,1.823,1.994,3.327,4.038,4.442v8
				c0,1.558,1.206,2.821,2.693,2.821s2.692-1.262,2.692-2.821V66.26c2.6,0.477,5.507,0.56,8.441,0.192l-4.521,3.813
				c-1.158,0.978-1.341,2.753-0.407,3.967c0.532,0.691,1.313,1.05,2.099,1.05c0.594,0,1.19-0.205,1.688-0.624l8.08-6.814
				c0.04-0.033,0.069-0.073,0.106-0.11v4.671c0,1.558,1.205,2.82,2.693,2.82c1.487,0,2.692-1.262,2.692-2.82v-7.338
				c2.025,7.451,8.225,9.875,11.384,10.114L140.682,69.786z"/>
		</defs>
		<clipPath id="SVGID_6_">
			<use xlink:href="#SVGID_5_"  overflow="visible"/>
		</clipPath>
		<g clip-path="url(#SVGID_6_)">
			<defs>
				<rect id="SVGID_7_" x="-387.233" y="-706.439" width="625.461" height="1692.122"/>
			</defs>
			<clipPath id="SVGID_8_">
				<use xlink:href="#SVGID_7_"  overflow="visible"/>
			</clipPath>
			<rect x="89.029" y="37.003" clip-path="url(#SVGID_8_)" fill="#1B4298" width="54.259" height="41.007"/>
		</g>
	</g>
	<g>
		<path fill="none" stroke="#1B4298" stroke-width="1.5" stroke-miterlimit="10" d="M22.342,8.161c-1.759,0-3.175,1.484-3.175,3.326
			s1.417,3.326,3.175,3.326s3.176-1.484,3.176-3.326S24.101,8.161,22.342,8.161z M5.039,42.895c-0.472,0-0.896-0.208-1.132-0.624
			c-0.282-0.467-0.33-0.988-0.188-1.455l7.355-23.343c0.188-0.624,0.707-1.04,1.32-1.04h2.169h2.404
			c-0.99-1.299-1.095-2.337-1.095-4.946s1.806-6.956,6.423-7.011c4.616-0.054,6.223,3.379,6.317,7.122
			c0,1.768-0.518,3.483-1.555,4.835h0.896h3.63c0.565,0,1.131,0.416,1.32,1.04l6.744,23.343c0.141,0.467,0.152,0.885-0.189,1.404
			c-0.34,0.518-0.707,0.675-1.178,0.675H5.039z"/>
		<g>
			<path fill="#1B4298" d="M17.146,24.598c0.454,0.373,0.679,0.893,0.679,1.563c0,0.416-0.093,0.789-0.278,1.117
				c-0.186,0.328-0.465,0.585-0.836,0.773c-0.373,0.188-0.829,0.282-1.371,0.282c-0.489,0-0.953-0.084-1.395-0.251
				c-0.44-0.167-0.794-0.392-1.061-0.672l0.343-0.584c0.228,0.246,0.528,0.445,0.899,0.599c0.373,0.153,0.773,0.23,1.204,0.23
				c0.567,0,1.006-0.133,1.315-0.399c0.311-0.267,0.465-0.622,0.465-1.066c0-0.493-0.174-0.865-0.523-1.117
				c-0.35-0.253-0.938-0.379-1.766-0.379h-1.458l0.353-3.597h3.747v0.655h-3.131l-0.235,2.285h0.88
				C15.97,24.039,16.692,24.225,17.146,24.598z"/>
		</g>
		<text transform="matrix(0.9549 0 0 1 19.457 29.4448)" fill="#1B4298" font-family="'VAGRoundedStd-Bold'" font-size="7.6858"> </text>
		<g>
			<path fill="#1B4298" d="M21.955,25.566l-1.213,1.169v1.537h-0.696v-7.604h0.696v5.155l3.072-2.941h0.862l-2.202,2.203
				l2.407,3.187h-0.852L21.955,25.566z"/>
			<path fill="#1B4298" d="M30.692,22.881v4.734c0,0.916-0.213,1.593-0.641,2.034c-0.427,0.44-1.071,0.661-1.933,0.661
				c-0.476,0-0.928-0.073-1.354-0.221c-0.427-0.146-0.776-0.35-1.042-0.609l0.353-0.554c0.248,0.233,0.549,0.414,0.904,0.543
				c0.356,0.13,0.73,0.194,1.121,0.194c0.652,0,1.132-0.158,1.439-0.477c0.306-0.317,0.459-0.811,0.459-1.48v-0.687
				c-0.215,0.342-0.498,0.602-0.847,0.779c-0.348,0.178-0.735,0.266-1.159,0.266c-0.482,0-0.921-0.111-1.315-0.333
				c-0.396-0.221-0.705-0.533-0.931-0.932c-0.225-0.4-0.337-0.853-0.337-1.358s0.112-0.957,0.337-1.353
				c0.226-0.396,0.534-0.704,0.925-0.923c0.392-0.218,0.832-0.328,1.321-0.328c0.438,0,0.832,0.093,1.185,0.277
				c0.352,0.185,0.636,0.45,0.852,0.799v-1.035H30.692z M29.069,27.17c0.299-0.167,0.533-0.402,0.699-0.703s0.25-0.642,0.25-1.024
				s-0.084-0.723-0.25-1.02c-0.166-0.298-0.397-0.529-0.694-0.696c-0.297-0.167-0.635-0.251-1.013-0.251
				c-0.371,0-0.706,0.081-1.002,0.245c-0.297,0.164-0.528,0.396-0.696,0.697c-0.166,0.301-0.249,0.643-0.249,1.025
				s0.083,0.724,0.249,1.024c0.167,0.3,0.399,0.535,0.696,0.703c0.297,0.167,0.631,0.251,1.002,0.251
				C28.433,27.421,28.769,27.337,29.069,27.17z"/>
		</g>
		<g>
			<path fill="#6CADDF" d="M11.854,38.248c-0.179-0.749-0.268-1.55-0.268-2.409c0-0.857,0.089-1.663,0.268-2.417
				c0.18-0.754,0.437-1.413,0.771-1.975h0.609c-0.353,0.631-0.611,1.311-0.776,2.036c-0.164,0.727-0.246,1.511-0.246,2.356
				c0,0.846,0.083,1.63,0.246,2.357c0.165,0.726,0.423,1.405,0.776,2.036h-0.609C12.291,39.657,12.034,38.995,11.854,38.248z"/>
			<path fill="#6CADDF" d="M15.808,31.841v6.57h-0.646v-5.97h-1.479v-0.601H15.808z"/>
			<path fill="#6CADDF" d="M19.042,31.841v6.57h-0.645v-5.97h-1.479v-0.601H19.042z"/>
			<path fill="#6CADDF" d="M23.31,31.447h0.637v6.964H23.31V31.447z"/>
			<path fill="#6CADDF" d="M29.351,33.751c0.358,0.209,0.639,0.505,0.843,0.887c0.203,0.382,0.305,0.817,0.305,1.305
				c0,0.487-0.102,0.922-0.305,1.304c-0.204,0.381-0.485,0.68-0.843,0.892c-0.357,0.213-0.759,0.319-1.201,0.319
				c-0.394,0-0.748-0.087-1.062-0.262c-0.313-0.175-0.566-0.429-0.757-0.761v0.976h-0.61v-6.964h0.637v2.965
				c0.197-0.318,0.449-0.562,0.757-0.728c0.307-0.165,0.652-0.249,1.035-0.249C28.592,33.436,28.993,33.542,29.351,33.751z
				 M29.001,37.627c0.27-0.159,0.48-0.386,0.632-0.681c0.153-0.294,0.229-0.629,0.229-1.004c0-0.375-0.076-0.71-0.229-1.005
				c-0.152-0.294-0.363-0.521-0.632-0.681c-0.268-0.159-0.567-0.239-0.896-0.239c-0.334,0-0.635,0.08-0.901,0.239
				c-0.266,0.159-0.476,0.386-0.628,0.681s-0.228,0.629-0.228,1.005c0,0.375,0.076,0.709,0.228,1.004s0.362,0.521,0.628,0.681
				c0.266,0.159,0.566,0.24,0.901,0.24C28.434,37.867,28.733,37.787,29.001,37.627z"/>
			<path fill="#6CADDF" d="M31.269,40.232c0.353-0.631,0.612-1.31,0.779-2.032c0.167-0.723,0.251-1.51,0.251-2.361
				c0-0.85-0.083-1.638-0.251-2.361c-0.167-0.723-0.426-1.4-0.779-2.031h0.61c0.334,0.563,0.592,1.221,0.774,1.975
				c0.182,0.754,0.274,1.56,0.274,2.417c0,0.858-0.089,1.662-0.269,2.413c-0.179,0.75-0.439,1.411-0.779,1.98H31.269z"/>
		</g>
	</g>
	
		<line fill="none" stroke="#6CADDF" stroke-linecap="square" stroke-miterlimit="10" stroke-dasharray="2,4" x1="82.384" y1="45.555" x2="181.415" y2="45.555"/>
	<g>
		<g>
			<path fill="#6CADDF" d="M181.581,52.047v7.7h-0.756v-6.996h-1.734v-0.704H181.581z"/>
			<path fill="#6CADDF" d="M184.747,59.34c-0.443-0.315-0.791-0.768-1.039-1.358c-0.248-0.59-0.373-1.285-0.373-2.084
				c0-0.8,0.125-1.494,0.373-2.085c0.248-0.59,0.596-1.043,1.039-1.358c0.445-0.315,0.951-0.473,1.518-0.473
				c0.568,0,1.074,0.157,1.518,0.473c0.445,0.315,0.793,0.769,1.047,1.358c0.252,0.591,0.377,1.285,0.377,2.085
				c0,0.799-0.125,1.494-0.377,2.084c-0.254,0.591-0.602,1.043-1.047,1.358c-0.443,0.315-0.949,0.474-1.518,0.474
				C185.698,59.813,185.192,59.655,184.747,59.34z M187.394,58.713c0.326-0.249,0.58-0.612,0.762-1.089
				c0.184-0.477,0.273-1.052,0.273-1.727s-0.09-1.251-0.273-1.728c-0.182-0.477-0.436-0.84-0.762-1.089
				c-0.324-0.249-0.701-0.374-1.129-0.374c-0.426,0-0.803,0.125-1.129,0.374s-0.58,0.612-0.762,1.089s-0.273,1.053-0.273,1.728
				s0.092,1.25,0.273,1.727s0.436,0.84,0.762,1.089c0.326,0.25,0.703,0.374,1.129,0.374
				C186.692,59.087,187.069,58.963,187.394,58.713z"/>
		</g>
	</g>
	<g>
		<g>
			<path fill="#6CADDF" d="M192.04,53.188c-0.096-0.101-0.143-0.221-0.143-0.36c0-0.134,0.047-0.25,0.143-0.35
				c0.096-0.101,0.213-0.15,0.354-0.15c0.139,0,0.258,0.049,0.354,0.145c0.096,0.097,0.143,0.212,0.143,0.346
				c0,0.146-0.047,0.27-0.143,0.37c-0.096,0.1-0.215,0.149-0.354,0.149C192.253,53.337,192.136,53.287,192.04,53.188z
				 M192.05,54.487h0.678v5.26h-0.678V54.487z"/>
			<path fill="#6CADDF" d="M198.681,55.022c0.373,0.383,0.559,0.941,0.559,1.675v3.05h-0.678v-2.98c0-0.546-0.131-0.963-0.393-1.25
				c-0.26-0.286-0.633-0.43-1.117-0.43c-0.541,0-0.969,0.169-1.283,0.505c-0.314,0.337-0.473,0.802-0.473,1.396v2.76h-0.678v-5.26
				h0.648v0.97c0.186-0.32,0.441-0.568,0.77-0.745s0.707-0.265,1.141-0.265C197.808,54.447,198.308,54.639,198.681,55.022z"/>
		</g>
	</g>
	<g>
		<g>
			<path fill="#BFBFBF" d="M184.681,65.917l0.01,0.88l-3.941,0.039l-0.008-0.696l2.105-2.133c0.236-0.242,0.396-0.453,0.479-0.633
				c0.082-0.179,0.123-0.357,0.121-0.533c-0.002-0.262-0.088-0.461-0.258-0.598c-0.168-0.138-0.416-0.204-0.742-0.201
				c-0.545,0.006-0.961,0.205-1.248,0.597l-0.699-0.553c0.205-0.295,0.484-0.526,0.838-0.692c0.352-0.166,0.748-0.251,1.186-0.256
				c0.58-0.006,1.045,0.134,1.395,0.418c0.35,0.285,0.525,0.675,0.529,1.171c0.004,0.305-0.057,0.591-0.176,0.858
				s-0.352,0.573-0.693,0.919l-1.416,1.438L184.681,65.917z"/>
			<path fill="#BFBFBF" d="M188.581,63.786c0.365,0.303,0.549,0.718,0.555,1.246c0.002,0.336-0.074,0.641-0.23,0.915
				c-0.154,0.272-0.389,0.491-0.703,0.654s-0.705,0.247-1.168,0.252c-0.381,0.004-0.75-0.05-1.107-0.161s-0.66-0.267-0.906-0.468
				l0.412-0.812c0.199,0.169,0.439,0.302,0.719,0.397c0.277,0.096,0.564,0.142,0.859,0.139c0.352-0.003,0.627-0.082,0.828-0.235
				c0.199-0.154,0.297-0.364,0.295-0.631c-0.002-0.288-0.113-0.505-0.33-0.649s-0.59-0.214-1.113-0.209l-1.291,0.013l0.248-3.05
				l3.139-0.031l0.008,0.872l-2.299,0.022l-0.104,1.297l0.512-0.005C187.657,63.335,188.216,63.483,188.581,63.786z"/>
			<path fill="#BFBFBF" d="M192.853,66.492c-0.338-0.184-0.602-0.441-0.793-0.772s-0.289-0.708-0.293-1.129
				c-0.004-0.422,0.086-0.799,0.271-1.131c0.186-0.333,0.445-0.595,0.775-0.784c0.332-0.19,0.713-0.288,1.141-0.292
				c0.402-0.004,0.756,0.078,1.061,0.245c0.305,0.168,0.535,0.411,0.689,0.729l-0.729,0.456c-0.119-0.196-0.266-0.343-0.443-0.44
				c-0.176-0.097-0.369-0.144-0.578-0.142c-0.357,0.004-0.65,0.128-0.883,0.372c-0.232,0.246-0.346,0.571-0.342,0.977
				s0.121,0.729,0.355,0.968c0.234,0.241,0.531,0.359,0.893,0.355c0.209-0.002,0.402-0.054,0.576-0.154
				c0.176-0.1,0.318-0.249,0.436-0.447l0.736,0.439c-0.154,0.322-0.383,0.571-0.684,0.747c-0.303,0.178-0.65,0.267-1.049,0.271
				C193.571,66.764,193.19,66.675,192.853,66.492z"/>
			<path fill="#BFBFBF" d="M202.896,62.764c0.303,0.309,0.457,0.775,0.463,1.399l0.023,2.448l-0.955,0.009l-0.021-2.32
				c-0.004-0.373-0.086-0.653-0.244-0.841c-0.16-0.188-0.387-0.28-0.684-0.277c-0.32,0.003-0.576,0.117-0.768,0.339
				c-0.191,0.224-0.285,0.54-0.283,0.951l0.021,2.168l-0.955,0.01l-0.021-2.32c-0.004-0.373-0.086-0.653-0.244-0.841
				c-0.16-0.188-0.387-0.281-0.682-0.278c-0.326,0.004-0.584,0.115-0.773,0.336s-0.281,0.539-0.279,0.955l0.021,2.168l-0.955,0.01
				l-0.039-4.272l0.908-0.009l0.006,0.545c0.15-0.194,0.34-0.343,0.568-0.446s0.482-0.157,0.762-0.16
				c0.307-0.003,0.578,0.055,0.816,0.173c0.238,0.117,0.426,0.293,0.566,0.525c0.166-0.226,0.381-0.402,0.645-0.529
				c0.264-0.128,0.555-0.194,0.877-0.197C202.183,62.302,202.593,62.454,202.896,62.764z"/>
		</g>
	</g>
	
		<line fill="none" stroke="#6CADDF" stroke-linecap="square" stroke-miterlimit="10" x1="175.682" y1="45.555" x2="175.682" y2="75.03"/>
	<path fill="none" stroke="#6CADDF" stroke-linecap="square" stroke-miterlimit="10" d="M177.245,75.03h-3.127 M177.245,45.555
		h-3.127 M175.682,45.555V75.03"/>
	
		<line fill="none" stroke="#6CADDF" stroke-linecap="square" stroke-miterlimit="10" stroke-dasharray="2,4" x1="82.384" y1="75.03" x2="181.415" y2="75.03"/>
	<g>
		<path fill="#6CADDF" d="M46.324,46.224v7.7h-0.756v-6.996h-1.733v-0.704H46.324z"/>
		<path fill="#6CADDF" d="M52.337,49.98c0.486,0.399,0.729,0.959,0.729,1.678c0,0.447-0.1,0.847-0.299,1.198
			c-0.2,0.353-0.499,0.629-0.898,0.831c-0.399,0.201-0.89,0.303-1.471,0.303c-0.524,0-1.023-0.09-1.496-0.27s-0.853-0.42-1.14-0.721
			l0.367-0.627c0.245,0.264,0.567,0.479,0.967,0.644c0.398,0.165,0.829,0.247,1.292,0.247c0.608,0,1.08-0.143,1.412-0.429
			c0.333-0.286,0.499-0.667,0.499-1.145c0-0.527-0.188-0.927-0.562-1.198c-0.375-0.271-1.007-0.407-1.896-0.407h-1.564l0.378-3.861
			h4.022v0.704h-3.361l-0.252,2.453h0.945C51.075,49.381,51.85,49.581,52.337,49.98z"/>
	</g>
	<g>
		<path fill="#6CADDF" d="M54.782,47.364c-0.096-0.101-0.143-0.221-0.143-0.36c0-0.134,0.047-0.25,0.143-0.35
			c0.096-0.101,0.214-0.15,0.354-0.15s0.258,0.049,0.354,0.145c0.096,0.097,0.143,0.212,0.143,0.346c0,0.146-0.047,0.27-0.143,0.37
			c-0.096,0.1-0.214,0.149-0.354,0.149S54.877,47.464,54.782,47.364z M54.792,48.664h0.678v5.26h-0.678V48.664z"/>
		<path fill="#6CADDF" d="M61.423,49.199c0.372,0.383,0.559,0.941,0.559,1.675v3.05h-0.679v-2.98c0-0.546-0.13-0.963-0.392-1.25
			c-0.261-0.286-0.633-0.43-1.117-0.43c-0.541,0-0.969,0.169-1.284,0.505c-0.314,0.337-0.473,0.802-0.473,1.396v2.76H57.36v-5.26
			h0.649v0.97c0.185-0.32,0.44-0.568,0.769-0.745s0.708-0.265,1.142-0.265C60.549,48.624,61.05,48.815,61.423,49.199z"/>
	</g>
	<g>
		<g>
			<path fill="#BFBFBF" d="M43.125,60.655h-0.947v1.272h-0.962v-1.272h-2.934v-0.72l2.636-3.607h1.062l-2.482,3.447h1.749v-1.128
				h0.932v1.128h0.947V60.655z"/>
			<path fill="#BFBFBF" d="M44.629,61.668c-0.336-0.227-0.601-0.558-0.795-0.992c-0.193-0.435-0.29-0.95-0.29-1.548
				s0.097-1.113,0.29-1.548c0.194-0.435,0.459-0.766,0.795-0.992s0.718-0.34,1.146-0.34s0.812,0.113,1.15,0.34
				c0.338,0.227,0.604,0.558,0.798,0.992s0.29,0.95,0.29,1.548s-0.097,1.113-0.29,1.548s-0.46,0.766-0.798,0.992
				c-0.339,0.227-0.723,0.34-1.15,0.34S44.965,61.895,44.629,61.668z M46.68,60.607c0.222-0.33,0.333-0.823,0.333-1.479
				s-0.111-1.149-0.333-1.48c-0.222-0.33-0.523-0.496-0.905-0.496c-0.377,0-0.676,0.166-0.897,0.496
				c-0.222,0.331-0.332,0.824-0.332,1.48s0.11,1.149,0.332,1.479c0.222,0.331,0.521,0.496,0.897,0.496
				C46.157,61.104,46.458,60.938,46.68,60.607z"/>
			<path fill="#BFBFBF" d="M51.817,61.704c-0.336-0.187-0.598-0.447-0.786-0.78s-0.283-0.711-0.283-1.132
				c0-0.422,0.095-0.798,0.283-1.128c0.188-0.331,0.449-0.59,0.782-0.776c0.334-0.187,0.715-0.28,1.143-0.28
				c0.402,0,0.755,0.086,1.058,0.256c0.304,0.171,0.531,0.416,0.684,0.736l-0.733,0.448c-0.117-0.197-0.263-0.346-0.438-0.444
				s-0.368-0.147-0.577-0.147c-0.356,0-0.651,0.121-0.886,0.363c-0.234,0.243-0.352,0.567-0.352,0.973s0.115,0.729,0.348,0.972
				c0.231,0.243,0.528,0.364,0.89,0.364c0.209,0,0.401-0.05,0.577-0.148s0.321-0.246,0.438-0.443l0.733,0.447
				c-0.157,0.32-0.388,0.567-0.691,0.74c-0.303,0.174-0.652,0.26-1.05,0.26C52.533,61.983,52.154,61.891,51.817,61.704z"/>
			<path fill="#BFBFBF" d="M61.893,58.076c0.301,0.312,0.451,0.779,0.451,1.403v2.448h-0.955v-2.32c0-0.373-0.079-0.654-0.236-0.844
				c-0.158-0.189-0.385-0.284-0.681-0.284c-0.32,0-0.578,0.111-0.771,0.332c-0.193,0.222-0.29,0.537-0.29,0.948v2.168h-0.955v-2.32
				c0-0.373-0.079-0.654-0.236-0.844c-0.158-0.189-0.385-0.284-0.68-0.284c-0.326,0-0.585,0.109-0.775,0.328
				c-0.191,0.219-0.287,0.536-0.287,0.952v2.168h-0.955v-4.272h0.909V58.2c0.153-0.192,0.344-0.339,0.573-0.44
				s0.483-0.152,0.764-0.152c0.306,0,0.577,0.061,0.813,0.181c0.237,0.12,0.424,0.297,0.562,0.531
				c0.168-0.224,0.385-0.398,0.649-0.523s0.558-0.188,0.879-0.188C61.185,57.607,61.593,57.764,61.893,58.076z"/>
		</g>
	</g>
	<g>
		<g>
			<path fill="#6CADDF" d="M107.045,87.616v7.7h-0.756V88.32h-1.733v-0.704H107.045z"/>
			<path fill="#6CADDF" d="M113.821,94.612v0.704h-5.158v-0.561l3.057-3.136c0.386-0.396,0.646-0.738,0.783-1.028
				c0.137-0.289,0.204-0.581,0.204-0.874c0-0.455-0.148-0.809-0.446-1.062s-0.723-0.38-1.276-0.38c-0.86,0-1.529,0.286-2.006,0.858
				l-0.535-0.484c0.287-0.352,0.652-0.623,1.098-0.814c0.444-0.19,0.946-0.285,1.507-0.285c0.749,0,1.343,0.185,1.78,0.555
				c0.438,0.371,0.656,0.879,0.656,1.524c0,0.396-0.084,0.777-0.252,1.144c-0.168,0.367-0.486,0.788-0.956,1.265l-2.499,2.574
				H113.821z"/>
		</g>
	</g>
	<g>
		<g>
			<path fill="#6CADDF" d="M115.504,88.757c-0.096-0.101-0.143-0.221-0.143-0.36c0-0.134,0.047-0.25,0.143-0.35
				c0.096-0.101,0.214-0.15,0.354-0.15s0.258,0.049,0.354,0.145c0.096,0.097,0.143,0.212,0.143,0.346c0,0.146-0.047,0.27-0.143,0.37
				c-0.096,0.1-0.214,0.149-0.354,0.149S115.6,88.856,115.504,88.757z M115.514,90.057h0.678v5.26h-0.678V90.057z"/>
			<path fill="#6CADDF" d="M122.146,90.592c0.372,0.383,0.559,0.941,0.559,1.675v3.05h-0.679v-2.98c0-0.546-0.13-0.963-0.392-1.25
				c-0.261-0.286-0.633-0.43-1.117-0.43c-0.541,0-0.969,0.169-1.284,0.505c-0.314,0.337-0.473,0.802-0.473,1.396v2.76h-0.678v-5.26
				h0.649v0.97c0.185-0.32,0.44-0.568,0.769-0.745s0.708-0.265,1.142-0.265C121.272,90.017,121.773,90.208,122.146,90.592z"/>
		</g>
	</g>
	<g>
		<g>
			<path fill="#BFBFBF" d="M106.706,100.563c0.26,0.288,0.39,0.647,0.39,1.08c0,0.325-0.079,0.621-0.237,0.888
				c-0.157,0.267-0.396,0.479-0.714,0.636s-0.707,0.236-1.165,0.236c-0.382,0-0.75-0.058-1.104-0.172
				c-0.354-0.115-0.656-0.273-0.905-0.477l0.428-0.808c0.193,0.171,0.429,0.306,0.706,0.404c0.278,0.099,0.564,0.147,0.859,0.147
				c0.352,0,0.628-0.076,0.829-0.228c0.201-0.152,0.302-0.358,0.302-0.62s-0.096-0.466-0.286-0.612
				c-0.191-0.146-0.482-0.22-0.875-0.22h-0.488v-0.712l1.214-1.512h-2.429v-0.872h3.644v0.695l-1.299,1.616
				C106.069,100.099,106.446,100.274,106.706,100.563z"/>
			<path fill="#BFBFBF" d="M108.83,103.063c-0.336-0.227-0.601-0.558-0.795-0.992c-0.193-0.435-0.29-0.95-0.29-1.548
				s0.097-1.113,0.29-1.548c0.194-0.435,0.459-0.766,0.795-0.992s0.718-0.34,1.146-0.34s0.812,0.113,1.15,0.34
				c0.338,0.227,0.604,0.558,0.798,0.992s0.29,0.95,0.29,1.548s-0.097,1.113-0.29,1.548s-0.46,0.766-0.798,0.992
				c-0.339,0.227-0.723,0.34-1.15,0.34S109.166,103.289,108.83,103.063z M110.88,102.002c0.222-0.33,0.333-0.823,0.333-1.479
				s-0.111-1.149-0.333-1.48c-0.222-0.33-0.523-0.496-0.905-0.496c-0.377,0-0.676,0.166-0.897,0.496
				c-0.222,0.331-0.332,0.824-0.332,1.48s0.11,1.149,0.332,1.479c0.222,0.331,0.521,0.496,0.897,0.496
				C110.357,102.498,110.659,102.333,110.88,102.002z"/>
			<path fill="#BFBFBF" d="M116.017,103.099c-0.336-0.187-0.598-0.447-0.786-0.78s-0.283-0.711-0.283-1.132
				c0-0.422,0.095-0.798,0.283-1.128c0.188-0.331,0.449-0.59,0.782-0.776c0.334-0.187,0.715-0.28,1.143-0.28
				c0.402,0,0.755,0.086,1.058,0.256c0.304,0.171,0.531,0.416,0.684,0.736l-0.733,0.448c-0.117-0.197-0.263-0.346-0.438-0.444
				s-0.368-0.147-0.577-0.147c-0.356,0-0.651,0.121-0.886,0.363c-0.234,0.243-0.352,0.567-0.352,0.973s0.115,0.729,0.348,0.972
				c0.231,0.243,0.528,0.364,0.89,0.364c0.209,0,0.401-0.05,0.577-0.148s0.321-0.246,0.438-0.443l0.733,0.447
				c-0.157,0.32-0.388,0.567-0.691,0.74c-0.303,0.174-0.652,0.26-1.05,0.26C116.733,103.378,116.354,103.285,116.017,103.099z"/>
			<path fill="#BFBFBF" d="M126.092,99.471c0.301,0.312,0.451,0.779,0.451,1.403v2.448h-0.955v-2.32
				c0-0.373-0.079-0.654-0.236-0.844c-0.158-0.189-0.385-0.284-0.681-0.284c-0.32,0-0.578,0.111-0.771,0.332
				c-0.193,0.222-0.29,0.537-0.29,0.948v2.168h-0.955v-2.32c0-0.373-0.079-0.654-0.236-0.844c-0.158-0.189-0.385-0.284-0.68-0.284
				c-0.326,0-0.585,0.109-0.775,0.328c-0.191,0.219-0.287,0.536-0.287,0.952v2.168h-0.955V99.05h0.909v0.545
				c0.153-0.192,0.344-0.339,0.573-0.44s0.483-0.152,0.764-0.152c0.306,0,0.577,0.061,0.813,0.181
				c0.237,0.12,0.424,0.297,0.562,0.531c0.168-0.224,0.385-0.398,0.649-0.523s0.558-0.188,0.879-0.188
				C125.384,99.002,125.792,99.158,126.092,99.471z"/>
		</g>
	</g>
	<g>
		<g>
			<path fill="#6CADDF" d="M165.284,78.824c0.52,0.671,0.777,1.619,0.777,2.844c0,0.858-0.141,1.584-0.42,2.178
				c-0.279,0.595-0.672,1.044-1.176,1.348c-0.504,0.305-1.094,0.457-1.766,0.457c-0.729,0-1.309-0.14-1.742-0.418l0.305-0.639
				c0.35,0.242,0.826,0.363,1.428,0.363c0.813,0,1.449-0.27,1.912-0.809c0.461-0.539,0.693-1.321,0.693-2.349
				c0-0.19-0.012-0.399-0.031-0.627c-0.184,0.418-0.473,0.742-0.873,0.974c-0.398,0.231-0.857,0.347-1.375,0.347
				c-0.484,0-0.912-0.096-1.287-0.286s-0.668-0.46-0.877-0.809c-0.211-0.349-0.316-0.754-0.316-1.216
				c0-0.469,0.109-0.883,0.326-1.242s0.518-0.637,0.898-0.831s0.811-0.291,1.287-0.291
				C164.021,77.818,164.767,78.153,165.284,78.824z M164.114,81.602c0.283-0.146,0.506-0.348,0.666-0.604
				c0.162-0.257,0.242-0.543,0.242-0.858c0-0.293-0.076-0.564-0.227-0.813s-0.373-0.451-0.666-0.605
				c-0.295-0.153-0.645-0.23-1.051-0.23c-0.533,0-0.965,0.152-1.297,0.456c-0.334,0.305-0.5,0.71-0.5,1.216s0.166,0.909,0.5,1.21
				c0.332,0.301,0.781,0.451,1.35,0.451C163.503,81.822,163.829,81.749,164.114,81.602z"/>
		</g>
	</g>
	<g>
		<g>
			<path fill="#6CADDF" d="M168.167,79.024c-0.096-0.101-0.143-0.221-0.143-0.36c0-0.134,0.047-0.25,0.143-0.35
				c0.096-0.101,0.215-0.15,0.354-0.15c0.141,0,0.258,0.049,0.354,0.145c0.096,0.097,0.143,0.212,0.143,0.346
				c0,0.146-0.047,0.27-0.143,0.37c-0.096,0.1-0.213,0.149-0.354,0.149C168.382,79.174,168.263,79.124,168.167,79.024z
				 M168.177,80.324h0.678v5.26h-0.678V80.324z"/>
			<path fill="#6CADDF" d="M174.81,80.859c0.371,0.383,0.559,0.941,0.559,1.675v3.05h-0.68v-2.98c0-0.546-0.129-0.963-0.391-1.25
				c-0.262-0.286-0.633-0.43-1.117-0.43c-0.541,0-0.969,0.169-1.285,0.505c-0.314,0.337-0.473,0.802-0.473,1.396v2.76h-0.678v-5.26
				h0.65v0.97c0.184-0.32,0.439-0.568,0.768-0.745s0.709-0.265,1.143-0.265C173.935,80.284,174.437,80.476,174.81,80.859z"/>
		</g>
	</g>
	<g>
		<g>
			<path fill="#BFBFBF" d="M163.378,93.708v0.88h-3.941v-0.696l2.123-2.111c0.238-0.24,0.4-0.449,0.484-0.628
				s0.127-0.356,0.127-0.532c0-0.262-0.084-0.462-0.252-0.601s-0.416-0.208-0.742-0.208c-0.545,0-0.961,0.195-1.252,0.584
				l-0.695-0.56c0.209-0.293,0.49-0.521,0.844-0.684c0.354-0.163,0.75-0.244,1.188-0.244c0.582,0,1.045,0.144,1.391,0.432
				c0.348,0.288,0.52,0.68,0.52,1.176c0,0.305-0.061,0.59-0.184,0.856c-0.121,0.267-0.355,0.57-0.701,0.912l-1.43,1.424H163.378z"/>
			<path fill="#BFBFBF" d="M167.823,93.708v0.88h-3.941v-0.696l2.123-2.111c0.238-0.24,0.4-0.449,0.484-0.628
				s0.127-0.356,0.127-0.532c0-0.262-0.084-0.462-0.252-0.601s-0.416-0.208-0.742-0.208c-0.545,0-0.961,0.195-1.252,0.584
				l-0.695-0.56c0.209-0.293,0.49-0.521,0.844-0.684c0.354-0.163,0.75-0.244,1.188-0.244c0.582,0,1.045,0.144,1.391,0.432
				c0.348,0.288,0.52,0.68,0.52,1.176c0,0.305-0.061,0.59-0.184,0.856c-0.121,0.267-0.355,0.57-0.701,0.912l-1.43,1.424H167.823z"/>
			<path fill="#BFBFBF" d="M171.528,94.364c-0.336-0.187-0.598-0.447-0.787-0.78c-0.188-0.333-0.283-0.711-0.283-1.132
				c0-0.422,0.096-0.798,0.283-1.128c0.189-0.331,0.449-0.59,0.783-0.776s0.715-0.28,1.143-0.28c0.402,0,0.754,0.086,1.057,0.256
				c0.305,0.171,0.531,0.416,0.684,0.736l-0.732,0.448c-0.117-0.197-0.264-0.346-0.439-0.444s-0.367-0.147-0.576-0.147
				c-0.357,0-0.652,0.121-0.887,0.363c-0.234,0.243-0.352,0.567-0.352,0.973s0.115,0.729,0.348,0.972
				c0.232,0.243,0.529,0.364,0.891,0.364c0.209,0,0.4-0.05,0.576-0.148s0.322-0.246,0.439-0.443l0.732,0.447
				c-0.156,0.32-0.387,0.567-0.691,0.74c-0.303,0.174-0.652,0.26-1.049,0.26C172.243,94.644,171.864,94.551,171.528,94.364z"/>
			<path fill="#BFBFBF" d="M181.604,90.736c0.301,0.312,0.451,0.779,0.451,1.403v2.448h-0.955v-2.32c0-0.373-0.08-0.654-0.236-0.844
				c-0.158-0.189-0.385-0.284-0.682-0.284c-0.32,0-0.578,0.111-0.771,0.332c-0.193,0.222-0.289,0.537-0.289,0.948v2.168h-0.955
				v-2.32c0-0.373-0.08-0.654-0.236-0.844c-0.158-0.189-0.385-0.284-0.68-0.284c-0.326,0-0.586,0.109-0.775,0.328
				c-0.191,0.219-0.287,0.536-0.287,0.952v2.168h-0.955v-4.272h0.908v0.545c0.154-0.192,0.344-0.339,0.574-0.44
				c0.229-0.102,0.482-0.152,0.764-0.152c0.305,0,0.576,0.061,0.813,0.181c0.238,0.12,0.424,0.297,0.563,0.531
				c0.168-0.224,0.385-0.398,0.648-0.523c0.266-0.125,0.559-0.188,0.879-0.188C180.896,90.268,181.304,90.424,181.604,90.736z"/>
		</g>
	</g>
	
		<line fill="none" stroke="#6CADDF" stroke-linecap="square" stroke-miterlimit="10" x1="73.002" y1="85.038" x2="151.185" y2="85.038"/>
	<path fill="none" stroke="#6CADDF" stroke-linecap="square" stroke-miterlimit="10" d="M151.185,83.4v3.275 M73.002,83.4v3.275
		 M73.002,85.038h78.183"/>
	
		<line fill="none" stroke="#6CADDF" stroke-linecap="square" stroke-miterlimit="10" x1="160.827" y1="70.845" x2="155.875" y2="80.125"/>
	<path fill="none" stroke="#6CADDF" stroke-linecap="square" stroke-miterlimit="10" d="M157.24,80.924l-2.729-1.598
		 M162.191,71.645l-2.729-1.598 M160.827,70.845l-4.952,9.28"/>
	
		<line fill="none" stroke="#6CADDF" stroke-linecap="square" stroke-miterlimit="10" x1="66.747" y1="29.907" x2="67.008" y2="79.032"/>
	<path fill="none" stroke="#6CADDF" stroke-linecap="square" stroke-miterlimit="10" d="M68.571,79.023l-3.127,0.018 M68.311,29.898
		l-3.127,0.018 M66.747,29.907l0.261,49.125"/>
	<path fill="none" stroke="#FAFAFA" stroke-miterlimit="10" d="M147.881,73.644c-0.701,0.88-1.772,1.364-3.016,1.364h-3.452
		c-0.129-2.156,0.324-3.93,1.359-5.29c1.448-1.904,3.766-2.699,5.244-3.023l0.615,3.601
		C148.85,71.578,148.585,72.767,147.881,73.644z M77.868,73.644c-0.703-0.877-0.969-2.066-0.751-3.348L77.73,66.7
		c1.479,0.33,3.784,1.125,5.224,3.003c1.045,1.362,1.501,3.141,1.371,5.305h-3.441C79.642,75.008,78.57,74.524,77.868,73.644z
		 M82.972,35.969c0.49-2.878,3.264-5.312,6.057-5.312h47.693c2.792,0,5.566,2.434,6.056,5.312l4.667,27.363
		c-1.969,0.422-5.104,1.499-7.201,4.235c-1.536,2.004-2.237,4.5-2.094,7.441H87.591c0.142-2.941-0.56-5.438-2.096-7.441
		c-2.092-2.731-5.223-3.81-7.19-4.232L82.972,35.969z M97.284,16.792c0.588-1.534,1.264-2.918,2.025-4.155l2.783,2.301
		c0.402,0.335,0.92,0.477,1.416,0.34c0.491-0.137,0.883-0.479,1.076-0.969c0.139-0.285,1.889-3.551,8.289-3.551
		c6.402,0,8.151,3.266,8.291,3.551c0.193,0.49,0.585,0.832,1.076,0.969c0.127,0.035,0.256,0.052,0.382,0.052
		c0.37,0,0.735-0.145,1.033-0.392l2.782-2.301c0.749,1.214,1.415,2.571,1.995,4.073c1.584,4.108,2.104,8.281,2.273,10.537H95.039
		C95.208,25.01,95.72,20.889,97.284,16.792z M112.874,5.07c4.748,0,8.613,1.639,11.558,4.88l-1.467,1.214
		c-0.342-0.385-0.769-0.799-1.296-1.209c-2.23-1.731-5.189-2.611-8.795-2.611c-3.604,0-6.563,0.879-8.794,2.611
		c-0.526,0.41-0.953,0.825-1.294,1.209l-1.468-1.214C104.263,6.709,108.126,5.07,112.874,5.07z M151.839,69.696
		c-3.363-19.928-5.215-30.784-5.555-32.568c-0.338-1.785-0.88-3.522-1.625-5.212c-0.524-0.845-1.183-1.622-1.953-2.299
		c-1.744-1.529-3.87-2.371-5.984-2.371h-2.744c-0.162-2.414-0.701-7.042-2.488-11.722c-3.465-9.07-9.901-13.865-18.615-13.865
		c-8.712,0-15.149,4.795-18.613,13.865c-1.788,4.68-2.328,9.308-2.49,11.722h-2.742c-2.115,0-4.24,0.842-5.984,2.371
		c-1.743,1.529-2.908,3.571-3.28,5.752l-5.853,34.327c-0.392,2.294,0.127,4.473,1.459,6.139s3.29,2.583,5.514,2.583h4.883
		c0.006,0,18.07,0,54.193,0c0.006,0,1.642,0,4.905,0c2.224,0,4.183-0.917,5.514-2.583S152.23,71.99,151.839,69.696z"/>
</g>
<g>
	<g>
		<defs>
			<path id="SVGID_9_" d="M372.223,215.017h-66.648c-1.276,0-2.4-0.84-2.765-2.061l-8.358-28.129h-6.82v-5.769h8.973
				c1.276,0,2.399,0.838,2.764,2.062l8.359,28.128h62.348l8.356-28.072c0.364-1.22,1.489-2.06,2.765-2.06h8.707v5.768h-6.557
				l-8.357,28.071C374.623,214.181,373.5,215.017,372.223,215.017z M332.608,135.881h12.699v4.727h-12.699V135.881z
				 M383.344,170.739l-8.356-28.07c-0.364-1.223-1.488-2.06-2.765-2.06h-21.147v-7.611c0-1.592-1.292-2.884-2.884-2.884h-18.468
				c-1.593,0-2.884,1.292-2.884,2.884v7.611h-21.266c-1.276,0-2.4,0.837-2.765,2.062l-8.358,28.126h-6.82v5.769h8.973
				c1.276,0,2.399-0.839,2.764-2.064l8.359-28.125h62.348l8.356,28.07c0.364,1.221,1.489,2.061,2.765,2.061h8.707v-5.768
				L383.344,170.739L383.344,170.739z"/>
		</defs>
		<clipPath id="SVGID_10_">
			<use xlink:href="#SVGID_9_"  overflow="visible"/>
		</clipPath>
		<g clip-path="url(#SVGID_10_)">
			<defs>
				<rect id="SVGID_11_" x="-152.142" y="-843.009" width="613.636" height="1585.223"/>
			</defs>
			<clipPath id="SVGID_12_">
				<use xlink:href="#SVGID_11_"  overflow="visible"/>
			</clipPath>
			<rect x="285.073" y="127.557" clip-path="url(#SVGID_12_)" fill="#1B4298" width="107.386" height="90.018"/>
		</g>
	</g>
	<g>
		<defs>
			<path id="SVGID_13_" d="M347.099,171.545c-0.356-0.169-0.583-0.529-0.583-0.924v-15.45l24.979,11.903l-3.535,7.59l-9.627,0.016
				v2.207L347.099,171.545z M334.773,192.764c-0.185,0-0.365,0.05-0.523,0.144c-0.484,0.289-0.645,0.916-0.355,1.402l6.087,10.239
				c1.173,1.972,0.527,4.536-1.434,5.706c-1.98,1.17-4.526,0.525-5.698-1.442l-7.523-12.702l0.01,10.682
				c0,2.292-1.859,4.141-4.152,4.141s-4.151-1.849-4.151-4.141v-27.271l-5.689-3.262c-1.152-0.664-1.552-2.123-0.899-3.277
				c0.654-1.155,2.122-1.562,3.277-0.898l3.6,2.035h27.902l13.127,6.42V191c0,0.95-0.119,1.764-1.359,1.764v14.028
				c0,2.292-1.868,4.141-4.16,4.141s-4.144-1.849-4.144-4.141v-14.028H334.773z"/>
		</defs>
		<clipPath id="SVGID_14_">
			<use xlink:href="#SVGID_13_"  overflow="visible"/>
		</clipPath>
		<g clip-path="url(#SVGID_14_)">
			<defs>
				<rect id="SVGID_15_" x="-152.142" y="-843.009" width="613.636" height="1585.223"/>
			</defs>
			<clipPath id="SVGID_16_">
				<use xlink:href="#SVGID_15_"  overflow="visible"/>
			</clipPath>
			<rect x="307.573" y="152.614" clip-path="url(#SVGID_16_)" fill="#1B4298" width="66.478" height="60.876"/>
		</g>
	</g>
	<g>
		<path fill="none" stroke="#1B4298" stroke-width="1.5" stroke-miterlimit="10" d="M251.99,131.94
			c-1.666,0-3.007,1.342-3.007,3.007s1.342,3.007,3.007,3.007s3.006-1.341,3.006-3.007S253.656,131.94,251.99,131.94z
			 M235.605,163.348c-0.446,0-0.848-0.188-1.072-0.565c-0.268-0.423-0.312-0.893-0.178-1.316l6.964-21.106
			c0.179-0.564,0.67-0.94,1.25-0.94h2.055h2.276c-0.937-1.175-1.036-2.114-1.036-4.473c0-2.359,1.709-6.291,6.082-6.34
			c4.372-0.049,5.894,3.056,5.983,6.44c0,1.599-0.491,3.15-1.473,4.372h0.847h3.438c0.535,0,1.072,0.376,1.25,0.94l6.386,21.106
			c0.134,0.423,0.144,0.801-0.178,1.269c-0.323,0.469-0.67,0.612-1.117,0.612H235.605z"/>
		<g>
			<path fill="#1B4298" d="M245.931,148.558c0.329,0.307,0.494,0.707,0.494,1.199c0,0.343-0.083,0.648-0.25,0.914
				c-0.166,0.267-0.412,0.477-0.739,0.631c-0.326,0.155-0.724,0.232-1.193,0.232c-0.436,0-0.847-0.07-1.233-0.21
				c-0.387-0.14-0.697-0.328-0.932-0.563l0.302-0.489c0.2,0.206,0.466,0.373,0.798,0.502c0.332,0.128,0.687,0.193,1.065,0.193
				c0.492,0,0.873-0.106,1.142-0.322c0.269-0.214,0.404-0.511,0.404-0.889c0-0.372-0.135-0.665-0.404-0.876
				c-0.27-0.211-0.676-0.318-1.22-0.318h-0.43v-0.455l1.667-2.087h-3.075v-0.55h3.865v0.439l-1.701,2.138
				C245.122,148.082,245.602,148.253,245.931,148.558z"/>
			<path fill="#1B4298" d="M248.447,151.165c-0.364-0.246-0.647-0.6-0.851-1.061c-0.203-0.46-0.304-1.003-0.304-1.626
				c0-0.625,0.101-1.167,0.304-1.628s0.487-0.815,0.851-1.061c0.363-0.246,0.777-0.369,1.241-0.369c0.464,0,0.877,0.123,1.241,0.369
				c0.363,0.246,0.648,0.6,0.854,1.061c0.207,0.461,0.31,1.003,0.31,1.628c0,0.623-0.103,1.167-0.31,1.626
				c-0.206,0.461-0.491,0.815-0.854,1.061c-0.364,0.246-0.777,0.369-1.241,0.369C249.224,151.534,248.81,151.411,248.447,151.165z
				 M250.611,150.675c0.267-0.194,0.474-0.478,0.622-0.85c0.149-0.372,0.224-0.821,0.224-1.348s-0.075-0.977-0.224-1.349
				c-0.148-0.372-0.355-0.655-0.622-0.85s-0.574-0.292-0.923-0.292s-0.657,0.098-0.923,0.292c-0.267,0.195-0.475,0.478-0.623,0.85
				s-0.224,0.822-0.224,1.349s0.075,0.976,0.224,1.348s0.356,0.656,0.623,0.85c0.266,0.194,0.573,0.292,0.923,0.292
				S250.344,150.87,250.611,150.675z"/>
		</g>
		<text transform="matrix(1 0 0 1 251.8604 151.4819)" fill="#1B4298" font-family="'VAGRoundedStd-Bold'" font-size="6.441"> </text>
		<g>
			<path fill="#1B4298" d="M254.745,149.5l-0.932,0.856v1.127h-0.533v-5.576h0.533v3.78l2.36-2.157h0.661l-1.69,1.615l1.848,2.337
				h-0.654L254.745,149.5z"/>
			<path fill="#1B4298" d="M261.456,147.53v3.472c0,0.671-0.164,1.168-0.492,1.492c-0.328,0.323-0.823,0.485-1.484,0.485
				c-0.366,0-0.712-0.055-1.04-0.162c-0.329-0.107-0.596-0.256-0.801-0.447l0.271-0.406c0.19,0.17,0.421,0.304,0.695,0.399
				c0.272,0.094,0.56,0.143,0.86,0.143c0.501,0,0.869-0.117,1.105-0.35s0.353-0.595,0.353-1.085v-0.503
				c-0.165,0.25-0.381,0.441-0.65,0.571c-0.268,0.13-0.565,0.195-0.89,0.195c-0.371,0-0.708-0.081-1.011-0.244
				c-0.303-0.163-0.541-0.391-0.714-0.684c-0.172-0.293-0.259-0.625-0.259-0.995c0-0.371,0.087-0.702,0.259-0.992
				c0.173-0.29,0.41-0.516,0.71-0.677c0.3-0.16,0.638-0.24,1.015-0.24c0.335,0,0.639,0.068,0.909,0.203s0.488,0.33,0.653,0.585
				v-0.758H261.456z M260.208,150.675c0.23-0.123,0.41-0.294,0.537-0.515c0.128-0.221,0.192-0.472,0.192-0.751
				c0-0.281-0.064-0.53-0.192-0.749c-0.127-0.217-0.306-0.387-0.533-0.51c-0.229-0.123-0.488-0.185-0.778-0.185
				c-0.286,0-0.542,0.061-0.771,0.181c-0.228,0.12-0.405,0.291-0.533,0.511c-0.128,0.22-0.192,0.471-0.192,0.751
				c0,0.28,0.063,0.531,0.192,0.751c0.128,0.22,0.305,0.392,0.533,0.515c0.229,0.123,0.485,0.184,0.771,0.184
				C259.72,150.859,259.978,150.798,260.208,150.675z"/>
		</g>
		<g>
			<path fill="#6CADDF" d="M241.407,159.918c-0.147-0.585-0.221-1.214-0.221-1.885s0.074-1.302,0.221-1.892
				c0.147-0.59,0.357-1.106,0.632-1.547h0.499c-0.289,0.495-0.5,1.027-0.636,1.595c-0.134,0.568-0.202,1.183-0.202,1.844
				s0.067,1.276,0.202,1.844c0.136,0.568,0.347,1.1,0.636,1.595h-0.499C241.764,161.021,241.554,160.503,241.407,159.918z"/>
			<path fill="#6CADDF" d="M246.252,157.159c0.261,0.127,0.466,0.307,0.613,0.54s0.221,0.503,0.221,0.812
				c0,0.313-0.076,0.59-0.228,0.83c-0.152,0.24-0.362,0.424-0.628,0.555c-0.267,0.13-0.567,0.195-0.9,0.195
				c-0.681,0-1.203-0.225-1.565-0.672c-0.363-0.448-0.543-1.082-0.543-1.899c0-0.573,0.098-1.058,0.293-1.455
				c0.197-0.397,0.47-0.697,0.823-0.9c0.353-0.203,0.765-0.305,1.234-0.305c0.509,0,0.917,0.093,1.22,0.28l-0.212,0.426
				c-0.245-0.162-0.578-0.243-1-0.243c-0.569,0-1.015,0.18-1.338,0.54s-0.485,0.883-0.485,1.568c0,0.123,0.007,0.262,0.022,0.419
				c0.127-0.28,0.33-0.496,0.609-0.651c0.28-0.154,0.601-0.231,0.963-0.231C245.689,156.968,245.99,157.031,246.252,157.159z
				 M246.215,159.337c0.233-0.203,0.349-0.474,0.349-0.812s-0.116-0.607-0.349-0.808c-0.232-0.201-0.547-0.301-0.944-0.301
				c-0.26,0-0.489,0.049-0.688,0.146c-0.198,0.098-0.354,0.232-0.466,0.404c-0.113,0.172-0.169,0.363-0.169,0.574
				c0,0.196,0.053,0.377,0.158,0.543c0.105,0.167,0.261,0.301,0.467,0.404c0.205,0.104,0.45,0.155,0.734,0.155
				C245.68,159.642,245.983,159.541,246.215,159.337z"/>
			<path fill="#6CADDF" d="M250.727,157.159c0.262,0.127,0.467,0.307,0.613,0.54s0.22,0.503,0.22,0.812
				c0,0.313-0.076,0.59-0.228,0.83s-0.362,0.424-0.628,0.555c-0.267,0.13-0.567,0.195-0.9,0.195c-0.681,0-1.203-0.225-1.565-0.672
				c-0.363-0.448-0.543-1.082-0.543-1.899c0-0.573,0.097-1.058,0.293-1.455c0.197-0.397,0.471-0.697,0.823-0.9
				c0.353-0.203,0.765-0.305,1.234-0.305c0.51,0,0.917,0.093,1.22,0.28l-0.212,0.426c-0.245-0.162-0.578-0.243-1-0.243
				c-0.569,0-1.015,0.18-1.337,0.54c-0.323,0.36-0.485,0.883-0.485,1.568c0,0.123,0.007,0.262,0.022,0.419
				c0.127-0.28,0.33-0.496,0.609-0.651c0.28-0.154,0.601-0.231,0.962-0.231C250.164,156.968,250.464,157.031,250.727,157.159z
				 M250.69,159.337c0.232-0.203,0.349-0.474,0.349-0.812s-0.116-0.607-0.349-0.808c-0.233-0.201-0.547-0.301-0.944-0.301
				c-0.26,0-0.489,0.049-0.688,0.146c-0.198,0.098-0.354,0.232-0.466,0.404c-0.113,0.172-0.169,0.363-0.169,0.574
				c0,0.196,0.053,0.377,0.158,0.543c0.106,0.167,0.262,0.301,0.468,0.404c0.205,0.104,0.45,0.155,0.734,0.155
				C250.155,159.642,250.457,159.541,250.69,159.337z"/>
			<path fill="#6CADDF" d="M254.441,154.594h0.522v5.452h-0.522V154.594z"/>
			<path fill="#6CADDF" d="M259.394,156.398c0.293,0.164,0.524,0.396,0.69,0.694c0.167,0.299,0.25,0.64,0.25,1.022
				s-0.083,0.723-0.25,1.021c-0.166,0.299-0.397,0.532-0.69,0.698c-0.294,0.167-0.622,0.25-0.985,0.25
				c-0.323,0-0.613-0.069-0.871-0.206s-0.464-0.335-0.621-0.595v0.764h-0.499v-5.452h0.521v2.322
				c0.161-0.249,0.368-0.438,0.62-0.569c0.252-0.13,0.535-0.195,0.849-0.195C258.771,156.152,259.099,156.234,259.394,156.398z
				 M259.106,159.432c0.221-0.124,0.394-0.302,0.518-0.532c0.125-0.23,0.188-0.492,0.188-0.786c0-0.294-0.063-0.556-0.188-0.786
				c-0.124-0.23-0.297-0.408-0.518-0.533c-0.22-0.125-0.465-0.188-0.735-0.188c-0.274,0-0.52,0.063-0.738,0.188
				c-0.218,0.125-0.389,0.303-0.514,0.533s-0.188,0.492-0.188,0.786c0,0.294,0.063,0.556,0.188,0.786
				c0.125,0.23,0.296,0.408,0.514,0.532c0.219,0.125,0.464,0.188,0.738,0.188C258.641,159.62,258.886,159.557,259.106,159.432z"/>
			<path fill="#6CADDF" d="M260.966,161.472c0.289-0.495,0.501-1.025,0.639-1.591c0.138-0.565,0.206-1.182,0.206-1.848
				c0-0.666-0.068-1.282-0.206-1.848c-0.137-0.565-0.35-1.096-0.639-1.591h0.5c0.274,0.441,0.486,0.957,0.635,1.547
				c0.15,0.59,0.225,1.221,0.225,1.892s-0.074,1.301-0.22,1.888c-0.148,0.588-0.36,1.105-0.64,1.551H260.966z"/>
		</g>
	</g>
	<path fill="none" stroke="#FAFAFA" stroke-width="4" stroke-miterlimit="10" d="M371.711,216.041h-66.647
		c-1.276,0-2.401-0.841-2.765-2.062l-8.359-28.128h-6.82v-5.77h8.973c1.276,0,2.399,0.838,2.764,2.063l8.359,28.129h62.349
		l8.355-28.073c0.364-1.219,1.489-2.059,2.765-2.059h8.708v5.768h-6.558l-8.357,28.07
		C374.111,215.204,372.988,216.041,371.711,216.041z M332.097,136.903h12.7v4.728h-12.7V136.903z M382.833,171.761l-8.357-28.07
		c-0.364-1.223-1.488-2.059-2.765-2.059h-21.146v-7.611c0-1.592-1.293-2.884-2.885-2.884h-18.467c-1.594,0-2.884,1.292-2.884,2.884
		v7.611h-21.266c-1.276,0-2.401,0.836-2.765,2.061l-8.359,28.127h-6.82v5.769h8.973c1.276,0,2.399-0.839,2.764-2.064l8.359-28.125
		h62.349l8.355,28.069c0.364,1.222,1.489,2.062,2.765,2.062h8.708v-5.768h-6.559V171.761z"/>
	<g>
		
			<line fill="none" stroke="#6CADDF" stroke-linecap="square" stroke-miterlimit="10" stroke-dasharray="2,4" x1="280.855" y1="146.478" x2="393.355" y2="146.478"/>
		<g>
			<path fill="#6CADDF" d="M405.025,148.546h-1.605v2.024h-0.825v-2.024h-4.528v-0.572l4.253-5.104h0.917l-4.104,4.972h3.485v-1.782
				h0.802v1.782h1.605V148.546z"/>
		</g>
		<g>
			<path fill="#6CADDF" d="M407.38,144.666c-0.09-0.09-0.135-0.197-0.135-0.323c0-0.12,0.045-0.226,0.135-0.315
				s0.201-0.135,0.333-0.135s0.243,0.043,0.333,0.13s0.135,0.19,0.135,0.311c0,0.133-0.045,0.243-0.135,0.333
				s-0.201,0.136-0.333,0.136S407.47,144.755,407.38,144.666z M407.389,145.835h0.64v4.734h-0.64V145.835z"/>
			<path fill="#6CADDF" d="M413.64,146.317c0.351,0.346,0.526,0.848,0.526,1.508v2.745h-0.639v-2.682
				c0-0.492-0.123-0.867-0.369-1.125s-0.598-0.388-1.054-0.388c-0.51,0-0.913,0.152-1.21,0.455s-0.445,0.722-0.445,1.255v2.484
				h-0.64v-4.734h0.612v0.873c0.174-0.288,0.415-0.511,0.725-0.67c0.309-0.159,0.667-0.238,1.075-0.238
				C412.816,145.8,413.288,145.972,413.64,146.317z"/>
		</g>
		<g>
			<path fill="#BFBFBF" d="M401.333,153.218v5.6h-1.04v-4.728h-1.184v-0.872H401.333z"/>
			<path fill="#BFBFBF" d="M403.581,158.558c-0.353-0.227-0.63-0.558-0.832-0.992c-0.203-0.435-0.305-0.95-0.305-1.548
				s0.102-1.113,0.305-1.548c0.202-0.435,0.479-0.766,0.832-0.992c0.352-0.227,0.752-0.34,1.2-0.34c0.447,0,0.849,0.113,1.203,0.34
				c0.355,0.227,0.634,0.558,0.836,0.992c0.203,0.435,0.305,0.95,0.305,1.548s-0.102,1.113-0.305,1.548
				c-0.202,0.435-0.48,0.766-0.836,0.992c-0.354,0.227-0.756,0.34-1.203,0.34C404.333,158.898,403.933,158.785,403.581,158.558z
				 M405.729,157.498c0.232-0.33,0.349-0.823,0.349-1.479s-0.116-1.149-0.349-1.48c-0.231-0.33-0.548-0.496-0.947-0.496
				c-0.396,0-0.708,0.166-0.94,0.496c-0.232,0.331-0.348,0.824-0.348,1.48s0.115,1.149,0.348,1.479
				c0.232,0.331,0.545,0.496,0.94,0.496C405.181,157.994,405.497,157.829,405.729,157.498z"/>
			<path fill="#BFBFBF" d="M411.108,158.594c-0.352-0.187-0.627-0.447-0.824-0.78s-0.296-0.711-0.296-1.132
				c0-0.422,0.099-0.798,0.296-1.128c0.197-0.331,0.471-0.59,0.82-0.776s0.748-0.28,1.196-0.28c0.421,0,0.79,0.086,1.107,0.256
				c0.317,0.171,0.557,0.416,0.717,0.736l-0.769,0.448c-0.123-0.197-0.275-0.346-0.46-0.444c-0.184-0.099-0.386-0.147-0.604-0.147
				c-0.374,0-0.684,0.121-0.929,0.363c-0.245,0.243-0.368,0.567-0.368,0.973s0.122,0.729,0.364,0.972
				c0.243,0.243,0.554,0.364,0.933,0.364c0.218,0,0.42-0.05,0.604-0.148c0.185-0.099,0.337-0.246,0.46-0.443l0.769,0.447
				c-0.166,0.32-0.407,0.567-0.725,0.74c-0.317,0.174-0.684,0.26-1.1,0.26C411.857,158.874,411.461,158.781,411.108,158.594z"/>
			<path fill="#BFBFBF" d="M421.661,154.966c0.314,0.312,0.472,0.779,0.472,1.403v2.448h-1v-2.32c0-0.373-0.083-0.654-0.248-0.844
				s-0.402-0.284-0.712-0.284c-0.336,0-0.605,0.111-0.808,0.332c-0.203,0.222-0.305,0.537-0.305,0.948v2.168h-1v-2.32
				c0-0.373-0.082-0.654-0.247-0.844c-0.166-0.189-0.403-0.284-0.713-0.284c-0.341,0-0.611,0.109-0.812,0.328s-0.3,0.536-0.3,0.952
				v2.168h-1v-4.272h0.952v0.545c0.159-0.192,0.359-0.339,0.6-0.44s0.507-0.152,0.8-0.152c0.32,0,0.604,0.061,0.853,0.181
				s0.443,0.297,0.588,0.531c0.176-0.224,0.402-0.398,0.68-0.523s0.584-0.188,0.92-0.188
				C420.92,154.498,421.347,154.654,421.661,154.966z"/>
		</g>
		
			<line fill="none" stroke="#6CADDF" stroke-linecap="square" stroke-miterlimit="10" x1="390.287" y1="146.478" x2="390.287" y2="155.171"/>
		<path fill="none" stroke="#6CADDF" stroke-linecap="square" stroke-miterlimit="10" d="M391.821,155.171h-3.068 M391.821,146.478
			h-3.068 M390.287,146.478v8.693"/>
		
			<line fill="none" stroke="#6CADDF" stroke-linecap="square" stroke-miterlimit="10" stroke-dasharray="2,4" x1="280.855" y1="155.171" x2="393.355" y2="155.171"/>
	</g>
</g>
</svg>
