<svg xmlns="http://www.w3.org/2000/svg" xmlns:xlink="http://www.w3.org/1999/xlink" viewBox="0 0 17.866 36"><defs><style>.a{fill:none;}.b{opacity:0.9;}.c{clip-path:url(#a);}.d{fill:#81a9e1;}.e{fill:#fff;}.f{fill:#4b4e51;}.g{fill:#666;}</style><clipPath id="a"><path class="a" d="M0,0H17.866V26.761H0Z" transform="translate(0 0.079)"/></clipPath></defs><g transform="translate(-1040 -868)"><g class="b" transform="translate(1040 868)"><g transform="translate(0 7)"><path class="a" d="M0,0H17.866V26.761H0Z" transform="translate(0 0.079)"/><g class="c"><path class="d" d="M17.866,2.4V24.36A2.185,2.185,0,0,1,16,26.761H1.863A2.185,2.185,0,0,1,0,24.36V2.4A2.182,2.182,0,0,1,1.863,0H16a2.182,2.182,0,0,1,1.865,2.4" transform="translate(0 0.079)"/></g></g><path class="e" d="M1.536,0,7,2.326,5.464,6,0,3.674Z" transform="translate(3 11)"/><path class="e" d="M1.536,0,7,2.326,5.464,6,0,3.674Z" transform="matrix(0.921, -0.391, 0.391, 0.921, 2.106, 18.606)"/><path class="f" d="M8.748,2h-7.5A1.144,1.144,0,0,1,0,1,1.144,1.144,0,0,1,1.247,0h7.5A1.147,1.147,0,0,1,10,1,1.148,1.148,0,0,1,8.748,2" transform="translate(4)"/><path class="g" d="M0,5H1V0H0Z" transform="translate(6 2)"/><path class="g" d="M0,5H1V0H0Z" transform="translate(11 2)"/><path class="g" d="M0,0V.489C0,1.32.45,2,1,2S2,1.32,2,.489V0Z" transform="translate(4 34)"/><path class="g" d="M0,0V.489C0,1.32.45,2,1,2S2,1.32,2,.489V0Z" transform="translate(12 34)"/></g></g></svg>