<svg xmlns="http://www.w3.org/2000/svg" viewBox="0 0 37 37"><defs><style>.a{fill:none;stroke:#f1f1f1;stroke-miterlimit:10;stroke-width:4px;}.b{fill:#6caddf;}</style></defs><g transform="translate(-1135 -2051)"><circle class="a" cx="16.5" cy="16.5" r="16.5" transform="translate(1137 2053)"/><path class="b" d="M6.435,18.5H4.821V16.313a11.114,11.114,0,0,1-2.755-.532A6.036,6.036,0,0,1,0,14.68l.886-1.988a6.512,6.512,0,0,0,1.771.994,7.906,7.906,0,0,0,2.164.5V10.252a14.436,14.436,0,0,1-2.332-.738A4.055,4.055,0,0,1,.924,8.333,3.18,3.18,0,0,1,.3,6.278,3.653,3.653,0,0,1,1.456,3.561,5.482,5.482,0,0,1,4.821,2.224V0H6.435V2.184a9.284,9.284,0,0,1,2.155.374,7.11,7.11,0,0,1,1.84.827L9.623,5.372A8.221,8.221,0,0,0,6.435,4.309V8.285a15.179,15.179,0,0,1,2.351.728,4.043,4.043,0,0,1,1.574,1.171A3.147,3.147,0,0,1,11,12.239a3.606,3.606,0,0,1-1.171,2.706,5.671,5.671,0,0,1-3.394,1.347v2.2Zm0-7.832v3.482a2.942,2.942,0,0,0,1.544-.608,1.455,1.455,0,0,0,.5-1.122,1.286,1.286,0,0,0-.532-1.072A4.583,4.583,0,0,0,6.435,10.665Zm-1.614-6.3A2.74,2.74,0,0,0,3.326,5,1.556,1.556,0,0,0,2.833,6.16,1.254,1.254,0,0,0,3.345,7.2a4.41,4.41,0,0,0,1.475.669Z" transform="translate(1148 2061)"/></g></svg>