<?xml version="1.0" encoding="UTF-8" standalone="no"?>
<svg width="42px" height="42px" viewBox="0 0 42 42" version="1.1" xmlns="http://www.w3.org/2000/svg" xmlns:xlink="http://www.w3.org/1999/xlink">
    <!-- Generator: Sketch 47.1 (45422) - http://www.bohemiancoding.com/sketch -->
    <title>Artboard</title>
    <desc>Created with Sketch.</desc>
    <defs></defs>
    <g id="Page-1" stroke="none" stroke-width="1" fill="none" fill-rule="evenodd">
        <g id="Artboard">
            <circle id="Oval" fill="#FFFFFF" cx="21" cy="21" r="20"></circle>
            <g id="CostaRica" transform="translate(3.000000, 3.000000)">
                <g id="Shape">
                    <path d="M18.062069,0.55862069 C13.0344828,0.55862069 8.50344828,2.66896552 5.27586207,6.02068966 L30.8482759,6.02068966 C27.6206897,2.66896552 23.0896552,0.55862069 18.062069,0.55862069 Z" fill="#1D499F" fill-rule="nonzero"></path>
                    <path d="M18.062069,35.5034483 C22.7793103,35.5034483 27.062069,33.6413793 30.2275862,30.662069 L5.89655172,30.662069 C9.06206897,33.6413793 13.3448276,35.5034483 18.062069,35.5034483 Z" fill="#1D499F" fill-rule="nonzero"></path>
                    <path d="M5.27586207,6.02068966 C3.72413793,7.63448276 2.54482759,9.49655172 1.67586207,11.6068966 L34.3862069,11.6068966 C33.5793103,9.49655172 32.337931,7.63448276 30.7862069,6.02068966 L5.27586207,6.02068966 Z" fill="#FFFFFF" fill-rule="nonzero"></path>
                    <path d="M5.89655172,30.6 L30.2275862,30.6 C31.9034483,29.0482759 33.2068966,27.1241379 34.2,25.0137931 L1.92413793,25.0137931 C2.85517241,27.1862069 4.22068966,29.0482759 5.89655172,30.6 Z" fill="#FFFFFF" fill-rule="nonzero"></path>
                    <path d="M0.434482759,18 C0.434482759,20.4827586 0.993103448,22.8413793 1.92413793,25.0137931 L34.137931,25.0137931 C35.0689655,22.8413793 35.6275862,20.4827586 35.6275862,18 C35.6275862,15.7655172 35.1931034,13.5931034 34.3862069,11.6068966 L1.67586207,11.6068966 C0.868965517,13.5931034 0.434482759,15.7655172 0.434482759,18 Z" fill="#BE2026" fill-rule="nonzero"></path>
                </g>
            </g>
        </g>
    </g>
</svg>