<?xml version="1.0" encoding="UTF-8" standalone="no"?>
<svg width="34px" height="31px" viewBox="0 0 34 31" version="1.1" xmlns="http://www.w3.org/2000/svg" xmlns:xlink="http://www.w3.org/1999/xlink">
    <!-- Generator: Sketch 47.1 (45422) - http://www.bohemiancoding.com/sketch -->
    <title>Artboard</title>
    <desc>Created with Sketch.</desc>
    <defs></defs>
    <g id="Page-1" stroke="none" stroke-width="1" fill="none" fill-rule="evenodd">
        <g id="Artboard" fill-rule="nonzero" fill="#1B4298">
            <g id="newsletter" transform="translate(7.000000, 6.000000)">
                <path d="M0.974766355,6.8364486 C0.981308411,6.8364486 0.981308411,6.8364486 0.974766355,6.8364486 L2.23084112,7.7 L2.23084112,5.46915888 L2.23084112,3.70934579 L4.82803738,3.70934579 L16.1915888,3.70934579 L18.6971963,3.70934579 L18.6971963,5.44299065 L18.6971963,7.65420561 L19.953271,6.80373832 C19.953271,6.80373832 19.953271,6.80373832 19.9598131,6.80373832 C20.1299065,6.69252336 20.1364486,6.44392523 19.9663551,6.32616822 L19.3906542,5.9271028 L19.3906542,3.36915888 C19.3906542,3.17943925 19.2336449,3.02242991 19.0439252,3.02242991 L15.1841121,3.02242991 L11.0757009,0.18317757 C10.7682243,-0.0327102804 10.3560748,-0.0327102804 10.0420561,0.176635514 L5.84859813,3.02242991 L1.87757009,3.02242991 C1.68785047,3.02242991 1.53084112,3.17943925 1.53084112,3.36915888 L1.53084112,5.94672897 L0.961682243,6.33271028 C0.791588785,6.45046729 0.798130841,6.71214953 0.974766355,6.8364486 Z" id="Shape"></path>
                <path d="M20.2869159,7.28130841 L10.8794393,13.6598131 C10.5654206,13.8757009 10.146729,13.8691589 9.83925234,13.653271 L9.83925234,13.653271 L0.654205607,7.31401869 C0.379439252,7.12429907 0,7.32056075 0,7.65420561 L0,18.5401869 C0,18.7691589 0.189719626,18.9588785 0.418691589,18.9588785 L20.5224299,18.9588785 C20.7514019,18.9588785 20.9411215,18.7691589 20.9411215,18.5401869 L20.9411215,7.62149533 C20.9345794,7.28785047 20.5616822,7.09158879 20.2869159,7.28130841 Z" id="Shape"></path>
                <path d="M11.9457944,6.41121495 C11.9523364,6.32616822 11.8869159,6.25420561 11.8018692,6.25420561 L11.2654206,6.25420561 C11.1869159,6.25420561 11.1280374,6.31308411 11.1214953,6.38504673 L11.1214953,6.38504673 C11.1214953,6.41775701 11.1149533,6.45046729 11.1149533,6.47663551 C11.0757009,6.43738318 11.0299065,6.4046729 10.9775701,6.37196262 C10.7943925,6.24766355 10.5785047,6.18878505 10.3495327,6.18878505 C9.76728972,6.18878505 9.28971963,6.42429907 8.92990654,6.88878505 C8.58317757,7.34018692 8.40654206,7.90934579 8.40654206,8.58971963 C8.40654206,9.11308411 8.53738318,9.5317757 8.79906542,9.84579439 C9.06728972,10.1663551 9.42056075,10.3299065 9.8588785,10.3299065 C10.2971963,10.3299065 10.6439252,10.1728972 10.8925234,9.86542056 C10.9579439,9.78691589 11.0757009,9.79345794 11.1280374,9.88504673 C11.3373832,10.2383178 11.7168224,10.3299065 12.0504673,10.3299065 C12.5803738,10.3299065 13.0317757,10.0878505 13.3915888,9.61682243 C13.7448598,9.1588785 13.9280374,8.5635514 13.9280374,7.85700935 C13.9280374,6.88878505 13.5878505,6.09065421 12.9271028,5.48878505 C12.2663551,4.88691589 11.4224299,4.58598131 10.4149533,4.58598131 C9.34205607,4.58598131 8.44579439,4.94579439 7.75233645,5.66542056 C7.0588785,6.37850467 6.71214953,7.28785047 6.71214953,8.36728972 C6.71214953,9.42056075 7.04579439,10.2841121 7.70654206,10.9317757 C8.36728972,11.5859813 9.25046729,11.9130841 10.3233645,11.9130841 C11.082243,11.9130841 11.7233645,11.8018692 12.2336449,11.5859813 C12.2859813,11.5598131 12.3252336,11.5074766 12.3252336,11.4485981 L12.3252336,10.9186916 C12.3252336,10.8140187 12.2140187,10.7420561 12.1158879,10.7878505 L12.1158879,10.7878505 C11.6383178,11.0102804 11.0495327,11.1280374 10.3691589,11.1280374 C9.51869159,11.1280374 8.83831776,10.8728972 8.3411215,10.3626168 C7.84392523,9.85233645 7.5953271,9.17196262 7.5953271,8.3411215 C7.5953271,7.49065421 7.8635514,6.77757009 8.38691589,6.21495327 C8.91028037,5.65233645 9.58411215,5.37102804 10.382243,5.37102804 C11.2196262,5.37102804 11.8803738,5.60654206 12.3448598,6.07102804 C12.8093458,6.53551402 13.0448598,7.15046729 13.0448598,7.88971963 C13.0448598,8.39345794 12.946729,8.80560748 12.7570093,9.11308411 C12.5803738,9.40093458 12.371028,9.54485981 12.1093458,9.54485981 C12.017757,9.54485981 11.7429907,9.54485981 11.7429907,8.80560748 C11.7429907,8.76635514 11.782243,8.32149533 11.9457944,6.41121495 L11.9457944,6.41121495 Z M10.6700935,9.08037383 C10.4869159,9.38785047 10.2579439,9.53831776 9.95700935,9.53831776 C9.76074766,9.53831776 9.60373832,9.45981308 9.48598131,9.30280374 C9.36168224,9.13271028 9.29626168,8.89719626 9.29626168,8.59626168 C9.29626168,8.12523364 9.40093458,7.73271028 9.60373832,7.41869159 C9.79345794,7.12429907 10.035514,6.98037383 10.3429907,6.98037383 C10.6373832,6.98037383 10.971028,7.06542056 10.971028,7.75233645 C10.9579439,8.30186916 10.8663551,8.74672897 10.6700935,9.08037383 Z" id="Shape"></path>
            </g>
        </g>
    </g>
</svg>