<?xml version="1.0" encoding="UTF-8" standalone="no"?>
<svg width="34px" height="31px" viewBox="0 0 34 31" version="1.1" xmlns="http://www.w3.org/2000/svg" xmlns:xlink="http://www.w3.org/1999/xlink">
    <!-- Generator: Sketch 47.1 (45422) - http://www.bohemiancoding.com/sketch -->
    <title>Artboard</title>
    <desc>Created with Sketch.</desc>
    <defs></defs>
    <g id="Page-1" stroke="none" stroke-width="1" fill="none" fill-rule="evenodd">
        <g id="Artboard" fill="#1B4298">
            <g id="noun_5844" transform="translate(7.000000, 1.000000)">
                <g id="Icon">
                    <path d="M4.76351633,7.61217045 C6.31261939,7.60689773 7.56518265,6.33814773 7.56648469,4.77478409 C7.56518265,3.20911364 6.31261939,1.94069318 4.76351633,1.93673864 C3.22124898,1.94102273 1.96868571,3.20911364 1.96087347,4.77478409 C1.96868571,6.33814773 3.22124898,7.60689773 4.76351633,7.61217045 L4.76351633,7.61217045 Z" id="Shape"></path>
                    <path d="M2.63793469,11.0496591 C2.13664898,7.79210227 6.78167959,6.80148864 7.52449388,10.1414318 L8.79561122,16.5290114 L13.5168112,16.5290114 C14.8956724,16.5332955 15.6114694,17.6497955 15.6147245,18.6819318 L15.6147245,27.3618295 C15.6111439,29.4761932 12.6457459,29.4653182 12.6463969,27.3341477 C12.6457459,25.3483068 12.6463969,20.56825 12.6463969,20.56825 L6.61371633,20.56825 C5.20979082,20.5702273 4.32830918,19.5941136 4.10207959,18.4716818 L2.63793469,11.0496591 L2.63793469,11.0496591 Z" id="Shape"></path>
                    <path d="M10.4378102,21.1400114 L6.46235408,21.1400114 C5.03238776,21.1400114 3.8472051,20.2762727 3.49435204,18.6532614 L2.21021429,12.3075341 C1.89284184,10.7616364 -0.249666327,11.2645227 0.028644898,12.7679091 L1.36877041,19.4075909 C1.58132857,20.3589886 2.02304592,21.1795568 2.60473265,21.8313977 L2.60050102,21.8290909 L2.60050102,28.1458182 L2.60050102,28.9396932 L3.54155102,28.9396932 L8.27609694,28.9396932 L9.21747245,28.9396932 L9.21747245,28.1458182 L9.21747245,23.49 L10.4521327,23.49 C11.9953765,23.4867045 12.0009102,21.1400114 10.4378102,21.1400114 Z M8.18690714,28.1461477 L3.63399592,28.1461477 L4.22740102,23.0510455 C4.83089694,23.3347841 5.4802898,23.4890114 6.13098469,23.49 L7.66446327,23.49 L8.18690714,28.1461477 Z" id="Shape"></path>
                    <path d="M16.0971306,0.0603068182 L13.6717541,0.0603068182 C11.7805398,0.0603068182 10.2418531,1.61806818 10.2418531,3.53305682 L10.2418531,8.51182955 C10.2418531,10.4268182 11.7808653,11.9849091 13.6717541,11.9849091 L16.0971306,11.9849091 C17.9883449,11.9849091 19.5270316,10.4268182 19.5270316,8.51182955 L19.5270316,3.53305682 C19.5270316,1.61806818 17.9883449,0.0603068182 16.0971306,0.0603068182 Z M13.6717541,0.987318182 L16.0971306,0.987318182 C17.2214429,0.987318182 18.1794194,1.74461364 18.4984194,2.780375 L16.2647684,2.780375 L16.2647684,2.76719318 C16.2647684,2.55990909 16.0971306,2.39019318 15.8923847,2.39019318 L13.8761745,2.39019318 C13.6717541,2.39019318 13.5041163,2.55990909 13.5041163,2.76719318 L13.5041163,2.780375 L11.2701398,2.780375 C11.5891398,1.74461364 12.5474418,0.987318182 13.6717541,0.987318182 Z M17.3978694,3.63422727 L17.3978694,8.41 C17.3978694,9.19234091 16.7693092,9.82836364 15.9968735,9.82836364 L13.7716857,9.82836364 C12.99925,9.82836364 12.3703643,9.19201136 12.3703643,8.41 L12.3703643,3.63422727 C12.3703643,3.49779545 12.3934755,3.36795455 12.4305837,3.24371591 L17.3379755,3.24371591 C17.3750837,3.36795455 17.3978694,3.498125 17.3978694,3.63422727 Z M18.6113714,8.51182955 C18.6113714,9.91206818 17.479898,11.0575682 16.0971306,11.0575682 L13.6717541,11.0575682 C12.2886612,11.0575682 11.1575133,9.91173864 11.1575133,8.51182955 L11.1575133,3.53305682 C11.1575133,3.43518182 11.1640235,3.33928409 11.1747653,3.24404545 L11.8026745,3.24404545 C11.7776102,3.37092045 11.7603582,3.50043182 11.7603582,3.63455682 L11.7603582,8.41032955 C11.7603582,9.53045455 12.665602,10.4469205 13.7720112,10.4469205 L15.997199,10.4469205 C17.1032827,10.4469205 18.008852,9.53078409 18.008852,8.41032955 L18.008852,3.63422727 C18.008852,3.50010227 17.9916,3.37092045 17.9665357,3.24371591 L18.5944449,3.24371591 C18.6051867,3.33895455 18.6116969,3.43485227 18.6116969,3.53272727 L18.6116969,8.51182955 L18.6113714,8.51182955 Z" id="Shape"></path>
                </g>
            </g>
        </g>
    </g>
</svg>