<?xml version="1.0" encoding="UTF-8" standalone="no"?>
<svg width="34px" height="31px" viewBox="0 0 34 31" version="1.1" xmlns="http://www.w3.org/2000/svg" xmlns:xlink="http://www.w3.org/1999/xlink">
    <!-- Generator: Sketch 47.1 (45422) - http://www.bohemiancoding.com/sketch -->
    <title>Artboard</title>
    <desc>Created with Sketch.</desc>
    <defs></defs>
    <g id="Page-1" stroke="none" stroke-width="1" fill="none" fill-rule="evenodd">
        <g id="Artboard" fill-rule="nonzero" fill="#1B4298">
            <g id="Contact" transform="translate(6.000000, 6.000000)">
                <path d="M0.0626944738,9.33823573 C0.0190320704,8.93369612 -0.00185471803,8.5271063 0.000129061664,8.12031467 C-0.00185471803,7.71352304 0.0190320704,7.30693322 0.0626944738,6.90239361 C0.1176762,6.38958474 0.198252867,5.87956287 0.304424475,5.37232801 C0.839717717,2.83604717 2.90848467,0.881694779 5.51441698,0.450477673 L5.51441698,0.450477673 C9.13356151,-0.150159224 12.8300002,-0.150159224 16.4491447,0.450477673 C19.055077,0.881694779 21.123844,2.83604717 21.6591372,5.37232801 C21.7653088,5.87956287 21.8458855,6.38958474 21.9008672,6.90239361 C21.9445353,7.30693278 21.9654221,7.71352291 21.9634326,8.12031467 C21.9644776,8.52715769 21.9426414,8.93374797 21.8980233,9.33823573 C21.8430416,9.8510446 21.7624649,10.3610665 21.6562933,10.8683013 C21.122427,13.4048388 19.0547974,15.3602903 16.4491447,15.7929387 L16.4491447,15.7929387 C14.648707,16.0898304 12.8260128,16.2380622 11.0002661,16.2360724 L10.4314896,16.2360724 C8.11656935,18.5297773 5.6566111,19.1317703 4.09531968,19.2488245 L4.04697367,19.2488245 C3.8054178,19.2641742 3.58041338,19.1280141 3.48622134,18.9094886 C3.39202929,18.690963 3.44928896,18.4379553 3.62892297,18.2789469 C4.36136305,17.5689367 4.89847748,16.6887734 5.19021439,15.7204766 C2.72953199,15.1856321 0.817413604,13.2866692 0.304424475,10.8683013 C0.198252867,10.3610665 0.1176762,9.8510446 0.0626944738,9.33823573 Z M13.7559881,8.12031467 C13.7559881,8.83297363 14.3455026,9.41069786 15.0727056,9.41069786 C15.7999086,9.41069786 16.3894232,8.83297363 16.3894232,8.12031467 C16.3894232,7.40765572 15.7999086,6.82993148 15.0727056,6.82993148 C14.3455026,6.82993148 13.7559881,7.40765572 13.7559881,8.12031467 Z M9.66932912,8.12031467 C9.66932912,8.83297363 10.2588436,9.41069786 10.9860467,9.41069786 C11.7132497,9.41069786 12.3027642,8.83297363 12.3027642,8.12031467 C12.3027642,7.40765572 11.7132497,6.82993148 10.9860467,6.82993148 C10.2588436,6.82993148 9.66932912,7.40765572 9.66932912,8.12031467 Z M5.57982627,8.12031467 C5.57982627,8.83297363 6.16934079,9.41069786 6.89654381,9.41069786 C7.62374683,9.41069786 8.21326135,8.83297363 8.21326135,8.12031467 C8.21326135,7.40765572 7.62374683,6.82993148 6.89654381,6.82993148 C6.54634417,6.82844898 6.20996886,6.96374493 5.9618049,7.20589959 C5.71364093,7.44805425 5.57413524,7.77711582 5.57413851,8.12031467 L5.57982627,8.12031467 Z" id="Shape"></path>
            </g>
        </g>
    </g>
</svg>