<?xml version="1.0" encoding="UTF-8" standalone="no"?>
<svg width="34px" height="31px" viewBox="0 0 34 31" version="1.1" xmlns="http://www.w3.org/2000/svg" xmlns:xlink="http://www.w3.org/1999/xlink">
    <!-- Generator: Sketch 47.1 (45422) - http://www.bohemiancoding.com/sketch -->
    <title>Artboard</title>
    <desc>Created with Sketch.</desc>
    <defs></defs>
    <g id="Page-1" stroke="none" stroke-width="1" fill="none" fill-rule="evenodd">
        <g id="Artboard" fill-rule="nonzero">
            <g id="Interjet_Icon" transform="translate(5.000000, 3.000000)">
                <path d="M13.3176471,8.65882353 L13.3176471,4.70588235 L13.3176471,1.78823529 C13.3176471,0.988235294 12.6588235,0.376470588 11.8588235,0.376470588 C11.0588235,0.376470588 10.4470588,1.03529412 10.4470588,1.78823529 L10.4470588,4.75294118 L10.4470588,8.65882353 L7.67058824,5.88235294 L5.6,3.81176471 C5.03529412,3.24705882 4.14117647,3.24705882 3.57647059,3.81176471 C3.01176471,4.37647059 3.01176471,5.27058824 3.57647059,5.83529412 L5.64705882,7.90588235 L8.42352941,10.6823529 L2.49411765,10.6823529 L1.55294118,10.6823529 C0.752941176,10.6823529 0.0941176471,11.3411765 0.0941176471,12.1411765 C0.0941176471,12.9411765 0.752941176,13.6 1.55294118,13.6 L2.4,13.6 L4.47058824,13.6 L8.37647059,13.6 L5.6,16.3764706 L4.18823529,17.7882353 L3.52941176,18.4470588 C2.96470588,19.0117647 2.96470588,19.9058824 3.52941176,20.4705882 C4.09411765,21.0352941 4.98823529,21.0352941 5.55294118,20.4705882 L6.16470588,19.8588235 L7.62352941,18.4 L10.4,15.6235294 L10.4,19.5294118 L10.4,21.5529412 L10.4,22.4941176 C10.4,23.2941176 11.0588235,23.9529412 11.8588235,23.9529412 C12.6588235,23.9529412 13.3176471,23.2941176 13.3176471,22.4941176 L13.3176471,21.6470588 L13.3176471,19.5764706 L13.3176471,15.6705882 L16.0941176,18.4470588 L17.5058824,19.8588235 L18.1647059,20.5176471 C18.7294118,21.0823529 19.6235294,21.0823529 20.1882353,20.5176471 C20.7529412,19.9529412 20.7529412,19.0588235 20.1882353,18.4941176 L19.5764706,17.8823529 L18.1176471,16.4235294 L15.3411765,13.6470588 L19.2470588,13.6470588 L22.2117647,13.6470588 C23.0117647,13.6470588 23.6235294,12.9882353 23.6235294,12.2352941 C23.6235294,11.4352941 22.9647059,10.8235294 22.2117647,10.8235294 L19.2470588,10.8235294 L15.3411765,10.8235294 L18.1176471,8.04705882 L20.1882353,5.97647059 C20.7529412,5.41176471 20.7529412,4.51764706 20.1882353,3.95294118 C19.6235294,3.38823529 18.7294118,3.38823529 18.1647059,3.95294118 L16.0941176,6.02352941 L13.3176471,8.65882353 Z" id="Shape" fill="#1B4298"></path>
                <path d="M18.1176471,16.3294118 C18.6823529,16.8941176 18.6823529,17.7882353 18.1176471,18.3529412 C17.5529412,18.9176471 16.6588235,18.9176471 16.0941176,18.3529412 L13.5529412,15.8117647 L11.2941176,13.5529412 L4.51764706,13.5529412 C3.71764706,13.5529412 3.10588235,12.8941176 3.10588235,12.1411765 C3.10588235,11.3411765 3.76470588,10.6823529 4.51764706,10.6823529 L11.2941176,10.6823529 L13.3176471,8.65882353 L16.0941176,5.88235294 C16.6588235,5.31764706 17.5529412,5.31764706 18.1176471,5.88235294 C18.6823529,6.44705882 18.6823529,7.34117647 18.1176471,7.90588235 L15.3411765,10.6823529 L19.2470588,10.6823529 C20.0470588,10.6823529 20.6588235,11.3411765 20.6588235,12.1411765 C20.6588235,12.9411765 20,13.5529412 19.2470588,13.5529412 L15.3411765,13.5529412 L18.1176471,16.3294118 Z" id="Shape" fill="#1C4596"></path>
            </g>
        </g>
    </g>
</svg>