<?xml version="1.0" encoding="UTF-8" standalone="no"?>
<svg width="34px" height="31px" viewBox="0 0 34 31" version="1.1" xmlns="http://www.w3.org/2000/svg" xmlns:xlink="http://www.w3.org/1999/xlink">
    <!-- Generator: Sketch 47.1 (45422) - http://www.bohemiancoding.com/sketch -->
    <title>Artboard</title>
    <desc>Created with Sketch.</desc>
    <defs></defs>
    <g id="Page-1" stroke="none" stroke-width="1" fill="none" fill-rule="evenodd">
        <g id="Artboard" fill="#1B4298">
            <path d="M20.7575434,17.6675004 C19.7841888,19.6527797 18.9012516,21.638059 18.0183144,23.6233383 C17.4051791,24.9675037 16.7920438,26.2082718 16.1789085,27.5524372 C15.7701516,28.5864106 14.4416918,29 13.7263673,29 C13.3176104,29 13.2154212,28.7932053 13.2154212,28.379616 C13.3176104,27.9660266 13.4197996,27.6558346 13.4197996,27.2422452 C14.032501,24.0391962 14.747247,20.8361472 15.3600927,17.5299202 C13.3931714,17.4418769 11.4242736,17.3270281 9.43442019,17.2333826 L8.9234741,17.2333826 C8.41252802,17.1299852 8.00377116,17.3367799 7.79939272,17.7503693 C7.39063586,18.4741507 6.87968977,19.1979321 6.36874369,19.9217134 C5.95998683,20.5420975 5.44904074,20.8522895 4.73371623,20.7488922 C4.5293378,20.7488922 4.22277015,20.7488922 4.01839171,20.6454948 C3.50744563,20.5420975 3.40525641,20.3353028 3.60963485,19.8183161 C4.12058093,18.7843427 4.63152701,17.8537666 5.14247309,16.8197932 C5.24466231,16.8197932 5.24466231,16.6129985 5.34685153,16.5096012 L4.32495936,16.5096012 C4.12058093,16.5096012 3.9162025,16.5096012 3.81401328,16.4062038 C3.60963485,16.3028065 3.60963485,15.9926145 3.40525641,15.8892171 C3.60963485,15.7858198 3.71182406,15.6824225 3.9162025,15.5790251 C4.32495936,15.4756278 4.83590544,15.4756278 5.24466231,15.3722304 C4.83590544,14.648449 4.42714858,13.9246677 4.01839171,13.2008863 C3.71182406,12.6838996 3.40525641,12.1669129 3.09868876,11.5465288 C2.89431033,11.0295421 2.99649955,10.9261448 3.50744563,10.9261448 L4.73371623,10.9261448 C5.24466231,10.9261448 5.55122996,11.1329394 5.85779761,11.4431315 C6.47093291,12.3737075 7.18625742,13.2008863 7.79939272,14.1314623 C7.90158194,14.2348597 8.10596037,14.338257 8.20814959,14.338257 C10.5585016,14.1314623 12.8066643,13.9246677 15.1570163,13.8212703 C15.1570163,13.8212703 15.2592055,13.8212703 15.2592055,13.717873 C15.1570163,13.0974889 14.9526379,12.4771049 14.8504487,11.8567208 C14.0329349,8.34121123 13.2154212,4.92909897 12.2957182,1.41358936 C12.193529,1.10339734 12.2957182,1 12.6022859,1 C13.8285565,1 14.6460702,1.51698671 15.1570163,2.65435746 C16.6898546,5.44608567 18.2226928,8.34121123 19.755531,11.1329394 C20.0620987,11.7533235 20.4708556,12.3737075 20.7774232,12.9940916 C20.8796124,13.2008863 20.9818016,13.3042836 21.2883693,13.3042836 C23.4343428,13.0974889 25.5803164,13.0974889 27.7262899,13.6144756 C28.3394252,13.717873 28.9525605,14.028065 29.4635066,14.4416544 C30.1788311,14.9586411 30.1788311,15.6824225 29.4635066,16.1994092 C28.8503713,16.6129985 28.1350468,16.9231905 27.5219115,17.1299852 C25.886884,17.6469719 24.2518566,17.6469719 22.5146399,17.6469719 C21.9272779,17.660793 21.3417418,17.6672243 20.7575434,17.6675004 Z" id="Icn_Ruta-Copy-4"></path>
        </g>
    </g>
</svg>