<?xml version="1.0" encoding="UTF-8" standalone="no"?>
<svg width="34px" height="31px" viewBox="0 0 34 31" version="1.1" xmlns="http://www.w3.org/2000/svg" xmlns:xlink="http://www.w3.org/1999/xlink">
    <!-- Generator: Sketch 47.1 (45422) - http://www.bohemiancoding.com/sketch -->
    <title>Artboard</title>
    <desc>Created with Sketch.</desc>
    <defs></defs>
    <g id="Page-1" stroke="none" stroke-width="1" fill="none" fill-rule="evenodd">
        <g id="Artboard" fill-rule="nonzero" fill="#1B4298">
            <path d="M26.7061486,6.00030369 L18.2515002,6.17785115 L7.1590015,17.278806 C6.9469995,17.4907808 6.9469995,17.8277761 7.1590015,18.0397238 L15.9602769,26.8410189 C16.1722519,27.0529937 16.5092204,27.0529937 16.7211953,26.8410189 L27.8221622,15.7485051 L27.9996963,7.29386381 C28.0075422,6.93663154 27.8628527,6.60744163 27.6276917,6.37230791 C27.3925578,6.13717418 27.0633541,5.99245778 26.7061486,6.00030369 L26.7061486,6.00030369 Z M22.8423607,9.53434376 C23.2577883,9.53434376 23.675218,9.69082903 23.9921929,10.0078037 C24.6261427,10.6417259 24.6261427,11.6735168 23.9921929,12.3074661 C23.3582701,12.9413884 22.3349466,12.9413884 21.7009967,12.3074661 C21.0670469,11.6735168 21.0670469,10.6417259 21.7009967,10.0078037 C22.0179716,9.69082903 22.4269331,9.53434376 22.8423607,9.53434376 Z" id="Shape"></path>
        </g>
    </g>
</svg>