<?xml version="1.0" encoding="UTF-8" standalone="no"?>
<svg width="34px" height="31px" viewBox="0 0 34 31" version="1.1" xmlns="http://www.w3.org/2000/svg" xmlns:xlink="http://www.w3.org/1999/xlink">
    <!-- Generator: Sketch 47.1 (45422) - http://www.bohemiancoding.com/sketch -->
    <title>Artboard</title>
    <desc>Created with Sketch.</desc>
    <defs></defs>
    <g id="Page-1" stroke="none" stroke-width="1" fill="none" fill-rule="evenodd">
        <g id="Artboard" fill-rule="nonzero" fill="#1B4298">
            <path d="M21.4208255,7.26666667 L20.7383626,7.26666667 C20.7383626,7.26666667 20.7383626,7.26666667 20.7383626,7.26666667 L20.7383626,2.73333333 C20.7383626,1.8 19.9194071,1 18.963959,1 L15.4151517,1 C14.4597035,1 13.640748,1.8 13.640748,2.73333333 L13.640748,7.26666667 C13.640748,7.26666667 13.640748,7.26666667 13.640748,7.26666667 L12.9582851,7.26666667 C10.7744036,7.26666667 9,8.86666667 9,10.8666667 L9,26.2 C9,27.9333333 10.3649259,29.4 12.2758221,29.6666667 C12.2758221,29.6666667 12.2758221,29.6666667 12.2758221,29.6666667 C12.2758221,30.3333333 12.9582851,31 13.640748,31 C14.3232109,31 15.0056739,30.4666667 15.0056739,29.6666667 L19.2369441,29.6666667 C19.2369441,30.3333333 19.9194071,31 20.60187,31 C21.284333,31 21.9667959,30.4666667 21.9667959,29.6666667 C21.9667959,29.6666667 21.9667959,29.6666667 21.9667959,29.6666667 C23.7411995,29.4 25.242618,27.9333333 25.242618,26.2 L25.242618,10.8666667 C25.3791106,8.86666667 23.604707,7.26666667 21.4208255,7.26666667 Z M15.0056739,7.13333333 L15.0056739,2.6 C15.0056739,2.46666667 15.1421665,2.2 15.4151517,2.2 L18.963959,2.2 C19.2369441,2.2 19.3734367,2.33333333 19.3734367,2.6 L19.3734367,7.13333333 C19.3734367,7.13333333 19.3734367,7.13333333 19.3734367,7.13333333 L15.0056739,7.13333333 C15.0056739,7.13333333 15.0056739,7.13333333 15.0056739,7.13333333 Z M12.5488073,14.4666667 L11.320374,12.0666667 L16.643585,9.8 L17.8720182,12.2 L12.5488073,14.4666667 Z M22.5127663,16.3333333 L16.5070924,16.3333333 L16.5070924,13.4 L22.5127663,13.4 L22.5127663,16.3333333 Z" id="Shape"></path>
        </g>
    </g>
</svg>