<?xml version="1.0" encoding="UTF-8" standalone="no"?>
<svg width="138px" height="17px" viewBox="0 0 138 17" version="1.1" xmlns="http://www.w3.org/2000/svg" xmlns:xlink="http://www.w3.org/1999/xlink">
    <!-- Generator: Sketch 47.1 (45422) - http://www.bohemiancoding.com/sketch -->
    <title>Artboard</title>
    <desc>Created with Sketch.</desc>
    <defs>
        <circle id="path-1" cx="69.5" cy="8.5" r="5.5"></circle>
    </defs>
    <g id="Page-1" stroke="none" stroke-width="1" fill="none" fill-rule="evenodd">
        <g id="Artboard">
            <path d="M1.74249165,9.5306637 C34.4055543,9.5306637 77.7026761,9.5306637 131.633857,9.5306637 L128.561337,13.3125366 C128.233234,13.719215 128.286625,14.4006978 128.655694,14.7643507 C129.042319,15.1453201 129.675163,15.0692387 130.003135,14.6624403 L134.457792,9.1771175 C134.770542,8.7276193 134.753733,8.22071034 134.457792,7.82721385 L130.003135,2.34189143 C129.630774,1.88943801 129.033197,1.88653765 128.655694,2.23998099 C128.278193,2.59342091 128.233234,3.28511668 128.561337,3.69179508 L131.633857,7.47366766 L1.74308043,7.47366766 L1.74308043,9.5306637 Z" id="Combined-Shape" fill="#B5D6EF" fill-rule="nonzero"></path>
            <circle id="Oval" fill="#B5D6EF" cx="69.5" cy="8.5" r="7.5"></circle>
            <g id="Oval-2">
                <use fill="#7AB5E2" fill-rule="evenodd" xlink:href="#path-1"></use>
                <circle stroke="#FFFFFF" stroke-width="2" cx="69.5" cy="8.5" r="4.5"></circle>
            </g>
        </g>
    </g>
</svg>