<?xml version="1.0" encoding="UTF-8" standalone="no"?>
<svg width="118px" height="33px" viewBox="0 0 118 33" version="1.1" xmlns="http://www.w3.org/2000/svg" xmlns:xlink="http://www.w3.org/1999/xlink">
    <!-- Generator: Sketch 47.1 (45422) - http://www.bohemiancoding.com/sketch -->
    <title>Artboard</title>
    <desc>Created with Sketch.</desc>
    <defs></defs>
    <g id="Page-1" stroke="none" stroke-width="1" fill="none" fill-rule="evenodd">
        <g id="Artboard" fill-rule="nonzero" fill="#B5D6EF">
            <path d="M46.7075285,-28.6340815 C45.8043664,-27.8893584 45.7985768,-26.6942048 46.5041006,-25.9391981 C47.2096176,-25.1841977 48.590342,-25.0942796 49.4021306,-25.7504846 L56.9512929,-31.8955254 L56.9512929,70.0908469 C56.9512929,71.145237 57.8705029,72 59.004323,72 C60.1382116,72 61.0573532,71.145237 61.0573532,70.0908469 L61.0573532,-31.8955254 L68.6065161,-25.7504846 C69.4183047,-25.0942796 70.7786425,-25.2010613 71.5045461,-25.9391981 C72.2650158,-26.7124493 72.1131463,-27.9781374 71.3011182,-28.6340815 L60.351624,-37.5433948 C59.4543609,-38.1688953 58.4424976,-38.1352762 57.657022,-37.5433948 L46.7075285,-28.6340815 Z" id="Shape" transform="translate(59.000000, 17.000000) rotate(90.000000) translate(-59.000000, -17.000000) "></path>
        </g>
    </g>
</svg>