<?xml version="1.0" encoding="UTF-8" standalone="no"?>
<svg width="15px" height="26px" viewBox="0 0 15 26" version="1.1" xmlns="http://www.w3.org/2000/svg" xmlns:xlink="http://www.w3.org/1999/xlink">
    <!-- Generator: Sketch 47.1 (45422) - http://www.bohemiancoding.com/sketch -->
    <title>Artboard</title>
    <desc>Created with Sketch.</desc>
    <defs></defs>
    <g id="Page-1" stroke="none" stroke-width="1" fill="none" fill-rule="evenodd">
        <g id="Artboard" fill-rule="nonzero" fill="#B5D6EF">
            <path d="M-322.292471,-302.634081 C-323.195634,-301.889358 -323.201423,-300.694205 -322.495899,-299.939198 C-321.790382,-299.184198 -320.409658,-299.09428 -319.597869,-299.750485 L-312.048707,-305.895525 L-312.048707,336.090847 C-312.048707,337.145237 -311.129497,338 -309.995677,338 C-308.861788,338 -307.942647,337.145237 -307.942647,336.090847 C-307.942647,187.520957 -307.942647,76.0935389 -307.942647,1.80859375 C-307.942647,-66.5700994 -307.942647,-169.138139 -307.942647,-305.895525 L-300.393484,-299.750485 C-299.581695,-299.09428 -298.221357,-299.201061 -297.495454,-299.939198 C-296.734984,-300.712449 -296.886854,-301.978137 -297.698882,-302.634081 L-308.648376,-311.543395 C-309.545639,-312.168895 -310.557502,-312.135276 -311.342978,-311.543395 L-322.292471,-302.634081 Z" id="Shape" transform="translate(-310.000000, 13.000000) rotate(90.000000) translate(310.000000, -13.000000) "></path>
        </g>
    </g>
</svg>