<?xml version="1.0" encoding="UTF-8" standalone="no"?>
<svg width="59px" height="175px" viewBox="0 0 59 175" version="1.1" xmlns="http://www.w3.org/2000/svg" xmlns:xlink="http://www.w3.org/1999/xlink">
    <!-- Generator: Sketch 47.1 (45422) - http://www.bohemiancoding.com/sketch -->
    <title>Artboard</title>
    <desc>Created with Sketch.</desc>
    <defs>
        <path d="M39.466704,20.6892808 C40.1777653,19.9898341 40.1777653,18.8545054 39.466704,18.1547077 L35.0906395,13.8569533 C34.7458283,13.5186358 34.2902488,13.3333333 33.8028681,13.3333333 C33.3154873,13.3333333 32.8563346,13.5186358 32.5118808,13.8569533 L20.7486392,25.4127397 L17.4888338,22.2131131 C17.1461666,21.8754975 16.6877285,21.6880893 16.2007051,21.6880893 C15.7133244,21.6880893 15.254529,21.8754975 14.9093605,22.2145169 L10.5322241,26.5119204 C9.82259198,27.2103142 9.82259198,28.3466958 10.5322241,29.0447387 L19.4572946,37.8087044 C20.1697853,38.5081511 21.3267785,38.5081511 22.0360533,37.8090554 L39.466704,20.6892808 Z" id="path-1"></path>
    </defs>
    <g id="Page-1" stroke="none" stroke-width="1" fill="none" fill-rule="evenodd">
        <g id="Artboard">
            <g id="Group" transform="translate(5.000000, 9.000000)">
                <g id="Icn_Included">
                    <g id="Group-3">
                        <circle id="Oval" fill="#53B847" cx="25" cy="25" r="25"></circle>
                        <g id="Shape-Copy-9">
                            <use fill="#FFFFFF" fill-rule="evenodd" xlink:href="#path-1"></use>
                            <path stroke="#53B847" stroke-width="1" d="M39.116199,20.332705 C39.6279903,19.8291406 39.6279486,19.0149267 39.1163569,18.5114385 L34.7404627,14.2138514 C34.4893156,13.967434 34.1595411,13.8333333 33.8028681,13.8333333 C33.4450993,13.8333333 33.1121752,13.9681896 32.862275,14.2136379 L20.7487864,26.1134944 L20.3983949,25.7695714 L17.1379156,22.5692821 C16.8886559,22.3236971 16.5562059,22.1880893 16.2007051,22.1880893 C15.84455,22.1880893 15.5115164,22.3239249 15.2596494,22.5713049 L10.8829444,26.8682843 C10.3723668,27.370776 10.3723668,28.1861355 10.8825429,28.6879801 L19.8075668,37.4519 C20.3254092,37.960262 21.1702913,37.9603414 21.6856953,37.4523352 L39.116199,20.332705 Z"></path>
                        </g>
                    </g>
                </g>
                <g id="Icn_NotIncluded" transform="translate(0.000000, 108.000000)">
                    <g id="Group-3">
                        <circle id="Oval" fill="#D8D8D8" cx="25" cy="25" r="25"></circle>
                        <polygon id="Shape" fill="#FFFFFF" points="33 11.6666667 25 19.6666667 17 11.6666667 11.6666667 17 19.6666667 25 11.6666667 33 17 38.3333333 25 30.3333333 33 38.3333333 38.3333333 33 30.3333333 25 38.3333333 17"></polygon>
                    </g>
                </g>
            </g>
        </g>
    </g>
</svg>