<?xml version="1.0" encoding="UTF-8" standalone="no"?>
<svg width="413px" height="453px" viewBox="0 0 413 453" version="1.1" xmlns="http://www.w3.org/2000/svg" xmlns:xlink="http://www.w3.org/1999/xlink">
    <!-- Generator: Sketch 47.1 (45422) - http://www.bohemiancoding.com/sketch -->
    <title>Artboard</title>
    <desc>Created with Sketch.</desc>
    <defs></defs>
    <g id="Page-1" stroke="none" stroke-width="1" fill="none" fill-rule="evenodd">
        <g id="Artboard" fill-rule="nonzero">
            <path d="M20.6071049,19.1185399 C20.8136306,17.3583843 21.6333496,15.7497778 23.0331126,14.3925125 C24.7030905,12.7732362 26.7483444,11.9635981 29.0187638,12.0012557 C31.2891832,11.9635981 33.3156733,12.7732362 34.9856512,14.3925125 C36.3647978,15.7292572 37.1810806,17.3155706 37.4126337,19.1185399 L40.9900662,19.1185399 C43.7483444,19.1185399 45.3057395,20.6436722 45.3432671,23.4303338 L45.3432671,31.9597776 L45.3432671,31.9974352 C45.3057395,34.7840967 43.7671082,36.3280578 40.9900662,36.3280578 L17.0099338,36.3280578 C14.2328918,36.3280578 12.6942605,34.8029255 12.6942605,31.9974352 L12.6942605,31.9597776 L12.6942605,23.4491626 C12.6942605,20.662501 14.214128,19.1185399 17.0099338,19.1185399 L20.6071049,19.1185399 Z M22.3354975,19.1185399 L35.7417825,19.1185399 C35.5251035,17.7873879 34.9068937,16.6415146 33.8598234,15.635213 C32.4900662,14.3171974 30.8951435,13.6770184 29.0562914,13.7146759 C27.1799117,13.6770184 25.584989,14.3171974 24.2339956,15.635213 C23.1728255,16.6704799 22.5399928,17.8102979 22.3354975,19.1185399 Z M40.8962472,38.4933692 C42.6788079,38.4933692 44.2549669,37.8531902 45.1931567,36.6481473 C45.4558499,36.2904002 46,36.4598594 46,36.8929217 L46,55.0250505 C45.9624724,57.1150467 45.080574,58 43.0165563,58 L15.3962472,58 C13.5198675,58 12,56.4748677 12,54.5919882 L12,36.2527427 C12,35.9891395 12.3377483,35.9326531 12.4503311,36.1585987 C13.2196468,37.683731 14.8896247,38.4933692 16.9161148,38.4933692 L25.9977925,38.4933692 C26.2417219,38.4933692 26.4481236,38.7004859 26.4481236,38.9452602 L26.4481236,41.9390385 C26.4668874,43.1629101 27.0860927,43.7842603 28.3057395,43.7842603 L29.8818985,43.7842603 C30.8200883,43.7842603 31.5706402,43.0311086 31.5706402,42.0896689 L31.5706402,38.9452602 C31.5706402,38.7004859 31.7770419,38.4933692 32.0209713,38.4933692 L40.8962472,38.4933692 Z" id="Combined-Shape-Copy-3" fill="#999999"></path>
            <path d="M127.607105,19.1185399 C127.813631,17.3583843 128.63335,15.7497778 130.033113,14.3925125 C131.703091,12.7732362 133.748344,11.9635981 136.018764,12.0012557 C138.289183,11.9635981 140.315673,12.7732362 141.985651,14.3925125 C143.364798,15.7292572 144.181081,17.3155706 144.412634,19.1185399 L147.990066,19.1185399 C150.748344,19.1185399 152.30574,20.6436722 152.343267,23.4303338 L152.343267,31.9597776 L152.343267,31.9974352 C152.30574,34.7840967 150.767108,36.3280578 147.990066,36.3280578 L124.009934,36.3280578 C121.232892,36.3280578 119.69426,34.8029255 119.69426,31.9974352 L119.69426,31.9597776 L119.69426,23.4491626 C119.69426,20.662501 121.214128,19.1185399 124.009934,19.1185399 L127.607105,19.1185399 Z M129.335498,19.1185399 L142.741783,19.1185399 C142.525104,17.7873879 141.906894,16.6415146 140.859823,15.635213 C139.490066,14.3171974 137.895143,13.6770184 136.056291,13.7146759 C134.179912,13.6770184 132.584989,14.3171974 131.233996,15.635213 C130.172825,16.6704799 129.539993,17.8102979 129.335498,19.1185399 Z M147.896247,38.4933692 C149.678808,38.4933692 151.254967,37.8531902 152.193157,36.6481473 C152.45585,36.2904002 153,36.4598594 153,36.8929217 L153,55.0250505 C152.962472,57.1150467 152.080574,58 150.016556,58 L122.396247,58 C120.519868,58 119,56.4748677 119,54.5919882 L119,36.2527427 C119,35.9891395 119.337748,35.9326531 119.450331,36.1585987 C120.219647,37.683731 121.889625,38.4933692 123.916115,38.4933692 L132.997792,38.4933692 C133.241722,38.4933692 133.448124,38.7004859 133.448124,38.9452602 L133.448124,41.9390385 C133.466887,43.1629101 134.086093,43.7842603 135.30574,43.7842603 L136.881898,43.7842603 C137.820088,43.7842603 138.57064,43.0311086 138.57064,42.0896689 L138.57064,38.9452602 C138.57064,38.7004859 138.777042,38.4933692 139.020971,38.4933692 L147.896247,38.4933692 Z" id="Combined-Shape-Copy-4" fill="#1B4298"></path>
            <path d="M238.607105,19.1185399 C238.813631,17.3583843 239.63335,15.7497778 241.033113,14.3925125 C242.703091,12.7732362 244.748344,11.9635981 247.018764,12.0012557 C249.289183,11.9635981 251.315673,12.7732362 252.985651,14.3925125 C254.364798,15.7292572 255.181081,17.3155706 255.412634,19.1185399 L258.990066,19.1185399 C261.748344,19.1185399 263.30574,20.6436722 263.343267,23.4303338 L263.343267,31.9597776 L263.343267,31.9974352 C263.30574,34.7840967 261.767108,36.3280578 258.990066,36.3280578 L235.009934,36.3280578 C232.232892,36.3280578 230.69426,34.8029255 230.69426,31.9974352 L230.69426,31.9597776 L230.69426,23.4491626 C230.69426,20.662501 232.214128,19.1185399 235.009934,19.1185399 L238.607105,19.1185399 Z M240.335498,19.1185399 L253.741783,19.1185399 C253.525104,17.7873879 252.906894,16.6415146 251.859823,15.635213 C250.490066,14.3171974 248.895143,13.6770184 247.056291,13.7146759 C245.179912,13.6770184 243.584989,14.3171974 242.233996,15.635213 C241.172825,16.6704799 240.539993,17.8102979 240.335498,19.1185399 Z M258.896247,38.4933692 C260.678808,38.4933692 262.254967,37.8531902 263.193157,36.6481473 C263.45585,36.2904002 264,36.4598594 264,36.8929217 L264,55.0250505 C263.962472,57.1150467 263.080574,58 261.016556,58 L233.396247,58 C231.519868,58 230,56.4748677 230,54.5919882 L230,36.2527427 C230,35.9891395 230.337748,35.9326531 230.450331,36.1585987 C231.219647,37.683731 232.889625,38.4933692 234.916115,38.4933692 L243.997792,38.4933692 C244.241722,38.4933692 244.448124,38.7004859 244.448124,38.9452602 L244.448124,41.9390385 C244.466887,43.1629101 245.086093,43.7842603 246.30574,43.7842603 L247.881898,43.7842603 C248.820088,43.7842603 249.57064,43.0311086 249.57064,42.0896689 L249.57064,38.9452602 C249.57064,38.7004859 249.777042,38.4933692 250.020971,38.4933692 L258.896247,38.4933692 Z" id="Combined-Shape-Copy-5" fill="#6CADDF"></path>
            <g id="Group-8-Copy-3" transform="translate(52.000000, 24.000000)" fill="#999999">
                <path d="M24.1937674,11.1658372 L23.4220465,11.1658372 C23.4220465,8.26990698 22.6981628,5.51630233 21.3792791,3.41265116 C20.146186,1.44697674 18.5102326,0.272395349 16.9996047,0.272395349 C15.4897674,0.272395349 13.8518372,1.44697674 12.6207209,3.41344186 C11.3010465,5.51590698 10.5763721,8.27030233 10.5763721,11.1654419 L9.80465116,11.1654419 L9.10448837,14.8097674 L11.0788605,16.4358372 L13.0544186,14.8097674 L12.3522791,11.1654419 L11.5821395,11.1654419 C11.5821395,5.13004651 14.788814,1.27855814 16.9996047,1.27855814 C19.2080233,1.27855814 22.4166744,5.13004651 22.4166744,11.1654419 L21.6453488,11.1654419 L20.9459767,14.8089767 L22.9191628,16.4358372 L24.8951163,14.8089767 L24.1937674,11.1658372 Z" id="Shape"></path>
                <path d="M33.0642093,33.7276047 L33.0657907,33.7276047 C33.5291395,33.7276047 33.9043256,33.3330465 33.9043256,32.8882791 C33.9043256,26.0930233 33.0365349,14.0514884 30.5849767,11.6003256 C30.5426744,11.5485349 30.3378837,11.2334419 30.0876279,11.2334419 C29.8373721,11.2334419 24.6322093,11.2318605 24.6322093,11.2318605 L24.6401163,11.2318605 L24.6393256,11.2318605 L25.3126047,14.729907 C25.3402791,14.8813256 25.2857209,15.0355116 25.1659302,15.1331628 L23.1915581,16.7600233 C23.1136744,16.8240698 23.019186,16.8553023 22.9243023,16.8556977 C22.8294186,16.8553023 22.7365116,16.8244651 22.6602093,16.7600233 L20.8803488,15.2960465 L20.6834651,15.1331628 C20.6348372,15.0928372 20.5992558,15.0422326 20.5731628,14.9872791 C20.5367907,14.9086047 20.5213721,14.8196512 20.5383721,14.7303023 L21.2108605,11.2322558 L21.2100698,11.2322558 L12.7986279,11.2322558 L12.7974419,11.2322558 L13.4699302,14.7303023 C13.4869302,14.8200465 13.471907,14.9086047 13.4351395,14.9872791 C13.4090465,15.0422326 13.3738605,15.0932326 13.3252326,15.1331628 L13.1279535,15.2960465 L11.3484884,16.7600233 C11.2717907,16.8244651 11.1788837,16.8553023 11.084,16.8556977 C10.9895116,16.8553023 10.8946279,16.8240698 10.8171395,16.7600233 L8.84237209,15.1331628 C8.72297674,15.035907 8.66802326,14.8813256 8.69609302,14.729907 L9.36937209,11.2318605 L9.36818605,11.2318605 C9.36818605,11.2318605 4.16262791,11.2334419 3.91237209,11.2334419 C3.66211628,11.2334419 3.45811628,11.5485349 3.41502326,11.6003256 C0.963860465,14.0514884 0.0956744186,26.0930233 0.0956744186,32.8882791 C0.0956744186,33.3330465 0.470860465,33.7276047 0.934604651,33.7276047 L0.936186047,33.7276047 L33.0642093,33.7276047 Z" id="Shape"></path>
            </g>
            <g id="Group-8-Copy-4" transform="translate(159.000000, 24.000000)" fill="#1B4298">
                <path d="M24.1937674,11.1658372 L23.4220465,11.1658372 C23.4220465,8.26990698 22.6981628,5.51630233 21.3792791,3.41265116 C20.146186,1.44697674 18.5102326,0.272395349 16.9996047,0.272395349 C15.4897674,0.272395349 13.8518372,1.44697674 12.6207209,3.41344186 C11.3010465,5.51590698 10.5763721,8.27030233 10.5763721,11.1654419 L9.80465116,11.1654419 L9.10448837,14.8097674 L11.0788605,16.4358372 L13.0544186,14.8097674 L12.3522791,11.1654419 L11.5821395,11.1654419 C11.5821395,5.13004651 14.788814,1.27855814 16.9996047,1.27855814 C19.2080233,1.27855814 22.4166744,5.13004651 22.4166744,11.1654419 L21.6453488,11.1654419 L20.9459767,14.8089767 L22.9191628,16.4358372 L24.8951163,14.8089767 L24.1937674,11.1658372 Z" id="Shape"></path>
                <path d="M33.0642093,33.7276047 L33.0657907,33.7276047 C33.5291395,33.7276047 33.9043256,33.3330465 33.9043256,32.8882791 C33.9043256,26.0930233 33.0365349,14.0514884 30.5849767,11.6003256 C30.5426744,11.5485349 30.3378837,11.2334419 30.0876279,11.2334419 C29.8373721,11.2334419 24.6322093,11.2318605 24.6322093,11.2318605 L24.6401163,11.2318605 L24.6393256,11.2318605 L25.3126047,14.729907 C25.3402791,14.8813256 25.2857209,15.0355116 25.1659302,15.1331628 L23.1915581,16.7600233 C23.1136744,16.8240698 23.019186,16.8553023 22.9243023,16.8556977 C22.8294186,16.8553023 22.7365116,16.8244651 22.6602093,16.7600233 L20.8803488,15.2960465 L20.6834651,15.1331628 C20.6348372,15.0928372 20.5992558,15.0422326 20.5731628,14.9872791 C20.5367907,14.9086047 20.5213721,14.8196512 20.5383721,14.7303023 L21.2108605,11.2322558 L21.2100698,11.2322558 L12.7986279,11.2322558 L12.7974419,11.2322558 L13.4699302,14.7303023 C13.4869302,14.8200465 13.471907,14.9086047 13.4351395,14.9872791 C13.4090465,15.0422326 13.3738605,15.0932326 13.3252326,15.1331628 L13.1279535,15.2960465 L11.3484884,16.7600233 C11.2717907,16.8244651 11.1788837,16.8553023 11.084,16.8556977 C10.9895116,16.8553023 10.8946279,16.8240698 10.8171395,16.7600233 L8.84237209,15.1331628 C8.72297674,15.035907 8.66802326,14.8813256 8.69609302,14.729907 L9.36937209,11.2318605 L9.36818605,11.2318605 C9.36818605,11.2318605 4.16262791,11.2334419 3.91237209,11.2334419 C3.66211628,11.2334419 3.45811628,11.5485349 3.41502326,11.6003256 C0.963860465,14.0514884 0.0956744186,26.0930233 0.0956744186,32.8882791 C0.0956744186,33.3330465 0.470860465,33.7276047 0.934604651,33.7276047 L0.936186047,33.7276047 L33.0642093,33.7276047 Z" id="Shape"></path>
            </g>
            <g id="Group-8-Copy-5" transform="translate(270.000000, 24.000000)" fill="#6CADDF">
                <path d="M24.1937674,11.1658372 L23.4220465,11.1658372 C23.4220465,8.26990698 22.6981628,5.51630233 21.3792791,3.41265116 C20.146186,1.44697674 18.5102326,0.272395349 16.9996047,0.272395349 C15.4897674,0.272395349 13.8518372,1.44697674 12.6207209,3.41344186 C11.3010465,5.51590698 10.5763721,8.27030233 10.5763721,11.1654419 L9.80465116,11.1654419 L9.10448837,14.8097674 L11.0788605,16.4358372 L13.0544186,14.8097674 L12.3522791,11.1654419 L11.5821395,11.1654419 C11.5821395,5.13004651 14.788814,1.27855814 16.9996047,1.27855814 C19.2080233,1.27855814 22.4166744,5.13004651 22.4166744,11.1654419 L21.6453488,11.1654419 L20.9459767,14.8089767 L22.9191628,16.4358372 L24.8951163,14.8089767 L24.1937674,11.1658372 Z" id="Shape"></path>
                <path d="M33.0642093,33.7276047 L33.0657907,33.7276047 C33.5291395,33.7276047 33.9043256,33.3330465 33.9043256,32.8882791 C33.9043256,26.0930233 33.0365349,14.0514884 30.5849767,11.6003256 C30.5426744,11.5485349 30.3378837,11.2334419 30.0876279,11.2334419 C29.8373721,11.2334419 24.6322093,11.2318605 24.6322093,11.2318605 L24.6401163,11.2318605 L24.6393256,11.2318605 L25.3126047,14.729907 C25.3402791,14.8813256 25.2857209,15.0355116 25.1659302,15.1331628 L23.1915581,16.7600233 C23.1136744,16.8240698 23.019186,16.8553023 22.9243023,16.8556977 C22.8294186,16.8553023 22.7365116,16.8244651 22.6602093,16.7600233 L20.8803488,15.2960465 L20.6834651,15.1331628 C20.6348372,15.0928372 20.5992558,15.0422326 20.5731628,14.9872791 C20.5367907,14.9086047 20.5213721,14.8196512 20.5383721,14.7303023 L21.2108605,11.2322558 L21.2100698,11.2322558 L12.7986279,11.2322558 L12.7974419,11.2322558 L13.4699302,14.7303023 C13.4869302,14.8200465 13.471907,14.9086047 13.4351395,14.9872791 C13.4090465,15.0422326 13.3738605,15.0932326 13.3252326,15.1331628 L13.1279535,15.2960465 L11.3484884,16.7600233 C11.2717907,16.8244651 11.1788837,16.8553023 11.084,16.8556977 C10.9895116,16.8553023 10.8946279,16.8240698 10.8171395,16.7600233 L8.84237209,15.1331628 C8.72297674,15.035907 8.66802326,14.8813256 8.69609302,14.729907 L9.36937209,11.2318605 L9.36818605,11.2318605 C9.36818605,11.2318605 4.16262791,11.2334419 3.91237209,11.2334419 C3.66211628,11.2334419 3.45811628,11.5485349 3.41502326,11.6003256 C0.963860465,14.0514884 0.0956744186,26.0930233 0.0956744186,32.8882791 C0.0956744186,33.3330465 0.470860465,33.7276047 0.934604651,33.7276047 L0.936186047,33.7276047 L33.0642093,33.7276047 Z" id="Shape"></path>
            </g>
            <g id="Group-5" transform="translate(12.000000, 91.000000)" fill="#999999">
                <path d="M9.50916867,11.9501704 L9.50916867,5.51588686 L9.21211231,5.51588686 L9.21211231,0.885662365 L19.2728697,0.885662365 L19.2728697,5.51588686 L18.9758133,5.51588686 L18.9758133,11.9501704 L9.50916867,11.9501704 Z M25.4939212,11.9501704 L20.4714967,11.9501704 L20.4714967,5.51588686 L20.1744403,5.51588686 L20.1744403,0.885662365 L21.0068711,0.885662365 L21.0068711,0 L7.39306277,0 L7.39306277,0.885662365 L8.31054168,0.885662365 L8.31054168,5.51588686 L8.01348532,5.51588686 L8.01348532,11.9501704 L3.67113934,11.9501704 C1.6520127,11.9501704 0,13.6021831 0,15.6213097 L0,43.7667113 C0,45.785838 1.6520127,47.4378507 3.67113934,47.4378507 L4.87833232,47.4378507 C4.87833232,48.852769 6.02556337,50 7.44048165,50 C8.85570587,50 10.002631,48.852769 10.002631,47.4378507 L18.6552005,47.4378507 C18.6552005,48.852769 19.8021256,50 21.2173498,50 C22.6322681,50 23.7794991,48.852769 23.7794991,47.4378507 L25.4939212,47.4378507 C27.5130478,47.4378507 29.1650605,45.785838 29.1650605,43.7667113 L29.1650605,15.6213097 C29.1650605,13.6021831 27.5130478,11.9501704 25.4939212,11.9501704 L25.4939212,11.9501704 Z" id="Shape"></path>
            </g>
            <g id="Group-5-Copy" transform="translate(12.000000, 183.000000)" fill="#999999">
                <path d="M9.50916867,11.9501704 L9.50916867,5.51588686 L9.21211231,5.51588686 L9.21211231,0.885662365 L19.2728697,0.885662365 L19.2728697,5.51588686 L18.9758133,5.51588686 L18.9758133,11.9501704 L9.50916867,11.9501704 Z M25.4939212,11.9501704 L20.4714967,11.9501704 L20.4714967,5.51588686 L20.1744403,5.51588686 L20.1744403,0.885662365 L21.0068711,0.885662365 L21.0068711,0 L7.39306277,0 L7.39306277,0.885662365 L8.31054168,0.885662365 L8.31054168,5.51588686 L8.01348532,5.51588686 L8.01348532,11.9501704 L3.67113934,11.9501704 C1.6520127,11.9501704 0,13.6021831 0,15.6213097 L0,43.7667113 C0,45.785838 1.6520127,47.4378507 3.67113934,47.4378507 L4.87833232,47.4378507 C4.87833232,48.852769 6.02556337,50 7.44048165,50 C8.85570587,50 10.002631,48.852769 10.002631,47.4378507 L18.6552005,47.4378507 C18.6552005,48.852769 19.8021256,50 21.2173498,50 C22.6322681,50 23.7794991,48.852769 23.7794991,47.4378507 L25.4939212,47.4378507 C27.5130478,47.4378507 29.1650605,45.785838 29.1650605,43.7667113 L29.1650605,15.6213097 C29.1650605,13.6021831 27.5130478,11.9501704 25.4939212,11.9501704 L25.4939212,11.9501704 Z" id="Shape"></path>
            </g>
            <g id="Group-5-Copy-9" transform="translate(12.000000, 275.000000)" fill="#999999">
                <path d="M9.50916867,11.9501704 L9.50916867,5.51588686 L9.21211231,5.51588686 L9.21211231,0.885662365 L19.2728697,0.885662365 L19.2728697,5.51588686 L18.9758133,5.51588686 L18.9758133,11.9501704 L9.50916867,11.9501704 Z M25.4939212,11.9501704 L20.4714967,11.9501704 L20.4714967,5.51588686 L20.1744403,5.51588686 L20.1744403,0.885662365 L21.0068711,0.885662365 L21.0068711,0 L7.39306277,0 L7.39306277,0.885662365 L8.31054168,0.885662365 L8.31054168,5.51588686 L8.01348532,5.51588686 L8.01348532,11.9501704 L3.67113934,11.9501704 C1.6520127,11.9501704 0,13.6021831 0,15.6213097 L0,43.7667113 C0,45.785838 1.6520127,47.4378507 3.67113934,47.4378507 L4.87833232,47.4378507 C4.87833232,48.852769 6.02556337,50 7.44048165,50 C8.85570587,50 10.002631,48.852769 10.002631,47.4378507 L18.6552005,47.4378507 C18.6552005,48.852769 19.8021256,50 21.2173498,50 C22.6322681,50 23.7794991,48.852769 23.7794991,47.4378507 L25.4939212,47.4378507 C27.5130478,47.4378507 29.1650605,45.785838 29.1650605,43.7667113 L29.1650605,15.6213097 C29.1650605,13.6021831 27.5130478,11.9501704 25.4939212,11.9501704 L25.4939212,11.9501704 Z" id="Shape"></path>
            </g>
            <g id="Group-5-Copy-2" transform="translate(46.000000, 183.000000)" fill="#999999">
                <path d="M9.50916867,11.9501704 L9.50916867,5.51588686 L9.21211231,5.51588686 L9.21211231,0.885662365 L19.2728697,0.885662365 L19.2728697,5.51588686 L18.9758133,5.51588686 L18.9758133,11.9501704 L9.50916867,11.9501704 Z M25.4939212,11.9501704 L20.4714967,11.9501704 L20.4714967,5.51588686 L20.1744403,5.51588686 L20.1744403,0.885662365 L21.0068711,0.885662365 L21.0068711,0 L7.39306277,0 L7.39306277,0.885662365 L8.31054168,0.885662365 L8.31054168,5.51588686 L8.01348532,5.51588686 L8.01348532,11.9501704 L3.67113934,11.9501704 C1.6520127,11.9501704 0,13.6021831 0,15.6213097 L0,43.7667113 C0,45.785838 1.6520127,47.4378507 3.67113934,47.4378507 L4.87833232,47.4378507 C4.87833232,48.852769 6.02556337,50 7.44048165,50 C8.85570587,50 10.002631,48.852769 10.002631,47.4378507 L18.6552005,47.4378507 C18.6552005,48.852769 19.8021256,50 21.2173498,50 C22.6322681,50 23.7794991,48.852769 23.7794991,47.4378507 L25.4939212,47.4378507 C27.5130478,47.4378507 29.1650605,45.785838 29.1650605,43.7667113 L29.1650605,15.6213097 C29.1650605,13.6021831 27.5130478,11.9501704 25.4939212,11.9501704 L25.4939212,11.9501704 Z" id="Shape"></path>
            </g>
            <g id="Group-5-Copy-10" transform="translate(46.000000, 275.000000)" fill="#999999">
                <path d="M9.50916867,11.9501704 L9.50916867,5.51588686 L9.21211231,5.51588686 L9.21211231,0.885662365 L19.2728697,0.885662365 L19.2728697,5.51588686 L18.9758133,5.51588686 L18.9758133,11.9501704 L9.50916867,11.9501704 Z M25.4939212,11.9501704 L20.4714967,11.9501704 L20.4714967,5.51588686 L20.1744403,5.51588686 L20.1744403,0.885662365 L21.0068711,0.885662365 L21.0068711,0 L7.39306277,0 L7.39306277,0.885662365 L8.31054168,0.885662365 L8.31054168,5.51588686 L8.01348532,5.51588686 L8.01348532,11.9501704 L3.67113934,11.9501704 C1.6520127,11.9501704 0,13.6021831 0,15.6213097 L0,43.7667113 C0,45.785838 1.6520127,47.4378507 3.67113934,47.4378507 L4.87833232,47.4378507 C4.87833232,48.852769 6.02556337,50 7.44048165,50 C8.85570587,50 10.002631,48.852769 10.002631,47.4378507 L18.6552005,47.4378507 C18.6552005,48.852769 19.8021256,50 21.2173498,50 C22.6322681,50 23.7794991,48.852769 23.7794991,47.4378507 L25.4939212,47.4378507 C27.5130478,47.4378507 29.1650605,45.785838 29.1650605,43.7667113 L29.1650605,15.6213097 C29.1650605,13.6021831 27.5130478,11.9501704 25.4939212,11.9501704 L25.4939212,11.9501704 Z" id="Shape"></path>
            </g>
            <g id="Group-5-Copy-15" transform="translate(80.000000, 275.000000)" fill="#999999">
                <path d="M9.50916867,11.9501704 L9.50916867,5.51588686 L9.21211231,5.51588686 L9.21211231,0.885662365 L19.2728697,0.885662365 L19.2728697,5.51588686 L18.9758133,5.51588686 L18.9758133,11.9501704 L9.50916867,11.9501704 Z M25.4939212,11.9501704 L20.4714967,11.9501704 L20.4714967,5.51588686 L20.1744403,5.51588686 L20.1744403,0.885662365 L21.0068711,0.885662365 L21.0068711,0 L7.39306277,0 L7.39306277,0.885662365 L8.31054168,0.885662365 L8.31054168,5.51588686 L8.01348532,5.51588686 L8.01348532,11.9501704 L3.67113934,11.9501704 C1.6520127,11.9501704 0,13.6021831 0,15.6213097 L0,43.7667113 C0,45.785838 1.6520127,47.4378507 3.67113934,47.4378507 L4.87833232,47.4378507 C4.87833232,48.852769 6.02556337,50 7.44048165,50 C8.85570587,50 10.002631,48.852769 10.002631,47.4378507 L18.6552005,47.4378507 C18.6552005,48.852769 19.8021256,50 21.2173498,50 C22.6322681,50 23.7794991,48.852769 23.7794991,47.4378507 L25.4939212,47.4378507 C27.5130478,47.4378507 29.1650605,45.785838 29.1650605,43.7667113 L29.1650605,15.6213097 C29.1650605,13.6021831 27.5130478,11.9501704 25.4939212,11.9501704 L25.4939212,11.9501704 Z" id="Shape"></path>
            </g>
            <g id="Group-5-Copy-3" transform="translate(80.000000, 91.000000)" fill="#1B4298">
                <path d="M9.50916867,11.9501704 L9.50916867,5.51588686 L9.21211231,5.51588686 L9.21211231,0.885662365 L19.2728697,0.885662365 L19.2728697,5.51588686 L18.9758133,5.51588686 L18.9758133,11.9501704 L9.50916867,11.9501704 Z M25.4939212,11.9501704 L20.4714967,11.9501704 L20.4714967,5.51588686 L20.1744403,5.51588686 L20.1744403,0.885662365 L21.0068711,0.885662365 L21.0068711,0 L7.39306277,0 L7.39306277,0.885662365 L8.31054168,0.885662365 L8.31054168,5.51588686 L8.01348532,5.51588686 L8.01348532,11.9501704 L3.67113934,11.9501704 C1.6520127,11.9501704 0,13.6021831 0,15.6213097 L0,43.7667113 C0,45.785838 1.6520127,47.4378507 3.67113934,47.4378507 L4.87833232,47.4378507 C4.87833232,48.852769 6.02556337,50 7.44048165,50 C8.85570587,50 10.002631,48.852769 10.002631,47.4378507 L18.6552005,47.4378507 C18.6552005,48.852769 19.8021256,50 21.2173498,50 C22.6322681,50 23.7794991,48.852769 23.7794991,47.4378507 L25.4939212,47.4378507 C27.5130478,47.4378507 29.1650605,45.785838 29.1650605,43.7667113 L29.1650605,15.6213097 C29.1650605,13.6021831 27.5130478,11.9501704 25.4939212,11.9501704 L25.4939212,11.9501704 Z" id="Shape"></path>
            </g>
            <g id="Group-5-Copy-5" transform="translate(110.000000, 183.000000)" fill="#1B4298">
                <path d="M9.50916867,11.9501704 L9.50916867,5.51588686 L9.21211231,5.51588686 L9.21211231,0.885662365 L19.2728697,0.885662365 L19.2728697,5.51588686 L18.9758133,5.51588686 L18.9758133,11.9501704 L9.50916867,11.9501704 Z M25.4939212,11.9501704 L20.4714967,11.9501704 L20.4714967,5.51588686 L20.1744403,5.51588686 L20.1744403,0.885662365 L21.0068711,0.885662365 L21.0068711,0 L7.39306277,0 L7.39306277,0.885662365 L8.31054168,0.885662365 L8.31054168,5.51588686 L8.01348532,5.51588686 L8.01348532,11.9501704 L3.67113934,11.9501704 C1.6520127,11.9501704 0,13.6021831 0,15.6213097 L0,43.7667113 C0,45.785838 1.6520127,47.4378507 3.67113934,47.4378507 L4.87833232,47.4378507 C4.87833232,48.852769 6.02556337,50 7.44048165,50 C8.85570587,50 10.002631,48.852769 10.002631,47.4378507 L18.6552005,47.4378507 C18.6552005,48.852769 19.8021256,50 21.2173498,50 C22.6322681,50 23.7794991,48.852769 23.7794991,47.4378507 L25.4939212,47.4378507 C27.5130478,47.4378507 29.1650605,45.785838 29.1650605,43.7667113 L29.1650605,15.6213097 C29.1650605,13.6021831 27.5130478,11.9501704 25.4939212,11.9501704 L25.4939212,11.9501704 Z" id="Shape"></path>
            </g>
            <g id="Group-5-Copy-11" transform="translate(191.000000, 275.000000)" fill="#1B4298">
                <path d="M9.50916867,11.9501704 L9.50916867,5.51588686 L9.21211231,5.51588686 L9.21211231,0.885662365 L19.2728697,0.885662365 L19.2728697,5.51588686 L18.9758133,5.51588686 L18.9758133,11.9501704 L9.50916867,11.9501704 Z M25.4939212,11.9501704 L20.4714967,11.9501704 L20.4714967,5.51588686 L20.1744403,5.51588686 L20.1744403,0.885662365 L21.0068711,0.885662365 L21.0068711,0 L7.39306277,0 L7.39306277,0.885662365 L8.31054168,0.885662365 L8.31054168,5.51588686 L8.01348532,5.51588686 L8.01348532,11.9501704 L3.67113934,11.9501704 C1.6520127,11.9501704 0,13.6021831 0,15.6213097 L0,43.7667113 C0,45.785838 1.6520127,47.4378507 3.67113934,47.4378507 L4.87833232,47.4378507 C4.87833232,48.852769 6.02556337,50 7.44048165,50 C8.85570587,50 10.002631,48.852769 10.002631,47.4378507 L18.6552005,47.4378507 C18.6552005,48.852769 19.8021256,50 21.2173498,50 C22.6322681,50 23.7794991,48.852769 23.7794991,47.4378507 L25.4939212,47.4378507 C27.5130478,47.4378507 29.1650605,45.785838 29.1650605,43.7667113 L29.1650605,15.6213097 C29.1650605,13.6021831 27.5130478,11.9501704 25.4939212,11.9501704 L25.4939212,11.9501704 Z" id="Shape"></path>
            </g>
            <g id="Group-5-Copy-16" transform="translate(157.000000, 275.000000)" fill="#1B4298">
                <path d="M9.50916867,11.9501704 L9.50916867,5.51588686 L9.21211231,5.51588686 L9.21211231,0.885662365 L19.2728697,0.885662365 L19.2728697,5.51588686 L18.9758133,5.51588686 L18.9758133,11.9501704 L9.50916867,11.9501704 Z M25.4939212,11.9501704 L20.4714967,11.9501704 L20.4714967,5.51588686 L20.1744403,5.51588686 L20.1744403,0.885662365 L21.0068711,0.885662365 L21.0068711,0 L7.39306277,0 L7.39306277,0.885662365 L8.31054168,0.885662365 L8.31054168,5.51588686 L8.01348532,5.51588686 L8.01348532,11.9501704 L3.67113934,11.9501704 C1.6520127,11.9501704 0,13.6021831 0,15.6213097 L0,43.7667113 C0,45.785838 1.6520127,47.4378507 3.67113934,47.4378507 L4.87833232,47.4378507 C4.87833232,48.852769 6.02556337,50 7.44048165,50 C8.85570587,50 10.002631,48.852769 10.002631,47.4378507 L18.6552005,47.4378507 C18.6552005,48.852769 19.8021256,50 21.2173498,50 C22.6322681,50 23.7794991,48.852769 23.7794991,47.4378507 L25.4939212,47.4378507 C27.5130478,47.4378507 29.1650605,45.785838 29.1650605,43.7667113 L29.1650605,15.6213097 C29.1650605,13.6021831 27.5130478,11.9501704 25.4939212,11.9501704 L25.4939212,11.9501704 Z" id="Shape"></path>
            </g>
            <g id="Group-5-Copy-6" transform="translate(144.000000, 183.000000)" fill="#1B4298">
                <path d="M9.50916867,11.9501704 L9.50916867,5.51588686 L9.21211231,5.51588686 L9.21211231,0.885662365 L19.2728697,0.885662365 L19.2728697,5.51588686 L18.9758133,5.51588686 L18.9758133,11.9501704 L9.50916867,11.9501704 Z M25.4939212,11.9501704 L20.4714967,11.9501704 L20.4714967,5.51588686 L20.1744403,5.51588686 L20.1744403,0.885662365 L21.0068711,0.885662365 L21.0068711,0 L7.39306277,0 L7.39306277,0.885662365 L8.31054168,0.885662365 L8.31054168,5.51588686 L8.01348532,5.51588686 L8.01348532,11.9501704 L3.67113934,11.9501704 C1.6520127,11.9501704 0,13.6021831 0,15.6213097 L0,43.7667113 C0,45.785838 1.6520127,47.4378507 3.67113934,47.4378507 L4.87833232,47.4378507 C4.87833232,48.852769 6.02556337,50 7.44048165,50 C8.85570587,50 10.002631,48.852769 10.002631,47.4378507 L18.6552005,47.4378507 C18.6552005,48.852769 19.8021256,50 21.2173498,50 C22.6322681,50 23.7794991,48.852769 23.7794991,47.4378507 L25.4939212,47.4378507 C27.5130478,47.4378507 29.1650605,45.785838 29.1650605,43.7667113 L29.1650605,15.6213097 C29.1650605,13.6021831 27.5130478,11.9501704 25.4939212,11.9501704 L25.4939212,11.9501704 Z" id="Shape"></path>
            </g>
            <g id="Group-5-Copy-12" transform="translate(225.000000, 275.000000)" fill="#1B4298">
                <path d="M9.50916867,11.9501704 L9.50916867,5.51588686 L9.21211231,5.51588686 L9.21211231,0.885662365 L19.2728697,0.885662365 L19.2728697,5.51588686 L18.9758133,5.51588686 L18.9758133,11.9501704 L9.50916867,11.9501704 Z M25.4939212,11.9501704 L20.4714967,11.9501704 L20.4714967,5.51588686 L20.1744403,5.51588686 L20.1744403,0.885662365 L21.0068711,0.885662365 L21.0068711,0 L7.39306277,0 L7.39306277,0.885662365 L8.31054168,0.885662365 L8.31054168,5.51588686 L8.01348532,5.51588686 L8.01348532,11.9501704 L3.67113934,11.9501704 C1.6520127,11.9501704 0,13.6021831 0,15.6213097 L0,43.7667113 C0,45.785838 1.6520127,47.4378507 3.67113934,47.4378507 L4.87833232,47.4378507 C4.87833232,48.852769 6.02556337,50 7.44048165,50 C8.85570587,50 10.002631,48.852769 10.002631,47.4378507 L18.6552005,47.4378507 C18.6552005,48.852769 19.8021256,50 21.2173498,50 C22.6322681,50 23.7794991,48.852769 23.7794991,47.4378507 L25.4939212,47.4378507 C27.5130478,47.4378507 29.1650605,45.785838 29.1650605,43.7667113 L29.1650605,15.6213097 C29.1650605,13.6021831 27.5130478,11.9501704 25.4939212,11.9501704 L25.4939212,11.9501704 Z" id="Shape"></path>
            </g>
            <g id="Group-5-Copy-4" transform="translate(146.000000, 91.000000)" fill="#6CADDF">
                <path d="M9.50916867,11.9501704 L9.50916867,5.51588686 L9.21211231,5.51588686 L9.21211231,0.885662365 L19.2728697,0.885662365 L19.2728697,5.51588686 L18.9758133,5.51588686 L18.9758133,11.9501704 L9.50916867,11.9501704 Z M25.4939212,11.9501704 L20.4714967,11.9501704 L20.4714967,5.51588686 L20.1744403,5.51588686 L20.1744403,0.885662365 L21.0068711,0.885662365 L21.0068711,0 L7.39306277,0 L7.39306277,0.885662365 L8.31054168,0.885662365 L8.31054168,5.51588686 L8.01348532,5.51588686 L8.01348532,11.9501704 L3.67113934,11.9501704 C1.6520127,11.9501704 0,13.6021831 0,15.6213097 L0,43.7667113 C0,45.785838 1.6520127,47.4378507 3.67113934,47.4378507 L4.87833232,47.4378507 C4.87833232,48.852769 6.02556337,50 7.44048165,50 C8.85570587,50 10.002631,48.852769 10.002631,47.4378507 L18.6552005,47.4378507 C18.6552005,48.852769 19.8021256,50 21.2173498,50 C22.6322681,50 23.7794991,48.852769 23.7794991,47.4378507 L25.4939212,47.4378507 C27.5130478,47.4378507 29.1650605,45.785838 29.1650605,43.7667113 L29.1650605,15.6213097 C29.1650605,13.6021831 27.5130478,11.9501704 25.4939212,11.9501704 L25.4939212,11.9501704 Z" id="Shape"></path>
            </g>
            <g id="Group-5-Copy-7" transform="translate(208.000000, 183.000000)" fill="#6CADDF">
                <path d="M9.50916867,11.9501704 L9.50916867,5.51588686 L9.21211231,5.51588686 L9.21211231,0.885662365 L19.2728697,0.885662365 L19.2728697,5.51588686 L18.9758133,5.51588686 L18.9758133,11.9501704 L9.50916867,11.9501704 Z M25.4939212,11.9501704 L20.4714967,11.9501704 L20.4714967,5.51588686 L20.1744403,5.51588686 L20.1744403,0.885662365 L21.0068711,0.885662365 L21.0068711,0 L7.39306277,0 L7.39306277,0.885662365 L8.31054168,0.885662365 L8.31054168,5.51588686 L8.01348532,5.51588686 L8.01348532,11.9501704 L3.67113934,11.9501704 C1.6520127,11.9501704 0,13.6021831 0,15.6213097 L0,43.7667113 C0,45.785838 1.6520127,47.4378507 3.67113934,47.4378507 L4.87833232,47.4378507 C4.87833232,48.852769 6.02556337,50 7.44048165,50 C8.85570587,50 10.002631,48.852769 10.002631,47.4378507 L18.6552005,47.4378507 C18.6552005,48.852769 19.8021256,50 21.2173498,50 C22.6322681,50 23.7794991,48.852769 23.7794991,47.4378507 L25.4939212,47.4378507 C27.5130478,47.4378507 29.1650605,45.785838 29.1650605,43.7667113 L29.1650605,15.6213097 C29.1650605,13.6021831 27.5130478,11.9501704 25.4939212,11.9501704 L25.4939212,11.9501704 Z" id="Shape"></path>
            </g>
            <g id="Group-5-Copy-13" transform="translate(304.000000, 275.000000)" fill="#6CADDF">
                <path d="M9.50916867,11.9501704 L9.50916867,5.51588686 L9.21211231,5.51588686 L9.21211231,0.885662365 L19.2728697,0.885662365 L19.2728697,5.51588686 L18.9758133,5.51588686 L18.9758133,11.9501704 L9.50916867,11.9501704 Z M25.4939212,11.9501704 L20.4714967,11.9501704 L20.4714967,5.51588686 L20.1744403,5.51588686 L20.1744403,0.885662365 L21.0068711,0.885662365 L21.0068711,0 L7.39306277,0 L7.39306277,0.885662365 L8.31054168,0.885662365 L8.31054168,5.51588686 L8.01348532,5.51588686 L8.01348532,11.9501704 L3.67113934,11.9501704 C1.6520127,11.9501704 0,13.6021831 0,15.6213097 L0,43.7667113 C0,45.785838 1.6520127,47.4378507 3.67113934,47.4378507 L4.87833232,47.4378507 C4.87833232,48.852769 6.02556337,50 7.44048165,50 C8.85570587,50 10.002631,48.852769 10.002631,47.4378507 L18.6552005,47.4378507 C18.6552005,48.852769 19.8021256,50 21.2173498,50 C22.6322681,50 23.7794991,48.852769 23.7794991,47.4378507 L25.4939212,47.4378507 C27.5130478,47.4378507 29.1650605,45.785838 29.1650605,43.7667113 L29.1650605,15.6213097 C29.1650605,13.6021831 27.5130478,11.9501704 25.4939212,11.9501704 L25.4939212,11.9501704 Z" id="Shape"></path>
            </g>
            <g id="Group-5-Copy-8" transform="translate(242.000000, 183.000000)" fill="#6CADDF">
                <path d="M9.50916867,11.9501704 L9.50916867,5.51588686 L9.21211231,5.51588686 L9.21211231,0.885662365 L19.2728697,0.885662365 L19.2728697,5.51588686 L18.9758133,5.51588686 L18.9758133,11.9501704 L9.50916867,11.9501704 Z M25.4939212,11.9501704 L20.4714967,11.9501704 L20.4714967,5.51588686 L20.1744403,5.51588686 L20.1744403,0.885662365 L21.0068711,0.885662365 L21.0068711,0 L7.39306277,0 L7.39306277,0.885662365 L8.31054168,0.885662365 L8.31054168,5.51588686 L8.01348532,5.51588686 L8.01348532,11.9501704 L3.67113934,11.9501704 C1.6520127,11.9501704 0,13.6021831 0,15.6213097 L0,43.7667113 C0,45.785838 1.6520127,47.4378507 3.67113934,47.4378507 L4.87833232,47.4378507 C4.87833232,48.852769 6.02556337,50 7.44048165,50 C8.85570587,50 10.002631,48.852769 10.002631,47.4378507 L18.6552005,47.4378507 C18.6552005,48.852769 19.8021256,50 21.2173498,50 C22.6322681,50 23.7794991,48.852769 23.7794991,47.4378507 L25.4939212,47.4378507 C27.5130478,47.4378507 29.1650605,45.785838 29.1650605,43.7667113 L29.1650605,15.6213097 C29.1650605,13.6021831 27.5130478,11.9501704 25.4939212,11.9501704 L25.4939212,11.9501704 Z" id="Shape"></path>
            </g>
            <g id="Group-5-Copy-14" transform="translate(338.000000, 275.000000)" fill="#6CADDF">
                <path d="M9.50916867,11.9501704 L9.50916867,5.51588686 L9.21211231,5.51588686 L9.21211231,0.885662365 L19.2728697,0.885662365 L19.2728697,5.51588686 L18.9758133,5.51588686 L18.9758133,11.9501704 L9.50916867,11.9501704 Z M25.4939212,11.9501704 L20.4714967,11.9501704 L20.4714967,5.51588686 L20.1744403,5.51588686 L20.1744403,0.885662365 L21.0068711,0.885662365 L21.0068711,0 L7.39306277,0 L7.39306277,0.885662365 L8.31054168,0.885662365 L8.31054168,5.51588686 L8.01348532,5.51588686 L8.01348532,11.9501704 L3.67113934,11.9501704 C1.6520127,11.9501704 0,13.6021831 0,15.6213097 L0,43.7667113 C0,45.785838 1.6520127,47.4378507 3.67113934,47.4378507 L4.87833232,47.4378507 C4.87833232,48.852769 6.02556337,50 7.44048165,50 C8.85570587,50 10.002631,48.852769 10.002631,47.4378507 L18.6552005,47.4378507 C18.6552005,48.852769 19.8021256,50 21.2173498,50 C22.6322681,50 23.7794991,48.852769 23.7794991,47.4378507 L25.4939212,47.4378507 C27.5130478,47.4378507 29.1650605,45.785838 29.1650605,43.7667113 L29.1650605,15.6213097 C29.1650605,13.6021831 27.5130478,11.9501704 25.4939212,11.9501704 L25.4939212,11.9501704 Z" id="Shape"></path>
            </g>
            <g id="Group-5-Copy-17" transform="translate(373.000000, 275.000000)" fill="#6CADDF">
                <path d="M9.50916867,11.9501704 L9.50916867,5.51588686 L9.21211231,5.51588686 L9.21211231,0.885662365 L19.2728697,0.885662365 L19.2728697,5.51588686 L18.9758133,5.51588686 L18.9758133,11.9501704 L9.50916867,11.9501704 Z M25.4939212,11.9501704 L20.4714967,11.9501704 L20.4714967,5.51588686 L20.1744403,5.51588686 L20.1744403,0.885662365 L21.0068711,0.885662365 L21.0068711,0 L7.39306277,0 L7.39306277,0.885662365 L8.31054168,0.885662365 L8.31054168,5.51588686 L8.01348532,5.51588686 L8.01348532,11.9501704 L3.67113934,11.9501704 C1.6520127,11.9501704 0,13.6021831 0,15.6213097 L0,43.7667113 C0,45.785838 1.6520127,47.4378507 3.67113934,47.4378507 L4.87833232,47.4378507 C4.87833232,48.852769 6.02556337,50 7.44048165,50 C8.85570587,50 10.002631,48.852769 10.002631,47.4378507 L18.6552005,47.4378507 C18.6552005,48.852769 19.8021256,50 21.2173498,50 C22.6322681,50 23.7794991,48.852769 23.7794991,47.4378507 L25.4939212,47.4378507 C27.5130478,47.4378507 29.1650605,45.785838 29.1650605,43.7667113 L29.1650605,15.6213097 C29.1650605,13.6021831 27.5130478,11.9501704 25.4939212,11.9501704 L25.4939212,11.9501704 Z" id="Shape"></path>
            </g>
            <g id="noun_5844-copy-2" transform="translate(115.000000, 368.000000)" fill="#3154A2">
                <path d="M9.756,15.3993333 C12.9286667,15.3886667 15.494,12.822 15.4966667,9.65933333 C15.494,6.492 12.9286667,3.926 9.756,3.918 C6.59733333,3.92666667 4.032,6.492 4.016,9.65933333 C4.032,12.822 6.59733333,15.3886667 9.756,15.3993333 L9.756,15.3993333 Z" id="Shape"></path>
                <path d="M5.40266667,22.3533333 C4.376,15.7633333 13.8893333,13.7593333 15.4106667,20.516 L18.014,33.438 L27.6833333,33.438 C30.5073333,33.4466667 31.9733333,35.7053333 31.98,37.7933333 L31.98,55.3526667 C31.9726667,59.63 25.8993333,59.608 25.9006667,55.2966667 C25.8993333,51.2793333 25.9006667,41.6093333 25.9006667,41.6093333 L13.5453333,41.6093333 C10.67,41.6133333 8.86466667,39.6386667 8.40133333,37.368 L5.40266667,22.3533333 L5.40266667,22.3533333 Z" id="Shape"></path>
                <path d="M21.3773333,42.766 L13.2353333,42.766 C10.3066667,42.766 7.87933333,41.0186667 7.15666667,37.7353333 L4.52666667,24.898 C3.87666667,21.7706667 -0.511333333,22.788 0.0586666667,25.8293333 L2.80333333,39.2613333 C3.23866667,41.186 4.14333333,42.846 5.33466667,44.1646667 L5.326,44.16 L5.326,56.9386667 L5.326,58.5446667 L7.25333333,58.5446667 L16.95,58.5446667 L18.878,58.5446667 L18.878,56.9386667 L18.878,47.52 L21.4066667,47.52 C24.5673333,47.5133333 24.5786667,42.766 21.3773333,42.766 Z M16.7673333,56.9393333 L7.44266667,56.9393333 L8.658,46.632 C9.894,47.206 11.224,47.518 12.5566667,47.52 L15.6973333,47.52 L16.7673333,56.9393333 Z" id="Shape"></path>
                <path d="M32.968,0.122 L28.0006667,0.122 C24.1273333,0.122 20.976,3.27333333 20.976,7.14733333 L20.976,17.2193333 C20.976,21.0933333 24.128,24.2453333 28.0006667,24.2453333 L32.968,24.2453333 C36.8413333,24.2453333 39.9926667,21.0933333 39.9926667,17.2193333 L39.9926667,7.14733333 C39.9926667,3.27333333 36.8413333,0.122 32.968,0.122 Z M28.0006667,1.99733333 L32.968,1.99733333 C35.2706667,1.99733333 37.2326667,3.52933333 37.886,5.62466667 L33.3113333,5.62466667 L33.3113333,5.598 C33.3113333,5.17866667 32.968,4.83533333 32.5486667,4.83533333 L28.4193333,4.83533333 C28.0006667,4.83533333 27.6573333,5.17866667 27.6573333,5.598 L27.6573333,5.62466667 L23.082,5.62466667 C23.7353333,3.52933333 25.698,1.99733333 28.0006667,1.99733333 Z M35.632,7.352 L35.632,17.0133333 C35.632,18.596 34.3446667,19.8826667 32.7626667,19.8826667 L28.2053333,19.8826667 C26.6233333,19.8826667 25.3353333,18.5953333 25.3353333,17.0133333 L25.3353333,7.352 C25.3353333,7.076 25.3826667,6.81333333 25.4586667,6.562 L35.5093333,6.562 C35.5853333,6.81333333 35.632,7.07666667 35.632,7.352 Z M38.1173333,17.2193333 C38.1173333,20.052 35.8,22.3693333 32.968,22.3693333 L28.0006667,22.3693333 C25.168,22.3693333 22.8513333,20.0513333 22.8513333,17.2193333 L22.8513333,7.14733333 C22.8513333,6.94933333 22.8646667,6.75533333 22.8866667,6.56266667 L24.1726667,6.56266667 C24.1213333,6.81933333 24.086,7.08133333 24.086,7.35266667 L24.086,17.014 C24.086,19.28 25.94,21.134 28.206,21.134 L32.7633333,21.134 C35.0286667,21.134 36.8833333,19.2806667 36.8833333,17.014 L36.8833333,7.352 C36.8833333,7.08066667 36.848,6.81933333 36.7966667,6.562 L38.0826667,6.562 C38.1046667,6.75466667 38.118,6.94866667 38.118,7.14666667 L38.118,17.2193333 L38.1173333,17.2193333 Z" id="Shape"></path>
            </g>
            <g id="noun_5844-copy-3" transform="translate(14.000000, 368.000000)" fill="#999999">
                <path d="M15.4966667,9.65933333 C15.494,6.492 12.9286667,3.926 9.756,3.918 C6.59733333,3.92666667 4.032,6.492 4.016,9.65933333 C4.032,12.822 6.59733333,15.3886667 9.756,15.3993333 C12.9286667,15.3886667 15.494,12.822 15.4966667,9.65933333 Z" id="Shape"></path>
                <path d="M15.4106667,20.516 L18.014,33.438 L27.6833333,33.438 C30.5073333,33.4466667 31.9733333,35.7053333 31.98,37.7933333 L31.98,55.3526667 C31.9726667,59.63 25.8993333,59.608 25.9006667,55.2966667 C25.8993333,51.2793333 25.9006667,41.6093333 25.9006667,41.6093333 L13.5453333,41.6093333 C10.67,41.6133333 8.86466667,39.6386667 8.40133333,37.368 L5.40266667,22.3533333 C4.376,15.7633333 13.8893333,13.7593333 15.4106667,20.516 Z" id="Shape"></path>
                <path d="M21.3773333,42.766 L13.2353333,42.766 C10.3066667,42.766 7.87933333,41.0186667 7.15666667,37.7353333 L4.52666667,24.898 C3.87666667,21.7706667 -0.511333333,22.788 0.0586666667,25.8293333 L2.80333333,39.2613333 C3.23866667,41.186 4.14333333,42.846 5.33466667,44.1646667 L5.326,44.16 L5.326,56.9386667 L5.326,58.5446667 L7.25333333,58.5446667 L16.95,58.5446667 L18.878,58.5446667 L18.878,56.9386667 L18.878,47.52 L21.4066667,47.52 C24.5673333,47.5133333 24.5786667,42.766 21.3773333,42.766 Z M16.7673333,56.9393333 L7.44266667,56.9393333 L8.658,46.632 C9.894,47.206 11.224,47.518 12.5566667,47.52 L15.6973333,47.52 L16.7673333,56.9393333 Z" id="Shape"></path>
                <path d="M32.968,0.122 L28.0006667,0.122 C24.1273333,0.122 20.976,3.27333333 20.976,7.14733333 L20.976,17.2193333 C20.976,21.0933333 24.128,24.2453333 28.0006667,24.2453333 L32.968,24.2453333 C36.8413333,24.2453333 39.9926667,21.0933333 39.9926667,17.2193333 L39.9926667,7.14733333 C39.9926667,3.27333333 36.8413333,0.122 32.968,0.122 Z M28.0006667,1.99733333 L32.968,1.99733333 C35.2706667,1.99733333 37.2326667,3.52933333 37.886,5.62466667 L33.3113333,5.62466667 L33.3113333,5.598 C33.3113333,5.17866667 32.968,4.83533333 32.5486667,4.83533333 L28.4193333,4.83533333 C28.0006667,4.83533333 27.6573333,5.17866667 27.6573333,5.598 L27.6573333,5.62466667 L23.082,5.62466667 C23.7353333,3.52933333 25.698,1.99733333 28.0006667,1.99733333 Z M35.632,7.352 L35.632,17.0133333 C35.632,18.596 34.3446667,19.8826667 32.7626667,19.8826667 L28.2053333,19.8826667 C26.6233333,19.8826667 25.3353333,18.5953333 25.3353333,17.0133333 L25.3353333,7.352 C25.3353333,7.076 25.3826667,6.81333333 25.4586667,6.562 L35.5093333,6.562 C35.5853333,6.81333333 35.632,7.07666667 35.632,7.352 Z M38.1173333,17.2193333 C38.1173333,20.052 35.8,22.3693333 32.968,22.3693333 L28.0006667,22.3693333 C25.168,22.3693333 22.8513333,20.0513333 22.8513333,17.2193333 L22.8513333,7.14733333 C22.8513333,6.94933333 22.8646667,6.75533333 22.8866667,6.56266667 L24.1726667,6.56266667 C24.1213333,6.81933333 24.086,7.08133333 24.086,7.35266667 L24.086,17.014 C24.086,19.28 25.94,21.134 28.206,21.134 L32.7633333,21.134 C35.0286667,21.134 36.8833333,19.2806667 36.8833333,17.014 L36.8833333,7.352 C36.8833333,7.08066667 36.848,6.81933333 36.7966667,6.562 L38.0826667,6.562 C38.1046667,6.75466667 38.118,6.94866667 38.118,7.14666667 L38.118,17.2193333 L38.1173333,17.2193333 Z" id="Shape"></path>
            </g>
            <g id="noun_5844-copy-4" transform="translate(209.000000, 368.000000)" fill="#6CADDF">
                <path d="M9.756,15.3993333 C12.9286667,15.3886667 15.494,12.822 15.4966667,9.65933333 C15.494,6.492 12.9286667,3.926 9.756,3.918 C6.59733333,3.92666667 4.032,6.492 4.016,9.65933333 C4.032,12.822 6.59733333,15.3886667 9.756,15.3993333 L9.756,15.3993333 Z" id="Shape"></path>
                <path d="M5.40266667,22.3533333 C4.376,15.7633333 13.8893333,13.7593333 15.4106667,20.516 L18.014,33.438 L27.6833333,33.438 C30.5073333,33.4466667 31.9733333,35.7053333 31.98,37.7933333 L31.98,55.3526667 C31.9726667,59.63 25.8993333,59.608 25.9006667,55.2966667 C25.8993333,51.2793333 25.9006667,41.6093333 25.9006667,41.6093333 L13.5453333,41.6093333 C10.67,41.6133333 8.86466667,39.6386667 8.40133333,37.368 L5.40266667,22.3533333 L5.40266667,22.3533333 Z" id="Shape"></path>
                <path d="M21.3773333,42.766 L13.2353333,42.766 C10.3066667,42.766 7.87933333,41.0186667 7.15666667,37.7353333 L4.52666667,24.898 C3.87666667,21.7706667 -0.511333333,22.788 0.0586666667,25.8293333 L2.80333333,39.2613333 C3.23866667,41.186 4.14333333,42.846 5.33466667,44.1646667 L5.326,44.16 L5.326,56.9386667 L5.326,58.5446667 L7.25333333,58.5446667 L16.95,58.5446667 L18.878,58.5446667 L18.878,56.9386667 L18.878,47.52 L21.4066667,47.52 C24.5673333,47.5133333 24.5786667,42.766 21.3773333,42.766 Z M16.7673333,56.9393333 L7.44266667,56.9393333 L8.658,46.632 C9.894,47.206 11.224,47.518 12.5566667,47.52 L15.6973333,47.52 L16.7673333,56.9393333 Z" id="Shape"></path>
                <path d="M32.968,0.122 L28.0006667,0.122 C24.1273333,0.122 20.976,3.27333333 20.976,7.14733333 L20.976,17.2193333 C20.976,21.0933333 24.128,24.2453333 28.0006667,24.2453333 L32.968,24.2453333 C36.8413333,24.2453333 39.9926667,21.0933333 39.9926667,17.2193333 L39.9926667,7.14733333 C39.9926667,3.27333333 36.8413333,0.122 32.968,0.122 Z M28.0006667,1.99733333 L32.968,1.99733333 C35.2706667,1.99733333 37.2326667,3.52933333 37.886,5.62466667 L33.3113333,5.62466667 L33.3113333,5.598 C33.3113333,5.17866667 32.968,4.83533333 32.5486667,4.83533333 L28.4193333,4.83533333 C28.0006667,4.83533333 27.6573333,5.17866667 27.6573333,5.598 L27.6573333,5.62466667 L23.082,5.62466667 C23.7353333,3.52933333 25.698,1.99733333 28.0006667,1.99733333 Z M35.632,7.352 L35.632,17.0133333 C35.632,18.596 34.3446667,19.8826667 32.7626667,19.8826667 L28.2053333,19.8826667 C26.6233333,19.8826667 25.3353333,18.5953333 25.3353333,17.0133333 L25.3353333,7.352 C25.3353333,7.076 25.3826667,6.81333333 25.4586667,6.562 L35.5093333,6.562 C35.5853333,6.81333333 35.632,7.07666667 35.632,7.352 Z M38.1173333,17.2193333 C38.1173333,20.052 35.8,22.3693333 32.968,22.3693333 L28.0006667,22.3693333 C25.168,22.3693333 22.8513333,20.0513333 22.8513333,17.2193333 L22.8513333,7.14733333 C22.8513333,6.94933333 22.8646667,6.75533333 22.8866667,6.56266667 L24.1726667,6.56266667 C24.1213333,6.81933333 24.086,7.08133333 24.086,7.35266667 L24.086,17.014 C24.086,19.28 25.94,21.134 28.206,21.134 L32.7633333,21.134 C35.0286667,21.134 36.8833333,19.2806667 36.8833333,17.014 L36.8833333,7.352 C36.8833333,7.08066667 36.848,6.81933333 36.7966667,6.562 L38.0826667,6.562 C38.1046667,6.75466667 38.118,6.94866667 38.118,7.14666667 L38.118,17.2193333 L38.1173333,17.2193333 Z" id="Shape"></path>
            </g>
        </g>
    </g>
</svg>