<?xml version="1.0" encoding="UTF-8" standalone="no"?>
<svg width="91px" height="65px" viewBox="0 0 91 65" version="1.1" xmlns="http://www.w3.org/2000/svg" xmlns:xlink="http://www.w3.org/1999/xlink">
    <!-- Generator: Sketch 47.1 (45422) - http://www.bohemiancoding.com/sketch -->
    <title>Artboard</title>
    <desc>Created with Sketch.</desc>
    <defs></defs>
    <g id="Page-1" stroke="none" stroke-width="1" fill="none" fill-rule="evenodd">
        <g id="Artboard" fill-rule="nonzero" fill="#1B4298">
            <g id="grupos" transform="translate(6.000000, 8.000000)">
                <g id="Group" transform="translate(56.806020, 0.000000)">
                    <path d="M12.6822742,16.4605351 C11.1894649,17.4117057 9.41923077,17.9533445 7.51688963,17.9533445 C6.2222408,17.9533445 4.99364548,17.7023411 3.87073579,17.2399666 C3.34230769,18.4421405 2.57608696,19.5122074 1.62491639,20.3973244 C4.78227425,21.3881271 11.1762542,24.0038462 11.1762542,28.7993311 L11.1762542,31.0187291 L20.8729097,31.0187291 C21.5730769,31.0187291 22.1279264,30.4506689 22.1279264,29.7637124 L22.1279264,23.7132107 C22.1411371,19.2744147 14.3071906,16.909699 12.6822742,16.4605351 Z" id="Shape"></path>
                    <path d="M7.51688963,0.118896321 C4.14816054,0.118896321 1.25501672,2.16655518 0.0132107023,5.0861204 C2.8138796,6.7770903 4.68979933,9.85518395 4.68979933,13.3560201 C4.68979933,14.1882943 4.58411371,14.9941472 4.38595318,15.7735786 C5.35033445,16.1698997 6.40719064,16.3944816 7.51688963,16.3944816 C12.0085284,16.3944816 15.6546823,12.7483278 15.6546823,8.25668896 C15.6546823,3.75183946 12.0085284,0.118896321 7.51688963,0.118896321 Z" id="Shape"></path>
                </g>
                <g id="Group">
                    <path d="M18.1911371,17.2928094 C17.0946488,17.7155518 15.9188963,17.9533445 14.6770903,17.9533445 C12.7747492,17.9533445 11.0045151,17.398495 9.51170569,16.4605351 C7.9,16.8964883 0.0528428094,19.2744147 0.0528428094,23.7 L0.0528428094,29.3938127 C0.0528428094,30.2921405 0.779431438,31.0187291 1.6777592,31.0187291 L10.8591973,31.0187291 L10.8591973,28.7993311 C10.8591973,24.0038462 17.2531773,21.4013378 20.4105351,20.3973244 C19.485786,19.5254181 18.7195652,18.4817726 18.1911371,17.2928094 Z" id="Shape"></path>
                    <path d="M17.3456522,13.3428094 C17.3456522,9.78913043 19.2744147,6.68461538 22.1411371,5.00685619 C20.8861204,2.12692308 18.019398,0.105685619 14.6770903,0.105685619 C10.1854515,0.105685619 6.53929766,3.75183946 6.53929766,8.24347826 C6.53929766,12.7351171 10.1854515,16.3812709 14.6770903,16.3812709 C15.7339465,16.3812709 16.7379599,16.1831104 17.6759197,15.8132107 C17.4645485,15.0337793 17.3456522,14.201505 17.3456522,13.3428094 Z" id="Shape"></path>
                </g>
                <g id="Group" transform="translate(40.953177, 0.924749)">
                    <path d="M10.8988294,2.29866221 C12.114214,2.29866221 13.2767559,2.51003344 14.3600334,2.90635452 C12.8672241,1.1361204 10.6346154,0.0132107023 8.13779264,0.0132107023 C3.89715719,0.0132107023 0.409531773,3.26304348 0.039632107,7.41120401 C0.673745819,7.50367893 1.28143813,7.66220736 1.87591973,7.86036789 C3.58010033,4.46521739 7.06772575,2.29866221 10.8988294,2.29866221 Z" id="Shape"></path>
                    <path d="M10.8988294,4.28026756 C7.58294314,4.28026756 4.72943144,6.26187291 3.46120401,9.11538462 C6.28829431,10.7931438 8.19063545,13.8844482 8.19063545,17.4117057 C8.19063545,18.2968227 8.07173913,19.1555184 7.84715719,19.9613712 C8.78511706,20.3444816 9.81555184,20.5558528 10.8856187,20.5558528 C15.3772575,20.5558528 19.0234114,16.909699 19.0234114,12.4180602 C19.0366221,7.9264214 15.3904682,4.28026756 10.8988294,4.28026756 Z" id="Shape"></path>
                    <path d="M16.064214,20.6351171 C14.5714047,21.5862876 12.8011706,22.1279264 10.8988294,22.1279264 C9.63060201,22.1279264 8.42842809,21.8769231 7.3187291,21.4409699 C6.790301,22.590301 6.03729097,23.6207358 5.12575251,24.4662207 C8.28311037,25.4570234 14.6770903,28.0727425 14.6770903,32.8682274 L14.6770903,35.1801003 L24.2152174,35.1801003 C24.941806,35.1801003 25.5230769,34.5988294 25.5230769,33.8722408 L25.5230769,27.8745819 C25.5230769,23.4489967 17.6759197,21.0842809 16.064214,20.6351171 Z" id="Shape"></path>
                </g>
                <g id="Group" transform="translate(12.285953, 0.000000)">
                    <path d="M17.5041806,0.118896321 C14.5053512,0.118896321 11.8764214,1.74381271 10.4628763,4.16137124 C11.7575251,3.56688963 13.1842809,3.22341137 14.7035117,3.22341137 C18.5610368,3.22341137 22.0486622,5.40317726 23.7528428,8.82474916 C24.3605351,8.60016722 24.9814381,8.4416388 25.6287625,8.33595318 C25.6287625,8.30953177 25.6287625,8.26989967 25.6287625,8.24347826 C25.6419732,3.75183946 21.9958194,0.118896321 17.5041806,0.118896321 Z" id="Shape"></path>
                    <path d="M17.5570234,18.3364548 C17.5570234,14.8620401 19.4065217,11.8103679 22.1675585,10.1061873 C20.9125418,7.22625418 18.0458194,5.20501672 14.7035117,5.20501672 C10.2118729,5.20501672 6.56571906,8.85117057 6.56571906,13.3428094 C6.56571906,17.8344482 10.2118729,21.480602 14.7035117,21.480602 C15.8264214,21.480602 16.909699,21.2560201 17.887291,20.8332776 C17.6759197,20.0406355 17.5570234,19.2083612 17.5570234,18.3364548 Z" id="Shape"></path>
                    <path d="M18.4157191,22.3128763 C17.266388,22.7884615 16.0245819,23.0526756 14.7035117,23.0526756 C12.8011706,23.0526756 11.0309365,22.4978261 9.53812709,21.5598662 C7.9264214,21.9958194 0.079264214,24.3737458 0.079264214,28.7993311 L0.079264214,34.8894649 C0.079264214,35.5632107 0.62090301,36.1180602 1.30785953,36.1180602 L11.0705686,36.1180602 L11.0705686,33.8061873 C11.0705686,29.0107023 17.4645485,26.408194 20.6219064,25.4041806 C19.7103679,24.5322742 18.9441472,23.4886288 18.4157191,22.3128763 Z" id="Shape"></path>
                </g>
                <g id="Group" transform="translate(24.836120, 10.172241)">
                    <path d="M19.8292642,16.3812709 C18.3364548,17.3324415 16.5662207,17.8740803 14.6638796,17.8740803 C12.7615385,17.8740803 10.9913043,17.3192308 9.49849498,16.3812709 C7.8867893,16.8172241 0.039632107,19.1951505 0.039632107,23.6207358 L0.039632107,29.3277592 C0.039632107,30.2128763 0.753010033,30.9262542 1.63812709,30.9262542 L14.6638796,30.9262542 L27.6103679,30.9262542 C28.5351171,30.9262542 29.2749164,30.1732441 29.2749164,29.2617057 L29.2749164,23.6207358 C29.2881271,19.1951505 21.4409699,16.8304348 19.8292642,16.3812709 Z" id="Shape"></path>
                    <circle id="Oval" cx="14.6638796" cy="8.16421405" r="8.13779264"></circle>
                </g>
            </g>
        </g>
    </g>
</svg>