<?xml version="1.0" encoding="UTF-8" standalone="no"?>
<svg width="41px" height="41px" viewBox="0 0 41 41" version="1.1" xmlns="http://www.w3.org/2000/svg" xmlns:xlink="http://www.w3.org/1999/xlink">
    <!-- Generator: Sketch 47.1 (45422) - http://www.bohemiancoding.com/sketch -->
    <title>Artboard</title>
    <desc>Created with Sketch.</desc>
    <defs>
        <path d="M31.5733632,16.5514247 C32.1422123,15.9918673 32.1422123,15.0836043 31.5733632,14.5237662 L28.0725116,11.0855626 C27.7966627,10.8149087 27.432199,10.6666667 27.0422945,10.6666667 C26.6523899,10.6666667 26.2850677,10.8149087 26.0095046,11.0855626 L16.5989114,20.3301917 L13.9910671,17.7704905 C13.7169333,17.500398 13.3501828,17.3504715 12.9605641,17.3504715 C12.5706595,17.3504715 12.2036232,17.500398 11.9274884,17.7716135 L8.42577925,21.2095363 C7.85807358,21.7682514 7.85807358,22.6773567 8.42577925,23.235791 L15.5658357,30.2469635 C16.1358282,30.8065209 17.0614228,30.8065209 17.6288426,30.2472443 L31.5733632,16.5514247 Z" id="path-1"></path>
    </defs>
    <g id="Page-1" stroke="none" stroke-width="1" fill="none" fill-rule="evenodd">
        <g id="Artboard">
            <g id="Icn_Included">
                <g id="Group-3">
                    <circle id="Oval" fill="#53B847" cx="20" cy="20" r="20"></circle>
                    <g id="Shape-Copy-9">
                        <use fill="#FFFFFF" fill-rule="evenodd" xlink:href="#path-1"></use>
                        <path stroke="#53B847" stroke-width="1" d="M31.2228548,16.1948522 C31.5924372,15.8311776 31.5923966,15.2440267 31.2230161,14.880497 L27.7223348,11.4424607 C27.5401576,11.2637143 27.3015022,11.1666667 27.0422945,11.1666667 C26.7821709,11.1666667 26.5410269,11.2643459 26.3598988,11.4422472 L16.5990585,21.0309465 L16.248667,20.6870235 L13.6401488,18.1266595 C13.4594935,17.9486675 13.2187605,17.8504715 12.9605641,17.8504715 C12.701817,17.8504715 12.4605622,17.9488729 12.2777773,18.1284015 L8.77649957,21.5659002 C8.4078484,21.9287132 8.4078484,22.5167964 8.77609808,22.8790324 L15.9161079,29.8901591 C16.2914633,30.2586427 16.9049466,30.2587003 17.2784846,29.8905242 L31.2228548,16.1948522 Z"></path>
                    </g>
                </g>
            </g>
        </g>
    </g>
</svg>