<?xml version="1.0" encoding="utf-8"?>
<!-- Generator: Adobe Illustrator 16.0.0, SVG Export Plug-In . SVG Version: 6.00 Build 0)  -->
<!DOCTYPE svg PUBLIC "-//W3C//DTD SVG 1.1//EN" "http://www.w3.org/Graphics/SVG/1.1/DTD/svg11.dtd">
<svg version="1.1" id="Layer_1" xmlns="http://www.w3.org/2000/svg" xmlns:xlink="http://www.w3.org/1999/xlink" x="0px" y="0px"
	 width="28px" height="27px" viewBox="13.5 14.875 28 27" enable-background="new 13.5 14.875 28 27" xml:space="preserve">
<title>Artboard</title>
<desc>Created with Sketch.</desc>
<g id="Page-1">
	<g id="Artboard">
		<g id="Icn_Alert_Exitoso" transform="translate(2.000000, 2.000000)">
			<g id="Group">
				<path id="Path" fill="#53B847" d="M37.525,13.876c-0.471,0.015-0.903,0.234-1.153,0.585L21.084,35.522l-6.567-6.831
					c-0.328-0.345-0.841-0.508-1.343-0.429c-0.503,0.079-0.918,0.39-1.09,0.813s-0.073,0.895,0.259,1.235l7.811,8.121
					c0.292,0.304,0.73,0.467,1.182,0.44c0.451-0.026,0.861-0.241,1.103-0.577l16.33-22.487c0.291-0.391,0.311-0.892,0.049-1.299
					S38.057,13.858,37.525,13.876L37.525,13.876z"/>
			</g>
		</g>
	</g>
</g>
</svg>
