<?xml version="1.0" encoding="utf-8"?>
<!-- Generator: Adobe Illustrator 16.0.0, SVG Export Plug-In . SVG Version: 6.00 Build 0)  -->
<!DOCTYPE svg PUBLIC "-//W3C//DTD SVG 1.1//EN" "http://www.w3.org/Graphics/SVG/1.1/DTD/svg11.dtd">
<svg version="1.1" id="Layer_1" xmlns="http://www.w3.org/2000/svg" xmlns:xlink="http://www.w3.org/1999/xlink" x="0px" y="0px"
	 width="20px" height="20px" viewBox="0 0 20 20" enable-background="new 0 0 20 20" xml:space="preserve">
<title>tool tip</title>
<desc>Created with Sketch.</desc>
<path fill="#7BB5E2" d="M10,0C4.5,0,0,4.499,0,9.999s4.5,10,10,10s10-4.5,10-10S15.5,0,10,0z M10.2,15.3
	c-0.2,0.199-0.4,0.301-0.7,0.301S9,15.499,8.8,15.3s-0.3-0.4-0.3-0.699c0-0.301,0.1-0.5,0.3-0.701C9,13.7,9.2,13.601,9.5,13.601
	s0.5,0.1,0.7,0.299c0.199,0.201,0.3,0.4,0.3,0.701C10.5,14.899,10.399,15.101,10.2,15.3z M12.9,8.2c-0.1,0.299-0.301,0.6-0.5,0.799
	C12.199,9.2,11.9,9.499,11.6,9.8c-0.4,0.4-0.8,0.699-0.999,1c-0.201,0.301-0.301,0.699-0.301,1.1H8.6c0-0.4,0.101-0.799,0.2-1.1
	C9,10.499,9.2,10.2,9.4,9.999C9.6,9.8,9.9,9.499,10.2,9.2c0.4-0.4,0.699-0.701,0.899-1c0.201-0.301,0.301-0.6,0.301-1
	c0-0.5-0.201-0.9-0.601-1.301c-0.4-0.299-1-0.5-1.7-0.5C7.9,5.499,7,5.999,6.3,6.8L5.1,5.999c0.4-0.6,1-1,1.7-1.299
	c0.7-0.301,1.5-0.5,2.4-0.5c1.199,0,2.101,0.299,2.8,0.799s1,1.201,1,2.102C13.1,7.499,13,7.8,12.9,8.2z"/>
</svg>
