<?xml version="1.0" encoding="UTF-8" standalone="no"?>
<svg width="135px" height="26px" viewBox="0 0 135 26" version="1.1" xmlns="http://www.w3.org/2000/svg" xmlns:xlink="http://www.w3.org/1999/xlink">
    <!-- Generator: Sketch 47.1 (45422) - http://www.bohemiancoding.com/sketch -->
    <title>Artboard</title>
    <desc>Created with Sketch.</desc>
    <defs></defs>
    <g id="Page-1" stroke="none" stroke-width="1" fill="none" fill-rule="evenodd">
        <g id="Artboard" fill-rule="nonzero">
            <g id="Group-2">
                <g id="Group" transform="translate(31.000000, 1.000000)" fill="#FFFFFF">
                    <path d="M0.0743625283,8.24175824 C0.0743625283,7.43589744 0.297450113,6.81318681 0.743625283,6.33699634 C1.18980045,5.86080586 1.78470068,5.6043956 2.4911447,5.6043956 C3.19758872,5.6043956 3.79248894,5.86080586 4.23866411,6.33699634 C4.68483928,6.81318681 4.90792687,7.47252747 4.90792687,8.24175824 L4.90792687,20.8791209 C4.90792687,21.6849817 4.68483928,22.3076923 4.23866411,22.7838828 C3.79248894,23.2600733 3.19758872,23.5164835 2.4911447,23.5164835 C1.78470068,23.5164835 1.18980045,23.2600733 0.743625283,22.7838828 C0.297450113,22.3076923 0.0743625283,21.6483516 0.0743625283,20.8791209 L0.0743625283,8.24175824 Z" id="Shape"></path>
                    <path d="M7.58497789,8.24175824 C7.58497789,7.43589744 7.80806547,6.81318681 8.25424064,6.33699634 C8.70041581,5.86080586 9.29531604,5.6043956 10.0017601,5.6043956 C10.6338416,5.6043956 11.117198,5.75091575 11.5261919,6.08058608 C11.8980045,6.37362637 12.1582734,6.81318681 12.2326359,7.36263736 C12.7159923,6.73992674 13.3108926,6.22710623 14.0545179,5.8974359 C14.7981431,5.56776557 15.764856,5.42124542 16.8802939,5.42124542 C17.8098255,5.42124542 18.7021759,5.56776557 19.5201637,5.86080586 C20.3381515,6.15384615 21.0445955,6.55677656 21.6023145,7.10622711 C22.1972147,7.65567766 22.6433899,8.31501832 22.9780213,9.12087912 C23.3126526,9.92673993 23.4613777,10.8058608 23.4613777,11.8315018 L23.4613777,20.9157509 C23.4613777,21.7216117 23.2382901,22.3443223 22.7921149,22.8205128 C22.3459398,23.2967033 21.7510395,23.5531136 21.0445955,23.5531136 C20.3381515,23.5531136 19.7432513,23.2967033 19.2970761,22.8205128 C18.8509009,22.3443223 18.6278133,21.7216117 18.6278133,20.9157509 L18.6278133,12.6373626 C18.6278133,11.5018315 18.3303632,10.6959707 17.6982817,10.1831502 C17.0662003,9.67032967 16.322575,9.37728938 15.4302246,9.37728938 C14.4263305,9.37728938 13.6455239,9.70695971 13.1249862,10.3296703 C12.6044486,10.952381 12.3441797,11.7216117 12.3441797,12.6373626 L12.3441797,20.8791209 C12.3441797,21.6849817 12.1210921,22.3076923 11.6749169,22.7838828 C11.2287418,23.2600733 10.6338416,23.5164835 9.92739753,23.5164835 C9.22095351,23.5164835 8.62605329,23.2600733 8.17987812,22.7838828 C7.73370295,22.3076923 7.51061536,21.6483516 7.51061536,20.8791209 L7.51061536,8.24175824 L7.58497789,8.24175824 Z" id="Shape"></path>
                    <path d="M27.3282292,9.92673993 L26.2499725,9.92673993 C25.617891,9.92673993 25.0973533,9.74358974 24.7255407,9.37728938 C24.353728,9.01098901 24.1678217,8.4981685 24.1678217,7.87545788 C24.1678217,7.28937729 24.353728,6.77655678 24.7627219,6.41025641 C25.1717158,6.00732601 25.6550723,5.82417582 26.2871538,5.82417582 L27.3654104,5.82417582 L27.3654104,2.96703297 C27.3654104,2.16117216 27.588498,1.53846154 28.0346732,1.06227106 C28.4808483,0.586080586 29.0757486,0.32967033 29.7821926,0.32967033 C30.4886366,0.32967033 31.0835368,0.586080586 31.529712,1.06227106 C31.9758872,1.53846154 32.1989748,2.1978022 32.1989748,2.96703297 L32.1989748,5.82417582 L33.5746815,5.82417582 C34.206763,5.82417582 34.7273007,5.97069597 35.2106572,6.26373626 C35.6568323,6.55677656 35.9171012,7.10622711 35.9171012,7.87545788 C35.9171012,8.60805861 35.6940136,9.15750916 35.2106572,9.45054945 C34.764482,9.78021978 34.206763,9.92673993 33.5746815,9.92673993 L32.1989748,9.92673993 L32.1989748,20.8791209 C32.1989748,21.6849817 31.9758872,22.3076923 31.529712,22.7838828 C31.0835368,23.2600733 30.4886366,23.5164835 29.7821926,23.5164835 C29.0757486,23.5164835 28.4808483,23.2600733 28.0346732,22.7838828 C27.588498,22.3076923 27.3654104,21.6483516 27.3654104,20.8791209 L27.3654104,9.92673993 L27.3282292,9.92673993 Z" id="Shape"></path>
                    <path d="M40.0442215,16.1904762 C40.2301278,17.3992674 40.7506655,18.2783883 41.6058346,18.8278388 C42.4610037,19.3772894 43.4648978,19.6703297 44.617517,19.6703297 C45.2495985,19.6703297 45.8073174,19.5604396 46.3278551,19.3772894 C46.8483928,19.1941392 47.3317493,18.974359 47.7779244,18.7179487 C48.2240996,18.4615385 48.6330935,18.2417582 49.0049062,18.0586081 C49.3767188,17.8754579 49.7485315,17.7655678 50.0459816,17.7655678 C50.5665193,17.7655678 51.0126944,17.985348 51.4216883,18.4249084 C51.8306822,18.8644689 52.0165886,19.3040293 52.0165886,19.8168498 C52.0165886,20.3296703 51.793501,20.8058608 51.3101445,21.2820513 C50.8267881,21.7582418 50.1947066,22.1978022 49.4510813,22.5641026 C48.7074561,22.9304029 47.852287,23.2234432 46.9227554,23.4798535 C45.9932238,23.6996337 45.0636922,23.8095238 44.1713418,23.8095238 C42.7956351,23.8095238 41.5686533,23.5897436 40.4532154,23.1135531 C39.3377775,22.6373626 38.4082459,22.014652 37.5902581,21.2087912 C36.8094515,20.4029304 36.17737,19.4505495 35.7311949,18.3150183 C35.2850197,17.2161172 35.0619321,15.970696 35.0619321,14.6520147 C35.0619321,13.4432234 35.2850197,12.2710623 35.6940136,11.1721612 C36.1030075,10.0732601 36.6979077,9.08424908 37.4787143,8.24175824 C38.2223396,7.3992674 39.1518712,6.7032967 40.1929466,6.22710623 C41.234022,5.71428571 42.4238224,5.45787546 43.6879854,5.45787546 C44.9893296,5.45787546 46.1419488,5.71428571 47.2202055,6.26373626 C48.2984621,6.77655678 49.1908125,7.47252747 49.971619,8.31501832 C50.7152443,9.15750916 51.3101445,10.0732601 51.7191385,11.0989011 C52.1281324,12.1245421 52.3512199,13.1135531 52.3512199,14.1025641 C52.3512199,14.7985348 52.2024949,15.3479853 51.8678635,15.6776557 C51.5332321,16.043956 51.0126944,16.1904762 50.2690691,16.1904762 L40.0442215,16.1904762 Z M47.5548369,13.040293 C47.4061118,11.978022 47.0342992,11.0989011 46.4022177,10.4395604 C45.7701362,9.74358974 44.8777858,9.41391941 43.7251667,9.41391941 C42.64691,9.41391941 41.7917409,9.78021978 41.1224782,10.4761905 C40.4532154,11.1721612 40.0442215,12.0512821 39.9326777,13.0769231 L47.5548369,13.0769231 L47.5548369,13.040293 Z" id="Shape"></path>
                    <path d="M54.0243768,7.98534799 C54.0243768,7.17948718 54.2846457,6.59340659 54.8051834,6.19047619 C55.3257211,5.78754579 55.88344,5.6043956 56.4783403,5.6043956 C57.1104218,5.6043956 57.6681407,5.75091575 58.1143159,6.00732601 C58.5604911,6.3003663 58.7835786,6.81318681 58.7835786,7.58241758 L58.8579412,7.58241758 C59.3041163,6.92307692 59.7874728,6.44688645 60.3080105,6.11721612 C60.8285482,5.78754579 61.4606297,5.6043956 62.2414362,5.6043956 C62.8363364,5.6043956 63.3568741,5.82417582 63.8402306,6.22710623 C64.323587,6.63003663 64.5838559,7.28937729 64.5838559,8.13186813 C64.5838559,8.53479853 64.5094933,8.82783883 64.323587,9.04761905 C64.1376807,9.26739927 63.9517744,9.45054945 63.6543242,9.5970696 C63.3940554,9.74358974 63.0966053,9.89010989 62.7247926,10 C62.3901613,10.1098901 62.0183486,10.2564103 61.6837172,10.4029304 C61.3119046,10.5860806 60.9772732,10.7326007 60.6426418,10.9157509 C60.3080105,11.0989011 59.9733791,11.2820513 59.7131102,11.5384615 C59.4156601,11.7948718 59.1925725,12.0512821 59.0438475,12.3809524 C58.8579412,12.7106227 58.7835786,13.1135531 58.7835786,13.5531136 L58.7835786,20.8424908 C58.7835786,21.6483516 58.5604911,22.2710623 58.1143159,22.7472527 C57.6681407,23.2234432 57.0732405,23.4798535 56.3667965,23.4798535 C55.6603525,23.4798535 55.0654522,23.2234432 54.6192771,22.7472527 C54.1731019,22.2710623 53.9500143,21.6117216 53.9500143,20.8424908 L53.9500143,7.98534799 L54.0243768,7.98534799 Z" id="Shape"></path>
                    <path d="M79.4191803,16.1904762 C79.6050866,17.3992674 80.1256243,18.2783883 80.9807933,18.8278388 C81.8359624,19.3772894 82.8398566,19.6703297 83.9924757,19.6703297 C84.6245572,19.6703297 85.1822762,19.5604396 85.7028139,19.3772894 C86.2233516,19.1941392 86.706708,18.974359 87.1528832,18.7179487 C87.5990584,18.4615385 88.0080523,18.2417582 88.3798649,18.0586081 C88.7516776,17.8754579 89.0863089,17.7655678 89.4209403,17.7655678 C89.941478,17.7655678 90.3876532,17.985348 90.7966471,18.4249084 C91.205641,18.8644689 91.3915473,19.3040293 91.3915473,19.8168498 C91.3915473,20.3296703 91.1684597,20.8058608 90.6851033,21.2820513 C90.2017469,21.7582418 89.5696654,22.1978022 88.8260401,22.5641026 C88.0824148,22.9304029 87.2272457,23.2234432 86.2977141,23.4798535 C85.3681825,23.6996337 84.4386509,23.8095238 83.5463006,23.8095238 C82.1705938,23.8095238 80.9436121,23.5897436 79.8281742,23.1135531 C78.7127362,22.6373626 77.7832046,22.014652 76.9652168,21.2087912 C76.1844103,20.4029304 75.5523288,19.4505495 75.1061536,18.3150183 C74.6599784,17.2161172 74.4368909,15.970696 74.4368909,14.6520147 C74.4368909,13.4432234 74.6599784,12.2710623 75.0689723,11.1721612 C75.4779663,10.0732601 76.0728665,9.08424908 76.853673,8.24175824 C77.5972983,7.3992674 78.5268299,6.7032967 79.5679053,6.22710623 C80.6089807,5.71428571 81.7987812,5.45787546 83.0629441,5.45787546 C84.3642884,5.45787546 85.5169076,5.71428571 86.5951642,6.26373626 C87.6734209,6.77655678 88.5657712,7.47252747 89.3465778,8.31501832 C90.0902031,9.15750916 90.6851033,10.0732601 91.0940972,11.0989011 C91.5030911,12.1245421 91.7261787,13.1135531 91.7261787,14.1025641 C91.7261787,14.7985348 91.5402724,15.3479853 91.2428223,15.6776557 C90.9081909,16.043956 90.3876532,16.1904762 89.6440279,16.1904762 L79.4191803,16.1904762 Z M86.9297956,13.040293 C86.7810706,11.978022 86.4092579,11.0989011 85.7771764,10.4395604 C85.1450949,9.74358974 84.2527446,9.41391941 83.1001254,9.41391941 C82.0218687,9.41391941 81.1666997,9.78021978 80.4974369,10.4761905 C79.8281742,11.1721612 79.4191803,12.0512821 79.3076365,13.0769231 L86.9297956,13.0769231 L86.9297956,13.040293 Z" id="Shape"></path>
                    <path d="M94.589136,9.92673993 L93.5108794,9.92673993 C92.8787979,9.92673993 92.3582602,9.74358974 91.9864475,9.37728938 C91.6146349,9.01098901 91.4287286,8.4981685 91.4287286,7.87545788 C91.4287286,7.28937729 91.6146349,6.77655678 92.0236288,6.41025641 C92.4326227,6.00732601 92.9159791,5.82417582 93.5480606,5.82417582 L94.6263173,5.82417582 L94.6263173,2.96703297 C94.6263173,2.16117216 94.8494049,1.53846154 95.29558,1.06227106 C95.7417552,0.586080586 96.3366554,0.32967033 97.0430995,0.32967033 C97.7495435,0.32967033 98.3444437,0.586080586 98.7906189,1.06227106 C99.2367941,1.53846154 99.4598816,2.1978022 99.4598816,2.96703297 L99.4598816,5.82417582 L100.835588,5.82417582 C101.46767,5.82417582 101.988208,5.97069597 102.471564,6.26373626 C102.917739,6.55677656 103.140827,7.10622711 103.140827,7.87545788 C103.140827,8.60805861 102.917739,9.15750916 102.471564,9.45054945 C102.025389,9.78021978 101.46767,9.92673993 100.835588,9.92673993 L99.4598816,9.92673993 L99.4598816,20.8791209 C99.4598816,21.6849817 99.2367941,22.3076923 98.7906189,22.7838828 C98.3444437,23.2600733 97.7495435,23.5164835 97.0430995,23.5164835 C96.3366554,23.5164835 95.7417552,23.2600733 95.29558,22.7838828 C94.8494049,22.3076923 94.6263173,21.6483516 94.6263173,20.8791209 L94.6263173,9.92673993 L94.589136,9.92673993 Z" id="Shape"></path>
                    <path d="M67.4839945,19.3772894 C67.9673509,19.5970696 68.2276197,19.4139194 68.2276197,19.4139194 C68.4507073,19.2307692 68.6366136,19.010989 68.7481574,18.7545788 C68.8597012,18.4981685 68.8968825,18.2051282 68.9340638,17.9120879 C68.971245,17.6190476 68.971245,17.3260073 68.971245,17.1062271 L68.971245,7.58241758 C68.971245,6.81318681 69.1943326,6.22710623 69.6405078,5.82417582 C70.0866829,5.42124542 70.6444019,5.2014652 71.2764834,5.2014652 C71.9457462,5.2014652 72.5034651,5.42124542 72.912459,5.82417582 C73.3586342,6.22710623 73.5817218,6.81318681 73.5817218,7.58241758 L73.5817218,17.3992674 C73.5817218,18.6813187 73.3958155,19.8168498 73.0983653,20.5860806 C72.763734,21.4285714 72.2803775,22.0879121 71.6854773,22.5641026 C71.0905771,23.040293 70.3097705,23.4065934 69.6033265,23.5897436 C69.6033265,23.5897436 67.7814446,23.8095238 66.9634568,23.6263736 C66.1454689,23.4432234 65.58775,23.2967033 65.1043935,23.040293 C64.6210371,22.7838828 64.2864057,22.6007326 63.6543242,21.978022 C63.1337865,21.4652015 63.059424,20.7692308 63.059424,20.2930403 C63.059424,19.8168498 63.3568741,19.2673993 63.5427805,19.0842491 C63.7286868,18.9010989 63.9889556,18.6813187 64.1004994,18.6446886 C64.2120432,18.6080586 64.3979495,18.4615385 64.8069434,18.4615385 C65.2159373,18.4615385 65.5133875,18.5347985 65.736475,18.6446886 C65.9595626,18.7179487 66.6288254,19.010989 66.6288254,19.010989 L67.4839945,19.3772894 Z" id="Shape"></path>
                </g>
                <g id="Group">
                    <path d="M13.9811265,8.81011609 L13.9811265,4.7011964 L13.9811265,1.62876096 C13.9811265,0.814380479 13.3135926,0.111051883 12.4606326,0.111051883 C11.6447579,0.111051883 10.9401388,0.777363184 10.9401388,1.62876096 L10.9401388,4.7011964 L10.9401388,8.81011609 L8.0474919,5.92276712 L5.85946415,3.73874674 C5.26610069,3.14647003 4.30188507,3.14647003 3.74560683,3.73874674 C3.15224337,4.33102345 3.15224337,5.29347311 3.74560683,5.84873253 L5.93363458,8.0327529 L8.82628144,10.9201019 L2.63305034,10.9201019 L1.63174951,10.9201019 C0.815874755,10.9201019 0.111255648,11.5864132 0.111255648,12.4378109 C0.111255648,13.2521914 0.778789539,13.95552 1.63174951,13.95552 L2.55887991,13.95552 L4.74690766,13.95552 L8.86336665,13.95552 L5.93363458,16.842869 L4.45022593,18.3235608 L3.74560683,19.0268894 C3.15224337,19.6191661 3.15224337,20.5816157 3.74560683,21.1738924 C4.33897029,21.7661692 5.30318591,21.7661692 5.89654936,21.1738924 L6.52699804,20.5445984 L8.0474919,18.9898721 L10.9401388,16.1025231 L10.9401388,20.2114428 L10.9401388,22.3214286 L10.9401388,23.2838782 C10.9401388,24.135276 11.6076726,24.8015873 12.4606326,24.8015873 C13.2765074,24.8015873 13.9811265,24.135276 13.9811265,23.2838782 L13.9811265,22.3584459 L13.9811265,20.1744255 L13.9811265,16.0655058 L16.8737733,18.9528548 L18.357182,20.4335466 L19.0618011,21.1368751 C19.6551645,21.7291519 20.6193802,21.7291519 21.2127436,21.1368751 C21.8061071,20.5445984 21.8061071,19.5821488 21.2127436,18.9898721 L20.5822949,18.3605781 L19.0247159,16.842869 L16.132069,13.9185027 L20.248528,13.9185027 L23.3266009,13.9185027 C24.1424757,13.9185027 24.8470948,13.2521914 24.8470948,12.4007937 C24.8470948,11.5864132 24.1795609,10.8830846 23.3266009,10.8830846 L20.248528,10.8830846 L16.132069,10.8830846 L19.0247159,7.99573561 L21.2127436,5.81171523 C21.8061071,5.21943852 21.8061071,4.25698887 21.2127436,3.70172945 C20.6193802,3.10945274 19.6551645,3.10945274 19.0988863,3.70172945 L16.8737733,5.92276712 L13.9811265,8.81011609 Z" id="Shape" fill="#6CACDE"></path>
                    <path d="M19.0247159,16.842869 C19.6180793,17.4351457 19.6180793,18.3975954 19.0247159,18.9528548 C18.4313524,19.5451315 17.4671368,19.5451315 16.8737733,18.9528548 L14.2036378,16.2876096 L11.8301839,13.9185027 L4.70982245,13.9185027 C3.89394769,13.9185027 3.18932859,13.2521914 3.18932859,12.4007937 C3.18932859,11.5864132 3.85686248,10.8830846 4.70982245,10.8830846 L11.8301839,10.8830846 L13.9811265,8.77309879 L16.8737733,5.88574982 C17.4671368,5.29347311 18.4313524,5.29347311 18.9876307,5.88574982 C19.5809941,6.47802653 19.5809941,7.44047619 18.9876307,7.99573561 L16.0949838,10.8830846 L20.2114428,10.8830846 C21.0273175,10.8830846 21.7319366,11.5493959 21.7319366,12.4007937 C21.7319366,13.2151741 21.0644028,13.9185027 20.2114428,13.9185027 L16.132069,13.9185027 L19.0247159,16.842869 Z" id="Shape" fill="#FFFFFF"></path>
                </g>
            </g>
        </g>
    </g>
</svg>