<?xml version="1.0" encoding="UTF-8" standalone="no"?>
<svg width="91px" height="65px" viewBox="0 0 91 65" version="1.1" xmlns="http://www.w3.org/2000/svg" xmlns:xlink="http://www.w3.org/1999/xlink">
    <!-- Generator: Sketch 47.1 (45422) - http://www.bohemiancoding.com/sketch -->
    <title>Artboard</title>
    <desc>Created with Sketch.</desc>
    <defs></defs>
    <g id="Page-1" stroke="none" stroke-width="1" fill="none" fill-rule="evenodd">
        <g id="Artboard" fill="#1B4298">
            <g id="icon" transform="translate(16.000000, 4.000000)">
                <path d="M3.75841101,18.0397979 L3.77123856,18.0479345 L7.27224453,20.3322259 L7.27224453,9.7748005 L53.4111236,9.7748005 L53.4111236,20.207581 L56.9322871,17.9530658 L56.9441984,17.9456218 C57.4215667,17.6433578 57.4441065,16.9912225 56.9711363,16.6825532 L55.352299,15.6263605 L55.352299,8.85796781 C55.352299,8.35159779 54.9178114,7.940962 54.3818029,7.940962 L43.5742222,7.940962 L32.05966,0.428335194 C31.1908681,-0.138626111 30.0424355,-0.143300295 29.1688791,0.417601881 L17.4166407,7.940962 L6.3015652,7.940962 C5.7655567,7.940962 5.33106912,8.35159779 5.33106912,8.85796781 L5.33106912,15.6782959 L3.74301794,16.6951908 C3.23687931,17.0192676 3.25337188,17.71399 3.75841101,18.0397979" id="Fill-24"></path>
                <path d="M57.1669437,18.8364299 L30.6506844,36.3105441 C29.7616281,36.8964149 28.5939812,36.8915744 27.7100875,36.2983534 L27.7097187,36.2979949 L1.8415375,18.9267845 C1.0627375,18.40366 0,18.9457877 0,19.8663648 L0,49.6887623 C0,50.3194517 0.5258375,50.8305648 1.17428437,50.8305648 L57.8257156,50.8305648 C58.4741625,50.8305648 59,50.3194517 59,49.6887623 L59,19.7815677 C59,18.8656517 57.9466656,18.3226277 57.1669437,18.8364299" id="Fill-25"></path>
                <path d="M29.6667198,24.323469 C29.1607397,25.1767166 28.5044322,25.5913638 27.6602154,25.5913638 C27.1021707,25.5913638 26.668971,25.3795943 26.3356841,24.9437158 C25.9803981,24.4797103 25.8003718,23.818271 25.8003718,22.9775445 C25.8003718,21.6768046 26.0872772,20.5791239 26.653205,19.7149884 C27.1898005,18.8956748 27.8649907,18.4973595 28.7172738,18.4973595 C29.5383915,18.4973595 30.4810545,18.7403409 30.4810545,20.6355595 C30.4810545,22.1714777 30.2071653,23.4123342 29.6667198,24.323469 Z M33.2331463,16.9251483 C33.2534955,16.6883367 33.0648529,16.4849146 32.8246957,16.4849146 L31.323438,16.4849146 C31.111513,16.4849146 30.9346033,16.6447851 30.9151708,16.8534697 C30.9069211,16.9416616 30.8992214,17.0260427 30.891705,17.1066131 C30.7771262,17.0019079 30.6495312,16.9039169 30.5091034,16.8128216 C29.9906571,16.4769302 29.3959471,16.3067162 28.7412895,16.3067162 C27.1095037,16.3067162 25.7737895,16.9576305 24.7717289,18.2416756 C23.7944174,19.4937828 23.2988868,21.079241 23.2988868,22.9537726 C23.2988868,24.3998657 23.6679223,25.5748505 24.3957271,26.4458816 C25.1425977,27.3405032 26.1400751,27.7939838 27.3601105,27.7939838 C28.5838124,27.7939838 29.5541576,27.361916 30.2617964,26.505765 C30.4394395,26.2907292 30.781526,26.314864 30.9252537,26.5536717 C31.5179471,27.5388442 32.5746389,27.7939838 33.5092354,27.7939838 C34.9899606,27.7939838 36.2569274,27.1307298 37.2749374,25.8229129 C38.268015,24.5472152 38.7714286,22.9018736 38.7714286,20.9327989 C38.7714286,18.2498415 37.8249158,16.0406887 35.9584725,14.3668572 C34.1032121,12.7037321 31.7357385,11.8604651 28.9213158,11.8604651 C25.9133007,11.8604651 23.4039327,12.8659617 21.4628757,14.8490093 C19.5253019,16.8284275 18.5428571,19.3513329 18.5428571,22.3474986 C18.5428571,25.2607349 19.4829535,27.655889 21.337114,29.4661821 C23.1898078,31.2753864 25.6566441,32.192691 28.6692424,32.192691 C30.7886757,32.192691 32.5885716,31.8856526 34.0188821,31.2802859 C34.1697595,31.2162288 34.2674723,31.0696053 34.2674723,30.9071942 L34.2674723,29.432974 C34.2674723,29.1357346 33.9554512,28.9393897 33.6837619,29.0655078 L33.6835786,29.0655078 C32.3436479,29.6870248 30.6968293,30.0020477 28.789321,30.0020477 C26.4093812,30.0020477 24.4976564,29.2890724 23.1071277,27.883083 C21.7143991,26.4747345 21.0082269,24.5882262 21.0082269,22.2761829 C21.0082269,19.920951 21.7550975,17.9342742 23.2279396,16.3711362 C24.6934487,14.8158012 26.576758,14.0273365 28.8252529,14.0273365 C31.1672442,14.0273365 33.0173714,14.6831504 34.3243034,15.9769946 C35.6314187,17.2706573 36.2941426,18.9700754 36.2941426,21.0278864 C36.2941426,22.4191772 36.0253865,23.5600465 35.495574,24.4183752 C34.9982102,25.223716 34.4075335,25.6151356 33.689445,25.6151356 C33.4373716,25.6151356 32.6701518,25.6151356 32.6699684,23.5711159 C32.6745516,23.4669551 32.7759309,22.2295465 33.2331463,16.9253297 L33.2331463,16.9251483 L33.2331463,16.9251483 Z" id="Fill-26"></path>
            </g>
        </g>
    </g>
</svg>