<svg xmlns="http://www.w3.org/2000/svg" viewBox="0 0 100 100">
  <defs>
    <style>
      .cls-1 {
        fill: #1b4298;
      }

      .cls-2 {
        fill: #fff;
      }
    </style>
  </defs>
  <g id="AFEJET_100X100" transform="translate(-3995.16 400.355)">
    <g id="Group_549" data-name="Group 549" transform="translate(4021.959 -353.994)">
      <g id="Group_548" data-name="Group 548">
        <path id="Path_250" data-name="Path 250" class="cls-1" d="M5538.792,363.713h4.316c.866,0,1.591-.509,1.591-1.12V359.32c0-.611-.726-1.12-1.591-1.12h-4.316c-.854,0-1.592.509-1.592,1.12v3.272C5537.2,363.2,5537.926,363.713,5538.792,363.713Z" transform="translate(-5537.2 -358.2)"/>
      </g>
    </g>
    <g id="Group_551" data-name="Group 551" transform="translate(4021.959 -371.665)">
      <g id="Group_550" data-name="Group 550">
        <path id="Path_251" data-name="Path 251" class="cls-1" d="M5538.792,224.913h4.316c.866,0,1.591-.509,1.591-1.12V220.52c0-.611-.726-1.12-1.591-1.12h-4.316c-.854,0-1.592.509-1.592,1.12v3.272C5537.2,224.391,5537.926,224.913,5538.792,224.913Z" transform="translate(-5537.2 -219.4)"/>
      </g>
    </g>
    <path id="Path_253" data-name="Path 253" class="cls-2" d="M5530,599.492l.662-.764a3.444,3.444,0,0,0,2.419,1.082c1.146,0,1.833-.573,1.833-1.426,0-.891-.637-1.184-1.464-1.541l-1.26-.56a2.461,2.461,0,0,1-1.77-2.253,2.5,2.5,0,0,1,2.763-2.33,3.628,3.628,0,0,1,2.584,1.082l-.586.713a2.8,2.8,0,0,0-1.986-.828c-.98,0-1.629.5-1.629,1.273,0,.84.764,1.159,1.451,1.451l1.248.535a2.436,2.436,0,0,1,1.808,2.343c0,1.388-1.146,2.5-2.979,2.5A4.04,4.04,0,0,1,5530,599.492Z" transform="translate(-1508.958 -916.966)"/>
    <g id="AFEJET_100X100-2" data-name="AFEJET_100X100" transform="translate(314)">
      <g id="Group_514" data-name="Group 514" transform="translate(3681.16 -400.355)">
        <g id="Group_513" data-name="Group 513">
          <path id="Path_245" data-name="Path 245" class="cls-1" d="M5376.7,101.9a49.975,49.975,0,0,1-50-50,50.017,50.017,0,1,1,50,50Zm0-96.842a46.837,46.837,0,0,0-33.119,79.961,46.837,46.837,0,1,0,66.237-66.237A46.487,46.487,0,0,0,5376.7,5.058Z" transform="translate(-5326.701 -1.9)"/>
        </g>
      </g>
      <g id="Group_516" data-name="Group 516" transform="translate(3686.949 -331.408)">
        <g id="Group_515" data-name="Group 515">
          <path id="Path_246" data-name="Path 246" class="cls-1" d="M5370.7,525.9h88.421s-9.474,28.421-44.21,29.474C5414.911,555.374,5383.332,555.374,5370.7,525.9Z" transform="translate(-5370.7 -525.9)"/>
        </g>
      </g>
      <g id="Group_519" data-name="Group 519" transform="translate(3721.028 -371.487)">
        <g id="Group_518" data-name="Group 518">
          <path id="Path_247" data-name="Path 247" class="cls-1" d="M5640.647,243.195a10.947,10.947,0,1,1,10.948-10.947A10.956,10.956,0,0,1,5640.647,243.195Zm0-19.961a9.013,9.013,0,1,0,9.014,9.013A9.018,9.018,0,0,0,5640.647,223.234Z" transform="translate(-5629.7 -221.3)"/>
        </g>
      </g>
      <g id="Group_521" data-name="Group 521" transform="translate(3725.673 -366.816)">
        <g id="Group_520" data-name="Group 520">
          <path id="Path_248" data-name="Path 248" class="cls-1" d="M5671.382,256.8a6.382,6.382,0,1,0,6.382,6.382A6.379,6.379,0,0,0,5671.382,256.8Zm.7,3.974a.619.619,0,0,1-1.237,0v-1.855a.619.619,0,0,1,1.237,0Z" transform="translate(-5665 -256.8)"/>
        </g>
      </g>
      <g id="Group_523" data-name="Group 523" transform="translate(3731.594 -370.526)">
        <g id="Group_522" data-name="Group 522">
          <rect id="Rectangle_130" data-name="Rectangle 130" class="cls-1" width="0.776" height="3.934"/>
        </g>
      </g>
      <g id="Group_525" data-name="Group 525" transform="translate(3726.616 -369.411)">
        <g id="Group_524" data-name="Group 524" transform="translate(0 0)">
          <rect id="Rectangle_131" data-name="Rectangle 131" class="cls-1" width="0.776" height="3.934" transform="matrix(0.866, -0.5, 0.5, 0.866, 0, 0.388)"/>
        </g>
      </g>
      <g id="Group_527" data-name="Group 527" transform="translate(3723.115 -365.864)">
        <g id="Group_526" data-name="Group 526" transform="translate(0 0)">
          <rect id="Rectangle_132" data-name="Rectangle 132" class="cls-1" width="0.776" height="3.934" transform="matrix(0.5, -0.866, 0.866, 0.5, 0, 0.672)"/>
        </g>
      </g>
      <g id="Group_529" data-name="Group 529" transform="translate(3722.002 -360.934)">
        <g id="Group_528" data-name="Group 528">
          <rect id="Rectangle_133" data-name="Rectangle 133" class="cls-1" width="3.934" height="0.776"/>
        </g>
      </g>
      <g id="Group_531" data-name="Group 531" transform="translate(3723.155 -357.847)">
        <g id="Group_530" data-name="Group 530" transform="translate(0 0)">
          <rect id="Rectangle_134" data-name="Rectangle 134" class="cls-1" width="3.934" height="0.776" transform="translate(0 1.967) rotate(-29.993)"/>
        </g>
      </g>
      <g id="Group_533" data-name="Group 533" transform="translate(3726.621 -355.49)">
        <g id="Group_532" data-name="Group 532" transform="translate(0 0)">
          <rect id="Rectangle_135" data-name="Rectangle 135" class="cls-1" width="3.934" height="0.776" transform="translate(0 3.407) rotate(-60.012)"/>
        </g>
      </g>
      <g id="Group_535" data-name="Group 535" transform="translate(3731.594 -354.5)">
        <g id="Group_534" data-name="Group 534">
          <rect id="Rectangle_136" data-name="Rectangle 136" class="cls-1" width="0.776" height="3.934"/>
        </g>
      </g>
      <g id="Group_537" data-name="Group 537" transform="translate(3734.705 -355.528)">
        <g id="Group_536" data-name="Group 536" transform="translate(0 0)">
          <rect id="Rectangle_137" data-name="Rectangle 137" class="cls-1" width="0.776" height="3.934" transform="translate(0 0.388) rotate(-29.998)"/>
        </g>
      </g>
      <g id="Group_539" data-name="Group 539" transform="translate(3737.048 -357.865)">
        <g id="Group_538" data-name="Group 538" transform="translate(0 0)">
          <rect id="Rectangle_138" data-name="Rectangle 138" class="cls-1" width="0.776" height="3.934" transform="matrix(0.5, -0.866, 0.866, 0.5, 0, 0.672)"/>
        </g>
      </g>
      <g id="Group_541" data-name="Group 541" transform="translate(3738.028 -360.934)">
        <g id="Group_540" data-name="Group 540">
          <rect id="Rectangle_139" data-name="Rectangle 139" class="cls-1" width="3.934" height="0.776"/>
        </g>
      </g>
      <g id="Group_543" data-name="Group 543" transform="translate(3737.005 -365.899)">
        <g id="Group_542" data-name="Group 542" transform="translate(0 0)">
          <rect id="Rectangle_140" data-name="Rectangle 140" class="cls-1" width="3.934" height="0.776" transform="translate(0 1.966) rotate(-29.98)"/>
        </g>
      </g>
      <g id="Group_545" data-name="Group 545" transform="translate(3734.652 -369.368)">
        <g id="Group_544" data-name="Group 544">
          <rect id="Rectangle_141" data-name="Rectangle 141" class="cls-1" width="3.934" height="0.776" transform="matrix(0.5, -0.866, 0.866, 0.5, 0, 3.407)"/>
        </g>
      </g>
      <g id="Group_547" data-name="Group 547" transform="translate(3745.91 -364.868)">
        <g id="Group_546" data-name="Group 546">
          <path id="Path_249" data-name="Path 249" class="cls-1" d="M5821.616,280.455a1.41,1.41,0,0,1-1.408,1.408h0a1.41,1.41,0,0,1-1.408-1.408v-7.447a1.41,1.41,0,0,1,1.408-1.408h0a1.41,1.41,0,0,1,1.408,1.408Z" transform="translate(-5818.8 -271.6)"/>
        </g>
      </g>
      <g id="Group_556" data-name="Group 556" transform="translate(3710.805 -382.237)">
        <g id="Group_553" data-name="Group 553">
          <g id="Group_552" data-name="Group 552">
            <path id="Path_252" data-name="Path 252" class="cls-1" d="M5588.565,139.6h-29.276A7.3,7.3,0,0,0,5552,146.89v1.645h3.869V146.89a3.431,3.431,0,0,1,3.42-3.421h29.276a3.431,3.431,0,0,1,3.421,3.421v29.276a3.431,3.431,0,0,1-3.421,3.421h-29.276a3.431,3.431,0,0,1-3.42-3.421V175.6H5552v.566a7.3,7.3,0,0,0,7.289,7.29h29.276a7.3,7.3,0,0,0,7.29-7.29V146.89A7.289,7.289,0,0,0,5588.565,139.6Z" transform="translate(-5552 -139.6)"/>
          </g>
        </g>
        <g id="Group_555" data-name="Group 555" transform="translate(0 17.75)">
          <g id="Group_554" data-name="Group 554">
            <rect id="Rectangle_142" data-name="Rectangle 142" class="cls-1" width="3.868" height="9.461"/>
          </g>
        </g>
      </g>
      <path id="Path_254" data-name="Path 254" class="cls-2" d="M5584.853,593.1h1.3l3.066,9.053H5588l-1.579-5.053c-.329-1.013-.619-2-.909-3.053h-.052c-.276,1.053-.566,2.04-.895,3.053l-1.592,5.053H5581.8Zm-1.447,5.382h4.171v.921h-4.171Z" transform="translate(-1867.075 -915.666)"/>
      <path id="Path_255" data-name="Path 255" class="cls-2" d="M5647.5,593.1h5.224v.974h-4.066v3.053h3.447v.974h-3.447v4.053H5647.5Z" transform="translate(-1924.13 -915.666)"/>
      <path id="Path_256" data-name="Path 256" class="cls-2" d="M5699.213,593.1h5.224v.974h-4.08v2.842h3.435v.974h-3.435v3.289h4.2v.974H5699.2V593.1Z" transform="translate(-1969.028 -915.666)"/>
      <path id="Path_257" data-name="Path 257" class="cls-2" d="M5748.877,593.658c0,2.316-1.474,2.921-2.737,2.921-.948,0-2.539-.368-2.539-1.579a.853.853,0,0,1,.776-.842c.553,0,1.04.513,1.658.513.776,0,.776-.724.776-1.158v-5.934a1.04,1.04,0,1,1,2.079,0v6.079Z" transform="translate(-2007.586 -909.934)"/>
      <path id="Path_258" data-name="Path 258" class="cls-2" d="M5792.5,588.5a1.05,1.05,0,0,1,1.08-1.2H5797a.948.948,0,1,1,0,1.895h-2.421v2.013h2.264a.949.949,0,1,1,0,1.895h-2.264v2.092h2.553a.948.948,0,1,1,0,1.895h-3.552a1.009,1.009,0,0,1-1.066-1.039V588.5Z" transform="translate(-2050.051 -910.629)"/>
      <path id="Path_259" data-name="Path 259" class="cls-2" d="M5837.534,589.195h-1.5a.891.891,0,0,1-.934-.947.915.915,0,0,1,.934-.947h5.079a.923.923,0,0,1,.935.947.885.885,0,0,1-.935.947h-1.5v6.921a1.04,1.04,0,1,1-2.079,0Z" transform="translate(-2087.046 -910.629)"/>
    </g>
  </g>
</svg>
