<svg xmlns="http://www.w3.org/2000/svg" viewBox="0 0 100 100">
  <defs>
    <style>
      .cls-1, .cls-2 {
        fill: #1b4298;
      }

      .cls-2 {
        fill-rule: evenodd;
      }

      .cls-3 {
        fill: #fff;
      }
    </style>
  </defs>
  <g id="AVIJET_100X100" transform="translate(-3115.277 400.445)">
    <g id="Group_428" data-name="Group 428" transform="translate(3115.278 -400.445)">
      <g id="Group_425" data-name="Group 425">
        <g id="Group_424" data-name="Group 424">
          <path id="Path_188" data-name="Path 188" class="cls-1" d="M931.9,101.2a49.975,49.975,0,0,1-50-50,49.991,49.991,0,1,1,69.461,46.066A49.556,49.556,0,0,1,931.9,101.2Zm0-96.842a46.837,46.837,0,0,0-33.118,79.961,46.837,46.837,0,1,0,66.237-66.237A46.531,46.531,0,0,0,931.9,4.358Z" transform="translate(-881.9 -1.2)"/>
        </g>
      </g>
      <g id="Group_427" data-name="Group 427" transform="translate(5.789 68.947)">
        <g id="Group_426" data-name="Group 426">
          <path id="Path_189" data-name="Path 189" class="cls-1" d="M925.9,525.2h88.421s-9.474,28.421-44.211,29.474C970.111,554.674,938.532,554.674,925.9,525.2Z" transform="translate(-925.9 -525.2)"/>
        </g>
      </g>
    </g>
    <g id="Group_439" data-name="Group 439" transform="translate(3126.716 -373.632)">
      <g id="Group_430" data-name="Group 430" transform="translate(11.953)">
        <g id="Group_429" data-name="Group 429">
          <path id="Path_190" data-name="Path 190" class="cls-1" d="M1065.547,215.862c2.263-.632,3.434-3.553,2.605-6.526s-3.342-4.868-5.605-4.237-3.434,3.553-2.605,6.526S1063.271,216.493,1065.547,215.862Z" transform="translate(-1059.676 -204.977)"/>
        </g>
      </g>
      <g id="Group_432" data-name="Group 432" transform="translate(2.229 3.755)">
        <g id="Group_431" data-name="Group 431">
          <path id="Path_191" data-name="Path 191" class="cls-1" d="M992.736,243.923c2.118-1.026,2.763-4.105,1.421-6.882s-4.145-4.211-6.263-3.2-2.763,4.105-1.421,6.882S990.6,244.937,992.736,243.923Z" transform="translate(-985.772 -233.518)"/>
        </g>
      </g>
      <g id="Group_434" data-name="Group 434" transform="translate(21.302 6.423)">
        <g id="Group_433" data-name="Group 433">
          <path id="Path_192" data-name="Path 192" class="cls-1" d="M1130.958,259.6c.724,2.592,2.921,4.25,4.895,3.7s3-3.105,2.263-5.7-2.921-4.25-4.895-3.7S1130.234,257.017,1130.958,259.6Z" transform="translate(-1130.724 -253.792)"/>
        </g>
      </g>
      <g id="Group_436" data-name="Group 436" transform="translate(0 14.523)">
        <g id="Group_435" data-name="Group 435">
          <path id="Path_193" data-name="Path 193" class="cls-1" d="M976.143,318.424c-1.171-2.421-3.605-3.671-5.46-2.789s-2.408,3.579-1.237,6,3.605,3.671,5.461,2.776S977.314,320.845,976.143,318.424Z" transform="translate(-968.831 -315.352)"/>
        </g>
      </g>
      <g id="Group_438" data-name="Group 438" transform="translate(8.071 15.666)">
        <g id="Group_437" data-name="Group 437">
          <path id="Path_194" data-name="Path 194" class="cls-1" d="M1050.767,331.1c-1.316-4.553-3.513-5.592-6.566-4.671a.857.857,0,0,1-.8-.184c-1.04-.947-4.276-3.013-6.934-1.868-1.5.645-2.789,1.934-3.5,5.961a.822.822,0,0,1-.487.592c-1,.408-3.355,1.868-1.776,6.145,0,0,1.3,5.066,5.171,3.776s3.631-4.434,11.8-4.539C1047.662,336.326,1052.149,335.879,1050.767,331.1Z" transform="translate(-1030.171 -324.042)"/>
        </g>
      </g>
    </g>
    <g id="Group_448" data-name="Group 448" transform="translate(3152.721 -393.182)">
      <g id="Group_442" data-name="Group 442">
        <g id="Group_441" data-name="Group 441">
          <g id="Group_440" data-name="Group 440">
            <path id="Path_195" data-name="Path 195" class="cls-1" d="M1166.5,61.661a23,23,0,0,0,2,4.513,35.2,35.2,0,0,0,7.447,9.211,38.014,38.014,0,0,0,7.368,5.118,1.751,1.751,0,0,0,1.75-.184c.434-.263,1.105-.908.947-1.487a105.963,105.963,0,0,1-3.408-16.658c-.105-.921-.171-1.855-.2-2.789a9.92,9.92,0,0,1,.118-2.053c.092-.579-.329-.921-.882-.934a2.365,2.365,0,0,0-1.776.908l-.237.276a2.024,2.024,0,0,0-.158.171c-.158.184.289-.289.092-.092l-.408.408a13.031,13.031,0,0,1-1.118.961c-.092.079-.184.145-.29.224.368-.276-.026.013-.105.066-.25.171-.513.342-.776.5-.145.079-.276.158-.421.237-.342.2.224-.092-.119.066-.3.145-.618.276-.934.395-.053.013-.605.2-.316.118-.145.039-.289.079-.447.118a9.739,9.739,0,0,1-1.079.2c.171-.013-.237.013-.263.013a5.49,5.49,0,0,1-.658,0,6.785,6.785,0,0,1-1.026-.105,9.025,9.025,0,0,1-2.408-.842,1.92,1.92,0,0,0-2.105.447c-.368.329-1.013,1.329-.3,1.7a10.458,10.458,0,0,0,5.618,1.276,12.972,12.972,0,0,0,5.2-1.618,15.626,15.626,0,0,0,4.618-3.829c-.882-.013-1.776-.026-2.658-.026-.513,3.289.158,6.842.737,10.079.592,3.355,1.355,6.671,2.184,9.974.171.684.355,1.368.54,2.053.895-.553,1.8-1.105,2.7-1.658a34.64,34.64,0,0,1-15.75-16.632c-.092-.2-.171-.408-.25-.618-.04-.092-.066-.184-.105-.289-.092-.25.026.079.013.026-.039-.132-.092-.263-.132-.395-.21-.737-1.04-.724-1.645-.487C1167.318,60.187,1166.292,60.937,1166.5,61.661Z" transform="translate(-1166.473 -56.398)"/>
          </g>
        </g>
      </g>
      <g id="Group_445" data-name="Group 445" transform="translate(12.879 0.506)">
        <g id="Group_444" data-name="Group 444">
          <g id="Group_443" data-name="Group 443">
            <path id="Path_196" data-name="Path 196" class="cls-1" d="M1264.371,61.264c1.369,5.671,2.671,11.368,3.645,17.118a33.269,33.269,0,0,1,.566,4.566c.013.421,1.092.355,1.29.342a3.288,3.288,0,0,0,1.776-.618,33.633,33.633,0,0,0,2.869-2.776,50.088,50.088,0,0,0,6.013-7.8,45.813,45.813,0,0,0,3.316-6.316c.3-.7-1.5-.487-1.7-.447a2.638,2.638,0,0,1-.316.053,3.313,3.313,0,0,1-.355.053c-.066.013-.145.013-.211.026.026,0,.434-.053.092-.013-.447.053-.882.105-1.329.145-.237.013-.474.039-.724.053-.132.013-.5.013-.158.013-.158,0-.3.013-.461.013a18.733,18.733,0,0,1-1.921-.053c-.355-.026-.342-.026-.763-.079q-.533-.059-1.066-.158a13.1,13.1,0,0,1-3.8-1.276,8.816,8.816,0,0,1-3.553-3.461c-.487-.895-3.5.092-3.211.618,3.119,5.513,10.329,6.211,16.013,5.526.658-.079,1.329-.158,1.987-.3-.566-.145-1.132-.3-1.7-.447A47.267,47.267,0,0,1,1269.739,81.7c-.329.3-.645.605-.987.895l3.066-.276a54.946,54.946,0,0,0-1.474-9.355c-.684-3.395-1.447-6.789-2.237-10.171-.171-.724-.342-1.434-.513-2.158C1267.4,59.79,1264.174,60.461,1264.371,61.264Z" transform="translate(-1264.351 -60.244)"/>
          </g>
        </g>
      </g>
      <g id="Group_447" data-name="Group 447" transform="translate(0.507 0.479)">
        <g id="Group_446" data-name="Group 446">
          <path id="Path_197" data-name="Path 197" class="cls-1" d="M1187.255,84.2a1.972,1.972,0,0,1-1.355-.566,86.413,86.413,0,0,0-7.171-5.724,27.653,27.653,0,0,1-5.526-5.5c-2.131-2.868-3.118-5.618-2.829-7.961h0c.145-1.066.487-1.105.605-1.118.421-.039.592.526.671.789v.026a16.2,16.2,0,0,0,4.618,7.566c.75.645,1.46,1.276,2.158,1.895a49.027,49.027,0,0,0,6.763,5.382c-.566-2.618-2.408-11.618-1.987-17.355V61.61c.053-.342.263-1.447.961-1.566.671-.105,1.2.789,1.539,1.461,1.316,2.632,2.974,14.763,3.342,17.553a41.152,41.152,0,0,0,9.724-11.237l.013-.026,1.131-1.553c.592-.8.855-.816,1.066-.711.355.184.211.671.105,1a30.954,30.954,0,0,1-1.658,4.171,30.407,30.407,0,0,1-4.658,7.289,8.6,8.6,0,0,1-1.7,1.408,9.375,9.375,0,0,0-1.474,1.184c-.211.224-.474.539-.75.882-.947,1.171-2.132,2.632-3.461,2.737Zm-16.224-19.671c-.342,2.75,1.276,5.592,2.7,7.487a27.392,27.392,0,0,0,5.395,5.368,90.522,90.522,0,0,1,7.224,5.763,1.35,1.35,0,0,0,1.013.395c1.039-.079,2.171-1.474,3-2.5.276-.342.553-.671.79-.921a9.409,9.409,0,0,1,1.566-1.263,7.7,7.7,0,0,0,1.579-1.3,29.747,29.747,0,0,0,4.553-7.132,32.854,32.854,0,0,0,1.46-3.592l-.974,1.342c-2.539,4.184-5.118,6.882-6.5,8.961-2.105,3.158-3.789,2.75-3.842,2.789l-.316.211a.1.1,0,0,1-.145-.066l-.053-.382c-.013-.145-1.947-15.066-3.355-17.895-.553-1.092-.842-1.105-.842-1.105-.119.013-.342.487-.421,1-.474,6.645,2.118,17.776,2.145,17.882l.171.724-.645-.355a44.534,44.534,0,0,1-7.526-5.829c-.684-.605-1.395-1.237-2.145-1.895a16.386,16.386,0,0,1-4.8-7.816A.389.389,0,0,0,1171.032,64.531Z" transform="translate(-1170.324 -60.035)"/>
        </g>
      </g>
    </g>
    <g id="Group_459" data-name="Group 459" transform="translate(3162.743 -367.528)">
      <g id="Group_450" data-name="Group 450" transform="translate(2.403 3.722)">
        <g id="Group_449" data-name="Group 449">
          <path id="Path_198" data-name="Path 198" class="cls-1" d="M1272.045,291.947a34.9,34.9,0,0,1-.395-5.408,17.787,17.787,0,0,0-.342-4.158s.25-2.513-.29-2.684-1.474,0-1.421,1.974a34.116,34.116,0,0,1,0,5.474,11.85,11.85,0,0,0,.3,4.434s.447,4.132-1.026,3.25-2.895-3.25-3.934-3.8a8.925,8.925,0,0,1-1.671-1.25c-.487-.421-.947-1.224-1.645-1.2-.763.026-.947.645-.434,1.237a47.189,47.189,0,0,1,3.776,4.158c.934,1.421,2.461,3.171,3.487,4.645s2.855,2.921,4.368.329a10.456,10.456,0,0,1,3.145-3.737,29.2,29.2,0,0,0,2.461-2.711l1.816-1.855s.2-2.25-1.329-1.211-3.526,3.816-5.395,5.237S1272.045,291.947,1272.045,291.947Z" transform="translate(-1260.901 -279.652)"/>
        </g>
      </g>
      <g id="Group_452" data-name="Group 452" transform="translate(21.755 11.601)">
        <g id="Group_451" data-name="Group 451">
          <path id="Path_199" data-name="Path 199" class="cls-1" d="M1408.766,341.763a.1.1,0,0,0,.066-.013c.079-.039.224-.355.3-.447.263-.329.487-.711.737-1.053a.987.987,0,0,0,.171-.237s.224-.605-.132-.461a5.885,5.885,0,0,0-1.053.579,8.292,8.292,0,0,0-.75.408c-.3.25-.026.461.145.658C1408.345,341.3,1408.582,341.723,1408.766,341.763Z" transform="translate(-1407.973 -339.53)"/>
        </g>
      </g>
      <g id="Group_454" data-name="Group 454" transform="translate(0 10.798)">
        <g id="Group_453" data-name="Group 453">
          <path id="Path_200" data-name="Path 200" class="cls-1" d="M1244.3,335.346a.167.167,0,0,1-.079-.013c-.092-.039-.289-.316-.368-.395-.316-.3-.592-.632-.895-.934a1.575,1.575,0,0,1-.21-.211s-.3-.5.079-.329a11.12,11.12,0,0,1,1.171.618c.276.158.566.263.829.447.355.237.092.355-.066.474C1244.683,335.07,1244.486,335.346,1244.3,335.346Z" transform="translate(-1242.635 -333.429)"/>
        </g>
      </g>
      <g id="Group_456" data-name="Group 456" transform="translate(11.301)">
        <g id="Group_455" data-name="Group 455">
          <path id="Path_201" data-name="Path 201" class="cls-1" d="M1329.559,254.265c0-.105-.026-.2-.026-.289-.013-.2-.039-.395-.053-.592a12.735,12.735,0,0,0-.2-1.395,1.421,1.421,0,0,0-.145-.474c-.224-.395-.342.118-.342.118l-.25,2.632s-.053.276,0,.316.2.026.25.026c.145,0,.276,0,.421-.013.092,0,.184.026.263-.053A.366.366,0,0,0,1329.559,254.265Z" transform="translate(-1328.522 -251.366)"/>
        </g>
      </g>
      <g id="Group_458" data-name="Group 458" transform="translate(11.204 24.855)">
        <g id="Group_457" data-name="Group 457">
          <path id="Path_202" data-name="Path 202" class="cls-1" d="M1327.784,441.069a5.051,5.051,0,0,0,.066.658q.059.691.118,1.382c.092,1.079.224,2.171.421,3.224a4.175,4.175,0,0,0,.3,1.092c.5.908.75-.289.75-.289l.54-6.066s.118-.618,0-.737-.421-.053-.553-.053c-.3,0-.618.013-.921.026-.2.013-.408-.066-.566.118A.932.932,0,0,0,1327.784,441.069Z" transform="translate(-1327.782 -440.261)"/>
        </g>
      </g>
    </g>
    <g id="Group_470" data-name="Group 470" transform="translate(3189.057 -371.384)">
      <g id="Group_461" data-name="Group 461" transform="translate(2.926 2.484)">
        <g id="Group_460" data-name="Group 460">
          <path id="Path_203" data-name="Path 203" class="cls-2" d="M1465.72,241.14a2.166,2.166,0,0,0-.776,1.461,7.121,7.121,0,0,0,.171,2.934c.421,1.461,1.947,3.013,3.237,2.829,1.842-.25,1.605-3.145,1.092-4.671C1468.917,242.088,1466.917,240.325,1465.72,241.14Z" transform="translate(-1464.859 -240.934)"/>
        </g>
      </g>
      <g id="Group_463" data-name="Group 463" transform="translate(8.342)">
        <g id="Group_462" data-name="Group 462">
          <path id="Path_204" data-name="Path 204" class="cls-2" d="M1506.794,222.248a2.1,2.1,0,0,0-.711,1.447,7.616,7.616,0,0,0,.211,2.934c.421,1.474,1.908,3.066,3.118,2.921,1.737-.2,1.447-3.105.934-4.645C1509.82,223.288,1507.9,221.459,1506.794,222.248Z" transform="translate(-1506.02 -222.059)"/>
        </g>
      </g>
      <g id="Group_465" data-name="Group 465" transform="translate(0 9.466)">
        <g id="Group_464" data-name="Group 464">
          <path id="Path_205" data-name="Path 205" class="cls-2" d="M1443.345,294.261a2.147,2.147,0,0,0-.671,1.408,5.9,5.9,0,0,0,.276,2.632c.447,1.276,1.961,2.513,3.171,2.224,1.724-.421,1.382-3.013.842-4.342C1446.385,294.787,1444.437,293.405,1443.345,294.261Z" transform="translate(-1442.625 -293.997)"/>
        </g>
      </g>
      <g id="Group_467" data-name="Group 467" transform="translate(14.402 3.203)">
        <g id="Group_466" data-name="Group 466">
          <path id="Path_206" data-name="Path 206" class="cls-2" d="M1553.506,246.455a1.806,1.806,0,0,0-1,1.079,5.838,5.838,0,0,0-.408,2.605c.105,1.382,1.224,3.145,2.447,3.316,1.75.25,2.079-2.342,1.908-3.8C1556.269,248.113,1554.756,246.047,1553.506,246.455Z" transform="translate(-1552.082 -246.403)"/>
        </g>
      </g>
      <g id="Group_469" data-name="Group 469" transform="translate(4.639 10.461)">
        <g id="Group_468" data-name="Group 468">
          <path id="Path_207" data-name="Path 207" class="cls-2" d="M1489.319,303.986a13.565,13.565,0,0,1,2.408,2.355,3.245,3.245,0,0,1-.526,3.974c-1.145,1.145-2.434.671-3.75.961a5.67,5.67,0,0,0-2.987,1.553c-1.566,1.658-3.25,2.474-5.211,1.237a2.914,2.914,0,0,1-1.145-1.461,7.072,7.072,0,0,1,.013-3.592C1480.135,300.539,1484.74,299.934,1489.319,303.986Z" transform="translate(-1477.883 -301.56)"/>
        </g>
      </g>
    </g>
    <g id="Group_471" data-name="Group 471" transform="translate(3146.936 -323.431)">
      <path id="Path_208" data-name="Path 208" class="cls-3" d="M1125.553,593.1h1.3l3.066,9.053H1128.7l-1.579-5.053c-.329-1.013-.618-2-.908-3.053h-.053c-.276,1.053-.566,2.039-.895,3.053l-1.592,5.053H1122.5Zm-1.447,5.382h4.171v.921h-4.171Z" transform="translate(-1122.5 -592.232)"/>
      <path id="Path_209" data-name="Path 209" class="cls-3" d="M1177.7,593.1h1.224l1.461,4.895c.316,1.066.54,1.934.868,2.987h.053c.329-1.066.553-1.921.868-2.987l1.447-4.895h1.171l-2.869,9.053h-1.329Z" transform="translate(-1170.437 -592.232)"/>
      <path id="Path_210" data-name="Path 210" class="cls-3" d="M1240.6,593.1h1.158v9.053H1240.6Z" transform="translate(-1225.06 -592.232)"/>
      <path id="Path_211" data-name="Path 211" class="cls-3" d="M1262.576,593.658c0,2.316-1.474,2.921-2.737,2.921-.947,0-2.539-.368-2.539-1.579a.853.853,0,0,1,.776-.842c.553,0,1.039.513,1.658.513.776,0,.776-.724.776-1.158v-5.934a1.04,1.04,0,1,1,2.079,0v6.079Z" transform="translate(-1239.563 -586.5)"/>
      <path id="Path_212" data-name="Path 212" class="cls-3" d="M1306.2,588.5a1.05,1.05,0,0,1,1.079-1.2h3.421a.948.948,0,1,1,0,1.895h-2.434v2.013h2.263a.949.949,0,1,1,0,1.895h-2.263v2.092h2.553a.948.948,0,1,1,0,1.895h-3.553a1.009,1.009,0,0,1-1.066-1.039Z" transform="translate(-1282.029 -587.195)"/>
      <path id="Path_213" data-name="Path 213" class="cls-3" d="M1351.234,589.195h-1.5a.891.891,0,0,1-.934-.947.915.915,0,0,1,.934-.947h5.079a.923.923,0,0,1,.934.947.884.884,0,0,1-.934.947H1353.3v6.921a1.04,1.04,0,1,1-2.079,0v-6.921Z" transform="translate(-1319.024 -587.195)"/>
    </g>
  </g>
</svg>
