<svg xmlns="http://www.w3.org/2000/svg" viewBox="0 0 100 100">
  <defs>
    <style>
      .cls-1 {
        fill: #1b4298;
      }

      .cls-2 {
        fill: #fff;
      }
    </style>
  </defs>
  <g id="DG_100X100" transform="translate(-3572.689 400.597)">
    <g id="Group_581" data-name="Group 581" transform="translate(3572.689 -400.597)">
      <g id="Group_578" data-name="Group 578">
        <g id="Group_577" data-name="Group 577">
          <path id="Path_269" data-name="Path 269" class="cls-1" d="M4524.7,100a49.976,49.976,0,0,1-50-50,49.991,49.991,0,1,1,69.46,46.066A49.508,49.508,0,0,1,4524.7,100Zm0-96.842a46.836,46.836,0,0,0-33.118,79.96,46.836,46.836,0,1,0,66.236-66.237A46.484,46.484,0,0,0,4524.7,3.158Z" transform="translate(-4474.701)"/>
        </g>
      </g>
      <g id="Group_580" data-name="Group 580" transform="translate(5.789 68.947)">
        <g id="Group_579" data-name="Group 579">
          <path id="Path_270" data-name="Path 270" class="cls-1" d="M4518.7,524h88.421s-9.474,28.421-44.211,29.474C4562.911,553.474,4531.332,553.474,4518.7,524Z" transform="translate(-4518.7 -524)"/>
        </g>
      </g>
    </g>
    <g id="Group_583" data-name="Group 583" transform="translate(3587.413 -386.584)">
      <g id="Group_582" data-name="Group 582">
        <path id="Path_271" data-name="Path 271" class="cls-1" d="M4617.786,126.158a8.932,8.932,0,0,0-1.342-3.671,8.471,8.471,0,0,0-3.368-2.961,9.023,9.023,0,0,0-2.368-.737,8.168,8.168,0,0,0-.816-.079,7.03,7.03,0,0,0,.645-1.395,8.655,8.655,0,0,0-1.355-8.026,9.277,9.277,0,0,0-2.395-2.079,8.226,8.226,0,0,0-1.355-.632v.118a6.226,6.226,0,0,1,1.224.711,6.776,6.776,0,0,1,1.974,2.25,6.833,6.833,0,0,1,.842,3.263,6.781,6.781,0,0,1-.934,3.5,7.774,7.774,0,0,1-.724,1,7.448,7.448,0,0,0-10.921-.329,5.873,5.873,0,0,1-.447-.671,7.15,7.15,0,0,1-.7-1.658,5.806,5.806,0,0,1-.184-.947,6.1,6.1,0,0,1-.053-.868,6.929,6.929,0,0,1,.855-3.3,7.058,7.058,0,0,1,1.974-2.25,6.368,6.368,0,0,1,1.407-.789V106.5a8.171,8.171,0,0,0-1.539.7,8.429,8.429,0,0,0-4.027,5.592,8.537,8.537,0,0,0-.145,1.092,7.04,7.04,0,0,0-.013,1.066,8.318,8.318,0,0,0,.461,2.329,8.229,8.229,0,0,0,.644,1.382,8.184,8.184,0,0,0-1.394.092,9.224,9.224,0,0,0-2.369.737,8.478,8.478,0,0,0-3.368,2.961,7.53,7.53,0,0,0-.907,1.855,8.445,8.445,0,0,0-.435,1.816,8.969,8.969,0,0,0,.224,3.158,7.662,7.662,0,0,0,.46,1.316c.026-.026.066-.053.092-.079a5.976,5.976,0,0,1-.329-1.289,6.92,6.92,0,0,1,.2-2.987,7.869,7.869,0,0,1,.657-1.539,7.175,7.175,0,0,1,1.053-1.368,6.887,6.887,0,0,1,5.8-1.987,8.726,8.726,0,0,0-.079,1.013,7.5,7.5,0,0,0,6.04,7.342c-.026.118-.04.25-.079.368a7.584,7.584,0,0,1-.685,1.671,5.734,5.734,0,0,1-.539.8,8.39,8.39,0,0,1-.58.658,6.931,6.931,0,0,1-2.934,1.724,6.705,6.705,0,0,1-2.987.184,6.191,6.191,0,0,1-1.4-.368c-.026.026-.039.053-.065.079a7.316,7.316,0,0,0,1.408.513,8.674,8.674,0,0,0,3.158.224,8.857,8.857,0,0,0,3.645-1.329,9.163,9.163,0,0,0,.882-.671,6.75,6.75,0,0,0,.763-.75,7.5,7.5,0,0,0,.842-1.118,8.567,8.567,0,0,0,.842,1.118,8.064,8.064,0,0,0,.763.75,9.221,9.221,0,0,0,.881.671,8.865,8.865,0,0,0,3.645,1.329,8.975,8.975,0,0,0,3.158-.224,7.911,7.911,0,0,0,2.21-.934,5.209,5.209,0,0,0,.487-.316c0-.013-.013-.013-.013-.026a5.482,5.482,0,0,1-.5.3,6.651,6.651,0,0,1-2.236.75,6.874,6.874,0,0,1-5.921-1.908,8.268,8.268,0,0,1-.579-.658,5.354,5.354,0,0,1-.54-.8,7.329,7.329,0,0,1-.684-1.671,3.542,3.542,0,0,1-.079-.368,7.5,7.5,0,0,0,6.039-7.342,6.433,6.433,0,0,0-.079-1.013,6.886,6.886,0,0,1,5.8,1.987,6.751,6.751,0,0,1,1.053,1.368,8.2,8.2,0,0,1,.658,1.539,6.918,6.918,0,0,1,.2,2.987,6.189,6.189,0,0,1-.224.947.049.049,0,0,0,.04.013h.1a6.345,6.345,0,0,0,.3-.921A7.994,7.994,0,0,0,4617.786,126.158Zm-22.131-3.763a5.886,5.886,0,0,1,.066-.842.078.078,0,0,1,.052.013,7.851,7.851,0,0,1,1.684.7,8.7,8.7,0,0,1,.724.487,8.219,8.219,0,0,1,.737.632l.013.013.052.066.079.079.158.171a3.856,3.856,0,0,1,.289.355c.2.237.342.5.513.75a7.565,7.565,0,0,1,.7,1.684,7.4,7.4,0,0,1,.21,2.342A6.6,6.6,0,0,1,4595.655,122.395Zm6.565,1.513a.934.934,0,1,1,.935-.934A.938.938,0,0,1,4602.22,123.908Zm.264-3.961h-.211l-.224-.013c-.158,0-.3-.026-.447-.039a7.121,7.121,0,0,1-.895-.171,8.119,8.119,0,0,1-1.685-.7,7.33,7.33,0,0,1-1.513-1.184,6.533,6.533,0,0,1,9.671.289,7.108,7.108,0,0,1-1.2.895,7.585,7.585,0,0,1-1.685.7c-.3.066-.605.145-.855.171A8.709,8.709,0,0,1,4602.484,119.947Zm1.053,8.882a7.346,7.346,0,0,1,.209-2.342,7.906,7.906,0,0,1,.7-1.684,8.153,8.153,0,0,1,1.092-1.421l.013-.013.053-.053.105-.092.21-.2a2.659,2.659,0,0,1,.354-.289c.2-.158.461-.316.724-.487a8.262,8.262,0,0,1,1.684-.7.079.079,0,0,0,.053-.013,6.114,6.114,0,0,1,.066.842A6.63,6.63,0,0,1,4603.537,128.829Z" transform="translate(-4586.602 -106.5)"/>
      </g>
    </g>
    <g id="Group_596" data-name="Group 596" transform="translate(3625.294 -389.018)">
      <g id="Group_593" data-name="Group 593" transform="translate(2.415 4.125)">
        <g id="Group_590" data-name="Group 590">
          <g id="Group_585" data-name="Group 585">
            <g id="Group_584" data-name="Group 584">
              <path id="Path_272" data-name="Path 272" class="cls-1" d="M4901.65,126.028l-3.711-6.421a.384.384,0,0,0-.724,0L4892.939,127c-.2.342-.04.618.355.618h7.316A3.3,3.3,0,0,1,4901.65,126.028Z" transform="translate(-4892.854 -119.35)"/>
            </g>
          </g>
          <g id="Group_587" data-name="Group 587" transform="translate(12.677 0.013)">
            <g id="Group_586" data-name="Group 586">
              <path id="Path_273" data-name="Path 273" class="cls-1" d="M4997.911,127.1l-4.276-7.395a.383.383,0,0,0-.724,0l-3.711,6.421a2.97,2.97,0,0,1,1.014,1.605h7.315C4997.95,127.733,4998.121,127.443,4997.911,127.1Z" transform="translate(-4989.2 -119.45)"/>
            </g>
          </g>
          <g id="Group_589" data-name="Group 589" transform="translate(6.013 11.678)">
            <g id="Group_588" data-name="Group 588">
              <path id="Path_274" data-name="Path 274" class="cls-1" d="M4944.218,208.1a1.64,1.64,0,0,1-.276.132,1.887,1.887,0,0,1-1.316,0s-.1-.053-.277-.132l-3.71,6.421c-.2.342-.04.618.355.618h8.54c.4,0,.553-.276.355-.618Z" transform="translate(-4938.555 -208.1)"/>
            </g>
          </g>
        </g>
        <g id="Group_592" data-name="Group 592" transform="translate(8.388 6.678)">
          <g id="Group_591" data-name="Group 591">
            <circle id="Ellipse_24" data-name="Ellipse 24" class="cls-1" cx="2.355" cy="2.355" r="2.355"/>
          </g>
        </g>
      </g>
      <g id="Group_595" data-name="Group 595">
        <g id="Group_594" data-name="Group 594">
          <path id="Path_275" data-name="Path 275" class="cls-1" d="M4887.658,114.316a13.158,13.158,0,1,1,13.158-13.158A13.18,13.18,0,0,1,4887.658,114.316Zm0-25.263a12.105,12.105,0,1,0,12.1,12.105A12.124,12.124,0,0,0,4887.658,89.053Z" transform="translate(-4874.5 -88)"/>
        </g>
      </g>
    </g>
    <g id="Group_598" data-name="Group 598" transform="translate(3616.189 -364.913)">
      <g id="Group_597" data-name="Group 597">
        <path id="Path_276" data-name="Path 276" class="cls-1" d="M4820.906,302.095h-.224l-1.658-.026,1.369-.934a12.249,12.249,0,0,0,3.724-3.592,4.951,4.951,0,0,1-2.355.289l-1.092-.105.776-.776a5.667,5.667,0,0,0,1.8-3.632,10,10,0,0,1-.987.724,4.979,4.979,0,0,0-1.224,1.013l-1.079,1.434.145-1.789c.263-3.289-.29-5.684-1.645-7.158a10.769,10.769,0,0,1-.645,2.921,6.153,6.153,0,0,0-.3,4.132l.342,1.132-1.079-.513a6.749,6.749,0,0,1-2.487-1.75,2.206,2.206,0,0,0,.013.526,6.125,6.125,0,0,0,1.71,2.882l.75.8-1.092.079a8.4,8.4,0,0,1-2.5-.171.571.571,0,0,1-.066-.013,7.982,7.982,0,0,0,4.71,3.487l-.132,1.039c-.25-.013-6.2-.342-8.6-2.842-2.473-2.566-3.329-7.474-3.6-10.171l-.171-1.579,1.513,1.632a10.731,10.731,0,0,1,.829,1.026c.131.171.25.342.342.461a2.472,2.472,0,0,0,.947.737,2.753,2.753,0,0,0,.974.158c-.053-.105-.119-.224-.171-.342a10.006,10.006,0,0,1-.9-2.211,16.486,16.486,0,0,1-.276-3.289,16.317,16.317,0,0,0-.2-2.776l-.342-1.724,1.237,1.263a20.766,20.766,0,0,1,2.092,2.5,15.525,15.525,0,0,1,.21-2.895,9.349,9.349,0,0,0,.092-3.342l-.171-.671.7.026c2.2.066,2.632,1.974,2.973,3.487a10.194,10.194,0,0,0,.409,1.5,14.632,14.632,0,0,0,.8-5.171c.092-2.079.184-4.224.974-5.737l.487-.934.447.947a5.873,5.873,0,0,1,.369,1.382,5.513,5.513,0,0,0,.487,1.7c.013.026.092.132.145.224,2.881,4.263,2.79,6.987,2.75,7.895-.013.184-.026.368-.052.566.8-.632.986-2,1.158-3.947.026-.368.065-.75.1-1.118l.132-1.132.776.829c1.5,1.592,2.079,5.395,1.421,7.987a10.227,10.227,0,0,0,1.842-2.513l.671-1.132.289,1.289c.08.368.2.724.316,1.092a7.7,7.7,0,0,1,.5,2.658,7.42,7.42,0,0,1-1.408,4.092c.9-.289,1.4-.684,1.408-1.618h1.053c.052,4.263-.908,7.421-2.869,9.368A8.813,8.813,0,0,1,4820.906,302.095Zm5.369-6.947-.5,1.382a10.149,10.149,0,0,1-3.342,4.421,7.11,7.11,0,0,0,4.2-1.934c1.42-1.421,2.25-3.592,2.486-6.474a6.988,6.988,0,0,1-2.145.776l-.355.079-1.461.355.921-1.2a7.872,7.872,0,0,0,2.066-4.684,7.237,7.237,0,0,0-.447-2.316,5.413,5.413,0,0,1-3,2.592l-1.224.3.631-1.079c.935-1.592.855-4.829.027-6.868-.2,2.118-.54,4.342-2.776,4.763l-.79.145.185-.789a7,7,0,0,0,.224-1.342c.079-2.184-.776-4.618-2.566-7.263-.1-.145-.157-.237-.2-.3a5.12,5.12,0,0,1-.486-1.408,27.365,27.365,0,0,0-.3,3.579c-.1,2.447-.21,4.974-1.46,6.474l-.395.474-.409-.474a5.981,5.981,0,0,1-1.026-2.618c-.29-1.316-.54-2.224-1.316-2.539a13.259,13.259,0,0,1-.2,2.947c-.21,1.5-.421,3.053.184,4.2l1.026,1.934-1.79-1.263a5.555,5.555,0,0,1-1.447-1.368,8.707,8.707,0,0,0-.987-1.342c.026.434.026.882.039,1.316a14.885,14.885,0,0,0,.25,3.066,8.535,8.535,0,0,0,.8,1.974,7.235,7.235,0,0,1,.553,1.237l.224.75-.776-.079c-.171-.013-.368-.026-.579-.026a4.058,4.058,0,0,1-1.605-.25,3.618,3.618,0,0,1-1.316-1.039c-.1-.132-.237-.3-.369-.487-.013-.026-.039-.039-.052-.066.408,2.579,1.277,5.921,3.079,7.789a9.564,9.564,0,0,0,4.618,2.066,9.437,9.437,0,0,1-3.184-4.382h0l.986-.355h0c.2.526,1.158.8,2.237.868a5.944,5.944,0,0,1-1.237-2.539,8.239,8.239,0,0,1,.236-2.605l.5-2.5.526,2.5a3.227,3.227,0,0,0,1.71,2.184,7.952,7.952,0,0,1,.553-3.618,8.1,8.1,0,0,0,.553-3.7l-.131-1.132.947.632c2.066,1.395,3.093,3.934,3.026,7.553.158-.118.316-.224.474-.329.724-.487,1.355-.895,1.565-1.7l.75-2.737.289,2.816a7.009,7.009,0,0,1-1.276,5.224,5.207,5.207,0,0,0,1.881-.789Z" transform="translate(-4805.301 -271.2)"/>
      </g>
    </g>
    <g id="Group_599" data-name="Group 599" transform="translate(3614.965 -322.505)">
      <path id="Path_277" data-name="Path 277" class="cls-2" d="M4796,594.7h2.54c2.75,0,4.513,1.368,4.513,4.461s-1.763,4.539-4.4,4.539H4796Zm2.421,7.355c1.526,0,2.552-.75,2.552-2.895s-1.026-2.816-2.552-2.816h-.382v5.724h.382Z" transform="translate(-4796 -594.542)"/>
      <path id="Path_278" data-name="Path 278" class="cls-2" d="M4859.3,598.21a4.342,4.342,0,0,1,4.381-4.711,3.885,3.885,0,0,1,2.843,1.171l-1.066,1.3a2.331,2.331,0,0,0-1.7-.711c-1.381,0-2.368,1.092-2.368,2.895,0,1.842.842,2.921,2.526,2.921a1.614,1.614,0,0,0,.947-.263v-1.553h-1.487v-1.658h3.29v4.118a4.335,4.335,0,0,1-2.96,1.092C4861.234,602.816,4859.3,601.237,4859.3,598.21Z" transform="translate(-4850.971 -593.5)"/>
    </g>
  </g>
</svg>
