<svg xmlns="http://www.w3.org/2000/svg" viewBox="0 0 100 100">
  <defs>
    <style>
      .cls-1 {
        fill: #1b4298;
      }

      .cls-2 {
        fill: #fff;
      }
    </style>
  </defs>
  <g id="FRESHJET_100X100" transform="translate(-3346.3 400.483)">
    <g id="Group_490" data-name="Group 490" transform="translate(3346.3 -400.483)">
      <g id="Group_487" data-name="Group 487">
        <g id="Group_486" data-name="Group 486">
          <path id="Path_228" data-name="Path 228" class="cls-1" d="M2746.5,100.9a49.975,49.975,0,0,1-50-50,50.016,50.016,0,1,1,50,50Zm0-96.842a46.837,46.837,0,0,0-33.118,79.961,46.837,46.837,0,1,0,66.237-66.237A46.532,46.532,0,0,0,2746.5,4.058Z" transform="translate(-2696.5 -0.9)"/>
        </g>
      </g>
      <g id="Group_489" data-name="Group 489" transform="translate(5.789 68.947)">
        <g id="Group_488" data-name="Group 488">
          <path id="Path_229" data-name="Path 229" class="cls-1" d="M2740.5,524.9h88.421s-9.474,28.421-44.21,29.474C2784.711,554.374,2753.132,554.374,2740.5,524.9Z" transform="translate(-2740.5 -524.9)"/>
        </g>
      </g>
    </g>
    <g id="Group_496" data-name="Group 496" transform="translate(3372.406 -392.575)">
      <g id="Group_495" data-name="Group 495">
        <g id="Group_492" data-name="Group 492" transform="translate(0 7.237)">
          <g id="Group_491" data-name="Group 491">
            <path id="Path_230" data-name="Path 230" class="cls-1" d="M2908.676,139.224a13.661,13.661,0,0,1-9.737-3.776c-2.645-2.618-4.039-6.368-4.039-10.829a8.938,8.938,0,0,1,2.368-5.974,7.919,7.919,0,0,1,5.816-2.632,8.284,8.284,0,0,1,2.052.263v-.171l1.5.711c1.961.934,2.105.934,4.066,0l1.5-.724v.171a8.282,8.282,0,0,1,2.052-.263,7.876,7.876,0,0,1,5.816,2.632,8.937,8.937,0,0,1,2.369,5.974c0,4.474-1.395,8.224-4.04,10.842A13.529,13.529,0,0,1,2908.676,139.224Zm-5.579-21.118a6.493,6.493,0,0,0-6.105,6.513c0,3.895,1.184,7.118,3.421,9.342a11.574,11.574,0,0,0,8.263,3.171,11.411,11.411,0,0,0,8.263-3.158c2.237-2.211,3.421-5.447,3.421-9.368a6.484,6.484,0,0,0-6.105-6.513,6.174,6.174,0,0,0-2.645.605l-1.5.724v-.092a3.9,3.9,0,0,1-2.882,0v.079l-1.5-.711A6.3,6.3,0,0,0,2903.1,118.105Z" transform="translate(-2894.9 -116)"/>
          </g>
        </g>
        <g id="Group_494" data-name="Group 494" transform="translate(12.198)">
          <g id="Group_493" data-name="Group 493">
            <path id="Path_231" data-name="Path 231" class="cls-1" d="M2989.081,70.013a1.476,1.476,0,0,1-1.46-1.368c-.026-.434-.2-4.276,2.316-6.316A6.683,6.683,0,0,1,2994.278,61a10.561,10.561,0,0,1,2.382.263,1.46,1.46,0,0,1,1.079,1.75,9.789,9.789,0,0,1-3.092,4.921,10.218,10.218,0,0,1-5.487,2.079Zm.619-1.5Zm0,0Zm-.658-.592Zm5.224-4.842a4.762,4.762,0,0,0-3.026.855h0a5.457,5.457,0,0,0-1.539,3.908,7.922,7.922,0,0,0,3.618-1.539,7.606,7.606,0,0,0,2.171-3.145A10.22,10.22,0,0,0,2994.265,63.079Z" transform="translate(-2987.608 -61)"/>
          </g>
        </g>
      </g>
    </g>
    <g id="Group_501" data-name="Group 501" transform="translate(3395.787 -383.962)">
      <g id="Group_498" data-name="Group 498" transform="translate(0 17.834)">
        <g id="Group_497" data-name="Group 497">
          <path id="Path_232" data-name="Path 232" class="cls-1" d="M3078.575,273.618a3.487,3.487,0,0,1-2.79-1.408,3.418,3.418,0,0,1-.684-2.105,3.468,3.468,0,1,1,3.079-6.079l2.737-2.026,3.632,4.882-2.737,2.026a3.469,3.469,0,0,1-3.237,4.711Zm-2.513-8.645a1.855,1.855,0,0,0-1.079.355,1.8,1.8,0,0,0-.369,2.526,1.758,1.758,0,0,0,1.434.724l1.105.013-.3,1.066a1.8,1.8,0,0,0,2.8,1.947,1.791,1.791,0,0,0,.408-2.461l-.447-.658,2.605-1.934-1.632-2.2-2.605,1.934-.5-.618A1.819,1.819,0,0,0,3076.062,264.974Z" transform="translate(-3072.602 -262)"/>
        </g>
      </g>
      <g id="Group_500" data-name="Group 500" transform="translate(6.758)">
        <g id="Group_499" data-name="Group 499">
          <path id="Path_233" data-name="Path 233" class="cls-1" d="M3130.016,150.727a2.609,2.609,0,0,1-.46-.039,3.186,3.186,0,0,1-2.079-1.237l-2.895-3.908a3.166,3.166,0,0,1,.645-4.421l.763-.566a4.23,4.23,0,0,0,1.184-1.184,19.1,19.1,0,0,0,1.132-2.8l.329-.895a12.026,12.026,0,0,1,.829-2.3l.079-.158a12.831,12.831,0,0,1,3.75-4.447,10.986,10.986,0,0,1,8.171-2.2,10.661,10.661,0,0,1,6.974,4.25h0a10.576,10.576,0,0,1,2.066,7.868,11.029,11.029,0,0,1-4.474,7.224,12.585,12.585,0,0,1-5.342,2.316.77.77,0,0,1-.171.026,11.752,11.752,0,0,1-2.447.132c-.316.013-.606.039-.882.053h-.079a19.933,19.933,0,0,0-3,.276,4.523,4.523,0,0,0-1.474.789l-.763.566A2.862,2.862,0,0,1,3130.016,150.727Zm.987-16.671-.026.053a10.709,10.709,0,0,0-.737,2.026l-.026.092-.342.934c-1.184,3.224-1.25,3.421-2.855,4.711l-.027.026-.776.579a1.488,1.488,0,0,0-.3,2.079l2.895,3.908a1.451,1.451,0,0,0,.974.579,1.5,1.5,0,0,0,1.105-.276l.8-.592c1.7-1.158,1.908-1.171,5.329-1.368h.079c.29-.013.592-.039.921-.053h.1a9.949,9.949,0,0,0,2.158-.118h.04a.1.1,0,0,0,.052-.013l.04-.013a11.016,11.016,0,0,0,4.645-2.013,9.352,9.352,0,0,0,3.816-6.132,8.933,8.933,0,0,0-1.763-6.632h0a8.927,8.927,0,0,0-5.868-3.605,9.371,9.371,0,0,0-6.934,1.895,10.982,10.982,0,0,0-3.263,3.868l-.013.039C3131,134.03,3131,134.043,3131,134.056Z" transform="translate(-3123.958 -126.458)"/>
        </g>
      </g>
    </g>
    <g id="Group_506" data-name="Group 506" transform="translate(3362.234 -357.601)">
      <g id="Group_503" data-name="Group 503" transform="translate(7.938 2.816)">
        <g id="Group_502" data-name="Group 502">
          <path id="Path_234" data-name="Path 234" class="cls-1" d="M2894.939,357.884h0a1.327,1.327,0,0,1-.947-.408c-.8-.816-.776-2.684-.724-5.776.013-.526.013-1.079.013-1.645a.834.834,0,0,1,.777-.829h.21a6.815,6.815,0,0,1,2.2.395,6.922,6.922,0,0,1,2.145,1.224.8.8,0,0,1,.263.763C2898.321,354.95,2896.479,357.871,2894.939,357.884Zm-.408-7.395c0,.421-.013.829-.013,1.237-.026,2.184-.066,4.434.368,4.882.026.026.039.026.052.026.513,0,2.092-1.974,2.658-4.987a6.133,6.133,0,0,0-1.566-.842A4.924,4.924,0,0,0,2894.531,350.49Zm-7.25,7.224h0a1.369,1.369,0,0,1-.948-.395c-.8-.816-.776-2.684-.724-5.789.013-.684.026-1.382.026-2.092a.817.817,0,0,1,.3-.645,4.061,4.061,0,0,1,2.539-.592,5.772,5.772,0,0,1,2.46.487.831.831,0,0,1,.461.75,12.822,12.822,0,0,1-1.316,5.579C2889.676,355.832,2888.6,357.713,2887.281,357.713Zm-.4-8.026c0,.632-.013,1.25-.026,1.855-.039,2.2-.066,4.447.368,4.895.026.026.04.026.053.026.658,0,2.763-2.855,2.855-6.75a5.19,5.19,0,0,0-1.671-.263A4.2,4.2,0,0,0,2886.886,349.687Zm-7.263,8.026h0a1.327,1.327,0,0,1-.948-.408c-.8-.816-.776-2.684-.724-5.776l.013-.5a.841.841,0,0,1,.276-.605,6.545,6.545,0,0,1,2.21-1.2,7.354,7.354,0,0,1,2-.355l.013-.039.513.053a.837.837,0,0,1,.763.855,12.7,12.7,0,0,1-1.382,5.421C2881.952,355.937,2880.887,357.713,2879.624,357.713Zm-.421-6.461v.3c-.039,2.184-.066,4.434.368,4.882.026.026.04.026.053.026.605,0,2.592-2.671,2.842-6.329a5.934,5.934,0,0,0-1.631.3A5.626,5.626,0,0,0,2879.2,351.253Zm.013-.2Z" transform="translate(-2877.93 -348.2)"/>
        </g>
      </g>
      <g id="Group_505" data-name="Group 505">
        <g id="Group_504" data-name="Group 504">
          <path id="Path_235" data-name="Path 235" class="cls-1" d="M2835.929,346.537c-5.3,0-9.79-.75-13-2.184-4.395-1.961-5.329-4.632-5.329-6.539,0-2.868,2.105-5.737,5.776-7.842a26.43,26.43,0,0,1,25.105,0c3.671,2.118,5.776,4.974,5.776,7.842,0,2.039-1.04,4.882-6,6.816A35.061,35.061,0,0,1,2835.929,346.537Zm0-17.645c-8.355,0-16.237,4.342-16.237,8.934,0,3.974,6.527,6.632,16.237,6.632a33.3,33.3,0,0,0,11.566-1.763c2.132-.829,4.671-2.355,4.671-4.868C2852.179,333.221,2844.284,328.892,2835.929,328.892Z" transform="translate(-2817.6 -326.8)"/>
        </g>
      </g>
    </g>
    <g id="Group_511" data-name="Group 511" transform="translate(3407.498 -360.641)">
      <g id="Group_508" data-name="Group 508">
        <g id="Group_507" data-name="Group 507">
          <path id="Path_236" data-name="Path 236" class="cls-1" d="M3174.982,330.5l-.237-.092a4.387,4.387,0,0,1-2.987-4.395v-.039a9.425,9.425,0,0,1,.211-1.434,7.915,7.915,0,0,1-.948,1.171,4.675,4.675,0,0,1-2.421,1.382,5.084,5.084,0,0,1-2.855-.447l-.237-.092-.105-.224a4.7,4.7,0,0,1-.382-2.776,4.757,4.757,0,0,1,1.368-2.447l.026-.026a10.6,10.6,0,0,1,1.158-.868,8.426,8.426,0,0,1-1.487.158,4.645,4.645,0,0,1-2.684-.737,5.119,5.119,0,0,1-1.711-2.329l-.092-.237.092-.237a4.388,4.388,0,0,1,4.4-2.987h.039a9.439,9.439,0,0,1,1.434.211,8.86,8.86,0,0,1-1.171-.934,4.672,4.672,0,0,1-1.382-2.421,5.084,5.084,0,0,1,.447-2.855l.092-.237.224-.105a4.7,4.7,0,0,1,2.776-.382,4.757,4.757,0,0,1,2.448,1.368l.026.026a10.583,10.583,0,0,1,.868,1.158,8.429,8.429,0,0,1-.158-1.487,4.643,4.643,0,0,1,.737-2.684,5.116,5.116,0,0,1,2.329-1.711l.237-.092.237.092a4.387,4.387,0,0,1,2.987,4.395v.039a9.482,9.482,0,0,1-.21,1.434,8.843,8.843,0,0,1,.934-1.171,4.675,4.675,0,0,1,2.421-1.382,5.182,5.182,0,0,1,2.855.434l.237.092.105.224a4.7,4.7,0,0,1,.382,2.776,4.758,4.758,0,0,1-1.369,2.447l-.026.026a10.6,10.6,0,0,1-1.158.868,8.418,8.418,0,0,1,1.487-.158,4.645,4.645,0,0,1,2.684.737,5.117,5.117,0,0,1,1.711,2.329l.092.237-.092.237a4.388,4.388,0,0,1-4.395,2.987h-.04a9.45,9.45,0,0,1-1.434-.211,8.832,8.832,0,0,1,1.171.934A4.675,4.675,0,0,1,3185,323.49a5.181,5.181,0,0,1-.434,2.855l-.092.237-.223.105a4.7,4.7,0,0,1-2.777.382,4.756,4.756,0,0,1-2.447-1.368l-.026-.026a10.558,10.558,0,0,1-.868-1.158,8.426,8.426,0,0,1,.158,1.487,4.644,4.644,0,0,1-.737,2.684,5.117,5.117,0,0,1-2.329,1.711Zm-1.973-4.461a3.42,3.42,0,0,0,.526,1.961l.013.013a3.266,3.266,0,0,0,1.434,1.132,3.642,3.642,0,0,0,1.539-1.171,3.36,3.36,0,0,0,.513-1.961,10.976,10.976,0,0,0-.566-2.947c-.184-.592-.408-1.263-.684-2.013a4.339,4.339,0,0,1-1.487.013c-.263.75-.487,1.408-.658,1.987A14.5,14.5,0,0,0,3173.009,326.042Zm6.908-1.2a3.4,3.4,0,0,0,1.763,1.013h.013a3.333,3.333,0,0,0,1.816-.211,3.528,3.528,0,0,0,.263-1.908,3.41,3.41,0,0,0-1.027-1.75,11.469,11.469,0,0,0-2.487-1.684c-.553-.289-1.184-.605-1.908-.947a3.958,3.958,0,0,1-1.039,1.053c.342.711.658,1.342.947,1.868A14.009,14.009,0,0,0,3179.916,324.845Zm-13.448.75a3.529,3.529,0,0,0,1.908.263,3.41,3.41,0,0,0,1.75-1.026,11.48,11.48,0,0,0,1.684-2.487c.289-.553.605-1.184.947-1.908a3.958,3.958,0,0,1-1.052-1.039c-.71.342-1.342.658-1.868.947a14.021,14.021,0,0,0-2.566,1.658,3.4,3.4,0,0,0-1.013,1.763v.013A3.319,3.319,0,0,0,3166.469,325.595Zm7.5-5.921.132.053a2.8,2.8,0,0,0,1.855-.013l.132-.053.132-.066a2.808,2.808,0,0,0,1.3-1.316l.066-.132.053-.132a2.637,2.637,0,0,0,.158-.908,2.732,2.732,0,0,0-.158-.934l-.053-.132-.066-.132a2.808,2.808,0,0,0-1.316-1.3l-.131-.066-.132-.053a2.8,2.8,0,0,0-1.855.013l-.132.053-.132.066a2.809,2.809,0,0,0-1.3,1.316l-.066.132-.053.132a2.637,2.637,0,0,0-.158.908,2.732,2.732,0,0,0,.158.934l.053.132.066.132a2.809,2.809,0,0,0,1.316,1.3Zm-11-2.605a3.641,3.641,0,0,0,1.171,1.539,3.359,3.359,0,0,0,1.96.513,10.978,10.978,0,0,0,2.948-.566c.592-.184,1.263-.408,2.013-.684a3.673,3.673,0,0,1-.079-.763,4.476,4.476,0,0,1,.066-.724c-.75-.263-1.408-.487-1.987-.658a14.7,14.7,0,0,0-2.987-.645,3.389,3.389,0,0,0-1.961.526l-.013.013A3.489,3.489,0,0,0,3162.969,317.068Zm16,.763c.75.263,1.408.487,1.987.658a14.7,14.7,0,0,0,2.987.645,3.418,3.418,0,0,0,1.96-.526l.013-.013a3.268,3.268,0,0,0,1.132-1.434,3.643,3.643,0,0,0-1.171-1.539,3.359,3.359,0,0,0-1.96-.513,10.975,10.975,0,0,0-2.947.566c-.592.184-1.277.408-2.013.684a3.657,3.657,0,0,1,.079.763A3.333,3.333,0,0,1,3178.969,317.832Zm-12.434-9.263a3.658,3.658,0,0,0-.263,1.908,3.409,3.409,0,0,0,1.026,1.75,11.491,11.491,0,0,0,2.487,1.684c.553.289,1.184.605,1.908.947a3.962,3.962,0,0,1,1.04-1.053c-.342-.711-.658-1.342-.947-1.868a14.037,14.037,0,0,0-1.658-2.566,3.4,3.4,0,0,0-1.763-1.013h-.013A3.2,3.2,0,0,0,3166.535,308.568Zm10.737,5.211a3.95,3.95,0,0,1,1.052,1.039c.71-.342,1.342-.658,1.869-.947a14.025,14.025,0,0,0,2.565-1.658,3.4,3.4,0,0,0,1.013-1.763v-.013a3.334,3.334,0,0,0-.211-1.816,3.658,3.658,0,0,0-1.908-.263,3.411,3.411,0,0,0-1.75,1.026,11.481,11.481,0,0,0-1.684,2.487C3177.916,312.411,3177.6,313.055,3177.271,313.779Zm-2.211-8.711a3.642,3.642,0,0,0-1.539,1.171,3.358,3.358,0,0,0-.513,1.961,10.976,10.976,0,0,0,.566,2.947c.184.592.408,1.276.684,2.013a4.339,4.339,0,0,1,1.487-.013c.263-.75.487-1.408.658-1.987a14.674,14.674,0,0,0,.645-2.987,3.389,3.389,0,0,0-.526-1.961l-.013-.013A3.464,3.464,0,0,0,3175.061,305.068Z" transform="translate(-3161.601 -303.7)"/>
        </g>
      </g>
      <g id="Group_510" data-name="Group 510" transform="translate(10.197 10.342)">
        <g id="Group_509" data-name="Group 509">
          <circle id="Ellipse_22" data-name="Ellipse 22" class="cls-1" cx="3.158" cy="3.158" r="3.158"/>
        </g>
      </g>
    </g>
    <g id="Group_512" data-name="Group 512" transform="translate(3368.998 -323.43)">
      <path id="Path_237" data-name="Path 237" class="cls-2" d="M2869,593.1h5.224v.974h-4.066v3.053h3.448v.974h-3.448v4.053H2869Z" transform="translate(-2869 -592.232)"/>
      <path id="Path_238" data-name="Path 238" class="cls-2" d="M2920.713,593.1h2.829c1.842,0,3.171.658,3.171,2.553,0,1.8-1.329,2.684-3.171,2.684h-1.684v3.829H2920.7V593.1Zm2.671,4.29c1.408,0,2.184-.566,2.184-1.75s-.776-1.618-2.184-1.618h-1.513v3.355h1.513Zm-.066.618.908-.592,2.763,4.737h-1.3Z" transform="translate(-2913.897 -592.232)"/>
      <path id="Path_239" data-name="Path 239" class="cls-2" d="M2980.5,593.1h5.224v.974h-4.065v2.842h3.434v.974h-3.434v3.289h4.2v.974H2980.5Z" transform="translate(-2965.829 -592.232)"/>
      <path id="Path_240" data-name="Path 240" class="cls-2" d="M3030.7,599.753l.684-.789a3.559,3.559,0,0,0,2.5,1.118c1.184,0,1.895-.592,1.895-1.474,0-.921-.658-1.224-1.513-1.592l-1.3-.579a2.543,2.543,0,0,1-1.829-2.329,2.586,2.586,0,0,1,2.855-2.408,3.75,3.75,0,0,1,2.671,1.118l-.605.737A2.894,2.894,0,0,0,3034,592.7c-1.013,0-1.684.513-1.684,1.316,0,.868.79,1.2,1.5,1.5l1.29.553a2.517,2.517,0,0,1,1.868,2.421c0,1.434-1.184,2.579-3.079,2.579A4.175,4.175,0,0,1,3030.7,599.753Z" transform="translate(-3009.424 -591.016)"/>
      <path id="Path_241" data-name="Path 241" class="cls-2" d="M3091.7,593.1h1.158v3.789h4.211V593.1h1.158v9.053h-1.158V597.9h-4.211v4.25H3091.7Z" transform="translate(-3062.398 -592.232)"/>
      <path id="Path_242" data-name="Path 242" class="cls-2" d="M3154.277,593.658c0,2.316-1.474,2.921-2.737,2.921-.948,0-2.54-.368-2.54-1.579a.853.853,0,0,1,.777-.842c.552,0,1.039.513,1.658.513.776,0,.776-.724.776-1.158v-5.934a1.04,1.04,0,1,1,2.079,0v6.079Z" transform="translate(-3112.158 -586.5)"/>
      <path id="Path_243" data-name="Path 243" class="cls-2" d="M3197.9,588.5a1.05,1.05,0,0,1,1.079-1.2h3.421a.948.948,0,1,1,0,1.895h-2.421v2.013h2.263a.95.95,0,1,1,0,1.895h-2.263v2.092h2.553a.948.948,0,1,1,0,1.895h-3.552a1.009,1.009,0,0,1-1.066-1.039V588.5Z" transform="translate(-3154.624 -587.195)"/>
      <path id="Path_244" data-name="Path 244" class="cls-2" d="M3243.035,589.195h-1.5a.891.891,0,0,1-.934-.947.915.915,0,0,1,.934-.947h5.079a.923.923,0,0,1,.934.947.884.884,0,0,1-.934.947h-1.5v6.921a1.04,1.04,0,1,1-2.079,0Z" transform="translate(-3191.706 -587.195)"/>
    </g>
  </g>
</svg>
