<svg xmlns="http://www.w3.org/2000/svg" viewBox="0 0 100 100">
  <defs>
    <style>
      .cls-1 {
        fill: #1b4298;
      }

      .cls-2 {
        fill: #fff;
      }
    </style>
  </defs>
  <g id="HUM_100X100" transform="translate(-3459.915 400.521)">
    <g id="Group_563" data-name="Group 563" transform="translate(3459.915 -400.521)">
      <g id="Group_560" data-name="Group 560">
        <g id="Group_559" data-name="Group 559">
          <path id="Path_260" data-name="Path 260" class="cls-1" d="M3638.9,100.6a49.975,49.975,0,0,1-50-50,50.017,50.017,0,1,1,50,50Zm0-96.842a46.836,46.836,0,0,0-33.118,79.961,46.837,46.837,0,1,0,66.237-66.237A46.486,46.486,0,0,0,3638.9,3.758Z" transform="translate(-3588.9 -0.6)"/>
        </g>
      </g>
      <g id="Group_562" data-name="Group 562" transform="translate(5.789 68.947)">
        <g id="Group_561" data-name="Group 561">
          <path id="Path_261" data-name="Path 261" class="cls-1" d="M3632.9,524.6h88.421s-9.474,28.421-44.211,29.474C3677.111,554.074,3645.532,554.074,3632.9,524.6Z" transform="translate(-3632.9 -524.6)"/>
        </g>
      </g>
    </g>
    <g id="Group_575" data-name="Group 575" transform="translate(3493.425 -388.416)">
      <g id="Group_572" data-name="Group 572" transform="translate(0 4.211)">
        <g id="Group_565" data-name="Group 565" transform="translate(10.529)">
          <g id="Group_564" data-name="Group 564">
            <path id="Path_262" data-name="Path 262" class="cls-1" d="M3926.929,127.758h6.645a4.077,4.077,0,0,1,2.658-3.158H3923.6S3926.666,125.4,3926.929,127.758Z" transform="translate(-3923.6 -124.6)"/>
          </g>
        </g>
        <g id="Group_567" data-name="Group 567" transform="translate(13.779 4.211)">
          <g id="Group_566" data-name="Group 566">
            <path id="Path_263" data-name="Path 263" class="cls-1" d="M3955.024,156.6h-6.658c-.013.355-.04.711-.066,1.053h6.776C3955.063,157.311,3955.037,156.955,3955.024,156.6Z" transform="translate(-3948.3 -156.6)"/>
          </g>
        </g>
        <g id="Group_569" data-name="Group 569" transform="translate(13.503 6.263)">
          <g id="Group_568" data-name="Group 568">
            <path id="Path_264" data-name="Path 264" class="cls-1" d="M3946.2,173.305h7.342c-.066-.342-.118-.7-.171-1.053h-7V172.2A9.733,9.733,0,0,1,3946.2,173.305Z" transform="translate(-3946.2 -172.2)"/>
          </g>
        </g>
        <g id="Group_571" data-name="Group 571" transform="translate(0 8.421)">
          <g id="Group_570" data-name="Group 570">
            <path id="Path_265" data-name="Path 265" class="cls-1" d="M3877.319,206.679c-2.829-7.539-10.474-9.447-12.658-18.079h-7.8c-2.184,8.632-9.829,10.539-12.658,18.079-3.316,8.829,7.724,18.763,7.724,18.763h17.658S3880.622,215.508,3877.319,206.679Z" transform="translate(-3843.58 -188.6)"/>
          </g>
        </g>
      </g>
      <g id="Group_574" data-name="Group 574" transform="translate(15.792)">
        <g id="Group_573" data-name="Group 573">
          <ellipse id="Ellipse_23" data-name="Ellipse 23" class="cls-1" cx="1.579" cy="2.632" rx="1.579" ry="2.632"/>
        </g>
      </g>
    </g>
    <g id="Group_576" data-name="Group 576" transform="translate(3497.02 -322.35)">
      <path id="Path_266" data-name="Path 266" class="cls-2" d="M3870.9,594.7h2.027v3.461h3.105V594.7h2.026v8.987h-2.026v-3.75h-3.105v3.75H3870.9Z" transform="translate(-3870.9 -594.7)"/>
      <path id="Path_267" data-name="Path 267" class="cls-2" d="M3941.1,599.529V594.7h2.026v5.039c0,1.763.553,2.368,1.566,2.368s1.592-.605,1.592-2.368v-5.026h1.96v4.829c0,3.013-1.224,4.329-3.552,4.329S3941.1,602.542,3941.1,599.529Z" transform="translate(-3931.863 -594.7)"/>
      <path id="Path_268" data-name="Path 268" class="cls-2" d="M4011.013,594.7h2.224l1.46,4c.184.526.342,1.105.513,1.658h.052c.185-.553.329-1.132.513-1.658l1.408-4h2.224v8.987h-1.855V600.4a29.617,29.617,0,0,1,.263-3.053h-.053l-.737,2.132-1.276,3.447h-1.132l-1.276-3.447-.724-2.132h-.053c.092.868.263,2.184.263,3.053v3.3H4011v-9Z" transform="translate(-3992.566 -594.7)"/>
    </g>
  </g>
</svg>
