<svg id="INTERJETCARGO-5_LOGO" xmlns="http://www.w3.org/2000/svg" viewBox="0 0 500 134.912">
  <defs>
    <style>
      .cls-1 {
        fill: #fff;
      }

      .cls-2 {
        fill: #000a8b;
      }
    </style>
  </defs>
  <g id="Group_282" data-name="Group 282" transform="translate(0 7.472)">
    <g id="Group_279" data-name="Group 279">
      <g id="Group_278" data-name="Group 278">
        <g id="Group_267" data-name="Group 267" transform="translate(89.299 17.836)">
          <path id="Path_89" data-name="Path 89" class="cls-1" d="M148.2,49.592a7.8,7.8,0,0,1,1.928-5.483A6.543,6.543,0,0,1,155.19,42a6.725,6.725,0,0,1,5.061,2.109,7.9,7.9,0,0,1,1.928,5.483V86.107a7.8,7.8,0,0,1-1.928,5.483A6.633,6.633,0,0,1,155.19,93.7a6.725,6.725,0,0,1-5.061-2.109,7.9,7.9,0,0,1-1.928-5.483Z" transform="translate(-148.2 -42)"/>
        </g>
        <g id="Group_268" data-name="Group 268" transform="translate(111.051 17.293)">
          <path id="Path_90" data-name="Path 90" class="cls-1" d="M184.3,49.234a7.8,7.8,0,0,1,1.928-5.483,6.543,6.543,0,0,1,5.061-2.109,7.2,7.2,0,0,1,4.4,1.326,5.761,5.761,0,0,1,2.049,3.736,12.892,12.892,0,0,1,5.3-4.158,20.476,20.476,0,0,1,8.255-1.446,22.657,22.657,0,0,1,7.652,1.265,16.69,16.69,0,0,1,6.086,3.615,16.518,16.518,0,0,1,3.977,5.785,19.862,19.862,0,0,1,1.446,7.773V85.749a7.8,7.8,0,0,1-1.928,5.483,6.543,6.543,0,0,1-5.061,2.109,6.725,6.725,0,0,1-5.061-2.109,7.8,7.8,0,0,1-1.928-5.483V61.888c0-3.254-.9-5.6-2.711-7.11a9.859,9.859,0,0,0-6.508-2.29q-4.429,0-6.688,2.711a9.811,9.811,0,0,0-2.29,6.688v23.8a7.8,7.8,0,0,1-1.928,5.483,6.633,6.633,0,0,1-5.061,2.109,6.725,6.725,0,0,1-5.061-2.109,7.9,7.9,0,0,1-1.928-5.483Z" transform="translate(-184.3 -41.1)"/>
        </g>
        <g id="Group_269" data-name="Group 269" transform="translate(159.195 2.531)">
          <path id="Path_91" data-name="Path 91" class="cls-1" d="M273.419,44.378h-3.133a6.057,6.057,0,0,1-4.459-1.627,6.345,6.345,0,0,1,.12-8.617,6,6,0,0,1,4.4-1.687h3.133V24.252a8.058,8.058,0,0,1,1.928-5.544,6.543,6.543,0,0,1,5.061-2.109,6.725,6.725,0,0,1,5.061,2.109,7.953,7.953,0,0,1,1.928,5.544v8.195h3.977a8.122,8.122,0,0,1,4.7,1.326c1.326.9,1.988,2.41,1.988,4.64,0,2.169-.663,3.676-1.988,4.579a8.158,8.158,0,0,1-4.7,1.386h-3.977V76.012a8.058,8.058,0,0,1-1.928,5.543,7.128,7.128,0,0,1-10.123,0,7.953,7.953,0,0,1-1.928-5.543V44.378Z" transform="translate(-264.2 -16.6)"/>
        </g>
        <g id="Group_270" data-name="Group 270" transform="translate(191.01 17.354)">
          <path id="Path_92" data-name="Path 92" class="cls-1" d="M331.341,72.171a10.543,10.543,0,0,0,4.519,7.592,15.4,15.4,0,0,0,8.677,2.41,14.757,14.757,0,0,0,5-.844,27.129,27.129,0,0,0,4.218-1.928c1.326-.723,2.471-1.326,3.615-1.928a6.2,6.2,0,0,1,3.013-.844,5.191,5.191,0,0,1,3.977,1.868,5.834,5.834,0,0,1,1.747,4.037A6.168,6.168,0,0,1,364,86.813a20.448,20.448,0,0,1-5.363,3.676,35.667,35.667,0,0,1-7.411,2.591,33.5,33.5,0,0,1-7.954,1.024,27.661,27.661,0,0,1-10.725-1.988,24.586,24.586,0,0,1-8.255-5.544,25,25,0,0,1-5.363-8.315A28.314,28.314,0,0,1,317,67.712a27.347,27.347,0,0,1,1.868-10.063,26.607,26.607,0,0,1,5.122-8.436,23.879,23.879,0,0,1,7.893-5.845,24.513,24.513,0,0,1,20.427.121,26.853,26.853,0,0,1,7.954,5.905,26.4,26.4,0,0,1,5.061,8.074,22.863,22.863,0,0,1,1.808,8.677,6.424,6.424,0,0,1-1.446,4.579c-.964,1.024-2.531,1.506-4.64,1.506H331.341Zm21.813-9.1a12.649,12.649,0,0,0-3.374-7.532c-1.868-1.988-4.459-2.953-7.773-2.953a10.033,10.033,0,0,0-7.592,3.073,12.156,12.156,0,0,0-3.435,7.472h22.174Z" transform="translate(-317 -41.2)"/>
        </g>
        <g id="Group_271" data-name="Group 271" transform="translate(245.903 17.896)">
          <path id="Path_93" data-name="Path 93" class="cls-1" d="M408.1,48.909a6.023,6.023,0,0,1,2.29-5.122A7.872,7.872,0,0,1,415.27,42.1a9.376,9.376,0,0,1,4.82,1.205q1.988,1.175,1.988,4.519h.181a14.281,14.281,0,0,1,4.218-4.278,10.2,10.2,0,0,1,5.6-1.446,6.935,6.935,0,0,1,4.64,1.808c1.446,1.205,2.109,3.073,2.109,5.544a4.21,4.21,0,0,1-.723,2.651,8.247,8.247,0,0,1-1.868,1.627,21.8,21.8,0,0,1-2.651,1.205,32.388,32.388,0,0,0-3.073,1.205l-3.073,1.446a12.323,12.323,0,0,0-2.711,1.747A8.558,8.558,0,0,0,422.8,61.8a7.6,7.6,0,0,0-.723,3.435V86.267a7.8,7.8,0,0,1-1.928,5.483,6.633,6.633,0,0,1-5.061,2.109,6.725,6.725,0,0,1-5.061-2.109,7.9,7.9,0,0,1-1.928-5.483V48.909Z" transform="translate(-408.1 -42.1)"/>
        </g>
        <g id="Group_272" data-name="Group 272" transform="translate(305.134 17.354)">
          <path id="Path_94" data-name="Path 94" class="cls-1" d="M520.8,72.171a10.543,10.543,0,0,0,4.519,7.592A15.534,15.534,0,0,0,534,82.174a14.757,14.757,0,0,0,5-.844,27.132,27.132,0,0,0,4.218-1.928c1.265-.723,2.47-1.326,3.615-1.928a6.2,6.2,0,0,1,3.013-.844,5.191,5.191,0,0,1,3.977,1.868,5.833,5.833,0,0,1,1.747,4.037,6.168,6.168,0,0,1-2.109,4.278,19.859,19.859,0,0,1-5.423,3.676,35.665,35.665,0,0,1-7.411,2.591,33.5,33.5,0,0,1-7.954,1.024,27.662,27.662,0,0,1-10.726-1.988,24.587,24.587,0,0,1-8.255-5.544,25,25,0,0,1-5.363-8.315A28.313,28.313,0,0,1,506.4,67.712a27.348,27.348,0,0,1,1.868-10.063,26.609,26.609,0,0,1,5.122-8.436,23.878,23.878,0,0,1,7.893-5.845A23.473,23.473,0,0,1,531.406,41.2a23.034,23.034,0,0,1,10.243,2.29,26.1,26.1,0,0,1,7.954,5.905,26.4,26.4,0,0,1,5.061,8.074,22.862,22.862,0,0,1,1.808,8.677,6.424,6.424,0,0,1-1.446,4.579c-.964,1.024-2.531,1.506-4.64,1.506H520.8Zm21.873-9.1a12.649,12.649,0,0,0-3.374-7.532c-1.868-1.988-4.459-2.953-7.773-2.953a9.943,9.943,0,0,0-7.592,3.073,12.156,12.156,0,0,0-3.435,7.472h22.174Z" transform="translate(-506.4 -41.2)"/>
        </g>
        <g id="Group_273" data-name="Group 273" transform="translate(354.423 2.531)">
          <path id="Path_95" data-name="Path 95" class="cls-1" d="M597.419,44.378h-3.133a6.057,6.057,0,0,1-4.459-1.627,6.058,6.058,0,0,1,4.519-10.3h3.133V24.252a8.058,8.058,0,0,1,1.928-5.544,6.544,6.544,0,0,1,5.061-2.109,6.725,6.725,0,0,1,5.061,2.109,7.953,7.953,0,0,1,1.928,5.544v8.195h3.977a8.122,8.122,0,0,1,4.7,1.326c1.326.9,1.988,2.41,1.988,4.64,0,2.169-.663,3.676-1.988,4.579a8.158,8.158,0,0,1-4.7,1.386h-3.977V76.012a8.058,8.058,0,0,1-1.928,5.543,7.128,7.128,0,0,1-10.123,0,7.684,7.684,0,0,1-1.928-5.543V44.378Z" transform="translate(-588.2 -16.6)"/>
        </g>
        <g id="Group_274" data-name="Group 274" transform="translate(272.114 16.57)">
          <path id="Path_96" data-name="Path 96" class="cls-1" d="M464.434,80.874a2.152,2.152,0,0,0,2.109.06,4.516,4.516,0,0,0,1.506-1.868,8.235,8.235,0,0,0,.542-2.41c.06-.844.06-1.627.06-2.35V46.769A6.337,6.337,0,0,1,475.4,39.9a7.074,7.074,0,0,1,4.82,1.747,6.722,6.722,0,0,1,1.928,5.122v28.32a26.87,26.87,0,0,1-1.386,9.159,13.745,13.745,0,0,1-4.1,5.724,16.349,16.349,0,0,1-6.086,2.953s-5.242.6-7.652.06a20.652,20.652,0,0,1-5.423-1.687,15.489,15.489,0,0,1-4.218-3.073,6.635,6.635,0,0,1-1.687-4.881,5.7,5.7,0,0,1,1.386-3.495,7.486,7.486,0,0,1,1.627-1.265,4.206,4.206,0,0,1,2.049-.482,6.225,6.225,0,0,1,2.651.542c.663.241,2.591,1.085,2.591,1.085Z" transform="translate(-451.6 -39.9)"/>
        </g>
        <g id="Group_275" data-name="Group 275" transform="translate(272.114 16.57)">
          <path id="Path_97" data-name="Path 97" class="cls-1" d="M464.434,80.874a2.152,2.152,0,0,0,2.109.06,4.516,4.516,0,0,0,1.506-1.868,8.235,8.235,0,0,0,.542-2.41c.06-.844.06-1.627.06-2.35V46.769A6.337,6.337,0,0,1,475.4,39.9a7.074,7.074,0,0,1,4.82,1.747,6.722,6.722,0,0,1,1.928,5.122v28.32a26.87,26.87,0,0,1-1.386,9.159,13.745,13.745,0,0,1-4.1,5.724,16.349,16.349,0,0,1-6.086,2.953s-5.242.6-7.652.06a20.652,20.652,0,0,1-5.423-1.687,15.489,15.489,0,0,1-4.218-3.073,6.635,6.635,0,0,1-1.687-4.881,5.7,5.7,0,0,1,1.386-3.495,7.486,7.486,0,0,1,1.627-1.265,4.206,4.206,0,0,1,2.049-.482,6.225,6.225,0,0,1,2.651.542c.663.241,2.591,1.085,2.591,1.085Z" transform="translate(-451.6 -39.9)"/>
        </g>
        <g id="Group_276" data-name="Group 276">
          <path id="Path_98" data-name="Path 98" class="cls-1" d="M40.19,37.1V16.678a4.339,4.339,0,0,0-8.677,0V37.165L23.078,28.91,16.631,22.7a4.364,4.364,0,0,0-6.146,0,4.219,4.219,0,0,0,0,6.026l6.327,6.206,8.376,8.255H4.4a4.28,4.28,0,1,0,0,8.556H25.307L16.872,60,12.533,64.22l-1.988,1.988a4.291,4.291,0,0,0,0,6.086,4.438,4.438,0,0,0,6.206,0l1.868-1.808,4.459-4.4,8.436-8.255V78.259a4.4,4.4,0,0,0,8.8,0V57.772l8.436,8.255,4.338,4.218,1.988,1.988a4.438,4.438,0,0,0,6.206,0,4.291,4.291,0,0,0,0-6.086L59.412,64.34,54.953,60l-8.436-8.255H67.426a4.279,4.279,0,1,0,0-8.556H46.336l8.436-8.255L61.1,28.729a4.219,4.219,0,0,0,0-6.026,4.364,4.364,0,0,0-6.146,0L48.566,28.85Z" transform="translate(0 -12.4)"/>
        </g>
        <g id="Group_277" data-name="Group 277" transform="translate(8.918 15.245)">
          <path id="Path_99" data-name="Path 99" class="cls-2" d="M60.654,70.057a4.219,4.219,0,0,1,0,6.026,4.438,4.438,0,0,1-6.206,0l-7.713-7.532L39.866,61.8H19.2a4.28,4.28,0,1,1,0-8.556H39.806l6.206-6.026,8.436-8.255a4.438,4.438,0,0,1,6.206,0,4.219,4.219,0,0,1,0,6.026l-8.436,8.255H64.149a4.28,4.28,0,1,1,0,8.556H52.219Z" transform="translate(-14.8 -37.7)"/>
        </g>
      </g>
    </g>
    <g id="Group_280" data-name="Group 280" transform="translate(388.347 58.448)">
      <path id="Path_100" data-name="Path 100" class="cls-1" d="M644.5,115a5.25,5.25,0,1,1,5.242,5.544A5.247,5.247,0,0,1,644.5,115Zm9.581,0a4.362,4.362,0,1,0-8.677,0,4.45,4.45,0,0,0,4.339,4.7C652.152,119.764,654.081,117.776,654.081,115Zm-6.267-3.073H649.8c1.145,0,2.229.422,2.229,1.868a1.763,1.763,0,0,1-1.145,1.627l1.386,2.47h-1.085l-1.145-2.169h-1.326V117.9h-.9Zm1.747,2.953c.844,0,1.446-.3,1.446-1.085,0-.663-.361-1.085-1.386-1.085h-.9v2.169h.844Z" transform="translate(-644.5 -109.4)"/>
    </g>
    <g id="Group_281" data-name="Group 281" transform="translate(228.79 83.635)">
      <path id="Path_101" data-name="Path 101" class="cls-2" d="M393.86,151.2c3.013,0,8.858.964,8.858,4.64a2.6,2.6,0,0,1-2.531,2.772c-1.687,0-2.832-1.446-6.327-1.446-5.122,0-7.773,4.338-7.773,9.34,0,4.881,2.651,9.1,7.773,9.1,3.435,0,4.881-1.747,6.568-1.747a2.9,2.9,0,0,1,2.712,2.832c0,3.977-6.206,4.881-9.279,4.881-8.376,0-14.16-6.628-14.16-15.184C379.7,157.768,385.485,151.2,393.86,151.2Z" transform="translate(-379.7 -151.2)"/>
      <path id="Path_102" data-name="Path 102" class="cls-2" d="M435.777,154.635a4.9,4.9,0,0,1,4.4-3.435,4.63,4.63,0,0,1,4.4,3.435l8.074,22.415a4.893,4.893,0,0,1,.3,1.506,2.727,2.727,0,0,1-2.832,2.711A2.879,2.879,0,0,1,447.1,179.1l-1.265-3.856H434.391l-1.265,3.856a2.855,2.855,0,0,1-2.952,2.169,3.012,3.012,0,0,1-3.073-2.892,3.14,3.14,0,0,1,.3-1.386Zm.482,14.943h7.833l-3.856-11.931h-.06Z" transform="translate(-398.539 -151.2)"/>
      <path id="Path_103" data-name="Path 103" class="cls-2" d="M480.2,155.194A2.89,2.89,0,0,1,483.394,152h7.231c6.327,0,10.243,2.832,10.243,9.34,0,4.519-3.435,7.11-7.652,7.773l6.99,7.532a2.614,2.614,0,0,1,.844,1.808,3.149,3.149,0,0,1-3.073,3.194,3.273,3.273,0,0,1-2.41-1.085l-9.1-11.087h-.06v8.918a3.075,3.075,0,1,1-6.146,0v-23.2Zm6.146,9.822h4.218a3.529,3.529,0,0,0,3.856-3.676c0-2.35-1.567-3.615-3.856-3.615h-4.218Z" transform="translate(-419.643 -151.518)"/>
      <path id="Path_104" data-name="Path 104" class="cls-2" d="M547.182,163.673c2.591,0,3.615,1.326,3.615,3.977,0,7.954-5.182,13.919-13.437,13.919-8.376,0-14.16-6.628-14.16-15.184s5.784-15.184,14.16-15.184c6.206,0,11.328,2.953,11.328,5.785a2.611,2.611,0,0,1-2.531,2.892c-2.832,0-3.374-3.013-8.8-3.013-5.182,0-7.773,4.519-7.773,9.46,0,5,2.531,9.46,7.773,9.46,3.254,0,6.99-1.808,6.99-6.508h-4.218a2.862,2.862,0,1,1,0-5.724h7.05Z" transform="translate(-436.733 -151.2)"/>
      <path id="Path_105" data-name="Path 105" class="cls-2" d="M578.2,166.384c0-8.556,5.785-15.184,14.16-15.184,8.315,0,14.16,6.809,14.16,15.184,0,8.556-5.724,15.184-14.16,15.184C583.984,181.509,578.2,174.88,578.2,166.384Zm21.933,0c0-5-2.591-9.46-7.773-9.46s-7.773,4.519-7.773,9.46c0,5,2.531,9.46,7.773,9.46S600.133,171.386,600.133,166.384Z" transform="translate(-458.593 -151.2)"/>
    </g>
  </g>
  <g id="Group_283" data-name="Group 283" transform="translate(420.643)">
    <line id="Line_1" data-name="Line 1" class="cls-1" y2="134.912"/>
  </g>
  <g id="Group_284" data-name="Group 284" transform="translate(440.889 4.82)">
    <path id="Path_106" data-name="Path 106" class="cls-2" d="M756.887,36.38a36.577,36.577,0,0,1,8.918-1.205c16.45,0,25.006,13.015,25.006,28.26,0,17.534-13.5,31.333-31.453,31.333-12.413,0-27.657-6.688-27.657-15.847,0-5.724,3.676-9.641,8.195-9.641,6.688,0,10.123,6.929,18.86,6.929,6.809,0,11.328-4.881,11.328-13.919,0-5.724-3.314-11.328-9.52-11.328-7.773,0-8.195,4.278-14.522,4.278-4.64,0-7.773-2.651-7.773-7.05a70.412,70.412,0,0,1,.6-8.918l2.953-23.259C742.787,8.723,747.065,8,752.066,8h29.1c5.965,0,8.918,4.519,8.918,8.918s-2.953,8.918-8.918,8.918H758.152Z" transform="translate(-731.7 -8)"/>
  </g>
  <g id="Group_285" data-name="Group 285" transform="translate(438.057 99.12)">
    <path id="Path_107" data-name="Path 107" class="cls-2" d="M742.486,189.119a2.317,2.317,0,0,1-2.29,2.41,2.469,2.469,0,0,1-2.169-1.446,4.567,4.567,0,0,1-3.917,1.747c-3.977,0-7.11-3.676-7.11-8.315s3.073-8.315,7.11-8.315a4.5,4.5,0,0,1,3.917,1.747,2.315,2.315,0,0,1,4.459.964Zm-10.906-5.6c0,2.109,1.145,3.856,3.133,3.856s3.133-1.747,3.133-3.856-1.145-3.856-3.133-3.856S731.579,181.406,731.579,183.515Z" transform="translate(-727 -168.753)"/>
    <path id="Path_108" data-name="Path 108" class="cls-2" d="M756.1,173.6a2.317,2.317,0,0,1,2.29-2.41,2.444,2.444,0,0,1,2.29,1.446c.723-1.145,1.988-1.747,3.917-1.747,3.194,0,5.724,1.627,5.724,5.423v8.5a2.293,2.293,0,1,1-4.579,0v-7.291a2.541,2.541,0,1,0-5.061,0v7.291a2.293,2.293,0,1,1-4.579,0Zm3.8-9.1a9.216,9.216,0,0,1,3.013.663,7.035,7.035,0,0,0,2.29.723c1.205,0,1.446-1.386,2.591-1.386a1.727,1.727,0,0,1,1.687,1.868,3.216,3.216,0,0,1-2.952,3.194c-2.229,0-4.037-1.386-5.242-1.386s-1.446,1.386-2.591,1.386A1.727,1.727,0,0,1,757,167.694,3.16,3.16,0,0,1,759.9,164.5Z" transform="translate(-738.566 -164.5)"/>
    <path id="Path_109" data-name="Path 109" class="cls-2" d="M797.686,183.515c0,4.64-3.073,8.315-7.713,8.315s-7.773-3.676-7.773-8.315,3.073-8.315,7.773-8.315S797.686,178.876,797.686,183.515Zm-10.906,0c0,2.109,1.145,3.856,3.133,3.856s3.133-1.747,3.133-3.856-1.145-3.856-3.133-3.856S786.779,181.406,786.779,183.515Z" transform="translate(-748.939 -168.753)"/>
    <path id="Path_110" data-name="Path 110" class="cls-2" d="M810.888,186.408c1.446,0,2.47,1.326,4.4,1.326.964,0,1.265-.422,1.265-.9,0-.964-1.024-1.024-3.555-2.109-2.35-.964-3.615-1.868-3.615-4.338,0-2.591,2.229-5.182,5.905-5.182,1.868,0,5.3.9,5.3,3.254a1.868,1.868,0,0,1-1.928,1.928c-.9,0-2.29-1.145-3.676-1.145-.6,0-1.205.3-1.205.964,0,1.808,7.17,1.386,7.17,6.447,0,3.254-2.712,5.182-5.905,5.182-2.892,0-6.146-1.145-6.146-3.194A2.189,2.189,0,0,1,810.888,186.408Z" transform="translate(-759.551 -168.753)"/>
  </g>
</svg>
