<svg xmlns="http://www.w3.org/2000/svg" viewBox="0 0 150 41.256">
  <defs>
    <style>
      .cls-1 {
        fill: #fff;
      }

      .cls-2 {
        fill: #6dabe4;
      }
    </style>
  </defs>
  <g id="INTERJETCARGO_LOGO" transform="translate(-2019.908 384.338)">
    <g id="Group_225" data-name="Group 225" transform="translate(2019.908 -384.338)">
      <g id="Group_224" data-name="Group 224">
        <path id="Path_73" data-name="Path 73" class="cls-1" d="M148.2,32.455a2.933,2.933,0,0,1,.725-2.062,2.461,2.461,0,0,1,1.9-.793,2.529,2.529,0,0,1,1.9.793,2.972,2.972,0,0,1,.725,2.062V46.189a2.933,2.933,0,0,1-.725,2.062,2.5,2.5,0,0,1-1.9.793,2.529,2.529,0,0,1-1.9-.793,2.972,2.972,0,0,1-.725-2.062Z" transform="translate(-114.615 -22.892)"/>
        <path id="Path_74" data-name="Path 74" class="cls-1" d="M184.3,31.759a2.933,2.933,0,0,1,.725-2.062,2.461,2.461,0,0,1,1.9-.793,2.709,2.709,0,0,1,1.654.5,2.167,2.167,0,0,1,.771,1.405,4.849,4.849,0,0,1,1.994-1.564,7.7,7.7,0,0,1,3.1-.544,8.522,8.522,0,0,1,2.878.476,6.278,6.278,0,0,1,2.289,1.36,6.213,6.213,0,0,1,1.5,2.176,7.47,7.47,0,0,1,.544,2.923v9.858a2.933,2.933,0,0,1-.725,2.062,2.461,2.461,0,0,1-1.9.793,2.529,2.529,0,0,1-1.9-.793,2.933,2.933,0,0,1-.725-2.062V36.541a3.277,3.277,0,0,0-1.02-2.674,3.708,3.708,0,0,0-2.448-.861,3.087,3.087,0,0,0-2.516,1.02,3.69,3.69,0,0,0-.861,2.515v8.952a2.933,2.933,0,0,1-.725,2.062,2.5,2.5,0,0,1-1.9.793,2.529,2.529,0,0,1-1.9-.793,2.972,2.972,0,0,1-.725-2.062Z" transform="translate(-142.534 -22.196)"/>
        <path id="Path_75" data-name="Path 75" class="cls-1" d="M267.667,14.647h-1.178a2.278,2.278,0,0,1-1.677-.612A2.206,2.206,0,0,1,264.2,12.4a2.206,2.206,0,0,1,.657-1.609,2.255,2.255,0,0,1,1.654-.635h1.178V7.078a3.031,3.031,0,0,1,.725-2.085,2.461,2.461,0,0,1,1.9-.793,2.53,2.53,0,0,1,1.9.793,2.991,2.991,0,0,1,.725,2.085V10.16h1.5a3.055,3.055,0,0,1,1.768.5,1.941,1.941,0,0,1,.748,1.745,1.924,1.924,0,0,1-.748,1.722,3.068,3.068,0,0,1-1.768.521h-1.5v11.9a3.031,3.031,0,0,1-.725,2.085,2.681,2.681,0,0,1-3.807,0,2.991,2.991,0,0,1-.725-2.085v-11.9Z" transform="translate(-204.327 -3.248)"/>
        <path id="Path_76" data-name="Path 76" class="cls-1" d="M322.393,40.448a3.965,3.965,0,0,0,1.7,2.855,5.79,5.79,0,0,0,3.263.906,5.55,5.55,0,0,0,1.881-.317,10.2,10.2,0,0,0,1.586-.725c.5-.272.929-.5,1.36-.725a2.332,2.332,0,0,1,1.133-.317,1.952,1.952,0,0,1,1.5.7,2.194,2.194,0,0,1,.657,1.518,2.32,2.32,0,0,1-.793,1.609,7.691,7.691,0,0,1-2.017,1.382,13.415,13.415,0,0,1-2.787.974,12.6,12.6,0,0,1-2.991.385,10.4,10.4,0,0,1-4.034-.748,9.247,9.247,0,0,1-3.1-2.085,9.4,9.4,0,0,1-2.017-3.127A10.65,10.65,0,0,1,317,38.771a10.286,10.286,0,0,1,.7-3.785,10.008,10.008,0,0,1,1.926-3.173,8.981,8.981,0,0,1,2.969-2.2,9.219,9.219,0,0,1,7.682.045,10.1,10.1,0,0,1,2.991,2.221,9.93,9.93,0,0,1,1.9,3.037,8.6,8.6,0,0,1,.68,3.263,2.416,2.416,0,0,1-.544,1.722,2.311,2.311,0,0,1-1.745.567H322.393Zm8.2-3.422a4.757,4.757,0,0,0-1.269-2.833,4.25,4.25,0,0,0-5.779.045,4.572,4.572,0,0,0-1.292,2.81h8.34Z" transform="translate(-245.161 -22.273)"/>
        <path id="Path_77" data-name="Path 77" class="cls-1" d="M408.1,32.261a2.265,2.265,0,0,1,.861-1.926A2.96,2.96,0,0,1,410.8,29.7a3.526,3.526,0,0,1,1.813.453,1.807,1.807,0,0,1,.748,1.7h.068a5.369,5.369,0,0,1,1.586-1.609,3.834,3.834,0,0,1,2.108-.544,2.608,2.608,0,0,1,1.745.68,2.559,2.559,0,0,1,.793,2.085,1.583,1.583,0,0,1-.272,1,3.1,3.1,0,0,1-.7.612,8.2,8.2,0,0,1-1,.453,12.186,12.186,0,0,0-1.156.453l-1.156.544a4.633,4.633,0,0,0-1.02.657,3.217,3.217,0,0,0-.725.929,2.857,2.857,0,0,0-.272,1.292v7.909a2.933,2.933,0,0,1-.725,2.062,2.5,2.5,0,0,1-1.9.793,2.529,2.529,0,0,1-1.9-.793,2.972,2.972,0,0,1-.725-2.062Z" transform="translate(-315.616 -22.969)"/>
        <path id="Path_78" data-name="Path 78" class="cls-1" d="M511.816,40.448a3.966,3.966,0,0,0,1.7,2.855,5.842,5.842,0,0,0,3.263.906,5.551,5.551,0,0,0,1.881-.317,10.207,10.207,0,0,0,1.586-.725c.476-.272.929-.5,1.36-.725a2.331,2.331,0,0,1,1.133-.317,1.952,1.952,0,0,1,1.5.7,2.194,2.194,0,0,1,.657,1.518,2.32,2.32,0,0,1-.793,1.609,7.468,7.468,0,0,1-2.04,1.382,13.414,13.414,0,0,1-2.787.974,12.6,12.6,0,0,1-2.991.385,10.4,10.4,0,0,1-4.034-.748,9.247,9.247,0,0,1-3.1-2.085,9.4,9.4,0,0,1-2.017-3.127,10.649,10.649,0,0,1-.725-3.966,10.286,10.286,0,0,1,.7-3.785,10.006,10.006,0,0,1,1.926-3.173,8.979,8.979,0,0,1,2.969-2.2A8.827,8.827,0,0,1,515.8,28.8a8.664,8.664,0,0,1,3.853.861,9.817,9.817,0,0,1,2.991,2.221,9.93,9.93,0,0,1,1.9,3.037,8.6,8.6,0,0,1,.68,3.263,2.417,2.417,0,0,1-.544,1.722,2.311,2.311,0,0,1-1.745.567H511.816Zm8.226-3.422a4.757,4.757,0,0,0-1.269-2.833,3.809,3.809,0,0,0-2.923-1.11,3.739,3.739,0,0,0-2.855,1.156,4.571,4.571,0,0,0-1.292,2.81h8.34Z" transform="translate(-391.639 -22.273)"/>
        <path id="Path_79" data-name="Path 79" class="cls-1" d="M591.667,14.647h-1.179a2.278,2.278,0,0,1-1.677-.612A2.205,2.205,0,0,1,588.2,12.4a2.21,2.21,0,0,1,2.312-2.244h1.178V7.078a3.03,3.03,0,0,1,.725-2.085,2.461,2.461,0,0,1,1.9-.793,2.529,2.529,0,0,1,1.9.793,2.991,2.991,0,0,1,.725,2.085V10.16h1.5a3.055,3.055,0,0,1,1.768.5,1.941,1.941,0,0,1,.748,1.745,1.924,1.924,0,0,1-.748,1.722,3.068,3.068,0,0,1-1.768.521h-1.5v11.9a3.031,3.031,0,0,1-.725,2.085,2.681,2.681,0,0,1-3.807,0,2.89,2.89,0,0,1-.725-2.085v-11.9Z" transform="translate(-454.902 -3.248)"/>
        <path id="Path_80" data-name="Path 80" class="cls-1" d="M456.427,42.91a.809.809,0,0,0,.793.023,1.7,1.7,0,0,0,.567-.7,3.1,3.1,0,0,0,.2-.906c.023-.317.023-.612.023-.884V30.083a2.384,2.384,0,0,1,2.538-2.583,2.66,2.66,0,0,1,1.813.657,2.528,2.528,0,0,1,.725,1.926V40.735a10.108,10.108,0,0,1-.521,3.445,5.17,5.17,0,0,1-1.541,2.153,6.151,6.151,0,0,1-2.289,1.11,12.4,12.4,0,0,1-2.878.023,7.767,7.767,0,0,1-2.04-.635,5.826,5.826,0,0,1-1.586-1.156,2.5,2.5,0,0,1-.635-1.836,2.143,2.143,0,0,1,.521-1.314,2.816,2.816,0,0,1,.612-.476,1.582,1.582,0,0,1,.771-.181,2.342,2.342,0,0,1,1,.2c.249.091.974.408.974.408Z" transform="translate(-349.258 -21.268)"/>
        <path id="Path_81" data-name="Path 81" class="cls-1" d="M456.427,42.91a.809.809,0,0,0,.793.023,1.7,1.7,0,0,0,.567-.7,3.1,3.1,0,0,0,.2-.906c.023-.317.023-.612.023-.884V30.083a2.384,2.384,0,0,1,2.538-2.583,2.66,2.66,0,0,1,1.813.657,2.528,2.528,0,0,1,.725,1.926V40.735a10.108,10.108,0,0,1-.521,3.445,5.17,5.17,0,0,1-1.541,2.153,6.151,6.151,0,0,1-2.289,1.11,12.4,12.4,0,0,1-2.878.023,7.767,7.767,0,0,1-2.04-.635,5.826,5.826,0,0,1-1.586-1.156,2.5,2.5,0,0,1-.635-1.836,2.143,2.143,0,0,1,.521-1.314,2.816,2.816,0,0,1,.612-.476,1.582,1.582,0,0,1,.771-.181,2.342,2.342,0,0,1,1,.2c.249.091.974.408.974.408Z" transform="translate(-349.258 -21.268)"/>
        <path id="Path_82" data-name="Path 82" class="cls-2" d="M15.116,9.291V1.609a1.632,1.632,0,0,0-3.263,0V9.291L8.68,6.187,6.255,3.875a1.641,1.641,0,0,0-2.312,0,1.587,1.587,0,0,0,0,2.266l2.38,2.334,3.15,3.1H1.654a1.61,1.61,0,1,0,0,3.218H9.518l-3.2,3.1L4.691,19.489l-.748.748a1.614,1.614,0,0,0,0,2.289,1.669,1.669,0,0,0,2.334,0l.7-.68,1.677-1.654,3.173-3.1V24.77a1.655,1.655,0,0,0,3.309,0V17.065l3.173,3.1,1.632,1.586.748.748a1.669,1.669,0,0,0,2.334,0,1.614,1.614,0,0,0,0-2.289l-.7-.68L20.6,17.9l-3.173-3.1h7.864a1.609,1.609,0,1,0,0-3.218H17.427l3.173-3.1,2.38-2.357a1.587,1.587,0,0,0,0-2.266,1.641,1.641,0,0,0-2.312,0l-2.4,2.334Z" transform="translate(0 0)"/>
        <path id="Path_83" data-name="Path 83" class="cls-1" d="M32.046,37.47a1.587,1.587,0,0,1,0,2.266,1.669,1.669,0,0,1-2.334,0l-2.9-2.833-2.583-2.538H16.454a1.61,1.61,0,1,1,0-3.218H24.2l2.334-2.266,3.173-3.1a1.669,1.669,0,0,1,2.334,0,1.587,1.587,0,0,1,0,2.266l-3.173,3.1H33.36a1.61,1.61,0,1,1,0,3.218H28.873Z" transform="translate(-11.446 -19.566)"/>
      </g>
      <path id="Path_88" data-name="Path 88" class="cls-2" d="M.221-4.767A4.37,4.37,0,0,0,4.563-.123C5.5-.123,7.4-.4,7.4-1.612a.888.888,0,0,0-.833-.858c-.517,0-.947.53-2.007.53C3.01-1.94,2.19-3.228,2.19-4.73c0-1.54.808-2.865,2.373-2.865,1.06,0,1.414.442,1.931.442A.8.8,0,0,0,7.276-8c0-1.111-1.792-1.414-2.714-1.414A4.356,4.356,0,0,0,.221-4.767ZM7.832-1.5a1.081,1.081,0,0,0-.088.416A.906.906,0,0,0,8.677-.2a.877.877,0,0,0,.909-.669l.379-1.174h3.509l.379,1.186a.885.885,0,0,0,.921.656.841.841,0,0,0,.871-.833,1.471,1.471,0,0,0-.1-.467L13.069-8.364a1.428,1.428,0,0,0-1.35-1.048,1.484,1.484,0,0,0-1.35,1.048Zm3.875-5.945h.025l1.174,3.66h-2.4Zm4.531,6.26a.9.9,0,0,0,.947.984.9.9,0,0,0,.947-.984V-3.922h.025l2.8,3.4A.975.975,0,0,0,21.69-.2a.966.966,0,0,0,.947-.972.818.818,0,0,0-.252-.555l-2.146-2.3a2.45,2.45,0,0,0,2.335-2.385c0-1.982-1.2-2.852-3.143-2.852H17.209a.893.893,0,0,0-.972.984ZM18.13-7.519h1.3A1.058,1.058,0,0,1,20.6-6.408,1.074,1.074,0,0,1,19.43-5.285h-1.3ZM28.1-5.6a.842.842,0,0,0-.883.858.848.848,0,0,0,.883.883h1.287a1.971,1.971,0,0,1-2.146,1.994c-1.6,0-2.373-1.363-2.373-2.9s.8-2.9,2.373-2.9c1.653,0,1.83.921,2.688.921a.8.8,0,0,0,.783-.883c0-.883-1.565-1.78-3.471-1.78A4.356,4.356,0,0,0,22.9-4.767,4.37,4.37,0,0,0,27.243-.123a4,4,0,0,0,4.114-4.266c0-.808-.316-1.212-1.111-1.212Zm8.027,3.736c-1.6,0-2.373-1.363-2.373-2.9s.8-2.9,2.373-2.9S38.5-6.295,38.5-4.767,37.731-1.865,36.128-1.865Zm0,1.742A4.355,4.355,0,0,0,40.47-4.767a4.415,4.415,0,0,0-4.342-4.645,4.356,4.356,0,0,0-4.342,4.645A4.37,4.37,0,0,0,36.128-.123Z" transform="translate(105.19 41.379)"/>
    </g>
    <path id="Path_84" data-name="Path 84" class="cls-1" d="M644.5,99.108a1.975,1.975,0,1,1,1.972,2.085A1.993,1.993,0,0,1,644.5,99.108Zm3.6,0a1.641,1.641,0,1,0-3.263,0,1.674,1.674,0,0,0,1.632,1.768A1.647,1.647,0,0,0,648.1,99.108Zm-2.357-1.156h.748c.43,0,.839.159.839.7a.663.663,0,0,1-.431.612l.521.929h-.408l-.431-.816h-.5v.816h-.34Zm.657,1.11c.317,0,.544-.113.544-.408,0-.249-.136-.408-.521-.408h-.34v.816Z" transform="translate(1521.465 -456.443)"/>
  </g>
</svg>
