<svg xmlns="http://www.w3.org/2000/svg" viewBox="0 0 100 100">
  <defs>
    <style>
      .cls-1, .cls-2 {
        fill: #1b4298;
      }

      .cls-2 {
        fill-rule: evenodd;
      }

      .cls-3 {
        fill: #fff;
      }
    </style>
  </defs>
  <g id="PAQJET_100X100" transform="translate(-3003 400.355)">
    <g id="Group_412" data-name="Group 412" transform="translate(3003 -400.355)">
      <g id="Group_409" data-name="Group 409">
        <g id="Group_408" data-name="Group 408">
          <path id="Path_176" data-name="Path 176" class="cls-1" d="M50,101.9a49.975,49.975,0,0,1-50-50,49.975,49.975,0,0,1,50-50,49.975,49.975,0,0,1,50,50,49.975,49.975,0,0,1-50,50ZM50,5.058A46.837,46.837,0,0,0,16.882,85.018,46.837,46.837,0,1,0,83.118,18.782,46.486,46.486,0,0,0,50,5.058Z" transform="translate(0 -1.9)"/>
        </g>
      </g>
      <g id="Group_411" data-name="Group 411" transform="translate(5.789 68.947)">
        <g id="Group_410" data-name="Group 410">
          <path id="Path_177" data-name="Path 177" class="cls-1" d="M44,525.9h88.421s-9.474,28.421-44.211,29.474C88.211,555.374,56.632,555.374,44,525.9Z" transform="translate(-44 -525.9)"/>
        </g>
      </g>
    </g>
    <g id="Group_415" data-name="Group 415" transform="translate(3013.434 -379.816)">
      <g id="Group_414" data-name="Group 414">
        <g id="Group_413" data-name="Group 413">
          <path id="Path_178" data-name="Path 178" class="cls-2" d="M100.366,176.7l18.526-9.487-9.25-3.553L92.55,173.171l7.816,3.526Zm11.158,5.5v9.289c-.711.382-1.408.776-2.132,1.158v-9.408l-.829.395c.316-.829.632-1.658.934-2.487s.618-1.645.934-2.474c.3.539.618,1.066.921,1.592s.605,1.053.908,1.566c-.25.132-.5.25-.737.368Zm-5.789,2.816v9.645c-.75.408-1.5.816-2.263,1.237v-9.776c-.289.145-.579.289-.882.434.329-.868.671-1.724,1-2.592l.987-2.566c.329.553.658,1.092.974,1.632s.645,1.079.974,1.605c-.263.132-.526.263-.789.382Zm-4.066,13.934v2.2c2.013-1.132,3.974-2.224,5.908-3.316q2.822-1.579,5.553-3.118v-2.066q-2.724,1.5-5.553,3.053-2.882,1.6-5.908,3.25Zm4.237-36.724-17,9.289L82.892,168.8l17.605-8.645,5.408,2.066ZM91.247,174.934l8.066,3.645v23.526l-17.855-8.829V170.513l6.566,2.974v3.539l3.224,1.5v-3.592Zm30.211-9.039,1.132,1.171v24.711l-.539.934-20.579,11.737-1.039.592-1.105-.553-19.421-9.579-.605-.961V168.855l1.053-1.184,19.618-9.632.855-.039Z" transform="translate(-79.3 -158)"/>
        </g>
      </g>
    </g>
    <g id="Group_422" data-name="Group 422" transform="translate(3059.316 -372.408)">
      <g id="Group_417" data-name="Group 417">
        <g id="Group_416" data-name="Group 416">
          <path id="Path_179" data-name="Path 179" class="cls-1" d="M456.658,246.366H436.118A8.131,8.131,0,0,1,428,238.247V222.418a8.131,8.131,0,0,1,8.118-8.118h20.539a8.131,8.131,0,0,1,8.118,8.118v15.829A8.131,8.131,0,0,1,456.658,246.366ZM436.118,217.5a4.936,4.936,0,0,0-4.934,4.934v15.829a4.936,4.936,0,0,0,4.934,4.934h20.539a4.936,4.936,0,0,0,4.934-4.934V222.418a4.936,4.936,0,0,0-4.934-4.934H436.118Z" transform="translate(-428 -214.3)"/>
        </g>
      </g>
      <g id="Group_419" data-name="Group 419" transform="translate(2.373 2.373)">
        <g id="Group_418" data-name="Group 418">
          <path id="Path_180" data-name="Path 180" class="cls-1" d="M462.936,246.709a1.614,1.614,0,0,1-.934-.3l-15.316-11.2a1.591,1.591,0,0,1,1.882-2.566l15.316,11.2a1.584,1.584,0,0,1,.342,2.224A1.614,1.614,0,0,1,462.936,246.709Z" transform="translate(-446.032 -232.332)"/>
        </g>
      </g>
      <g id="Group_421" data-name="Group 421" transform="translate(17.673 2.358)">
        <g id="Group_420" data-name="Group 420">
          <path id="Path_181" data-name="Path 181" class="cls-1" d="M563.921,246.61a1.6,1.6,0,0,1-1.026-2.829l13.553-11.2a1.6,1.6,0,1,1,2.039,2.461l-13.553,11.2A1.578,1.578,0,0,1,563.921,246.61Z" transform="translate(-562.318 -232.218)"/>
        </g>
      </g>
    </g>
    <g id="Group_423" data-name="Group 423" transform="translate(3033.013 -323.434)">
      <path id="Path_182" data-name="Path 182" class="cls-3" d="M228.113,593.1h2.579c2.026,0,3.395.684,3.395,2.671,0,1.908-1.355,2.8-3.342,2.8h-1.487v3.592H228.1V593.1Zm2.487,4.526c1.579,0,2.342-.579,2.342-1.855,0-1.3-.8-1.737-2.395-1.737h-1.289v3.592Z" transform="translate(-228.1 -592.232)"/>
      <path id="Path_183" data-name="Path 183" class="cls-3" d="M276.253,593.1h1.3l3.066,9.053H279.4l-1.579-5.053c-.329-1.013-.618-2-.908-3.053h-.053c-.276,1.053-.566,2.039-.895,3.053l-1.592,5.053H273.2Zm-1.447,5.382h4.171v.921h-4.171Z" transform="translate(-267.266 -592.232)"/>
      <path id="Path_184" data-name="Path 184" class="cls-3" d="M334.2,596.458c0-2.895,1.592-4.658,3.868-4.658s3.868,1.763,3.868,4.658-1.592,4.724-3.868,4.724S334.2,599.366,334.2,596.458Zm6.553,0c0-2.25-1.066-3.645-2.684-3.645s-2.684,1.395-2.684,3.645c0,2.3,1.066,3.776,2.684,3.776S340.753,598.774,340.753,596.458ZM337.45,601l1.2-.092a2.31,2.31,0,0,0,2.316,1.434,3.4,3.4,0,0,0,.947-.132l.224.895a3.842,3.842,0,0,1-1.289.211A3.488,3.488,0,0,1,337.45,601Z" transform="translate(-320.239 -591.103)"/>
      <path id="Path_185" data-name="Path 185" class="cls-3" d="M402.176,593.658c0,2.316-1.474,2.921-2.737,2.921-.947,0-2.539-.368-2.539-1.579a.853.853,0,0,1,.776-.842c.553,0,1.039.513,1.658.513.776,0,.776-.724.776-1.158v-5.934a1.04,1.04,0,1,1,2.079,0v6.079Z" transform="translate(-374.689 -586.5)"/>
      <path id="Path_186" data-name="Path 186" class="cls-3" d="M445.8,588.5a1.05,1.05,0,0,1,1.079-1.2H450.3a.948.948,0,1,1,0,1.895h-2.434v2.013h2.263a.949.949,0,1,1,0,1.895h-2.263v2.092h2.566a.948.948,0,1,1,0,1.895h-3.553a1.009,1.009,0,0,1-1.066-1.039V588.5Z" transform="translate(-417.155 -587.195)"/>
      <path id="Path_187" data-name="Path 187" class="cls-3" d="M490.934,589.195h-1.5a.891.891,0,0,1-.934-.947.915.915,0,0,1,.934-.947h5.079a.923.923,0,0,1,.934.947.884.884,0,0,1-.934.947h-1.5v6.921a1.04,1.04,0,1,1-2.079,0Z" transform="translate(-454.237 -587.195)"/>
    </g>
  </g>
</svg>
