<svg xmlns="http://www.w3.org/2000/svg" viewBox="0 0 100 100">
  <defs>
    <style>
      .cls-1, .cls-2 {
        fill: #1b4298;
      }

      .cls-2 {
        fill-rule: evenodd;
      }

      .cls-3 {
        fill: #fff;
      }
    </style>
  </defs>
  <g id="PHARMAJET_100X100" transform="translate(-3232.062 400.495)">
    <g id="Group_476" data-name="Group 476" transform="translate(3232.062 -400.495)">
      <g id="Group_473" data-name="Group 473">
        <g id="Group_472" data-name="Group 472">
          <path id="Path_214" data-name="Path 214" class="cls-1" d="M1849.2,100.8a49.975,49.975,0,0,1-50-50,49.991,49.991,0,1,1,69.46,46.066A49.461,49.461,0,0,1,1849.2,100.8Zm0-96.842a46.836,46.836,0,0,0-33.119,79.961,46.837,46.837,0,1,0,66.237-66.237A46.486,46.486,0,0,0,1849.2,3.958Z" transform="translate(-1799.2 -0.8)"/>
        </g>
      </g>
      <g id="Group_475" data-name="Group 475" transform="translate(5.789 68.947)">
        <g id="Group_474" data-name="Group 474">
          <path id="Path_215" data-name="Path 215" class="cls-1" d="M1843.2,524.8h88.421s-9.474,28.421-44.211,29.474C1887.41,554.274,1855.831,554.274,1843.2,524.8Z" transform="translate(-1843.2 -524.8)"/>
        </g>
      </g>
    </g>
    <g id="Group_478" data-name="Group 478" transform="translate(3247.97 -382.947)">
      <g id="Group_477" data-name="Group 477">
        <path id="Path_216" data-name="Path 216" class="cls-2" d="M1951.482,152.12v-.092c-1.632-1.263-3-2.355-4.263-3.355a.411.411,0,0,1-.276-.368v-5.618h1.276v-3.263c0-7.711-22.5-6.263-22.5,0v3.263h1.276V148.3a.411.411,0,0,1-.276.368c-1.276,1-2.632,2-4.263,3.355-1.447,1.276-2.355,2.092-2.355,4.8v18.605a5.181,5.181,0,0,0,5.171,5.263h23.395a5.127,5.127,0,0,0,5.171-5.263V156.844C1953.837,154.12,1952.929,153.3,1951.482,152.12Zm-.908,14.605v8.711a1.92,1.92,0,0,1-1.908,2h-23.395a1.87,1.87,0,0,1-1.908-2V156.831c0-1.276,0-1.355,1.092-2.263h.092c1.54-1.276,2.908-2.355,4.079-3.263a3.515,3.515,0,0,0,1.632-3v-5.618h13.421V148.3a3.669,3.669,0,0,0,1.539,3c1.276.908,2.54,2,4.171,3.263,1.184.908,1.184,1,1.184,2.263Z" transform="translate(-1920.1 -134.169)"/>
      </g>
    </g>
    <g id="Group_480" data-name="Group 480" transform="translate(3255.128 -356.101)">
      <g id="Group_479" data-name="Group 479">
        <rect id="Rectangle_129" data-name="Rectangle 129" class="cls-1" width="20.053" height="13.25"/>
      </g>
    </g>
    <g id="Group_482" data-name="Group 482" transform="translate(3283.01 -362.14)">
      <g id="Group_481" data-name="Group 481">
        <path id="Path_217" data-name="Path 217" class="cls-2" d="M2203.532,313.366l6.329-11.579-.105-.2-2.171-3.263-1.184-1.184a20.022,20.022,0,0,0-11.869-4.842h-.3l-6.724,12.263a8.712,8.712,0,0,0-1.092,4.75,9.027,9.027,0,0,0,4.75,7.618,9.229,9.229,0,0,0,12.369-3.566Z" transform="translate(-2186.4 -292.3)"/>
      </g>
    </g>
    <g id="Group_484" data-name="Group 484" transform="translate(3291.733 -381.849)">
      <g id="Group_483" data-name="Group 483">
        <path id="Path_218" data-name="Path 218" class="cls-2" d="M2277.332,151.632a9.213,9.213,0,0,0-4.948-7.908,9.355,9.355,0,0,0-12.855,3.763l-6.829,12.171,2.079.395c4.052.592,9.5,2.368,12.96,7.513l1.382,1.974,7.026-12.855A9.029,9.029,0,0,0,2277.332,151.632ZM2273.4,155.7l-4.855,8.8a21.642,21.642,0,0,0-11.579-6.632l4.75-8.605a6.556,6.556,0,0,1,9-2.566,6.417,6.417,0,0,1,3.46,5.434A6.857,6.857,0,0,1,2273.4,155.7Z" transform="translate(-2252.7 -142.516)"/>
      </g>
    </g>
    <g id="Group_485" data-name="Group 485" transform="translate(3249.088 -323.43)">
      <path id="Path_219" data-name="Path 219" class="cls-3" d="M1928.613,593.1h2.579c2.026,0,3.395.684,3.395,2.671,0,1.908-1.355,2.8-3.342,2.8h-1.487v3.592H1928.6V593.1Zm2.5,4.526c1.579,0,2.342-.579,2.342-1.855,0-1.3-.8-1.737-2.395-1.737h-1.29v3.592Z" transform="translate(-1928.6 -592.232)"/>
      <path id="Path_220" data-name="Path 220" class="cls-3" d="M1988.1,593.1h1.158v3.789h4.21V593.1h1.158v9.053h-1.158V597.9h-4.21v4.25H1988.1Z" transform="translate(-1980.271 -592.232)"/>
      <path id="Path_221" data-name="Path 221" class="cls-3" d="M2050.353,593.1h1.3l3.066,9.053H2053.5l-1.579-5.053c-.329-1.013-.618-2-.908-3.053h-.052c-.277,1.053-.566,2.039-.895,3.053l-1.592,5.053H2047.3Zm-1.447,5.382h4.171v.921h-4.171Z" transform="translate(-2031.682 -592.232)"/>
      <path id="Path_222" data-name="Path 222" class="cls-3" d="M2112.813,593.1h2.829c1.842,0,3.171.658,3.171,2.553,0,1.8-1.329,2.684-3.171,2.684h-1.684v3.829H2112.8V593.1Zm2.671,4.29c1.408,0,2.184-.566,2.184-1.75s-.777-1.618-2.184-1.618h-1.513v3.355h1.513Zm-.052.618.908-.592,2.763,4.737h-1.3Z" transform="translate(-2088.563 -592.232)"/>
      <path id="Path_223" data-name="Path 223" class="cls-3" d="M2172.513,593.1h1.382l1.737,4.842c.224.618.421,1.263.645,1.882h.053c.223-.632.408-1.263.632-1.882l1.71-4.842h1.382v9.053h-1.066v-4.987c0-.789.092-1.882.145-2.671h-.052l-.724,2.066-1.71,4.684h-.763l-1.71-4.684-.724-2.066h-.053c.053.8.145,1.895.145,2.671v4.987h-1.04V593.1Z" transform="translate(-2140.408 -592.232)"/>
      <path id="Path_224" data-name="Path 224" class="cls-3" d="M2242.752,593.1h1.3l3.066,9.053H2245.9l-1.579-5.053c-.329-1.013-.618-2-.908-3.053h-.053c-.276,1.053-.566,2.039-.895,3.053l-1.592,5.053H2239.7Zm-1.447,5.382h4.171v.921h-4.171Z" transform="translate(-2198.766 -592.232)"/>
      <path id="Path_225" data-name="Path 225" class="cls-3" d="M2300.176,593.658c0,2.316-1.474,2.921-2.737,2.921-.947,0-2.54-.368-2.54-1.579a.853.853,0,0,1,.776-.842c.553,0,1.039.513,1.658.513.776,0,.776-.724.776-1.158v-5.934a1.04,1.04,0,1,1,2.079,0v6.079Z" transform="translate(-2246.703 -586.5)"/>
      <path id="Path_226" data-name="Path 226" class="cls-3" d="M2343.8,588.5a1.05,1.05,0,0,1,1.079-1.2h3.421a.948.948,0,1,1,0,1.895h-2.434v2.013h2.263a.95.95,0,1,1,0,1.895h-2.263v2.092h2.552a.948.948,0,1,1,0,1.895h-3.553a1.009,1.009,0,0,1-1.066-1.039Z" transform="translate(-2289.168 -587.195)"/>
      <path id="Path_227" data-name="Path 227" class="cls-3" d="M2388.834,589.195h-1.5a.891.891,0,0,1-.934-.947.915.915,0,0,1,.934-.947h5.079a.923.923,0,0,1,.934.947.884.884,0,0,1-.934.947h-1.5v6.921a1.04,1.04,0,1,1-2.079,0Z" transform="translate(-2326.163 -587.195)"/>
    </g>
  </g>
</svg>
