<svg id="SAFEJET_100X100" xmlns="http://www.w3.org/2000/svg" viewBox="0 0 100 100">
  <defs>
    <style>
      .cls-1 {
        fill: #1b4298;
      }

      .cls-2 {
        fill: #fff;
      }
    </style>
  </defs>
  <g id="Group_608" data-name="Group 608">
    <g id="Group_605" data-name="Group 605">
      <g id="Group_604" data-name="Group 604">
        <path id="Path_279" data-name="Path 279" class="cls-1" d="M50,100A49.975,49.975,0,0,1,0,50,49.975,49.975,0,0,1,50,0a49.975,49.975,0,0,1,50,50,49.975,49.975,0,0,1-50,50ZM50,3.158A46.837,46.837,0,0,0,16.882,83.118,46.837,46.837,0,1,0,83.118,16.882,46.486,46.486,0,0,0,50,3.158Z"/>
      </g>
    </g>
    <g id="Group_607" data-name="Group 607" transform="translate(5.789 68.947)">
      <g id="Group_606" data-name="Group 606">
        <path id="Path_280" data-name="Path 280" class="cls-1" d="M44,524h88.421s-9.474,28.421-44.211,29.474C88.211,553.474,56.632,553.474,44,524Z" transform="translate(-44 -524)"/>
      </g>
    </g>
  </g>
  <g id="Group_648" data-name="Group 648" transform="translate(27.697 18.118)">
    <g id="Group_610" data-name="Group 610" transform="translate(12.171 10.75)">
      <g id="Group_609" data-name="Group 609">
        <path id="Path_281" data-name="Path 281" class="cls-1" d="M313.947,241.295a10.947,10.947,0,1,1,10.947-10.947A10.956,10.956,0,0,1,313.947,241.295Zm0-19.961a9.013,9.013,0,1,0,9.013,9.013A9.018,9.018,0,0,0,313.947,221.334Z" transform="translate(-303 -219.4)"/>
      </g>
    </g>
    <g id="Group_612" data-name="Group 612" transform="translate(16.816 15.421)">
      <g id="Group_611" data-name="Group 611">
        <path id="Path_282" data-name="Path 282" class="cls-1" d="M344.682,254.9a6.382,6.382,0,1,0,6.382,6.382A6.379,6.379,0,0,0,344.682,254.9Zm.7,3.974a.618.618,0,1,1-1.237,0v-1.855a.618.618,0,0,1,1.237,0Z" transform="translate(-338.3 -254.9)"/>
      </g>
    </g>
    <g id="Group_614" data-name="Group 614" transform="translate(22.724 11.711)">
      <g id="Group_613" data-name="Group 613">
        <rect id="Rectangle_211" data-name="Rectangle 211" class="cls-1" width="0.776" height="3.934"/>
      </g>
    </g>
    <g id="Group_616" data-name="Group 616" transform="translate(17.792 12.854)">
      <g id="Group_615" data-name="Group 615" transform="translate(0 0)">
        <rect id="Rectangle_212" data-name="Rectangle 212" class="cls-1" width="0.776" height="3.934" transform="matrix(0.866, -0.5, 0.5, 0.866, 0, 0.388)"/>
      </g>
    </g>
    <g id="Group_618" data-name="Group 618" transform="translate(14.282 16.368)">
      <g id="Group_617" data-name="Group 617" transform="translate(0 0)">
        <rect id="Rectangle_213" data-name="Rectangle 213" class="cls-1" width="0.776" height="3.934" transform="matrix(0.5, -0.866, 0.866, 0.5, 0, 0.672)"/>
      </g>
    </g>
    <g id="Group_620" data-name="Group 620" transform="translate(13.132 21.303)">
      <g id="Group_619" data-name="Group 619">
        <rect id="Rectangle_214" data-name="Rectangle 214" class="cls-1" width="3.934" height="0.776"/>
      </g>
    </g>
    <g id="Group_622" data-name="Group 622" transform="translate(14.283 24.385)">
      <g id="Group_621" data-name="Group 621" transform="translate(0 0)">
        <rect id="Rectangle_215" data-name="Rectangle 215" class="cls-1" width="3.934" height="0.776" transform="translate(0 1.967) rotate(-29.993)"/>
      </g>
    </g>
    <g id="Group_624" data-name="Group 624" transform="translate(17.794 26.734)">
      <g id="Group_623" data-name="Group 623" transform="translate(0 0)">
        <rect id="Rectangle_216" data-name="Rectangle 216" class="cls-1" width="3.934" height="0.776" transform="translate(0 3.407) rotate(-60.012)"/>
      </g>
    </g>
    <g id="Group_626" data-name="Group 626" transform="translate(22.724 27.737)">
      <g id="Group_625" data-name="Group 625">
        <rect id="Rectangle_217" data-name="Rectangle 217" class="cls-1" width="0.776" height="3.934"/>
      </g>
    </g>
    <g id="Group_628" data-name="Group 628" transform="translate(25.813 26.738)">
      <g id="Group_627" data-name="Group 627" transform="translate(0 0)">
        <rect id="Rectangle_218" data-name="Rectangle 218" class="cls-1" width="0.776" height="3.934" transform="translate(0 0.388) rotate(-29.998)"/>
      </g>
    </g>
    <g id="Group_630" data-name="Group 630" transform="translate(28.166 24.379)">
      <g id="Group_629" data-name="Group 629" transform="translate(0 0)">
        <rect id="Rectangle_219" data-name="Rectangle 219" class="cls-1" width="0.776" height="3.934" transform="matrix(0.5, -0.866, 0.866, 0.5, 0, 0.672)"/>
      </g>
    </g>
    <g id="Group_632" data-name="Group 632" transform="translate(29.158 21.303)">
      <g id="Group_631" data-name="Group 631">
        <rect id="Rectangle_220" data-name="Rectangle 220" class="cls-1" width="3.934" height="0.776"/>
      </g>
    </g>
    <g id="Group_634" data-name="Group 634" transform="translate(28.163 16.366)">
      <g id="Group_633" data-name="Group 633" transform="translate(0 0)">
        <rect id="Rectangle_221" data-name="Rectangle 221" class="cls-1" width="3.934" height="0.776" transform="translate(0 1.966) rotate(-29.98)"/>
      </g>
    </g>
    <g id="Group_636" data-name="Group 636" transform="translate(25.805 12.856)">
      <g id="Group_635" data-name="Group 635" transform="translate(0 0)">
        <rect id="Rectangle_222" data-name="Rectangle 222" class="cls-1" width="3.934" height="0.776" transform="matrix(0.5, -0.866, 0.866, 0.5, 0, 3.407)"/>
      </g>
    </g>
    <g id="Group_638" data-name="Group 638" transform="translate(37.053 17.368)">
      <g id="Group_637" data-name="Group 637">
        <path id="Path_283" data-name="Path 283" class="cls-1" d="M494.916,278.555a1.41,1.41,0,0,1-1.408,1.408h0a1.409,1.409,0,0,1-1.408-1.408v-7.447a1.409,1.409,0,0,1,1.408-1.408h0a1.409,1.409,0,0,1,1.408,1.408Z" transform="translate(-492.1 -269.7)"/>
      </g>
    </g>
    <g id="Group_640" data-name="Group 640" transform="translate(0 28.75)">
      <g id="Group_639" data-name="Group 639">
        <path id="Path_284" data-name="Path 284" class="cls-1" d="M212.145,361.911h4.461c.895,0,1.645-.526,1.645-1.158v-3.395c0-.632-.75-1.158-1.645-1.158h-4.461c-.882,0-1.645.526-1.645,1.158v3.382C210.5,361.384,211.25,361.911,212.145,361.911Z" transform="translate(-210.5 -356.2)"/>
      </g>
    </g>
    <g id="Group_642" data-name="Group 642" transform="translate(0 10.5)">
      <g id="Group_641" data-name="Group 641">
        <path id="Path_285" data-name="Path 285" class="cls-1" d="M212.145,223.2h4.461c.895,0,1.645-.526,1.645-1.158v-3.382c0-.632-.75-1.158-1.645-1.158h-4.461c-.882,0-1.645.526-1.645,1.158v3.382C210.5,222.671,211.25,223.2,212.145,223.2Z" transform="translate(-210.5 -217.5)"/>
      </g>
    </g>
    <g id="Group_647" data-name="Group 647" transform="translate(1.934)">
      <g id="Group_644" data-name="Group 644" transform="translate(0.013)">
        <g id="Group_643" data-name="Group 643">
          <path id="Path_286" data-name="Path 286" class="cls-1" d="M261.866,137.7H232.589a7.3,7.3,0,0,0-7.289,7.289v1.645h3.868v-1.645a3.431,3.431,0,0,1,3.421-3.421h29.276a3.431,3.431,0,0,1,3.421,3.421v29.276a3.431,3.431,0,0,1-3.421,3.421H232.589a3.431,3.431,0,0,1-3.421-3.421V173.7H225.3v.566a7.3,7.3,0,0,0,7.289,7.289h29.276a7.3,7.3,0,0,0,7.289-7.289V144.989A7.3,7.3,0,0,0,261.866,137.7Z" transform="translate(-225.3 -137.7)"/>
        </g>
      </g>
      <g id="Group_646" data-name="Group 646" transform="translate(0 17.75)">
        <g id="Group_645" data-name="Group 645">
          <rect id="Rectangle_223" data-name="Rectangle 223" class="cls-1" width="3.868" height="9.461"/>
        </g>
      </g>
    </g>
  </g>
  <g id="Group_649" data-name="Group 649" transform="translate(26.737 76.921)">
    <path id="Path_287" data-name="Path 287" class="cls-2" d="M203.2,597.853l.684-.789a3.559,3.559,0,0,0,2.5,1.118c1.184,0,1.895-.592,1.895-1.474,0-.921-.658-1.224-1.513-1.592l-1.3-.579a2.543,2.543,0,0,1-1.829-2.329,2.586,2.586,0,0,1,2.855-2.408,3.749,3.749,0,0,1,2.671,1.118l-.605.737a2.894,2.894,0,0,0-2.053-.855c-1.013,0-1.684.513-1.684,1.316,0,.868.789,1.2,1.5,1.5l1.289.553a2.517,2.517,0,0,1,1.868,2.421c0,1.434-1.184,2.579-3.079,2.579A4.215,4.215,0,0,1,203.2,597.853Z" transform="translate(-203.2 -589.116)"/>
    <path id="Path_288" data-name="Path 288" class="cls-2" d="M258.153,591.2h1.3l3.066,9.053H261.3l-1.579-5.053c-.329-1.013-.618-2-.908-3.053h-.053c-.276,1.053-.566,2.039-.895,3.053l-1.592,5.053H255.1Zm-1.447,5.382h4.171v.921h-4.171Z" transform="translate(-248.271 -590.332)"/>
    <path id="Path_289" data-name="Path 289" class="cls-2" d="M320.7,591.2h5.224v.974h-4.066v3.053h3.447v.974h-3.447v4.053H320.7Z" transform="translate(-305.239 -590.332)"/>
    <path id="Path_290" data-name="Path 290" class="cls-2" d="M372.6,591.2h5.224v.974h-4.066v2.842h3.434v.974h-3.434v3.289h4.2v.974H372.6Z" transform="translate(-350.311 -590.332)"/>
    <path id="Path_291" data-name="Path 291" class="cls-2" d="M422.176,591.758c0,2.316-1.474,2.921-2.737,2.921-.947,0-2.539-.368-2.539-1.579a.853.853,0,0,1,.776-.842c.553,0,1.039.513,1.658.513.776,0,.776-.724.776-1.158v-5.934a1.04,1.04,0,1,1,2.079,0v6.079Z" transform="translate(-388.782 -584.6)"/>
    <path id="Path_292" data-name="Path 292" class="cls-2" d="M465.8,586.6a1.05,1.05,0,0,1,1.079-1.2H470.3a.948.948,0,1,1,0,1.895h-2.421v2.013h2.263a.949.949,0,1,1,0,1.895h-2.263v2.092h2.553a.948.948,0,1,1,0,1.895h-3.553a1.009,1.009,0,0,1-1.066-1.039V586.6Z" transform="translate(-431.247 -585.295)"/>
    <path id="Path_293" data-name="Path 293" class="cls-2" d="M510.834,587.295h-1.5a.891.891,0,0,1-.934-.947.915.915,0,0,1,.934-.947H514.4a.923.923,0,0,1,.934.947.884.884,0,0,1-.934.947h-1.5v6.921a1.04,1.04,0,1,1-2.079,0v-6.921Z" transform="translate(-468.242 -585.295)"/>
  </g>
</svg>
