<?xml version="1.0" encoding="utf-8"?>
<!-- Generator: Adobe Illustrator 16.0.0, SVG Export Plug-In . SVG Version: 6.00 Build 0)  -->
<!DOCTYPE svg PUBLIC "-//W3C//DTD SVG 1.1//EN" "http://www.w3.org/Graphics/SVG/1.1/DTD/svg11.dtd">
<svg version="1.1" id="svg11533" xmlns:svg="http://www.w3.org/2000/svg"
	 xmlns="http://www.w3.org/2000/svg" xmlns:xlink="http://www.w3.org/1999/xlink" x="0px" y="0px" width="80px" height="70.849px"
	 viewBox="438.347 392.252 80 70.849" enable-background="new 438.347 392.252 80 70.849" xml:space="preserve">
<g>
	<path id="path5332" fill="#FFFFFF" d="M447.673,392.252h70.243v70.505h-70.243V392.252z"/>
	<path id="path5336" fill="#1790CD" d="M443.161,461.298h-0.618c-0.079-0.249-0.092-0.713-0.092-0.825
		c0-0.226-0.037-0.458-0.458-0.458h-0.909v1.283h-0.545v-3.131h1.454c0.498,0,1.051,0.176,1.051,0.872
		c0,0.394-0.165,0.584-0.338,0.704c0.143,0.081,0.266,0.216,0.282,0.57l0.022,0.543c0.005,0.156,0.022,0.188,0.151,0.26V461.298z
		 M442.487,459.082c0-0.395-0.271-0.428-0.467-0.428h-0.937v0.872h0.867C442.238,459.526,442.487,459.458,442.487,459.082
		 M445.059,459.766c0-1.854-1.504-3.338-3.358-3.338s-3.354,1.484-3.354,3.338s1.501,3.335,3.354,3.335
		S445.059,461.62,445.059,459.766 M444.55,459.766c0,1.574-1.208,2.849-2.849,2.849c-1.638,0-2.846-1.274-2.846-2.849
		s1.202-2.849,2.846-2.849C443.348,456.917,444.55,458.192,444.55,459.766"/>
	
		<radialGradient id="path5348_1_" cx="875.5576" cy="230.7988" r="35.1217" gradientTransform="matrix(1.5231 1.6324 1.5 -1.3996 -1220.5905 -703.5112)" gradientUnits="userSpaceOnUse">
		<stop  offset="0" style="stop-color:#7FD3F3"/>
		<stop  offset="1" style="stop-color:#017CC2"/>
	</radialGradient>
	<path id="path5348" fill="url(#path5348_1_)" d="M517.916,430.649h-3.66c-1.093,0-1.913,0.254-2.477,0.662v-0.662h-5.396
		c-0.855,0-1.887,0.207-2.365,0.662v-0.662h-9.642v0.662c-0.772-0.545-2.063-0.662-2.673-0.662h-6.366v0.662
		c-0.61-0.587-1.946-0.662-2.765-0.662h-7.138l-1.633,1.767l-1.518-1.767h-10.643v11.523h10.445l1.674-1.795l1.585,1.79l6.43,0.005
		v-2.717h0.64c0.85,0,1.856-0.02,2.734-0.397v3.114h5.326v-3.017h0.26c0.324-0.002,0.349,0.025,0.349,0.333v2.684h16.123
		c1.015,0,2.108-0.263,2.698-0.729v0.729h5.11c1.06,0,2.108-0.153,2.899-0.528v21.113h-70.243v-34.798h3.372l0.761-1.848h1.7
		l0.763,1.848h6.637v-1.406l0.596,1.409h3.436l0.599-1.431v1.428h16.486l-0.003-3.017h0.322c0.237,0,0.293,0.028,0.293,0.395v2.622
		h8.53l-0.003-0.715c0.679,0.369,1.748,0.715,3.167,0.715h3.587l0.774-1.848h1.7l0.763,1.848h6.894v-1.75l1.06,1.75h5.539v-11.524
		h-5.477v1.359l-0.786-1.359h-5.628v1.359l-0.69-1.359h-7.602c-1.28,0-2.407,0.17-3.302,0.663v-0.663h-5.239v0.663
		c-0.595-0.503-1.37-0.663-2.236-0.663H464.52l-1.297,2.972l-1.311-2.972h-6.03v1.359l-0.682-1.359h-5.147l-2.379,5.466v-29.649
		h70.243V430.649 M512.895,426.332h-2.813l-3.738-6.198l0.003,6.198h-4.018l-0.76-1.851h-4.11l-0.758,1.851h-2.298
		c-0.97,0-2.184-0.224-2.871-0.92c-0.693-0.707-1.046-1.649-1.046-3.153c0-1.228,0.218-2.349,1.06-3.229
		c0.635-0.657,1.644-0.968,3.005-0.968h1.887v1.773l-1.848-0.003c-0.729,0-1.141,0.109-1.526,0.495
		c-0.347,0.344-0.579,1.004-0.579,1.873c0,0.881,0.173,1.513,0.562,1.938c0.291,0.322,0.839,0.422,1.37,0.422h0.886l2.782-6.498
		h2.941l3.347,7.82v-7.82h3.017l3.472,5.757l-0.003-5.757h2.035V426.332z M487.501,426.332h2.021v-8.272h-2.021V426.332z
		 M485.349,418.462c-0.638-0.363-1.378-0.4-2.379-0.4h-4.549v8.27h1.974v-3.011h2.119c0.718,0,1.151,0.064,1.434,0.364
		c0.366,0.389,0.324,1.11,0.324,1.602v1.045h1.988v-1.641c0-0.719-0.05-1.099-0.327-1.499c-0.167-0.24-0.54-0.537-0.973-0.702
		c0.52-0.204,1.406-0.883,1.406-2.195C486.366,419.371,485.983,418.828,485.349,418.462 M477.053,424.604l-4.621,0.006v-1.638
		l4.509,0.003v-1.7h-4.509v-1.49h4.621v-1.722h-6.595v8.27h6.595V424.604z M468.985,418.062h-3.288l-2.376,5.608l-2.575-5.608
		h-3.232l0.002,7.823l-3.349-7.823h-2.941l-3.537,8.27h2.152l0.758-1.851h4.11l0.76,1.851h4.018v-6.483l2.871,6.483h1.736
		l2.863-6.475v6.475h2.027V418.062z M500.859,422.759l-1.347-3.285l-1.345,3.285H500.859z M483.769,421.454
		c-0.266,0.159-0.587,0.17-0.967,0.17h-2.407v-1.84h2.435c0.349,0,0.705,0.011,0.939,0.143c0.246,0.137,0.406,0.391,0.406,0.741
		C484.174,421.023,484.021,421.308,483.769,421.454 M451.308,422.759l1.345-3.285l1.348,3.285H451.308 M518.347,437.94
		c0,1.759-1.104,2.603-3.104,2.603h-3.813v-1.772h3.799c0.367,0,0.629-0.05,0.794-0.201c0.131-0.123,0.232-0.308,0.232-0.539
		c0-0.246-0.101-0.431-0.241-0.549c-0.148-0.125-0.349-0.176-0.688-0.185c-1.845-0.05-4.166,0.06-4.166-2.563
		c0-1.185,0.752-2.46,2.829-2.46h3.937v1.775h-3.604c-0.355,0-0.593,0.011-0.786,0.14c-0.209,0.137-0.293,0.333-0.293,0.599
		c0,0.308,0.179,0.522,0.434,0.612c0.201,0.069,0.428,0.087,0.757,0.092l1.06,0.028c1.096,0.024,1.812,0.207,2.256,0.665
		C518.143,436.595,518.347,437.079,518.347,437.94 M510.035,436.184c-0.444-0.456-1.166-0.641-2.262-0.665l-1.057-0.028
		c-0.33-0.005-0.554-0.022-0.758-0.092c-0.251-0.09-0.431-0.305-0.431-0.612c0-0.266,0.084-0.462,0.291-0.599
		c0.193-0.129,0.433-0.14,0.791-0.14h3.621v-1.775h-3.956c-2.077,0-2.829,1.272-2.829,2.46c0,2.626,2.32,2.514,4.163,2.563
		c0.338,0.009,0.542,0.06,0.688,0.185c0.14,0.118,0.243,0.303,0.243,0.549c0,0.231-0.104,0.416-0.235,0.539
		c-0.165,0.151-0.425,0.201-0.794,0.201h-3.833v1.772h3.847c1.999,0,3.103-0.844,3.103-2.603
		C510.627,437.079,510.426,436.595,510.035,436.184 M502.503,438.824l-4.621-0.003v-1.633h4.512v-1.702l-4.512,0.002v-1.49h4.621
		v-1.725h-6.595v8.27h6.595V438.824z M493.797,432.675c-0.64-0.366-1.378-0.402-2.376-0.402h-4.552v8.27h1.971v-3.005l2.125-0.003
		c0.719,0,1.149,0.064,1.435,0.36c0.366,0.392,0.321,1.11,0.321,1.603v1.045h1.991v-1.638c-0.003-0.719-0.05-1.099-0.33-1.499
		c-0.165-0.243-0.537-0.539-0.967-0.704c0.515-0.204,1.401-0.881,1.401-2.195C494.815,433.584,494.432,433.042,493.797,432.675
		 M482.62,432.273h-6.313l-2.519,2.715l-2.421-2.715h-7.951v8.27h7.828l2.524-2.726l2.429,2.726h3.844v-2.768h2.455
		c1.725,0,3.436-0.479,3.436-2.768C485.933,432.72,484.177,432.273,482.62,432.273 M492.22,435.669
		c-0.269,0.154-0.59,0.165-0.97,0.165l-2.41,0.003v-1.84h2.438c0.349,0,0.704,0.012,0.942,0.141c0.246,0.14,0.403,0.394,0.403,0.743
		C492.623,435.237,492.469,435.522,492.22,435.669 M482.597,436.078h-2.555v-2.08h2.578c0.708,0,1.194,0.294,1.194,1.01
		C483.813,435.717,483.35,436.078,482.597,436.078 M475.043,436.427l3.025-3.257v6.617L475.043,436.427z M470.243,438.821h-4.851
		v-1.633h4.325v-1.702l-4.325,0.002v-1.49h4.937l2.167,2.404L470.243,438.821"/>
</g>
</svg>
