<?xml version="1.0" encoding="UTF-8" standalone="no"?>
<svg width="76px" height="13px" viewBox="0 0 76 13" version="1.1" xmlns="http://www.w3.org/2000/svg" xmlns:xlink="http://www.w3.org/1999/xlink">
    <!-- Generator: Sketch 47.1 (45422) - http://www.bohemiancoding.com/sketch -->
    <title>Artboard 4</title>
    <desc>Created with Sketch.</desc>
    <defs>
        <polygon id="path-1" points="69.1615094 0.223945315 69.1615094 11.675675 0.296627009 11.675675 0.296627009 0.223945315"></polygon>
    </defs>
    <g id="Page-1" stroke="none" stroke-width="1" fill="none" fill-rule="evenodd">
        <g id="Artboard-4">
            <g id="Bnamex" transform="translate(1.000000, 0.000000)">
                <g id="Logo_Citibanamex">
                    <g id="Group-3" transform="translate(5.189189, 0.100541)">
                        <mask id="mask-2" fill="white">
                            <use xlink:href="#path-1"></use>
                        </mask>
                        <g id="Clip-2"></g>
                        <path d="M10.7755453,3.00372955 L9.27749134,3.00372955 C8.25295086,1.94772961 6.90732932,1.37367559 5.53608616,1.37367559 C4.14149165,1.37691884 2.81922145,1.94772961 1.79176206,3.00372955 L0.296627009,3.00372955 C1.41814046,1.33897289 3.42408628,0.223945933 5.53608616,0.223945933 C7.67954549,0.22297296 9.68970753,1.37205397 10.7755453,3.00372955 M66.2457042,5.73389155 C66.1792177,5.73389155 66.1153258,5.73875641 66.0507853,5.75302668 C66.1260285,5.70048615 66.2492717,5.56654021 66.2492717,5.35670238 C66.2492717,5.03205375 65.953488,4.68113486 65.7718663,4.44113487 C65.6401907,4.26599975 65.5506772,4.12037813 65.5506772,3.99389165 C65.5506772,3.85735112 65.6703528,3.73313491 65.8088393,3.73313491 C65.879542,3.73313491 65.9567312,3.76199978 66.0488393,3.82686464 C66.9864609,4.49724298 67.24365,5.45626995 67.3098122,5.90610776 C66.8972717,5.79908074 66.4801906,5.73389155 66.2457042,5.73389155 M66.6734879,8.4059995 C66.2693798,8.95216163 65.7760826,9.26026972 65.4929474,9.41335079 C65.4689474,9.09291838 65.4322988,8.80718866 65.389488,8.59637787 C65.3557583,8.45367517 65.3207312,8.30448599 65.245488,8.17021573 C65.2782448,8.19713465 65.3268934,8.21594546 65.3781366,8.23410762 C65.8399745,8.38524274 66.1931636,7.82610764 66.4208393,7.50145901 C66.5739204,7.28837794 66.7114339,7.17486444 66.8599744,7.17486444 C66.9663528,7.17486444 67.1285149,7.24426984 67.1285149,7.41129686 C67.1285149,7.58156712 66.9663528,7.98081034 66.6734879,8.4059995 M65.1105691,8.0070806 C64.9282988,7.83162115 64.5968394,7.70967522 63.9721908,7.70967522 C63.4117584,7.70967522 62.9732719,7.79821575 62.7559746,7.99443196 C62.8078665,7.88935088 62.8390017,7.76059413 62.8390017,7.58999955 C62.8390017,7.39313469 62.7935963,7.1703239 62.6901368,6.86091851 C62.5159747,6.33129692 62.2980287,5.94437802 62.0424612,5.80556722 C62.2954341,5.83962127 62.6327314,5.74621587 63.1409476,5.3836213 C63.59338,5.0567024 63.8992178,4.73043215 63.9543529,4.44664838 C64.0017043,4.69702675 64.1979205,4.98535105 64.7002988,5.34956725 C65.1569475,5.67648615 65.5610556,5.86037803 65.8529474,5.82502668 C65.6239745,5.94697262 65.4060285,6.22005368 65.2130556,6.80189149 C65.1073258,7.1330266 65.0476502,7.40545902 65.0476502,7.64156711 C65.0457042,7.78394548 65.0680826,7.90654007 65.1105691,8.0070806 M63.7886232,9.72502645 C62.6301368,9.72502645 61.8501369,9.09745892 61.5485153,8.78578326 C61.8261369,8.66156705 62.0885152,8.54416165 62.2717585,8.43389139 C62.4011638,8.36091842 62.5360828,8.28372924 62.6431098,8.17086438 C62.6285152,8.21043194 62.6207314,8.25908059 62.6207314,8.31032383 C62.6207314,8.79324272 63.2658124,8.95118866 63.6465692,9.06697243 C63.9481908,9.15713459 64.1395421,9.25929675 64.1395421,9.45259403 C64.1395421,9.59659402 64.0516502,9.72502645 63.7886232,9.72502645 M61.3140288,6.97345904 C61.3188936,7.28059416 61.2806234,7.46578334 61.0908937,7.52708063 C60.9533802,7.57118874 60.7990018,7.52513469 60.7208396,7.28124281 C60.3653802,6.22102666 60.7260288,5.29378347 60.9228937,4.88805376 C61.3270018,5.34956725 61.6467855,5.65735101 61.8391098,5.75237804 C61.8031098,5.74848614 61.7680828,5.75302668 61.7220288,5.77475641 C61.2556504,5.92167532 61.3036504,6.57972934 61.3140288,6.97345904 M62.0920828,3.64783762 C62.7634341,3.16491873 63.462353,3.05756739 63.9841908,3.05756739 C64.1852718,3.05756739 64.358461,3.07086468 64.4830016,3.09162144 C64.1311097,3.64102681 63.9605151,4.04999976 63.9481908,4.2426484 C63.9329475,4.19789164 63.8311097,3.89983761 63.4117584,3.89983761 C62.9641908,3.89983761 62.5295963,4.1826484 62.2046233,4.1826484 C61.9792179,4.1826484 61.9143531,3.99681057 61.9143531,3.91540517 C61.9143531,3.83659437 61.9591098,3.7396214 62.0920828,3.64783762 M68.5299202,6.25378341 C68.1822446,6.13897261 67.8131635,6.03097261 67.4703527,5.94697262 C67.6532716,5.73389155 67.9630014,5.35410779 68.192623,5.04308078 C68.43165,4.7190808 68.5464608,4.46708081 68.5464608,4.21216191 C68.5464608,3.99486463 68.4634338,3.76945923 68.3041905,3.49443222 C68.0249473,2.98978361 67.5287311,2.50362147 67.1084068,2.18481068 C66.8022447,1.96556745 66.3394339,1.69605395 65.8944609,1.69605395 C65.6460285,1.69605395 65.4011637,1.79659449 65.2013799,2.04048636 C64.9831096,2.33497283 64.7687313,2.64827011 64.5809475,2.94113496 C64.4301367,2.70308092 64.1651637,2.29735121 63.9329475,1.98664853 C63.5920827,1.55010802 63.3232178,1.37367559 62.911326,1.37367559 C62.1550017,1.37367559 61.3140288,1.8394053 60.862245,2.14621609 C60.4986775,2.40891878 59.9499208,2.84610794 59.9499208,3.37994574 C59.9499208,3.5408106 60.0053802,3.71205383 60.1383532,3.88718896 C60.3533802,4.18589164 60.5878667,4.48524298 60.8080829,4.75216188 C60.5359748,4.8231889 60.0614883,4.94383754 59.6894883,5.06286456 C58.9574884,5.29962131 58.6535965,5.62426994 58.6535965,6.58362123 C58.6535965,6.99648607 58.7132722,7.47518874 58.8906776,7.99670223 C59.0703532,8.54967517 59.4546775,9.50772916 60.3417045,9.21648594 C60.6929477,9.10426973 61.0513261,8.97681028 61.3824612,8.84999947 C61.3626774,9.13086432 61.3357585,9.40362106 61.3357585,9.78859401 C61.3357585,10.7508642 61.5306774,11.0333507 62.1342449,11.3245939 C62.6697044,11.5684858 63.3530557,11.6758371 63.9118665,11.6758371 C64.4969475,11.6758371 65.5354339,11.6064317 65.5354339,10.6840534 C65.5354339,10.1064318 65.5273258,9.93648589 65.5055961,9.58978321 C65.7650555,9.69291834 66.2236501,9.86805347 66.5972717,9.98772913 C66.8424609,10.0668643 67.0409474,10.1067562 67.2219203,10.1067562 C67.5348933,10.1067562 67.7842987,9.95075616 68.0969473,9.6176751 C68.6460283,9.03291838 69.161704,7.91172926 69.161704,7.17162119 C69.161704,6.77756716 69.0170553,6.412378 68.5299202,6.25378341" id="Fill-1" fill="#EC2024" mask="url(#mask-2)"></path>
                    </g>
                    <path d="M13.8411884,10.4951345 L15.1472423,10.4951345 L15.1472423,4.13189165 L13.8411884,4.13189165 L13.8411884,10.4951345 Z M12.7631344,9.11059405 L12.8374046,9.0632427 L12.5241074,10.2904859 L12.5101614,10.299567 C12.2974047,10.430594 11.9403236,10.6037832 11.3558912,10.5914588 C10.4876751,10.5771886 9.90745887,9.90745887 9.90745887,8.92767514 L9.90745887,5.33610779 L8.80540488,5.33610779 L8.80540488,4.13967543 L9.90745887,4.13967543 L9.90745887,2.84399983 L11.1885399,2.15708095 L11.1885399,4.13967543 L12.5124317,4.13967543 L12.5124317,5.33610779 L11.1885399,5.33610779 L11.1885399,8.71426975 C11.1885399,9.20886432 11.3750263,9.43135079 11.7979452,9.43135079 C12.0895128,9.43135079 12.4148101,9.3233508 12.7631344,9.11059405 L12.7631344,9.11059405 Z M6.35026989,10.4951345 L7.65502657,10.4951345 L7.65502657,4.13189165 L6.35026989,4.13189165 L6.35026989,10.4951345 Z M1.31578371,7.32356713 C1.31578371,8.51318868 2.14637825,9.3687562 3.29318899,9.3687562 C3.84454031,9.3687562 4.37837812,9.12226973 4.83762133,8.65394543 L4.8651889,8.62378327 L5.60756723,9.51502646 L5.5871348,9.53837781 C4.97091862,10.2648643 4.23437813,10.6170804 3.32983764,10.6170804 C2.42140526,10.6170804 1.59340531,10.3135129 0.990486427,9.76021563 C0.344432412,9.16216162 0,8.31891842 0,7.32356713 C0,6.32562124 0.344432412,5.48367535 0.990486427,4.88691863 C1.59340531,4.33394569 2.42140526,4.03135111 3.32983764,4.03135111 C4.23437813,4.03135111 4.97091862,4.38129704 5.5871348,5.10843213 L5.60756723,5.1308105 L4.8651889,6.02399964 L4.83762133,5.99578343 C4.37837812,5.52324291 3.84454031,5.27545915 3.29318899,5.27545915 C2.14637825,5.27545915 1.31578371,6.13848612 1.31578371,7.32356713 L1.31578371,7.32356713 Z M63.2020503,10.4967561 L61.7124288,10.4967561 L61.1072396,9.39502647 C60.8529693,8.93481028 60.5623748,8.35362112 60.4410775,8.11135087 C60.3321045,8.35362112 59.9931856,8.9711346 59.7509154,9.40702647 L59.1334019,10.4967561 L57.7209695,10.4967561 L59.6714559,7.20324281 L57.8542668,4.13999975 L59.3030235,4.13999975 L59.799564,5.03578348 C60.0538343,5.49599967 60.3564288,6.06518883 60.4654018,6.30713476 C60.5986991,6.06518883 60.9012937,5.45967535 61.1435639,5.01178349 L61.6277801,4.13999975 L63.068753,4.13999975 L61.2395639,7.20324281 L63.2020503,10.4967561 Z M53.3192401,6.73102663 C53.428213,5.71394561 54.0317806,5.13275645 54.86724,5.13275645 C55.896321,5.13275645 56.4029156,5.85924289 56.4635642,6.73102663 L53.3192401,6.73102663 Z M57.7229155,7.19124281 C57.7229155,5.47167535 56.7561047,4.00670246 54.9518886,4.00670246 C53.3049698,4.00670246 52.0475645,5.16908077 52.0475645,7.3245401 C52.0475645,9.43135079 53.4262671,10.6300534 54.9155643,10.6300534 C55.884321,10.6300534 56.6451858,10.3274588 57.202375,9.79459401 L56.5109156,8.97924271 C56.087348,9.29416161 55.5210778,9.48778322 54.9882129,9.48778322 C54.2134022,9.48778322 53.428213,8.9831346 53.2949157,7.76043197 L57.6865912,7.76043197 C57.6985912,7.62713468 57.7229155,7.42118875 57.7229155,7.19124281 L57.7229155,7.19124281 Z M51.1994564,6.80464824 L51.1994564,10.4967561 L49.9183754,10.4967561 L49.9183754,6.90064824 C49.9183754,5.61697264 49.5188079,5.15708077 48.6953484,5.15708077 C47.859889,5.15708077 47.4895107,5.75026993 47.4895107,6.77967527 L47.4895107,10.4967561 L46.2081054,10.4967561 L46.2081054,6.90064824 C46.2081054,5.61697264 45.825727,5.15708077 45.0022676,5.15708077 C44.1668082,5.15708077 43.7318893,5.75026993 43.7318893,6.77967527 L43.7318893,10.4967561 L42.4508083,10.4967561 L42.4508083,4.13999975 L43.7318893,4.13999975 L43.7318893,4.74518891 C44.0468082,4.28529704 44.6390244,4.00670246 45.2928622,4.00670246 C46.1526459,4.00670246 46.6975107,4.33362136 47.0364296,4.93913484 C47.4966458,4.36994569 47.9931863,4.00670246 48.985943,4.00670246 C50.4632402,4.00670246 51.1994564,4.67383756 51.1994564,6.80464824 L51.1994564,6.80464824 Z M40.0037814,8.69254002 C39.7131868,9.09243189 39.0846463,9.50399943 38.4184842,9.50399943 C37.5953491,9.50399943 37.1481059,9.08010757 37.1481059,8.45059409 C37.1481059,7.86940494 37.7043221,7.50616171 38.5034572,7.50616171 C39.181295,7.50616171 39.6648625,7.61513468 40.0037814,7.78443197 L40.0037814,8.69254002 Z M38.7703761,4.00670246 C37.874268,4.00670246 37.1724302,4.20032407 36.5669167,4.57589162 L37.0514573,5.520324 C37.5476734,5.24172942 38.0562139,5.12075645 38.7100517,5.12075645 C39.4851868,5.12075645 40.0037814,5.50799967 40.0037814,6.19816179 L40.0037814,6.67070231 C39.6528625,6.51308069 39.1329706,6.42843205 38.5397815,6.42843205 C37.0988086,6.42843205 35.9448627,7.07026985 35.9448627,8.48691841 C35.9448627,10.0488643 37.1834572,10.6300534 38.2128626,10.6300534 C38.9030247,10.6300534 39.5678895,10.3031345 40.0037814,9.86724266 L40.0037814,10.4967561 L41.2848624,10.4967561 L41.2848624,6.13783747 C41.2848624,4.69686458 40.1870246,4.00670246 38.7703761,4.00670246 L38.7703761,4.00670246 Z M27.5043227,8.69254002 C27.2137281,9.09243189 26.5848633,9.50399943 25.9190255,9.50399943 C25.0955661,9.50399943 24.6486472,9.08010757 24.6486472,8.45059409 C24.6486472,7.86940494 25.204539,7.50616171 26.0036741,7.50616171 C26.6818362,7.50616171 27.1650795,7.61513468 27.5043227,7.78443197 L27.5043227,8.69254002 Z M26.2709174,4.00670246 C25.3748093,4.00670246 24.6726472,4.20032407 24.067458,4.57589162 L24.5516742,5.520324 C25.0482147,5.24172942 25.5567552,5.12075645 26.210593,5.12075645 C26.9854038,5.12075645 27.5043227,5.50799967 27.5043227,6.19816179 L27.5043227,6.67070231 C27.1530795,6.51308069 26.6331876,6.42843205 26.0399984,6.42843205 C24.5990256,6.42843205 23.4450797,7.07026985 23.4450797,8.48691841 C23.4450797,10.0488643 24.6839985,10.6300534 25.7130795,10.6300534 C26.4032417,10.6300534 27.0684308,10.3031345 27.5043227,9.86724266 L27.5043227,10.4967561 L28.7854037,10.4967561 L28.7854037,6.13783747 C28.7854037,4.69686458 27.6875659,4.00670246 26.2709174,4.00670246 L26.2709174,4.00670246 Z M35.1762141,6.85232392 L35.1762141,10.4967561 L33.8951331,10.4967561 L33.8951331,6.90064824 C33.8951331,5.61697264 33.4105926,5.15708077 32.5874575,5.15708077 C31.7519981,5.15708077 31.2321062,5.75026993 31.2321062,6.77967527 L31.2321062,10.4967561 L29.9510252,10.4967561 L29.9510252,4.13999975 L31.2321062,4.13999975 L31.2321062,4.74518891 C31.5470251,4.28529704 32.2462683,4.00670246 32.9001061,4.00670246 C34.3774034,4.00670246 35.1762141,4.82756728 35.1762141,6.85232392 L35.1762141,6.85232392 Z M20.0993502,9.47967511 C19.4695124,9.47967511 18.7932962,9.01945892 18.5150259,8.6442157 L18.5150259,5.96821586 C18.8419448,5.55664832 19.4575124,5.15708077 20.0507015,5.15708077 C20.9711339,5.15708077 21.6220528,5.85924289 21.6220528,7.45751307 C21.6220528,8.80151299 20.9951339,9.47967511 20.0993502,9.47967511 L20.0993502,9.47967511 Z M20.2809718,4.00670246 C19.6148096,4.00670246 18.9872421,4.32162136 18.5270259,4.74518891 L18.5270259,2.15708095 L17.2459449,2.84399983 L17.2459449,10.4967561 L18.5270259,10.4967561 L18.5270259,9.90356698 C18.8782691,10.2911345 19.5784853,10.6300534 20.2203231,10.6300534 C21.5399987,10.6300534 22.8758905,9.6009724 22.8758905,7.42118875 C22.8758905,4.99945916 21.6489717,4.00670246 20.2809718,4.00670246 L20.2809718,4.00670246 Z" id="Fill-4" fill="#154983"></path>
                </g>
            </g>
        </g>
    </g>
</svg>