<?xml version="1.0" encoding="UTF-8" standalone="no"?>
<svg width="84px" height="26px" viewBox="0 0 84 26" version="1.1" xmlns="http://www.w3.org/2000/svg" xmlns:xlink="http://www.w3.org/1999/xlink">
    <!-- Generator: Sketch 47.1 (45422) - http://www.bohemiancoding.com/sketch -->
    <title>Artboard 2</title>
    <desc>Created with Sketch.</desc>
    <defs>
        <polygon id="path-1" points="3.09759982 0.321276354 3.09759982 6.21567963 0.0862399949 6.21567963 0.0862399949 0.321276354 3.09759982 0.321276354"></polygon>
        <polygon id="path-3" points="3.96095976 0.240399986 0.00015999999 0.240399986 0.00015999999 4.13343975 3.96095976 4.13343975 3.96095976 0.240399986"></polygon>
    </defs>
    <g id="Page-1" stroke="none" stroke-width="1" fill="none" fill-rule="evenodd">
        <g id="Artboard-2">
            <g id="BBVA" transform="translate(1.000000, 1.000000)">
                <g id="Logo_BBVA">
                    <path d="M34.9339979,15.973439 L34.9339979,8.3194395 L34.9339979,8.18423951 L37.1919978,8.18423951 C37.5767978,8.18423951 37.9411977,8.21703951 38.2683977,8.3082395 C38.5939977,8.3902395 38.8875977,8.53183949 39.1247977,8.73623948 C39.2859977,8.86903947 39.4163977,9.03743946 39.5139976,9.23903945 C39.6439976,9.49943943 39.7131976,9.82023941 39.7131976,10.1902394 C39.7131976,10.5914394 39.6227976,10.9142393 39.4663976,11.1754393 C39.3127977,11.4330393 39.0847977,11.6206393 38.8339977,11.7642393 C38.7795977,11.7950393 38.7247977,11.8226393 38.6679977,11.8478393 C38.7955977,11.8902393 38.9191977,11.9362393 39.0411977,11.9966393 C39.2747977,12.1046393 39.4879976,12.2598393 39.6575976,12.4586393 C39.7691976,12.5910392 39.8615976,12.7418392 39.9347976,12.9278392 C40.0275976,13.1654392 40.0795976,13.4422392 40.0795976,13.7734392 C40.0795976,14.2006392 39.9883976,14.5622391 39.8211976,14.8690391 C39.6539976,15.1706391 39.4143977,15.4114391 39.1091977,15.5838391 C38.9131977,15.7006391 38.6883977,15.7886391 38.4379977,15.8494391 C38.1151977,15.9330391 37.7527977,15.973439 37.3651978,15.973439 L34.9339979,15.973439 Z M37.3507978,15.2254391 C37.6667978,15.2254391 37.9511977,15.1918391 38.2015977,15.1146391 C38.4479977,15.0414391 38.6583977,14.9294391 38.8195977,14.7782391 C38.9255977,14.6782391 39.0135977,14.5594391 39.0763977,14.4222391 C39.1643977,14.2402392 39.2139977,14.0158392 39.2139977,13.7502392 C39.2139977,13.4406392 39.1555977,13.1982392 39.0443977,13.0018392 C38.9371977,12.8058392 38.7795977,12.6510392 38.5679977,12.5362393 C38.4267977,12.4638393 38.2679977,12.3998393 38.0799977,12.3586393 C37.8307977,12.2970393 37.5447978,12.2706393 37.2227978,12.2706393 L35.7715979,12.2706393 L35.7715979,15.2254391 L37.3507978,15.2254391 Z M37.1599978,11.5242393 C37.4375978,11.5242393 37.6919978,11.4962393 37.9171977,11.4374393 C38.1471977,11.3750393 38.3387977,11.2790393 38.4867977,11.1494393 C38.5831977,11.0642393 38.6711977,10.9634393 38.7311977,10.8354394 C38.8127977,10.6698394 38.8591977,10.4678394 38.8591977,10.2086394 C38.8591977,9.92023941 38.8007977,9.69903942 38.7007977,9.52463943 C38.5963977,9.35543944 38.4543977,9.23143945 38.2699977,9.13903946 C38.1483977,9.07223946 38.0075977,9.02383946 37.8543977,8.99103946 C37.6503978,8.94903947 37.4227978,8.92703947 37.1811978,8.92703947 L35.7715979,8.92703947 L35.7715979,11.5242393 L37.1599978,11.5242393 Z" id="Fill-1" fill="#094F9F"></path>
                    <path d="M45.2304773,10.9769593 C45.1588773,10.8093594 45.0588773,10.6661594 44.9316773,10.5473594 C44.7532773,10.3717594 44.5204773,10.2437594 44.2472774,10.1657594 C43.9832774,10.0909594 43.6792774,10.0577594 43.3520774,10.0577594 C42.2356775,10.0637594 41.6084775,10.3869594 41.2000775,10.6197594 C41.5016775,11.2577593 41.8212775,11.1013593 42.2344775,10.9241593 C42.5508775,10.7881594 42.9156774,10.7313594 43.3008774,10.7313594 C43.4768774,10.7317594 43.6716774,10.7733594 43.8612774,10.8113594 C43.9732774,10.8417594 44.0724774,10.8829594 44.1560774,10.9317593 C44.2908774,11.0161593 44.3860774,11.1189593 44.4580774,11.2541593 C44.5308773,11.3901593 44.5680773,11.5693593 44.5680773,11.7989593 L44.5680773,12.6325592 C44.1480774,12.5393593 43.7224774,12.4961593 43.2380774,12.4961593 C42.8988774,12.4961593 42.5880775,12.5289593 42.2992775,12.5969592 C42.0876775,12.6493592 41.8980775,12.7201592 41.7148775,12.8137592 C41.4548775,12.9569592 41.2408775,13.1505592 41.0896776,13.3929592 C40.9396776,13.6409592 40.8624776,13.9325592 40.8624776,14.2725591 C40.8624776,14.5489591 40.9120776,14.8077591 41.0028776,15.0257591 C41.1484775,15.3521591 41.3968775,15.6109591 41.7048775,15.7765591 C42.0184775,15.945759 42.3832775,16.030559 42.7988774,16.030559 L42.7996774,16.030559 C43.2768774,16.030559 43.6548774,15.941359 43.9784774,15.7909591 C44.1996774,15.6817591 44.3916774,15.5505591 44.5680773,15.3929591 C44.5732773,15.4697591 44.5776773,15.5321591 44.5884773,15.5905591 C44.5964773,15.6541591 44.6120773,15.7113591 44.6408773,15.7625591 C44.6600773,15.8013591 44.6848773,15.8393591 44.7184773,15.8693591 C44.7704773,15.9105591 44.8296773,15.938559 44.8888773,15.952159 C44.9492773,15.969359 45.0196773,15.973359 45.0932773,15.973359 L45.3756773,15.973359 L45.3756773,11.7649593 C45.3756773,11.4613593 45.3252773,11.2021593 45.2304773,10.9769593 L45.2304773,10.9769593 Z M44.5680773,14.5177591 C44.3648774,14.7549591 44.1480774,14.9569591 43.8936774,15.0953591 C43.6244774,15.2441591 43.3036774,15.3329591 42.8700774,15.3329591 C42.6960775,15.3329591 42.5328775,15.3129591 42.3832775,15.2701591 C42.2756775,15.2409591 42.1804775,15.1953591 42.0936775,15.1385591 C41.9680775,15.0573591 41.8680775,14.9469591 41.7936775,14.7997591 C41.7196775,14.6489591 41.6776775,14.4629591 41.6776775,14.2301592 C41.6776775,14.0301592 41.7172775,13.8749592 41.7936775,13.7453592 C41.8516775,13.6457592 41.9220775,13.5621592 42.0136775,13.4825592 C42.1476775,13.3717592 42.3260775,13.2929592 42.5436775,13.2353592 C42.7540775,13.1801592 42.9972774,13.1533592 43.2712774,13.1533592 C43.7496774,13.1533592 44.1756774,13.2161592 44.5680773,13.3017592 L44.5680773,14.5177591 Z" id="Fill-3" fill="#094F9F"></path>
                    <path d="M50.607437,15.973439 L50.607437,11.7426393 C50.607437,11.5042393 50.573837,11.3294393 50.513437,11.1982393 C50.453837,11.0686393 50.374637,10.9814393 50.275037,10.9134393 C50.205037,10.8742394 50.127037,10.8402394 50.040237,10.8166394 C49.917037,10.7890394 49.777837,10.7774394 49.629037,10.7774394 C49.2410371,10.7774394 48.8594371,10.8830394 48.4910371,11.0538393 C48.1474371,11.2158393 47.8158371,11.4278393 47.5194372,11.6534393 L47.5194372,15.973439 L46.7114372,15.973439 L46.7114372,10.1190394 L47.0946372,10.1190394 C47.1358372,10.1222394 47.1730372,10.1226394 47.2122372,10.1278394 C47.2518372,10.1322394 47.2918372,10.1454394 47.3314372,10.1682394 C47.3598372,10.1838394 47.3830372,10.2014394 47.4014372,10.2242394 C47.4298372,10.2550394 47.4518372,10.2922394 47.4654372,10.3290394 C47.4838372,10.3834394 47.4994372,10.4402394 47.5074372,10.5006394 C47.5158372,10.5862394 47.5194372,10.6842394 47.5194372,10.8110394 L47.5194372,10.8738394 C47.7874372,10.6754394 48.0858371,10.4986394 48.4218371,10.3542394 C48.8470371,10.1722394 49.3182371,10.0578394 49.837837,10.0578394 C50.069837,10.0578394 50.291837,10.0826394 50.501037,10.1490394 C50.706237,10.2154394 50.896637,10.3258394 51.048637,10.4990394 C51.148237,10.6114394 51.2290369,10.7490394 51.2950369,10.9038394 C51.3774369,11.1218393 51.4210369,11.3782393 51.4210369,11.6842393 L51.4210369,15.973439 L50.607437,15.973439 Z" id="Fill-5" fill="#094F9F"></path>
                    <path d="M58.7289165,15.5638791 C58.2953165,15.2618791 57.9645165,14.8222791 57.7749166,14.2734791 C57.6457166,13.9054792 57.5777166,13.4946792 57.5777166,13.0398792 C57.5777166,12.3658793 57.7301166,11.7742793 58.0093165,11.2974793 C58.2909165,10.8222794 58.6981165,10.4678794 59.1981165,10.2578794 C59.5341165,10.1254794 59.9037164,10.0578794 60.3105164,10.0578794 C60.9177164,10.0554794 61.4597163,10.2134794 61.8917163,10.5214794 C62.3289163,10.8186794 62.6565163,11.2586793 62.8505163,11.8102793 C62.9773162,12.1726793 63.0417162,12.5890792 63.0417162,13.0398792 C63.0417162,13.7194792 62.8941163,14.3122791 62.6097163,14.7850791 C62.3345163,15.2566791 61.9233163,15.6094791 61.4245163,15.8134791 C61.0873164,15.947879 60.7129164,16.021079 60.3105164,16.021079 C59.7049164,16.021079 59.1661165,15.8590791 58.7289165,15.5638791 M59.1809165,11.0898793 C58.8841165,11.3102793 58.6593165,11.6350793 58.5245165,12.0582793 C58.4353165,12.3430793 58.3889165,12.6706792 58.3889165,13.0398792 C58.3889165,13.6022792 58.4953165,14.0594792 58.6861165,14.4166791 C58.8813165,14.7722791 59.1545165,15.0266791 59.5033165,15.1722791 C59.7365164,15.2718791 60.0049164,15.3246791 60.3105164,15.3246791 C60.7609164,15.3246791 61.1373164,15.2078791 61.4365163,14.9898791 C61.7325163,14.7722791 61.9553163,14.4538791 62.0917163,14.0274792 C62.1777163,13.7454792 62.2253163,13.4126792 62.2253163,13.0398792 C62.2253163,12.4898793 62.1197163,12.0282793 61.9233163,11.6730793 C61.7337163,11.3114793 61.4629163,11.0538793 61.1093164,10.8998794 C60.8801164,10.7994794 60.6085164,10.7486794 60.3105164,10.7486794 C59.8553164,10.7486794 59.4765165,10.8642794 59.1809165,11.0898793" id="Fill-7" fill="#094F9F"></path>
                    <path d="M71.1937558,15.973439 L71.1937558,11.7062393 C71.1937558,11.4818393 71.1649558,11.3170393 71.1145558,11.1890393 C71.0621558,11.0638393 70.9953558,10.9806393 70.9061558,10.9150393 C70.8433558,10.8758394 70.7713558,10.8414394 70.6869558,10.8182394 C70.5761558,10.7902394 70.4413558,10.7774394 70.2889558,10.7774394 C69.9201558,10.7774394 69.5821559,10.8782394 69.2629559,11.0374393 C68.9645559,11.1890393 68.6817559,11.3886393 68.4129559,11.6030393 L68.4129559,15.973439 L67.602956,15.973439 L67.602956,11.7062393 C67.602956,11.4842393 67.571356,11.3182393 67.516956,11.1890393 C67.465356,11.0658393 67.394556,10.9814393 67.303356,10.9150393 C67.241756,10.8758394 67.172956,10.8414394 67.089756,10.8182394 C66.979756,10.7902394 66.852556,10.7774394 66.712156,10.7774394 C66.326556,10.7774394 65.9869561,10.8766394 65.6661561,11.0366393 C65.3637561,11.1874393 65.0833561,11.3886393 64.8093561,11.6094393 L64.8093561,15.973439 L64.0041562,15.973439 L64.0041562,10.1190394 L64.3853562,10.1190394 C64.4253562,10.1222394 64.4641562,10.1226394 64.5065562,10.1278394 C64.5485562,10.1322394 64.5857562,10.1454394 64.6289561,10.1682394 C64.6541561,10.1794394 64.6769561,10.2014394 64.6981561,10.2242394 C64.7301561,10.2550394 64.7493561,10.2922394 64.7637561,10.3290394 C64.7801561,10.3834394 64.7917561,10.4402394 64.7961561,10.5022394 C64.8081561,10.5862394 64.8093561,10.6854394 64.8093561,10.8110394 L64.8093561,10.8222394 C65.0353561,10.6598394 65.2961561,10.4986394 65.5845561,10.3606394 C65.9705561,10.1794394 66.416156,10.0578394 66.902956,10.0578394 C67.144956,10.0578394 67.380556,10.0918394 67.595356,10.1794394 C67.814156,10.2678394 68.0085559,10.4142394 68.1517559,10.6078394 C68.2109559,10.6886394 68.2613559,10.7818394 68.3005559,10.8818394 C68.5593559,10.6802394 68.8513559,10.4962394 69.1773559,10.3462394 C69.5693559,10.1714394 70.0121558,10.0578394 70.4829558,10.0578394 C70.7101558,10.0578394 70.9277558,10.0870394 71.1277558,10.1562394 C71.3245557,10.2250394 71.5049557,10.3406394 71.6497557,10.5006394 C71.7457557,10.6050394 71.8245557,10.7318394 71.8833557,10.8766394 C71.9561557,11.0742393 71.9969557,11.2962393 71.9969557,11.5558393 L71.9969557,15.973439 L71.1937558,15.973439 Z" id="Fill-9" fill="#094F9F"></path>
                    <path d="M29.3648782,13.1507592 L27.2224784,13.1507592 L28.2864783,9.59755943 L29.3648782,13.1507592 L29.3648782,13.1507592 Z M29.9732782,8.97755946 C29.7580782,8.3379595 29.6376782,8.18755951 29.0268783,8.18755951 L27.5388784,8.18755951 L25.1564785,15.973959 L26.3700784,15.973959 L26.8812784,14.2967591 L29.7112782,14.2967591 L30.2260782,15.973959 L32.3368781,15.973959 L29.9732782,8.97755946 Z" id="Fill-11" fill="#094F9F"></path>
                    <path d="M15.6554791,14.9355591 L15.6554791,9.20115945 L16.655479,9.20115945 C17.137879,9.20115945 17.553079,9.59835943 17.553079,10.0783594 C17.553079,10.2475594 17.521879,10.4051594 17.357479,10.6423594 L16.708679,11.6151593 C17.387479,11.7779593 17.8410789,12.2947593 17.8410789,13.2607592 C17.8410789,14.4351591 17.137879,14.9355591 16.209079,14.9355591 L15.6554791,14.9355591 Z M18.1738789,11.2391593 L18.5562789,10.6755594 C19.3602788,9.48155943 18.8066789,8.18635951 17.216279,8.18635951 L13.8218792,8.18635951 L13.8218792,15.976359 L17.095079,15.976359 C19.9746788,15.976359 20.8354788,12.6235592 18.1738789,11.2391593 L18.1738789,11.2391593 Z" id="Fill-13" fill="#094F9F"></path>
                    <path d="M9.61799943,14.9355591 L9.06879946,14.9355591 L9.06879946,9.20115945 L10.0635994,9.20115945 C10.5471994,9.20115945 10.9651993,9.59835943 10.9651993,10.0783594 C10.9651993,10.2475594 10.9351993,10.4051594 10.7667994,10.6423594 L10.1147994,11.6151593 C10.7951994,11.7779593 11.2479993,12.2947593 11.2479993,13.2607592 C11.2479993,14.4351591 10.5471994,14.9355591 9.61799943,14.9355591 M11.5827993,11.2391593 L11.9615993,10.6755594 C12.7691992,9.48155943 12.2159993,8.18635951 10.6219994,8.18635951 L7.23079957,8.18635951 L7.23079957,15.976359 L10.5051994,15.976359 C13.3811992,15.976359 14.2511992,12.6235592 11.5827993,11.2391593" id="Fill-15" fill="#094F9F"></path>
                    <path d="M21.5999987,9.20075945 C21.3231987,8.3231595 21.1827987,8.18555951 20.6499988,8.18555951 L19.2751989,8.18555951 L21.8235987,15.973959 L23.6947986,15.973959 L26.0683984,8.18555951 L24.8359985,8.18555951 L23.0779986,14.1007592 L21.5999987,9.20075945 Z" id="Fill-17" fill="#094F9F"></path>
                    <path d="M56.9875166,10.6630794 C56.6855166,11.3002793 56.3967166,11.0914793 55.9859167,10.9134793 C55.7651167,10.8206794 55.4771167,10.7578794 55.0991167,10.7578794 C54.6531167,10.7582794 54.2747168,10.8742794 53.9703168,11.0938793 C53.6635168,11.3122793 53.4299168,11.6338793 53.2927168,12.0542793 C53.1955168,12.3362793 53.1443168,12.6598792 53.1443168,13.0290792 C53.1443168,13.4470792 53.2063168,13.8146792 53.3147168,14.1210792 C53.4299168,14.4298791 53.5911168,14.6742791 53.7967168,14.8634791 C53.9371168,14.9898791 54.0919168,15.0898791 54.2711168,15.1638791 C54.5131168,15.2634791 54.7807167,15.3134791 55.0991167,15.3134791 C55.5123167,15.3134791 55.8303167,15.2218791 56.0699167,15.1050791 C56.4683166,14.8982791 56.7431166,14.6622791 57.0887166,15.2778791 C56.9423166,15.4166791 56.6955166,15.6070791 56.4327166,15.7318791 C56.3939166,15.7506791 56.3531166,15.7686791 56.3107166,15.7858791 C55.9859167,15.9214791 55.5727167,16.021079 55.0723167,16.021079 L55.0699167,16.021079 C54.4343168,16.021079 53.8891168,15.8558791 53.4511168,15.5562791 C53.0135168,15.2494791 52.6943169,14.8098791 52.5091169,14.2574792 C52.3875169,13.8910792 52.3255169,13.4754792 52.3255169,13.0290792 C52.3239169,12.3462793 52.4807169,11.7538793 52.7707169,11.2814793 C53.0595168,10.8110794 53.4799168,10.4614794 53.9875168,10.2554794 C54.3247168,10.1254794 54.7035167,10.0578794 55.1075167,10.0578794 C55.3387167,10.0682794 56.1647167,9.9946794 56.9875166,10.6630794" id="Fill-19" fill="#094F9F"></path>
                    <path d="M77.7738354,11.5847593 C77.6882354,11.3263593 77.5734354,11.0999593 77.4286354,10.9023594 C77.2138354,10.6151594 76.9370354,10.4019594 76.6134354,10.2555594 C76.2886355,10.1227594 75.9166355,10.0579594 75.5214355,10.0579594 C75.1450355,10.0579594 74.7950355,10.1271594 74.4734356,10.2679594 C74.0026356,10.4783594 73.6050356,10.8371594 73.3310356,11.3171593 C73.0606356,11.7935593 72.9086357,12.3847593 72.9086357,13.0639592 C72.9086357,13.5031592 72.9674357,13.9115592 73.0866356,14.2767591 C73.2654356,14.8203591 73.5786356,15.2579591 74.0154356,15.5591591 C74.4482356,15.8591591 75.0074355,16.021159 75.6582355,16.021159 L75.6594355,16.021159 C76.1822355,16.021159 76.6050354,15.9363591 76.9506354,15.8131591 C77.5034354,15.6047591 77.7866354,15.3495591 77.9246354,15.2007591 C77.5470354,14.6515591 77.3330354,14.8719591 76.8962354,15.0735591 C76.6402354,15.2003591 76.1510355,15.3063591 75.7106355,15.3063591 C75.3746355,15.3063591 75.0830355,15.2567591 74.8402355,15.1631591 C74.6554356,15.0943591 74.4942356,14.9987591 74.3562356,14.8771591 C74.1538356,14.6963591 73.9918356,14.4607591 73.8882356,14.1575592 C73.7910356,13.8887592 73.7378356,13.5703592 73.7286356,13.1975592 L77.9398354,13.1975592 L77.9398354,13.0651592 L77.9398354,13.0299592 C77.9398354,12.9803592 77.9478354,12.8891592 77.9478354,12.8007592 C77.9478354,12.3363593 77.8898354,11.9335593 77.7738354,11.5847593 L77.7738354,11.5847593 Z M73.7518356,12.5171593 C73.7870356,12.2483593 73.8490356,12.0147593 73.9342356,11.8055593 C74.0866356,11.4435593 74.3022356,11.1783593 74.5674356,11.0031593 C74.8374355,10.8223594 75.1530355,10.7359594 75.5214355,10.7359594 C75.7638355,10.7359594 75.9910355,10.7687594 76.1822355,10.8371594 C76.3246355,10.8895594 76.4542354,10.9607593 76.5682354,11.0599593 C76.7370354,11.2035593 76.8730354,11.3939593 76.9726354,11.6603593 C77.0566354,11.8919593 77.1146354,12.1703593 77.1350354,12.5171593 L73.7518356,12.5171593 Z" id="Fill-21" fill="#094F9F"></path>
                    <g id="Group-25" transform="translate(78.799995, 9.759759)">
                        <mask id="mask-2" fill="white">
                            <use xlink:href="#path-1"></use>
                        </mask>
                        <g id="Clip-24"></g>
                        <path d="M2.59023985,0.321279981 C2.16303987,0.320479981 1.78743989,0.452079973 1.46463991,0.653279961 C1.25303993,0.782079953 1.06263994,0.939679944 0.894239947,1.10647993 C0.894239947,0.967279942 0.890239947,0.857679949 0.878239948,0.768479954 C0.873839948,0.698479958 0.863039949,0.642079962 0.84423995,0.585279965 C0.829439951,0.548479967 0.812239952,0.51087997 0.781439953,0.473679972 C0.760239955,0.452079973 0.737839956,0.430879974 0.712239958,0.415279975 C0.67343996,0.390479977 0.631839962,0.375679978 0.586639965,0.370479978 C0.550239967,0.365279978 0.512239969,0.364479978 0.471439972,0.361279978 L0.0862399949,0.361279978 L0.0862399949,6.21567963 L0.894239947,6.21567963 L0.894239947,2.01447988 C1.17743993,1.6796799 1.44103991,1.47207991 1.6194399,1.35887992 C1.6254399,1.35447992 1.6318399,1.35167992 1.6370399,1.34727992 C1.96503988,1.14087993 2.22663987,1.08327994 2.43423985,1.06407994 C2.80943983,1.02807994 3.06103982,0.978479942 3.09783982,0.394479976 C2.94783982,0.350079979 2.77503983,0.322479981 2.59023985,0.321279981" id="Fill-23" fill="#094F9F" mask="url(#mask-2)"></path>
                    </g>
                    <g id="Group-28" transform="translate(0.000000, 0.159760)">
                        <mask id="mask-4" fill="white">
                            <use xlink:href="#path-3"></use>
                        </mask>
                        <g id="Clip-27"></g>
                        <polygon id="Fill-26" fill="#094F9F" mask="url(#mask-4)" points="3.96095976 0.240239986 0.00015999999 0.240639986 0.00015999999 4.13343975 3.96095976 4.13343975"></polygon>
                    </g>
                    <polygon id="Fill-29" fill="#006EBC" points="0 8.18655951 3.96079976 8.18655951 3.96079976 4.29335974 0 4.29335974"></polygon>
                    <polygon id="Fill-31" fill="#0099E0" points="0 12.0801593 3.96079976 12.0801593 3.96079976 8.18655951 0 8.18655951"></polygon>
                    <polygon id="Fill-32" fill="#52B7E7" points="0 15.972959 3.96079976 15.972959 3.96079976 12.0801593 0 12.0801593"></polygon>
                    <polygon id="Fill-33" fill="#84CCEE" points="0 19.8665588 3.96079976 19.8665588 3.96079976 15.972959 0 15.972959"></polygon>
                    <polygon id="Fill-34" fill="#B0E0F4" points="0 23.7597586 3.96079976 23.7597586 3.96079976 19.8665588 0 19.8665588"></polygon>
                </g>
            </g>
        </g>
    </g>
</svg>