<?xml version="1.0" encoding="UTF-8" standalone="no"?>
<svg width="198px" height="131px" viewBox="0 0 198 131" version="1.1" xmlns="http://www.w3.org/2000/svg" xmlns:xlink="http://www.w3.org/1999/xlink">
    <!-- Generator: Sketch 47.1 (45422) - http://www.bohemiancoding.com/sketch -->
    <title>Artboard</title>
    <desc>Created with Sketch.</desc>
    <defs>
        <linearGradient x1="0%" y1="50%" x2="99.964476%" y2="50%" id="linearGradient-1">
            <stop stop-color="#FBCA2A" offset="1%"></stop>
            <stop stop-color="#FDF9CE" offset="25%"></stop>
            <stop stop-color="#F7EEBD" offset="30%"></stop>
            <stop stop-color="#E6D190" offset="41%"></stop>
            <stop stop-color="#CCA348" offset="55%"></stop>
            <stop stop-color="#C2922E" offset="60%"></stop>
            <stop stop-color="#EED688" offset="87%"></stop>
            <stop stop-color="#FDF9CE" offset="100%"></stop>
        </linearGradient>
    </defs>
    <g id="Page-1" stroke="none" stroke-width="1" fill="none" fill-rule="evenodd">
        <g id="Artboard">
            <g id="AMEX" transform="translate(1.000000, 3.000000)">
                <rect id="Rectangle-path" stroke="#848689" fill="#FFFFFF" fill-rule="nonzero" x="0" y="0" width="196" height="127" rx="12"></rect>
                <circle id="Oval" fill="#7DC242" fill-rule="nonzero" opacity="0.32" cx="174" cy="44" r="9"></circle>
                <text id="1234" fill="#231F20" font-family="Montserrat-Regular, Montserrat" font-size="7" font-weight="normal">
                    <tspan x="166" y="47">1234</tspan>
                </text>
                <rect id="Rectangle-path" fill="url(#linearGradient-1)" fill-rule="nonzero" x="16" y="19" width="26" height="23" rx="4.73"></rect>
                <path d="M38.1278195,43 L20.8721805,43 C18.1834556,42.9949611 16.0050779,40.8332982 16,38.1652041 L16,23.8347959 C16.0050779,21.1667018 18.1834556,19.0050389 20.8721805,19 L38.1278195,19 C40.8165444,19.0050389 42.9949221,21.1667018 43,23.8347959 L43,38.2018314 C42.9747265,40.8556106 40.8022338,42.9951017 38.1278195,43 Z M20.8721805,20.016406 C19.8516499,20.016406 18.8729176,20.4186994 18.1512935,21.1347865 C17.4296694,21.8508735 17.0242652,22.8220959 17.0242652,23.8347959 L17.0242652,38.2018314 C17.0242652,39.2145313 17.4296694,40.1857538 18.1512935,40.9018408 C18.8729176,41.6179278 19.8516499,42.0202213 20.8721805,42.0202213 L38.1278195,42.0202213 C40.2529645,42.0202213 41.9757348,40.3106699 41.9757348,38.2018314 L41.9757348,23.8347959 C41.9757348,22.8220959 41.5703306,21.8508735 40.8487065,21.1347865 C40.1270824,20.4186994 39.1483501,20.016406 38.1278195,20.016406 L20.8721805,20.016406 Z" id="Shape" fill="#010101" fill-rule="nonzero"></path>
                <path d="M18.28,41.9999659 C18.1253603,41.9999659 18,41.882902 18,41.7384965 L18,19.2614694 C18,19.1170638 18.1253603,19 18.28,19 C18.4346397,19 18.56,19.1170638 18.56,19.2614694 L18.56,41.7851875 C18.5355417,41.9111272 18.4170475,42.0020201 18.28,41.9999659 L18.28,41.9999659 Z" id="Shape" fill="#010101" fill-rule="nonzero"></path>
                <path d="M39.28,41.9999659 C39.1253603,41.9999659 39,41.882902 39,41.7384965 L39,19.2614694 C39,19.1170638 39.1253603,19 39.28,19 C39.4346397,19 39.56,19.1170638 39.56,19.2614694 L39.56,41.7851875 C39.5355417,41.9111272 39.4170475,42.0020201 39.28,41.9999659 Z" id="Shape" fill="#010101" fill-rule="nonzero"></path>
                <path d="M38.7458946,20.56 L18.2541054,20.56 C18.1137669,20.56 18,20.4346397 18,20.28 C18,20.1253603 18.1137669,20 18.2541054,20 L38.7458946,20 C38.8862331,20 39,20.1253603 39,20.28 C39,20.4346397 38.8862331,20.56 38.7458946,20.56 L38.7458946,20.56 Z" id="Shape" fill="#010101" fill-rule="nonzero"></path>
                <path d="M32.7407407,23.56 L26.2592593,23.56 C26.1160743,23.56 26,23.4346397 26,23.28 C26,23.1253603 26.1160743,23 26.2592593,23 L32.7407407,23 C32.8839257,23 33,23.1253603 33,23.28 C33,23.4346397 32.8839257,23.56 32.7407407,23.56 Z" id="Shape" fill="#010101" fill-rule="nonzero"></path>
                <path d="M32.7407407,38.56 L26.2592593,38.56 C26.1160743,38.56 26,38.4346397 26,38.28 C26,38.1253603 26.1160743,38 26.2592593,38 L32.7407407,38 C32.8839257,38 33,38.1253603 33,38.28 C33,38.4346397 32.8839257,38.56 32.7407407,38.56 L32.7407407,38.56 Z" id="Shape" fill="#010101" fill-rule="nonzero"></path>
                <path d="M38.7458946,41.56 L18.2541054,41.56 C18.1137669,41.56 18,41.4346397 18,41.28 C18,41.1253603 18.1137669,41 18.2541054,41 L38.7458946,41 C38.8862331,41 39,41.1253603 39,41.28 C39,41.4346397 38.8862331,41.56 38.7458946,41.56 L38.7458946,41.56 Z" id="Shape" fill="#010101" fill-rule="nonzero"></path>
                <path d="M41.7488789,36.56 L32.2511211,36.56 C32.1124307,36.56 32,36.4346397 32,36.28 C32,36.1253603 32.1124307,36 32.2511211,36 L41.7488789,36 C41.8875693,36 42,36.1253603 42,36.28 C42,36.4346397 41.8875693,36.56 41.7488789,36.56 L41.7488789,36.56 Z" id="Shape" fill="#010101" fill-rule="nonzero"></path>
                <path d="M25.7488789,36.56 L16.2511211,36.56 C16.1124307,36.56 16,36.4346397 16,36.28 C16,36.1253603 16.1124307,36 16.2511211,36 L25.7488789,36 C25.8875693,36 26,36.1253603 26,36.28 C26,36.4346397 25.8875693,36.56 25.7488789,36.56 Z" id="Shape" fill="#010101" fill-rule="nonzero"></path>
                <path d="M24.28,43 C24.1253603,43 24,42.8828409 24,42.7383178 L24,41.2616822 C24,41.1171591 24.1253603,41 24.28,41 C24.4346397,41 24.56,41.1171591 24.56,41.2616822 L24.56,42.7383178 C24.56,42.8828409 24.4346397,43 24.28,43 Z" id="Shape" fill="#010101" fill-rule="nonzero"></path>
                <path d="M24.28,36 C24.1253603,36 24,35.8797766 24,35.7314734 L24,25.2685266 C24,25.1202234 24.1253603,25 24.28,25 C24.4346397,25 24.56,25.1202234 24.56,25.2685266 L24.56,35.7314734 C24.56,35.8797766 24.4346397,36 24.28,36 Z" id="Shape" fill="#010101" fill-rule="nonzero"></path>
                <path d="M24.28,21 C24.1253603,21 24,20.8828409 24,20.7383178 L24,19.2616822 C24,19.1171591 24.1253603,19 24.28,19 C24.4346397,19 24.56,19.1171591 24.56,19.2616822 L24.56,20.7383178 C24.56,20.8828409 24.4346397,21 24.28,21 Z" id="Shape" fill="#010101" fill-rule="nonzero"></path>
                <path d="M26.28,39 C26.1253603,39 26,38.8916194 26,38.7579251 L26,36.2420749 C26,36.1083806 26.1253603,36 26.28,36 C26.4346397,36 26.56,36.1083806 26.56,36.2420749 L26.56,38.7579251 C26.56,38.8916194 26.4346397,39 26.28,39 L26.28,39 Z" id="Shape" fill="#010101" fill-rule="nonzero"></path>
                <path d="M32.28,39 C32.1253603,39 32,38.8916194 32,38.7579251 L32,36.2420749 C32,36.1083806 32.1253603,36 32.28,36 C32.4346397,36 32.56,36.1083806 32.56,36.2420749 L32.56,38.7579251 C32.56,38.8916194 32.4346397,39 32.28,39 Z" id="Shape" fill="#010101" fill-rule="nonzero"></path>
                <path d="M33.28,43 C33.1253603,43 33,42.8828409 33,42.7383178 L33,41.2616822 C33,41.1171591 33.1253603,41 33.28,41 C33.4346397,41 33.56,41.1171591 33.56,41.2616822 L33.56,42.7383178 C33.56,42.8828409 33.4346397,43 33.28,43 Z" id="Shape" fill="#010101" fill-rule="nonzero"></path>
                <path d="M33.28,36 C33.1253603,36 33,35.8797766 33,35.7314734 L33,25.2685266 C33,25.1202234 33.1253603,25 33.28,25 C33.4346397,25 33.56,25.1202234 33.56,25.2685266 L33.56,35.7314734 C33.56,35.8797766 33.4346397,36 33.28,36 Z" id="Shape" fill="#010101" fill-rule="nonzero"></path>
                <path d="M33.28,21 C33.1253603,21 33,20.8828409 33,20.7383178 L33,19.2616822 C33,19.1171591 33.1253603,19 33.28,19 C33.4346397,19 33.56,19.1171591 33.56,19.2616822 L33.56,20.7383178 C33.56,20.8828409 33.4346397,21 33.28,21 Z" id="Shape" fill="#010101" fill-rule="nonzero"></path>
                <path d="M41.7410072,31.56 L33.2589928,31.56 C33.115955,31.56 33,31.4346397 33,31.28 C33,31.1253603 33.115955,31 33.2589928,31 L41.7410072,31 C41.884045,31 42,31.1253603 42,31.28 C42,31.4346397 41.884045,31.56 41.7410072,31.56 L41.7410072,31.56 Z" id="Shape" fill="#010101" fill-rule="nonzero"></path>
                <path d="M24.7410072,31.56 L16.2589928,31.56 C16.115955,31.56 16,31.4346397 16,31.28 C16,31.1253603 16.115955,31 16.2589928,31 L24.7410072,31 C24.884045,31 25,31.1253603 25,31.28 C25,31.4346397 24.884045,31.56 24.7410072,31.56 Z" id="Shape" fill="#010101" fill-rule="nonzero"></path>
                <path d="M41.748879,25.56 L32.251121,25.56 C32.1124307,25.56 32,25.4346397 32,25.28 C32,25.1253603 32.1124307,25 32.251121,25 L41.748879,25 C41.8875693,25 42,25.1253603 42,25.28 C42,25.4346397 41.8875693,25.56 41.748879,25.56 L41.748879,25.56 Z" id="Shape" fill="#010101" fill-rule="nonzero"></path>
                <path d="M25.7488789,25.56 L16.251121,25.56 C16.1124307,25.56 16,25.4346397 16,25.28 C16,25.1253603 16.1124307,25 16.251121,25 L25.7488789,25 C25.8385958,25 25.9214977,25.0533677 25.9663562,25.14 C26.0112146,25.2266323 26.0112146,25.3333677 25.9663562,25.42 C25.9214977,25.5066323 25.8385958,25.56 25.7488789,25.56 L25.7488789,25.56 Z" id="Shape" fill="#010101" fill-rule="nonzero"></path>
                <path d="M29.28,22.9999999 C29.1253603,22.9999999 29,22.8821063 29,22.7366771 L29,20.2633229 C29,20.1178937 29.1253603,20 29.28,20 C29.4346397,20 29.56,20.1178937 29.56,20.2633229 L29.56,22.7272727 C29.5627152,22.798725 29.5344184,22.868144 29.481611,22.9195797 C29.4288037,22.9710155 29.3560261,23.0000456 29.28,22.9999999 L29.28,22.9999999 Z" id="Shape" fill="#010101" fill-rule="nonzero"></path>
                <path d="M29.28,41 C29.1253603,41 29,40.8817356 29,40.7358491 L29,38.2641509 C29,38.1182644 29.1253603,38 29.28,38 C29.4346397,38 29.56,38.1182644 29.56,38.2641509 L29.56,40.7358491 C29.56,40.8817356 29.4346397,41 29.28,41 L29.28,41 Z" id="Shape" fill="#010101" fill-rule="nonzero"></path>
                <path d="M26.28,25.9999999 C26.1253603,25.9999999 26,25.8913061 26,25.7572254 L26,23.2427746 C26,23.1086939 26.1253603,23 26.28,23 C26.4346397,23 26.56,23.1086939 26.56,23.2427746 L26.56,25.7658959 C26.5546137,25.8965789 26.4308172,26.0000834 26.28,25.9999999 L26.28,25.9999999 Z" id="Shape" fill="#010101" fill-rule="nonzero"></path>
                <path d="M32.28,25.9999999 C32.1253603,25.9999999 32,25.8913061 32,25.7572254 L32,23.2427746 C32,23.1086939 32.1253603,23 32.28,23 C32.4346397,23 32.56,23.1086939 32.56,23.2427746 L32.56,25.7658959 C32.5546137,25.8965789 32.4308172,26.0000834 32.28,25.9999999 L32.28,25.9999999 Z" id="Shape" fill="#010101" fill-rule="nonzero"></path>
                <path d="M26.3981622,84.0476183 C26.7305098,84.0476183 26.9999308,84.3332991 26.9999308,84.6857042 L26.9999308,88.3618408 C27.0023791,88.5318542 26.9397652,88.6956666 26.8263766,88.8158983 C26.712988,88.93613 26.5584992,89.0025227 26.3981622,88.9999266 L24.6018378,88.9999266 C24.4415008,89.0025227 24.287012,88.93613 24.1736234,88.8158983 C24.0602348,88.6956666 23.9976209,88.5318542 24.0000692,88.3618408 L24.0000692,84.6380859 C24.0000692,84.2856808 24.2694902,84 24.6018378,84 L26.3981622,84.0476183 Z M26.3981622,88.3618408 L26.3981622,84.6380859 L24.6018378,84.6380859 L24.6018378,88.3142224 L26.3981622,88.3618408 Z" id="Shape" fill="#A5A7AA" fill-rule="nonzero"></path>
                <path d="M31.3857553,88.3635799 L31.3857553,87.0631753 C31.3857553,86.8849569 31.5231168,86.7404823 31.6925607,86.7404823 C31.8620047,86.7404823 31.9993661,86.8849569 31.9993661,87.0631753 L31.9993661,88.6814566 C32.004832,88.7673966 31.97475,88.8516333 31.9168441,88.9125379 C31.8589381,88.9734425 31.7788487,89.0050823 31.6971399,88.9993333 L29.3068054,88.9993333 C29.1373615,88.9993333 29,88.8548587 29,88.6766403 C29,88.4984219 29.1373615,88.3539473 29.3068054,88.3539473 L30.2226424,88.3539473 L30.2226424,84.645386 L29.3068054,84.645386 C29.1373615,84.645386 29,84.5009114 29,84.322693 C29,84.1444746 29.1373615,84 29.3068054,84 L30.8179364,84 L30.8179364,88.3635799 L31.3857553,88.3635799 Z" id="Shape" fill="#A5A7AA" fill-rule="nonzero"></path>
                <path d="M33.5981873,88.7784201 C33.5256798,88.9132948 33.4531722,89 33.2990937,89 C33.1424659,88.9957465 33.0137735,88.8672445 33,88.7013488 C33.0151335,88.5777591 33.0621921,88.4610447 33.1359517,88.3641619 L35.4018127,84.2408483 C35.4743202,84.1156075 35.5468278,84.0000005 35.7009063,84.0000005 C35.8592636,83.9996911 35.9904028,84.1306364 36,84.2986518 C35.9999082,84.3866184 35.9780266,84.4730085 35.9365559,84.5491334 L33.5981873,88.7784201 Z" id="Shape" fill="#A5A7AA" fill-rule="nonzero"></path>
                <path d="M40.3894829,88.3635799 L40.3894829,87.0631753 C40.3894829,86.8849569 40.5260108,86.7404823 40.6944264,86.7404823 C40.8628421,86.7404823 40.99937,86.8849569 40.99937,87.0631753 L40.99937,88.6814566 C41.0048027,88.7673966 40.9749033,88.8516333 40.9173487,88.9125379 C40.8597941,88.9734425 40.7801908,89.0050823 40.6989778,88.9993333 L38.3049435,88.9993333 C38.1365279,88.9993333 38,88.8548587 38,88.6766403 C38,88.4984219 38.1365279,88.3539473 38.3049435,88.3539473 L39.2152227,88.3539473 L39.2152227,84.645386 L38.3049435,84.645386 C38.1365279,84.645386 38,84.5009114 38,84.322693 C38,84.1444746 38.1365279,84 38.3049435,84 L39.8069042,84 L39.8069042,88.3635799 L40.3894829,88.3635799 Z" id="Shape" fill="#A5A7AA" fill-rule="nonzero"></path>
                <path d="M44.3894829,88.3635799 L44.3894829,87.0631753 C44.3894829,86.8849569 44.5260108,86.7404823 44.6944264,86.7404823 C44.8628421,86.7404823 44.99937,86.8849569 44.99937,87.0631753 L44.99937,88.6814566 C45.0048027,88.7673966 44.9749033,88.8516333 44.9173487,88.9125379 C44.8597941,88.9734425 44.7801908,89.0050823 44.6989778,88.9993333 L42.3049435,88.9993333 C42.1365279,88.9993333 42,88.8548587 42,88.6766403 C42,88.4984219 42.1365279,88.3539473 42.3049435,88.3539473 L43.2152227,88.3539473 L43.2152227,84.645386 L42.3049435,84.645386 C42.1365279,84.645386 42,84.5009114 42,84.322693 C42,84.1444746 42.1365279,84 42.3049435,84 L43.8069042,84 L43.8069042,88.3635799 L44.3894829,88.3635799 Z" id="Shape" fill="#A5A7AA" fill-rule="nonzero"></path>
                <path d="M72.3981622,84.0476183 C72.7305098,84.0476183 72.9999308,84.3332991 72.9999308,84.6857042 L72.9999308,88.3618408 C73.0023791,88.5318542 72.9397652,88.6956666 72.8263766,88.8158983 C72.712988,88.93613 72.5584992,89.0025227 72.3981622,88.9999266 L70.6018378,88.9999266 C70.4415008,89.0025227 70.287012,88.93613 70.1736234,88.8158983 C70.0602348,88.6956666 69.9976209,88.5318542 70.0000692,88.3618408 L70.0000692,84.6380859 C70.0000692,84.2856808 70.2694902,84 70.6018378,84 L72.3981622,84.0476183 Z M72.3981622,88.3618408 L72.3981622,84.6380859 L70.6018378,84.6380859 L70.6018378,88.3142224 L72.3981622,88.3618408 Z" id="Shape" fill="#A5A7AA" fill-rule="nonzero"></path>
                <path d="M77.3894829,88.3635799 L77.3894829,87.0631753 C77.3894829,86.8849569 77.5260108,86.7404823 77.6944264,86.7404823 C77.8628421,86.7404823 77.99937,86.8849569 77.99937,87.0631753 L77.99937,88.6814566 C78.0048027,88.7673966 77.9749033,88.8516333 77.9173487,88.9125379 C77.8597941,88.9734425 77.7801908,89.0050823 77.6989778,88.9993333 L75.3049435,88.9993333 C75.1365279,88.9993333 75,88.8548587 75,88.6766403 C75,88.4984219 75.1365279,88.3539473 75.3049435,88.3539473 L76.2152227,88.3539473 L76.2152227,84.645386 L75.3049435,84.645386 C75.1365279,84.645386 75,84.5009114 75,84.322693 C75,84.1444746 75.1365279,84 75.3049435,84 L76.8069042,84 L76.8069042,88.3635799 L77.3894829,88.3635799 Z" id="Shape" fill="#A5A7AA" fill-rule="nonzero"></path>
                <path d="M79.5981873,88.7784201 C79.5256798,88.9132948 79.4531722,89 79.2990937,89 C79.1424659,88.9957465 79.0137735,88.8672445 79,88.7013488 C79.0151335,88.5777591 79.0621921,88.4610447 79.1359517,88.3641619 L81.4018127,84.2408483 C81.4743202,84.1156075 81.5468278,84.0000005 81.7009063,84.0000005 C81.8592636,83.9996911 81.9904028,84.1306364 82,84.2986518 C81.9999082,84.3866184 81.9780266,84.4730085 81.9365559,84.5491334 L79.5981873,88.7784201 Z" id="Shape" fill="#A5A7AA" fill-rule="nonzero"></path>
                <path d="M86.3894829,88.3635799 L86.3894829,87.0631753 C86.3894829,86.8849569 86.5260108,86.7404823 86.6944264,86.7404823 C86.8628421,86.7404823 86.99937,86.8849569 86.99937,87.0631753 L86.99937,88.6814566 C87.0048027,88.7673966 86.9749033,88.8516333 86.9173487,88.9125379 C86.8597941,88.9734425 86.7801908,89.0050823 86.6989778,88.9993333 L84.3049435,88.9993333 C84.1365279,88.9993333 84,88.8548587 84,88.6766403 C84,88.4984219 84.1365279,88.3539473 84.3049435,88.3539473 L85.2152227,88.3539473 L85.2152227,84.645386 L84.3049435,84.645386 C84.1365279,84.645386 84,84.5009114 84,84.322693 C84,84.1444746 84.1365279,84 84.3049435,84 L85.8069042,84 L85.8069042,88.3635799 L86.3894829,88.3635799 Z" id="Shape" fill="#A5A7AA" fill-rule="nonzero"></path>
                <path d="M88.6018237,86.716763 L90.6352584,86.716763 C90.9361702,86.716763 91,86.8516378 91,87.150289 L91,88.5953757 C91,88.894027 90.881459,89 90.6079027,89 L88.3920973,89 C88.1094225,89 88,88.894027 88,88.5953757 L88,84.3179191 C88,84.1734104 88.0455927,84 88.2644377,84 L88.6291793,84 C88.7882067,84.0102012 88.912147,84.1495946 88.9118541,84.3179191 C88.9144137,84.4030367 88.8835332,84.4854814 88.826537,84.545699 C88.7695407,84.6059166 88.6915065,84.6385424 88.6109422,84.6358382 L88.6018237,86.716763 Z M88.6018237,87.3622351 L88.6018237,88.3256262 L90.4255319,88.3256262 L90.4255319,87.3622351 L88.6018237,87.3622351 Z" id="Shape" fill="#A5A7AA" fill-rule="nonzero"></path>
                <path d="M29.5496086,61.2049831 L29.5496086,58.5354355 C29.5755257,58.2974527 29.4792508,58.0637033 29.3024302,57.9353018 C29.1256096,57.8069003 28.8999901,57.8069003 28.7231695,57.9353018 C28.5463489,58.0637033 28.450074,58.2974527 28.4759911,58.5354355 L28.4759911,61.195449 L27.0777914,61.195449 L27.0777914,57.6964348 C27.1037085,57.458452 27.0074336,57.2247026 26.830613,57.0963011 C26.6537924,56.9678996 26.4281729,56.9678996 26.2513523,57.0963011 C26.0745317,57.2247026 25.9782568,57.458452 26.0041739,57.6964348 L26.0041739,62.4634841 L28.5009589,62.4634841 L28.5009589,64.3035652 C28.4750418,64.541548 28.5713167,64.7752974 28.7481374,64.9036989 C28.924958,65.0321004 29.1505774,65.0321004 29.327398,64.9036989 C29.5042187,64.7752974 29.6004936,64.541548 29.5745765,64.3035652 L29.5745765,62.4634841 C29.8229542,62.4012748 30,62.1493229 30,61.8580689 C30,61.5668148 29.8229542,61.314863 29.5745765,61.2526536 L29.5496086,61.2049831 Z" id="Shape" fill="#A5A7AA" fill-rule="nonzero"></path>
                <path d="M36.8906564,57.0001811 L33.547188,57.0001811 C33.2346048,57.0400212 33,57.3114607 33,57.6332816 C33,57.9551025 33.2346048,58.2265419 33.547188,58.266382 L36.7561491,58.266382 L36.7561491,59.7779708 C36.7561491,60.3669015 36.5063497,60.3669015 36.4006654,60.3669015 L34.4791318,60.3669015 C34.2393126,60.3363355 34.0037595,60.4498799 33.8743672,60.6584183 C33.7449749,60.8669567 33.7449749,61.1330473 33.8743672,61.3415856 C34.0037595,61.550124 34.2393126,61.6636685 34.4791318,61.6331025 L36.4006654,61.6331025 C36.5063497,61.6331025 36.7561491,61.6331025 36.7561491,62.2220331 L36.7561491,63.7336219 L33.547188,63.7336219 C33.2346048,63.773462 33,64.0449015 33,64.3667224 C33,64.6885433 33.2346048,64.9599827 33.547188,64.9998229 L36.8906564,64.9998229 C37.185271,65.0051989 37.4693699,64.888001 37.677727,64.6751364 C37.8860842,64.4622718 38.0008005,64.172027 37.9955382,63.8710391 L37.9955382,61.9766454 C38.0227835,61.6175698 37.9047118,61.2627878 37.6688775,60.9950942 C37.9067319,60.7286152 38.0251095,60.3729138 37.9955382,60.0135431 L37.9955382,58.1387804 C38.0034547,57.8361092 37.8899119,57.5432881 37.6812574,57.3282661 C37.4726028,57.113244 37.186976,56.9947141 36.8906564,57.0001811 L36.8906564,57.0001811 Z" id="Shape" fill="#A5A7AA" fill-rule="nonzero"></path>
                <path d="M44.8249621,57.0050633 L41.6671049,57.0050633 C41.3613307,57.0448312 41.1318363,57.3157786 41.1318363,57.637016 C41.1318363,57.9582535 41.3613307,58.2292008 41.6671049,58.2689687 L44.7685718,58.2689687 L44.7685718,60.3656801 L42.2216096,60.3656801 C41.8885598,60.3200654 41.5540981,60.4384762 41.3165726,60.686094 C41.0790471,60.9337118 40.9654624,61.2823847 41.009218,61.6295855 L41.009218,65 L45.3700684,65 C45.6758426,64.9602321 45.9053371,64.6892847 45.9053371,64.3680473 C45.9053371,64.0468098 45.6758426,63.7758625 45.3700684,63.7360946 L42.231008,63.7360946 L42.231008,61.6393832 L44.7873686,61.6393832 C45.1235926,61.6722748 45.4558727,61.5436684 45.690046,61.2900092 C45.9242193,61.03635 46.034767,60.68528 45.9903618,60.3362869 L45.9903618,58.3081596 C46.034767,57.9591665 45.9242193,57.6080966 45.690046,57.3544373 C45.4558727,57.1007781 45.1235926,56.9721718 44.7873686,57.0050633 L44.8249621,57.0050633 Z" id="Shape" fill="#A5A7AA" fill-rule="nonzero"></path>
                <path d="M53.3837768,61.2401952 C53.218858,61.2213721 53.0547402,61.2824355 52.9374454,61.406262 C52.8201507,61.5300884 52.7623083,61.7033453 52.7801385,61.8774477 L52.7801385,63.7499898 L52.1300665,63.7499898 L52.1300665,57.0049167 L49.6783663,57.0049167 C49.4465578,56.9743869 49.2188729,57.0877969 49.0938027,57.2960883 C48.9687324,57.5043796 48.9687324,57.770155 49.0938027,57.9784464 C49.2188729,58.1867378 49.4465578,58.3001478 49.6783663,58.2696179 L50.9320766,58.2696179 L50.9320766,63.7303821 L49.6783663,63.7303821 C49.4465578,63.6998522 49.2188729,63.8132622 49.0938027,64.0215536 C48.9687324,64.229845 48.9687324,64.4956204 49.0938027,64.7039117 C49.2188729,64.9122031 49.4465578,65.0256131 49.6783663,64.9950833 L53.3930635,64.9950833 C53.5563107,65.0068087 53.7163869,64.9434446 53.832087,64.8213017 C53.9477871,64.6991587 54.0078087,64.5301685 53.9967018,64.3578307 L53.9967018,61.8774477 C54.0150679,61.7014374 53.9560542,61.5262427 53.8365461,61.4019912 C53.717038,61.2777397 53.550203,61.2181216 53.3837768,61.2401952 L53.3837768,61.2401952 Z" id="Shape" fill="#A5A7AA" fill-rule="nonzero"></path>
                <path d="M69.358288,58.2618364 C69.6645426,58.2221336 69.8943976,57.9516298 69.8943976,57.6309182 C69.8943976,57.3102066 69.6645426,57.0397028 69.358288,57 L65.9319018,57 L65.9319018,61.6267336 L68.7558465,61.6267336 L68.7558465,63.7200127 L66.6849537,63.7200127 C66.5688622,63.6978224 66.4573766,63.6547923 66.3554935,63.5928509 L66.2331226,63.5341608 L65.9507281,63.406999 C65.8394551,63.3498664 65.7171409,63.3197631 65.5930285,63.3189639 C65.2624846,63.3295376 64.9998435,63.6111256 65.0000001,63.954773 C65.0000001,64.3558218 65.3012208,64.4927653 65.5459627,64.6003637 L66.007207,64.8155606 C66.2105544,64.9270439 66.4362517,64.9873525 66.6661274,64.9916308 L68.7840859,64.9916308 C69.1396607,65.0373233 69.4934814,64.8939309 69.7254008,64.6101454 C69.9202382,64.3712392 70.0151292,64.0613343 69.988969,63.7493577 L69.988969,61.6071703 C70.0398288,61.2428162 69.9127724,60.8760643 69.6500956,60.6290025 C69.4205179,60.4026136 69.1089058,60.2887457 68.7934991,60.3159888 L67.1744375,60.3159888 L67.1744375,58.2618364 L69.358288,58.2618364 Z" id="Shape" fill="#A5A7AA" fill-rule="nonzero"></path>
                <path d="M77.2911153,61.1909425 L74.2287335,61.1909425 L74.2287335,58.253366 C74.5148774,58.2000821 74.7200499,57.9375132 74.710775,57.6364749 C74.7160999,57.2940809 74.4551473,57.0106568 74.1247637,57 L73.5482042,57 C73.2079395,57 73,57.2350061 73,57.6364749 L73,64.2362301 C73,64.7649939 73.2362949,65 73.7561437,65 L77.2438563,65 C77.7637051,65 78,64.7649939 78,64.2362301 L78,62.0232558 C78,61.504284 77.8771267,61.1909425 77.2911153,61.1909425 Z M76.7712665,62.4541004 L76.7712665,63.7074663 L74.2192817,63.7074663 L74.2192817,62.4541004 L76.7712665,62.4541004 Z" id="Shape" fill="#A5A7AA" fill-rule="nonzero"></path>
                <path d="M80,57.6310322 L80,58.1164415 C80.0089686,58.4312657 80.2437522,58.6911279 80.5501645,58.7253722 C80.8565768,58.7596164 81.1407842,58.557756 81.2161428,58.2523561 L83.7909452,58.2523561 L83.7909452,59.543545 C83.7909452,59.854207 83.7909452,59.854207 83.5344151,60.0774953 L82.2042589,61.252186 C81.9823795,61.393925 81.866083,61.6584201 81.9097243,61.9220509 L81.9097243,64.2908486 C81.8801373,64.5331769 81.9900449,64.7711944 82.1919037,64.9019405 C82.3937625,65.0326865 82.6513301,65.0326865 82.8531888,64.9019405 C83.0550476,64.7711944 83.1649552,64.5331769 83.1353682,64.2908486 L83.1353682,62.3492111 C83.1353682,62.0676737 83.1353682,62.0676737 83.363395,61.8638018 L84.7125535,60.6696948 C84.9088845,60.5335504 85.0178973,60.2996342 84.9975869,60.058079 L84.9975869,57 L80.5890692,57 C80.2613032,57.0203051 80.0043734,57.2955375 80,57.6310322 L80,57.6310322 Z" id="Shape" fill="#A5A7AA" fill-rule="nonzero"></path>
                <path d="M92.0360424,60.374221 L92.0360424,57.638179 C92.0441556,57.4666516 91.9828254,57.2995205 91.867206,57.1780828 C91.7515866,57.056645 91.5924632,56.9922284 91.4291541,57.0007499 L89.5618055,57.0007499 C89.3984964,56.9922284 89.239373,57.056645 89.1237536,57.1780828 C89.0081343,57.2995205 88.946804,57.4666516 88.9549172,57.638179 L88.9549172,60.374221 C88.7105829,60.3949522 88.4801707,60.5021269 88.3013452,60.6782257 C88.0966115,60.8969473 87.9882818,61.195623 88.0025695,61.5019802 L88.0025695,63.8653713 C87.9811841,64.1796226 88.0941102,64.4875607 88.3106763,64.7055475 C88.5272424,64.9235343 88.8249643,65.0289382 89.1229786,64.9931306 L91.9240015,64.9931306 C92.214315,65.0136268 92.4989071,64.9014079 92.704653,64.6853081 C92.9103989,64.4692083 93.0172411,64.1702945 92.9977269,63.8653713 L92.9977269,61.5117868 C93.0120146,61.2054296 92.9036849,60.9067539 92.6989511,60.6880323 C92.519014,60.506318 92.2848397,60.3954633 92.0360424,60.374221 Z M90.1686938,60.374221 L90.1686938,58.2756082 L90.7942556,58.2756082 L90.7942556,60.374221 L90.1686938,60.374221 Z M91.7372666,61.6392727 L91.7372666,63.7378855 L89.216346,63.7378855 L89.216346,61.6392727 L91.7372666,61.6392727 Z" id="Shape" fill="#A5A7AA" fill-rule="nonzero"></path>
                <path d="M108.036042,60.374221 L108.036042,57.638179 C108.044156,57.4666516 107.982825,57.2995205 107.867206,57.1780828 C107.751587,57.056645 107.592463,56.9922284 107.429154,57.0007499 L105.561806,57.0007499 C105.398496,56.9922284 105.239373,57.056645 105.123754,57.1780828 C105.008134,57.2995205 104.946804,57.4666516 104.954917,57.638179 L104.954917,60.374221 C104.710583,60.3949522 104.480171,60.5021269 104.301345,60.6782257 C104.096611,60.8969473 103.988282,61.195623 104.002569,61.5019802 L104.002569,63.8653713 C103.981184,64.1796226 104.09411,64.4875607 104.310676,64.7055475 C104.527242,64.9235343 104.824964,65.0289382 105.122979,64.9931306 L107.924001,64.9931306 C108.214315,65.0136268 108.498907,64.9014079 108.704653,64.6853081 C108.910399,64.4692083 109.017241,64.1702945 108.997727,63.8653713 L108.997727,61.5117868 C109.012015,61.2054296 108.903685,60.9067539 108.698951,60.6880323 C108.519014,60.506318 108.28484,60.3954633 108.036042,60.374221 Z M106.168694,60.374221 L106.168694,58.2756082 L106.794256,58.2756082 L106.794256,60.374221 L106.168694,60.374221 Z M107.737267,61.6392727 L107.737267,63.7378855 L105.216346,63.7378855 L105.216346,61.6392727 L107.737267,61.6392727 Z" id="Shape" fill="#A5A7AA" fill-rule="nonzero"></path>
                <path d="M112,57.5631514 L112,57.9963448 C112.008918,58.277303 112.242374,58.5092115 112.547054,58.5397721 C112.851734,58.5703327 113.134334,58.3901866 113.209267,58.1176389 L115.769511,58.1176389 L115.769511,59.2699333 C115.769511,59.547177 115.769511,59.547177 115.514432,59.746446 L114.191796,60.794774 C113.971171,60.921266 113.855532,61.157309 113.898927,61.3925808 L113.898927,63.5065645 C113.937273,63.7884414 114.198532,64 114.508284,64 C114.818035,64 115.079295,63.7884414 115.117641,63.5065645 L115.117641,61.773791 C115.117641,61.5225388 115.117641,61.5225388 115.344379,61.3405976 L116.685909,60.2749419 C116.919937,60.1378596 117.039604,59.8840812 116.988226,59.6338157 L116.988226,57 L112.604633,57 C112.271302,57.0092344 112.004901,57.2573591 112,57.5631514 L112,57.5631514 Z" id="Shape" fill="#A5A7AA" fill-rule="nonzero"></path>
                <path d="M124.328922,61.1909425 L121.266541,61.1909425 L121.266541,58.253366 C121.552685,58.2000821 121.757857,57.9375132 121.748582,57.6364749 C121.753907,57.2940809 121.492954,57.0106568 121.162571,57 L120.548204,57 C120.20794,57 120,57.2350061 120,57.6364749 L120,64.2362301 C120,64.7649939 120.236295,65 120.756144,65 L124.243856,65 C124.763705,65 125,64.7649939 125,64.2362301 L125,62.0232558 C125,61.504284 124.886578,61.1909425 124.328922,61.1909425 Z M123.809074,62.4541004 L123.809074,63.7074663 L121.257089,63.7074663 L121.257089,62.4541004 L123.809074,62.4541004 Z" id="Shape" fill="#A5A7AA" fill-rule="nonzero"></path>
                <path d="M132.365395,58.2572248 C132.672767,58.2176671 132.90346,57.9481519 132.90346,57.6286124 C132.90346,57.3090729 132.672767,57.0395577 132.365395,57 L128.945406,57 L128.945406,61.6098242 L131.779651,61.6098242 L131.779651,63.6954529 L129.701205,63.6954529 C129.584741,63.6731534 129.47288,63.6302924 129.370543,63.5687558 L129.247726,63.5102803 L128.964301,63.3835832 C128.852736,63.3263334 128.729902,63.296322 128.605297,63.2958698 C128.439045,63.298325 128.280864,63.37022 128.166909,63.4951218 C128.052955,63.6200236 127.992967,63.7872553 128.000658,63.958593 C128.000658,64.3581761 128.302977,64.4946191 128.548612,64.6018243 L129.011539,64.8162347 C129.215628,64.9273105 129.442148,64.9873987 129.672862,64.9916614 L131.779651,64.9916614 C132.136523,65.0371869 132.491634,64.8943185 132.724399,64.6115702 C132.919947,64.3735371 133.015184,64.0647649 132.988929,63.7539285 L132.988929,61.5903323 C133.039974,61.2273099 132.912454,60.8618984 132.648819,60.6157395 C132.418404,60.390178 132.105656,60.2767263 131.789098,60.3038698 L130.164132,60.3038698 L130.164132,58.2572248 L132.365395,58.2572248 Z" id="Shape" fill="#A5A7AA" fill-rule="nonzero"></path>
                <path d="M147.557931,61.2160622 L147.557931,58.5272883 C147.524151,58.2148646 147.293996,57.9803796 147.021122,57.9803796 C146.748249,57.9803796 146.518094,58.2148646 146.484314,58.5272883 L146.484314,61.2064594 L145.077791,61.2064594 L145.077791,57.7014506 C145.103709,57.4617538 145.007434,57.2263209 144.830613,57.0969947 C144.653792,56.9676684 144.428173,56.9676684 144.251352,57.0969947 C144.074532,57.2263209 143.978257,57.4617538 144.004174,57.7014506 L144.004174,62.445216 L146.500959,62.445216 L146.500959,64.2985494 C146.475042,64.5382462 146.571317,64.7736791 146.748137,64.9030053 C146.924958,65.0323316 147.150577,65.0323316 147.327398,64.9030053 C147.504219,64.7736791 147.600494,64.5382462 147.574576,64.2985494 L147.574576,62.4356132 C147.822954,62.3729558 148,62.1191894 148,61.8258377 C148,61.532486 147.822954,61.2787196 147.574576,61.2160622 L147.557931,61.2160622 Z" id="Shape" fill="#A5A7AA" fill-rule="nonzero"></path>
                <path d="M154.900738,57.0000451 L151.547255,57.0000451 C151.234633,57.0398859 151,57.3113299 151,57.6331563 C151,57.9549827 151.234633,58.2264267 151.547255,58.2662676 L154.756606,58.2662676 L154.756606,59.777882 C154.756606,60.3668227 154.506776,60.3668227 154.401079,60.3668227 L152.479312,60.3668227 C152.16669,60.4066635 151.932057,60.6781076 151.932057,60.999934 C151.932057,61.3217603 152.16669,61.5932044 152.479312,61.6330452 L154.401079,61.6330452 C154.506776,61.6330452 154.756606,61.6330452 154.756606,62.2219859 L154.756606,63.7336004 L151.547255,63.7336004 C151.234633,63.7734412 151,64.0448852 151,64.3667116 C151,64.688538 151.234633,64.9599821 151.547255,64.9998229 L154.891129,64.9998229 C155.18578,65.005199 155.469913,64.8879991 155.678296,64.6751309 C155.886678,64.4622627 156.001408,64.172013 155.996145,63.8710199 L155.996145,61.9667783 C156.023394,61.6076966 155.905308,61.2529085 155.669445,60.9852104 C155.905308,60.7175124 156.023394,60.3627243 155.996145,60.0036426 L155.996145,58.1288481 C156.001343,57.8295808 155.887919,57.5408706 155.681639,57.3283013 C155.475358,57.1157319 155.193733,56.9973492 154.900738,57.0000451 L154.900738,57.0000451 Z" id="Shape" fill="#A5A7AA" fill-rule="nonzero"></path>
                <path d="M162.77797,57.0050695 L159.620113,57.0050695 C159.314339,57.0448862 159.084844,57.3161658 159.084844,57.6377972 C159.084844,57.9594285 159.314339,58.2307081 159.620113,58.2705248 L162.759173,58.2705248 L162.759173,60.3698071 L160.22161,60.3698071 C159.88856,60.3241365 159.554098,60.4426925 159.316573,60.690614 C159.079047,60.9385354 158.965462,61.2876358 159.009218,61.6352624 L159.009218,65 L163.370068,65 C163.675843,64.9601833 163.905337,64.6889037 163.905337,64.3672724 C163.905337,64.045641 163.675843,63.7743614 163.370068,63.7345447 L160.231008,63.7345447 L160.231008,61.6450721 L162.787369,61.6450721 C163.123593,61.678004 163.455873,61.54924 163.690046,61.2952697 C163.924219,61.0412994 164.034767,60.689799 163.990362,60.3403779 L163.990362,58.3097637 C164.034767,57.9603427 163.924219,57.6088422 163.690046,57.354872 C163.455873,57.1009017 163.123593,56.9721377 162.787369,57.0050695 L162.77797,57.0050695 Z" id="Shape" fill="#A5A7AA" fill-rule="nonzero"></path>
                <path d="M171.326821,61.239758 C171.156808,61.220915 170.987621,61.282043 170.866703,61.4060004 C170.745785,61.5299578 170.686156,61.7033979 170.704537,61.8776845 L170.704537,63.7522071 L170.072679,63.7522071 L170.072679,57 L167.545248,57 C167.233773,57.039835 167,57.3112397 167,57.6330194 C167,57.9547991 167.233773,58.2262038 167.545248,58.2660388 L168.837684,58.2660388 L168.837684,63.7325786 L167.545248,63.7325786 C167.233773,63.7724137 167,64.0438184 167,64.365598 C167,64.6873777 167.233773,64.9587824 167.545248,64.9986175 L171.374689,64.9986175 C171.542979,65.0103553 171.708,64.9469242 171.827274,64.8246521 C171.946548,64.7023799 172.008423,64.533211 171.996973,64.3606909 L171.996973,61.8678703 C172.015471,61.6853018 171.948435,61.5045548 171.816292,61.3807005 C171.684148,61.2568463 171.502547,61.2045545 171.326821,61.239758 Z" id="Shape" fill="#A5A7AA" fill-rule="nonzero"></path>
                <path d="M21.7192982,82 L21,79 L21.5526316,79 L21.8157895,80.3442623 C21.877193,80.6721311 21.9561404,81.0655738 22.0087719,81.4344262 L22.0087719,81.4344262 C22.0087719,81.0655738 22.122807,80.6803279 22.1842105,80.3360656 L22.4473684,79 L23,79 L22.254386,82 L21.7192982,82 Z" id="Shape" fill="#A5A7AA" fill-rule="nonzero"></path>
                <path d="M23.6637555,81.1891892 L23.489083,82 L23,82 L23.7510917,79 L24.3449782,79 L25,81.9675676 L24.510917,81.9675676 L24.3362445,81.1567568 L23.6637555,81.1891892 Z M24.2489083,80.8243243 L24.1179039,80.1432432 C24.1179039,79.9486486 24.0393013,79.672973 23.9956332,79.4702703 L23.9956332,79.4702703 C23.9956332,79.672973 23.9170306,79.9567568 23.8733624,80.1432432 L23.7336245,80.8243243 L24.2489083,80.8243243 Z" id="Shape" fill="#A5A7AA" fill-rule="nonzero"></path>
                <polygon id="Shape" fill="#A5A7AA" fill-rule="nonzero" points="26 79 26.3670886 79 26.3670886 81.5983607 27 81.5983607 27 82 26.0126582 82"></polygon>
                <polygon id="Shape" fill="#A5A7AA" fill-rule="nonzero" points="28.58 79 28.58 82 28 82 28 79"></polygon>
                <path d="M29.0095662,79.0595128 C29.2134329,79.0198284 29.4221742,79.0008339 29.6313662,79.0029318 C29.9569342,78.9825038 30.2792132,79.0694121 30.5305847,79.245422 C30.8776358,79.5710501 31.0445668,80.0059539 30.9897602,80.4417074 C31.0437475,80.8946331 30.8780657,81.3466982 30.5305847,81.6945738 C30.2532128,81.9098515 29.8825132,82.0181633 29.5070062,81.9936451 C29.3381529,82.0021183 29.1688533,82.0021183 29,81.9936451 L29.0095662,79.0595128 Z M29.5644031,81.5975776 L29.6983293,81.5975776 C30.0809755,81.5975776 30.4349232,81.3227553 30.4349232,80.4255413 C30.4349232,79.7546516 30.2053355,79.3666672 29.7270278,79.3666672 L29.5644031,79.3666672 L29.5644031,81.5975776 Z" id="Shape" fill="#A5A7AA" fill-rule="nonzero"></path>
                <polygon id="Shape" fill="#A5A7AA" fill-rule="nonzero" points="33 79 34 79 34 79.4109589 33.3866667 79.4109589 33.3866667 80.3068493 33.96 80.3068493 33.96 80.7013699 33.3866667 80.7013699 33.3866667 82 33 82"></polygon>
                <path d="M35,79.0603502 C35.2299482,79.0202542 35.4647738,79.0012897 35.7,79.0038184 C36.0265222,78.9812729 36.3515413,79.0591528 36.61,79.2218694 C36.8335478,79.4204846 36.9301239,79.6917147 36.8713608,79.9558912 C36.8125977,80.2200677 36.6051679,80.4471935 36.31,80.5705549 L36.31,80.5705549 C36.56,80.6432385 36.7,80.8451376 36.77,81.1924039 C36.8169206,81.4665693 36.8938894,81.736829 37,82 L36.4,82 C36.3097439,81.7655757 36.2461472,81.5249926 36.21,81.2812395 C36.14,80.9016693 36,80.7724539 35.72,80.7724539 L35.58,80.7724539 L35.58,82 L35,82 L35,79.0603502 Z M35.58,80.3848078 L35.73,80.3848078 C35.8932568,80.3812297 36.0470802,80.3222312 36.1536787,80.2223071 C36.2602771,80.122383 36.3097708,79.9907944 36.29,79.8598703 C36.29,79.5691357 36.15,79.3753127 35.77,79.3672367 C35.7036977,79.3592758 35.6363023,79.3592758 35.57,79.3672367 L35.58,80.3848078 Z" id="Shape" fill="#A5A7AA" fill-rule="nonzero"></path>
                <path d="M39,80.464 C39,81.568 38.5675676,82 37.981982,82 C37.3963964,82 37,81.376 37,80.496 C37,79.616 37.3693694,79 38.027027,79 C38.6846847,79 39,79.68 39,80.464 Z M37.5405405,80.464 C37.5405405,81.104 37.6756757,81.56 38.009009,81.56 C38.3423423,81.56 38.4504505,81.032 38.4504505,80.448 C38.4504505,79.864 38.3513514,79.368 38,79.368 C37.6486486,79.368 37.5405405,79.896 37.5405405,80.504 L37.5405405,80.464 Z" id="Shape" fill="#A5A7AA" fill-rule="nonzero"></path>
                <path d="M42.2783505,80.8442623 C42.2783505,80.5081967 42.2783505,80.0983607 42.2783505,79.7704918 L42.2783505,79.7704918 C42.2061856,80.0983607 42.1030928,80.4590164 42.0206186,80.7459016 L41.628866,81.9672131 L41.2164948,81.9672131 L40.8453608,80.7786885 C40.742268,80.4754098 40.6391753,80.1065574 40.5773196,79.7704918 L40.5773196,79.7704918 C40.5773196,80.1065574 40.5773196,80.5081967 40.5773196,80.8606557 L40.5154639,82 L40,82 L40.2474227,79 L40.8762887,79 L41.2371134,80.2131148 C41.3505155,80.5983607 41.4536082,80.9180328 41.5257732,81.2540984 L41.5257732,81.2540984 C41.5876289,80.9180328 41.6804124,80.6065574 41.7835052,80.2131148 L42.1340206,79 L42.7731959,79 L43,82 L42.4536082,82 L42.2783505,80.8442623 Z" id="Shape" fill="#A5A7AA" fill-rule="nonzero"></path>
                <path d="M65.7192982,82 L65,79 L65.5526316,79 L65.8157895,80.3442623 C65.877193,80.6721311 65.9561404,81.0655738 66.0087719,81.4344262 L66.0087719,81.4344262 C66.0087719,81.0655738 66.122807,80.6803279 66.1842105,80.3360656 L66.4473684,79 L67,79 L66.254386,82 L65.7192982,82 Z" id="Shape" fill="#A5A7AA" fill-rule="nonzero"></path>
                <path d="M67.6785714,81.1803279 L67.5,82 L67,82 L67.7232143,79 L68.3303571,79 L69,82 L68.5,82 L68.3214286,81.1803279 L67.6785714,81.1803279 Z M68.2767857,80.8114754 L68.1428571,80.1229508 C68.1428571,79.9262295 68.0625,79.647541 68.0178571,79.442623 L68.0178571,79.442623 C68.0178571,79.647541 67.9375,79.9344262 67.8928571,80.1229508 L67.75,80.8114754 L68.2767857,80.8114754 Z" id="Shape" fill="#A5A7AA" fill-rule="nonzero"></path>
                <polygon id="Shape" fill="#A5A7AA" fill-rule="nonzero" points="70 79 70.3670886 79 70.3670886 81.5983607 71 81.5983607 71 82 70.0126582 82"></polygon>
                <polygon id="Shape" fill="#A5A7AA" fill-rule="nonzero" points="72.58 79 72.58 82 72 82 72 79"></polygon>
                <path d="M73.0095642,79.0595128 C73.2133899,79.0198284 73.4220892,79.0008339 73.631239,79.0029318 C73.9567414,78.9825038 74.2789556,79.0694121 74.5302765,79.245422 C74.878336,79.5705235 75.0453938,80.0058454 74.9893594,80.4417074 C75.0433359,80.8946331 74.8776875,81.3466982 74.5302765,81.6945738 C74.2529604,81.9098515 73.8823354,82.0181633 73.5069041,81.9936451 C73.3380848,82.0021183 73.1688193,82.0021183 73,81.9936451 L73.0095642,79.0595128 Z M73.5642895,81.5975776 L73.6981886,81.5975776 C74.0807578,81.5975776 74.4346342,81.3227553 74.4346342,80.4255413 C74.4346342,79.7546516 74.2050927,79.3666672 73.7268813,79.3666672 L73.5642895,79.3666672 L73.5642895,81.5975776 Z" id="Shape" fill="#A5A7AA" fill-rule="nonzero"></path>
                <polygon id="Shape" fill="#A5A7AA" fill-rule="nonzero" points="77.6947368 79.4344262 77 79.4344262 77 79 79 79 79 79.4344262 78.3052632 79.4344262 78.3052632 82 77.6947368 82"></polygon>
                <path d="M81,80.464 C81,81.568 80.5675676,82 79.981982,82 C79.3963964,82 79,81.376 79,80.496 C79,79.616 79.3693694,79 80.027027,79 C80.6846847,79 81,79.68 81,80.464 Z M79.5405405,80.464 C79.5405405,81.104 79.6756757,81.56 80.009009,81.56 C80.3423423,81.56 80.4504505,81.032 80.4504505,80.448 C80.4504505,79.864 80.3513514,79.368 80,79.368 C79.6486486,79.368 79.5405405,79.896 79.5405405,80.504 L79.5405405,80.464 Z" id="Shape" fill="#A5A7AA" fill-rule="nonzero"></path>
            </g>
        </g>
    </g>
</svg>