<?xml version="1.0" encoding="UTF-8"?>
<svg width="21px" height="21px" viewBox="0 0 21 21" version="1.1" xmlns="http://www.w3.org/2000/svg" xmlns:xlink="http://www.w3.org/1999/xlink">
    <!-- Generator: Sketch 50.2 (55047) - http://www.bohemiancoding.com/sketch -->
    <title>Imagotipo Copy</title>
    <desc>Created with Sketch.</desc>
    <defs></defs>
    <g id="ClubInterjet" stroke="none" stroke-width="1" fill="none" fill-rule="evenodd">
        <g id="ClubInterjet_login1" transform="translate(-405.000000, -430.000000)" fill-rule="nonzero">
            <g id="Imagotipo-Copy" transform="translate(405.000000, 430.000000)">
                <path d="M11.7793741,7.40429435 L11.7793741,3.9056873 L11.7793741,1.2805599 C11.7793741,0.571991574 11.2055312,0 10.4946999,0 C9.78753786,0 9.21756814,0.571991574 9.21756814,1.2805599 L9.21756814,3.91159883 L9.21756814,7.40531358 L6.74076842,4.93205137 L4.88388212,3.07848067 C4.38322202,2.57763131 3.57107634,2.57763131 3.07367788,3.0794999 C2.57261008,3.57708772 2.57261008,4.38819053 3.07367788,4.88720527 L4.93382581,6.74954135 L7.40084065,9.21485357 L2.12026287,9.21485357 L1.28304341,9.21485357 C0.577104527,9.21485357 0,9.79031053 0,10.4988788 C0,11.2078549 0.577104527,11.7827003 1.28304341,11.7827003 L2.05686495,11.7810695 L3.90804341,11.7784195 L7.40308302,11.7784195 L4.93382581,14.2506625 L3.6677021,15.5161378 L3.07571639,16.108514 C2.57444475,16.6083441 2.57444475,17.4225046 3.07571639,17.9233539 C3.5775996,18.4250187 4.39056069,18.4250187 4.89020152,17.9233539 L5.4391745,17.3766393 L6.74423391,16.0655025 L9.21756814,13.5914249 L9.21756814,17.0865666 L9.21756814,18.879595 L9.21756814,19.7153632 C9.21756814,20.4237277 9.79324571,21 10.5,21 C11.2089967,21 11.7832473,20.4237277 11.7832473,19.7153632 L11.7832473,18.9419719 L11.7793741,17.091255 L11.7793741,13.593871 L14.2502621,16.0655025 L15.5192397,17.3317932 L16.1091869,17.9233539 C16.6086239,18.4250187 17.4226043,18.4250187 17.9257106,17.9233539 C18.4257591,17.4225046 18.4257591,16.6083441 17.9257106,16.108514 L17.3767376,15.5601685 L16.0667857,14.2541279 L13.5971208,11.7784195 L17.094199,11.7784195 L19.7204221,11.7747503 C20.4259532,11.7747503 21,11.2009241 21,10.4952096 C21,9.78766053 20.4259532,9.21485357 19.7204221,9.21485357 L17.0893065,9.21485357 L13.5934515,9.21485357 L16.0667857,6.74077597 L17.9214297,4.88027451 C18.420459,4.38289053 18.420459,3.5707685 17.9214297,3.07154991 C17.4197503,2.57253516 16.6086239,2.57253516 16.1112254,3.07154991 L14.2488351,4.93490521 L11.7793741,7.40429435 Z" id="Fill-17" fill="#6CACDE"></path>
                <path d="M16.1556101,14.2908766 C16.6649808,14.7941313 16.6649808,15.6158052 16.1556101,16.120089 C15.6483117,16.626637 14.823123,16.626637 14.31168,16.120089 L12.0128806,13.8357861 L9.95343159,11.7910695 L3.80015931,11.7910695 C3.08252276,11.7910695 2.5,11.2135102 2.5,10.4980446 C2.5,9.78299071 3.08252276,9.20254972 3.80015931,9.20254972 L9.95343159,9.20254972 L11.7998485,7.37539558 L14.3102294,4.87991098 C14.823123,4.37336301 15.6483117,4.37336301 16.1522944,4.87991098 C16.6635302,5.38666478 16.6635302,6.20298711 16.1522944,6.70912342 L13.6439858,9.20254972 L17.1977684,9.20254972 C17.9147833,9.20254972 18.5,9.78299071 18.5,10.4980446 C18.5,11.2135102 17.9147833,11.7910695 17.1977684,11.7910695 L13.6477159,11.7910695 L16.1556101,14.2908766 Z" id="Fill-20" fill="#1B4298"></path>
            </g>
        </g>
    </g>
</svg>