<?xml version="1.0" encoding="UTF-8" standalone="no"?>
<svg width="37px" height="37px" viewBox="0 0 37 37" version="1.1" xmlns="http://www.w3.org/2000/svg" xmlns:xlink="http://www.w3.org/1999/xlink">
    <!-- Generator: Sketch 47.1 (45422) - http://www.bohemiancoding.com/sketch -->
    <title>Artboard</title>
    <desc>Created with Sketch.</desc>
    <defs></defs>
    <g id="Page-1" stroke="none" stroke-width="1" fill="none" fill-rule="evenodd">
        <g id="Artboard">
            <g id="Page-1" transform="translate(1.000000, 1.000000)">
                <path d="M17.4397841,0.670727273 C26.7012614,0.670727273 34.2087614,8.17822727 34.2087614,17.4397045 C34.2087614,26.7011818 26.7012614,34.2086818 17.4397841,34.2086818 C8.17830682,34.2086818 0.670806818,26.7011818 0.670806818,17.4397045 C0.670806818,8.17822727 8.17830682,0.670727273 17.4397841,0.670727273" id="Fill-1" fill="#FFFFFF"></path>
                <path d="M17.4397841,0.670727273 C26.7012614,0.670727273 34.2087614,8.17822727 34.2087614,17.4397045 C34.2087614,26.7011818 26.7012614,34.2086818 17.4397841,34.2086818 C8.17830682,34.2086818 0.670806818,26.7011818 0.670806818,17.4397045 C0.670806818,8.17822727 8.17830682,0.670727273 17.4397841,0.670727273 Z" id="Stroke-3" stroke="#E87600" stroke-width="1.686"></path>
                <path d="M17.5648295,10.9557159 L11.8073295,13.9863977 L11.8073295,15.197875 L23.3223295,15.197875 L23.3223295,13.9863977 L17.5648295,10.9557159 Z M20.2924432,20.6523068 L22.1100568,20.6523068 L22.1100568,16.4101477 L20.2924432,16.4101477 L20.2924432,20.6523068 Z M11.8073295,23.6829886 L23.323125,23.6829886 L23.323125,21.8645795 L11.8073295,21.8645795 L11.8073295,23.6829886 Z M16.655625,20.6523068 L18.4740341,20.6523068 L18.4740341,16.4101477 L16.655625,16.4101477 L16.655625,20.6523068 Z M13.0196023,20.6523068 L14.8380114,20.6523068 L14.8380114,16.4101477 L13.0196023,16.4101477 L13.0196023,20.6523068 Z" id="Fill-5" fill="#E87600"></path>
            </g>
        </g>
    </g>
</svg>