<?xml version="1.0" encoding="UTF-8" standalone="no"?>
<svg width="37px" height="37px" viewBox="0 0 37 37" version="1.1" xmlns="http://www.w3.org/2000/svg" xmlns:xlink="http://www.w3.org/1999/xlink">
    <!-- Generator: Sketch 47.1 (45422) - http://www.bohemiancoding.com/sketch -->
    <title>Artboard</title>
    <desc>Created with Sketch.</desc>
    <defs></defs>
    <g id="Page-1" stroke="none" stroke-width="1" fill="none" fill-rule="evenodd">
        <g id="Artboard">
            <g id="Page-1" transform="translate(1.000000, 1.000000)">
                <path d="M17.4397841,0.670727273 C26.7012614,0.670727273 34.2087614,8.17822727 34.2087614,17.4397045 C34.2087614,26.7011818 26.7012614,34.2086818 17.4397841,34.2086818 C8.17830682,34.2086818 0.670806818,26.7011818 0.670806818,17.4397045 C0.670806818,8.17822727 8.17830682,0.670727273 17.4397841,0.670727273" id="Fill-1" fill="#FFFFFF"></path>
                <path d="M17.4397841,0.670727273 C26.7012614,0.670727273 34.2087614,8.17822727 34.2087614,17.4397045 C34.2087614,26.7011818 26.7012614,34.2086818 17.4397841,34.2086818 C8.17830682,34.2086818 0.670806818,26.7011818 0.670806818,17.4397045 C0.670806818,8.17822727 8.17830682,0.670727273 17.4397841,0.670727273 Z" id="Stroke-3" stroke="#E87600" stroke-width="1.686"></path>
                <path d="M18.1707273,21.3525455 C18.42925,21.3525455 18.9661818,20.8148182 18.9661818,20.5570909 C18.9661818,19.5031136 18.42925,18.9661818 18.1707273,18.9661818 C17.11675,18.9661818 16.5798182,19.5031136 16.5798182,20.5570909 C16.5798182,20.8148182 17.11675,21.3525455 18.1707273,21.3525455 M18.1707273,12.6025455 C18.8699318,12.6025455 19.7616364,13.4695909 19.7616364,14.1934545 L19.7616364,15.7843636 L15.7843636,15.7843636 L15.7843636,14.1934545 C15.7843636,13.4695909 16.6760682,12.6025455 18.1707273,12.6025455 M21.3525455,15.7843636 L21.3525455,15.7843636 L21.3525455,14.1934545 C21.0049318,12.4537955 19.5564091,11.0116364 18.1707273,11.0116364 C15.9887955,11.0116364 14.5418636,12.4537955 14.1934545,14.1934545 L14.1934545,15.7843636 C13.1840227,15.5194773 12.6025455,16.0985682 12.6025455,16.5798182 L12.6025455,22.9434545 C12.6025455,23.9544773 13.1840227,24.5343636 14.1934545,24.5343636 L21.3525455,24.5343636 C22.3619773,24.5343636 22.9434545,23.9544773 22.9434545,22.9434545 L22.9434545,16.5798182 C22.9434545,16.0985682 22.3619773,15.5194773 21.3525455,15.7843636" id="Fill-5" fill="#E87600"></path>
            </g>
        </g>
    </g>
</svg>