<?xml version="1.0" encoding="UTF-8" standalone="no"?>
<svg width="37px" height="37px" viewBox="0 0 37 37" version="1.1" xmlns="http://www.w3.org/2000/svg" xmlns:xlink="http://www.w3.org/1999/xlink">
    <!-- Generator: Sketch 47.1 (45422) - http://www.bohemiancoding.com/sketch -->
    <title>Artboard</title>
    <desc>Created with Sketch.</desc>
    <defs>
        <polygon id="path-1" points="0 34.8795682 34.8798864 34.8795682 34.8798864 -0.000318181818 0 -0.000318181818"></polygon>
    </defs>
    <g id="Page-1" stroke="none" stroke-width="1" fill="none" fill-rule="evenodd">
        <g transform="translate(1.000000, 1.000000)">
            <path d="M17.4397841,0.670727273 C26.7012614,0.670727273 34.2087614,8.17822727 34.2087614,17.4397045 C34.2087614,26.7011818 26.7012614,34.2086818 17.4397841,34.2086818 C8.17830682,34.2086818 0.670806818,26.7011818 0.670806818,17.4397045 C0.670806818,8.17822727 8.17830682,0.670727273 17.4397841,0.670727273 Z" id="Fill-1" fill="#FFFFFF"></path>
            <path d="M17.4397841,0.670727273 C26.7012614,0.670727273 34.2087614,8.17822727 34.2087614,17.4397045 C34.2087614,26.7011818 26.7012614,34.2086818 17.4397841,34.2086818 C8.17830682,34.2086818 0.670806818,26.7011818 0.670806818,17.4397045 C0.670806818,8.17822727 8.17830682,0.670727273 17.4397841,0.670727273 Z" id="Stroke-3" stroke="#E87600" stroke-width="1.686"></path>
            <mask id="mask-2" fill="white">
                <use xlink:href="#path-1"></use>
            </mask>
            <g id="Clip-6"></g>
            <path d="M22.1478409,21.3528636 L25.3296591,21.3528636 L25.3296591,15.7846818 L22.1478409,15.7846818 L22.1478409,21.3528636 Z M26.1251136,14.1937727 L21.3523864,14.1937727 C20.9148864,14.1937727 20.5569318,14.5517273 20.5569318,14.9892273 L20.5569318,22.9437727 C20.5569318,23.3804773 20.9148864,23.7392273 21.3523864,23.7392273 L26.1251136,23.7392273 C26.5626136,23.7392273 26.9205682,23.3804773 26.9205682,22.9437727 L26.9205682,14.9892273 C26.9205682,14.5517273 26.5626136,14.1937727 26.1251136,14.1937727 L26.1251136,14.1937727 Z M11.0114773,12.6028636 L25.3296591,12.6028636 L25.3296591,11.0119545 L11.0114773,11.0119545 C10.1364773,11.0119545 9.42056818,11.7278636 9.42056818,12.6028636 L9.42056818,21.3528636 L7.82965909,21.3528636 L7.82965909,23.7392273 L18.9660227,23.7392273 L18.9660227,21.3528636 L11.0114773,21.3528636 L11.0114773,12.6028636 Z" id="Fill-5" fill="#E87600" mask="url(#mask-2)"></path>
        </g>
        <g id="Artboard"></g>
    </g>
</svg>