<?xml version="1.0" encoding="UTF-8" standalone="no"?>
<svg width="70px" height="20px" viewBox="0 0 70 20" version="1.1" xmlns="http://www.w3.org/2000/svg" xmlns:xlink="http://www.w3.org/1999/xlink">
    <!-- Generator: Sketch 47.1 (45422) - http://www.bohemiancoding.com/sketch -->
    <title>Artboard 5</title>
    <desc>Created with Sketch.</desc>
    <defs>
        <polygon id="path-1" points="0.0814816908 0.0703521085 4.44479658 0.0703521085 4.44479658 7.8845446 0.0814816908 7.8845446"></polygon>
        <polygon id="path-3" points="0 0.0733056294 0 4.45592509 7.91431146 4.45592509 7.91431146 0.0733056294 1.71021036e-21 0.0733056294"></polygon>
        <polygon id="path-5" points="0 17.9296468 67.6912585 17.9296468 67.6912585 0.126760556 0 0.126760556"></polygon>
    </defs>
    <g id="Page-1" stroke="none" stroke-width="1" fill="none" fill-rule="evenodd">
        <g id="Artboard-5">
            <g id="Inburo" transform="translate(1.000000, 1.000000)">
                <g id="Page-1">
                    <path d="M8.86149037,5.18915885 C9.91001347,5.18915885 10.8231334,5.56284896 11.5667784,6.31010244 C12.3110544,7.05748268 12.68294,7.97472206 12.68294,9.02797552 C12.68294,10.115074 12.3110544,10.9987219 11.5667784,11.7461021 C10.8231334,12.5279612 9.91001347,12.9012711 8.86149037,12.9012711 C7.81284107,12.9012711 6.89972118,12.5279612 6.15557137,11.7461021 C5.41167395,10.9987219 5.03928356,10.115074 5.03928356,9.02797552 C5.03928356,7.97472206 5.41167395,7.05748268 6.15557137,6.31010244 C6.89972118,5.56284896 7.81284107,5.18915885 8.86149037,5.18915885 Z" id="Fill-1" fill="#11284A"></path>
                    <g id="Group-5" transform="translate(4.416694, 0.056408)">
                        <mask id="mask-2" fill="white">
                            <use xlink:href="#path-1"></use>
                        </mask>
                        <g id="Clip-4"></g>
                        <path d="M4.44479658,4.45326311 L4.44479658,0.0702633761 C2.88911084,0.0702633761 1.43450429,0.477925324 0.0814816908,1.22555908 L0.0814816908,7.8845446 C0.318595052,6.89936156 0.859703136,6.08378414 1.63741982,5.47229122 C2.48302739,4.7929814 3.39614728,4.45326311 4.44479658,4.45326311" id="Fill-3" fill="#11284A" mask="url(#mask-2)"></path>
                    </g>
                    <g id="Group-8" transform="translate(0.000000, 9.056408)">
                        <mask id="mask-4" fill="white">
                            <use xlink:href="#path-3"></use>
                        </mask>
                        <g id="Clip-7"></g>
                        <path d="M7.91431146,4.45592509 C6.8997338,4.21812228 6.08807167,3.67508006 5.47907269,2.85937589 C4.80268759,2.04405199 4.4981881,1.12668585 4.4981881,0.0733056294 L-2.52382502e-05,0.0733056294 C-2.52382502e-05,1.63626328 0.405679634,3.09743221 1.18377489,4.45592509 L7.91431146,4.45592509 Z" id="Fill-6" fill="#11284A" mask="url(#mask-4)"></path>
                    </g>
                    <path d="M13.2582207,10.1831318 C13.0214859,11.1684416 12.5141971,11.984019 11.7026611,12.6296105 C10.8908728,13.2745682 9.94355511,13.6150471 8.895032,13.6150471 L8.895032,17.9295961 C10.4509701,17.9295961 11.9054505,17.5555257 13.2582207,16.7744272 L13.2582207,10.1831318 Z" id="Fill-9" fill="#11284A"></path>
                    <path d="M17.7227284,8.99425721 C17.7227284,7.4311728 17.3167711,5.97038415 16.5389282,4.61138423 L9.97748794,4.61138423 C10.9921918,4.8493138 11.8041063,5.39260954 12.4127267,6.1739616 C13.0887332,7.02363761 13.3934851,7.94087699 13.3934851,8.99425721 L17.7227284,8.99425721 Z" id="Fill-11" fill="#11284A"></path>
                    <mask id="mask-6" fill="white">
                        <use xlink:href="#path-5"></use>
                    </mask>
                    <g id="Clip-14"></g>
                    <polygon id="Fill-13" fill="#11284A" mask="url(#mask-6)" points="19.7520856 10.0133233 21.3077713 10.0133233 21.3077713 4.84935182 19.7520856 4.84935182"></polygon>
                    <polygon id="Fill-15" fill="#11284A" mask="url(#mask-6)" points="29.4590069 4.84935182 27.8693757 4.84935182 27.8693757 8.58650653 24.8592096 4.84935182 22.4239708 4.84935182 22.4239708 10.0133233 24.013602 10.0133233 24.013602 6.24245033 26.9899488 10.0133233 29.4590069 10.0133233"></polygon>
                    <path d="M36.1558882,7.39737843 L36.1558882,7.36327984 C36.4263161,7.29520942 36.5949076,7.19354746 36.6969963,7.05753338 C36.8659664,6.88767424 36.9334787,6.58205454 36.9334787,6.17401231 C36.9334787,5.69853346 36.7642562,5.35881517 36.4600091,5.12101237 C36.1558882,4.91730816 35.6821663,4.8493645 35.039348,4.8493645 L30.4736224,4.8493645 L30.4736224,10.013336 L35.5470154,10.013336 C36.0541781,10.013336 36.4263161,9.9452656 36.6626723,9.77540646 C36.9334787,9.5374769 37.102575,9.16416706 37.102575,8.65382906 C37.102575,8.24692768 37.0346841,7.9409277 36.8997856,7.77132207 C36.7305632,7.5674911 36.4937022,7.4312235 36.1558882,7.39737843 L36.1558882,7.39737843 Z M32.0633798,7.9409277 L34.904071,7.9409277 C35.276209,7.9409277 35.4792507,8.1109136 35.4792507,8.38230795 C35.4792507,8.65382906 35.276209,8.75650511 34.904071,8.75650511 L32.0633798,8.75650511 L32.0633798,7.9409277 Z M32.0633798,6.88767424 L32.0633798,6.07209682 L34.8702518,6.07209682 C35.1750036,6.07209682 35.3439737,6.20823766 35.3439737,6.47988553 C35.3439737,6.75178692 35.1750036,6.88767424 34.8702518,6.88767424 L32.0633798,6.88767424 Z" id="Fill-16" fill="#11284A" mask="url(#mask-6)"></path>
                    <path d="M44.5096481,4.84935182 L42.9535838,4.84935182 L42.9535838,7.83874601 C42.9535838,8.14487275 42.8522522,8.38229528 42.751173,8.51843611 C42.6155174,8.68829526 42.3448372,8.75649244 42.0405901,8.75649244 L40.4850305,8.75649244 C40.1465856,8.75649244 39.9437962,8.68829526 39.7748262,8.51843611 C39.638792,8.38229528 39.6054775,8.14487275 39.6054775,7.83874601 L39.6054775,4.84935182 L38.0155939,4.84935182 L38.0155939,8.17884458 C38.0155939,8.82380229 38.1846902,9.30029522 38.5232613,9.60553464 C38.8613277,9.94525293 39.4026882,10.0813938 40.1126401,10.0813938 L42.4126019,10.0813938 C43.1231848,10.0813938 43.6641667,9.94525293 44.0022331,9.60553464 C44.3404256,9.30029522 44.5096481,8.82380229 44.5096481,8.17884458 L44.5096481,4.84935182 Z" id="Fill-17" fill="#11284A" mask="url(#mask-6)"></path>
                    <path d="M47.1137055,8.68830793 L49.6165828,8.68830793 C49.8534438,8.68830793 50.0226662,8.72266004 50.1237454,8.82381497 C50.2254556,8.9262375 50.259401,9.12968819 50.259401,9.40196986 L50.259401,10.013336 L51.848906,10.013336 L51.848906,9.12968819 C51.848906,8.75650511 51.7815199,8.45050513 51.6121712,8.28051922 C51.4768942,8.14488543 51.2738525,8.04284318 51.0035508,7.97477276 C51.3417434,7.90682911 51.5784782,7.73696996 51.713629,7.53313899 C51.8149606,7.32905449 51.8827253,7.05753338 51.8827253,6.68384326 L51.8827253,6.3780968 C51.8827253,5.86851937 51.7815199,5.49482925 51.5784782,5.25715321 C51.3075455,4.95115323 50.9019669,4.8493645 50.3269133,4.8493645 L45.5243267,4.8493645 L45.5243267,10.013336 L47.1137055,10.013336 L47.1137055,8.68830793 Z M47.1137055,7.36327984 L47.1137055,6.10644893 L49.6165828,6.10644893 C50.0399544,6.10644893 50.3269133,6.17895597 50.3269133,6.64987143 L50.3269133,6.81973058 C50.3269133,7.19354746 50.1237454,7.36327984 49.7517336,7.36327984 L47.1137055,7.36327984 Z" id="Fill-18" fill="#11284A" mask="url(#mask-6)"></path>
                    <path d="M56.2796954,6.78591086 L54.6898118,6.71796721 C54.5886064,6.71796721 54.4872748,6.64989679 54.453077,6.58207989 C54.4192577,6.54785454 54.3855647,6.44606581 54.3855647,6.34402357 C54.3855647,6.07212217 54.5886064,5.9367419 54.9945637,5.9367419 L56.7529126,5.9367419 C57.0916099,5.9367419 57.3284709,5.97033345 57.4294239,6.03853063 C57.4970624,6.10647428 57.5313864,6.24248836 57.5313864,6.47991088 L59.1205128,6.47991088 L59.1205128,6.3101785 C59.1205128,5.76662923 59.019055,5.39268559 58.7826988,5.18910814 C58.5118924,4.88336168 57.9368389,4.7473476 57.1249244,4.7473476 L54.8932321,4.7473476 C53.9797336,4.7473476 53.3711132,4.91720675 53.1006854,5.22295321 C52.8975175,5.46075601 52.7960597,5.86854472 52.7960597,6.41222074 C52.7960597,6.78591086 52.8297527,7.02371367 52.8975175,7.22729112 C52.9313367,7.43124885 53.0664875,7.56751645 53.2355838,7.70276996 C53.5737764,7.90685446 54.2844855,8.00864318 55.467907,8.00864318 L57.3619115,8.07684036 C57.4970624,8.07684036 57.5983939,8.14491078 57.632718,8.21260092 L57.6999779,8.48475583 C57.6999779,8.65385441 57.632718,8.79012201 57.4970624,8.85819243 L57.0238452,8.92626285 L55.0619498,8.92626285 L54.554661,8.82384032 C54.453077,8.7564037 54.3855647,8.58654456 54.3855647,8.31502345 L52.7960597,8.31502345 L52.7960597,8.68833328 C52.7960597,9.23213607 52.9649036,9.60557267 53.2696555,9.80915012 C53.5399571,9.97964307 54.080939,10.0814318 54.8254674,10.0814318 L56.7529126,10.0814318 C57.8018142,10.0814318 58.5118924,9.97964307 58.8161395,9.77543181 C59.019055,9.67364309 59.1545844,9.50378394 59.2219706,9.30033325 C59.2898615,9.09599523 59.3236807,8.79012201 59.3236807,8.45040372 C59.3236807,8.04286853 59.2898615,7.77134742 59.1881513,7.56751645 C59.1205128,7.32907984 58.9516689,7.15934746 58.748501,7.05755873 C58.3766154,6.853601 57.5648271,6.78591086 56.2796954,6.78591086" id="Fill-19" fill="#11284A" mask="url(#mask-6)"></path>
                    <polygon id="Fill-20" fill="#11284A" mask="url(#mask-6)" points="64.5999388 4.84935182 62.5364595 4.84935182 59.7297137 10.0133233 61.5218818 10.0133233 61.9617845 9.0959572 62.5705311 7.97476009 63.5851088 6.0384926 64.5999388 7.97476009 62.5705311 7.97476009 61.9617845 9.0959572 65.2085592 9.0959572 65.682155 10.0133233 67.4410087 10.0133233"></polygon>
                    <path d="M32.7207478,14.0864696 L32.7207478,13.6823569 L34.177752,13.6794414 L34.177752,14.9609907 C33.9540149,15.1406104 33.7235897,15.2753568 33.485593,15.3659906 C33.2477225,15.4562441 33.0035424,15.5013709 32.7535576,15.5013709 C32.4154912,15.5013709 32.1079631,15.4288639 31.8324876,15.2833428 C31.5561288,15.1384554 31.3479132,14.9275259 31.2069576,14.6529625 C31.0658758,14.3777653 30.9953349,14.070371 30.9953349,13.7314133 C30.9953349,13.3946105 31.0658758,13.0812584 31.2059481,12.7900894 C31.3453894,12.4977795 31.5472954,12.2811457 31.8098994,12.1400612 C32.0726296,11.9985965 32.3754886,11.9283711 32.7184764,11.9283711 C32.9665684,11.9283711 33.1916936,11.968681 33.3925901,12.0499345 C33.5937389,12.1303007 33.751478,12.2424838 33.8653025,12.3873711 C33.9798841,12.5322584 34.066199,12.7203711 34.126266,12.953357 L33.7153873,13.0666809 C33.6633965,12.890357 33.5994175,12.7519345 33.523198,12.6516669 C33.4463475,12.5505119 33.3366873,12.470019 33.193965,12.4099345 C33.0522523,12.3499767 32.8936299,12.3193007 32.7207478,12.3193007 C32.5125323,12.3193007 32.3320788,12.3516246 32.1809017,12.4150049 C32.0285888,12.4781317 31.9068143,12.5623007 31.8133065,12.6662443 C31.7203036,12.7693006 31.6481222,12.8830049 31.5961314,13.0079908 C31.5088071,13.221202 31.4647663,13.4524133 31.4647663,13.7027654 C31.4647663,14.0110471 31.5175143,14.2686245 31.6233887,14.475878 C31.7290108,14.6837653 31.8827117,14.8373991 32.0846177,14.9376667 C32.2865237,15.0388216 32.5004179,15.0893991 32.7270574,15.0893991 C32.9249253,15.0893991 33.1172407,15.0504836 33.3046348,14.9744273 C33.4927859,14.8981174 33.6344987,14.8169907 33.7315398,14.73054 L33.7315398,14.0864696 L32.7207478,14.0864696 Z" id="Fill-21" fill="#11284A" mask="url(#mask-6)"></path>
                    <path d="M34.7900951,15.4422118 L34.7900951,12.9393246 L35.1699307,12.9393246 L35.1699307,13.3184654 C35.2667194,13.1413809 35.3566938,13.0241274 35.4390967,12.9679725 C35.5207424,12.911564 35.6114739,12.8822823 35.7099031,12.8822823 C35.852373,12.8822823 35.9966096,12.9282964 36.1437486,13.0191837 L35.9981239,13.4136626 C35.8956566,13.3514231 35.7921798,13.3206203 35.6890815,13.3206203 C35.5960786,13.3206203 35.5132971,13.3491415 35.4397276,13.4041555 C35.3661581,13.460564 35.3140411,13.5381414 35.2828719,13.6368879 C35.235424,13.787733 35.2124572,13.9523949 35.2124572,14.1316344 L35.2124572,15.4422118 L34.7900951,15.4422118 Z" id="Fill-22" fill="#11284A" mask="url(#mask-6)"></path>
                    <path d="M38.0284276,15.4422118 L38.0284276,15.0747329 C37.8337145,15.3580427 37.5703533,15.4983667 37.2373346,15.4983667 C37.0903218,15.4983667 36.9527733,15.4707329 36.8255726,15.4141977 C36.6979932,15.3580427 36.6036022,15.2861695 36.542147,15.2014935 C36.4795562,15.1150428 36.4360202,15.0102118 36.4112867,14.8864935 C36.3946294,14.803085 36.3856699,14.6706203 36.3856699,14.4896062 L36.3856699,12.9393246 L36.8077796,12.9393246 L36.8077796,14.3272259 C36.8077796,14.5490569 36.8168654,14.6983808 36.8335226,14.7751977 C36.8605275,14.887254 36.9166827,14.9744653 37.0026189,15.0387329 C37.0890599,15.1024935 37.1953129,15.133423 37.3221351,15.133423 C37.448705,15.133423 37.5670724,15.1010991 37.6787516,15.0358174 C37.7896737,14.9705357 37.8684171,14.8815498 37.9139721,14.7701273 C37.9605367,14.6573104 37.9836297,14.4941696 37.9836297,14.2804513 L37.9836297,12.9393246 L38.4059918,12.9393246 L38.4059918,15.4422118 L38.0284276,15.4422118 Z" id="Fill-23" fill="#11284A" mask="url(#mask-6)"></path>
                    <path d="M39.4501739,14.20494 C39.4501739,14.5270386 39.5150362,14.7648414 39.6446346,14.9194893 C39.7743592,15.073123 39.9322245,15.1501935 40.1165899,15.1501935 C40.3041101,15.1501935 40.465004,15.0708414 40.5986405,14.910616 C40.7324032,14.7511512 40.7997894,14.5044752 40.7997894,14.1699541 C40.7997894,13.8500104 40.7342961,13.6120809 40.6039405,13.4523626 C40.4728278,13.2944189 40.3169816,13.2145598 40.1358972,13.2145598 C39.9555699,13.2145598 39.7963165,13.2987288 39.6577585,13.4679541 C39.5189482,13.6369259 39.4501739,13.8829682 39.4501739,14.20494 L39.4501739,14.20494 Z M39.0683192,16.4010666 L39.0683192,12.9393626 L39.4526977,12.9393626 L39.4526977,13.2643767 C39.5430507,13.1377429 39.6458966,13.0417851 39.7602258,12.9780246 C39.873798,12.914264 40.0123559,12.8821936 40.1748903,12.8821936 C40.3880273,12.8821936 40.5757999,12.9377147 40.7383342,13.0468556 C40.9014995,13.157264 41.0240312,13.3126724 41.1066865,13.5132076 C41.1897203,13.713109 41.2314896,13.9329118 41.2314896,14.1719823 C41.2314896,14.4276583 41.1858084,14.6589963 41.093815,14.8637146 C41.0024525,15.0686864 40.8693207,15.2262498 40.6949244,15.3352639 C40.5202757,15.4444047 40.337046,15.4984047 40.1446044,15.4984047 C40.0036487,15.4984047 39.8779623,15.4692498 39.7657782,15.409292 C39.6537204,15.3498413 39.5623579,15.2744188 39.4901765,15.1831512 L39.4901765,16.4010666 L39.0683192,16.4010666 Z" id="Fill-24" fill="#11284A" mask="url(#mask-6)"></path>
                    <path d="M42.0171311,14.1903245 C42.0171311,14.5117893 42.0869149,14.7511132 42.2263562,14.9107047 C42.3656713,15.0708033 42.5410772,15.1501554 42.7516904,15.1501554 C42.9615464,15.1501554 43.1360689,15.0702963 43.2755103,14.9099442 C43.4141945,14.7495921 43.4839782,14.5051977 43.4839782,14.1771414 C43.4839782,13.8668316 43.4141945,13.6325781 43.273996,13.4728598 C43.1337975,13.3135217 42.959906,13.2336626 42.7516904,13.2336626 C42.5410772,13.2336626 42.3656713,13.3135217 42.2263562,13.472226 C42.0869149,13.6304231 42.0171311,13.8705076 42.0171311,14.1903245 M41.5831594,14.1903245 C41.5831594,13.7270147 41.7112435,13.3837471 41.9684213,13.160395 C42.1823155,12.9758316 42.4435314,12.8822823 42.7516904,12.8822823 C43.0946782,12.8822823 43.3748228,12.9948457 43.5918717,13.2211133 C43.8099302,13.4467471 43.9176975,13.7576907 43.9176975,14.1552118 C43.9176975,14.4779442 43.8697449,14.7313386 43.7738395,14.9151414 C43.6776818,15.1003385 43.5374833,15.2437047 43.3542536,15.3463808 C43.169762,15.447916 42.9697489,15.4983667 42.7516904,15.4983667 C42.4034025,15.4983667 42.1213651,15.3871977 41.9060828,15.1618174 C41.690422,14.9370709 41.5831594,14.6134512 41.5831594,14.1903245" id="Fill-25" fill="#11284A" mask="url(#mask-6)"></path>
                    <polygon id="Fill-26" fill="#11284A" mask="url(#mask-6)" points="45.8256588 15.4422118 45.8256588 11.9869725 48.147073 11.9869725 48.147073 12.3947612 46.2815878 12.3947612 46.2815878 13.4650006 47.8951953 13.4650006 47.8951953 13.8725358 46.2815878 13.8725358 46.2815878 15.4422118"></polygon>
                    <path d="M48.6859728,15.4422244 L49.109092,15.4422244 L49.109092,12.9393373 L48.6859728,12.9393373 L48.6859728,15.4422244 Z M48.6859728,12.4752669 L49.109092,12.4752669 L49.109092,11.9869852 L48.6859728,11.9869852 L48.6859728,12.4752669 Z" id="Fill-27" fill="#11284A" mask="url(#mask-6)"></path>
                    <path d="M49.7522636,15.4422118 L49.7522636,12.9393246 L50.1319731,12.9393246 L50.1319731,13.2950147 C50.3152028,13.0198175 50.5793211,12.8822823 50.9248327,12.8822823 C51.0752527,12.8822823 51.2129273,12.9099161 51.33874,12.9634091 C51.465436,13.0184232 51.5590699,13.0895358 51.6212822,13.1781415 C51.6847564,13.2649724 51.7281662,13.3696767 51.753783,13.4906062 C51.7690522,13.5695781 51.7771284,13.7071133 51.7771284,13.9033386 L51.7771284,15.4422118 L51.353883,15.4422118 L51.353883,13.9194372 C51.353883,13.7475499 51.3378567,13.6177471 51.3051731,13.5314231 C51.2722372,13.4467471 51.2141893,13.3777893 51.1305245,13.3273386 C51.0466073,13.2761274 50.9488091,13.2496344 50.8359941,13.2496344 C50.6555406,13.2496344 50.5010825,13.3083246 50.3695912,13.4224091 C50.2391095,13.5375076 50.1742472,13.7541414 50.1742472,14.0756062 L50.1742472,15.4422118 L49.7522636,15.4422118 Z" id="Fill-28" fill="#11284A" mask="url(#mask-6)"></path>
                    <path d="M54.0159,14.1858752 C53.8619467,14.2488752 53.6321524,14.3022414 53.3260125,14.3463541 C53.1521209,14.3719597 53.0285797,14.3997203 52.957534,14.4310301 C52.885605,14.4627203 52.8294499,14.5079738 52.7912139,14.5694527 C52.7515899,14.6294104 52.7317779,14.6960864 52.7317779,14.7708752 C52.7317779,14.8843259 52.7750615,14.9780019 52.8599882,15.054185 C52.9449149,15.128847 53.0699704,15.1662413 53.2337667,15.1662413 C53.396301,15.1662413 53.5414209,15.1311287 53.6679908,15.0591287 C53.7945606,14.987509 53.8883207,14.8895231 53.9476306,14.765678 C53.9931856,14.6697203 54.0159,14.5286358 54.0159,14.3417907 L54.0159,14.1858752 Z M54.0507288,15.1334104 C53.8938731,15.267016 53.7432007,15.3608188 53.5992165,15.4165934 C53.454349,15.4714808 53.298629,15.498354 53.133066,15.498354 C52.8587263,15.498354 52.649375,15.4319315 52.5018574,15.2978188 C52.3553494,15.1631991 52.2819061,14.991185 52.2819061,14.7826639 C52.2819061,14.6597062 52.3086586,14.5475231 52.3648137,14.4467484 C52.4202117,14.3448329 52.4932764,14.2635794 52.5826198,14.2028611 C52.6733513,14.1411287 52.7740519,14.0943541 52.8872455,14.0635513 C52.9696484,14.0417485 53.0945777,14.0196921 53.2617811,14.0000442 C53.6032546,13.9589738 53.8547538,13.910678 54.0159,13.853509 C54.0171619,13.7957062 54.0179191,13.7584386 54.0179191,13.7432273 C54.0179191,13.570326 53.9777903,13.448002 53.897785,13.3777767 C53.7906487,13.2810584 53.6295024,13.2336499 53.4175011,13.2336499 C53.2186237,13.2336499 53.0722419,13.2687626 52.9765889,13.3382274 C52.8821978,13.4085795 52.8126665,13.5322978 52.7671114,13.7101428 L52.3545922,13.6529738 C52.3921972,13.4758893 52.4537785,13.3325231 52.5394624,13.2232555 C52.6253986,13.1142415 52.7499494,13.0293119 52.9127361,12.9707485 C53.0752704,12.9121851 53.2634216,12.8822697 53.4783253,12.8822697 C53.6912099,12.8822697 53.8635872,12.9077485 53.9964666,12.9575654 C54.1294722,13.0089034 54.2271442,13.0708894 54.2906184,13.147833 C54.3528307,13.2241429 54.3963667,13.3199739 54.4217311,13.43634 C54.4352336,13.5088471 54.4425527,13.6390302 54.4425527,13.8279034 L54.4425527,14.3932555 C54.4425527,14.7883681 54.4512599,15.0382132 54.4699362,15.1411428 C54.4872244,15.245847 54.5234412,15.3468751 54.5761892,15.4421991 L54.1348984,15.4421991 C54.0919934,15.3551146 54.062717,15.2518047 54.0507288,15.1334104 L54.0507288,15.1334104 Z" id="Fill-29" fill="#11284A" mask="url(#mask-6)"></path>
                    <path d="M55.0976367,15.4422118 L55.0976367,12.9393246 L55.4774723,12.9393246 L55.4774723,13.2950147 C55.6609544,13.0198175 55.9250727,12.8822823 56.2702058,12.8822823 C56.4210043,12.8822823 56.5588052,12.9099161 56.6844917,12.9634091 C56.8108091,13.0184232 56.904443,13.0895358 56.9671601,13.1781415 C57.0302557,13.2649724 57.0735393,13.3696767 57.0992823,13.4906062 C57.1145514,13.5695781 57.1225015,13.7071133 57.1225015,13.9033386 L57.1225015,15.4422118 L56.6996346,15.4422118 L56.6996346,13.9194372 C56.6996346,13.7475499 56.6837345,13.6177471 56.6505462,13.5314231 C56.6177365,13.4467471 56.5596885,13.3777893 56.4760237,13.3273386 C56.3919803,13.2761274 56.2943083,13.2496344 56.1813671,13.2496344 C56.0014184,13.2496344 55.8464556,13.3083246 55.7152167,13.4224091 C55.5848611,13.5375076 55.5199988,13.7541414 55.5199988,14.0756062 L55.5199988,15.4422118 L55.0976367,15.4422118 Z" id="Fill-30" fill="#11284A" mask="url(#mask-6)"></path>
                    <path d="M59.3966445,14.5248076 L59.811309,14.5798217 C59.7663849,14.8674414 59.6502889,15.0921878 59.4627687,15.2548216 C59.2765104,15.4173287 59.0463376,15.4984554 58.7741431,15.4984554 C58.4335529,15.4984554 58.1590869,15.3872864 57.9522594,15.1631737 C57.744801,14.9393146 57.6406932,14.6186104 57.6406932,14.1997935 C57.6406932,13.9297935 57.6857435,13.6932583 57.774456,13.4905682 C57.8644303,13.2877513 57.999455,13.1355119 58.1820537,13.0344837 C58.3638953,12.9325682 58.5623941,12.8822443 58.7762883,12.8822443 C59.0470947,12.8822443 59.2690651,12.9517091 59.4403067,13.0894978 C59.6126839,13.2262725 59.7231013,13.4217372 59.7723159,13.6750048 L59.361311,13.7380048 C59.3218131,13.5704274 59.2530389,13.4437936 59.1538525,13.3587372 C59.0544138,13.2739344 58.9342798,13.2314696 58.7930718,13.2314696 C58.5804395,13.2314696 58.4073051,13.3082865 58.2741733,13.461033 C58.1414201,13.6141598 58.0749173,13.8563992 58.0749173,14.1881315 C58.0749173,14.524047 58.1390225,14.7686949 58.2676114,14.9216949 C58.3959479,15.0739343 58.5635299,15.1502442 58.7701049,15.1502442 C58.9361726,15.1502442 59.0737211,15.0987794 59.1848956,14.9962301 C59.2963225,14.8945681 59.3667372,14.7380188 59.3966445,14.5248076" id="Fill-31" fill="#11284A" mask="url(#mask-6)"></path>
                    <path d="M60.1750552,15.4422244 L60.5979221,15.4422244 L60.5979221,12.9393373 L60.1750552,12.9393373 L60.1750552,15.4422244 Z M60.1750552,12.4752669 L60.5979221,12.4752669 L60.5979221,11.9869852 L60.1750552,11.9869852 L60.1750552,12.4752669 Z" id="Fill-32" fill="#11284A" mask="url(#mask-6)"></path>
                    <path d="M61.5598906,13.9501766 L62.951023,13.9501766 C62.9329776,13.7401344 62.8793464,13.5814302 62.7918958,13.476726 C62.657376,13.3134584 62.4824749,13.2314443 62.2684545,13.2314443 C62.0750033,13.2314443 61.9115857,13.2965992 61.7793372,13.4267823 C61.647215,13.5570921 61.5745288,13.731895 61.5598906,13.9501766 M62.9463539,14.6362048 L63.3827233,14.6903315 C63.313949,14.9465146 63.1866221,15.1456554 63.0008685,15.2869935 C62.8144841,15.428078 62.5766136,15.4984301 62.2871308,15.4984301 C61.9228167,15.4984301 61.6334601,15.3857399 61.4208279,15.1609935 C61.2068075,14.9354864 61.1000497,14.6193456 61.1000497,14.2123175 C61.1000497,13.7905851 61.2083218,13.4641767 61.4238565,13.2314443 C61.6400221,12.9984584 61.9195357,12.882219 62.2637854,12.882219 C62.5973089,12.882219 62.8695034,12.9964302 63.0799905,13.2242189 C63.2918656,13.4516274 63.3974876,13.7732189 63.3974876,14.1858245 C63.3974876,14.2114301 63.3963519,14.2488245 63.3948376,14.2995287 L61.5365453,14.2995287 C61.5519406,14.5747259 61.629422,14.7847681 61.7691157,14.930416 C61.9081785,15.0769512 62.0814391,15.1502188 62.2896547,15.1502188 C62.4443651,15.1502188 62.5766136,15.1091484 62.6862738,15.0270076 C62.7956816,14.9458808 62.8821226,14.8155709 62.9463539,14.6362048" id="Fill-33" fill="#11284A" mask="url(#mask-6)"></path>
                    <path d="M63.908966,15.4422118 L63.908966,12.9393246 L64.2888017,12.9393246 L64.2888017,13.3184654 C64.3855904,13.1413809 64.4753124,13.0241274 64.5580938,12.9679725 C64.6396134,12.911564 64.7299663,12.8822823 64.8287741,12.8822823 C64.9711178,12.8822823 65.1154806,12.9282964 65.2627458,13.0191837 L65.1169949,13.4136626 C65.0146538,13.3514231 64.9110507,13.3206203 64.8080787,13.3206203 C64.7150757,13.3206203 64.6321681,13.3491415 64.5587248,13.4041555 C64.4850291,13.460564 64.4330383,13.5381414 64.4016167,13.6368879 C64.3544211,13.787733 64.3313281,13.9523949 64.3313281,14.1316344 L64.3313281,15.4422118 L63.908966,15.4422118 Z" id="Fill-34" fill="#11284A" mask="url(#mask-6)"></path>
                    <path d="M65.790629,14.1903245 C65.790629,14.5117893 65.8601604,14.7511132 65.9993493,14.9107047 C66.1390431,15.0708033 66.3143227,15.1501554 66.5248097,15.1501554 C66.7346658,15.1501554 66.909693,15.0702963 67.048882,14.9099442 C67.18744,14.7495921 67.2569713,14.5051977 67.2569713,14.1771414 C67.2569713,13.8668316 67.18744,13.6325781 67.0473677,13.4728598 C66.9071692,13.3135217 66.7334038,13.2336626 66.5248097,13.2336626 C66.3143227,13.2336626 66.1390431,13.3135217 65.9993493,13.472226 C65.8601604,13.6304231 65.790629,13.8705076 65.790629,14.1903245 M65.3564049,14.1903245 C65.3564049,13.7270147 65.4846152,13.3837471 65.7414144,13.160395 C65.9558134,12.9758316 66.2166507,12.8822823 66.5248097,12.8822823 C66.8676713,12.8822823 67.1483207,12.9948457 67.3651172,13.2211133 C67.5829233,13.4467471 67.6913216,13.7576907 67.6913216,14.1552118 C67.6913216,14.4779442 67.643369,14.7313386 67.5469588,14.9151414 C67.4506749,15.1003385 67.3109812,15.2437047 67.1271205,15.3463808 C66.9432599,15.447916 66.7428682,15.4983667 66.5248097,15.4983667 C66.1765219,15.4983667 65.894863,15.3871977 65.6792021,15.1618174 C65.4639199,14.9370709 65.3564049,14.6134512 65.3564049,14.1903245" id="Fill-35" fill="#11284A" mask="url(#mask-6)"></path>
                </g>
            </g>
        </g>
    </g>
</svg>