<?xml version="1.0" encoding="UTF-8"?>
<svg width="120px" height="35px" viewBox="0 0 120 35" version="1.1" xmlns="http://www.w3.org/2000/svg" xmlns:xlink="http://www.w3.org/1999/xlink">
    <!-- Generator: Sketch 47.1 (45422) - http://www.bohemiancoding.com/sketch -->
    <title>Artboard</title>
    <desc>Created with Sketch.</desc>
    <defs></defs>
    <g id="Page-1" stroke="none" stroke-width="1" fill="none" fill-rule="evenodd">
        <g id="Artboard">
            <g id="Logo-Interjet-Copy" transform="translate(5.000000, 6.000000)">
                <path d="M100.796433,8.87762939 L99.950615,8.87762939 C99.4388863,8.87762939 99.0342958,8.72812158 98.7344671,8.42365096 C98.4362227,8.11877625 98.2857143,7.70783182 98.2857143,7.1894034 C98.2857143,6.7081499 98.4459266,6.30326659 98.7615982,5.9844513 C99.0782601,5.66300951 99.474533,5.50279372 99.950615,5.50279372 L100.796433,5.50279372 L100.796433,3.18117993 C100.796433,2.53607395 100.971696,2.014817 101.324005,1.61922742 C101.674927,1.22505211 102.132393,1.02564103 102.694622,1.02564103 C103.256058,1.02564103 103.713524,1.22505211 104.064051,1.61922742 C104.415567,2.014817 104.593009,2.53607395 104.593009,3.18117993 L104.593009,5.50279372 L105.676075,5.50279372 C106.170179,5.50279372 106.597345,5.62785498 106.957972,5.87676527 C107.318994,6.12708983 107.5,6.56369303 107.5,7.1894034 C107.5,7.79713243 107.318994,8.23090711 106.957972,8.48951521 C106.597345,8.74933553 106.170179,8.87762939 105.676075,8.87762939 L104.593009,8.87762939 L104.593009,17.8412285 C104.593009,18.4905773 104.415567,19.01042 104.064051,19.4078279 C103.713524,19.8036195 103.256058,20 102.694622,20 C102.132393,20 101.674927,19.8036195 101.324005,19.4078279 C100.971696,19.01042 100.796433,18.4905773 100.796433,17.8412285 L100.796433,8.87762939 Z" id="Fill-1272" fill="#1B4298"></path>
                <path d="M95.2142857,11.2820513 C95.1066365,10.3858236 94.7947765,9.65085855 94.2760848,9.07423537 C93.7571916,8.49552599 93.0421511,8.20512821 92.1299554,8.20512821 C91.2717858,8.20512821 90.5684375,8.50637418 90.0237408,9.10072999 C89.4770281,9.69696338 89.1601283,10.4252526 89.0714286,11.2820513 L95.2142857,11.2820513 Z M88.9241946,13.8457255 C89.0683937,14.8158081 89.4845228,15.5276428 90.1707742,15.9774229 C90.8590339,16.4262013 91.6587568,16.6517926 92.5687378,16.6517926 C93.0698198,16.6517926 93.5297308,16.5704515 93.9490732,16.4125777 C94.370223,16.2516986 94.7582353,16.0729887 95.1171265,15.8774495 C95.4726035,15.6793058 95.8027754,15.5019983 96.1076421,15.3413196 C96.4109021,15.1792385 96.6878529,15.1013033 96.9382935,15.1013033 C97.3485983,15.1013033 97.7153221,15.2748042 98.0362556,15.6242103 C98.3587957,15.9704107 98.5194633,16.3482661 98.5194633,16.7571754 C98.5194633,17.1644818 98.3278672,17.5641751 97.9442734,17.9532499 C97.5598762,18.3425251 97.0642167,18.6891263 96.4550857,18.9902486 C95.8485656,19.2919719 95.1703476,19.533591 94.4184233,19.7189125 C93.6695116,19.906037 92.9358632,20 92.2218967,20 C91.1305621,20 90.1440632,19.8112727 89.2589857,19.4370235 C88.3743098,19.0643772 87.6125446,18.5458779 86.9777069,17.8863339 C86.3422666,17.2277917 85.8482138,16.4474381 85.4995651,15.5466758 C85.1513181,14.6465145 84.9761905,13.6608048 84.9761905,12.5919509 C84.9761905,11.6116506 85.1444898,10.670418 85.4839,9.76805286 C85.8233103,8.86929398 86.2948696,8.07531684 86.9017914,7.39072944 C87.5063032,6.70293647 88.2329223,6.15618815 89.0794396,5.74547577 C89.9257561,5.33496375 90.8572264,5.12820513 91.8734489,5.12820513 C92.9069431,5.12820513 93.8504634,5.34438008 94.7068216,5.77071956 C95.5627782,6.19946321 96.2920081,6.75101987 96.8981266,7.42819442 C97.5044459,8.10637071 97.9723902,8.85907626 98.3023612,9.68791386 C98.6319306,10.5161504 98.797619,11.3325665 98.797619,12.1331551 C98.797619,12.7037448 98.6628591,13.1328891 98.3971551,13.4169819 C98.1310494,13.7028778 97.7026695,13.8457255 97.1168353,13.8457255 L88.9241946,13.8457255 Z" id="Fill-1270" fill="#1B4298"></path>
                <path d="M78.9060803,16.5496728 C79.2995467,16.7252378 79.5120685,16.5697544 79.5120685,16.5697544 C79.7079707,16.4291831 79.8496519,16.2542146 79.9356577,16.0428606 C80.0206249,15.829916 80.0719376,15.603451 80.088557,15.3668459 C80.1070462,15.1282524 80.1139018,14.9097406 80.1139018,14.7146905 L80.1139018,7.04669517 C80.1139018,6.42456279 80.2981704,5.95075599 80.6646302,5.62308768 C81.0321286,5.29442522 81.4816859,5.12820513 82.0328297,5.12820513 C82.5852201,5.12820513 83.0345696,5.29442522 83.4018603,5.62308768 C83.7681123,5.95075599 83.952381,6.42317099 83.952381,7.04510454 L83.952381,14.9487109 C83.952381,15.9786392 83.8059217,16.892452 83.5634849,17.5004677 C83.2905097,18.1844355 82.882709,18.7037739 82.3953424,19.0958624 C81.9098455,19.4901381 81.2695796,19.7615381 80.6646302,19.9158285 C80.6646302,19.9158285 79.1684605,20.0892064 78.4810368,19.9382961 C77.7934053,19.7869881 77.3430171,19.6869776 76.9416564,19.475226 C76.5396725,19.263872 76.2565179,19.1173358 75.7365356,18.6194709 C75.2990275,18.2015347 75.25,17.6521733 75.25,17.2541199 C75.25,16.8564642 75.4953452,16.4347503 75.6478291,16.2840388 C75.7992742,16.1341226 76.0219754,15.9651189 76.1077735,15.926944 C76.1952335,15.8893655 76.3568581,15.7935305 76.6861318,15.7935305 C77.014159,15.7935305 77.2565958,15.8665003 77.4431496,15.9404642 C77.6280414,16.0136329 78.1845866,16.2478521 78.1845866,16.2478521 L78.9060803,16.5496728 Z" id="Fill-1274" fill="#1B4298"></path>
                <path d="M68.5952381,7.09840719 C68.5952381,6.44222016 68.8104346,5.95095166 69.239386,5.62152485 C69.6693671,5.29394415 70.1314733,5.12820513 70.6236451,5.12820513 C71.1547377,5.12820513 71.6067533,5.24389424 71.982163,5.47034954 C72.3575727,5.69967654 72.5435272,6.13063901 72.5435272,6.76795477 L72.5985104,6.76795477 C72.9638296,6.22212367 73.3627154,5.81228882 73.7935202,5.53988608 C74.2239131,5.26707309 74.7508871,5.12820513 75.3732065,5.12820513 C75.8493158,5.12820513 76.2889756,5.30132856 76.691774,5.64737029 C77.0962199,5.99505301 77.297619,6.5244743 77.297619,7.23378807 C77.297619,7.56259951 77.2288385,7.81736171 77.0910716,8.00094639 C76.952481,8.18289009 76.7747637,8.33755249 76.5554486,8.46513872 C76.3351039,8.59169933 76.0832519,8.70656795 75.799069,8.80687288 C75.515092,8.90840854 75.2265846,9.01958496 74.9339586,9.14881216 C74.6405088,9.29444917 74.3511777,9.43516324 74.0686422,9.570339 C73.7834296,9.70797623 73.5289006,9.87720233 73.2999068,10.0786327 C73.0700893,10.2778067 72.8874297,10.5157488 72.7494569,10.7883567 C72.6108662,11.0609645 72.5435272,11.3895709 72.5435272,11.7723295 L72.5435272,17.8160602 C72.5435272,18.4710165 72.3594261,18.9985917 71.9963721,19.3985807 C71.6291996,19.8004158 71.1547377,20 70.5696916,20 C69.9844395,20 69.5091539,19.8004158 69.1438347,19.3985807 C68.7797511,18.9985917 68.5952381,18.4710165 68.5952381,17.8160602 L68.5952381,7.09840719 Z" id="Fill-1268" fill="#1B4298"></path>
                <path d="M63.4761905,11.2820513 C63.3685342,10.3858236 63.0562505,9.65085855 62.5371216,9.07423537 C62.0190007,8.49552599 61.3039133,8.20512821 60.3908513,8.20512821 C59.5324238,8.20512821 58.8292309,8.50637418 58.2855064,9.10072999 C57.7389595,9.69696338 57.4220389,10.4252526 57.3333333,11.2820513 L63.4761905,11.2820513 Z M57.1892837,13.8457255 C57.3312509,14.8158081 57.7469119,15.5276428 58.4350616,15.9774229 C59.122609,16.4262013 59.9218024,16.6517926 60.8342484,16.6517926 C61.3330416,16.6517926 61.7932806,16.5704515 62.21356,16.4125777 C62.6314297,16.2516986 63.0201831,16.0729887 63.3788162,15.8774495 C63.7364452,15.6793058 64.0667651,15.5019983 64.3713824,15.3413196 C64.6743931,15.1792385 64.9521028,15.1013033 65.2012986,15.1013033 C65.6115379,15.1013033 65.9790062,15.2748042 66.2990852,15.6242103 C66.6201682,15.9704107 66.7826173,16.3482661 66.7826173,16.7571754 C66.7826173,17.1644818 66.5906503,17.5641751 66.2071177,17.9532499 C65.8223804,18.3425251 65.3268001,18.6891263 64.7195737,18.9902486 C64.1119457,19.2919719 63.4324304,19.533591 62.6822327,19.7189125 C61.9326375,19.906037 61.1987048,20 60.4852539,20 C59.395901,20 58.4081541,19.8112727 57.5224148,19.4370235 C56.6366755,19.0643772 55.8766385,18.5462785 55.240095,17.8863339 C54.6047562,17.2277917 54.1113848,16.4474381 53.7635951,15.5466758 C53.4133957,14.6465145 53.2380952,13.6608048 53.2380952,12.5919509 C53.2380952,11.6116506 53.4093797,10.670418 53.7479325,9.76805286 C54.0858829,8.86929398 54.5569653,8.07531684 55.1641917,7.39072944 C55.770414,6.70293647 56.4973187,6.15618815 57.3424959,5.74547577 C58.1902835,5.33496375 59.1208017,5.12820513 60.1364602,5.12820513 C61.16999,5.12820513 62.1135604,5.34438008 62.9701834,5.77071956 C63.8251999,6.19946321 64.5561205,6.75101987 65.1619413,7.42819442 C65.7665573,8.10637071 66.23523,8.85907626 66.5639435,9.68791386 C66.8938618,10.5161504 67.0595238,11.3325665 67.0595238,12.1331551 C67.0595238,12.7037448 66.9255886,13.1328891 66.6595255,13.4169819 C66.3920567,13.7028778 65.9647492,13.8457255 65.3790087,13.8457255 L57.1892837,13.8457255 Z" id="Fill-1266" fill="#1B4298"></path>
                <path d="M46.5353206,8.87762939 L45.6897026,8.87762939 C45.1784909,8.87762939 44.7726101,8.72812158 44.4738422,8.42365096 C44.1740844,8.11877625 44.0238095,7.70783182 44.0238095,7.1894034 C44.0238095,6.7081499 44.183588,6.30326659 44.5005709,5.9844513 C44.817158,5.66300951 45.2141292,5.50279372 45.6897026,5.50279372 L46.5353206,5.50279372 L46.5353206,3.18117993 C46.5353206,2.53607395 46.7101463,2.014817 47.0605897,1.61922742 C47.413211,1.22505211 47.8683915,1.02564103 48.4318728,1.02564103 C48.9939682,1.02564103 49.4513265,1.22505211 49.8025619,1.61922742 C50.1535993,2.014817 50.3300089,2.53607395 50.3300089,3.18117993 L50.3300089,5.50279372 L51.4142056,5.50279372 C51.9074002,5.50279372 52.334268,5.62785498 52.6954029,5.87676527 C53.0563398,6.12708983 53.2380952,6.56369303 53.2380952,7.1894034 C53.2380952,7.79713243 53.0563398,8.23090711 52.6954029,8.48951521 C52.334268,8.74933553 51.9074002,8.87762939 51.4142056,8.87762939 L50.3300089,8.87762939 L50.3300089,17.8416326 C50.3300089,18.4905773 50.1535993,19.01042 49.8025619,19.4078279 C49.4513265,19.8036195 48.9939682,20 48.4318728,20 C47.8683915,20 47.413211,19.8036195 47.0605897,19.4078279 C46.7101463,19.01042 46.5353206,18.4905773 46.5353206,17.8416326 L46.5353206,8.87762939 Z" id="Fill-1264" fill="#1B4298"></path>
                <path d="M30.7142857,7.44432097 C30.7142857,6.79594662 30.8925323,6.27204877 31.2524571,5.87607946 C31.6119782,5.47686118 32.0782858,5.2774551 32.6542059,5.2774551 C33.1572528,5.2774551 33.5625972,5.40741425 33.8668074,5.66184992 C34.1726325,5.91567639 34.3623853,6.27001816 34.4350566,6.72406296 C34.8131493,6.20138348 35.3040844,5.80480499 35.9068525,5.53392137 C36.5096206,5.26425612 37.2708525,5.12820513 38.1901446,5.12820513 C38.9477429,5.12820513 39.6536639,5.24679286 40.3113393,5.48173465 C40.968409,5.71383358 41.5316116,6.0574131 41.999736,6.5078028 C42.4670529,6.95941087 42.8368691,7.50828525 43.1079734,8.15706572 C43.3768572,8.80625232 43.5119048,9.54722258 43.5119048,10.3738847 L43.5119048,17.8382107 C43.5119048,18.4876003 43.3342638,19.0114982 42.9751464,19.4046246 C42.6170384,19.8022184 42.1515383,20 41.5784443,20 C41.0039372,20 40.5392446,19.8022184 40.1811365,19.4046246 C39.8226247,19.0114982 39.6439744,18.4876003 39.6439744,17.8382107 L39.6439744,11.0519059 C39.6439744,10.1320388 39.3934603,9.45645423 38.8960656,9.02332473 C38.3960466,8.5887738 37.7928748,8.37251364 37.0855407,8.37251364 C36.2714202,8.37251364 35.6492731,8.63040134 35.2229347,9.14191246 C34.7959908,9.65850011 34.5832254,10.2938785 34.5832254,11.0519059 L34.5832254,17.8382107 C34.5832254,18.4876003 34.4041713,19.0114982 34.0460633,19.4046246 C33.6873496,19.8022184 33.2218495,20 32.6479481,20 C32.0760653,20 31.609354,19.8022184 31.2506403,19.4046246 C30.8925323,19.0084522 30.7142857,18.4861789 30.7142857,17.8382107 L30.7142857,7.44432097 Z" id="Fill-1262" fill="#1B4298"></path>
                <path d="M25.0833333,7.31703763 C25.0833333,6.66209038 25.271986,6.1328815 25.6518553,5.73289806 C26.0306563,5.32963269 26.5250417,5.12820513 27.1307387,5.12820513 C27.7372903,5.12820513 28.2295393,5.32963269 28.6104768,5.73289806 C28.9886368,6.1328815 29.1785714,6.66209038 29.1785714,7.31703763 L29.1785714,17.8162955 C29.1785714,18.4708325 28.9886368,18.9984004 28.6104768,19.398589 C28.2295393,19.8002134 27.7372903,20 27.1307387,20 C26.5250417,20 26.0306563,19.8002134 25.6518553,19.398589 C25.271986,18.9984004 25.0833333,18.4708325 25.0833333,17.8162955 L25.0833333,7.31703763 Z" id="Fill-1260" fill="#1B4298"></path>
                <path d="M11.1985007,7.0521496 L11.1985007,3.71935654 L11.1985007,1.21925524 C11.1985007,0.544997771 10.6526615,0 9.97637909,0 C9.30535485,0 8.76214475,0.544997771 8.76214475,1.21925524 L8.76214475,3.72583978 L8.76214475,7.05275741 L6.40809949,4.6969083 L4.64317226,2.93225009 C4.16670055,2.45451599 3.39496201,2.45451599 2.92152387,2.93265529 C2.44565887,3.40694518 2.44565887,4.17926172 2.92152387,4.65456461 L4.69049585,6.42854249 L7.03544041,8.77649013 L2.01630852,8.77649013 L1.21949252,8.77649013 C0.548266039,8.77649013 0,9.32412172 0,9.99898699 C0,10.6738523 0.548266039,11.2220917 1.21949252,11.2220917 L1.95604173,11.2200656 L3.71429512,11.2176344 L7.03766503,11.2176344 L4.69049585,13.5714575 L3.48718234,14.7775437 L2.92415295,15.3417886 C2.44808573,15.8174967 2.44808573,16.592447 2.92415295,17.0697759 C3.40042242,17.5473074 4.17479006,17.5473074 4.64964386,17.0697759 L5.17121454,16.5496981 L6.41173976,15.2998501 L8.76214475,12.9446088 L8.76214475,16.2733498 L8.76214475,17.9798614 L8.76214475,18.7756797 C8.76214475,19.4517606 9.30980407,20 9.98204174,20 C10.6556951,20 11.2011298,19.4517606 11.2011298,18.7756797 L11.2011298,18.0394262 L11.1985007,16.2776044 L11.1985007,12.9468374 L13.5470855,15.2998501 L14.7526237,16.5061388 L15.3146419,17.0697759 C15.7890912,17.5473074 16.5630543,17.5473074 17.0409417,17.0697759 C17.5157955,16.592447 17.5157955,15.8174967 17.0409417,15.3417886 L16.519371,14.8192795 L15.2737899,13.5755095 L12.926014,11.2176344 L16.2514063,11.2176344 L18.7478268,11.2143928 C19.4182443,11.2143928 19.9642857,10.6679768 19.9642857,9.99594797 C19.9642857,9.32169051 19.4182443,8.77649013 18.7478268,8.77649013 L16.2455414,8.77649013 L12.9229804,8.77649013 L15.2737899,6.42003323 L17.0364925,4.64787876 C17.5109418,4.17399408 17.5109418,3.40086713 17.0364925,2.92556424 C16.560223,2.44965355 15.7890912,2.44965355 15.315653,2.92556424 L13.5460743,4.69933952 L11.1985007,7.0521496 Z" id="Fill-1276" fill="#6CADDF"></path>
                <path d="M15.2302374,13.8201664 C15.7021837,14.2941457 15.7021837,15.0658011 15.2302374,15.5399824 C14.7598964,16.0165871 13.993987,16.0165871 13.5192316,15.5399824 L11.3866445,13.3922319 L9.47578385,11.4700609 L3.76728084,11.4700609 C3.10029556,11.4700609 2.55952381,10.9268123 2.55952381,10.2541131 C2.55952381,9.58201965 3.10029556,9.0369535 3.76728084,9.0369535 L9.47578385,9.0369535 L11.1889969,7.3185512 L13.5184289,4.97268668 C13.993987,4.49628393 14.7598964,4.49628393 15.2266256,4.97268668 C15.701381,5.44868553 15.701381,6.21630184 15.2266256,6.6927046 L12.9000028,9.0369535 L16.1966036,9.0369535 C16.8617829,9.0369535 17.4047619,9.58201965 17.4047619,10.2541131 C17.4047619,10.9268123 16.8617829,11.4700609 16.1966036,11.4700609 L12.9030126,11.4700609 L15.2302374,13.8201664 Z" id="Fill-1278" fill="#1B4298"></path>
            </g>
        </g>
    </g>
</svg>