<?xml version="1.0" encoding="UTF-8" standalone="no"?>
<svg width="26px" height="16px" viewBox="0 0 26 16" version="1.1" xmlns="http://www.w3.org/2000/svg" xmlns:xlink="http://www.w3.org/1999/xlink">
    <!-- Generator: Sketch 47.1 (45422) - http://www.bohemiancoding.com/sketch -->
    <title>Artboard</title>
    <desc>Created with Sketch.</desc>
    <defs></defs>
    <g id="Page-1" stroke="none" stroke-width="1" fill="none" fill-rule="evenodd">
        <g id="Artboard">
            <g id="Page-1" transform="translate(1.000000, 1.000000)">
                <path d="M1.90789474,0.381578947 L21.75,0.381578947 C22.5925263,0.381578947 23.2763158,1.06536842 23.2763158,1.90789474 L23.2763158,12.5921053 C23.2763158,13.4346316 22.5925263,14.1184211 21.75,14.1184211 L1.90789474,14.1184211 C1.06536842,14.1184211 0.381578947,13.4346316 0.381578947,12.5921053 L0.381578947,1.90789474 C0.381578947,1.06536842 1.06536842,0.381578947 1.90789474,0.381578947 Z" id="Fill-1" fill="#FFFFFF"></path>
                <path d="M1.90789474,0.381578947 L21.75,0.381578947 C22.5925263,0.381578947 23.2763158,1.06536842 23.2763158,1.90789474 L23.2763158,12.5921053 C23.2763158,13.4346316 22.5925263,14.1184211 21.75,14.1184211 L1.90789474,14.1184211 C1.06536842,14.1184211 0.381578947,13.4346316 0.381578947,12.5921053 L0.381578947,1.90789474 C0.381578947,1.06536842 1.06536842,0.381578947 1.90789474,0.381578947 Z" id="Stroke-3" stroke="#DEDEDE" stroke-width="0.5"></path>
                <polygon id="Fill-5" fill="#FF5F00" points="7.96584211 10.4888421 15.6928158 10.4888421 15.6928158 4.00657895 7.96584211 4.00657895"></polygon>
                <path d="M10.2076184,7.25 C10.2076184,5.93584211 10.8418026,4.76439474 11.8293289,4.00963158 C11.1073816,3.45786842 10.1954079,3.12894737 9.20559211,3.12894737 C6.86117105,3.12894737 4.96090789,4.97426316 4.96090789,7.25 C4.96090789,9.52573684 6.86117105,11.3710526 9.20559211,11.3710526 C10.1954079,11.3710526 11.1073816,11.0421316 11.8293289,10.4896053 C10.8418026,9.73560526 10.2076184,8.56492105 10.2076184,7.25" id="Fill-7" fill="#EC001B"></path>
                <path d="M18.6973684,7.25 C18.6973684,9.52573684 16.7971053,11.3710526 14.4526842,11.3710526 C13.4621053,11.3710526 12.5508947,11.0421316 11.8289474,10.4896053 C12.8164737,9.73560526 13.4506579,8.56492105 13.4506579,7.25 C13.4506579,5.93584211 12.8164737,4.76439474 11.8289474,4.00963158 C12.5508947,3.45786842 13.4621053,3.12894737 14.4526842,3.12894737 C16.7971053,3.12894737 18.6973684,4.97426316 18.6973684,7.25" id="Fill-8" fill="#F89E1B"></path>
            </g>
        </g>
    </g>
</svg>