<?xml version="1.0" encoding="UTF-8" standalone="no"?>
<svg width="36px" height="173px" viewBox="0 0 36 173" version="1.1" xmlns="http://www.w3.org/2000/svg" xmlns:xlink="http://www.w3.org/1999/xlink">
    <!-- Generator: Sketch 47.1 (45422) - http://www.bohemiancoding.com/sketch -->
    <title>Artboard</title>
    <desc>Created with Sketch.</desc>
    <defs>
        <polygon id="path-1" points="0 34.8795682 34.8798864 34.8795682 34.8798864 -0.000318181818 0 -0.000318181818"></polygon>
    </defs>
    <g id="Page-1" stroke="none" stroke-width="1" fill="none" fill-rule="evenodd">
        <g id="Artboard">
            <g id="Page-1">
                <path d="M17.4397841,0.670727273 C26.7012614,0.670727273 34.2087614,8.17822727 34.2087614,17.4397045 C34.2087614,26.7011818 26.7012614,34.2086818 17.4397841,34.2086818 C8.17830682,34.2086818 0.670806818,26.7011818 0.670806818,17.4397045 C0.670806818,8.17822727 8.17830682,0.670727273 17.4397841,0.670727273" id="Fill-1" fill="#FFFFFF"></path>
                <path d="M17.4397841,0.670727273 C26.7012614,0.670727273 34.2087614,8.17822727 34.2087614,17.4397045 C34.2087614,26.7011818 26.7012614,34.2086818 17.4397841,34.2086818 C8.17830682,34.2086818 0.670806818,26.7011818 0.670806818,17.4397045 C0.670806818,8.17822727 8.17830682,0.670727273 17.4397841,0.670727273 Z" id="Stroke-3" stroke="#E87600" stroke-width="1.686"></path>
                <path d="M18.1707273,21.3525455 C18.42925,21.3525455 18.9661818,20.8148182 18.9661818,20.5570909 C18.9661818,19.5031136 18.42925,18.9661818 18.1707273,18.9661818 C17.11675,18.9661818 16.5798182,19.5031136 16.5798182,20.5570909 C16.5798182,20.8148182 17.11675,21.3525455 18.1707273,21.3525455 M18.1707273,12.6025455 C18.8699318,12.6025455 19.7616364,13.4695909 19.7616364,14.1934545 L19.7616364,15.7843636 L15.7843636,15.7843636 L15.7843636,14.1934545 C15.7843636,13.4695909 16.6760682,12.6025455 18.1707273,12.6025455 M21.3525455,15.7843636 L21.3525455,15.7843636 L21.3525455,14.1934545 C21.0049318,12.4537955 19.5564091,11.0116364 18.1707273,11.0116364 C15.9887955,11.0116364 14.5418636,12.4537955 14.1934545,14.1934545 L14.1934545,15.7843636 C13.1840227,15.5194773 12.6025455,16.0985682 12.6025455,16.5798182 L12.6025455,22.9434545 C12.6025455,23.9544773 13.1840227,24.5343636 14.1934545,24.5343636 L21.3525455,24.5343636 C22.3619773,24.5343636 22.9434545,23.9544773 22.9434545,22.9434545 L22.9434545,16.5798182 C22.9434545,16.0985682 22.3619773,15.5194773 21.3525455,15.7843636" id="Fill-5" fill="#E87600"></path>
            </g>
            <g id="Page-1" transform="translate(0.000000, 66.000000)">
                <path d="M17.4397841,0.670727273 C26.7012614,0.670727273 34.2087614,8.17822727 34.2087614,17.4397045 C34.2087614,26.7011818 26.7012614,34.2086818 17.4397841,34.2086818 C8.17830682,34.2086818 0.670806818,26.7011818 0.670806818,17.4397045 C0.670806818,8.17822727 8.17830682,0.670727273 17.4397841,0.670727273" id="Fill-1" fill="#FFFFFF"></path>
                <path d="M17.4397841,0.670727273 C26.7012614,0.670727273 34.2087614,8.17822727 34.2087614,17.4397045 C34.2087614,26.7011818 26.7012614,34.2086818 17.4397841,34.2086818 C8.17830682,34.2086818 0.670806818,26.7011818 0.670806818,17.4397045 C0.670806818,8.17822727 8.17830682,0.670727273 17.4397841,0.670727273 Z" id="Stroke-3" stroke="#E87600" stroke-width="1.686"></path>
                <path d="M17.5648295,10.9557159 L11.8073295,13.9863977 L11.8073295,15.197875 L23.3223295,15.197875 L23.3223295,13.9863977 L17.5648295,10.9557159 Z M20.2924432,20.6523068 L22.1100568,20.6523068 L22.1100568,16.4101477 L20.2924432,16.4101477 L20.2924432,20.6523068 Z M11.8073295,23.6829886 L23.323125,23.6829886 L23.323125,21.8645795 L11.8073295,21.8645795 L11.8073295,23.6829886 Z M16.655625,20.6523068 L18.4740341,20.6523068 L18.4740341,16.4101477 L16.655625,16.4101477 L16.655625,20.6523068 Z M13.0196023,20.6523068 L14.8380114,20.6523068 L14.8380114,16.4101477 L13.0196023,16.4101477 L13.0196023,20.6523068 Z" id="Fill-5" fill="#E87600"></path>
            </g>
            <g id="Page-1" transform="translate(0.000000, 135.000000)">
                <path d="M17.4397841,0.670727273 C26.7012614,0.670727273 34.2087614,8.17822727 34.2087614,17.4397045 C34.2087614,26.7011818 26.7012614,34.2086818 17.4397841,34.2086818 C8.17830682,34.2086818 0.670806818,26.7011818 0.670806818,17.4397045 C0.670806818,8.17822727 8.17830682,0.670727273 17.4397841,0.670727273 Z" id="Fill-1" fill="#FFFFFF"></path>
                <path d="M17.4397841,0.670727273 C26.7012614,0.670727273 34.2087614,8.17822727 34.2087614,17.4397045 C34.2087614,26.7011818 26.7012614,34.2086818 17.4397841,34.2086818 C8.17830682,34.2086818 0.670806818,26.7011818 0.670806818,17.4397045 C0.670806818,8.17822727 8.17830682,0.670727273 17.4397841,0.670727273 Z" id="Stroke-3" stroke="#E87600" stroke-width="1.686"></path>
                <mask id="mask-2" fill="white">
                    <use xlink:href="#path-1"></use>
                </mask>
                <g id="Clip-6"></g>
                <path d="M22.1478409,21.3528636 L25.3296591,21.3528636 L25.3296591,15.7846818 L22.1478409,15.7846818 L22.1478409,21.3528636 Z M26.1251136,14.1937727 L21.3523864,14.1937727 C20.9148864,14.1937727 20.5569318,14.5517273 20.5569318,14.9892273 L20.5569318,22.9437727 C20.5569318,23.3804773 20.9148864,23.7392273 21.3523864,23.7392273 L26.1251136,23.7392273 C26.5626136,23.7392273 26.9205682,23.3804773 26.9205682,22.9437727 L26.9205682,14.9892273 C26.9205682,14.5517273 26.5626136,14.1937727 26.1251136,14.1937727 L26.1251136,14.1937727 Z M11.0114773,12.6028636 L25.3296591,12.6028636 L25.3296591,11.0119545 L11.0114773,11.0119545 C10.1364773,11.0119545 9.42056818,11.7278636 9.42056818,12.6028636 L9.42056818,21.3528636 L7.82965909,21.3528636 L7.82965909,23.7392273 L18.9660227,23.7392273 L18.9660227,21.3528636 L11.0114773,21.3528636 L11.0114773,12.6028636 Z" id="Fill-5" fill="#E87600" mask="url(#mask-2)"></path>
            </g>
        </g>
    </g>
</svg>