<?xml version="1.0" encoding="utf-8"?>
<!-- Generator: Adobe Illustrator 16.0.0, SVG Export Plug-In . SVG Version: 6.00 Build 0)  -->
<!DOCTYPE svg PUBLIC "-//W3C//DTD SVG 1.1//EN" "http://www.w3.org/Graphics/SVG/1.1/DTD/svg11.dtd">
<svg version="1.1" id="Layer_1" xmlns="http://www.w3.org/2000/svg" xmlns:xlink="http://www.w3.org/1999/xlink" x="0px" y="0px"
	 width="150px" height="47px" viewBox="0 0 150 47" enable-background="new 0 0 150 47" xml:space="preserve">
<title>Artboard</title>
<desc>Created with Sketch.</desc>
<g>
	<path fill="#253B80" d="M20.239,16.479c-0.626,4.108-3.764,4.108-6.799,4.108h-1.727l1.211-7.672
		c0.073-0.464,0.475-0.806,0.943-0.806h0.792c2.067,0,4.017,0,5.025,1.179C20.285,13.992,20.469,15.037,20.239,16.479 M18.918,5.758
		H7.472c-0.784,0-1.449,0.57-1.571,1.342l-4.63,29.354c-0.092,0.578,0.356,1.102,0.944,1.102h5.465c0.783,0,1.45-0.569,1.572-1.344
		l1.248-7.918c0.121-0.774,0.789-1.343,1.57-1.343h3.624c7.541,0,11.893-3.65,13.029-10.881c0.512-3.163,0.021-5.648-1.459-7.389
		C25.636,6.77,22.75,5.758,18.918,5.758"/>
	<path fill="#253B80" d="M45.495,27.016c-0.529,3.131-3.014,5.234-6.185,5.234c-1.592,0-2.863-0.511-3.68-1.479
		c-0.81-0.961-1.118-2.329-0.861-3.852c0.494-3.104,3.021-5.275,6.143-5.275c1.557,0,2.822,0.517,3.656,1.493
		C45.403,24.124,45.734,25.499,45.495,27.016 M53.136,16.346h-5.482c-0.466,0-0.87,0.342-0.942,0.806l-0.243,1.533l-0.382-0.556
		c-1.188-1.722-3.833-2.298-6.475-2.298c-6.058,0-11.232,4.589-12.239,11.023c-0.523,3.211,0.221,6.28,2.042,8.422
		c1.671,1.968,4.062,2.787,6.904,2.787c4.881,0,7.588-3.138,7.588-3.138l-0.245,1.523c-0.092,0.582,0.357,1.104,0.941,1.104h4.937
		c0.786,0,1.448-0.569,1.572-1.344l2.963-18.762C54.169,16.871,53.722,16.346,53.136,16.346"/>
	<path fill="#253B80" d="M82.33,16.346h-5.509c-0.525,0-1.02,0.262-1.317,0.699l-7.597,11.189l-3.22-10.753
		c-0.203-0.673-0.823-1.135-1.526-1.135h-5.414c-0.658,0-1.115,0.644-0.906,1.264l6.067,17.804l-5.704,8.053
		c-0.448,0.635,0.003,1.507,0.778,1.507h5.501c0.523,0,1.012-0.256,1.309-0.683l18.321-26.445
		C83.552,17.212,83.103,16.346,82.33,16.346"/>
	<path fill="#179BD7" d="M101.888,16.479c-0.624,4.108-3.763,4.108-6.798,4.108h-1.727l1.214-7.672
		c0.071-0.464,0.469-0.806,0.94-0.806h0.793c2.064,0,4.016,0,5.023,1.179C101.934,13.992,102.118,15.037,101.888,16.479
		 M100.567,5.758H89.119c-0.783,0-1.448,0.57-1.57,1.342l-4.63,29.354c-0.092,0.578,0.356,1.102,0.941,1.102h5.874
		c0.546,0,1.013-0.398,1.099-0.94l1.313-8.321c0.119-0.774,0.788-1.343,1.571-1.343h3.62c7.543,0,11.893-3.65,13.03-10.881
		c0.514-3.163,0.021-5.648-1.461-7.389C107.282,6.77,104.398,5.758,100.567,5.758"/>
	<path fill="#179BD7" d="M127.142,27.016c-0.525,3.131-3.014,5.234-6.185,5.234c-1.588,0-2.863-0.511-3.681-1.479
		c-0.811-0.961-1.114-2.329-0.861-3.852c0.499-3.104,3.021-5.275,6.145-5.275c1.556,0,2.821,0.517,3.655,1.493
		C127.054,24.124,127.384,25.499,127.142,27.016 M134.783,16.346h-5.479c-0.47,0-0.87,0.342-0.94,0.806l-0.243,1.533l-0.384-0.556
		c-1.187-1.722-3.831-2.298-6.474-2.298c-6.058,0-11.229,4.589-12.237,11.023c-0.521,3.211,0.221,6.28,2.042,8.422
		c1.674,1.968,4.06,2.787,6.903,2.787c4.881,0,7.587-3.138,7.587-3.138l-0.243,1.523c-0.092,0.582,0.356,1.104,0.943,1.104h4.937
		c0.78,0,1.447-0.569,1.569-1.344l2.965-18.762C135.818,16.871,135.37,16.346,134.783,16.346"/>
	<path fill="#179BD7" d="M141.245,6.564l-4.698,29.89c-0.093,0.578,0.356,1.102,0.939,1.102h4.724c0.786,0,1.451-0.569,1.573-1.344
		l4.632-29.351c0.092-0.58-0.356-1.104-0.941-1.104h-5.288C141.719,5.758,141.316,6.1,141.245,6.564"/>
	<path fill="#253B80" d="M-46.267,43.261l0.875-5.562l-1.95-0.046h-9.311l6.471-41.028c0.02-0.124,0.085-0.239,0.18-0.321
		c0.096-0.082,0.218-0.127,0.345-0.127h15.7c5.212,0,8.809,1.084,10.687,3.225c0.881,1.004,1.441,2.054,1.712,3.208
		c0.285,1.211,0.29,2.659,0.012,4.425l-0.02,0.129v1.131l0.88,0.499c0.742,0.394,1.332,0.844,1.783,1.359
		c0.753,0.858,1.241,1.95,1.446,3.244c0.212,1.331,0.143,2.915-0.206,4.707c-0.402,2.063-1.051,3.858-1.928,5.328
		c-0.807,1.354-1.835,2.477-3.055,3.348c-1.165,0.827-2.549,1.453-4.114,1.856c-1.517,0.395-3.245,0.594-5.142,0.594h-1.222
		c-0.874,0-1.722,0.314-2.388,0.878c-0.668,0.576-1.11,1.362-1.246,2.223l-0.092,0.501l-1.547,9.8l-0.07,0.361
		c-0.018,0.112-0.05,0.17-0.097,0.209c-0.042,0.034-0.102,0.059-0.161,0.059H-46.267z"/>
	<path fill="#179BD7" d="M-19.851,7.295c-0.047,0.3-0.101,0.605-0.161,0.92c-2.071,10.631-9.154,14.303-18.2,14.303h-4.607
		c-1.106,0-2.039,0.804-2.211,1.895l-2.358,14.957l-0.668,4.239c-0.112,0.717,0.44,1.363,1.164,1.363h8.169
		c0.968,0,1.79-0.703,1.942-1.658l0.08-0.414l1.539-9.763l0.098-0.535c0.152-0.957,0.975-1.66,1.942-1.66h1.222
		c7.916,0,14.111-3.214,15.922-12.513c0.757-3.885,0.365-7.129-1.636-9.41C-18.221,8.332-18.972,7.761-19.851,7.295"/>
	<path fill="#222D65" d="M-22.017,6.432c-0.316-0.092-0.643-0.176-0.978-0.251c-0.336-0.074-0.681-0.14-1.036-0.196
		c-1.242-0.2-2.603-0.296-4.061-0.296h-12.305c-0.303,0-0.591,0.068-0.849,0.193c-0.568,0.272-0.989,0.81-1.091,1.467l-2.618,16.582
		l-0.075,0.484c0.172-1.091,1.105-1.895,2.211-1.895h4.607c9.046,0,16.13-3.674,18.2-14.302c0.062-0.315,0.114-0.622,0.161-0.921
		c-0.524-0.278-1.091-0.516-1.702-0.717C-21.704,6.527-21.859,6.479-22.017,6.432"/>
	<path fill="#253B80" d="M-42.336,7.349c0.102-0.658,0.523-1.195,1.091-1.467c0.259-0.124,0.546-0.192,0.849-0.192h12.305
		c1.458,0,2.819,0.096,4.061,0.297c0.354,0.057,0.699,0.122,1.036,0.195c0.335,0.076,0.661,0.159,0.978,0.252
		c0.158,0.046,0.313,0.095,0.465,0.143c0.611,0.203,1.178,0.441,1.702,0.719c0.616-3.929-0.004-6.604-2.129-9.026
		c-2.342-2.667-6.568-3.808-11.976-3.808h-15.7c-1.104,0-2.047,0.804-2.218,1.896l-6.54,41.451
		c-0.128,0.819,0.504,1.561,1.331,1.561h9.693l2.434-15.441L-42.336,7.349z"/>
</g>
</svg>
