<?xml version="1.0" encoding="UTF-8"?>
<svg width="120px" height="54px" viewBox="0 0 120 54" version="1.1" xmlns="http://www.w3.org/2000/svg" xmlns:xlink="http://www.w3.org/1999/xlink">
    <!-- Generator: Sketch 47.1 (45422) - http://www.bohemiancoding.com/sketch -->
    <title>Artboard 2</title>
    <desc>Created with Sketch.</desc>
    <defs></defs>
    <g id="Page-1" stroke="none" stroke-width="1" fill="none" fill-rule="evenodd">
        <g id="Artboard-2" fill="#EC1D24">
            <g id="Logo_Sanborns" transform="translate(9.000000, 3.000000)">
                <path d="M37.6020577,12.2585237 C37.6020577,12.2585237 40.3533824,15.0151616 43.9666612,13.4479203 L43.6827621,14.0703556 C43.6827621,14.0703556 44.9373755,14.8813254 44.8574503,16.3812608 C44.8574503,16.3812608 44.7374657,18.0846659 43.0354258,18.3269289 C43.0354258,18.3269289 44.4520184,19.3000539 44.330292,21.0845366 C44.330292,21.0843427 44.4249251,21.7748599 43.5368454,23.242403 L43.1172862,23.1522091 C42.9204727,23.2226185 42.7534619,23.1933297 42.586451,23.1605496 C42.9162152,22.6001832 43.2355291,21.9756142 43.5209764,21.2874246 C43.5209764,21.2874246 43.7646226,20.3951832 43.0754851,19.4220582 C43.0754851,19.4220582 43.2392061,21.4495797 41.9445333,21.8543858 C41.9445333,21.8543858 42.9957534,18.9365625 41.3771222,17.9221228 C41.3771222,17.9221228 44.330292,17.8811961 44.0883876,15.9756789 C44.0883876,15.9754849 43.804682,14.7182004 42.7536554,14.3537392 L41.9845927,15.0023599 C41.9845927,15.0023599 42.5918697,15.4490625 42.4699498,16.0169935 C42.4699498,16.0167996 42.631542,16.9489978 40.6897264,16.9489978 L39.9605296,17.5966487 L39.4749789,16.7049892 C39.4749789,16.7049892 37.6568248,16.6246875 38.0587733,15.2056358 C38.0587733,15.2056358 38.3422854,14.7182004 38.6277327,14.5168642 L37.9786546,13.5829203 C37.9786546,13.5829203 35.9584619,14.5981358 36.320351,15.8548384 C36.320351,15.8546444 36.7255894,17.476778 38.9495624,17.6786961 C38.9495624,17.6786961 35.6327617,18.5701616 37.1693389,21.4887608 C37.1693389,21.4887608 35.7126869,21.2476616 36.1601135,18.5701616 C36.1601135,18.5699677 34.9455595,19.0558513 35.5112289,20.3133297 C35.5112289,20.3133297 36.037613,21.5642134 36.9016958,23.0746228 C36.8273828,23.0831573 36.7544244,23.096347 36.685917,23.1110884 C36.685917,23.1110884 36.4449802,23.1855711 36.1202476,23.2297953 C35.6074101,22.3346444 35.1344385,21.3384375 34.7835802,20.272403 C34.7835802,20.272403 34.2982231,18.3686315 36.4821367,17.3955065 C36.4821367,17.3955065 34.9856188,15.9756789 35.7529398,14.5981358 C35.7529398,14.5981358 36.320351,13.5016487 37.4931039,13.3402694 L37.6020577,12.2585237 Z M42.9098289,24.1730496 C42.2071448,25.1256142 41.1597952,26.308222 39.598834,27.7346444 C39.598834,27.7344504 38.0881889,26.3287823 36.6617266,24.1185453 C36.93982,24.114472 37.2287507,24.1119504 37.5265835,24.1105927 C38.125539,25.0501616 38.8295778,26.0038901 39.598834,26.7615194 C39.598834,26.7613254 40.7468159,25.8783944 41.9505326,24.1524892 C42.2737169,24.1588901 42.594192,24.1658728 42.9098289,24.1730496 L42.9098289,24.1730496 Z M36.8873751,15.7735668 C36.9256928,16.6246875 38.0587733,16.6665841 38.0587733,16.6665841 C36.9256928,15.935528 37.6165719,14.6790194 37.6165719,14.6790194 C36.8057081,14.9222522 36.8873751,15.7735668 36.8873751,15.7735668 L36.8873751,15.7735668 Z M42.9957534,15.2457866 C42.9957534,15.2457866 43.5209764,16.7868427 41.9845927,17.2735022 C41.9845927,17.2735022 43.1172862,17.4356573 43.5610358,16.3403341 C43.5610358,16.3403341 43.7247567,15.4490625 42.9957534,15.2457866 L42.9957534,15.2457866 Z M38.8406086,19.0157004 C38.7440403,19.0108513 38.6695337,18.9511099 38.5803194,18.9365625 C38.5478074,18.9309375 38.3149985,18.9421875 38.3097734,18.9846659 C38.2695205,19.3710453 39.2932603,19.5006142 39.1459888,18.9819504 C39.0405185,18.9763254 38.9422085,19.0176401 38.8406086,19.0157004 L38.8406086,19.0157004 Z M40.8226771,19.1770797 C40.7263024,19.1732004 40.653344,19.1105496 40.5641296,19.0977478 C40.5314241,19.0940625 40.2968735,19.1031789 40.2916484,19.1452694 C40.251589,19.5343642 41.2733935,19.6627694 41.1278638,19.1433297 C41.022587,19.1386746 40.9264058,19.1788254 40.8226771,19.1770797 L40.8226771,19.1770797 Z M39.5858679,20.7196875 C39.7424285,20.7381142 39.9243407,20.8335453 39.9003437,20.5786746 C39.8827331,20.3536746 39.6042526,20.2588254 39.4171153,20.272403 C39.2768107,20.2832651 38.896924,20.3918858 39.037035,20.6141703 C39.1258624,20.7598384 39.4442086,20.7016487 39.5858679,20.7196875 L39.5858679,20.7196875 Z M37.8985358,21.3021659 C37.9858149,21.4507435 38.5131667,21.6348168 38.6079933,21.408653 C38.7877767,20.9776616 37.6150238,20.8164763 37.8985358,21.3021659 L37.8985358,21.3021659 Z M41.4752386,21.1423384 C41.4154398,21.0761961 41.1863079,21.1425323 41.1152848,21.1462177 C40.9353078,21.1551401 40.3678967,21.082597 40.4478219,21.4049677 C40.5169099,21.6745797 41.231786,21.6658513 41.3970551,21.5118427 C41.4516288,21.4614116 41.5391014,21.2166272 41.4752386,21.1423384 L41.4752386,21.1423384 Z M39.1533427,14.1504634 L40.2461704,16.2192996 L41.6209619,14.5568211 C41.6209619,14.5568211 40.5680001,14.8813254 39.1533427,14.1504634 L39.1533427,14.1504634 Z M38.5040711,15.6513685 C38.5460657,16.138028 39.2332679,15.8946013 39.2332679,15.8946013 L38.9495624,15.2056358 C38.5040711,15.2056358 38.5040711,15.6513685 38.5040711,15.6513685 L38.5040711,15.6513685 Z M41.5607761,15.5621444 L41.162311,16.1898168 C41.162311,16.1898168 41.7953266,16.5509806 41.9209234,16.0777047 C41.9209234,16.0775108 41.9971717,15.6405065 41.5607761,15.5621444 L41.5607761,15.5621444 Z M65.7163895,13.3400754 C66.8908841,13.5016487 67.4542313,14.5981358 67.4542313,14.5981358 C68.2256163,15.9754849 66.7269697,17.3955065 66.7269697,17.3955065 C68.9110768,18.3686315 68.4272679,20.272403 68.4272679,20.272403 C68.0649917,21.3721875 67.5726677,22.3974892 67.0408649,23.3147522 C66.7772858,23.2596659 66.8235379,23.191972 66.8235379,23.191972 C66.6483991,23.1551185 66.4467475,23.1291272 66.2599973,23.158028 C67.152141,21.6105711 67.698071,20.3133297 67.698071,20.3133297 C68.263934,19.0556573 67.0507346,18.5701616 67.0507346,18.5701616 C67.4962259,21.2474677 66.0397674,21.4887608 66.0397674,21.4887608 C67.5780864,18.5699677 64.2593505,17.6786961 64.2593505,17.6786961 C66.4833235,17.4765841 66.8908841,15.8548384 66.8908841,15.8548384 C67.2527732,14.5981358 65.2306453,13.5829203 65.2306453,13.5829203 L64.5852442,14.5166703 C64.8650793,14.7182004 65.1507201,15.2056358 65.1507201,15.2056358 C65.5542168,16.6246875 63.733934,16.7049892 63.733934,16.7049892 L63.2487703,17.5966487 L62.519767,16.9488039 C60.5773708,16.9488039 60.7391565,16.0169935 60.7391565,16.0169935 C60.6191719,15.4488685 61.2247072,15.0025539 61.2247072,15.0025539 L60.4556445,14.3535453 C59.4065531,14.7182004 59.1228476,15.9756789 59.1228476,15.9756789 C58.8790079,17.8810022 61.8339194,17.9221228 61.8339194,17.9221228 C60.2154817,18.9365625 61.2665083,21.8543858 61.2665083,21.8543858 C59.9702873,21.4495797 60.1338148,19.4220582 60.1338148,19.4220582 C59.4466125,20.3951832 59.6898717,21.2874246 59.6898717,21.2874246 C59.9991224,22.0339978 60.3480454,22.7055065 60.7074187,23.3017565 C60.5613084,23.3554849 60.4177139,23.4204634 60.2609598,23.4718642 C60.1365241,23.5127909 60.0070568,23.5420797 59.8758478,23.563028 C58.7716023,21.875528 58.8790079,21.0845366 58.8790079,21.0845366 C58.7572815,19.3000539 60.1734871,18.3269289 60.1734871,18.3269289 C58.4757047,18.084472 58.355333,16.3812608 58.355333,16.3812608 C58.2734726,14.8811315 59.5261507,14.0703556 59.5261507,14.0703556 L59.2426387,13.4479203 C62.8576592,15.0151616 65.6087904,12.2587177 65.6087904,12.2587177 L65.7163895,13.3400754 Z M66.5771824,24.0741272 C65.1423986,26.3103556 63.6122076,27.7346444 63.6122076,27.7346444 C62.0665348,26.3219935 61.0242168,25.1485022 60.3215326,24.2009806 C60.8670756,24.2036961 61.2264489,24.2071875 61.2264489,24.2071875 C61.2477365,24.2079634 61.2721205,24.2087392 61.2994073,24.2093211 C62.4886097,25.8977909 63.6122076,26.7615194 63.6122076,26.7615194 C64.370433,26.0141703 65.0651827,25.076153 65.658526,24.1488039 C65.9118483,24.1214547 66.2269047,24.0964332 66.5771824,24.0741272 L66.5771824,24.0741272 Z M65.5942761,14.6790194 C65.5942761,14.6790194 66.2834136,15.935722 65.1507201,16.6665841 C65.1507201,16.6665841 66.2834136,16.6246875 66.3215378,15.7735668 C66.3215378,15.7735668 66.4035918,14.9224461 65.5942761,14.6790194 L65.5942761,14.6790194 Z M59.6482641,16.3403341 C60.0937554,17.4354634 61.2247072,17.2735022 61.2247072,17.2735022 C59.6898717,16.7868427 60.2154817,15.2457866 60.2154817,15.2457866 C59.4866719,15.4488685 59.6482641,16.3403341 59.6482641,16.3403341 L59.6482641,16.3403341 Z M64.0650528,18.9819504 C63.9175878,19.5004203 64.9413276,19.3712392 64.9014617,18.9846659 C64.8962366,18.9421875 64.6614925,18.9309375 64.6303352,18.9365625 C64.5413143,18.9509159 64.4668078,19.0110453 64.3723683,19.0158944 C64.2670914,19.0174461 64.1705232,18.9765194 64.0650528,18.9819504 L64.0650528,18.9819504 Z M62.0831778,19.1431358 C61.9359064,19.6627694 62.9594526,19.5343642 62.9176515,19.1452694 C62.9141681,19.1029849 62.679424,19.0940625 62.6484602,19.0977478 C62.5576976,19.1105496 62.4847392,19.1732004 62.3883645,19.1770797 C62.2850229,19.1786315 62.1884546,19.1388685 62.0831778,19.1431358 L62.0831778,19.1431358 Z M64.1742001,20.6139763 C64.3143112,20.3918858 63.9340373,20.2834591 63.7941198,20.272403 C63.6050472,20.2586315 63.3286956,20.3536746 63.3085691,20.5786746 C63.2849592,20.8333513 63.4686131,20.7381142 63.6232385,20.7198815 C63.7670265,20.7014547 64.0830505,20.7598384 64.1742001,20.6139763 L64.1742001,20.6139763 Z M64.6015002,21.408653 C64.6976814,21.6348168 65.2250332,21.4507435 65.3123123,21.3021659 C65.5964049,20.8164763 64.4213297,20.9778556 64.6015002,21.408653 L64.6015002,21.408653 Z M61.8120513,21.5118427 C61.9792556,21.6658513 62.6939382,21.6747737 62.7630261,21.4049677 C62.8412097,21.082403 62.2737985,21.1551401 62.0955633,21.1462177 C62.0247337,21.1423384 61.7919248,21.0761961 61.7356094,21.1425323 C61.6721337,21.2166272 61.7594129,21.4616056 61.8120513,21.5118427 L61.8120513,21.5118427 Z M61.5904668,14.5568211 L62.9650648,16.2192996 L64.058086,14.1504634 C62.643235,14.8811315 61.5902732,14.5568211 61.5904668,14.5568211 L61.5904668,14.5568211 Z M64.2593505,15.2056358 L63.9762255,15.8946013 C63.9762255,15.8946013 64.6669111,16.138028 64.7052288,15.6513685 C64.7052288,15.6513685 64.7052288,15.2056358 64.2593505,15.2056358 L64.2593505,15.2056358 Z M61.2901182,16.0775108 C61.4155214,16.5507866 62.0483436,16.1900108 62.0483436,16.1900108 L61.6502656,15.5621444 C61.2123217,15.6403125 61.2901182,16.0777047 61.2901182,16.0775108 L61.2901182,16.0775108 Z M46.4486012,4.15037716 C46.4486012,4.15037716 48.8763545,7.01641164 52.4344791,6.96171336 C52.4346726,6.96132543 55.3477831,7.01641164 57.989767,5.17645474 L56.4259029,7.01641164 C56.4259029,7.01641164 58.7988891,8.20542026 58.7988891,10.5818858 C58.7990826,10.5818858 58.7460572,13.2857651 56.2097371,14.3675108 C56.2097371,14.3673168 58.9080364,16.0433728 58.5296978,19.2335237 C58.5296978,19.2335237 58.2287686,20.9252909 56.7113502,23.4771013 C56.4706069,23.4317134 56.2407009,23.3467565 56.073303,23.1522091 C56.0456291,23.1196228 56.0193099,23.0742349 55.9931842,23.0216703 C56.9449332,21.3745151 58.6270402,17.775097 56.4259029,15.935722 C56.4259029,15.935528 57.3971978,19.5033297 54.916806,21.0705711 C54.9169996,21.0705711 57.127813,15.9904203 53.2439882,14.0967349 C53.2439882,14.0967349 57.505958,14.0439763 57.8827485,10.8544073 C57.8827485,10.8542134 58.2608935,8.74580819 55.8877139,7.50210129 L54.9711862,8.5297306 C54.9711862,8.5297306 55.9422875,10.2048168 55.1314237,10.9620582 C55.1316172,10.9620582 54.2675344,12.2587177 52.3820342,11.5026401 L51.4655065,13.1234159 L50.7634029,11.6636315 C50.7634029,11.6636315 48.0668454,12.3143858 48.1742509,9.55677802 C48.1742509,9.55658405 48.2286311,8.79953664 49.0905851,8.42149784 L47.9578916,7.28582974 C47.9578916,7.28582974 45.4759516,8.09699353 45.7464976,10.7459806 C45.7464976,10.7457866 46.0156889,13.7177263 50.1688985,13.7177263 C50.1688985,13.7177263 45.8558384,16.1516056 48.2812695,21.1242996 C48.2812695,21.1241056 46.0156889,19.5578341 46.9850485,16.0959375 C46.9850485,16.0959375 45.692311,16.8021659 45.8539032,19.1252909 C45.8539032,19.125097 45.7637212,20.9444935 47.747725,23.248028 C47.719277,23.2974892 47.6751536,23.3419073 47.6014211,23.3785668 C47.5832299,23.3853556 47.5702638,23.3925323 47.5522661,23.3989332 C47.3722892,23.4670151 47.1623161,23.4887392 46.9740177,23.5455711 L46.1250297,22.3680065 C46.1250297,22.3680065 42.5645829,17.6115841 47.3651288,14.2053556 C47.3651288,14.2051616 44.2372072,13.2857651 44.8301634,9.50227371 C44.8301634,9.50207974 44.9373755,7.44720905 47.5269146,6.63720905 L46.4486012,4.15037716 Z M56.245539,24.2260022 C55.1896743,25.8535668 53.6629668,27.7633513 51.4655065,29.7751616 L47.522657,24.3064978 C48.1349657,24.3278341 48.4978224,24.3421875 48.4978224,24.3421875 C48.5556859,24.3501401 48.6185811,24.3573168 48.6853467,24.3641056 L51.625357,28.4224461 C51.625357,28.4224461 53.7252814,25.9497737 55.1118778,24.2925323 C55.2968864,24.2616918 55.7131556,24.2405496 56.245539,24.2260022 L56.245539,24.2260022 Z M51.6801241,11.1779418 L54.4293201,7.66289871 C52.327654,8.6371875 49.5761358,7.44720905 49.5761358,7.44720905 L51.6801241,11.1779418 Z M49.2634017,10.3640625 C49.3853215,11.2080065 50.587103,10.6641272 50.587103,10.6641272 L49.8052677,9.45804957 C49.0834247,9.64057112 49.2634017,10.3642565 49.2634017,10.3640625 L49.2634017,10.3640625 Z M54.3223016,10.7457866 C54.9711862,9.88108836 53.9983431,9.50227371 53.9983431,9.50227371 L52.9728617,10.7457866 C53.3527485,11.5550108 54.3223016,10.7459806 54.3223016,10.7457866 L54.3223016,10.7457866 Z M46.7158572,11.0155927 C47.5269146,13.5016487 49.5761358,12.4747953 49.5761358,12.4747953 C46.2868154,11.6106789 47.9033179,8.25934267 47.9033179,8.25934267 C46.1776681,8.9077694 46.7158572,11.0157866 46.7158572,11.0155927 L46.7158572,11.0155927 Z M55.831592,8.74580819 C55.831592,8.74580819 56.85688,12.4208728 53.0818154,12.9614547 C53.0818154,12.9612608 55.3458478,13.8818211 56.5878822,11.5550108 C56.5880757,11.5550108 57.1823866,9.28716595 55.831592,8.74580819 L55.831592,8.74580819 Z M49.9562161,16.4285884 C49.8797743,16.4185022 49.4035127,16.2584806 49.368872,16.3766056 C49.1707039,17.0465625 51.0072427,17.2616703 50.7545009,16.3211315 C50.4634414,16.2784591 50.2635315,16.4732004 49.9562161,16.4285884 L49.9562161,16.4285884 Z M53.7821773,16.9583082 C53.9333192,16.8430927 54.1311003,16.5835668 53.9331257,16.4262608 C53.7204433,16.2553772 53.4148695,16.5663039 53.2165079,16.6128556 C53.0419496,16.6535884 52.7855308,16.5472953 52.6363242,16.694903 C52.5055022,16.8260237 52.5200165,16.9344504 52.7036704,17.0217349 C52.9602826,17.1433513 53.5586576,17.1237608 53.7821773,16.9583082 L53.7821773,16.9583082 Z M49.692637,18.6857651 C49.5724588,18.5647306 49.2036029,18.7259159 49.0124016,18.7222306 C48.823329,18.7185453 48.5251092,18.6522091 48.3869334,18.826972 C48.3323597,18.894472 48.3414553,19.1388685 48.3958354,19.2079203 C48.4925972,19.3262392 48.7852049,19.3438901 49.0797478,19.2899677 C49.5213686,19.2061746 49.9653117,18.961972 49.692637,18.6857651 L49.692637,18.6857651 Z M51.3019791,18.990097 C51.5094363,19.001153 52.5784606,18.9183297 52.0182098,18.4917996 C51.8055274,18.3269289 51.4999537,18.5336961 51.2634679,18.4789978 C51.0600746,18.4307004 50.7655317,18.2084159 50.6799943,18.5336961 C50.5872965,18.8898168 51.0709119,18.9765194 51.3019791,18.990097 L51.3019791,18.990097 Z M54.7823072,18.3651401 C54.6005885,18.1672953 54.2259269,18.4487392 53.9966014,18.4252694 C53.8146893,18.4041272 53.4692497,18.2128772 53.4038387,18.5046013 C53.3256552,18.8527694 53.7730817,18.8281358 54.0022136,18.8281358 C54.1421312,18.8279418 55.1349071,18.7505496 54.7823072,18.3651401 L54.7823072,18.3651401 Z M49.6636084,20.2914116 C49.372549,20.7433513 51.0236922,21.1089763 50.8926767,20.373653 C50.887258,20.328847 50.3815809,20.3389332 50.3434568,20.3928556 C50.2416634,20.3788901 49.7251489,20.1940409 49.6636084,20.2914116 L49.6636084,20.2914116 Z M53.0711717,20.401778 C52.8929364,20.4107004 52.7363759,20.2596013 52.5910396,20.2687177 C52.1927681,20.2896659 52.3545538,20.7408297 52.5854275,20.8682651 C52.9111276,21.0478772 53.6929629,21.0917134 53.8110123,20.6176616 C53.9582837,20.0382866 53.3202365,20.3901401 53.0711717,20.401778 L53.0711717,20.401778 Z" id="Fill-1"></path>
                <path d="M55.5096462,21.6119677 C55.2387132,21.773153 54.835023,21.6922694 54.835023,21.6922694 C54.511258,21.3411918 54.2147799,21.6121616 54.2147799,21.6121616 C53.6473688,21.9355022 53.2711589,21.6656961 53.2711589,21.6656961 C52.4891301,21.3411918 52.2454839,22.1250065 52.2454839,22.1250065 C52.1400136,22.9621616 51.7309047,22.9623556 51.7309047,22.9623556 C51.3564366,22.9621616 51.1145321,22.3436056 51.1145321,22.3436056 C51.0036431,21.9715797 50.7632868,21.6922694 50.223356,22.1533254 C49.9963529,22.3453513 49.7925725,21.9628513 49.7925725,21.9628513 C49.521446,21.5834547 49.1998098,21.9628513 49.1998098,21.9628513 C48.8470163,22.2058901 48.6053054,21.9628513 48.6053054,21.9628513 C47.6887777,21.5299203 46.690196,22.9516875 46.690196,22.9516875 C45.9484201,23.0042522 45.0537606,22.8822478 44.6682616,22.8822478 C43.9411935,22.8822478 43.6154933,22.5852866 43.6154933,22.5852866 L43.1173636,22.4756961 C42.771924,22.6008039 42.5187952,22.4175065 42.1954173,22.4458254 C42.0136987,22.4623125 41.7079314,22.8166875 41.5718843,22.4421401 C41.315272,22.4421401 41.2297346,22.6124418 40.9315148,22.5579375 C40.7917908,22.5315582 40.7970159,22.431278 40.6514862,22.3967522 C40.535372,22.3674634 40.3697158,22.3967522 40.2479895,22.3967522 C40.1171675,22.3967522 39.9697026,22.3754159 39.8406224,22.3967522 C39.7277981,22.4128513 39.5932992,22.5276789 39.5170509,22.5177866 C39.1805134,22.4729806 39.2931441,22.3319677 38.9604771,22.4365151 C38.8296552,22.4756961 38.8567485,22.6116659 38.6676759,22.5978944 C38.4915695,22.5852866 38.5585286,22.4130453 38.4350606,22.3837565 C38.1221329,22.3081099 38.0913627,22.5416444 37.8984197,22.5978944 C37.5988452,22.6878944 37.7021868,22.5594892 37.4132561,22.4458254 C37.1893493,22.3564073 36.9149328,22.3874418 36.6858009,22.4365151 C36.6858009,22.4363211 36.1183898,22.6106961 35.5509786,22.5852866 L35.4162862,22.5860625 C35.4162862,22.5860625 32.1817331,22.9078513 31.1833449,22.6106961 L29.7015349,22.909597 L30.7504327,24.3674418 L32.8544211,24.3947909 C32.8544211,24.3947909 30.9942724,25.8276142 29.8886722,26.0180884 L29.6196744,26.2064289 L30.428603,27.5040582 C30.428603,27.5040582 33.0707804,26.9636703 34.1783159,25.9368168 C34.1783159,25.9366228 35.4162862,24.8826142 35.4983402,24.6655668 C35.4983402,24.6653728 37.4931813,24.6655668 41.1082018,24.7204591 C41.1082018,24.7204591 48.2540601,24.990847 50.4128156,25.0162565 C50.4130091,25.0162565 55.3749538,24.9089935 57.9896509,24.6655668 C57.9898444,24.6653728 66.8363879,24.8826142 69.6674444,24.5041875 C69.6674444,24.5039935 71.2856886,24.4496832 71.6895723,24.5579159 L71.9601183,23.1254806 L71.9877921,23.0172478 L66.9306339,22.7080668 C66.5942899,22.4677435 66.3196799,22.4365151 66.0924833,22.527097 C65.803359,22.639597 65.9105711,22.7681961 65.6088678,22.6791659 C65.4176665,22.6203944 65.3853481,22.3891875 65.0722269,22.4640582 C64.9487589,22.493153 65.0159116,22.6665582 64.8413533,22.6791659 C64.650539,22.6925496 64.6758906,22.5579375 64.5487456,22.5177866 C64.2139498,22.4128513 64.3248389,22.5544461 63.9906236,22.5990582 C63.9141818,22.6087565 63.7775542,22.493153 63.6684069,22.4758901 C63.5375849,22.4564935 63.3903135,22.4758901 63.2614268,22.4758901 C63.1375717,22.4756961 62.9738507,22.4477651 62.8558013,22.4758901 C62.7087234,22.5131315 62.7156903,22.6116659 62.5757727,22.6380453 C62.2775529,22.6954591 62.1920155,22.5232177 61.933855,22.5251573 C61.7993561,22.898347 61.4955241,22.5424203 61.3120637,22.527097 C60.9101153,22.4894677 60.6190558,22.6791659 60.2608436,22.7957392 C59.9173393,22.9078513 59.5374525,22.9352004 59.1771116,22.9342306 C58.4392062,22.9332608 57.6807873,23.0820323 56.9552673,22.9043599 C56.8825025,22.8859332 56.7441331,22.9132823 56.735231,22.8368599 C56.5608663,21.1423772 55.5094527,21.6121616 55.5096462,21.6119677 M47.601305,23.3786056 C47.8960414,23.2321616 47.7178062,22.9642953 47.9521633,22.7336703 C48.3798504,22.3117953 48.6053054,23.2311918 48.8561119,23.3972263 C49.1651691,23.6022478 49.2123888,23.2057823 49.3072154,23.0089073 C49.5433142,22.5104159 49.6542032,23.0436272 49.9653891,23.1920108 C50.3655959,23.3803513 50.3799166,22.6236918 50.7181958,22.8285194 C50.9691959,22.9815582 50.8782398,23.4808254 51.1145321,23.6515151 C51.4094621,23.8652651 51.8781762,23.8344246 52.1674939,23.623972 C52.4657138,23.4042091 52.4200422,22.7484116 52.7947039,22.6333901 C53.0803447,22.5468815 53.2055544,22.8985409 53.4366216,22.9749634 C53.7894151,23.0973556 53.8912085,22.7447263 54.0783458,22.5303944 C54.3930151,22.1715582 54.3984338,22.5416444 54.5402866,22.7738211 C54.8514725,23.2922909 55.073057,22.5561918 55.3132198,22.4149849 C55.7695484,22.1486703 55.8877913,22.9342306 56.0733804,23.1520539 C56.3388947,23.4610409 56.7623243,23.4938211 57.1352443,23.5300927 C57.8135444,23.5946832 58.4916511,23.6074849 59.1771116,23.6103944 C59.5374525,23.6109763 59.9173393,23.5847909 60.2608436,23.4717091 C60.6190558,23.3543599 60.9101153,23.1666013 61.3120637,23.202097 C61.4955241,23.2181961 61.7991626,23.5739289 61.933855,23.2013211 C62.1920155,23.196278 62.2775529,23.370653 62.5757727,23.3142091 C62.7156903,23.2868599 62.7085299,23.1875496 62.8558013,23.1520539 C62.9738507,23.1227651 63.1375717,23.1520539 63.2614268,23.1520539 C63.3903135,23.1520539 63.5375849,23.1330453 63.6684069,23.1520539 C63.7775542,23.1700927 63.9139883,23.2851142 63.9906236,23.275028 C64.3248389,23.230222 64.2139498,23.0872694 64.5487456,23.1920108 C64.6758906,23.2339073 64.650539,23.3679375 64.8413533,23.3543599 C65.0159116,23.3423341 64.9487589,23.1702866 65.0722269,23.140222 C65.3855416,23.0651573 65.4176665,23.2967522 65.6088678,23.3543599 C65.9107646,23.4441659 65.8031655,23.3161487 66.0924833,23.202097 C66.3196799,23.1144246 66.5942899,23.1439073 66.8236153,23.1920108 C66.8236153,23.1918168 66.6469283,23.4497909 68.9382475,23.3679375 L71.2040216,23.4755884 L71.0695227,23.9098772 C71.0695227,23.9098772 66.7287888,23.9903728 65.4068292,24.1798772 C65.4070227,24.1796832 61.8719275,24.2328297 61.2265263,24.2072263 C61.2265263,24.2070323 55.4004989,24.1517522 55.0258372,24.3139073 C55.0260308,24.3137134 50.0617638,24.5579159 48.4978998,24.3420323 C48.4978998,24.3420323 39.4895706,23.9903728 35.336361,24.1517522 C35.336361,24.1517522 34.1252904,25.7746616 30.6705074,26.8554375 L30.3742228,26.4500496 C30.3742228,26.4500496 33.3144266,25.4493815 33.880096,24.5041875 L33.3417134,23.8553728 C33.3417134,23.8553728 31.5069164,23.9903728 30.9687273,23.6387134 L30.7504327,23.3423341 L35.5509786,23.2593168 C36.1183898,23.2868599 36.6858009,23.1111272 36.6858009,23.1111272 C36.9149328,23.0616659 37.1893493,23.0325711 37.4132561,23.1210194 C37.7021868,23.2346832 37.5986517,23.3627004 37.8984197,23.2738642 C38.0913627,23.2174203 38.1221329,22.9842737 38.4350606,23.0599203 C38.5585286,23.0882392 38.4915695,23.2612565 38.6676759,23.2738642 C38.8567485,23.2868599 38.8294616,23.1520539 38.9604771,23.1111272 C39.2933377,23.0081315 39.1805134,23.1491444 39.5170509,23.1939504 C39.5932992,23.202097 39.7277981,23.0872694 39.8406224,23.0709763 C39.9697026,23.0525496 40.1171675,23.0709763 40.2479895,23.0709763 C40.3697158,23.0707823 40.5351785,23.0424634 40.6514862,23.0709763 C40.7970159,23.1070539 40.7917908,23.2067522 40.9315148,23.2341013 C41.2297346,23.2887996 41.315272,23.1183039 41.5718843,23.1183039 C41.7079314,23.4926573 42.0136987,23.1365366 42.1954173,23.1210194 C42.5187952,23.0928944 42.771924,23.2759978 43.1173636,23.1520539 L43.6154933,23.2593168 C43.6154933,23.2593168 43.9411935,23.5584116 44.6682616,23.5584116 C44.6682616,23.5584116 46.690196,23.6111703 46.9340357,23.5584116 C47.1323974,23.4916875 47.3594005,23.4717091 47.5523436,23.398972 C47.5703413,23.3925711 47.5833073,23.3853944 47.601305,23.3786056" id="Fill-3"></path>
                <path d="M40.309859,7.62505603 C38.4932531,7.62505603 37.0220869,6.14975431 37.0220869,4.32803017 C37.0220869,2.5065 38.4930596,1.0321681 40.309859,1.0321681 C40.9773218,1.03197414 41.5952426,1.23525 42.111757,1.57604741 C41.315214,0.685551724 40.1589106,0.122469828 38.8679148,0.122469828 C36.4564174,0.122469828 34.5000875,2.08346121 34.5000875,4.50201724 C34.5000875,6.92057328 36.4564174,8.88001293 38.8679148,8.88001293 C40.547893,8.88001293 42.0043515,7.92919397 42.7354836,6.53787931 C42.1318835,7.19930172 41.2732194,7.62505603 40.309859,7.62505603" id="Fill-5"></path>
                <path d="M8.36826931,32.4241293 C8.36826931,32.4241293 4.42948385,34.0443233 4.26769814,34.9648836 C4.26769814,34.9646897 3.51508493,36.1001638 6.48083382,35.8295819 C6.48083382,35.8293879 15.3798222,34.9648836 15.7035871,38.9642586 C15.7035871,38.9642586 15.8125409,40.5854224 14.0849559,41.937556 C14.0849559,41.937556 10.2028729,45.6145603 3.29853204,44.4253578 C3.29853204,44.4253578 0.170997437,44.2086983 0.278015977,42.3704871 C0.278015977,42.3702931 0.763760167,41.5055948 1.94928563,42.3704871 C1.94928563,42.3702931 8.26086372,43.9918448 11.2813798,41.4518664 C11.2813798,41.4518664 12.6288845,40.1552069 11.6575896,39.5601207 C11.6575896,39.5601207 9.87910791,38.6407241 7.50438004,38.5869957 C7.50438004,38.5869957 0.440188739,39.3971897 0.116423787,36.5327069 C0.116423787,36.5327069 -0.476338944,34.0443233 3.83846283,31.6668879 C3.83846283,31.6668879 10.2028729,28.5847759 15.7035871,28.8010474 C15.7035871,28.8008534 18.7256514,27.9900776 18.9400755,30.5314138 C18.9400755,30.5312198 17.8600204,32.9633534 13.8707253,33.179625 C13.8707253,33.179625 9.93193985,33.3408103 9.55573001,32.369431 C9.55573001,32.3692371 9.39394429,32.0988491 8.36826931,32.4241293 L8.36826931,32.4241293 Z M13.2231954,31.9902284 C13.2231954,31.9902284 14.3558889,31.8290431 14.0849559,31.0188491 C14.0849559,31.0186552 12.6832646,30.3684828 11.4431655,31.4517802 C11.4431655,31.4517802 10.9574213,32.3164784 13.2231954,31.9902284 L13.2231954,31.9902284 Z M26.5993518,37.6674052 C26.5993518,37.6674052 26.9774969,36.1001638 22.6607599,36.6403578 C22.6607599,36.6403578 16.2435179,37.7748621 16.3509235,42.2081379 C16.3509235,42.207944 16.9980664,45.7210474 20.7204925,44.0463491 C20.7204925,44.0463491 23.1459235,42.7485259 23.7406215,42.3704871 C23.7406215,42.3702931 23.9550456,45.1818233 26.8155177,44.9120172 C26.8155177,44.9120172 28.7031467,45.0732026 30.428603,42.7485259 C30.428603,42.7483319 32.1542527,40.5324698 32.5325913,40.6408966 C32.5325913,40.6407026 33.449119,40.5324698 32.8544211,41.5055948 C32.8544211,41.5054009 31.5069164,43.6671466 33.3947389,44.1000776 C33.3947389,44.0998836 35.4439601,44.8028147 36.6331625,42.9657672 C36.6331625,42.9655733 38.4640891,40.1542371 39.5424025,40.1542371 C39.5424025,40.1542371 39.9751212,40.3156164 39.2732112,41.2897112 C39.2732112,41.2897112 38.2494715,44.1000776 41.1082018,44.3167371 C41.1082018,44.3165431 43.9117779,44.5865431 44.3975221,43.3447759 C44.3975221,43.3445819 44.9374529,42.1528578 43.4808009,42.911069 C43.4808009,42.911069 41.4863469,44.1000776 42.2407018,42.3169526 C42.2408953,42.3169526 45.2612179,38.3689784 42.3481074,37.2885905 C42.3481074,37.2883966 40.7842433,36.5858534 39.6515498,37.3958534 C39.6515498,37.3956595 37.9802802,39.1811121 37.2257317,39.2895388 C37.2257317,39.2893448 36.6331625,39.3971897 36.5218864,38.1003362 C36.5218864,38.1003362 35.9293172,36.1548621 33.5034991,37.3430948 C33.5034991,37.3430948 31.9378934,38.6961983 29.0795501,42.1555733 C29.0795501,42.1555733 26.4375661,44.8563491 27.1392826,42.2081379 C27.1392826,42.207944 29.0267181,39.2330948 27.0283936,38.5315216 C27.0283936,38.5313276 25.8972483,37.9928793 24.1715985,39.7763922 C24.1715985,39.7761983 20.6657253,42.8581164 19.8039648,42.8581164 C19.8039648,42.8579224 18.7256514,42.6959612 20.2895155,40.694625 C20.2895155,40.694625 21.9605916,38.4230948 24.8735085,38.2077931 C24.8735085,38.2077931 26.5993518,38.2077931 26.5993518,37.6674052 L26.5993518,37.6674052 Z M50.4401024,36.6938922 C49.7925725,38.5313276 51.1400772,37.1260474 51.1400772,37.1260474 C54.4839712,35.395681 54.4839712,38.9105302 54.4839712,38.9105302 C55.1315011,39.7761983 56.4257868,38.6961983 56.4257868,38.6961983 C57.0731232,38.2603578 57.8826323,37.4507457 57.8826323,37.4507457 C60.0410009,35.5060474 61.4430792,36.9638922 61.4430792,36.9638922 C61.7666506,37.8297543 62.5757727,37.1809397 62.5757727,37.1809397 C65.326904,36.3707457 64.7850379,38.4775991 64.7850379,38.4775991 C63.9761094,38.6961983 64.4088281,39.6130733 64.4088281,39.6130733 C64.732593,40.7485474 66.4052174,38.9642586 66.4052174,38.9642586 C67.3743835,38.6961983 66.890768,37.3430948 66.890768,37.3430948 C66.9436,36.2615431 68.2926529,36.6940862 68.2926529,36.6940862 C69.2091805,37.3956595 70.5036598,36.8554655 70.5036598,36.8554655 C72.6585449,36.7482026 72.4439272,37.8825129 72.4439272,37.8825129 C73.2536299,38.6961983 72.4439272,39.6130733 72.4439272,39.6130733 C70.9348303,41.0197112 70.8804502,42.5863707 70.8804502,42.5863707 C70.9892104,44.3708534 74.6024892,40.1542371 74.6024892,40.1542371 C77.3536205,36.2615431 79.7811803,36.8554655 79.7811803,36.8554655 C81.9925742,36.8034828 81.3998115,40.1542371 81.3998115,40.1542371 L84.148814,37.6127069 C85.1201089,36.2615431 86.5218002,36.6940862 86.5218002,36.6940862 C89.5440579,37.4507457 87.2782838,41.1805086 87.2782838,41.1805086 C86.6857146,42.6959612 88.1419796,42.0989353 88.1419796,42.0989353 C89.1659129,40.6407026 91.5932791,38.3689784 91.5932791,38.3689784 C95.4753622,34.8023405 97.4175648,35.6682026 97.4175648,35.6682026 C98.9287905,35.9907672 97.6321825,37.1809397 97.6321825,37.1809397 C96.8797628,38.2615216 97.4175648,40.2081595 97.4175648,40.2081595 L102.865447,40.2624698 L101.247203,42.1555733 L96.6632099,42.0987414 C95.908468,43.720681 93.7499059,43.720875 93.7499059,43.720875 C91.1096637,43.4512629 90.8913691,41.2897112 90.8913691,41.2897112 C90.4588439,41.2340431 88.94936,42.911069 88.94936,42.911069 C87.924072,44.2622328 84.903556,43.2344095 84.903556,43.2344095 C83.28686,42.7483319 84.3127285,40.1542371 84.3127285,40.1542371 C83.8254361,39.7215 81.3998115,42.5316724 81.3998115,42.5316724 C80.0503716,44.5330086 78.3227866,43.720875 78.3227866,43.720875 C76.2735654,43.1250129 77.5154062,40.6408966 77.5154062,40.6408966 C78.2686,39.3969957 78.0555305,39.074431 78.0555305,39.074431 C76.9210953,39.7215 74.9260607,42.2081379 74.9260607,42.2081379 C70.825683,46.2086767 68.1308671,43.1277284 68.1308671,43.1277284 C66.8365814,41.1805086 69.8021368,38.6407241 69.8021368,38.6407241 C69.1548004,38.1538707 68.5620377,38.6961983 68.5620377,38.6961983 C66.7289823,42.0459828 63.3848948,41.7216724 63.3848948,41.7216724 C62.4666254,43.3445819 60.255425,44.0463491 60.255425,44.0463491 C54.5404801,45.5596681 55.8877913,40.9107026 55.8877913,40.9107026 C54.4293976,41.3432457 54.2147799,40.85775 54.2147799,40.85775 C54.1056326,41.2350129 53.0818929,41.3971681 53.0818929,41.3971681 C53.0818929,41.3971681 50.9254596,44.3167371 48.4435197,44.3708534 C45.9633214,44.4234181 45.2612179,42.9657672 45.6395565,40.5324698 C46.0157663,38.1003362 49.2526417,33.3408103 49.2526417,33.3408103 C48.7670911,33.6121681 48.2287085,33.2350991 48.2287085,33.2350991 C47.7961833,32.3164784 50.7089067,31.1265 50.7089067,31.1265 C53.0296415,30.0994526 52.2727708,31.6131595 52.2727708,31.6131595 L50.4401024,36.6938922 Z M48.7670911,40.1542371 C47.7961833,43.1250129 48.9288768,43.3977284 48.9288768,43.3977284 C50.0071902,43.3426422 50.8708859,41.3434397 50.8708859,41.3434397 C51.141819,40.2636336 49.952423,38.9105302 49.952423,38.9105302 C49.2526417,38.7474052 48.7670911,40.1542371 48.7670911,40.1542371 L48.7670911,40.1542371 Z M59.3373491,39.7215 C57.7206531,43.9924267 59.8227063,43.0193017 59.8227063,43.0193017 C61.4432727,42.0459828 61.4430792,40.8022759 61.4430792,40.8022759 C61.4955241,40.0458103 60.6339571,38.7474052 60.6339571,38.7474052 C60.0410009,38.3687845 59.3371556,39.7215 59.3373491,39.7215 L59.3373491,39.7215 Z M94.3976294,37.9928793 C94.3976294,37.9928793 92.5096133,38.5315216 92.4554267,40.1542371 C92.4554267,40.1542371 93.3715673,40.6408966 94.1282445,39.9920819 C94.1282445,39.9918879 94.4537512,38.4775991 94.3976294,37.9928793 L94.3976294,37.9928793 Z" id="Fill-7"></path>
            </g>
        </g>
    </g>
</svg>