<?xml version="1.0" encoding="UTF-8" standalone="no"?>
<svg width="76px" height="15px" viewBox="0 0 76 15" version="1.1" xmlns="http://www.w3.org/2000/svg" xmlns:xlink="http://www.w3.org/1999/xlink">
    <!-- Generator: Sketch 47.1 (45422) - http://www.bohemiancoding.com/sketch -->
    <title>Artboard 7</title>
    <desc>Created with Sketch.</desc>
    <defs>
        <polygon id="path-1" points="2.01661923 1.78366054 2.01661923 0.0510541905 0.283331596 0.0510541905 0.283331596 1.78366054 2.01661923 1.78366054"></polygon>
    </defs>
    <g id="Page-1" stroke="none" stroke-width="1" fill="none" fill-rule="evenodd">
        <g id="Artboard-7">
            <g id="santander" transform="translate(2.000000, 1.000000)">
                <g id="Logo_Santander">
                    <path d="M7.3202086,0.608732867 C7.3202086,2.18719729 10.0019375,3.93896493 10.0019375,5.74097772 C10.0019375,5.74097772 10.0019375,5.91428094 9.92912457,6.10078415 C12.4384018,6.62197122 14.2161437,7.85382921 14.2161437,9.29475816 C14.2161437,11.233029 11.0464406,12.823416 7.11965377,12.8357644 C7.094957,12.8481128 7.07026022,12.8357644 7.04513764,12.8357644 C3.15624755,12.8357644 0.00017032257,11.2951967 0.00017032257,9.37012589 C0.00017032257,7.92749372 1.92609279,6.7599325 4.24929265,6.13825512 C4.24929265,6.93366152 6.8965312,9.45613879 6.95869894,10.4750936 C6.95869894,10.4750936 6.97019571,10.5623839 6.97019571,10.6620226 C6.97019571,10.7118419 6.97019571,10.7608097 6.95869894,10.8110548 C7.53055697,10.5117129 7.53055697,9.57962265 7.53055697,9.57962265 C7.53055697,7.36883569 4.95655712,6.38735188 4.95655712,4.21190685 C4.95655712,3.36795851 5.35511194,2.74628113 5.71662159,2.57170049 L5.71662159,3.18102949 C5.71662159,4.75821649 8.49798917,6.52403574 8.49798917,7.96539049 L8.49798917,8.43675821 C9.14564075,8.18893887 9.14564075,7.00860345 9.14564075,7.00860345 C9.14564075,5.02051325 6.56142154,3.91384235 6.56142154,1.64003603 C6.56142154,0.795661888 6.95869894,0.173558699 7.3202086,-0.00017032257 L7.3202086,0.608732867 Z" id="Fill-1" fill="#E62227"></path>
                    <path d="M19.869022,12.2271593 C18.5132544,12.2271593 17.5343254,11.8413786 17.5343254,11.8413786 L17.5343254,9.49305621 L17.867306,9.49305621 C18.0418867,10.736411 18.9858995,11.6795722 20.0665962,11.6795722 C21.1489962,11.6795722 21.9065058,11.0834432 21.9065058,10.1385788 C21.9065058,9.13324978 20.9003252,8.67423045 20.2284027,8.33784337 L19.2605447,7.85370147 C18.340377,7.39340472 17.5935125,6.64781767 17.5935125,5.60459192 C17.5935125,4.29949523 18.564777,3.18175336 20.4149059,3.18175336 C21.6829574,3.18175336 22.7257574,3.60415333 22.7257574,3.60415333 L22.7257574,5.70295321 L22.3897961,5.70295321 C22.1926477,4.58521134 21.5696929,3.70251462 20.3033446,3.70251462 C19.3589059,3.70251462 18.8002479,4.34931458 18.8002479,5.00761131 C18.8002479,5.86561126 19.3959511,6.25011447 20.0929962,6.59842412 L21.06128,7.08299184 C21.9418477,7.53008858 23.0374477,8.27695306 23.0374477,9.54330137 C23.0374477,11.1575335 21.9167251,12.2271593 19.869022,12.2271593" id="Fill-3" fill="#E62227"></path>
                    <path d="M26.1296965,9.66691297 C25.8699546,9.77890006 25.4100836,9.99010005 25.4100836,10.5883581 C25.4100836,10.9111193 25.5957352,11.4314548 26.2425352,11.4314548 C26.5516707,11.4314548 26.9881223,11.2581516 27.2993868,11.0082032 L27.2993868,9.17084849 L26.1296965,9.66691297 Z M25.6225611,12.1770419 C24.7756321,12.1770419 24.2293224,11.6183838 24.2293224,10.7855065 C24.2293224,10.1893775 24.6653482,9.7286549 25.6225611,9.38162267 L27.2993868,8.77271948 L27.2993868,8.2511066 C27.2993868,7.46804859 26.9374513,6.98433249 26.3907158,6.98433249 C26.0189868,6.98433249 25.6472578,7.1704099 25.4607546,7.46804859 C25.3870901,7.58003568 25.3721869,7.74226793 25.3721869,7.86575179 C25.3721869,8.07695178 25.5092965,8.32562273 25.5092965,8.32562273 L24.690045,8.69905497 C24.5912579,8.52362272 24.4660708,8.2638808 24.4660708,8.00286146 C24.4660708,7.9526163 24.4792708,7.90322275 24.4792708,7.86575179 C24.5405869,7.41780343 24.9255159,7.12016474 25.4471288,6.81060347 C25.9580965,6.49891316 26.3907158,6.41204865 26.7036836,6.41204865 C28.2706512,6.41204865 28.5410383,7.654126 28.5410383,8.06460339 L28.5410383,10.6364742 C28.5410383,11.0461 28.576806,11.3079709 28.9144705,11.3079709 C29.014535,11.3079709 29.076277,11.3079709 29.2133866,11.2581516 L29.5114511,11.1576613 L29.5114511,11.5310935 L27.7720319,12.1770419 C27.5093093,11.9905386 27.3871029,11.655429 27.3364319,11.3705645 C26.9255287,11.7180225 26.2182642,12.1770419 25.6225611,12.1770419 L25.6225611,12.1770419 Z" id="Fill-5" fill="#E62227"></path>
                    <path d="M29.8966782,12.0529193 L29.8966782,11.7548548 L30.3054524,11.6807645 C30.5545491,11.6305193 30.728704,11.4444419 30.728704,11.1966226 L30.728704,7.87788727 C30.728704,7.59302277 30.5911685,7.44356472 30.343775,7.44356472 C30.2573363,7.44356472 30.1559943,7.4559131 30.057633,7.49253246 L29.8966782,7.555126 L29.8966782,7.18254538 L31.6850652,6.41226155 L31.9456587,6.41226155 L31.9456587,7.33115182 C32.4919684,6.72310024 33.13962,6.41226155 33.7089232,6.41226155 C34.9782521,6.41226155 35.5871553,7.31880343 35.5871553,8.37522918 L35.5871553,11.1966226 C35.5871553,11.4444419 35.7706779,11.6437193 36.0223295,11.6807645 L36.4438778,11.7548548 L36.4438778,12.0529193 L33.4883554,12.0529193 L33.4883554,11.7548548 L33.8967038,11.6807645 C34.1449489,11.6305193 34.3429489,11.4444419 34.3429489,11.1966226 L34.3429489,8.38757756 C34.3429489,8.01499694 34.2445876,7.18254538 33.249478,7.18254538 C32.70402,7.18254538 32.244149,7.51765504 31.9712071,7.76632599 L31.9712071,11.1966226 C31.9712071,11.4444419 32.1700587,11.6305193 32.4178781,11.6807645 L32.8287813,11.7548548 L32.8287813,12.0529193 L29.8966782,12.0529193 Z" id="Fill-7" fill="#E62227"></path>
                    <path d="M40.7314505,7.17028215 L38.9920312,7.17028215 L38.9920312,10.2509916 C38.9920312,10.9339852 39.3514118,11.3078432 39.8725989,11.3078432 C40.0829473,11.3078432 40.420186,11.2461013 40.7314505,11.0715206 L40.8681343,11.3704367 L39.7478376,12.0789786 C39.7478376,12.0789786 39.5251409,12.115598 39.4135796,12.115598 C38.3328829,12.115598 37.7465474,11.4824238 37.7465474,10.1385788 L37.7465474,7.17028215 L36.841283,7.17028215 L36.841283,6.85859185 C36.841283,6.85859185 38.2085474,6.33740478 38.7408054,5.05743067 L38.9920312,5.05743067 L38.9920312,6.63546928 L40.9541472,6.63546928 L40.7314505,7.17028215 Z" id="Fill-9" fill="#E62227"></path>
                    <path d="M43.3374284,9.66691297 C43.0772607,9.77890006 42.6173897,9.99010005 42.6173897,10.5883581 C42.6173897,10.9111193 42.8009123,11.4314548 43.4502671,11.4314548 C43.7581251,11.4314548 44.1941509,11.2581516 44.5058412,11.0082032 L44.5058412,9.17084849 L43.3374284,9.66691297 Z M42.8268865,12.1770419 C41.9816607,12.1770419 41.4370543,11.6175322 41.4370543,10.7855065 C41.4370543,10.1893775 41.8713769,9.7286549 42.8268865,9.38162267 L44.5058412,8.77271948 L44.5058412,8.2511066 C44.5058412,7.46804859 44.145609,6.98433249 43.5967445,6.98433249 C43.2237381,6.98433249 42.8532865,7.1704099 42.6655058,7.46804859 C42.5922671,7.58003568 42.5790671,7.74226793 42.5790671,7.86575179 C42.5790671,8.07695178 42.7153252,8.32562273 42.7153252,8.32562273 L41.8969252,8.69905497 C41.7960091,8.52362272 41.6725253,8.2638808 41.6725253,8.00286146 C41.6725253,7.9526163 41.684022,7.90322275 41.684022,7.86575179 C41.7470414,7.41780343 42.1319704,7.12016474 42.6552865,6.81060347 C43.1636994,6.49891316 43.5967445,6.41204865 43.9088606,6.41204865 C45.4754025,6.41204865 45.7466411,7.654126 45.7466411,8.06460339 L45.7466411,10.6364742 C45.7466411,11.0461 45.7862411,11.3079709 46.1196476,11.3079709 C46.2197121,11.3079709 46.2818798,11.3079709 46.4185637,11.2581516 L46.7162024,11.1576613 L46.7162024,11.5310935 L44.9776347,12.1770419 C44.7178928,11.9905386 44.5910025,11.655429 44.5424606,11.3705645 C44.1328348,11.7180225 43.4234413,12.1770419 42.8268865,12.1770419 L42.8268865,12.1770419 Z" id="Fill-11" fill="#E62227"></path>
                    <path d="M47.1015146,12.0529193 L47.1015146,11.7548548 L47.5115662,11.6807645 C47.7598113,11.6305193 47.9322629,11.4444419 47.9322629,11.1966226 L47.9322629,7.87788727 C47.9322629,7.59302277 47.7989855,7.44356472 47.5490372,7.44356472 C47.4621727,7.44356472 47.3612565,7.4559131 47.2645985,7.49253246 L47.1015146,7.555126 L47.1015146,7.18254538 L48.8928822,6.41226155 L49.1521984,6.41226155 L49.1521984,7.33115182 C49.6959532,6.72310024 50.3448822,6.41226155 50.917166,6.41226155 C52.1830885,6.41226155 52.7924175,7.31880343 52.7924175,8.37522918 L52.7924175,11.1966226 C52.7924175,11.4444419 52.9780691,11.6437193 53.2284433,11.6807645 L53.6508433,11.7548548 L53.6508433,12.0529193 L50.692766,12.0529193 L50.692766,11.7548548 L51.104095,11.6807645 C51.3510627,11.6305193 51.5494885,11.4444419 51.5494885,11.1966226 L51.5494885,8.38757756 C51.5494885,8.01499694 51.4502756,7.18254538 50.4568693,7.18254538 C49.9101338,7.18254538 49.4502629,7.51765504 49.1773209,7.76632599 L49.1773209,11.1966226 C49.1773209,11.4444419 49.3757467,11.6305193 49.6239919,11.6807645 L50.0348951,11.7548548 L50.0348951,12.0529193 L47.1015146,12.0529193 Z" id="Fill-13" fill="#E62227"></path>
                    <path d="M57.3653656,6.93387443 C56.4707463,6.93387443 55.549727,7.50658407 55.549727,9.17063558 C55.549727,10.562171 56.2459205,11.4061193 57.3410946,11.4061193 C57.9989656,11.4061193 58.409443,11.0220419 58.5082301,10.8227645 L58.5082301,7.59302277 C58.3468494,7.18211957 57.8882559,6.93387443 57.3653656,6.93387443 M56.8050044,12.176829 C55.6391464,12.176829 54.2339852,11.307758 54.2339852,9.41845492 C54.2339852,7.76632599 55.5135335,6.41226155 57.2274043,6.41226155 C57.7996882,6.41226155 58.211443,6.52424864 58.5082301,6.64815831 L58.5082301,3.80206816 C58.5082301,3.50400366 58.3468494,3.41671334 58.1467204,3.41671334 C58.0364365,3.41671334 57.9121011,3.44141012 57.7996882,3.4797327 L57.5510172,3.56659721 L57.5510172,3.19273916 L59.4909913,2.37306179 L59.7498816,2.37306179 L59.7498816,10.562171 C59.7498816,11.0352419 59.8256751,11.307758 60.1612106,11.307758 C60.2612751,11.307758 60.3217396,11.307758 60.4588493,11.2583645 L60.7577654,11.1574484 L60.7577654,11.5313064 L59.0174945,12.176829 C58.7445526,11.9907515 58.6078688,11.6437193 58.5452752,11.3575774 C58.2233656,11.7054612 57.6383075,12.176829 56.8050044,12.176829" id="Fill-15" fill="#E62227"></path>
                    <path d="M65.1180232,8.33771563 L65.1180232,8.31216725 C65.1180232,7.38178021 64.5959845,6.93383184 63.9760104,6.93383184 C63.2798169,6.93383184 62.7573524,7.39327698 62.6078943,8.33771563 L65.1180232,8.33771563 Z M62.571275,8.84655431 L62.571275,8.90957366 C62.5606298,10.5625542 63.5050685,11.3941542 64.6824232,11.3941542 C65.2811071,11.3941542 65.8257135,11.1710316 66.2608877,10.8354961 L66.2608877,11.3324122 C65.7648232,11.7918574 65.0077394,12.1767864 64.0752233,12.1767864 C62.137804,12.1767864 61.2793783,10.723509 61.2793783,9.3430446 C61.2793783,7.72923825 62.5086814,6.41264478 64.0994942,6.41264478 C65.4054426,6.41264478 66.4231199,7.33110924 66.4231199,8.68559948 L66.4231199,8.84655431 L62.571275,8.84655431 Z" id="Fill-17" fill="#E62227"></path>
                    <path d="M67.1551663,12.0529193 L67.1551663,11.7548548 L67.5664953,11.6807645 C67.8028179,11.6305193 67.9884695,11.4444419 67.9884695,11.1966226 L67.9884695,7.87788727 C67.9884695,7.59302277 67.8522114,7.44356472 67.6035405,7.44356472 C67.5171018,7.44356472 67.4178889,7.4559131 67.3191018,7.49253246 L67.1551663,7.555126 L67.1551663,7.18254538 L68.9209856,6.41226155 L69.1811533,6.41226155 L69.1811533,7.61644213 C69.6295275,6.74779702 70.1643403,6.38628736 70.7728177,6.38628736 C71.2697338,6.38628736 71.3927919,6.51147445 71.3927919,6.51147445 L71.3927919,7.82891953 L71.1453983,7.82891953 C71.082379,7.48060988 70.846908,7.30688085 70.4747532,7.30688085 C70.0757726,7.30688085 69.5788565,7.41759053 69.2309726,8.138055 L69.2309726,11.1966226 C69.2309726,11.4444419 69.4796436,11.6437193 69.7176694,11.6807645 L70.3133726,11.7548548 L70.3133726,12.0529193 L67.1551663,12.0529193 Z" id="Fill-19" fill="#E62227"></path>
                    <g id="Group-23" transform="translate(71.109673, 4.750935)">
                        <mask id="mask-2" fill="white">
                            <use xlink:href="#path-1"></use>
                        </mask>
                        <g id="Clip-22"></g>
                        <path d="M1.76684119,0.306538046 C1.92907343,0.467918682 2.01678956,0.685079959 2.01678956,0.917570268 C2.01678956,1.15389283 1.92907343,1.36679605 1.76428635,1.52604765 C1.59268636,1.69253796 1.37509927,1.78366054 1.14899606,1.78366054 C0.918634784,1.78366054 0.702750926,1.69253796 0.537538032,1.52604765 C0.374028365,1.36126056 0.283331596,1.14665413 0.283331596,0.917570268 C0.283331596,0.687634798 0.375731591,0.467918682 0.545202548,0.298447724 C0.702750926,0.137067089 0.913950913,0.0510541905 1.14899606,0.0510541905 C1.38489282,0.0510541905 1.59864765,0.139621927 1.76684119,0.306538046 L1.76684119,0.306538046 Z M1.69360248,0.377647719 C1.54542184,0.231596115 1.35934444,0.154525152 1.14899606,0.154525152 C0.94290575,0.154525152 0.757254148,0.229467083 0.618441253,0.371686429 C0.468983198,0.520718679 0.387228364,0.714460603 0.387228364,0.917570268 C0.387228364,1.11727348 0.468983198,1.30633154 0.610776738,1.45366056 C0.757254148,1.60056378 0.947163815,1.67763474 1.14601542,1.67763474 C1.35125411,1.67763474 1.54116378,1.60056378 1.69232506,1.45366056 C1.83497021,1.31314444 1.9133186,1.12706703 1.9133186,0.923105751 C1.9133186,0.714460603 1.83582183,0.520718679 1.69360248,0.377647719 L1.69360248,0.377647719 Z M1.58417023,0.680821895 C1.58417023,0.81963479 1.49858314,0.9196993 1.35423476,0.944396073 L1.57480249,1.3970283 L1.3904283,1.3970283 L1.18050574,0.967815426 L0.971008974,0.967815426 L0.971008974,1.3970283 L0.806221887,1.3970283 L0.806221887,0.407454169 L1.17198961,0.407454169 C1.44748637,0.407454169 1.58417023,0.49431868 1.58417023,0.680821895 L1.58417023,0.680821895 Z M0.971008974,0.516034808 L0.971008974,0.860512207 L1.14601542,0.860512207 C1.32953799,0.860512207 1.41299604,0.81963479 1.41299604,0.692318668 C1.41299604,0.565002547 1.32613153,0.516034808 1.14005413,0.516034808 L0.971008974,0.516034808 Z" id="Fill-21" fill="#E62227" mask="url(#mask-2)"></path>
                    </g>
                </g>
            </g>
        </g>
    </g>
</svg>