<?xml version="1.0" encoding="UTF-8" standalone="no"?>
<svg width="136px" height="35px" viewBox="0 0 136 35" version="1.1" xmlns="http://www.w3.org/2000/svg" xmlns:xlink="http://www.w3.org/1999/xlink">
    <!-- Generator: Sketch 47.1 (45422) - http://www.bohemiancoding.com/sketch -->
    <title>Artboard</title>
    <desc>Created with Sketch.</desc>
    <defs>
        <polygon id="path-1" points="11.44196 23.2 0 23.2 0 0.3136 11.44196 0.3136 22.88392 0.3136 22.88392 23.2"></polygon>
    </defs>
    <g id="Page-1" stroke="none" stroke-width="1" fill="none" fill-rule="evenodd">
        <g id="Artboard">
            <g id="Logo_Scotiabank" transform="translate(4.000000, 5.000000)">
                <g id="Group-3" transform="translate(0.000000, 0.486320)">
                    <mask id="mask-2" fill="white">
                        <use xlink:href="#path-1"></use>
                    </mask>
                    <g id="Clip-2"></g>
                    <path d="M18.30152,11.7656 C18.38152,15.6784 14.84392,18.6328 11.88872,18.6328 L4.58312,18.6328 L-8e-05,23.2 L11.80952,23.2 C15.57992,23.2 19.19592,19.8064 19.19592,15.7576 C19.19592,14.5688 19.05192,13.0184 18.30152,11.8456 L18.30152,11.7656 Z M17.04872,14.6488 C17.50392,13.8344 17.72632,12.9392 17.78312,12.0688 L14.46872,12.0688 C14.46872,12.8752 14.33272,13.7544 14.02952,14.6488 L17.04872,14.6488 Z M13.81432,15.1592 C13.43912,16.1168 12.54472,17.3624 11.67352,18.0424 C13.35832,18.0424 15.28312,17.3064 16.68872,15.1592 L13.81432,15.1592 Z M13.43912,14.6488 C13.73432,13.8344 13.87112,12.9392 13.94952,12.0688 L8.93512,12.0688 C9.01512,12.9392 9.15032,13.8344 9.44552,14.6488 L13.43912,14.6488 Z M8.87112,14.6488 C8.57592,13.7544 8.41592,12.8752 8.41592,12.0688 L5.10152,12.0688 C5.18152,12.9392 5.39752,13.8344 5.83672,14.6488 L8.87112,14.6488 Z M11.45032,17.5216 C12.10472,16.9312 12.83992,15.9736 13.21592,15.1592 L9.67112,15.1592 C10.04552,15.9736 10.77992,16.9312 11.45032,17.5216 L11.45032,17.5216 Z M6.13272,15.1592 C7.60152,17.3064 9.52472,18.0424 11.23592,18.0424 C10.34072,17.3624 9.38952,16.1168 9.08712,15.1592 L6.13272,15.1592 Z M14.02952,8.9704 C14.33272,9.7616 14.46872,10.656 14.46872,11.5496 L17.78312,11.5496 C17.72632,10.656 17.50392,9.7616 17.04872,8.9704 L14.02952,8.9704 Z M16.68872,8.3712 C15.28312,6.312 13.35832,5.4968 11.67352,5.4968 C12.54472,6.1512 13.43912,7.3976 13.81432,8.3712 L16.68872,8.3712 Z M9.44552,8.9704 C9.15032,9.7616 9.01512,10.656 8.93512,11.5496 L13.94952,11.5496 C13.87112,10.656 13.73432,9.7616 13.43912,8.9704 L9.44552,8.9704 Z M5.83672,8.9704 C5.39752,9.7616 5.18152,10.656 5.10152,11.5496 L8.41592,11.5496 C8.41592,10.656 8.57592,9.7616 8.87112,8.9704 L5.83672,8.9704 Z M11.45032,6.072 C10.77992,6.664 10.04552,7.5576 9.67112,8.3712 L13.21592,8.3712 C12.83992,7.5576 12.10472,6.664 11.45032,6.072 L11.45032,6.072 Z M9.08712,8.3712 C9.38952,7.3976 10.34072,6.1512 11.23592,5.4968 C9.52472,5.4968 7.60152,6.312 6.13272,8.3712 L9.08712,8.3712 Z M4.58312,11.6856 C3.84872,10.52 3.68872,8.9704 3.68872,7.7808 C3.68872,3.732 7.30552,0.3136 11.07512,0.3136 L22.88392,0.3136 L18.30152,4.9376 L10.99352,4.9376 C8.05512,4.9376 4.50392,7.916 4.58312,11.6856 L4.58312,11.6856 Z" id="Fill-1" fill="#EC1C24" mask="url(#mask-2)"></path>
                </g>
                <path d="M90.60392,13.78944 C90.60392,12.57664 89.91032,11.50064 88.70872,11.50064 C87.64952,11.50064 86.79672,12.40544 86.79672,13.78944 C86.79672,15.13024 87.49592,16.08464 88.70872,16.08464 C89.80392,16.08464 90.60392,15.17344 90.60392,13.78944 L90.60392,13.78944 Z M68.37432,4.68384 C67.40232,4.68384 66.60392,5.48144 66.60392,6.45424 C66.60392,7.42464 67.40232,8.22304 68.37432,8.22304 C69.34632,8.22304 70.14472,7.42464 70.14472,6.45424 C70.14472,5.48144 69.34632,4.68384 68.37432,4.68384 L68.37432,4.68384 Z M107.33432,18.32704 L110.40072,18.32704 L110.40072,13.64704 C110.40072,12.54864 111.12712,11.79984 112.05672,11.79984 C113.11912,11.79984 113.72152,12.48944 113.72152,13.64704 L113.72152,18.32704 L116.78792,18.32704 L116.78792,12.87024 C116.78792,10.81824 115.46712,9.06064 113.04072,9.06064 C111.42072,9.06064 110.57752,9.94064 110.19272,10.28704 L110.12792,10.28704 L110.09752,9.28384 L107.33432,9.28384 L107.33432,18.32704 Z M118.72392,18.32864 L121.86792,18.32864 L121.86792,14.13504 L121.90232,14.13504 L124.69352,18.32864 L128.18952,18.32864 L124.82232,13.52544 L128.10632,9.27904 L124.61272,9.27904 L121.90232,13.01424 L121.86792,13.01424 L121.86792,5.55424 L118.72392,5.55424 L118.72392,18.32864 Z M46.75752,9.40624 C46.52152,9.33984 45.65672,9.04304 44.50872,9.04304 C41.67112,9.04304 39.54232,10.81984 39.54232,13.77824 C39.54232,16.46944 41.45352,18.51584 44.38312,18.51584 C45.63032,18.51584 46.54792,18.18304 46.75752,18.12064 L46.60392,15.47824 C46.36152,15.58784 45.73272,15.94704 45.00792,15.94704 C43.73672,15.94704 42.80792,15.04704 42.80792,13.77824 C42.80792,12.44864 43.80152,11.59104 45.04552,11.59104 C45.74632,11.59104 46.37032,11.91824 46.60392,12.03344 L46.75752,9.40624 Z M74.70232,13.70544 C74.70232,15.20224 75.53912,16.13984 76.62152,16.13984 C77.60232,16.13984 78.55832,15.22064 78.55832,13.82864 C78.55832,12.42544 77.71192,11.46464 76.62152,11.46464 C75.49352,11.46464 74.70232,12.47024 74.70232,13.70544 L74.70232,13.70544 Z M98.33112,13.70064 C98.33112,15.19904 99.16712,16.13504 100.25112,16.13504 C101.23032,16.13504 102.18712,15.21584 102.18712,13.82384 C102.18712,12.41904 101.34072,11.45904 100.25112,11.45904 C99.12312,11.45904 98.33112,12.46624 98.33112,13.70064 L98.33112,13.70064 Z M29.42552,17.99104 C30.30632,18.25824 31.64552,18.50384 33.06632,18.50384 C35.75592,18.50384 38.44072,17.55024 38.44072,14.59744 C38.44072,10.54464 32.85272,11.10544 32.85272,9.49024 C32.85272,8.66304 33.71032,8.48544 34.55352,8.48544 C35.72072,8.48544 37.19832,9.04464 37.52632,9.17904 L37.77992,6.38704 C36.96552,6.10944 35.72632,5.95264 34.56312,5.95264 C31.90952,5.95264 29.28872,6.98864 29.28872,9.61984 C29.28872,13.60224 34.86232,12.77024 34.86232,14.85984 C34.86232,15.66304 34.05912,15.96944 33.03592,15.96944 C31.62952,15.96944 30.30632,15.26464 29.73432,15.00944 L29.42552,17.99104 Z M65.26632,15.85824 C65.11032,15.90064 64.68632,16.00944 64.39432,16.00944 C63.75432,16.00944 63.05672,15.71104 63.05672,14.60384 L63.05672,11.54064 L65.03992,11.54064 L65.03992,9.26304 L63.05672,9.26304 L63.05672,6.34544 L59.90632,6.34544 L59.90632,9.26304 L58.52632,9.26304 L58.52632,11.54064 L59.90632,11.54064 L59.90632,15.12384 C59.90632,17.09424 60.82072,18.50784 63.15272,18.50784 C63.82872,18.50784 64.45032,18.41744 64.87832,18.33664 L65.26632,15.85824 Z M52.82712,16.24544 C54.10792,16.24544 54.85912,15.12384 54.85912,13.78624 C54.85912,12.43024 54.14392,11.30784 52.82712,11.30784 C51.45272,11.30784 50.79352,12.43024 50.79352,13.78624 C50.79352,15.12384 51.54872,16.24544 52.82712,16.24544 L52.82712,16.24544 Z M83.69992,18.31904 L83.69992,5.54224 L86.84552,5.54224 L86.84552,9.92064 L86.87992,9.92064 C87.10232,9.78304 88.12072,9.05264 89.61592,9.05264 C92.06632,9.05264 93.86552,11.02064 93.86552,13.62704 C93.86552,16.88144 91.87112,18.52224 89.59672,18.52224 C87.87672,18.52224 87.00392,17.72224 86.78792,17.48784 L86.73832,17.48784 L86.69192,18.31904 L83.69992,18.31904 Z M66.79432,18.34064 L69.95272,18.34064 L69.95272,9.27344 L66.79432,9.27344 L66.79432,18.34064 Z M81.66712,9.26624 L81.66712,18.32704 L78.60392,18.32704 L78.55912,17.41264 L78.49272,17.41264 C78.15352,17.71904 77.44712,18.52704 75.47272,18.52704 C73.28392,18.52704 71.36552,16.62384 71.36552,13.78944 C71.36552,11.15664 73.06632,9.05584 75.67512,9.05584 C77.44712,9.05584 78.17352,9.83744 78.44472,10.08704 L78.52552,10.08704 L78.55592,9.26624 L81.66712,9.26624 Z M105.29592,9.26224 L105.29592,18.32224 L102.23432,18.32224 L102.18792,17.40784 L102.12152,17.40784 C101.78152,17.71424 101.07512,18.52224 99.10152,18.52224 C96.91272,18.52224 94.99352,16.62064 94.99352,13.78304 C94.99352,11.15184 96.69512,9.05104 99.30392,9.05104 C101.07672,9.05104 101.80152,9.83264 102.07352,10.08224 L102.15432,10.08224 L102.18632,9.26224 L105.29592,9.26224 Z M52.82712,18.51264 C49.75832,18.51264 47.55992,16.66944 47.55992,13.78624 C47.55992,10.93664 49.83832,9.04224 52.82712,9.04224 C55.81752,9.04224 58.09192,10.92464 58.09192,13.78624 C58.09192,16.66944 55.87752,18.51264 52.82712,18.51264 L52.82712,18.51264 Z" id="Fill-4" fill="#EC1C24"></path>
            </g>
        </g>
    </g>
</svg>