<svg id="Layer_1" data-name="Layer 1" xmlns="http://www.w3.org/2000/svg" xmlns:xlink="http://www.w3.org/1999/xlink" viewBox="0 0 331.72 15.03"><defs><style>.cls-1,.cls-11,.cls-2{fill:none;}.cls-2{clip-rule:evenodd;}.cls-3{clip-path:url(#clip-path);}.cls-4{clip-path:url(#clip-path-2);}.cls-5{fill:#b5d6ef;}.cls-6{clip-path:url(#clip-path-3);}.cls-7{clip-path:url(#clip-path-4);}.cls-8{clip-path:url(#clip-path-5);}.cls-9{clip-path:url(#clip-path-6);}.cls-10{fill:#7ab5e2;}.cls-11{stroke:#fff;stroke-miterlimit:10;stroke-width:4px;}</style><clipPath id="clip-path"><path class="cls-1" d="M323.68,1.37a.91.91,0,0,0-1.35-.1,1.13,1.13,0,0,0-.09,1.45l3.07,3.77H4.32a1,1,0,0,0,0,2.05h321l-3.07,3.77a1.14,1.14,0,0,0,.09,1.45.92.92,0,0,0,1.35-.1l4.45-5.47a1.11,1.11,0,0,0,0-1.35Z"/></clipPath><clipPath id="clip-path-2"><rect class="cls-1" x="1.36" y="1.02" width="327" height="15"/></clipPath><clipPath id="clip-path-3"><circle class="cls-1" cx="165.42" cy="7.5" r="7.5"/></clipPath><clipPath id="clip-path-4"><rect class="cls-1" x="0.92" width="327" height="15"/></clipPath><clipPath id="clip-path-5"><path class="cls-2" d="M165.42,12a4.5,4.5,0,1,1,4.5-4.5A4.5,4.5,0,0,1,165.42,12Zm0,2a6.5,6.5,0,1,0-6.5-6.5A6.5,6.5,0,0,0,165.42,14Zm-26.5-33h53V34h-53Z"/></clipPath><clipPath id="clip-path-6"><circle class="cls-1" cx="165.42" cy="7.5" r="5.5"/></clipPath></defs><title>Artboard 1 copy</title><g class="cls-3"><g class="cls-4"><rect class="cls-5" x="-1.64" y="-3.98" width="335" height="23"/></g></g><g class="cls-6"><g class="cls-7"><rect class="cls-5" x="152.92" y="-5" width="25" height="25"/></g></g><g class="cls-8"><g class="cls-9"><g class="cls-7"><circle class="cls-10" cx="165.42" cy="7.5" r="5.5"/></g></g></g><g class="cls-9"><g class="cls-7"><circle class="cls-11" cx="165.42" cy="7.5" r="5.5"/></g></g></svg>