<?xml version="1.0" encoding="UTF-8" standalone="no"?>
<svg width="69px" height="38px" viewBox="0 0 69 38" version="1.1" xmlns="http://www.w3.org/2000/svg" xmlns:xlink="http://www.w3.org/1999/xlink">
    <!-- Generator: Sketch 47.1 (45422) - http://www.bohemiancoding.com/sketch -->
    <title>Artboard</title>
    <desc>Created with Sketch.</desc>
    <defs></defs>
    <g id="Page-1" stroke="none" stroke-width="1" fill="none" fill-rule="evenodd">
        <g id="Artboard" fill-rule="nonzero" fill="#B5D6EF">
            <path d="M23.7075285,4.36591851 C22.8043664,5.11064159 22.7985768,6.30579524 23.5041006,7.06080195 C24.2096176,7.81580229 25.590342,7.9057204 26.4021306,7.24951544 L33.9512929,1.10447459 L33.9512929,43.0908469 C33.9512929,44.145237 34.8705029,45 36.004323,45 C37.1382116,45 38.0573532,44.145237 38.0573532,43.0908469 L38.0573532,1.10447459 L45.6065161,7.24951544 C46.4183047,7.9057204 47.7786425,7.79893866 48.5045461,7.06080195 C49.2650158,6.28755071 49.1131463,5.02186256 48.3011182,4.36591851 L37.351624,-4.54339481 C36.4543609,-5.16889525 35.4424976,-5.13527619 34.657022,-4.54339481 L23.7075285,4.36591851 Z" id="Shape" transform="translate(36.000000, 20.000000) rotate(90.000000) translate(-36.000000, -20.000000) "></path>
        </g>
    </g>
</svg>