<svg id="Layer_1" data-name="Layer 1" xmlns="http://www.w3.org/2000/svg" xmlns:xlink="http://www.w3.org/1999/xlink" viewBox="0 0 344.03 21"><defs><style>.cls-1,.cls-11,.cls-2{fill:none;}.cls-2{clip-rule:evenodd;}.cls-3{clip-path:url(#clip-path);}.cls-4{clip-path:url(#clip-path-2);}.cls-5{fill:#b5d6ef;}.cls-6{clip-path:url(#clip-path-3);}.cls-7{clip-path:url(#clip-path-5);}.cls-8{clip-path:url(#clip-path-7);}.cls-9{clip-path:url(#clip-path-8);}.cls-10{fill:#7ab5e2;}.cls-11{stroke:#fff;stroke-miterlimit:10;stroke-width:4px;}.cls-12{clip-path:url(#clip-path-12);}.cls-13{clip-path:url(#clip-path-13);}</style><clipPath id="clip-path"><path class="cls-1" d="M329.83,3.35a.91.91,0,0,0-1.35-.1,1.13,1.13,0,0,0-.09,1.45l3.07,3.77h-321a1,1,0,0,0,0,2.05h321l-3.07,3.77a1.14,1.14,0,0,0,.09,1.45.92.92,0,0,0,1.35-.1l4.45-5.47a1.11,1.11,0,0,0,0-1.35Z"/></clipPath><clipPath id="clip-path-2"><rect class="cls-1" x="7.52" y="3" width="327" height="15"/></clipPath><clipPath id="clip-path-3"><circle class="cls-1" cx="102.02" cy="10.5" r="7.5"/></clipPath><clipPath id="clip-path-5"><circle class="cls-1" cx="236.02" cy="10.5" r="7.5"/></clipPath><clipPath id="clip-path-7"><path class="cls-2" d="M102,15a4.5,4.5,0,1,1,4.5-4.5A4.5,4.5,0,0,1,102,15Zm0,2a6.5,6.5,0,1,0-6.5-6.5A6.5,6.5,0,0,0,102,17ZM75.52-16h53V37h-53Z"/></clipPath><clipPath id="clip-path-8"><circle class="cls-1" cx="102.02" cy="10.5" r="5.5"/></clipPath><clipPath id="clip-path-12"><path class="cls-2" d="M236,15a4.5,4.5,0,1,1,4.5-4.5A4.5,4.5,0,0,1,236,15Zm0,2a6.5,6.5,0,1,0-6.5-6.5A6.5,6.5,0,0,0,236,17Zm-26.5-33h53V37h-53Z"/></clipPath><clipPath id="clip-path-13"><circle class="cls-1" cx="236.02" cy="10.5" r="5.5"/></clipPath></defs><title>Artboard 3</title><g class="cls-3"><g class="cls-4"><rect class="cls-5" x="4.52" y="-2" width="335" height="23"/></g></g><g class="cls-6"><g class="cls-4"><rect class="cls-5" x="89.52" y="-2" width="25" height="25"/></g></g><g class="cls-7"><g class="cls-4"><rect class="cls-5" x="223.52" y="-2" width="25" height="25"/></g></g><g class="cls-8"><g class="cls-9"><g class="cls-4"><circle class="cls-10" cx="102.02" cy="10.5" r="5.5"/></g></g></g><g class="cls-9"><g class="cls-4"><circle class="cls-11" cx="102.02" cy="10.5" r="5.5"/></g></g><g class="cls-12"><g class="cls-13"><g class="cls-4"><circle class="cls-10" cx="236.02" cy="10.5" r="5.5"/></g></g></g><g class="cls-13"><g class="cls-4"><circle class="cls-11" cx="236.02" cy="10.5" r="5.5"/></g></g></svg>