<?xml version="1.0" encoding="utf-8"?>
<!-- Generator: Adobe Illustrator 16.0.0, SVG Export Plug-In . SVG Version: 6.00 Build 0)  -->
<!DOCTYPE svg PUBLIC "-//W3C//DTD SVG 1.1//EN" "http://www.w3.org/Graphics/SVG/1.1/DTD/svg11.dtd">
<svg version="1.1" id="Layer_1" xmlns="http://www.w3.org/2000/svg" xmlns:xlink="http://www.w3.org/1999/xlink" x="0px" y="0px"
	 width="23.458px" height="13.374px" viewBox="0 0 23.458 13.374" enable-background="new 0 0 23.458 13.374" xml:space="preserve">
<g>
	<g>
		<path fill="#D1D3D4" d="M140.854,22.551h28.934c1.072,0,1.824-0.246,2.303-0.75c0.641-0.68,0.588-1.598,0.549-2.336
			c-0.012-0.184-0.02-0.355-0.02-0.52V2.928c0-1.623-2.326-4.947-2.35-4.979c0.006,0.006,0.01,0.012,0.016,0.023
			c-0.096-0.152-0.527-1.037-0.984-1.977c-3.361-6.891-5.713-11.295-7.051-11.965c-1.844-0.922-14.612-0.932-15.155-0.932
			c-5.305,0-5.62,0.189-5.829,0.314c-0.492,0.295-0.79,0.475-0.498,8.514c0.119,3.27,0.3,6.541,0.347,7.361
			c-0.66,1.463-1.023,3.877-1.023,5.059v17.438C140.091,22.207,140.433,22.551,140.854,22.551z M144.169,5.555
			c0-0.762,0.617-1.379,1.379-1.379h3.443c0.762,0,1.379,0.617,1.379,1.379s-0.617,1.375-1.379,1.375h-3.443
			C144.787,6.93,144.169,6.316,144.169,5.555z M142.253-15.262c0.611-0.051,2.057-0.113,4.842-0.113
			c7.009,0,13.638,0.354,14.474,0.771c0.113,0.061,0.797,0.557,2.879,4.393c1.27,2.34,2.602,5.07,3.48,6.877
			c0.813,1.66,0.996,2.033,1.121,2.199c0.014,0.018,0.027,0.037,0.043,0.059h-26.47C142.278-7.117,142.067-13.625,142.253-15.262z"
			/>
	</g>
</g>
<g>
	<g>
		<path id="Suitcase_3_14_" fill="#6CADDF" d="M91.529,25.556v-1.436h7.004v1.436H91.529z M101.792,31.416
			c1.02,0,1.848,0.828,1.848,1.848v15.152H86.423V33.263c0-1.02,0.828-1.848,1.846-1.848H101.792z M98.017,35.058
			c0-0.631-1.336-1.143-2.986-1.143s-2.986,0.512-2.986,1.143s1.336,1.143,2.986,1.143S98.017,35.689,98.017,35.058z M90.005,18.537
			h10.461c0.469,0,0.846,0.26,0.846,0.582v5.855c0,0.32,0.377,0.582,0.844,0.582l0,0c0.469,0,0.848-0.262,0.848-0.582V18.24
			c0-0.73-0.859-1.324-1.924-1.324H89.392c-1.059,0-1.92,0.594-1.92,1.324v6.734c0,0.32,0.377,0.582,0.846,0.582l0,0
			c0.465,0,0.844-0.262,0.844-0.582v-5.855C89.162,18.796,89.539,18.537,90.005,18.537z M85.248,48.416V33.263
			c0-1.666,1.355-3.021,3.021-3.021h13.523c1.668,0,3.023,1.355,3.023,3.021v15.152h2.965V30.134c0-1.898-1.551-3.445-3.449-3.445
			H85.73c-1.898,0-3.447,1.547-3.447,3.445v18.281H85.248z M102.75,61.634c0,0.512,0.422,0.934,0.934,0.934h0.383
			c0.512,0,0.934-0.422,0.934-0.934v-0.934h-2.25V61.634z M82.283,49.896v6.227c0,1.898,1.549,3.445,3.447,3.445h18.602
			c1.898,0,3.449-1.547,3.449-3.445v-6.227H82.283z M85.064,61.634c0,0.512,0.422,0.934,0.934,0.934h0.381
			c0.514,0,0.934-0.422,0.934-0.934v-0.934h-2.248V61.634z"/>
	</g>
	<rect x="83.945" y="29.128" fill="#6CADDF" width="22.633" height="19.291"/>
</g>
<g>
	<path fill="#6CADDF" d="M184.827,30.971c0-3.844-2.422-5.408-10.059-5.41c-7.898-0.002-10.051,2.041-10.051,5.41
		c0,0.135,0.008,0.256,0.02,0.369c-0.012,0.088-0.02,0.174-0.02,0.264v15.484c0,1.047,0.848,1.895,1.895,1.895
		s1.896-0.848,1.896-1.895V32.551c0.041-0.406,0.283-0.422,0.311,0.541v11.281v0.082V67.92c0,1.594,1.289,2.883,2.883,2.883
		s2.883-1.289,2.883-2.883V48.248h0.369V67.92c0,1.594,1.291,2.883,2.881,2.883c1.594,0,2.887-1.289,2.887-2.883V44.455v-0.082
		V32.471c0.082-0.24,0.277-0.217,0.277,0.34c0,0.092,0.012,0.178,0.035,0.256v14.021c0,1.047,0.852,1.895,1.898,1.895
		s1.895-0.848,1.895-1.895V31.604c0-0.084-0.008-0.166-0.016-0.248C184.819,31.232,184.827,31.105,184.827,30.971z"/>
	<circle fill="#6CADDF" cx="174.301" cy="19.438" r="5.425"/>
</g>
<g>
	<circle fill="#6CADDF" stroke="#6CADDF" stroke-miterlimit="10" cx="233.845" cy="44.996" r="16.157"/>
	
		<line fill="#FFFFFF" stroke="#FFFFFF" stroke-width="0.5" stroke-miterlimit="10" x1="233.844" y1="27.734" x2="233.844" y2="62.416"/>
	<text transform="matrix(1.026 0 0 1 219.1411 47.1709)" fill="#FFFFFF" font-family="'Gotham-Medium'" font-size="16.1731">A</text>
	<text transform="matrix(1.026 0 0 1 234.8013 54.2666)" fill="#FFFFFF" font-family="'Gotham-Medium'" font-size="16.1731">C</text>
</g>
<g>
	<g>
		
			<line fill="#6CADDF" stroke="#6CADDF" stroke-width="2" stroke-miterlimit="10" x1="278.271" y1="47.31" x2="301.617" y2="47.31"/>
		
			<line fill="#6CADDF" stroke="#6CADDF" stroke-width="2" stroke-miterlimit="10" x1="278.564" y1="35.091" x2="278.564" y2="60.56"/>
		
			<line fill="#6CADDF" stroke="#6CADDF" stroke-width="2" stroke-miterlimit="10" x1="288.648" y1="35.046" x2="288.648" y2="60.517"/>
		
			<line fill="#6CADDF" stroke="#6CADDF" stroke-width="2" stroke-miterlimit="10" x1="298.332" y1="47.103" x2="298.343" y2="35.05"/>
	</g>
	<ellipse fill="#6CADDF" stroke="#6CADDF" stroke-miterlimit="10" cx="278.566" cy="35.318" rx="2.346" ry="1.545"/>
	<path fill="#6CADDF" stroke="#6CADDF" stroke-miterlimit="10" d="M280.947,60.166c0,0.855-1.051,1.547-2.348,1.547
		c-1.293,0-2.348-0.691-2.348-1.547c0-0.852,1.055-1.543,2.348-1.543C279.896,58.623,280.947,59.314,280.947,60.166z"/>
	<ellipse fill="#6CADDF" stroke="#6CADDF" stroke-miterlimit="10" cx="288.651" cy="60.166" rx="2.345" ry="1.547"/>
	<path fill="#6CADDF" stroke="#6CADDF" stroke-miterlimit="10" d="M290.992,35.318c0,0.852-1.051,1.545-2.348,1.545
		c-1.293,0-2.346-0.693-2.346-1.545c0-0.854,1.053-1.547,2.346-1.547C289.941,33.771,290.992,34.464,290.992,35.318z"/>
	<ellipse fill="#6CADDF" stroke="#6CADDF" stroke-miterlimit="10" cx="298.355" cy="35.318" rx="2.348" ry="1.545"/>
</g>
<g>
	<g>
		<path fill="#D1D3D4" d="M92.376,128.346h28.934c1.072,0,1.824-0.246,2.303-0.75c0.641-0.68,0.588-1.598,0.549-2.336
			c-0.012-0.184-0.02-0.355-0.02-0.52v-16.018c0-1.623-2.326-4.947-2.35-4.979c0.006,0.006,0.01,0.012,0.016,0.023
			c-0.096-0.152-0.527-1.037-0.984-1.977c-3.361-6.891-5.713-11.295-7.051-11.965c-1.844-0.922-14.612-0.932-15.155-0.932
			c-5.305,0-5.62,0.189-5.829,0.314c-0.492,0.295-0.79,0.475-0.498,8.514c0.119,3.27,0.3,6.541,0.347,7.361
			c-0.66,1.463-1.023,3.877-1.023,5.059v17.438C91.614,128.002,91.956,128.346,92.376,128.346z M95.692,111.35
			c0-0.762,0.617-1.379,1.379-1.379h3.443c0.762,0,1.379,0.617,1.379,1.379s-0.617,1.375-1.379,1.375h-3.443
			C96.309,112.725,95.692,112.112,95.692,111.35z M93.776,90.534c0.611-0.051,2.057-0.113,4.842-0.113
			c7.009,0,13.638,0.354,14.474,0.771c0.113,0.061,0.797,0.557,2.879,4.393c1.27,2.34,2.602,5.07,3.48,6.877
			c0.813,1.66,0.996,2.033,1.121,2.199c0.014,0.018,0.027,0.037,0.043,0.059h-26.47C93.8,98.678,93.589,92.17,93.776,90.534z"/>
	</g>
</g>
<g>
	<g>
		<path id="Suitcase_3_1_" fill="#D1D3D4" d="M175.469,94.435V93h7.004v1.436H175.469z M185.733,100.294
			c1.02,0,1.848,0.828,1.848,1.848v15.152h-17.217v-15.152c0-1.02,0.828-1.848,1.846-1.848H185.733z M181.958,103.937
			c0-0.631-1.336-1.143-2.986-1.143s-2.986,0.512-2.986,1.143s1.336,1.143,2.986,1.143S181.958,104.568,181.958,103.937z
			 M173.946,87.416h10.461c0.469,0,0.846,0.26,0.846,0.582v5.855c0,0.32,0.377,0.582,0.844,0.582l0,0
			c0.469,0,0.848-0.262,0.848-0.582v-6.734c0-0.73-0.859-1.324-1.924-1.324h-11.688c-1.059,0-1.92,0.594-1.92,1.324v6.734
			c0,0.32,0.377,0.582,0.846,0.582l0,0c0.465,0,0.844-0.262,0.844-0.582v-5.855C173.102,87.675,173.479,87.416,173.946,87.416z
			 M169.188,117.294v-15.152c0-1.666,1.355-3.021,3.021-3.021h13.523c1.668,0,3.023,1.355,3.023,3.021v15.152h2.965V99.013
			c0-1.898-1.551-3.445-3.449-3.445H169.67c-1.898,0-3.447,1.547-3.447,3.445v18.281H169.188z M186.69,130.513
			c0,0.512,0.422,0.934,0.934,0.934h0.383c0.512,0,0.934-0.422,0.934-0.934v-0.934h-2.25V130.513z M166.223,118.775v6.227
			c0,1.898,1.549,3.445,3.447,3.445h18.602c1.898,0,3.449-1.547,3.449-3.445v-6.227H166.223z M169.004,130.513
			c0,0.512,0.422,0.934,0.934,0.934h0.381c0.514,0,0.934-0.422,0.934-0.934v-0.934h-2.248V130.513z"/>
	</g>
	<rect x="167.885" y="98.007" fill="#D1D3D4" width="22.633" height="19.291"/>
</g>
<g>
	<path fill="#D1D3D4" d="M260.1,97.183c0-3.844-2.422-5.408-10.059-5.41c-7.898-0.002-10.051,2.041-10.051,5.41
		c0,0.135,0.008,0.256,0.02,0.369c-0.012,0.088-0.02,0.174-0.02,0.264V113.3c0,1.047,0.848,1.895,1.895,1.895
		s1.896-0.848,1.896-1.895V98.763c0.041-0.406,0.283-0.422,0.311,0.541v11.281v0.082v23.465c0,1.594,1.289,2.883,2.883,2.883
		s2.883-1.289,2.883-2.883V114.46h0.369v19.672c0,1.594,1.291,2.883,2.881,2.883c1.594,0,2.887-1.289,2.887-2.883v-23.465v-0.082
		V98.683c0.082-0.24,0.277-0.217,0.277,0.34c0,0.092,0.012,0.178,0.035,0.256V113.3c0,1.047,0.852,1.895,1.898,1.895
		s1.895-0.848,1.895-1.895V97.816c0-0.084-0.008-0.166-0.016-0.248C260.092,97.445,260.1,97.318,260.1,97.183z"/>
	<circle fill="#D1D3D4" cx="249.575" cy="85.651" r="5.425"/>
</g>
<g>
	<circle fill="#D1D3D4" stroke="#D1D3D4" stroke-miterlimit="10" cx="321.119" cy="108.542" r="16.157"/>
	
		<line fill="#FFFFFF" stroke="#FFFFFF" stroke-width="0.5" stroke-miterlimit="10" x1="321.118" y1="91.28" x2="321.118" y2="125.961"/>
	<text transform="matrix(1.026 0 0 1 306.4146 110.7163)" fill="#FFFFFF" font-family="'Gotham-Medium'" font-size="16.1731">A</text>
	<text transform="matrix(1.026 0 0 1 322.0747 117.812)" fill="#FFFFFF" font-family="'Gotham-Medium'" font-size="16.1731">C</text>
</g>
<g>
	<g>
		
			<line fill="#D1D3D4" stroke="#D1D3D4" stroke-width="2" stroke-miterlimit="10" x1="381.543" y1="108.189" x2="404.889" y2="108.189"/>
		
			<line fill="#D1D3D4" stroke="#D1D3D4" stroke-width="2" stroke-miterlimit="10" x1="381.836" y1="95.97" x2="381.836" y2="121.439"/>
		
			<line fill="#D1D3D4" stroke="#D1D3D4" stroke-width="2" stroke-miterlimit="10" x1="391.92" y1="95.925" x2="391.92" y2="121.396"/>
		
			<line fill="#D1D3D4" stroke="#D1D3D4" stroke-width="2" stroke-miterlimit="10" x1="401.604" y1="107.982" x2="401.616" y2="95.929"/>
	</g>
	<ellipse fill="#D1D3D4" stroke="#D1D3D4" stroke-miterlimit="10" cx="381.838" cy="96.197" rx="2.346" ry="1.545"/>
	<path fill="#D1D3D4" stroke="#D1D3D4" stroke-miterlimit="10" d="M384.219,121.044c0,0.855-1.051,1.547-2.348,1.547
		c-1.293,0-2.348-0.691-2.348-1.547c0-0.852,1.055-1.543,2.348-1.543C383.168,119.501,384.219,120.193,384.219,121.044z"/>
	<ellipse fill="#D1D3D4" stroke="#D1D3D4" stroke-miterlimit="10" cx="391.923" cy="121.044" rx="2.345" ry="1.547"/>
	<path fill="#D1D3D4" stroke="#D1D3D4" stroke-miterlimit="10" d="M394.264,96.197c0,0.852-1.051,1.545-2.348,1.545
		c-1.293,0-2.346-0.693-2.346-1.545c0-0.854,1.053-1.547,2.346-1.547C393.213,94.65,394.264,95.343,394.264,96.197z"/>
	<ellipse fill="#D1D3D4" stroke="#D1D3D4" stroke-miterlimit="10" cx="401.627" cy="96.197" rx="2.348" ry="1.545"/>
</g>
<g>
	<line fill="#58B84E" stroke="#58B84E" stroke-width="2" stroke-miterlimit="10" x1="1.304" y1="1.849" x2="11.999" y2="12.013"/>
	<line fill="#58B84E" stroke="#58B84E" stroke-width="2" stroke-miterlimit="10" x1="21.379" y1="1.8" x2="10.699" y2="12.007"/>
</g>
<g>
	<line fill="#58B84E" stroke="#58B84E" stroke-width="2" stroke-miterlimit="10" x1="36.345" y1="15.714" x2="47.041" y2="5.55"/>
	<line fill="#58B84E" stroke="#58B84E" stroke-width="2" stroke-miterlimit="10" x1="56.42" y1="15.763" x2="45.741" y2="5.556"/>
</g>
</svg>
