<svg id="Layer_1" data-name="Layer 1" xmlns="http://www.w3.org/2000/svg" xmlns:xlink="http://www.w3.org/1999/xlink" viewBox="0 0 331.72 15.03"><defs><style>.cls-1{fill:none;}.cls-2{clip-path:url(#clip-path);}.cls-3{clip-path:url(#clip-path-2);}.cls-4{fill:#b5d6ef;}</style><clipPath id="clip-path"><path class="cls-1" d="M323.68,1.37a.91.91,0,0,0-1.35-.1,1.13,1.13,0,0,0-.09,1.45l3.07,3.77H4.32a1,1,0,0,0,0,2.05h321l-3.07,3.77a1.14,1.14,0,0,0,.09,1.45.92.92,0,0,0,1.35-.1l4.45-5.47a1.11,1.11,0,0,0,0-1.35Z"/></clipPath><clipPath id="clip-path-2"><rect class="cls-1" x="1.36" y="1.02" width="327" height="15"/></clipPath></defs><title>Artboard 1 copy 2</title><g class="cls-2"><g class="cls-3"><rect class="cls-4" x="-1.64" y="-3.98" width="335" height="23"/></g></g></svg>