<?xml version="1.0" encoding="UTF-8" standalone="no"?>
<svg width="77px" height="65px" viewBox="0 0 77 65" version="1.1" xmlns="http://www.w3.org/2000/svg" xmlns:xlink="http://www.w3.org/1999/xlink">
    <!-- Generator: Sketch 47.1 (45422) - http://www.bohemiancoding.com/sketch -->
    <title>Artboard</title>
    <desc>Created with Sketch.</desc>
    <defs></defs>
    <g id="Page-1" stroke="none" stroke-width="1" fill="none" fill-rule="evenodd">
        <g id="Artboard" fill-rule="nonzero" fill="#1B4298">
            <g id="clubinterjet" transform="translate(2.000000, 4.000000)">
                <path d="M57.9845238,24.3547619 L44.5452381,34.1345238 L49.6559524,49.9083333 C49.9083333,50.7916667 49.6559524,51.675 48.8988095,52.2428571 C48.5202381,52.4952381 48.0785714,52.6214286 47.7,52.6214286 C47.2583333,52.6214286 46.8166667,52.4952381 46.5011905,52.2428571 L33.0619048,42.4630952 L19.622619,52.2428571 C18.8654762,52.747619 17.9190476,52.747619 17.1619048,52.2428571 C16.4678571,51.7380952 16.152381,50.7916667 16.4047619,49.9083333 L21.5154762,34.1345238 L8.07619048,24.3547619 C7.31904762,23.85 7.06666667,22.9035714 7.31904762,22.0202381 C7.57142857,21.1369048 8.39166667,20.5690476 9.275,20.5690476 L25.8690476,20.5690476 L30.9797619,4.7952381 C31.2321429,3.91190476 32.052381,3.34404762 32.9357143,3.34404762 C33.8190476,3.34404762 34.6392857,3.91190476 34.8916667,4.7952381 L40.002381,20.5690476 L56.7857143,20.5690476 C57.6690476,20.5690476 58.4892857,21.1369048 58.7416667,22.0202381 C58.9940476,22.9035714 58.6785714,23.85 57.9845238,24.3547619" id="Shape"></path>
                <path d="M71.1083333,36.847619 L67.0702381,39.8130952 L68.5845238,44.5452381 C68.647619,44.797619 68.5845238,45.1130952 68.3321429,45.2392857 C68.2059524,45.302381 68.0797619,45.3654762 67.9535714,45.3654762 C67.827381,45.3654762 67.7011905,45.302381 67.575,45.2392857 L63.5369048,42.2738095 L59.4988095,45.2392857 C59.3095238,45.4285714 58.9940476,45.4285714 58.7416667,45.2392857 C58.552381,45.05 58.4261905,44.797619 58.4892857,44.5452381 L60.0035714,39.8130952 L55.9654762,36.847619 C55.7761905,36.6583333 55.65,36.4059524 55.7130952,36.1535714 C55.7761905,35.9011905 56.0285714,35.7119048 56.2809524,35.7119048 L61.2654762,35.7119048 L62.7797619,30.9797619 C62.8428571,30.727381 63.0952381,30.5380952 63.347619,30.5380952 C63.6,30.5380952 63.852381,30.727381 63.9154762,30.9797619 L65.4297619,35.7119048 L70.4142857,35.7119048 C70.6666667,35.7119048 70.9190476,35.9011905 70.9821429,36.1535714 C71.4238095,36.4059524 71.297619,36.7214286 71.1083333,36.847619" id="Shape"></path>
                <path d="M13.8178571,5.74166667 L10.2845238,8.32857143 L11.6095238,12.4928571 C11.672619,12.7452381 11.6095238,12.9345238 11.4202381,13.1238095 C11.2940476,13.1869048 11.2309524,13.25 11.1047619,13.25 C10.9785714,13.25 10.852381,13.1869048 10.7892857,13.1238095 L7.25595238,10.5369048 L3.72261905,13.1238095 C3.53333333,13.25 3.28095238,13.25 3.09166667,13.1238095 C2.90238095,12.997619 2.83928571,12.7452381 2.90238095,12.4928571 L4.22738095,8.32857143 L0.694047619,5.74166667 C0.504761905,5.61547619 0.441666667,5.36309524 0.504761905,5.11071429 C0.567857143,4.85833333 0.757142857,4.73214286 1.00952381,4.73214286 L5.36309524,4.73214286 L6.68809524,0.567857143 C6.75119048,0.31547619 6.94047619,0.189285714 7.19285714,0.189285714 C7.4452381,0.189285714 7.63452381,0.31547619 7.69761905,0.567857143 L9.02261905,4.73214286 L13.3761905,4.73214286 C13.6285714,4.73214286 13.8178571,4.85833333 13.8809524,5.11071429 C14.1333333,5.36309524 14.0071429,5.61547619 13.8178571,5.74166667" id="Shape"></path>
            </g>
        </g>
    </g>
</svg>