<?xml version="1.0" encoding="UTF-8" standalone="no"?>
<svg width="54px" height="47px" viewBox="0 0 54 47" version="1.1" xmlns="http://www.w3.org/2000/svg" xmlns:xlink="http://www.w3.org/1999/xlink">
    <!-- Generator: Sketch 47.1 (45422) - http://www.bohemiancoding.com/sketch -->
    <title>Artboard</title>
    <desc>Created with Sketch.</desc>
    <defs></defs>
    <g id="Page-1" stroke="none" stroke-width="1" fill="none" fill-rule="evenodd">
        <g id="Artboard" fill-rule="nonzero" fill="#F5A623">
            <path d="M26.8645672,1.00245251 C25.8752501,1.04534385 24.9774775,1.57123307 24.4848187,2.39644036 L1.38384579,40.8370362 C0.869527422,41.698006 0.872232756,42.7570898 1.39094344,43.6156249 C1.90965413,44.4741599 2.86563257,45.001825 3.89902715,44.9999953 L50.1009729,44.9999953 C51.1343675,45.001825 52.0903459,44.4741599 52.6090566,43.6156248 C53.1277672,42.7570898 53.1304726,41.698006 52.6161542,40.8370362 L29.4958338,2.39644036 C28.9583408,1.49646805 27.9437662,0.958968475 26.8645672,1.00245251 L26.8645672,1.00245251 Z M27,13.2239837 C28.3677138,13.2239837 29.4764862,14.3183607 29.4764862,15.6682899 L28.8573647,26.6676985 C28.8573647,27.6801302 28.0257854,28.5009282 27,28.5009282 C25.9742085,28.5009282 25.1426354,27.6801302 25.1426354,26.6676985 L24.5235138,15.6682899 C24.5235138,14.3183607 25.63228,13.2239837 27,13.2239837 Z M27,31.556311 C28.7096547,31.556311 30.0956078,32.924267 30.0956078,34.6116938 C30.0956078,36.2991206 28.7096547,37.6670766 27,37.6670766 C25.2903454,37.6670766 23.9043923,36.2991206 23.9043923,34.6116938 C23.9043923,32.924267 25.2903454,31.556311 27,31.556311 Z" id="ico_warning"></path>
        </g>
    </g>
</svg>