<?xml version="1.0" encoding="UTF-8" standalone="no"?>
<svg width="54px" height="54px" viewBox="0 0 54 54" version="1.1" xmlns="http://www.w3.org/2000/svg" xmlns:xlink="http://www.w3.org/1999/xlink">
    <!-- Generator: Sketch 47.1 (45422) - http://www.bohemiancoding.com/sketch -->
    <title>Artboard</title>
    <desc>Created with Sketch.</desc>
    <defs></defs>
    <g id="Page-1" stroke="none" stroke-width="1" fill="none" fill-rule="evenodd">
        <g id="Artboard">
            <g id="Icn_Alert_Error" transform="translate(2.000000, 2.000000)">
                <g id="Group">
                    <circle id="Oval-3" stroke="#F50029" stroke-width="2" cx="25" cy="25" r="25"></circle>
                    <path d="M36.2705196,13.3402025 L25.3816228,24.1663283 L14.7855614,13.30589 C14.388833,12.8988185 13.7435764,12.8982986 13.3453201,13.3027707 C12.9465545,13.7077626 12.9450267,14.3664594 13.3422644,14.773011 L23.9220288,25.6173327 L13.3076334,36.1694781 C12.9053029,36.5703109 12.8961359,37.2290077 13.2887901,37.6402382 C13.4884275,37.8492328 13.7532527,37.9542499 14.0185871,37.9542499 C14.2747545,37.9542499 14.5314312,37.8565112 14.7295407,37.6594741 L25.360233,27.0906924 L35.7052198,37.6937866 C35.9043479,37.8981022 36.1656081,38 36.4268683,38 C36.6871099,38 36.9468423,37.8991419 37.1454611,37.6969059 C37.5442267,37.291914 37.5457545,36.6332172 37.1485168,36.2266656 L26.8193177,25.6396879 C26.8193177,25.6396879 32.7261951,19.7670973 35.6796337,16.830802 C36.350395,16.1639342 37.6919176,14.8301985 37.6919176,14.8301985 C38.0947574,14.4293657 38.1039244,13.7706689 37.7112702,13.3594384 C37.318616,12.9476879 36.6733594,12.9393697 36.2705196,13.3402025 Z" id="Icn_Close" fill="#F50029"></path>
                </g>
            </g>
        </g>
    </g>
</svg>