<?xml version="1.0" encoding="UTF-8" standalone="no"?>
<svg width="48px" height="42px" viewBox="0 0 48 42" version="1.1" xmlns="http://www.w3.org/2000/svg" xmlns:xlink="http://www.w3.org/1999/xlink">
    <!-- Generator: Sketch 47.1 (45422) - http://www.bohemiancoding.com/sketch -->
    <title>Artboard</title>
    <desc>Created with Sketch.</desc>
    <defs></defs>
    <g id="Page-1" stroke="none" stroke-width="1" fill="none" fill-rule="evenodd">
        <g id="Artboard" fill-rule="nonzero" fill="#FFFFFF">
            <g id="Chat-icon" transform="translate(1.000000, 1.000000)">
                <path d="M35.2,14.640279 C35.2,6.61173888 27.2,0 17.6,0 C8,0 0,6.61173888 0,14.640279 C0,18.654549 2.05714286,22.4326855 5.48571429,25.2662879 L5.71428571,33.294828 C5.71428571,33.767095 6.4,34.0032286 6.62857143,33.767095 L13.2571429,28.5721573 C14.6285714,28.8082909 16.2285714,29.0444244 17.6,29.0444244 C27.2,29.2805579 35.2,22.668819 35.2,14.640279 Z M36.5714286,9.6814748 C42.0571429,11.8066766 45.9428571,16.5293472 46.1714286,22.196552 C46.1714286,25.9746885 44.3428571,29.2805579 41.1428571,31.8780268 L40.9142857,39.1981662 C40.9142857,39.6704333 40.4571429,39.9065668 40,39.6704333 L34.0571429,34.9477627 C32.6857143,35.1838962 31.3142857,35.4200297 29.9428571,35.4200297 C25.6,35.4200297 21.7142857,34.0032286 18.7428571,31.6418932 C18.7428571,31.6418932 18.9714286,31.6418932 18.9714286,31.6418932 C24,31.6418932 28.8,29.9889585 32.2285714,27.1553561 C35.6571429,24.0856202 37.9428571,20.0713502 37.9428571,15.5848131 C37.9428571,13.4596113 37.4857143,11.570543 36.5714286,9.6814748 Z M17.6,15.8209466 C16.3376349,15.8209466 15.3142857,14.7637408 15.3142857,13.4596113 C15.3142857,12.1554818 16.3376349,11.098276 17.6,11.098276 C18.8623651,11.098276 19.8857143,12.1554818 19.8857143,13.4596113 C19.8857143,14.7637408 18.8623651,15.8209466 17.6,15.8209466 Z M10.7428571,15.8209466 C9.480492,15.8209466 8.45714286,14.7637408 8.45714286,13.4596113 C8.45714286,12.1554818 9.480492,11.098276 10.7428571,11.098276 C12.0052223,11.098276 13.0285714,12.1554818 13.0285714,13.4596113 C13.0285714,14.7637408 12.0052223,15.8209466 10.7428571,15.8209466 Z M24.4571429,15.8209466 C23.1947777,15.8209466 22.1714286,14.7637408 22.1714286,13.4596113 C22.1714286,12.1554818 23.1947777,11.098276 24.4571429,11.098276 C25.719508,11.098276 26.7428571,12.1554818 26.7428571,13.4596113 C26.7428571,14.7637408 25.719508,15.8209466 24.4571429,15.8209466 Z" id="Shape"></path>
            </g>
        </g>
    </g>
</svg>