<?xml version="1.0" encoding="UTF-8" standalone="no"?>
<svg width="32px" height="137px" viewBox="0 0 32 137" version="1.1" xmlns="http://www.w3.org/2000/svg" xmlns:xlink="http://www.w3.org/1999/xlink">
    <!-- Generator: Sketch 47.1 (45422) - http://www.bohemiancoding.com/sketch -->
    <title>Artboard</title>
    <desc>Created with Sketch.</desc>
    <defs></defs>
    <g id="Page-1" stroke="none" stroke-width="1" fill="none" fill-rule="evenodd">
        <g id="Artboard">
            <g id="Gestiona-tu-viaje" transform="translate(4.000000, 104.000000)">
                <path d="M2,0 L17.3333333,0 L24,6.52173913 L24,28 L24,28 C24,29.1045695 23.1045695,30 22,30 L2,30 L2,30 C0.8954305,30 1.3527075e-16,29.1045695 0,28 L0,2 L0,2 C-1.3527075e-16,0.8954305 0.8954305,2.02906125e-16 2,0 Z" id="Rectangle-12" fill="#1B4298"></path>
                <rect id="Rectangle-4" fill="#FFFFFF" x="2.66666667" y="8.18181818" width="17.3333333" height="2.72727273"></rect>
                <rect id="Rectangle-4-Copy-2" fill="#FFFFFF" x="2.66666667" y="15" width="17.3333333" height="2.72727273"></rect>
                <rect id="Rectangle-4-Copy-3" fill="#FFFFFF" x="2.66666667" y="21.8181818" width="17.3333333" height="2.72727273"></rect>
            </g>
            <g id="Group" transform="translate(1.000000, 50.000000)">
                <circle id="Oval-5" fill="#1B4298" cx="15" cy="15" r="15"></circle>
                <rect id="Rectangle-9" fill="#FFFFFF" x="14" y="6" width="2" height="12"></rect>
                <rect id="Rectangle-14" fill="#FFFFFF" x="14" y="16" width="8" height="2"></rect>
            </g>
            <g id="696f61d7a31edd36aa11414db3ba2854" transform="translate(0.000000, 1.000000)" fill-rule="nonzero" fill="#1B4298">
                <path d="M30,3 C30,0 27.2,0 27.2,0 L4.8,0 C4.8,0 2,0 2,3 L2,18 L29.9968575,18 L29.9968575,3 L30,3 Z" id="Shape"></path>
                <path d="M0,22 C0,24 1.41373329,24 1.41373329,24 L30.5405571,24 C30.5405571,24 32,24 32,22 C32,20 30.5405571,20 30.5405571,20 L1.41373329,20 C1.41373329,20 0,20 0,22 Z M12.3611876,21.0022472 L18.1793695,21.0022472 C18.1793695,21.0022472 18.9074584,21.0022472 18.9074584,22.0044944 C18.9074584,23.0067416 18.1793695,23.0067416 18.1793695,23.0067416 L12.3611876,23.0067416 C12.3611876,23.0067416 11.6330987,23.0067416 11.6330987,22.0044944 C11.6363636,21.0022472 12.3611876,21.0022472 12.3611876,21.0022472 Z" id="Shape"></path>
            </g>
        </g>
    </g>
</svg>