<?xml version="1.0" encoding="UTF-8" standalone="no"?>
<svg width="65px" height="50px" viewBox="0 0 65 50" version="1.1" xmlns="http://www.w3.org/2000/svg" xmlns:xlink="http://www.w3.org/1999/xlink">
    <!-- Generator: Sketch 47.1 (45422) - http://www.bohemiancoding.com/sketch -->
    <title>Artboard Copy</title>
    <desc>Created with Sketch.</desc>
    <defs></defs>
    <g id="Page-1" stroke="none" stroke-width="1" fill="none" fill-rule="evenodd">
        <g id="Artboard-Copy" fill-rule="nonzero" fill="#1B4298">
            <g id="Group-5-Copy-5" transform="translate(1.000000, 0.000000)">
                <path d="M9.50916867,11.9501704 L9.50916867,5.51588686 L9.21211231,5.51588686 L9.21211231,0.885662365 L19.2728697,0.885662365 L19.2728697,5.51588686 L18.9758133,5.51588686 L18.9758133,11.9501704 L9.50916867,11.9501704 Z M25.4939212,11.9501704 L20.4714967,11.9501704 L20.4714967,5.51588686 L20.1744403,5.51588686 L20.1744403,0.885662365 L21.0068711,0.885662365 L21.0068711,0 L7.39306277,0 L7.39306277,0.885662365 L8.31054168,0.885662365 L8.31054168,5.51588686 L8.01348532,5.51588686 L8.01348532,11.9501704 L3.67113934,11.9501704 C1.6520127,11.9501704 0,13.6021831 0,15.6213097 L0,43.7667113 C0,45.785838 1.6520127,47.4378507 3.67113934,47.4378507 L4.87833232,47.4378507 C4.87833232,48.852769 6.02556337,50 7.44048165,50 C8.85570587,50 10.002631,48.852769 10.002631,47.4378507 L18.6552005,47.4378507 C18.6552005,48.852769 19.8021256,50 21.2173498,50 C22.6322681,50 23.7794991,48.852769 23.7794991,47.4378507 L25.4939212,47.4378507 C27.5130478,47.4378507 29.1650605,45.785838 29.1650605,43.7667113 L29.1650605,15.6213097 C29.1650605,13.6021831 27.5130478,11.9501704 25.4939212,11.9501704 L25.4939212,11.9501704 Z" id="Shape"></path>
            </g>
            <g id="Group-5-Copy-6" transform="translate(34.000000, 0.000000)">
                <path d="M9.50916867,11.9501704 L9.50916867,5.51588686 L9.21211231,5.51588686 L9.21211231,0.885662365 L19.2728697,0.885662365 L19.2728697,5.51588686 L18.9758133,5.51588686 L18.9758133,11.9501704 L9.50916867,11.9501704 Z M25.4939212,11.9501704 L20.4714967,11.9501704 L20.4714967,5.51588686 L20.1744403,5.51588686 L20.1744403,0.885662365 L21.0068711,0.885662365 L21.0068711,0 L7.39306277,0 L7.39306277,0.885662365 L8.31054168,0.885662365 L8.31054168,5.51588686 L8.01348532,5.51588686 L8.01348532,11.9501704 L3.67113934,11.9501704 C1.6520127,11.9501704 0,13.6021831 0,15.6213097 L0,43.7667113 C0,45.785838 1.6520127,47.4378507 3.67113934,47.4378507 L4.87833232,47.4378507 C4.87833232,48.852769 6.02556337,50 7.44048165,50 C8.85570587,50 10.002631,48.852769 10.002631,47.4378507 L18.6552005,47.4378507 C18.6552005,48.852769 19.8021256,50 21.2173498,50 C22.6322681,50 23.7794991,48.852769 23.7794991,47.4378507 L25.4939212,47.4378507 C27.5130478,47.4378507 29.1650605,45.785838 29.1650605,43.7667113 L29.1650605,15.6213097 C29.1650605,13.6021831 27.5130478,11.9501704 25.4939212,11.9501704 L25.4939212,11.9501704 Z" id="Shape"></path>
            </g>
        </g>
    </g>
</svg>