<?xml version="1.0" encoding="UTF-8"?>
<svg width="21px" height="20px" viewBox="0 0 21 20" version="1.1" xmlns="http://www.w3.org/2000/svg" xmlns:xlink="http://www.w3.org/1999/xlink">
    <!-- Generator: Sketch 50.2 (55047) - http://www.bohemiancoding.com/sketch -->
    <title>Fill 1</title>
    <desc>Created with Sketch.</desc>
    <defs></defs>
    <g id="Page-1" stroke="none" stroke-width="1" fill="none" fill-rule="evenodd">
        <g id="Home" transform="translate(-1287.000000, -48.000000)" fill="#FFFFFF">
            <path d="M1306.14688,49.3957222 C1304.36868,47.6278018 1301.60373,47.5250158 1299.95915,49.1695928 C1298.92102,50.2077321 1298.58182,51.6775728 1298.91084,53.0754633 C1298.38653,52.9623986 1297.83159,52.8904484 1297.26616,52.8904484 C1296.70084,52.8904484 1296.15607,52.95212 1295.62158,53.0754633 C1295.9505,51.6775728 1295.60103,50.2077321 1294.57316,49.1695928 C1292.92859,47.5250158 1290.16364,47.6278018 1288.39572,49.3957222 C1286.6278,51.1636425 1286.52502,53.9285876 1288.16959,55.5731647 C1288.86854,56.2721099 1289.76278,56.6524184 1290.69813,56.7243686 C1290.08141,57.8241795 1289.72166,59.0884481 1289.72166,60.4452242 C1289.72166,64.6183384 1293.10332,68 1297.27644,68 C1301.44955,68 1304.83121,64.6183384 1304.83121,60.4452242 C1304.83121,59.0987267 1304.47146,57.8241795 1303.85475,56.7243686 C1304.7901,56.6421398 1305.68434,56.2618313 1306.38328,55.5731647 C1308.00741,53.9285876 1307.9148,51.1636425 1306.14688,49.3957222" id="Fill-1"></path>
        </g>
    </g>
</svg>