<?xml version="1.0" encoding="utf-8"?>
<!-- Generator: Adobe Illustrator 16.0.0, SVG Export Plug-In . SVG Version: 6.00 Build 0)  -->
<!DOCTYPE svg PUBLIC "-//W3C//DTD SVG 1.1//EN" "http://www.w3.org/Graphics/SVG/1.1/DTD/svg11.dtd">
<svg version="1.1" id="Layer_1" xmlns="http://www.w3.org/2000/svg" xmlns:xlink="http://www.w3.org/1999/xlink" x="0px" y="0px"
	 width="25px" height="25px" viewBox="15 15 25 25" enable-background="new 15 15 25 25" xml:space="preserve">
<title>Artboard</title>
<desc>Created with Sketch.</desc>
<g id="Page-1">
	<g id="Artboard">
		<g id="Icn_Alert_Error" transform="translate(2.000000, 2.000000)">
			<g id="Group">
				<path id="Icn_Close" fill="#F50029" d="M36.271,13.34L25.382,24.167L14.786,13.306c-0.397-0.407-1.042-0.407-1.44-0.003
					c-0.398,0.405-0.4,1.063-0.003,1.47l10.58,10.844L13.308,36.17c-0.402,0.4-0.412,1.059-0.019,1.471
					c0.2,0.209,0.465,0.313,0.73,0.313c0.256,0,0.513-0.098,0.711-0.294L25.36,27.091l10.345,10.603
					C35.904,37.898,36.166,38,36.427,38s0.521-0.101,0.719-0.303c0.399-0.405,0.4-1.064,0.003-1.471L26.819,25.64
					c0,0,5.907-5.873,8.86-8.809c0.671-0.667,2.012-2.001,2.012-2.001c0.403-0.401,0.412-1.06,0.02-1.471
					C37.318,12.948,36.674,12.939,36.271,13.34z"/>
			</g>
		</g>
	</g>
</g>
</svg>
