<?xml version="1.0" encoding="utf-8"?>
<!-- Generator: Adobe Illustrator 16.0.0, SVG Export Plug-In . SVG Version: 6.00 Build 0)  -->
<!DOCTYPE svg PUBLIC "-//W3C//DTD SVG 1.1//EN" "http://www.w3.org/Graphics/SVG/1.1/DTD/svg11.dtd">
<svg version="1.1" id="Layer_1" xmlns="http://www.w3.org/2000/svg" xmlns:xlink="http://www.w3.org/1999/xlink" x="0px" y="0px"
	 width="14.326px" height="14.811px" viewBox="0 0 14.326 14.811" enable-background="new 0 0 14.326 14.811" xml:space="preserve">
<g>
	<path fill="#333333" d="M12.337,9.438v3.383H1.989V9.438H0v4.378c0,0.548,0.445,0.994,0.996,0.994H13.33
		c0.55,0,0.996-0.445,0.996-0.994V9.438H12.337z"/>
	<path fill="#333333" d="M6.981,9.104L4.133,5.662c0,0-0.433-0.41,0.037-0.41s1.604,0,1.604,0s0-0.275,0-0.699
		c0-1.209,0-3.412,0-4.309c0,0-0.063-0.244,0.304-0.244c0.37,0,1.993,0,2.259,0c0.265,0,0.26,0.206,0.26,0.206
		c0,0.871,0,3.149,0,4.319c0,0.38,0,0.625,0,0.625s0.909,0,1.48,0c0.57,0,0.141,0.429,0.141,0.429S7.795,8.794,7.457,9.132
		C7.215,9.377,6.981,9.104,6.981,9.104z"/>
</g>
</svg>
