<?xml version="1.0" encoding="UTF-8" standalone="no"?>
<svg width="32px" height="32px" viewBox="0 0 32 32" version="1.1" xmlns="http://www.w3.org/2000/svg" xmlns:xlink="http://www.w3.org/1999/xlink">
    <!-- Generator: Sketch 47.1 (45422) - http://www.bohemiancoding.com/sketch -->
    <title>Shape</title>
    <desc>Created with Sketch.</desc>
    <defs></defs>
    <g id="Page-1" stroke="none" stroke-width="1" fill="none" fill-rule="evenodd">
        <path d="M16,0 C7.168,0 0,7.15885714 0,16 C0,24.832 7.168,32 16,32 C24.8411429,32 32,24.8411429 32,16 C32,7.168 24.8411429,0 16,0 Z M19.6886534,23.9530567 L19.2763075,25.8376187 C19.2475391,25.9502827 19.1708236,26.0629468 19.0941081,26.1039155 C19.0173926,26.1346421 18.9502665,26.1653686 18.9502665,26.1653686 C18.1639324,26.5033607 17.5597976,26.7286888 17.0803256,26.8618372 C16.5720853,27.0052278 16.1501499,27.0769231 15.7761617,27.0769231 C14.9610593,27.0769231 14.3185668,26.8311106 13.8774526,26.3394858 C13.4459277,25.8581031 13.2253706,25.2640563 13.2253706,24.5573456 C13.2253706,24.3217753 13.2445495,24.0759629 13.2829073,23.8301504 C13.321265,23.5945802 13.3692122,23.307799 13.4555172,22.9595647 L14.7500916,17.3775739 C14.8076283,17.0907927 14.8747544,16.7630428 14.932291,16.4250507 C14.9898276,16.1177851 15.018596,15.8514883 15.018596,15.6466446 C15.018596,15.503254 15.0090065,15.4008322 14.9994171,15.3188947 C14.9898276,15.2062307 14.8747544,15.0833244 14.7692705,15.0730823 C14.692555,15.0628401 14.5870711,15.0525979 14.452819,15.0525979 C14.3569246,15.0525979 14.1747252,15.0628401 13.8486842,15.1345354 C13.561001,15.1959885 13.3500333,15.2471994 13.2061917,15.277926 L12.4582154,15.4930118 C12.3527316,15.5237384 12.2856055,15.4520431 12.3143738,15.3393791 L12.6979514,13.5982076 C12.7267197,13.4855436 12.8034352,13.3728795 12.8705613,13.3319108 C12.9472769,13.3011843 13.0048135,13.2704577 13.0048135,13.2704577 C13.6664849,12.95295 14.2706196,12.7173797 14.8076283,12.5535047 C15.3734053,12.3896298 15.8145195,12.3076923 16.1597394,12.3076923 C16.9940207,12.3076923 17.6269237,12.5432626 18.0488591,13.0144031 C18.4516156,13.4753014 18.6625833,14.0795903 18.6625833,14.8170276 C18.6625833,15.001387 18.6434044,15.2369572 18.6050466,15.5442228 C18.5666889,15.8412461 18.5187417,16.1382695 18.4420262,16.4352929 L17.1378623,22.0070415 C17.0611467,22.3347914 16.9940207,22.6625413 16.9268946,22.9800491 C16.8693579,23.2668303 16.8501791,23.4921583 16.8501791,23.6662755 C16.8501791,24.0349941 16.9268946,24.1886269 16.9460735,24.2091113 C16.9844312,24.2398378 17.1282728,24.3422597 17.5789765,24.3422597 C17.6652815,24.3422597 17.8378914,24.3320175 18.1639324,24.2808066 C18.4707945,24.2295956 18.633815,24.1886269 18.7105305,24.1579004 L19.5448118,23.8301504 C19.6502956,23.7789395 19.7078323,23.8403926 19.6886534,23.9530567 Z M19.0094648,9.05719921 C18.5358802,9.57264957 17.9191189,9.84615385 17.2032352,9.84615385 C16.5424195,9.84615385 15.9366718,9.58316897 15.4630872,9.0887574 C15.0005163,8.60486522 14.7692308,8.03681788 14.7692308,7.41617357 C14.7692308,6.76397107 15.0005163,6.18540434 15.4630872,5.69099277 C15.9366718,5.1860618 16.531406,4.92307692 17.2032352,4.92307692 C17.9301325,4.92307692 18.5358802,5.16502301 19.0094648,5.64891519 C19.4610222,6.11176857 19.6923077,6.66929652 19.6923077,7.28994083 C19.6923077,7.96318212 19.4610222,8.55226824 19.0094648,9.05719921 Z" id="Shape" fill="#F1BA00" fill-rule="nonzero"></path>
    </g>
</svg>