<?xml version="1.0" encoding="UTF-8"?>
<svg width="20px" height="20px" viewBox="0 0 20 20" version="1.1" xmlns="http://www.w3.org/2000/svg" xmlns:xlink="http://www.w3.org/1999/xlink">
    <!-- Generator: Sketch 47.1 (45422) - http://www.bohemiancoding.com/sketch -->
    <title>info_2_ico copy</title>
    <desc>Created with Sketch.</desc>
    <defs></defs>
    <g id="Symbols" stroke="none" stroke-width="1" fill="none" fill-rule="evenodd">
        <g id="info_2_ico-copy">
            <circle id="Oval-6" fill="#FFFFFF" cx="10" cy="10" r="10"></circle>
            <g id="info_ico" transform="translate(5.000000, 0.000000)" fill="#7AB5E2">
                <path d="M3.848,10.236 C4.09866792,9.87333152 4.4639976,9.47333552 4.944,9.036 C5.29600176,8.7159984 5.55466584,8.44666776 5.72,8.228 C5.88533416,8.00933224 5.968,7.76133472 5.968,7.484 C5.968,7.08933136 5.81066824,6.77733448 5.496,6.548 C5.18133176,6.31866552 4.76266928,6.204 4.24,6.204 C3.73866416,6.204 3.29333528,6.30799896 2.904,6.516 C2.51466472,6.72400104 2.186668,7.0146648 1.92,7.388 L-0.016,6.252 C0.43200224,5.56932992 1.03732952,5.0413352 1.8,4.668 C2.56267048,4.2946648 3.46666144,4.108 4.512,4.108 C5.7386728,4.108 6.72266296,4.36933072 7.464,4.892 C8.20533704,5.41466928 8.576,6.13999536 8.576,7.068 C8.576,7.50533552 8.50400072,7.88933168 8.36,8.22 C8.21599928,8.55066832 8.04000104,8.83066552 7.832,9.06 C7.62399896,9.28933448 7.35466832,9.55333184 7.024,9.852 C6.62933136,10.2040018 6.34133424,10.4999988 6.16,10.74 C5.97866576,10.9800012 5.888,11.270665 5.888,11.612 L3.472,11.612 C3.472,11.0573306 3.59733208,10.5986685 3.848,10.236 Z M3.592,15.204 C3.2986652,14.9213319 3.152,14.5773354 3.152,14.172 C3.152,13.7666646 3.29599856,13.4280014 3.584,13.156 C3.87200144,12.8839986 4.23999776,12.748 4.688,12.748 C5.13600224,12.748 5.50399856,12.8839986 5.792,13.156 C6.08000144,13.4280014 6.224,13.7666646 6.224,14.172 C6.224,14.5773354 6.0773348,14.9213319 5.784,15.204 C5.4906652,15.4866681 5.12533552,15.628 4.688,15.628 C4.25066448,15.628 3.8853348,15.4866681 3.592,15.204 Z" id="?"></path>
            </g>
        </g>
    </g>
</svg>