<?xml version="1.0" encoding="UTF-8"?>
<svg width="137px" height="25px" viewBox="0 0 137 25" version="1.1" xmlns="http://www.w3.org/2000/svg" xmlns:xlink="http://www.w3.org/1999/xlink">
    <!-- Generator: Sketch 47.1 (45422) - http://www.bohemiancoding.com/sketch -->
    <title>logointerjet</title>
    <desc>Created with Sketch.</desc>
    <defs></defs>
    <g id="Page-1" stroke="none" stroke-width="1" fill="none" fill-rule="evenodd">
        <g id="LOGO" transform="translate(-53.000000, -628.000000)">
            <g id="logointerjet" transform="translate(53.000000, 628.000000)">
                <path d="M30.5144762,9.15321429 C30.5144762,8.36059524 30.7347143,7.71940476 31.1761429,7.23464286 C31.616619,6.74607143 32.1911429,6.50154762 32.896381,6.50154762 C33.601619,6.50154762 34.1737619,6.74607143 34.6168571,7.23464286 C35.0568571,7.71940476 35.2773333,8.36059524 35.2773333,9.15321429 L35.2773333,21.8717857 C35.2773333,22.665119 35.0568571,23.304881 34.6168571,23.7891667 C34.1737619,24.2746429 33.601619,24.5170238 32.896381,24.5170238 C32.1911429,24.5170238 31.616619,24.2746429 31.1761429,23.7891667 C30.7347143,23.304881 30.5144762,22.665119 30.5144762,21.8717857 L30.5144762,9.15321429 Z" id="Fill-1" fill="#FFFFFF"></path>
                <path d="M37.9398333,9.15321429 C37.9398333,8.36059524 38.1595952,7.71940476 38.6019762,7.23464286 C39.0443571,6.74607143 39.6179286,6.50154762 40.3265,6.50154762 C40.9455476,6.50154762 41.4460238,6.66083333 41.8195952,6.9727381 C42.1969762,7.28321429 42.4293571,7.71702381 42.519119,8.2727381 C42.9850714,7.63297619 43.5884048,7.1475 44.3315,6.81607143 C45.0729286,6.48630952 46.0103095,6.31916667 47.1417381,6.31916667 C48.073881,6.31916667 48.9429286,6.46488095 49.7526905,6.7522619 C50.5610238,7.03654762 51.2548333,7.45654762 51.8317381,8.0075 C52.4069762,8.55988095 52.8612619,9.23107143 53.1945952,10.0258333 C53.5262619,10.8203571 53.6917381,11.7265476 53.6917381,12.7379762 L53.6917381,21.8717857 C53.6917381,22.6672619 53.4736429,23.3067857 53.0307857,23.7891667 C52.5905476,24.2746429 52.0176905,24.5170238 51.3124524,24.5170238 C50.6045952,24.5170238 50.0334048,24.2746429 49.5915,23.7891667 C49.1510238,23.3067857 48.9305476,22.6672619 48.9305476,21.8717857 L48.9305476,13.5682143 C48.9305476,12.4420238 48.6219762,11.6158333 48.0112619,11.0860714 C47.394119,10.5544048 46.6531667,10.2894048 45.7824524,10.2894048 C44.7793571,10.2894048 44.013881,10.6046429 43.489119,11.2310714 C42.9643571,11.8622619 42.7017381,12.6403571 42.7017381,13.5682143 L42.7017381,21.8717857 C42.7017381,22.6672619 42.4812619,23.3067857 42.0410238,23.7891667 C41.5995952,24.2746429 41.0253095,24.5170238 40.3200714,24.5170238 C39.6155476,24.5170238 39.0410238,24.2746429 38.5998333,23.7891667 C38.1595952,23.304881 37.9398333,22.665119 37.9398333,21.8717857 L37.9398333,9.15321429 Z" id="Fill-3" fill="#FFFFFF"></path>
                <path d="M57.5146667,10.8480238 L56.4537143,10.8480238 C55.8127619,10.8480238 55.3022857,10.6644524 54.9270476,10.2894524 C54.5513333,9.91492857 54.3625238,9.4087381 54.3625238,8.77135714 C54.3625238,8.17921429 54.5637143,7.68230952 54.9615714,7.28921429 C55.3575238,6.89421429 55.8563333,6.69683333 56.4537143,6.69683333 L57.5146667,6.69683333 L57.5146667,3.84207143 C57.5146667,3.0485 57.7337143,2.4082619 58.1746667,1.92159524 C58.6158571,1.43611905 59.1877619,1.19040476 59.895619,1.19040476 C60.6010952,1.19040476 61.1739524,1.43611905 61.615381,1.92159524 C62.055381,2.4082619 62.2768095,3.0485 62.2768095,3.84207143 L62.2768095,6.69683333 L63.6370476,6.69683333 C64.2560952,6.69683333 64.7915714,6.85088095 65.2437143,7.15683333 C65.6972857,7.46469048 65.9260952,8.00135714 65.9260952,8.77135714 C65.9260952,9.5187381 65.6972857,10.0523095 65.2437143,10.3706429 C64.7915714,10.6896905 64.2560952,10.8480238 63.6370476,10.8480238 L62.2768095,10.8480238 L62.2768095,21.8718333 C62.2768095,22.6701667 62.055381,23.3099286 61.615381,23.7973095 C61.1739524,24.2842143 60.6010952,24.526119 59.895619,24.526119 C59.1877619,24.526119 58.6158571,24.2842143 58.1746667,23.7973095 C57.7337143,23.3099286 57.5146667,22.6701667 57.5146667,21.8718333 L57.5146667,10.8480238 Z" id="Fill-5" fill="#FFFFFF"></path>
                <path d="M77.5545476,13.9544286 C77.4219286,12.8868095 77.0385952,12.0110952 76.3974048,11.3244286 C75.7595476,10.635619 74.8771667,10.2894286 73.7521667,10.2894286 C72.6938333,10.2894286 71.827881,10.6477619 71.158119,11.3560952 C70.4847857,12.0663333 70.093119,12.9337143 69.9835952,13.9544286 L77.5545476,13.9544286 Z M70.1045476,17.130381 C70.2807381,18.3344286 70.7959762,19.2172857 71.6476429,19.7744286 C72.4971667,20.3308571 73.4864524,20.6110952 74.6150238,20.6110952 C75.232881,20.6110952 75.803119,20.510619 76.3226429,20.3134762 C76.8402619,20.115619 77.3209762,19.8937143 77.7643095,19.650381 C78.2064524,19.4051429 78.6155,19.185381 78.9924048,18.9860952 C79.3669286,18.7851429 79.7109762,18.6875238 80.0188333,18.6875238 C80.5276429,18.6875238 80.9816905,18.9032381 81.3776429,19.3363333 C81.7750238,19.7665714 81.9776429,20.2344286 81.9776429,20.7413333 C81.9776429,21.2465714 81.7388333,21.7425238 81.2640714,22.2249048 C80.7874048,22.7084762 80.1743095,23.1372857 79.4235952,23.5110952 C78.6705,23.8858571 77.8312143,24.185381 76.9019286,24.415619 C75.9743095,24.6475238 75.0674048,24.7634762 74.1833571,24.7634762 C72.8362143,24.7634762 71.6138333,24.530381 70.5176429,24.065381 C69.4221667,23.6034762 68.4814524,22.9608571 67.6938333,22.1427619 C66.9088333,21.3258571 66.2995476,20.3577619 65.8683571,19.240619 C65.4364524,18.1239524 65.2190714,16.9013333 65.2190714,15.5763333 C65.2190714,14.3608571 65.4297857,13.1927619 65.8485952,12.0737143 C66.2666905,10.9589524 66.8495476,9.97442857 67.6000238,9.12538095 C68.3507381,8.2727619 69.2485952,7.59395238 70.2955,7.08466667 C71.3447857,6.57680952 72.4952619,6.31919048 73.7521667,6.31919048 C75.0319286,6.31919048 76.198119,6.5882381 77.2583571,7.11657143 C78.3176429,7.64847619 79.2205,8.33204762 79.9702619,9.17180952 C80.7190714,10.0122857 81.2997857,10.9465714 81.7059762,11.9741905 C82.1140714,13.0015714 82.3183571,14.0137143 82.3183571,15.0075238 C82.3183571,15.7149048 82.152881,16.2465714 81.8235952,16.5984762 C81.492881,16.9539524 80.9652619,17.130381 80.2383571,17.130381 L70.1045476,17.130381 Z" id="Fill-7" fill="#FFFFFF"></path>
                <path d="M83.9453333,8.88930952 C83.9453333,8.09383333 84.204619,7.49835714 84.7222381,7.10002381 C85.2408095,6.70264286 85.7989048,6.50169048 86.3929524,6.50169048 C87.0341429,6.50169048 87.5789048,6.64216667 88.0317619,6.91645238 C88.484381,7.19478571 88.7091429,7.71692857 88.7091429,8.48883333 L88.7753333,8.48883333 C89.217,7.82811905 89.6974762,7.33121429 90.2184286,7.00169048 C90.737,6.6702619 91.3722381,6.50169048 92.1239048,6.50169048 C92.6981905,6.50169048 93.2281905,6.71192857 93.714619,7.13097619 C94.202,7.55288095 94.4455714,8.19359524 94.4455714,9.05288095 C94.4455714,9.4507381 94.3624762,9.75978571 94.1962857,9.98264286 C94.0281905,10.2024048 93.814381,10.3902619 93.549619,10.5440714 C93.284381,10.698119 92.9810476,10.8366905 92.6372381,10.9588333 C92.2958095,11.0812143 91.9460476,11.2164524 91.5939048,11.3726429 C91.2403333,11.5490714 90.8908095,11.7195476 90.5500952,11.8838333 C90.2060476,12.0500238 89.8974762,12.2555 89.6217619,12.4985952 C89.3439048,12.7407381 89.1239048,13.0283571 88.9574762,13.3588333 C88.7900952,13.6893095 88.7091429,14.0866905 88.7091429,14.5505 L88.7091429,21.8716905 C88.7091429,22.6650238 88.4867619,23.3047857 88.0489048,23.7890714 C87.6053333,24.2745476 87.0341429,24.5171667 86.3272381,24.5171667 C85.622,24.5171667 85.0472381,24.2745476 84.607,23.7890714 C84.1672381,23.3047857 83.9453333,22.6650238 83.9453333,21.8716905 L83.9453333,8.88930952 Z" id="Fill-9" fill="#FFFFFF"></path>
                <path d="M116.53231,13.9544286 C116.401357,12.8868095 116.015405,12.0110952 115.376357,11.3244286 C114.73731,10.635619 113.856595,10.2894286 112.731595,10.2894286 C111.673976,10.2894286 110.80731,10.6477619 110.135643,11.3560952 C109.461595,12.0663333 109.070881,12.9337143 108.962071,13.9544286 L116.53231,13.9544286 Z M109.083976,17.130381 C109.261595,18.3344286 109.775405,19.2172857 110.62469,19.7744286 C111.476595,20.3308571 112.465643,20.6110952 113.592548,20.6110952 C114.210881,20.6110952 114.780881,20.510619 115.299452,20.3134762 C115.820405,20.115619 116.301119,19.8937143 116.74469,19.650381 C117.184214,19.4051429 117.59231,19.185381 117.96969,18.9860952 C118.34469,18.7851429 118.688738,18.6875238 118.99731,18.6875238 C119.504929,18.6875238 119.959452,18.9032381 120.356119,19.3363333 C120.755167,19.7665714 120.9535,20.2344286 120.9535,20.7413333 C120.9535,21.2465714 120.717071,21.7425238 120.242548,22.2249048 C119.766119,22.7084762 119.1535,23.1372857 118.400643,23.5110952 C117.648976,23.8858571 116.810405,24.185381 115.87969,24.415619 C114.953024,24.6475238 114.046833,24.7634762 113.162071,24.7634762 C111.811833,24.7634762 110.591595,24.530381 109.497071,24.065381 C108.401595,23.6034762 107.460881,22.9608571 106.673976,22.1427619 C105.888976,21.3258571 105.27731,20.3577619 104.845405,19.240619 C104.414214,18.1239524 104.1985,16.9013333 104.1985,15.5763333 C104.1985,14.3608571 104.407071,13.1927619 104.826357,12.0737143 C105.246119,10.9589524 105.82969,9.97442857 106.580167,9.12538095 C107.328262,8.2727619 108.227071,7.59395238 109.274929,7.08466667 C110.322548,6.57680952 111.473024,6.31919048 112.731595,6.31919048 C114.010643,6.31919048 115.176833,6.5882381 116.236833,7.11657143 C117.296119,7.64847619 118.19731,8.33204762 118.948024,9.17180952 C119.6985,10.0122857 120.277071,10.9465714 120.684452,11.9741905 C121.092786,13.0015714 121.297548,14.0137143 121.297548,15.0075238 C121.297548,15.7149048 121.131357,16.2465714 120.802071,16.5984762 C120.472071,16.9539524 119.943262,17.130381 119.218738,17.130381 L109.083976,17.130381 Z" id="Fill-11" fill="#FFFFFF"></path>
                <path d="M97.2816905,20.3299762 C97.7507381,20.5483095 98.0059762,20.3547381 98.0059762,20.3547381 C98.2388333,20.1790238 98.4093095,19.9595 98.512881,19.6954524 C98.6140714,19.4297381 98.6750238,19.1473571 98.6947857,18.8506905 C98.7162143,18.5530714 98.7252619,18.2790238 98.7252619,18.0366429 L98.7252619,8.45307143 C98.7252619,7.67616667 98.9466905,7.08354762 99.3838333,6.6742619 C99.8240714,6.26354762 100.361214,6.05616667 101.019786,6.05616667 C101.681214,6.05616667 102.218119,6.26354762 102.657643,6.6742619 C103.0955,7.08354762 103.316214,7.67402381 103.316214,8.45116667 L103.316214,18.3283095 C103.316214,19.6166429 103.140738,20.7578333 102.851214,21.5173571 C102.525262,22.3725952 102.036214,23.0204524 101.453595,23.5109286 C100.873357,24.0040238 100.107167,24.3435476 99.3838333,24.5354524 C99.3838333,24.5354524 97.5940714,24.7533095 96.7716905,24.5642619 C95.9509762,24.3754524 95.4105,24.2502143 94.9319286,23.9854524 C94.4505,23.7216429 94.1114524,23.5378333 93.4900238,22.9154524 C92.9664524,22.3933095 92.9071667,21.7064048 92.9071667,21.2095 C92.9071667,20.7125952 93.2009762,20.1861667 93.3838333,19.9975952 C93.5640714,19.8102143 93.8307381,19.5990238 93.9335952,19.5509286 C94.038119,19.5035476 94.2314524,19.3845 94.6262143,19.3845 C95.0183571,19.3845 95.308119,19.4747381 95.5309762,19.5683095 C95.7516905,19.6597381 96.4183571,19.9509286 96.4183571,19.9509286 L97.2816905,20.3299762 Z" id="Fill-15" fill="#FFFFFF"></path>
                <path d="M124.120548,10.8480238 L123.060548,10.8480238 C122.41769,10.8480238 121.910786,10.6644524 121.534595,10.2894524 C121.159357,9.91492857 120.970786,9.4087381 120.970786,8.77135714 C120.970786,8.17921429 121.170786,7.68230952 121.567452,7.28921429 C121.964357,6.89421429 122.462214,6.69683333 123.060548,6.69683333 L124.120548,6.69683333 L124.120548,3.84207143 C124.120548,3.0485 124.3415,2.4082619 124.782214,1.92159524 C125.223405,1.43611905 125.797214,1.19040476 126.502452,1.19040476 C127.207214,1.19040476 127.780548,1.43611905 128.221024,1.92159524 C128.661976,2.4082619 128.883881,3.0485 128.883881,3.84207143 L128.883881,6.69683333 L130.243167,6.69683333 C130.86269,6.69683333 131.399357,6.85088095 131.851262,7.15683333 C132.303881,7.46469048 132.531976,8.00135714 132.531976,8.77135714 C132.531976,9.5187381 132.303881,10.0523095 131.851262,10.3706429 C131.399357,10.6896905 130.86269,10.8480238 130.243167,10.8480238 L128.883881,10.8480238 L128.883881,21.8718333 C128.883881,22.6701667 128.661976,23.3099286 128.221024,23.7973095 C127.780548,24.2842143 127.207214,24.526119 126.502452,24.526119 C125.797214,24.526119 125.223405,24.2842143 124.782214,23.7973095 C124.3415,23.3099286 124.120548,22.6701667 124.120548,21.8718333 L124.120548,10.8480238 Z" id="Fill-13" fill="#FFFFFF"></path>
                <path d="M134.440714,22.4037857 C134.761905,22.4037857 134.986667,22.2859286 134.986667,22.0075952 C134.986667,21.7614048 134.858333,21.6006905 134.472857,21.6006905 L134.130238,21.6006905 L134.130238,22.4037857 L134.440714,22.4037857 Z M133.787619,21.3009286 L134.526429,21.3009286 C134.944048,21.3009286 135.350714,21.4506905 135.350714,21.9861667 C135.350714,22.2537857 135.16881,22.5106905 134.922619,22.5859286 L135.447143,23.5066429 L135.050952,23.5066429 L134.633571,22.6928333 L134.130238,22.6928333 L134.130238,23.5066429 L133.787619,23.5066429 L133.787619,21.3009286 Z M136.132381,22.4466429 C136.132381,21.4185476 135.415,20.6585476 134.515714,20.6585476 C133.616429,20.6585476 132.899048,21.4185476 132.899048,22.4466429 C132.899048,23.4635476 133.616429,24.2025952 134.515714,24.2025952 C135.415,24.2025952 136.132381,23.4635476 136.132381,22.4466429 L136.132381,22.4466429 Z M132.567143,22.4466429 C132.567143,21.1937857 133.455714,20.3587857 134.515714,20.3587857 C135.586429,20.3587857 136.464286,21.1937857 136.464286,22.4466429 C136.464286,23.6885476 135.586429,24.5128333 134.515714,24.5128333 C133.455714,24.5128333 132.567143,23.6885476 132.567143,22.4466429 L132.567143,22.4466429 Z" id="Fill-22" fill="#FFFFFF"></path>
                <g id="Imagotipo">
                    <path d="M13.7581667,8.88628571 L13.7581667,4.79985714 L13.7581667,1.73366667 C13.7581667,0.906047619 13.0879286,0.237952381 12.2576905,0.237952381 C11.4317381,0.237952381 10.7660238,0.906047619 10.7660238,1.73366667 L10.7660238,4.8067619 L10.7660238,8.88747619 L7.87316667,5.99866667 L5.70435714,3.83366667 C5.11959524,3.24866667 4.17102381,3.24866667 3.59007143,3.83485714 C3.00483333,4.41604762 3.00483333,5.36342857 3.59007143,5.94628571 L5.76269048,8.12152381 L8.64411905,11.0010476 L2.4765,11.0010476 L1.49864286,11.0010476 C0.674119048,11.0010476 7.14285714e-05,11.6731905 7.14285714e-05,12.5008095 C7.14285714e-05,13.3289048 0.674119048,14.0003333 1.49864286,14.0003333 L2.40245238,13.9984286 L4.56459524,13.9953333 L8.6467381,13.9953333 L5.76269048,16.8829524 L4.28388095,18.3610476 L3.59245238,19.0529524 C3.00697619,19.6367619 3.00697619,20.5877143 3.59245238,21.1727143 C4.17864286,21.7586667 5.12816667,21.7586667 5.7117381,21.1727143 L6.35292857,20.5341429 L7.87721429,19.0027143 L10.7660238,16.1129524 L10.7660238,20.1953333 L10.7660238,22.289619 L10.7660238,23.2658095 C10.7660238,24.0931905 11.4384048,24.7662857 12.263881,24.7662857 C13.0919762,24.7662857 13.7626905,24.0931905 13.7626905,23.2658095 L13.7626905,22.3624762 L13.7581667,20.2008095 L13.7581667,16.1158095 L16.644119,19.0027143 L18.1262619,20.4817619 L18.8153095,21.1727143 C19.3986429,21.7586667 20.3493571,21.7586667 20.9369762,21.1727143 C21.5210238,20.5877143 21.5210238,19.6367619 20.9369762,19.0529524 L20.2957857,18.4124762 L18.7657857,16.887 L15.8812619,13.9953333 L19.9657857,13.9953333 L23.0331667,13.9910476 C23.8572143,13.9910476 24.5276905,13.3208095 24.5276905,12.4965238 C24.5276905,11.6700952 23.8572143,11.0010476 23.0331667,11.0010476 L19.9600714,11.0010476 L15.8769762,11.0010476 L18.7657857,8.11128571 L20.9319762,5.93819048 C21.5148333,5.3572381 21.5148333,4.40866667 20.9319762,3.82557143 C20.3460238,3.24271429 19.3986429,3.24271429 18.8176905,3.82557143 L16.6424524,6.002 L13.7581667,8.88628571 Z" id="Fill-17" fill="#d2cfcd"></path>
                    <path d="M18.7625952,16.8869048 C19.3478333,17.4690476 19.3478333,18.4195238 18.7625952,19.0028571 C18.1797381,19.5888095 17.2316429,19.5888095 16.6440238,19.0028571 L14.0028333,16.3604762 L11.6366429,13.9952381 L4.56688095,13.9952381 C3.74235714,13.9952381 3.07307143,13.3271429 3.07307143,12.4995238 C3.07307143,11.672381 3.74235714,11.0009524 4.56688095,11.0009524 L11.6366429,11.0009524 L13.7580714,8.88738095 L16.6423571,6.00071429 C17.2316429,5.4147619 18.1797381,5.4147619 18.7587857,6.00071429 C19.3461667,6.58690476 19.3461667,7.53119048 18.7587857,8.11666667 L15.876881,11.0009524 L19.9599762,11.0009524 C20.7837857,11.0009524 21.4561667,11.672381 21.4561667,12.4995238 C21.4561667,13.3271429 20.7837857,13.9952381 19.9599762,13.9952381 L15.8811667,13.9952381 L18.7625952,16.8869048 Z" id="Fill-20" fill="#FFFFFF"></path>
                </g>
            </g>
        </g>
    </g>
</svg>