<?xml version="1.0" encoding="UTF-8" standalone="no"?>
<svg width="295px" height="97px" viewBox="0 0 295 97" version="1.1" xmlns="http://www.w3.org/2000/svg" xmlns:xlink="http://www.w3.org/1999/xlink">
    <!-- Generator: Sketch 47.1 (45422) - http://www.bohemiancoding.com/sketch -->
    <title>Artboard</title>
    <desc>Created with Sketch.</desc>
    <defs></defs>
    <g id="Page-1" stroke="none" stroke-width="1" fill="none" fill-rule="evenodd">
        <g id="Artboard" fill-rule="nonzero">
            <g id="Vacations" transform="translate(2.000000, 4.000000)">
                <g id="Group">
                    <path d="M66.877551,19.5612245 C66.877551,17.7979592 67.3617811,16.4204082 68.3302412,15.3734694 C69.2987013,14.3265306 70.5361781,13.7755102 72.096475,13.7755102 C73.6567718,13.7755102 74.8942486,14.3265306 75.8627087,15.3734694 C76.8311688,16.4204082 77.3153989,17.8530612 77.3153989,19.5612245 L77.3153989,47.3877551 C77.3153989,49.0959184 76.8311688,50.5285714 75.8627087,51.5755102 C74.8942486,52.622449 73.6567718,53.1734694 72.096475,53.1734694 C70.5361781,53.1734694 69.2987013,52.622449 68.3302412,51.5755102 C67.3617811,50.5285714 66.877551,49.0959184 66.877551,47.3877551 L66.877551,19.5612245 Z" id="Shape" fill="#FFFFFF"></path>
                    <path d="M83.0723562,19.5612245 C83.0723562,17.7979592 83.5565863,16.4204082 84.5250464,15.3734694 C85.4935065,14.3265306 86.7309833,13.7755102 88.2912801,13.7755102 C89.6363636,13.7755102 90.7124304,14.1061224 91.5732839,14.822449 C92.380334,15.4836735 92.9183673,16.4755102 93.0797774,17.6877551 C94.1020408,16.3102041 95.393321,15.2081633 97.0612245,14.4918367 C98.6753247,13.7755102 100.719852,13.3897959 103.194805,13.3897959 C105.239332,13.3897959 107.122449,13.7204082 108.897959,14.3265306 C110.673469,14.9326531 112.179963,15.8693878 113.41744,17.0816327 C114.654917,18.2938776 115.67718,19.7816327 116.376623,21.4897959 C117.076067,23.2530612 117.45269,25.2367347 117.45269,27.4408163 L117.45269,47.3877551 C117.45269,49.1510204 116.96846,50.5285714 116,51.5755102 C115.03154,52.622449 113.794063,53.1734694 112.233766,53.1734694 C110.673469,53.1734694 109.435993,52.622449 108.467532,51.5755102 C107.499072,50.5285714 107.014842,49.0959184 107.014842,47.3877551 L107.014842,29.2040816 C107.014842,26.7244898 106.369202,24.9061224 105.024119,23.7489796 C103.679035,22.5918367 102.064935,21.9857143 100.181818,21.9857143 C97.9758813,21.9857143 96.3079777,22.7020408 95.1781076,24.0244898 C94.0482375,25.4020408 93.4564007,27.1102041 93.4564007,29.1489796 L93.4564007,47.3326531 C93.4564007,49.0959184 92.9721707,50.4734694 92.0037106,51.5204082 C91.0352505,52.5673469 89.7977737,53.1183673 88.2374768,53.1183673 C86.67718,53.1183673 85.4397032,52.5673469 84.471243,51.5204082 C83.5027829,50.4734694 83.0185529,49.0408163 83.0185529,47.3326531 L83.0185529,19.5612245 L83.0723562,19.5612245 Z" id="Shape" fill="#FFFFFF"></path>
                    <path d="M125.792208,23.2530612 L123.478664,23.2530612 C122.079777,23.2530612 120.949907,22.8673469 120.142857,22.0408163 C119.335807,21.2142857 118.90538,20.1122449 118.90538,18.7346939 C118.90538,17.4122449 119.335807,16.3653061 120.19666,15.4836735 C121.057514,14.6020408 122.133581,14.1612245 123.478664,14.1612245 L125.792208,14.1612245 L125.792208,7.93469388 C125.792208,6.17142857 126.276438,4.79387755 127.244898,3.74693878 C128.213358,2.7 129.450835,2.14897959 131.011132,2.14897959 C132.571429,2.14897959 133.808905,2.7 134.777365,3.74693878 C135.745826,4.79387755 136.230056,6.22653061 136.230056,7.93469388 L136.230056,14.1612245 L139.189239,14.1612245 C140.534323,14.1612245 141.717996,14.4918367 142.686456,15.1530612 C143.654917,15.8142857 144.19295,17.0265306 144.19295,18.6795918 C144.19295,20.3326531 143.70872,21.4897959 142.686456,22.2061224 C141.717996,22.922449 140.534323,23.2530612 139.189239,23.2530612 L136.230056,23.2530612 L136.230056,47.3877551 C136.230056,49.1510204 135.745826,50.5285714 134.777365,51.6306122 C133.808905,52.677551 132.571429,53.2285714 131.011132,53.2285714 C129.450835,53.2285714 128.213358,52.677551 127.244898,51.6306122 C126.276438,50.5836735 125.792208,49.1510204 125.792208,47.3877551 L125.792208,23.2530612 Z" id="Shape" fill="#FFFFFF"></path>
                    <path d="M153.285714,37.0285714 C153.662338,39.6734694 154.792208,41.6020408 156.675325,42.8142857 C158.558442,44.0265306 160.710575,44.6326531 163.131725,44.6326531 C164.476809,44.6326531 165.714286,44.4122449 166.844156,43.9714286 C167.974026,43.5306122 169.050093,43.0346939 170.018553,42.5387755 C170.987013,41.9877551 171.90167,41.4918367 172.70872,41.1061224 C173.51577,40.6653061 174.269017,40.444898 174.96846,40.444898 C176.09833,40.444898 177.06679,40.9408163 177.927644,41.877551 C178.788497,42.8142857 179.218924,43.8612245 179.218924,44.9632653 C179.218924,46.0653061 178.680891,47.1673469 177.658627,48.2142857 C176.636364,49.2612245 175.29128,50.1979592 173.623377,51.0244898 C171.955473,51.8510204 170.12616,52.5122449 168.135436,53.0081633 C166.090909,53.5040816 164.153989,53.7795918 162.217069,53.7795918 C159.257885,53.7795918 156.621521,53.2836735 154.200371,52.2367347 C151.833024,51.244898 149.734694,49.8122449 148.012987,48.0489796 C146.29128,46.2857143 144.946197,44.1367347 144.03154,41.7122449 C143.06308,39.2877551 142.632653,36.5877551 142.632653,33.6673469 C142.632653,31.022449 143.116883,28.4326531 144.03154,26.0081633 C144.946197,23.5836735 146.237477,21.4346939 147.851577,19.5612245 C149.465677,17.6877551 151.456401,16.2 153.716141,15.0979592 C156.029685,13.9959184 158.504638,13.444898 161.248609,13.444898 C164.046382,13.444898 166.575139,14.0510204 168.888683,15.2081633 C171.202226,16.3653061 173.19295,17.8530612 174.80705,19.7265306 C176.42115,21.544898 177.71243,23.6387755 178.573284,25.8428571 C179.487941,28.1020408 179.918367,30.3061224 179.918367,32.5102041 C179.918367,34.0530612 179.541744,35.2102041 178.842301,35.9816327 C178.142857,36.7530612 176.959184,37.1387755 175.398887,37.1387755 L153.285714,37.1387755 L153.285714,37.0285714 Z M169.588126,30.0857143 C169.319109,27.7714286 168.458256,25.8428571 167.059369,24.355102 C165.660482,22.8673469 163.723562,22.0959184 161.302412,22.0959184 C158.988868,22.0959184 157.105751,22.8673469 155.653061,24.4102041 C154.200371,25.9530612 153.339518,27.8816327 153.070501,30.0857143 L169.588126,30.0857143 Z" id="Shape" fill="#FFFFFF"></path>
                    <path d="M183.523191,19.0102041 C183.523191,17.2469388 184.115028,15.9795918 185.244898,15.0979592 C186.374768,14.2163265 187.612245,13.7755102 188.903525,13.7755102 C190.302412,13.7755102 191.486085,14.1061224 192.508349,14.7122449 C193.476809,15.3183673 194.014842,16.4755102 194.014842,18.1285714 L194.176252,18.1285714 C195.144712,16.6959184 196.166976,15.5938776 197.350649,14.877551 C198.480519,14.1612245 199.879406,13.7755102 201.493506,13.7755102 C202.730983,13.7755102 203.914657,14.2163265 204.990724,15.1530612 C206.06679,16.0897959 206.604824,17.4673469 206.604824,19.3408163 C206.604824,20.222449 206.443414,20.8836735 206.06679,21.3795918 C205.690167,21.8755102 205.25974,22.2612245 204.667904,22.5918367 C204.076067,22.922449 203.430427,23.2530612 202.67718,23.4734694 C201.923933,23.7489796 201.170686,24.0244898 200.41744,24.355102 C199.664193,24.7408163 198.857143,25.1265306 198.157699,25.4571429 C197.404453,25.8428571 196.758813,26.2836735 196.113173,26.7795918 C195.521336,27.3306122 195.037106,27.9367347 194.660482,28.6530612 C194.283859,29.3693878 194.122449,30.2510204 194.122449,31.2428571 L194.122449,47.3877551 C194.122449,49.0959184 193.638219,50.5285714 192.669759,51.5755102 C191.701299,52.622449 190.463822,53.1734694 188.903525,53.1734694 C187.343228,53.1734694 186.105751,52.622449 185.137291,51.5755102 C184.168831,50.5285714 183.684601,49.0959184 183.684601,47.3877551 L183.684601,19.0102041 L183.523191,19.0102041 Z" id="Shape" fill="#FFFFFF"></path>
                    <path d="M238.402597,37.0285714 C238.779221,39.6734694 239.909091,41.6020408 241.792208,42.8142857 C243.675325,44.0265306 245.827458,44.6326531 248.248609,44.6326531 C249.593692,44.6326531 250.831169,44.4122449 251.961039,43.9714286 C253.090909,43.5306122 254.166976,43.0346939 255.135436,42.5387755 C256.103896,41.9877551 256.96475,41.4918367 257.825603,41.1061224 C258.632653,40.6653061 259.3859,40.444898 260.085343,40.444898 C261.215213,40.444898 262.183673,40.9408163 263.044527,41.877551 C263.90538,42.8142857 264.335807,43.8612245 264.335807,44.9632653 C264.335807,46.0653061 263.797774,47.1673469 262.77551,48.2142857 C261.753247,49.2612245 260.408163,50.1979592 258.74026,51.0244898 C257.12616,51.8510204 255.243043,52.5122449 253.252319,53.0081633 C251.207792,53.5040816 249.270872,53.7795918 247.333952,53.7795918 C244.374768,53.7795918 241.738404,53.2836735 239.317254,52.2367347 C236.949907,51.244898 234.851577,49.8122449 233.12987,48.0489796 C231.408163,46.2857143 230.06308,44.1367347 229.148423,41.7122449 C228.179963,39.2877551 227.749536,36.5877551 227.749536,33.6673469 C227.749536,31.022449 228.233766,28.4326531 229.148423,26.0081633 C230.06308,23.5836735 231.35436,21.4346939 232.96846,19.5612245 C234.58256,17.6877551 236.573284,16.2 238.833024,15.0979592 C241.146568,13.9959184 243.621521,13.444898 246.365492,13.444898 C249.163265,13.444898 251.692022,14.0510204 254.005566,15.2081633 C256.319109,16.3653061 258.309833,17.8530612 259.923933,19.7265306 C261.538033,21.544898 262.829314,23.6387755 263.690167,25.8428571 C264.604824,28.1020408 265.03525,30.3061224 265.03525,32.5102041 C265.03525,34.0530612 264.658627,35.2102041 263.959184,35.9816327 C263.25974,36.7530612 262.076067,37.1387755 260.51577,37.1387755 L238.402597,37.1387755 L238.402597,37.0285714 Z M254.651206,30.0857143 C254.382189,27.7714286 253.521336,25.8428571 252.122449,24.355102 C250.723562,22.8673469 248.786642,22.0959184 246.365492,22.0959184 C244.051948,22.0959184 242.168831,22.8673469 240.716141,24.4102041 C239.263451,25.9530612 238.402597,27.8816327 238.133581,30.0857143 L254.651206,30.0857143 Z" id="Shape" fill="#FFFFFF"></path>
                    <path d="M271.222635,23.2530612 L268.909091,23.2530612 C267.510204,23.2530612 266.380334,22.8673469 265.573284,22.0408163 C264.766234,21.2142857 264.335807,20.1122449 264.335807,18.7346939 C264.335807,17.4122449 264.766234,16.3653061 265.627087,15.4836735 C266.487941,14.6020408 267.564007,14.1612245 268.909091,14.1612245 L271.222635,14.1612245 L271.222635,7.93469388 C271.222635,6.17142857 271.706865,4.79387755 272.675325,3.74693878 C273.643785,2.7 274.881262,2.14897959 276.441558,2.14897959 C278.001855,2.14897959 279.239332,2.7 280.207792,3.74693878 C281.176252,4.79387755 281.660482,6.22653061 281.660482,7.93469388 L281.660482,14.1612245 L284.619666,14.1612245 C285.96475,14.1612245 287.148423,14.4918367 288.116883,15.1530612 C289.085343,15.8142857 289.623377,17.0265306 289.623377,18.6795918 C289.623377,20.3326531 289.139147,21.4897959 288.116883,22.2061224 C287.148423,22.922449 285.96475,23.2530612 284.619666,23.2530612 L281.660482,23.2530612 L281.660482,47.3877551 C281.660482,49.1510204 281.176252,50.5285714 280.207792,51.6306122 C279.239332,52.677551 278.001855,53.2285714 276.441558,53.2285714 C274.881262,53.2285714 273.643785,52.677551 272.675325,51.6306122 C271.706865,50.5836735 271.222635,49.1510204 271.222635,47.3877551 L271.222635,23.2530612 Z" id="Shape" fill="#FFFFFF"></path>
                    <path d="M212.630798,44.0265306 C213.653061,44.522449 214.191095,44.0816327 214.191095,44.0816327 C214.675325,43.6959184 215.051948,43.2 215.320965,42.6489796 C215.536178,42.0428571 215.697588,41.4367347 215.697588,40.7755102 C215.751391,40.1142857 215.751391,39.5081633 215.751391,39.0122449 L215.751391,18.0183673 C215.751391,16.3102041 216.235622,15.0428571 217.204082,14.1061224 C218.172542,13.2244898 219.356215,12.7285714 220.755102,12.7285714 C222.207792,12.7285714 223.391466,13.1693878 224.306122,14.1061224 C225.274583,14.9877551 225.758813,16.3102041 225.758813,18.0183673 L225.758813,39.6734694 C225.758813,42.4836735 225.382189,44.9632653 224.736549,46.6714286 C224.037106,48.544898 222.961039,49.977551 221.669759,51.0244898 C220.378479,52.1265306 218.710575,52.8428571 217.150278,53.2836735 C217.150278,53.2836735 213.222635,53.7795918 211.447124,53.3387755 C209.671614,52.9530612 208.487941,52.677551 207.411874,52.0714286 C206.335807,51.5204082 205.636364,51.0795918 204.237477,49.7571429 C203.107607,48.6 202.946197,47.1122449 202.946197,46.0102041 C202.946197,44.9081633 203.591837,43.7510204 203.96846,43.3653061 C204.345083,42.9795918 204.93692,42.4836735 205.152134,42.3734694 C205.367347,42.2632653 205.797774,41.9877551 206.658627,41.9877551 C207.519481,41.9877551 208.165121,42.2081633 208.649351,42.3734694 C209.133581,42.5938776 210.586271,43.2 210.586271,43.2 L212.630798,44.0265306 Z" id="Shape" fill="#FFFFFF"></path>
                    <path d="M212.630798,44.0265306 C213.653061,44.522449 214.191095,44.0816327 214.191095,44.0816327 C214.675325,43.6959184 215.051948,43.2 215.320965,42.6489796 C215.536178,42.0428571 215.697588,41.4367347 215.697588,40.7755102 C215.751391,40.1142857 215.751391,39.5081633 215.751391,39.0122449 L215.751391,18.0183673 C215.751391,16.3102041 216.235622,15.0428571 217.204082,14.1061224 C218.172542,13.2244898 219.356215,12.7285714 220.755102,12.7285714 C222.207792,12.7285714 223.391466,13.1693878 224.306122,14.1061224 C225.274583,14.9877551 225.758813,16.3102041 225.758813,18.0183673 L225.758813,39.6734694 C225.758813,42.4836735 225.382189,44.9632653 224.736549,46.6714286 C224.037106,48.544898 222.961039,49.977551 221.669759,51.0244898 C220.378479,52.1265306 218.710575,52.8428571 217.150278,53.2836735 C217.150278,53.2836735 213.222635,53.7795918 211.447124,53.3387755 C209.671614,52.9530612 208.487941,52.677551 207.411874,52.0714286 C206.335807,51.5204082 205.636364,51.0795918 204.237477,49.7571429 C203.107607,48.6 202.946197,47.1122449 202.946197,46.0102041 C202.946197,44.9081633 203.591837,43.7510204 203.96846,43.3653061 C204.345083,42.9795918 204.93692,42.4836735 205.152134,42.3734694 C205.367347,42.2632653 205.797774,41.9877551 206.658627,41.9877551 C207.519481,41.9877551 208.165121,42.2081633 208.649351,42.3734694 C209.133581,42.5938776 210.586271,43.2 210.586271,43.2 L212.630798,44.0265306 Z" id="Shape" fill="#FFFFFF"></path>
                    <path d="M30.2912801,19.0102041 L30.2912801,10.0836735 L30.2912801,3.41632653 C30.2912801,1.59795918 28.83859,0.165306122 27.0630798,0.165306122 C25.2875696,0.165306122 23.8348794,1.59795918 23.8348794,3.41632653 L23.8348794,10.1387755 L23.8348794,19.0102041 L17.5398887,12.7285714 L12.8051948,7.98979592 C11.5139147,6.72244898 9.46938776,6.72244898 8.23191095,7.98979592 C6.9406308,9.25714286 6.9406308,11.3510204 8.23191095,12.6183673 L12.9666048,17.3571429 L19.2077922,23.6387755 L5.75695733,23.6387755 L3.65862709,23.6387755 C1.88311688,23.6387755 0.376623377,25.1265306 0.376623377,26.8897959 C0.376623377,28.7081633 1.82931354,30.1408163 3.65862709,30.1408163 L5.64935065,30.1408163 L10.3302412,30.1408163 L19.2077922,30.1408163 L12.9128015,36.422449 L9.68460111,39.6734694 L8.17810761,41.1612245 C6.88682746,42.4285714 6.88682746,44.522449 8.17810761,45.7897959 C9.46938776,47.0571429 11.5139147,47.0571429 12.8051948,45.7897959 L14.2040816,44.4122449 L17.5398887,41.0510204 L23.8348794,34.7693878 L23.8348794,43.6959184 L23.8348794,48.2693878 L23.8348794,50.4183673 C23.8348794,52.2367347 25.2875696,53.6693878 27.1168831,53.6693878 C28.9461967,53.6693878 30.3988868,52.1816327 30.3988868,50.4183673 L30.3988868,48.4346939 L30.3988868,43.7510204 L30.3988868,34.8244898 L36.6938776,41.1061224 L39.9220779,44.3571429 L41.4285714,45.844898 C42.7198516,47.1122449 44.7643785,47.1122449 46.0556586,45.844898 C47.3469388,44.577551 47.3469388,42.4836735 46.0556586,41.2163265 L44.6567718,39.8387755 L41.3209647,36.5326531 L35.025974,30.1959184 L43.903525,30.1959184 L50.5751391,30.1959184 C52.3506494,30.1959184 53.8033395,28.7632653 53.8033395,26.944898 C53.8033395,25.1265306 52.3506494,23.6938776 50.5751391,23.6938776 L43.903525,23.6938776 L34.864564,23.6938776 L41.1595547,17.4122449 L45.8942486,12.6734694 C47.1855288,11.4061224 47.1855288,9.3122449 45.8942486,8.04489796 C44.6029685,6.77755102 42.5584416,6.77755102 41.3209647,8.04489796 L36.5862709,12.7836735 L30.2912801,19.0102041 Z" id="Shape" fill="#80AAD6"></path>
                    <path d="M41.1595547,36.477551 C42.4508349,37.744898 42.4508349,39.8387755 41.1595547,41.1061224 C39.8682746,42.3734694 37.8237477,42.3734694 36.5324675,41.1061224 L30.7755102,35.3204082 L25.6103896,30.1408163 L10.2764378,30.1408163 C8.50092764,30.1408163 6.99443414,28.6530612 6.99443414,26.8897959 C6.99443414,25.0714286 8.4471243,23.6387755 10.2764378,23.6387755 L25.6641929,23.6387755 L30.2912801,19.0102041 L36.5862709,12.7285714 C37.877551,11.4612245 39.9220779,11.4612245 41.2133581,12.7285714 C42.5046382,13.9959184 42.5046382,16.0897959 41.2133581,17.3571429 L34.9183673,23.6387755 L43.7959184,23.6387755 C45.5714286,23.6387755 47.0779221,25.1265306 47.0779221,26.8897959 C47.0779221,28.7081633 45.6252319,30.1408163 43.7959184,30.1408163 L34.9183673,30.1408163 L41.1595547,36.477551 Z" id="Shape" fill="#FFFFFF"></path>
                </g>
                <g id="Group" transform="translate(66.000000, 66.000000)" fill="#6AA1D2">
                    <polygon id="Shape" points="0.484848485 0.838095238 3.44781145 0.838095238 9.91245791 15.0333333 16.4309764 0.838095238 19.4478114 0.838095238 9.85858586 21.5285714"></polygon>
                    <path d="M27.6363636,0 L37.3872054,20.847619 L34.4242424,20.847619 L32.0538721,15.7142857 L23.2727273,15.7142857 L20.9023569,20.847619 L17.993266,20.847619 L27.6363636,0 Z M27.6363636,6.28571429 L24.3501684,13.4619048 L30.976431,13.4619048 L27.6363636,6.28571429 Z" id="Shape"></path>
                    <path d="M55.3265993,1.46666667 L55.3265993,4.55714286 C53.1178451,3.50952381 51.0707071,2.98571429 49.1851852,2.98571429 C46.7609428,2.98571429 44.7676768,3.71904762 43.1515152,5.23809524 C41.5353535,6.75714286 40.6734007,8.59047619 40.6734007,10.7904762 C40.6734007,13.0428571 41.5353535,14.8761905 43.2053872,16.3952381 C44.8754209,17.9142857 46.976431,18.647619 49.5084175,18.647619 C51.3400673,18.647619 53.2794613,18.0714286 55.3265993,16.9714286 L55.3265993,20.1142857 C53.4410774,21.0571429 51.4478114,21.5809524 49.2390572,21.5809524 C46.0606061,21.5809524 43.3131313,20.5333333 41.0505051,18.4380952 C38.7878788,16.3428571 37.6565657,13.7761905 37.6565657,10.8428571 C37.6565657,7.90952381 38.7878788,5.44761905 40.996633,3.35238095 C43.2053872,1.25714286 45.8989899,0.261904762 49.0774411,0.261904762 C51.0707071,0.157142857 53.1717172,0.576190476 55.3265993,1.46666667 Z" id="Shape"></path>
                    <path d="M66.3703704,0 L76.1212121,20.847619 L73.1582492,20.847619 L70.7878788,15.7142857 L62.006734,15.7142857 L59.6363636,20.847619 L56.7272727,20.847619 L66.3703704,0 Z M66.3703704,6.28571429 L63.0841751,13.4619048 L69.7104377,13.4619048 L66.3703704,6.28571429 Z" id="Shape"></path>
                    <polygon id="Shape" points="75.7979798 0.785714286 88.4040404 0.785714286 88.4040404 3.50952381 83.5016835 3.50952381 83.5016835 20.847619 80.7003367 20.847619 80.7003367 3.50952381 75.7979798 3.50952381"></polygon>
                    <polygon id="Shape" points="91.5286195 0.785714286 94.3299663 0.785714286 94.3299663 20.847619 91.5286195 20.847619"></polygon>
                    <path d="M97.993266,10.6857143 C97.993266,7.8047619 99.1245791,5.29047619 101.387205,3.24761905 C103.649832,1.2047619 106.343434,0.157142857 109.468013,0.157142857 C112.538721,0.157142857 115.178451,1.2047619 117.441077,3.3 C119.649832,5.3952381 120.781145,7.85714286 120.781145,10.7380952 C120.781145,13.7761905 119.703704,16.3428571 117.494949,18.4380952 C115.286195,20.5333333 112.592593,21.5809524 109.414141,21.5809524 C106.23569,21.5809524 103.59596,20.5333333 101.387205,18.4380952 C99.1245791,16.2380952 97.993266,13.7238095 97.993266,10.6857143 Z M117.76431,10.8428571 C117.76431,8.64285714 116.956229,6.75714286 115.286195,5.23809524 C113.670034,3.71904762 111.622896,2.98571429 109.252525,2.98571429 C106.989899,2.98571429 104.996633,3.77142857 103.380471,5.29047619 C101.76431,6.80952381 100.956229,8.6952381 100.956229,10.8428571 C100.956229,13.0428571 101.76431,14.8761905 103.434343,16.3952381 C105.104377,17.9142857 107.151515,18.647619 109.575758,18.647619 C111.784512,18.647619 113.723906,17.8619048 115.340067,16.3428571 C116.956229,14.7714286 117.76431,12.9380952 117.76431,10.8428571 Z" id="Shape"></path>
                    <polygon id="Shape" points="124.282828 0 139.52862 15.2428571 139.52862 0.785714286 142.329966 0.785714286 142.329966 21.7904762 127.084175 6.6 127.084175 20.847619 124.282828 20.847619"></polygon>
                    <path d="M159.191919,3.03809524 L156.929293,4.81904762 C156.3367,4.19047619 155.79798,3.77142857 155.313131,3.45714286 C154.828283,3.14285714 154.127946,2.98571429 153.212121,2.98571429 C152.188552,2.98571429 151.380471,3.1952381 150.734007,3.66666667 C150.087542,4.08571429 149.76431,4.66190476 149.76431,5.3952381 C149.76431,6.02380952 150.03367,6.54761905 150.572391,7.01904762 C151.111111,7.49047619 152.080808,8.01428571 153.373737,8.53809524 C154.720539,9.11428571 155.744108,9.58571429 156.444444,10.1095238 C157.198653,10.5809524 157.791246,11.1047619 158.276094,11.6809524 C158.760943,12.2571429 159.084175,12.8857143 159.353535,13.5142857 C159.569024,14.1428571 159.676768,14.8238095 159.676768,15.5571429 C159.676768,17.2333333 159.030303,18.647619 157.791246,19.8 C156.552189,20.952381 155.043771,21.5809524 153.265993,21.5809524 C151.542088,21.5809524 150.03367,21.1095238 148.686869,20.2190476 C147.340067,19.2761905 146.37037,17.9142857 145.616162,16.0809524 L148.417508,15.2952381 C149.441077,17.547619 151.003367,18.7 153.158249,18.7 C154.181818,18.7 155.043771,18.3857143 155.744108,17.8095238 C156.444444,17.2333333 156.767677,16.447619 156.767677,15.5571429 C156.767677,15.0333333 156.606061,14.4571429 156.228956,13.9333333 C155.851852,13.4095238 155.420875,12.9380952 154.882155,12.5714286 C154.343434,12.2047619 153.535354,11.7857143 152.350168,11.3666667 C151.218855,10.8952381 150.30303,10.4761905 149.656566,10.1095238 C149.010101,9.74285714 148.47138,9.27142857 148.040404,8.74761905 C147.609428,8.22380952 147.232323,7.7 147.016835,7.17619048 C146.801347,6.65238095 146.693603,6.07619048 146.693603,5.5 C146.693603,4.08571429 147.286195,2.82857143 148.47138,1.83333333 C149.656566,0.838095238 151.111111,0.314285714 152.781145,0.314285714 C153.912458,0.314285714 155.043771,0.576190476 156.175084,1.04761905 C157.468013,1.36190476 158.383838,2.04285714 159.191919,3.03809524 Z" id="Shape"></path>
                </g>
            </g>
        </g>
    </g>
</svg>