<?xml version="1.0" encoding="UTF-8" standalone="no"?>
<svg width="41px" height="43px" viewBox="0 0 41 43" version="1.1" xmlns="http://www.w3.org/2000/svg" xmlns:xlink="http://www.w3.org/1999/xlink">
    <!-- Generator: Sketch 47.1 (45422) - http://www.bohemiancoding.com/sketch -->
    <title>Artboard</title>
    <desc>Created with Sketch.</desc>
    <defs></defs>
    <g id="Page-1" stroke="none" stroke-width="1" fill="none" fill-rule="evenodd">
        <g id="shutterstock_432309544-[Converted]" transform="translate(1.000000, 1.000000)" fill-rule="nonzero" fill="#6CADDF">
            <path d="M28.8153006,26.834006 C33.8322515,20.9337903 34.0824042,12.1111674 28.9820691,5.93394633 C23.2563522,-1.00503968 12.9167083,-2.00225922 5.95412541,3.70405262 C-1.00845743,9.41036446 -2.00906814,19.7149664 3.71664869,26.6539524 C8.81698383,32.8311735 17.5584302,34.2993023 24.3264498,30.5181782 L33.0956909,41.8199997 L38.3349997,37.5264155 L28.8153006,26.834006 Z M24.7989604,26.5154497 C19.1427304,31.1552907 10.7487184,30.3381246 6.07920175,24.7010642 C1.42358248,19.0640037 2.24352737,10.6984397 7.89975734,6.0447485 C13.5559873,1.40490756 21.9499994,2.22207357 26.619516,7.85913406 C31.2751353,13.5100448 30.4551904,21.8756088 24.7989604,26.5154497 Z" id="XMLID_4050_"></path>
        </g>
        <g id="Artboard"></g>
    </g>
</svg>