<?xml version="1.0" encoding="UTF-8" standalone="no"?>
<svg width="587px" height="168px" viewBox="0 0 587 168" version="1.1" xmlns="http://www.w3.org/2000/svg" xmlns:xlink="http://www.w3.org/1999/xlink">
    <!-- Generator: Sketch 47.1 (45422) - http://www.bohemiancoding.com/sketch -->
    <title>Artboard</title>
    <desc>Created with Sketch.</desc>
    <defs></defs>
    <g id="Page-1" stroke="none" stroke-width="1" fill="none" fill-rule="evenodd">
        <g id="Artboard" fill-rule="nonzero">
            <g id="Group" transform="translate(8.000000, 7.000000)">
                <g id="Blog" transform="translate(513.000000, 0.000000)" fill="#93A6CE">
                    <path d="M37.3211429,35.5609183 C37.3211429,36.5701846 36.4907143,37.4199046 35.4667143,37.4199046 L24.501,37.4199046 C23.4717143,37.4199046 22.6368571,36.5700414 22.6368571,35.5609183 C22.6368571,34.5374733 23.4717143,33.7026481 24.501,33.7026481 L35.4667143,33.7026481 C36.4907143,33.7027913 37.3211429,34.5374733 37.3211429,35.5609183 Z M24.501,26.2593988 L29.8977143,26.2593988 C30.9272857,26.2593988 31.762,25.4106813 31.762,24.3905303 C31.762,23.3680879 30.9272857,22.5302551 29.8977143,22.5302551 L24.501,22.5302551 C23.4717143,22.5302551 22.6368571,23.3682311 22.6368571,24.3905303 C22.6368571,25.4108245 23.4717143,26.2593988 24.501,26.2593988 Z M60,29.9995703 C60,46.568466 46.5678571,60 30,60 C13.4311429,60 0,46.568466 0,29.9995703 C0,13.4316772 13.4311429,0 30,0 C46.5678571,-5.08817106e-15 60,13.4316772 60,29.9995703 Z M45.3544286,27.8157627 L45.264,27.3843862 L45.0048571,26.8473139 L44.5724286,26.5075978 C44.0065714,26.0631883 41.143,26.5366713 40.373,25.8347536 C39.8254286,25.3300488 39.7404286,24.4208928 39.5758571,23.1936468 C39.2682857,20.8060381 39.0735714,20.683156 38.7025714,19.8775475 C37.3535714,17.0078627 33.6961429,14.8499778 31.1832857,14.5502198 L24.3774286,14.5502198 C19.0225714,14.5502198 14.6455714,18.9469086 14.6455714,24.3153402 L14.6455714,35.7055698 C14.6455714,41.0631167 19.0225714,45.4512124 24.3774286,45.4512124 L35.5602857,45.4512124 C40.915,45.4512124 45.2641429,41.0631167 45.2942857,35.7055698 L45.3544286,27.8157627 Z" id="Shape"></path>
                </g>
                <g id="Blog-Copy" transform="translate(513.000000, 92.000000)" fill="#BAC6E0">
                    <path d="M37.3211429,35.5609183 C37.3211429,36.5701846 36.4907143,37.4199046 35.4667143,37.4199046 L24.501,37.4199046 C23.4717143,37.4199046 22.6368571,36.5700414 22.6368571,35.5609183 C22.6368571,34.5374733 23.4717143,33.7026481 24.501,33.7026481 L35.4667143,33.7026481 C36.4907143,33.7027913 37.3211429,34.5374733 37.3211429,35.5609183 Z M24.501,26.2593988 L29.8977143,26.2593988 C30.9272857,26.2593988 31.762,25.4106813 31.762,24.3905303 C31.762,23.3680879 30.9272857,22.5302551 29.8977143,22.5302551 L24.501,22.5302551 C23.4717143,22.5302551 22.6368571,23.3682311 22.6368571,24.3905303 C22.6368571,25.4108245 23.4717143,26.2593988 24.501,26.2593988 Z M60,29.9995703 C60,46.568466 46.5678571,60 30,60 C13.4311429,60 0,46.568466 0,29.9995703 C0,13.4316772 13.4311429,0 30,0 C46.5678571,-5.08817106e-15 60,13.4316772 60,29.9995703 Z M45.3544286,27.8157627 L45.264,27.3843862 L45.0048571,26.8473139 L44.5724286,26.5075978 C44.0065714,26.0631883 41.143,26.5366713 40.373,25.8347536 C39.8254286,25.3300488 39.7404286,24.4208928 39.5758571,23.1936468 C39.2682857,20.8060381 39.0735714,20.683156 38.7025714,19.8775475 C37.3535714,17.0078627 33.6961429,14.8499778 31.1832857,14.5502198 L24.3774286,14.5502198 C19.0225714,14.5502198 14.6455714,18.9469086 14.6455714,24.3153402 L14.6455714,35.7055698 C14.6455714,41.0631167 19.0225714,45.4512124 24.3774286,45.4512124 L35.5602857,45.4512124 C40.915,45.4512124 45.2641429,41.0631167 45.2942857,35.7055698 L45.3544286,27.8157627 Z" id="Shape"></path>
                </g>
                <g id="SocialMedia" fill="#93A6CE">
                    <path d="M29.2694432,0.282926829 C13.6401289,0.282926829 0.852508053,13.0146341 0.852508053,28.5756098 C0.852508053,44.1365854 13.6401289,56.8682927 29.2694432,56.8682927 C44.8987575,56.8682927 57.6863783,44.1365854 57.6863783,28.5756098 C57.6863783,13.0146341 44.8987575,0.282926829 29.2694432,0.282926829 Z M45.4670962,19.5219512 L41.9149793,19.5219512 C39.0732858,19.5219512 38.5049471,20.795122 38.5049471,22.7756098 L38.5049471,27.1609756 L45.1829268,27.1609756 L44.3304188,33.9512195 L38.5049471,33.9512195 L38.5049471,51.3512195 L31.542798,51.3512195 L31.542798,33.9512195 L25.7173263,33.9512195 L25.7173263,27.1609756 L31.542798,27.1609756 L31.542798,22.2097561 C31.542798,16.4097561 35.0949149,13.297561 40.2099632,13.297561 C42.7674873,13.297561 44.8987575,13.4390244 45.4670962,13.5804878 L45.4670962,19.5219512 L45.4670962,19.5219512 Z" id="Shape"></path>
                    <path d="M202.044409,0.282926829 C186.415094,0.282926829 173.627474,13.0146341 173.627474,28.5756098 C173.627474,44.1365854 186.415094,56.8682927 202.044409,56.8682927 C217.673723,56.8682927 230.461344,44.1365854 230.461344,28.5756098 C230.461344,13.0146341 217.673723,0.282926829 202.044409,0.282926829 Z M217.531638,40.1756098 C217.531638,42.297561 215.684538,44.1365854 213.553267,44.1365854 L190.53555,44.1365854 C188.40428,44.1365854 186.557179,42.297561 186.557179,40.1756098 L186.557179,17.2585366 C186.557179,15.1365854 188.40428,13.297561 190.53555,13.297561 L213.553267,13.297561 C215.684538,13.297561 217.531638,15.1365854 217.531638,17.2585366 L217.531638,40.1756098 Z" id="Shape"></path>
                    <ellipse id="Oval" cx="202.044409" cy="28.5756098" rx="6.25172572" ry="5.94146341"></ellipse>
                    <path d="M211.706167,28.8585366 C211.706167,33.9512195 207.443626,38.195122 202.044409,38.195122 C196.787276,38.195122 192.382651,34.0926829 192.382651,28.8585366 C192.382651,27.8682927 192.524735,27.0195122 192.808905,26.1707317 L189.967211,26.1707317 L189.967211,39.1853659 C189.967211,39.8926829 190.53555,40.4585366 191.245973,40.4585366 L212.842844,40.4585366 C213.553267,40.4585366 214.121606,39.8926829 214.121606,39.1853659 L214.121606,26.1707317 L211.421997,26.1707317 C211.564082,27.1609756 211.706167,28.0097561 211.706167,28.8585366 Z" id="Shape"></path>
                    <path d="M209.006558,22.7756098 L212.558675,22.7756098 C213.269098,22.7756098 213.979521,22.2097561 213.979521,21.3609756 L213.979521,17.9658537 C213.979521,17.2585366 213.411183,16.5512195 212.558675,16.5512195 L209.006558,16.5512195 C208.296134,16.5512195 207.585711,17.1170732 207.585711,17.9658537 L207.585711,21.3609756 C207.727796,22.0682927 208.296134,22.7756098 209.006558,22.7756098 Z" id="Shape"></path>
                    <path d="M115.656926,0.282926829 C100.027612,0.282926829 87.2399908,13.0146341 87.2399908,28.5756098 C87.2399908,44.1365854 100.027612,56.8682927 115.656926,56.8682927 C131.28624,56.8682927 144.073861,44.1365854 144.073861,28.5756098 C144.073861,13.0146341 131.28624,0.282926829 115.656926,0.282926829 Z M131.428325,19.9463415 C130.717902,20.795122 130.007478,21.502439 129.012885,22.2097561 C128.870801,22.2097561 128.870801,22.3512195 128.870801,22.3512195 C128.870801,23.3414634 128.870801,24.3317073 128.728716,25.1804878 C128.444547,27.1609756 127.876208,29.1414634 127.0237,30.8390244 C126.171192,32.6780488 125.034514,34.3756098 123.471583,35.9317073 C121.056144,38.4780488 118.072365,40.0341463 114.520249,40.8829268 C113.383571,41.1658537 112.104809,41.3073171 110.968132,41.3073171 C107.27393,41.4487805 103.863898,40.4585366 100.59595,38.4780488 C100.59595,38.4780488 100.453866,38.4780488 100.453866,38.3365854 C102.72722,38.6195122 104.858491,38.3365854 106.989761,37.4878049 C108.126438,37.0634146 109.121031,36.497561 110.115624,35.6487805 C106.705591,35.5073171 104.716406,33.102439 104.148067,31.1219512 C105.14266,31.2634146 105.995168,31.2634146 106.989761,30.9804878 C106.989761,30.9804878 106.989761,30.9804878 107.131845,30.9804878 C105.284745,30.5560976 103.863898,29.5658537 102.869305,28.0097561 C102.158882,27.0195122 101.874712,25.8878049 101.874712,24.6146341 C102.72722,25.0390244 103.721813,25.3219512 104.716406,25.4634146 C103.295559,24.4731707 102.443051,23.2 102.016797,21.502439 C101.590543,19.804878 101.874712,18.2487805 102.72722,16.8341463 C106.279337,20.9365854 110.683962,23.2 116.08318,23.6243902 C116.08318,23.3414634 115.941095,23.2 115.941095,22.9170732 C115.799011,21.3609756 116.08318,19.9463415 116.935688,18.6731707 C117.930281,17.1170732 119.493212,16.1268293 121.340313,15.702439 C123.471583,15.2780488 125.460769,15.9853659 127.0237,17.5414634 C127.165785,17.6829268 127.165785,17.6829268 127.307869,17.6829268 C128.586631,17.4 129.865393,16.9756098 131.002071,16.2682927 C131.002071,16.2682927 131.002071,16.2682927 131.144156,16.2682927 C131.144156,16.2682927 131.144156,16.2682927 131.144156,16.2682927 C130.575817,17.8243902 129.723309,18.9560976 128.444547,19.804878 C129.723309,19.6634146 130.859986,19.3804878 131.996664,18.8146341 C131.996664,18.8146341 131.996664,18.8146341 131.996664,18.8146341 C131.996664,19.2390244 131.712494,19.6634146 131.428325,19.9463415 Z" id="Shape"></path>
                    <path d="M288.431891,0.282926829 C272.802577,0.282926829 260.014956,13.0146341 260.014956,28.5756098 C260.014956,44.1365854 272.802577,56.8682927 288.431891,56.8682927 C304.061206,56.8682927 316.848827,44.1365854 316.848827,28.5756098 C316.848827,13.0146341 304.061206,0.282926829 288.431891,0.282926829 Z M281.611827,42.8634146 L275.644271,42.8634146 L275.644271,23.9073171 L281.611827,23.9073171 L281.611827,42.8634146 Z M278.770133,21.2195122 C276.923033,21.2195122 275.360101,19.6634146 275.360101,17.8243902 C275.360101,15.9853659 276.923033,14.4292683 278.770133,14.4292683 C280.617234,14.4292683 282.180166,15.9853659 282.180166,17.8243902 C282.180166,19.804878 280.617234,21.2195122 278.770133,21.2195122 Z M303.919121,42.8634146 L297.951565,42.8634146 L297.951565,33.6682927 C297.951565,31.404878 297.951565,28.5756098 294.825702,28.5756098 C291.699839,28.5756098 291.273585,30.9804878 291.273585,33.3853659 L291.273585,42.7219512 L285.306029,42.7219512 L285.306029,23.7658537 L290.989416,23.7658537 L290.989416,26.3121951 L291.1315,26.3121951 C291.984008,24.7560976 293.831109,23.2 296.672803,23.2 C302.640359,23.2 303.777036,27.1609756 303.777036,32.2536585 L303.777036,42.8634146 L303.919121,42.8634146 Z" id="Shape"></path>
                    <path d="M374.819374,0.282926829 C359.19006,0.282926829 346.402439,13.0146341 346.402439,28.5756098 C346.402439,44.1365854 359.19006,56.8682927 374.819374,56.8682927 C390.448688,56.8682927 403.236309,44.1365854 403.236309,28.5756098 C403.236309,13.0146341 390.448688,0.282926829 374.819374,0.282926829 Z M389.59618,37.204878 C389.169926,38.0536585 388.601588,38.4780488 387.891164,38.902439 C385.901979,40.0341463 364.731362,39.8926829 362.031753,39.0439024 C360.895076,38.6195122 360.042568,37.9121951 359.616314,36.6390244 C358.621721,33.8097561 358.195467,21.6439024 360.326737,19.2390244 C361.037161,18.3902439 361.889669,17.9658537 363.026346,17.8243902 C368.567648,17.2585366 385.475725,17.2585366 387.46491,17.9658537 C388.601588,18.3902439 389.454096,19.097561 389.88035,20.2292683 C391.017027,23.4829268 391.017027,34.3756098 389.59618,37.204878 Z" id="Shape"></path>
                    <path d="M370.841003,33.3853659 C374.108951,31.6878049 377.376898,29.9902439 380.786931,28.2926829 C377.518983,26.595122 374.251035,24.897561 370.841003,23.2 L370.841003,33.3853659 Z" id="Shape"></path>
                </g>
                <g id="SocialMedia-Copy" transform="translate(0.000000, 92.000000)" fill="#BAC6E0">
                    <path d="M29.2694432,0.282926829 C13.6401289,0.282926829 0.852508053,13.0146341 0.852508053,28.5756098 C0.852508053,44.1365854 13.6401289,56.8682927 29.2694432,56.8682927 C44.8987575,56.8682927 57.6863783,44.1365854 57.6863783,28.5756098 C57.6863783,13.0146341 44.8987575,0.282926829 29.2694432,0.282926829 Z M45.4670962,19.5219512 L41.9149793,19.5219512 C39.0732858,19.5219512 38.5049471,20.795122 38.5049471,22.7756098 L38.5049471,27.1609756 L45.1829268,27.1609756 L44.3304188,33.9512195 L38.5049471,33.9512195 L38.5049471,51.3512195 L31.542798,51.3512195 L31.542798,33.9512195 L25.7173263,33.9512195 L25.7173263,27.1609756 L31.542798,27.1609756 L31.542798,22.2097561 C31.542798,16.4097561 35.0949149,13.297561 40.2099632,13.297561 C42.7674873,13.297561 44.8987575,13.4390244 45.4670962,13.5804878 L45.4670962,19.5219512 L45.4670962,19.5219512 Z" id="Shape"></path>
                    <path d="M202.044409,0.282926829 C186.415094,0.282926829 173.627474,13.0146341 173.627474,28.5756098 C173.627474,44.1365854 186.415094,56.8682927 202.044409,56.8682927 C217.673723,56.8682927 230.461344,44.1365854 230.461344,28.5756098 C230.461344,13.0146341 217.673723,0.282926829 202.044409,0.282926829 Z M217.531638,40.1756098 C217.531638,42.297561 215.684538,44.1365854 213.553267,44.1365854 L190.53555,44.1365854 C188.40428,44.1365854 186.557179,42.297561 186.557179,40.1756098 L186.557179,17.2585366 C186.557179,15.1365854 188.40428,13.297561 190.53555,13.297561 L213.553267,13.297561 C215.684538,13.297561 217.531638,15.1365854 217.531638,17.2585366 L217.531638,40.1756098 Z" id="Shape"></path>
                    <ellipse id="Oval" cx="202.044409" cy="28.5756098" rx="6.25172572" ry="5.94146341"></ellipse>
                    <path d="M211.706167,28.8585366 C211.706167,33.9512195 207.443626,38.195122 202.044409,38.195122 C196.787276,38.195122 192.382651,34.0926829 192.382651,28.8585366 C192.382651,27.8682927 192.524735,27.0195122 192.808905,26.1707317 L189.967211,26.1707317 L189.967211,39.1853659 C189.967211,39.8926829 190.53555,40.4585366 191.245973,40.4585366 L212.842844,40.4585366 C213.553267,40.4585366 214.121606,39.8926829 214.121606,39.1853659 L214.121606,26.1707317 L211.421997,26.1707317 C211.564082,27.1609756 211.706167,28.0097561 211.706167,28.8585366 Z" id="Shape"></path>
                    <path d="M209.006558,22.7756098 L212.558675,22.7756098 C213.269098,22.7756098 213.979521,22.2097561 213.979521,21.3609756 L213.979521,17.9658537 C213.979521,17.2585366 213.411183,16.5512195 212.558675,16.5512195 L209.006558,16.5512195 C208.296134,16.5512195 207.585711,17.1170732 207.585711,17.9658537 L207.585711,21.3609756 C207.727796,22.0682927 208.296134,22.7756098 209.006558,22.7756098 Z" id="Shape"></path>
                    <path d="M115.656926,0.282926829 C100.027612,0.282926829 87.2399908,13.0146341 87.2399908,28.5756098 C87.2399908,44.1365854 100.027612,56.8682927 115.656926,56.8682927 C131.28624,56.8682927 144.073861,44.1365854 144.073861,28.5756098 C144.073861,13.0146341 131.28624,0.282926829 115.656926,0.282926829 Z M131.428325,19.9463415 C130.717902,20.795122 130.007478,21.502439 129.012885,22.2097561 C128.870801,22.2097561 128.870801,22.3512195 128.870801,22.3512195 C128.870801,23.3414634 128.870801,24.3317073 128.728716,25.1804878 C128.444547,27.1609756 127.876208,29.1414634 127.0237,30.8390244 C126.171192,32.6780488 125.034514,34.3756098 123.471583,35.9317073 C121.056144,38.4780488 118.072365,40.0341463 114.520249,40.8829268 C113.383571,41.1658537 112.104809,41.3073171 110.968132,41.3073171 C107.27393,41.4487805 103.863898,40.4585366 100.59595,38.4780488 C100.59595,38.4780488 100.453866,38.4780488 100.453866,38.3365854 C102.72722,38.6195122 104.858491,38.3365854 106.989761,37.4878049 C108.126438,37.0634146 109.121031,36.497561 110.115624,35.6487805 C106.705591,35.5073171 104.716406,33.102439 104.148067,31.1219512 C105.14266,31.2634146 105.995168,31.2634146 106.989761,30.9804878 C106.989761,30.9804878 106.989761,30.9804878 107.131845,30.9804878 C105.284745,30.5560976 103.863898,29.5658537 102.869305,28.0097561 C102.158882,27.0195122 101.874712,25.8878049 101.874712,24.6146341 C102.72722,25.0390244 103.721813,25.3219512 104.716406,25.4634146 C103.295559,24.4731707 102.443051,23.2 102.016797,21.502439 C101.590543,19.804878 101.874712,18.2487805 102.72722,16.8341463 C106.279337,20.9365854 110.683962,23.2 116.08318,23.6243902 C116.08318,23.3414634 115.941095,23.2 115.941095,22.9170732 C115.799011,21.3609756 116.08318,19.9463415 116.935688,18.6731707 C117.930281,17.1170732 119.493212,16.1268293 121.340313,15.702439 C123.471583,15.2780488 125.460769,15.9853659 127.0237,17.5414634 C127.165785,17.6829268 127.165785,17.6829268 127.307869,17.6829268 C128.586631,17.4 129.865393,16.9756098 131.002071,16.2682927 C131.002071,16.2682927 131.002071,16.2682927 131.144156,16.2682927 C131.144156,16.2682927 131.144156,16.2682927 131.144156,16.2682927 C130.575817,17.8243902 129.723309,18.9560976 128.444547,19.804878 C129.723309,19.6634146 130.859986,19.3804878 131.996664,18.8146341 C131.996664,18.8146341 131.996664,18.8146341 131.996664,18.8146341 C131.996664,19.2390244 131.712494,19.6634146 131.428325,19.9463415 Z" id="Shape"></path>
                    <path d="M288.431891,0.282926829 C272.802577,0.282926829 260.014956,13.0146341 260.014956,28.5756098 C260.014956,44.1365854 272.802577,56.8682927 288.431891,56.8682927 C304.061206,56.8682927 316.848827,44.1365854 316.848827,28.5756098 C316.848827,13.0146341 304.061206,0.282926829 288.431891,0.282926829 Z M281.611827,42.8634146 L275.644271,42.8634146 L275.644271,23.9073171 L281.611827,23.9073171 L281.611827,42.8634146 Z M278.770133,21.2195122 C276.923033,21.2195122 275.360101,19.6634146 275.360101,17.8243902 C275.360101,15.9853659 276.923033,14.4292683 278.770133,14.4292683 C280.617234,14.4292683 282.180166,15.9853659 282.180166,17.8243902 C282.180166,19.804878 280.617234,21.2195122 278.770133,21.2195122 Z M303.919121,42.8634146 L297.951565,42.8634146 L297.951565,33.6682927 C297.951565,31.404878 297.951565,28.5756098 294.825702,28.5756098 C291.699839,28.5756098 291.273585,30.9804878 291.273585,33.3853659 L291.273585,42.7219512 L285.306029,42.7219512 L285.306029,23.7658537 L290.989416,23.7658537 L290.989416,26.3121951 L291.1315,26.3121951 C291.984008,24.7560976 293.831109,23.2 296.672803,23.2 C302.640359,23.2 303.777036,27.1609756 303.777036,32.2536585 L303.777036,42.8634146 L303.919121,42.8634146 Z" id="Shape"></path>
                    <path d="M374.819374,0.282926829 C359.19006,0.282926829 346.402439,13.0146341 346.402439,28.5756098 C346.402439,44.1365854 359.19006,56.8682927 374.819374,56.8682927 C390.448688,56.8682927 403.236309,44.1365854 403.236309,28.5756098 C403.236309,13.0146341 390.448688,0.282926829 374.819374,0.282926829 Z M389.59618,37.204878 C389.169926,38.0536585 388.601588,38.4780488 387.891164,38.902439 C385.901979,40.0341463 364.731362,39.8926829 362.031753,39.0439024 C360.895076,38.6195122 360.042568,37.9121951 359.616314,36.6390244 C358.621721,33.8097561 358.195467,21.6439024 360.326737,19.2390244 C361.037161,18.3902439 361.889669,17.9658537 363.026346,17.8243902 C368.567648,17.2585366 385.475725,17.2585366 387.46491,17.9658537 C388.601588,18.3902439 389.454096,19.097561 389.88035,20.2292683 C391.017027,23.4829268 391.017027,34.3756098 389.59618,37.204878 Z" id="Shape"></path>
                    <path d="M370.841003,33.3853659 C374.108951,31.6878049 377.376898,29.9902439 380.786931,28.2926829 C377.518983,26.595122 374.251035,24.897561 370.841003,23.2 L370.841003,33.3853659 Z" id="Shape"></path>
                </g>
                <g id="Spotify_logo_without_text" transform="translate(435.000000, 0.000000)" fill="#93A6CE">
                    <path d="M28.4136478,0.0933061312 C12.7688219,0.0933061312 0.0855832766,12.7226447 0.0855832766,28.3014001 C0.0855832766,43.8808293 12.7688219,56.5091573 28.4136478,56.5091573 C44.0601651,56.5091573 56.7420506,43.8808293 56.7420506,28.3014001 C56.7420506,12.7236552 44.0601651,0.0946535122 28.4133095,0.0946535122 L28.4136478,0.0933061312 Z M41.4047156,40.7774741 C40.8973049,41.6061134 39.8080632,41.8688527 38.9759096,41.3602164 C32.3247697,37.314705 23.9518161,36.398486 14.0911343,38.6418753 C13.1409231,38.8574562 12.1937564,38.2646086 11.9772612,37.3180735 C11.7597511,36.3715384 12.3527451,35.4283717 13.3053242,35.2127907 C24.0962591,32.7568521 33.3524456,33.814883 40.8195019,38.3589253 C41.6516555,38.8675616 41.9155091,39.9488348 41.4047156,40.7774741 L41.4047156,40.7774741 Z M44.8720223,33.0957184 C44.2326848,34.1315175 42.872824,34.4582574 41.8343234,33.8216199 C34.2197797,29.1600187 22.6125901,27.8102798 13.6060496,30.532663 C12.4379901,30.8839926 11.2043055,30.2284917 10.8497945,29.0673862 C10.4979897,27.9042596 11.1566089,26.6781429 12.3226387,26.3244554 C22.6105604,23.2160476 35.4003553,24.7217458 44.1447336,30.0725324 C45.1832342,30.7091699 45.5113598,32.0632878 44.8720223,33.0960553 L44.8720223,33.0957184 Z M45.1697032,25.0976651 C36.0396928,19.697699 20.9763596,19.2011892 12.2593815,21.8356558 C10.8596045,22.2583965 9.37931822,21.4715261 8.95512285,20.0776605 C8.53092748,18.6831212 9.32045857,17.210097 10.7212505,16.7863456 C20.7277283,13.7614754 37.3623435,14.3459019 47.8738642,20.559686 C49.1356255,21.3037771 49.5483196,22.9229922 48.8007344,24.175046 C48.056532,25.4287839 46.4260522,25.842093 45.1710563,25.0976651 L45.1697032,25.0976651 Z" id="Shape"></path>
                </g>
                <g id="Spotify_logo_without_text-Copy" transform="translate(435.000000, 92.000000)" fill="#BAC6E0">
                    <path d="M28.4136478,0.0933061312 C12.7688219,0.0933061312 0.0855832766,12.7226447 0.0855832766,28.3014001 C0.0855832766,43.8808293 12.7688219,56.5091573 28.4136478,56.5091573 C44.0601651,56.5091573 56.7420506,43.8808293 56.7420506,28.3014001 C56.7420506,12.7236552 44.0601651,0.0946535122 28.4133095,0.0946535122 L28.4136478,0.0933061312 Z M41.4047156,40.7774741 C40.8973049,41.6061134 39.8080632,41.8688527 38.9759096,41.3602164 C32.3247697,37.314705 23.9518161,36.398486 14.0911343,38.6418753 C13.1409231,38.8574562 12.1937564,38.2646086 11.9772612,37.3180735 C11.7597511,36.3715384 12.3527451,35.4283717 13.3053242,35.2127907 C24.0962591,32.7568521 33.3524456,33.814883 40.8195019,38.3589253 C41.6516555,38.8675616 41.9155091,39.9488348 41.4047156,40.7774741 L41.4047156,40.7774741 Z M44.8720223,33.0957184 C44.2326848,34.1315175 42.872824,34.4582574 41.8343234,33.8216199 C34.2197797,29.1600187 22.6125901,27.8102798 13.6060496,30.532663 C12.4379901,30.8839926 11.2043055,30.2284917 10.8497945,29.0673862 C10.4979897,27.9042596 11.1566089,26.6781429 12.3226387,26.3244554 C22.6105604,23.2160476 35.4003553,24.7217458 44.1447336,30.0725324 C45.1832342,30.7091699 45.5113598,32.0632878 44.8720223,33.0960553 L44.8720223,33.0957184 Z M45.1697032,25.0976651 C36.0396928,19.697699 20.9763596,19.2011892 12.2593815,21.8356558 C10.8596045,22.2583965 9.37931822,21.4715261 8.95512285,20.0776605 C8.53092748,18.6831212 9.32045857,17.210097 10.7212505,16.7863456 C20.7277283,13.7614754 37.3623435,14.3459019 47.8738642,20.559686 C49.1356255,21.3037771 49.5483196,22.9229922 48.8007344,24.175046 C48.056532,25.4287839 46.4260522,25.842093 45.1710563,25.0976651 L45.1697032,25.0976651 Z" id="Shape"></path>
                </g>
            </g>
        </g>
    </g>
</svg>