<?xml version="1.0" encoding="UTF-8" standalone="no"?>
<svg width="30px" height="30px" viewBox="0 0 30 30" version="1.1" xmlns="http://www.w3.org/2000/svg" xmlns:xlink="http://www.w3.org/1999/xlink">
    <!-- Generator: Sketch 47.1 (45422) - http://www.bohemiancoding.com/sketch -->
    <title>Artboard</title>
    <desc>Created with Sketch.</desc>
    <defs></defs>
    <g id="Page-1" stroke="none" stroke-width="1" fill="none" fill-rule="evenodd">
        <g id="Artboard" fill-rule="nonzero" fill="#CCCCCC">
            <g id="view-calendar" transform="translate(1.000000, 1.000000)">
                <path d="M0,0 L7.67123288,0 L7.67123288,7.84 L0,7.84 L0,0 Z M0,10.08 L7.67123288,10.08 L7.67123288,17.92 L0,17.92 L0,10.08 Z M0,20.16 L7.67123288,20.16 L7.67123288,28 L0,28 L0,20.16 Z M9.5890411,0 L17.6438356,0 L17.6438356,7.84 L9.5890411,7.84 L9.5890411,0 Z M9.5890411,10.08 L17.6438356,10.08 L17.6438356,17.92 L9.5890411,17.92 L9.5890411,10.08 Z M9.5890411,20.16 L17.6438356,20.16 L17.6438356,28 L9.5890411,28 L9.5890411,20.16 Z M19.9452055,0 L28,0 L28,7.84 L19.9452055,7.84 L19.9452055,0 Z M19.9452055,10.08 L28,10.08 L28,17.92 L19.9452055,17.92 L19.9452055,10.08 Z M19.9452055,20.16 L28,20.16 L28,28 L19.9452055,28 L19.9452055,20.16 Z" id="ico_calendar"></path>
            </g>
        </g>
    </g>
</svg>