<?xml version="1.0" encoding="UTF-8" standalone="no"?>
<svg width="32px" height="32px" viewBox="0 0 32 32" version="1.1" xmlns="http://www.w3.org/2000/svg" xmlns:xlink="http://www.w3.org/1999/xlink">
    <!-- Generator: Sketch 47.1 (45422) - http://www.bohemiancoding.com/sketch -->
    <title>Artboard</title>
    <desc>Created with Sketch.</desc>
    <defs></defs>
    <g id="Page-1" stroke="none" stroke-width="1" fill="none" fill-rule="evenodd">
        <g id="Artboard"></g>
        <path d="M2,2 L9.67123288,2 L9.67123288,9.84 L2,9.84 L2,2 Z M2,12.08 L9.67123288,12.08 L9.67123288,19.92 L2,19.92 L2,12.08 Z M2,22.16 L9.67123288,22.16 L9.67123288,30 L2,30 L2,22.16 Z M11.5890411,2 L19.6438356,2 L19.6438356,9.84 L11.5890411,9.84 L11.5890411,2 Z M11.5890411,12.08 L19.6438356,12.08 L19.6438356,19.92 L11.5890411,19.92 L11.5890411,12.08 Z M11.5890411,22.16 L19.6438356,22.16 L19.6438356,30 L11.5890411,30 L11.5890411,22.16 Z M21.9452055,2 L30,2 L30,9.84 L21.9452055,9.84 L21.9452055,2 Z M21.9452055,12.08 L30,12.08 L30,19.92 L21.9452055,19.92 L21.9452055,12.08 Z M21.9452055,22.16 L30,22.16 L30,30 L21.9452055,30 L21.9452055,22.16 Z" id="ico_calendar" fill="#7AB5E2" fill-rule="nonzero"></path>
    </g>
</svg>