<?xml version="1.0" encoding="UTF-8"?>
<svg width="13px" height="13px" viewBox="0 0 13 13" version="1.1" xmlns="http://www.w3.org/2000/svg" xmlns:xlink="http://www.w3.org/1999/xlink">
    <!-- Generator: Sketch 46.2 (44496) - http://www.bohemiancoding.com/sketch -->
    <title>Icn_Ruta Copy 4</title>
    <desc>Created with Sketch.</desc>
    <defs></defs>
    <g id="Page-1" stroke="none" stroke-width="1" fill="none" fill-rule="evenodd">
        <g id="Artboard" transform="translate(-369.000000, -193.000000)" fill="#6CADDF">
            <g id="Group-4" transform="translate(294.000000, 173.000000)">
                <path d="M83.1092781,27.5927443 C82.6647795,28.4971221 82.2615715,29.4015 81.8583635,30.3058778 C81.5783651,30.9182014 81.2983666,31.4834232 81.0183682,32.0957469 C80.8317025,32.5667651 80.2250392,32.7551723 79.8983744,32.7551723 C79.7117087,32.7551723 79.6650423,32.6609687 79.6650423,32.4725614 C79.7117087,32.2841542 79.7583751,32.1428487 79.7583751,31.9544414 C80.0381754,30.4953185 80.3645761,29.0361956 80.6444423,27.5300707 C79.7462149,27.4899633 78.8470849,27.4376449 77.9383852,27.3949854 L77.7050532,27.3949854 C77.4717211,27.3478836 77.2850555,27.4420873 77.1917227,27.6304945 C77.005057,27.9602073 76.771725,28.28992 76.5383929,28.6196327 C76.3517273,28.9022436 76.1183953,29.0435491 75.7917304,28.9964473 C75.6983976,28.9964473 75.5583984,28.9964473 75.4650655,28.9493454 C75.2317335,28.9022436 75.1850671,28.80804 75.2783999,28.5725309 C75.511732,28.1015127 75.745064,27.6775963 75.978396,27.2065782 C76.0250624,27.2065782 76.0250624,27.1123745 76.0717289,27.0652727 L75.6050648,27.0652727 C75.511732,27.0652727 75.4183991,27.0652727 75.3717327,27.0181709 C75.2783999,26.9710691 75.2783999,26.8297636 75.1850671,26.7826618 C75.2783999,26.73556 75.3250663,26.6884582 75.4183991,26.6413563 C75.6050648,26.5942545 75.8383968,26.5942545 76.0250624,26.5471527 C75.8383968,26.21744 75.6517312,25.8877273 75.4650655,25.5580145 C75.3250663,25.3225054 75.1850671,25.0869964 75.0450679,24.8043854 C74.9517351,24.5688764 74.9984015,24.5217745 75.2317335,24.5217745 L75.7917304,24.5217745 C76.0250624,24.5217745 76.1650617,24.6159782 76.3050609,24.7572836 C76.5850594,25.1812 76.9117242,25.5580145 77.1917227,25.9819309 C77.2383891,26.0290327 77.3317219,26.0761345 77.3783883,26.0761345 C78.4517157,25.9819309 79.4783767,25.8877273 80.5517041,25.8406254 C80.5517041,25.8406254 80.5983705,25.8406254 80.5983705,25.7935236 C80.5517041,25.5109127 80.4583713,25.2283018 80.4117049,24.9456909 C80.0383736,23.3442291 79.6650423,21.7898691 79.2450446,20.1884073 C79.1983782,20.0471018 79.2450446,20 79.3850439,20 C79.9450408,20 80.318372,20.2355091 80.5517041,20.7536291 C81.2517002,22.0253782 81.9516963,23.3442291 82.6516925,24.6159782 C82.7916917,24.8985891 82.9783573,25.1812 83.1183566,25.4638109 C83.165023,25.5580145 83.2116894,25.6051164 83.3516886,25.6051164 C84.3316832,25.5109127 85.3116778,25.5109127 86.2916723,25.7464218 C86.5716708,25.7935236 86.8516692,25.9348291 87.0850013,26.1232363 C87.4116661,26.3587454 87.4116661,26.6884582 87.0850013,26.9239673 C86.8050028,27.1123745 86.478338,27.25368 86.1983395,27.3478836 C85.451677,27.5833927 84.7050144,27.5833927 83.9116855,27.5833927 C83.6434568,27.5896888 83.376062,27.5926185 83.1092781,27.5927443 Z" id="Icn_Ruta-Copy-4"></path>
            </g>
        </g>
    </g>
</svg>