<?xml version="1.0" encoding="UTF-8" standalone="no"?>
<svg width="39px" height="41px" viewBox="0 0 39 41" version="1.1" xmlns="http://www.w3.org/2000/svg" xmlns:xlink="http://www.w3.org/1999/xlink">
    <!-- Generator: Sketch 47.1 (45422) - http://www.bohemiancoding.com/sketch -->
    <title>Artboard</title>
    <desc>Created with Sketch.</desc>
    <defs></defs>
    <g id="Page-1" stroke="none" stroke-width="1" fill="none" fill-rule="evenodd">
        <g id="Artboard">
            <g id="Logo-Interjet-Copy" transform="translate(2.000000, 3.000000)">
                <path d="M19.9846143,12.5247386 L19.9846143,6.605641 L19.9846143,2.16541821 C19.9846143,0.967925389 19.0105209,0 17.8036412,0 C16.6061451,0 15.6367436,0.967925389 15.6367436,2.16541821 L15.6367436,6.61715535 L15.6367436,12.5258181 L11.4357627,8.3417897 L8.28610985,5.20772645 C7.43580823,4.35926249 6.05857947,4.35926249 5.21369149,5.2084461 C4.3644726,6.05079306 4.3644726,7.42244049 5.21369149,8.26658657 L8.37056256,11.4172017 L12.5553025,15.587197 L3.59826278,15.587197 L2.1762813,15.587197 C0.978424313,15.587197 0,16.5598001 0,17.7583724 C0,18.9569447 0.978424313,19.9306272 2.1762813,19.9306272 L3.4907119,19.927029 L6.62845479,19.9227111 L12.5592725,19.9227111 L8.37056256,24.1031413 L6.22315398,26.245171 L5.21838331,27.2472796 C4.36880351,28.0921453 4.36880351,29.4684705 5.21838331,30.3162148 C6.06832401,31.1643189 7.45024459,31.1643189 8.29765894,30.3162148 L9.22844326,29.3925477 L11.4422591,27.1727961 L15.6367436,22.9898472 L15.6367436,28.9017484 L15.6367436,31.9325422 L15.6367436,33.3459292 C15.6367436,34.5466604 16.6140851,35.520343 17.8137467,35.520343 C19.0159346,35.520343 19.9893062,34.5466604 19.9893062,33.3459292 L19.9893062,32.0383304 L19.9846143,28.9093047 L19.9846143,22.9938052 L24.1758506,27.1727961 L26.3272292,29.3151856 L27.3301953,30.3162148 C28.1768879,31.1643189 29.5580866,31.1643189 30.4109146,30.3162148 C31.2583289,29.4684705 31.2583289,28.0921453 30.4109146,27.2472796 L29.4801303,26.3192946 L27.2572917,24.1103378 L23.0674991,19.9227111 L29.0019258,19.9227111 L33.4569866,19.9169539 C34.6534,19.9169539 35.6278543,18.9465098 35.6278543,17.752975 C35.6278543,16.5554822 34.6534,15.587197 33.4569866,15.587197 L28.9914595,15.587197 L23.0620854,15.587197 L27.2572917,11.4020891 L30.4029746,8.2547124 C31.2496671,7.41308508 31.2496671,6.03999836 30.4029746,5.19585227 C29.5530339,4.35062672 28.1768879,4.35062672 27.3319999,5.19585227 L24.1740461,8.34610758 L19.9846143,12.5247386 Z" id="Fill-1276" fill="#6CADDF"></path>
                <path d="M27.2532856,24.1093662 C28.1021436,24.9538722 28.1021436,26.328758 27.2532856,27.1736237 C26.4073149,28.0228073 25.0297252,28.0228073 24.1758145,27.1736237 L20.3400736,23.3469001 L16.9031372,19.9220994 L6.63563688,19.9220994 C5.43597535,19.9220994 4.46332558,18.954174 4.46332558,17.7556017 C4.46332558,16.5581089 5.43597535,15.5869451 6.63563688,15.5869451 L16.9031372,15.5869451 L19.9845783,12.5252064 L24.1743709,8.34549588 C25.0297252,7.49667209 26.4073149,7.49667209 27.2467893,8.34549588 C28.1007,9.19360002 28.1007,10.5612894 27.2467893,11.4101132 L23.0620493,15.5869451 L28.9914234,15.5869451 C30.1878367,15.5869451 31.1644565,16.5581089 31.1644565,17.7556017 C31.1644565,18.954174 30.1878367,19.9220994 28.9914234,19.9220994 L23.067463,19.9220994 L27.2532856,24.1093662 Z" id="Fill-1278" fill="#1B4298"></path>
            </g>
        </g>
    </g>
</svg>