<?xml version="1.0" encoding="UTF-8"?>
<svg width="35px" height="35px" viewBox="0 0 35 35" version="1.1" xmlns="http://www.w3.org/2000/svg" xmlns:xlink="http://www.w3.org/1999/xlink">
    <!-- Generator: Sketch 47.1 (45422) - http://www.bohemiancoding.com/sketch -->
    <title>Slice 1</title>
    <desc>Created with Sketch.</desc>
    <defs></defs>
    <g id="Page-1" stroke="none" stroke-width="1" fill="none" fill-rule="evenodd">
        <path d="M17.4845815,0 C7.83259912,0 0,7.83259912 0,17.4845815 C0,21 1.04845815,24.2995595 2.83700441,27.0440529 L1.07929515,33.6431718 L7.58590308,31.9162996 C10.3920705,33.8590308 13.814978,35 17.5154185,35 C27.1674009,35 35,27.1674009 35,17.5154185 C34.969163,7.83259912 27.1365639,0 17.4845815,0 Z M17.4845815,28.185022 C15.7268722,28.185022 14.4317181,26.6431718 14.4317181,25.1013216 C14.4317181,23.5903084 15.5726872,21.9251101 17.4845815,21.9251101 C19.3964758,21.9251101 20.69163,23.4052863 20.69163,25.1013216 C20.660793,26.7665198 19.4273128,28.185022 17.4845815,28.185022 Z M19.0264317,20.0748899 C18.9030837,20.4757709 18.4405286,20.814978 18.0088106,20.814978 L17.1145374,20.814978 C16.6828194,20.814978 16.1894273,20.5066079 16.0660793,20.1057269 C15.8193833,19.4273128 14.4008811,10.7312775 14.215859,7.55506608 C14.185022,7.12334802 14.5550661,6.78414097 14.9867841,6.78414097 L20.1057269,6.78414097 C20.5374449,6.78414097 20.907489,7.12334802 20.876652,7.55506608 C20.6299559,10.8546256 19.2731278,19.3039648 19.0264317,20.0748899 Z" id="Shape" fill="#F6A623" fill-rule="nonzero"></path>
    </g>
</svg>