<?xml version="1.0" encoding="UTF-8" standalone="no"?>
<svg width="37px" height="34px" viewBox="0 0 37 34" version="1.1" xmlns="http://www.w3.org/2000/svg" xmlns:xlink="http://www.w3.org/1999/xlink">
    <!-- Generator: Sketch 47.1 (45422) - http://www.bohemiancoding.com/sketch -->
    <title>Artboard</title>
    <desc>Created with Sketch.</desc>
    <defs></defs>
    <g id="Page-1" stroke="none" stroke-width="1" fill="none" fill-rule="evenodd">
        <g id="Artboard">
            <g id="ico_nube-1" transform="translate(3.000000, 4.000000)">
                <path d="M11.8483911,20.9864733 L9.26328762,23.5723199" id="Line-6" stroke="#6CADDF" stroke-width="1.4000001" stroke-linecap="round"></path>
                <path d="M15.2951958,20.9864733 L12.7100923,23.5723199" id="Line-7" stroke="#6CADDF" stroke-width="1.4000001" stroke-linecap="round"></path>
                <path d="M18.7420005,20.9864733 L16.156897,23.5723199" id="Line-8" stroke="#6CADDF" stroke-width="1.4000001" stroke-linecap="round"></path>
                <path d="M5.60105763,19.0322733 C2.62743922,18.8266606 0.430850587,16.5094694 0.430850587,13.8753952 C0.430850587,10.6846504 2.84208032,8.27272757 6.03190822,8.27272757 C6.22495501,8.27272757 6.41629928,8.28453601 6.60523415,8.30759343 C7.37597512,3.81290345 11.1881002,0.515187825 15.9414717,0.515187825 C19.8678296,0.515187825 23.310662,3.1782571 24.5243139,6.97989906 C24.5356963,6.9798359 24.5470862,6.97980428 24.5584835,6.97980428 C27.8898144,6.97980428 30.5903917,9.68115783 30.5903917,13.0134463 C30.5903917,16.2008268 28.1195823,18.8109529 24.9893341,19.0319335 L24.9893341,19.0470883 L5.60105763,19.0470883 L5.60105763,19.0322733 Z" id="Oval-1" fill="#6CADDF"></path>
            </g>
        </g>
    </g>
</svg>