<?xml version="1.0" encoding="UTF-8" standalone="no"?>
<svg width="37px" height="34px" viewBox="0 0 37 34" version="1.1" xmlns="http://www.w3.org/2000/svg" xmlns:xlink="http://www.w3.org/1999/xlink">
    <!-- Generator: Sketch 47.1 (45422) - http://www.bohemiancoding.com/sketch -->
    <title>Artboard</title>
    <desc>Created with Sketch.</desc>
    <defs></defs>
    <g id="Page-1" stroke="none" stroke-width="1" fill="none" fill-rule="evenodd">
        <g id="Artboard" fill="#6CADDF">
            <g id="Ico-nube-3" transform="translate(3.000000, 4.000000)">
                <path d="M5.5834719,19.0322733 C2.60985348,18.8266606 0.413264849,16.5094694 0.413264849,13.8753952 C0.413264849,10.6846504 2.82449458,8.27272757 6.01432248,8.27272757 C6.20736927,8.27272757 6.39871354,8.28453601 6.58764841,8.30759343 C7.35838938,3.81290345 11.1705144,0.515187825 15.923886,0.515187825 C19.8502439,0.515187825 23.2930762,3.1782571 24.5067282,6.97989906 C24.5181106,6.9798359 24.5295005,6.97980428 24.5408977,6.97980428 C27.8722287,6.97980428 30.572806,9.68115783 30.572806,13.0134463 C30.572806,16.2008268 28.1019966,18.8109529 24.9717483,19.0319335 L24.9717483,19.0470883 L5.5834719,19.0470883 L5.5834719,19.0322733 Z M9.89197777,22.4948838 C9.41607335,22.4948838 9.03027659,22.1089761 9.03027659,21.6329349 C9.03027659,21.1568937 9.41607335,20.7709861 9.89197777,20.7709861 C10.3678822,20.7709861 10.7536789,21.1568937 10.7536789,21.6329349 C10.7536789,22.1089761 10.3678822,22.4948838 9.89197777,22.4948838 Z M13.7696331,22.4948838 C13.2937286,22.4948838 12.9079319,22.1089761 12.9079319,21.6329349 C12.9079319,21.1568937 13.2937286,20.7709861 13.7696331,20.7709861 C14.2455375,20.7709861 14.6313342,21.1568937 14.6313342,21.6329349 C14.6313342,22.1089761 14.2455375,22.4948838 13.7696331,22.4948838 Z M17.6472883,22.4948838 C17.1713839,22.4948838 16.7855872,22.1089761 16.7855872,21.6329349 C16.7855872,21.1568937 17.1713839,20.7709861 17.6472883,20.7709861 C18.1231928,20.7709861 18.5089895,21.1568937 18.5089895,21.6329349 C18.5089895,22.1089761 18.1231928,22.4948838 17.6472883,22.4948838 Z M21.5249436,22.4948838 C21.0490392,22.4948838 20.6632424,22.1089761 20.6632424,21.6329349 C20.6632424,21.1568937 21.0490392,20.7709861 21.5249436,20.7709861 C22.000848,20.7709861 22.3866448,21.1568937 22.3866448,21.6329349 C22.3866448,22.1089761 22.000848,22.4948838 21.5249436,22.4948838 Z M19.8015413,25.9426792 C19.3256369,25.9426792 18.9398401,25.5567716 18.9398401,25.0807304 C18.9398401,24.6046891 19.3256369,24.2187815 19.8015413,24.2187815 C20.2774457,24.2187815 20.6632424,24.6046891 20.6632424,25.0807304 C20.6632424,25.5567716 20.2774457,25.9426792 19.8015413,25.9426792 Z M15.923886,25.9426792 C15.4479816,25.9426792 15.0621848,25.5567716 15.0621848,25.0807304 C15.0621848,24.6046891 15.4479816,24.2187815 15.923886,24.2187815 C16.3997904,24.2187815 16.7855872,24.6046891 16.7855872,25.0807304 C16.7855872,25.5567716 16.3997904,25.9426792 15.923886,25.9426792 Z M12.0462307,25.9426792 C11.5703263,25.9426792 11.1845295,25.5567716 11.1845295,25.0807304 C11.1845295,24.6046891 11.5703263,24.2187815 12.0462307,24.2187815 C12.5221351,24.2187815 12.9079319,24.6046891 12.9079319,25.0807304 C12.9079319,25.5567716 12.5221351,25.9426792 12.0462307,25.9426792 Z" id="Oval-1"></path>
            </g>
        </g>
    </g>
</svg>