<?xml version="1.0" encoding="UTF-8" standalone="no"?>
<svg width="59px" height="59px" viewBox="0 0 59 59" version="1.1" xmlns="http://www.w3.org/2000/svg" xmlns:xlink="http://www.w3.org/1999/xlink">
    <!-- Generator: Sketch 47.1 (45422) - http://www.bohemiancoding.com/sketch -->
    <title>Artboard</title>
    <desc>Created with Sketch.</desc>
    <defs></defs>
    <g id="Page-1" stroke="none" stroke-width="1" fill="none" fill-rule="evenodd">
        <g id="Artboard" fill-rule="nonzero" fill="#6CADDF">
            <path d="M30,2 C14.6,2 2,14.6 2,30 C2,45.4 14.6,58 30,58 C45.4,58 58,45.4 58,30 C58,14.6 45.4,2 30,2 Z M45.54,21.46 C44.84,22.3 44.14,23 43.16,23.7 C43.02,23.7 43.02,23.84 43.02,23.84 C43.02,24.82 43.02,25.8 42.88,26.64 C42.6,28.6 42.04,30.56 41.2,32.24 C40.36,34.06 39.24,35.74 37.7,37.28 C35.32,39.8 32.38,41.34 28.88,42.18 C27.76,42.46 26.5,42.6 25.38,42.6 C21.74,42.74 18.38,41.76 15.16,39.8 C15.16,39.8 15.02,39.8 15.02,39.66 C17.26,39.94 19.36,39.66 21.46,38.82 C22.58,38.4 23.56,37.84 24.54,37 C21.18,36.86 19.22,34.48 18.66,32.52 C19.64,32.66 20.48,32.66 21.46,32.38 C21.46,32.38 21.46,32.38 21.6,32.38 C19.78,31.96 18.38,30.98 17.4,29.44 C16.7,28.46 16.42,27.34 16.42,26.08 C17.26,26.5 18.24,26.78 19.22,26.92 C17.82,25.94 16.98,24.68 16.56,23 C16.14,21.32 16.42,19.78 17.26,18.38 C20.76,22.44 25.1,24.68 30.42,25.1 C30.42,24.82 30.28,24.68 30.28,24.4 C30.14,22.86 30.42,21.46 31.26,20.2 C32.24,18.66 33.78,17.68 35.6,17.26 C37.7,16.84 39.66,17.54 41.2,19.08 C41.34,19.22 41.34,19.22 41.48,19.22 C42.74,18.94 44,18.52 45.12,17.82 C45.12,17.82 45.12,17.82 45.26,17.82 C45.26,17.82 45.26,17.82 45.26,17.82 C44.7,19.36 43.86,20.48 42.6,21.32 C43.86,21.18 44.98,20.9 46.1,20.34 C46.1,20.34 46.1,20.34 46.1,20.34 C46.1,20.76 45.82,21.18 45.54,21.46 Z" id="Shape-Copy-5"></path>
        </g>
    </g>
</svg>