<?xml version="1.0" encoding="UTF-8" standalone="no"?>
<svg width="37px" height="34px" viewBox="0 0 37 34" version="1.1" xmlns="http://www.w3.org/2000/svg" xmlns:xlink="http://www.w3.org/1999/xlink">
    <!-- Generator: Sketch 47.1 (45422) - http://www.bohemiancoding.com/sketch -->
    <title>Artboard</title>
    <desc>Created with Sketch.</desc>
    <defs></defs>
    <g id="Page-1" stroke="none" stroke-width="1" fill="none" fill-rule="evenodd">
        <g id="Artboard" fill="#6CADDF">
            <g id="Ico-today" transform="translate(2.000000, 2.000000)">
                <polygon id="Path-9" points="24.4684205 15.5765852 16.8496252 23.2200102 21.7123693 23.2200102 18.2106022 29.9705623 27.2099584 21.6767151 21.3893702 21.6767151"></polygon>
                <path d="M23.8703024,20.1910035 L26.6785732,20.1910035 L26.6785732,20.174492 C30.0790502,19.9337276 32.7631601,17.0899251 32.7631601,13.6171884 C32.7631601,9.9865706 29.8294468,7.04337332 26.2105281,7.04337332 C26.1981469,7.04337332 26.1857738,7.04340777 26.1734087,7.04347658 C24.8549844,2.90148553 21.1149385,0 16.8496252,0 C11.6859036,0 7.54468466,3.59294978 6.707407,8.49003528 C6.50216173,8.4649136 6.29429905,8.45204799 6.08458688,8.45204799 C2.61938686,8.45204799 0,11.0799027 0,14.5563049 C0,17.4261996 2.38621618,19.9508416 5.61654174,20.1748621 L5.61654174,20.1910035 L18.3377687,20.1910035 L26.2105281,12.678072 L23.8703024,20.1910035 Z" id="Oval-1"></path>
                <path d="M4.78058776,24.7893371 C4.59780476,24.9727109 4.59780476,25.2700188 4.78058776,25.4533927 C4.96337076,25.6367666 5.25972056,25.6367666 5.44250355,25.4533927 L8.25077442,22.6360433 C8.43355742,22.4526694 8.43355742,22.1553616 8.25077442,21.9719877 C8.06799142,21.7886138 7.77164163,21.7886138 7.58885863,21.9719877 L4.78058776,24.7893371 Z" id="Line" fill-rule="nonzero"></path>
                <path d="M8.52494892,24.7893371 C8.34216592,24.9727109 8.34216592,25.2700188 8.52494892,25.4533927 C8.70773192,25.6367666 9.00408171,25.6367666 9.18686471,25.4533927 L11.9951356,22.6360433 C12.1779186,22.4526694 12.1779186,22.1553616 11.9951356,21.9719877 C11.8123526,21.7886138 11.5160028,21.7886138 11.3332198,21.9719877 L8.52494892,24.7893371 Z" id="Line-2" fill-rule="nonzero"></path>
                <path d="M12.2693101,24.7893371 C12.0865271,24.9727109 12.0865271,25.2700188 12.2693101,25.4533927 C12.4520931,25.6367666 12.7484429,25.6367666 12.9312259,25.4533927 L15.7394967,22.6360433 C15.9222797,22.4526694 15.9222797,22.1553616 15.7394967,21.9719877 C15.5567137,21.7886138 15.2603639,21.7886138 15.0775809,21.9719877 L12.2693101,24.7893371 Z" id="Line-3" fill-rule="nonzero"></path>
            </g>
        </g>
    </g>
</svg>