<?xml version="1.0" encoding="UTF-8" standalone="no"?>
<svg width="37px" height="34px" viewBox="0 0 37 34" version="1.1" xmlns="http://www.w3.org/2000/svg" xmlns:xlink="http://www.w3.org/1999/xlink">
    <!-- Generator: Sketch 47.1 (45422) - http://www.bohemiancoding.com/sketch -->
    <title>Artboard</title>
    <desc>Created with Sketch.</desc>
    <defs></defs>
    <g id="Page-1" stroke="none" stroke-width="1" fill="none" fill-rule="evenodd">
        <g id="Artboard" fill="#6CADDF">
            <g id="Group-6" transform="translate(3.000000, 4.000000)">
                <path d="M5.57467903,19.0322733 C2.60106061,18.8266606 0.40447198,16.5094694 0.40447198,13.8753952 C0.40447198,10.6846504 2.81570171,8.27272757 6.00552961,8.27272757 C6.1985764,8.27272757 6.38992067,8.28453601 6.57885554,8.30759343 C7.34959651,3.81290345 11.1617216,0.515187825 15.9150931,0.515187825 C19.841451,0.515187825 23.2842834,3.1782571 24.4979353,6.97989906 C24.5093177,6.9798359 24.5207076,6.97980428 24.5321049,6.97980428 C27.8634358,6.97980428 30.5640131,9.68115783 30.5640131,13.0134463 C30.5640131,16.2008268 28.0932037,18.8109529 24.9629555,19.0319335 L24.9629555,19.0470883 L5.57467903,19.0470883 L5.57467903,19.0322733 Z" id="Oval-1"></path>
            </g>
        </g>
    </g>
</svg>