<?xml version="1.0" encoding="UTF-8" standalone="no"?>
<svg width="59px" height="59px" viewBox="0 0 59 59" version="1.1" xmlns="http://www.w3.org/2000/svg" xmlns:xlink="http://www.w3.org/1999/xlink">
    <!-- Generator: Sketch 47.1 (45422) - http://www.bohemiancoding.com/sketch -->
    <title>Artboard</title>
    <desc>Created with Sketch.</desc>
    <defs></defs>
    <g id="Page-1" stroke="none" stroke-width="1" fill="none" fill-rule="evenodd">
        <g id="Artboard" fill-rule="nonzero" fill="#6CADDF">
            <g id="Share" transform="translate(2.000000, 1.000000)">
                <path d="M27.84,0 C12.528,0 0,12.528 0,27.84 C0,43.152 12.528,55.68 27.84,55.68 C43.152,55.68 55.68,43.152 55.68,27.84 C55.68,12.528 43.152,0 27.84,0 Z M43.7088,18.9312 L40.2288,18.9312 C37.4448,18.9312 36.888,20.184 36.888,22.1328 L36.888,26.448 L43.4304,26.448 L42.5952,33.1296 L36.888,33.1296 L36.888,50.2512 L30.0672,50.2512 L30.0672,33.1296 L24.36,33.1296 L24.36,26.448 L30.0672,26.448 L30.0672,21.576 C30.0672,15.8688 33.5472,12.8064 38.5584,12.8064 C41.064,12.8064 43.152,12.9456 43.7088,13.0848 L43.7088,18.9312 L43.7088,18.9312 Z" id="Shape-Copy-4"></path>
            </g>
        </g>
    </g>
</svg>